<?xml version="1.0" encoding="utf-8"?>
<!-- Generator: Adobe Illustrator 22.0.1, SVG Export Plug-In . SVG Version: 6.00 Build 0)  -->
<svg version="1.1" id="Layer_1" xmlns="http://www.w3.org/2000/svg" xmlns:xlink="http://www.w3.org/1999/xlink" x="0px" y="0px"
	 viewBox="0 0 1390 360" style="enable-background:new 0 0 1390 360;" xml:space="preserve">
<style type="text/css">
	.st0{fill:#525C6F;}
</style>
<title>bg</title>
<g>
	<path class="st0" d="M474.2,235.7c4.7,1,7.1-4.6,9.7-5.3c1.9,2.8,2.8,4.2,5.1,4.7c3.5,0.7,5.2-1.4,8-3.2c0.2,4.9,4.4,8.3,10.3,9.5
		c2.3,0.5,6.1,0,8.9-1.9c0.9,1.4-0.6,20.7,8.8,22.6c2.3,0.5,3.8-0.5,6.1,0c-1.2,5.9-6.1,6-7.1,10.7c-1.2,5.9,4.2,9.4,2.7,16.4
		c-1.5,7.1-9.7,5.4-11.4,13.6c-1.2,5.8,3.2,8,2.7,10.3c-0.2,1.1-0.2,1.1-1.4,0.9c-2.3-0.5-4-4.5-8.6-5.4c-1.2-0.2-9.2,3-10.9,11.2
		c-3.5-0.7-5.4-3.5-8.9-4.3c-5.9-1.2-4,1.6-8.2,4.4c-1.9-2.8-4-4.5-7.5-5.2c-2.3-0.5-4.7-1-7.3-0.3c-1.9-2.9-2.3-6.6-5.8-7.3
		c-1.2-0.2-2.6,0.7-3.8,0.5c-1.2-0.2-12.5-28.2-15.5-31.3c1-4.7,5.5-8.6,6.4-13.3c0.7-3.5-1.1-6.4-1.6-10.1
		C464.9,250.9,451.9,231.1,474.2,235.7 M719.3,34.3c0.8,0.2,1.2-0.8,1.7-0.9c0.3,0.5,0.5,0.7,0.9,0.8c0.6,0.1,0.9-0.2,1.4-0.6
		c0,0.9,0.8,1.4,1.8,1.6c0.4,0.1,1.1,0,1.6-0.3c0.2,0.2-0.1,3.6,1.5,3.9c0.4,0.1,0.7-0.1,1.1,0c-0.2,1-1.1,1-1.2,1.9
		c-0.2,1,0.7,1.6,0.5,2.9c-0.3,1.2-1.7,0.9-2,2.4c-0.2,1,0.6,1.4,0.5,1.8c0,0.2,0,0.2-0.2,0.2c-0.4-0.1-0.7-0.8-1.5-0.9
		c-0.2,0-1.6,0.5-1.9,1.9c-0.6-0.1-0.9-0.6-1.5-0.7c-1-0.2-0.7,0.3-1.4,0.8c-0.3-0.5-0.7-0.8-1.3-0.9c-0.4-0.1-0.8-0.2-1.3,0
		c-0.3-0.5-0.4-1.1-1-1.3c-0.2,0-0.5,0.1-0.7,0.1c-0.2,0-2.2-4.9-2.7-5.4c0.2-0.8,0.9-1.5,1.1-2.3c0.1-0.6-0.2-1.1-0.3-1.8
		C717.7,37,715.4,33.5,719.3,34.3"/>
	<path class="st0" d="M38.3,246.9c0.7-0.7,1.4-0.7,2.9-0.7c0.2-1.1-1.6-3.4-0.2-4.9c6.2-6.9-4.3-7.2-1.2-14.9
		c-1.6-0.8-3.1-0.8-4.4-2c-1.7-1.5-2.4-4.2-4.1-5.7c-1.8,0.3-15.4-2.6-15.7-2.3c0,0,0,0.1,0,0.1c-0.6-3.6-1-7.4-1.2-7.8
		c-0.3-0.5-0.7-0.9-1.1-0.6c0,0,0.2,6.6,1.6,10c-1,0.8-2.5,0.1-3.9,0.1c-0.2,1.1-0.8,1.8-1.4,2.5c0.1-0.3,0.1-0.5,0.1-0.8
		c-0.3-0.5-1.8-0.8-2.3-0.6c-0.8,0.5-0.2,1.4,0.2,1.9c0.2,0.2,0.5,0.4,0.8,0.5c-0.7,0.4-1.5,0.6-2.5,0.6c0.3,2.2,1.8,2.3,0.2,4.1
		c-1,1.1-2.5,1.1-3.5,2.2c3,2.7,2.7,6.4,2.4,6.8c-1.3,1.5-3.2,1-3.9,1.8c-0.3,0.4-0.3,0.4,0.1,0.7c0.9,0.8,2.6-0.3,4.7,1.6
		c3,2.7,0.7,5.2,3.2,7.5c2.5,2.3,5,1.2,7.2,3.2c1.7,1.5,0.8,3.4,2.9,5.3c0.7-0.7,0.6-1.5,1.2-2.2c2.6-2.9,10.1,2.5,10.9,2.5
		c-0.2-1.5,0.4-3,1-3.7c1.6-1.8,3.8-2.5,5.8-1.3C37.8,249.1,37.3,248,38.3,246.9L38.3,246.9z"/>
	<path class="st0" d="M813.7,150.8c-1.6,0-2.5-0.7-4.1-2.1c-1.6,0.7-2.5,4.3-5.8,4.3c-15.6,0-4.1,10-17.2,13.7
		c0.8,2.2,2.5,3.6,2.5,5.8c0,2.9-2.5,5.7-2.5,8.6c2.5,1.4,14,16.5,14.8,16.5c0,0,0.1,0,0.1,0c-3.7,3.6-8.1,7.1-8.3,7.7
		c-0.2,0.7-0.4,1.4,0.4,1.6c0,0,8-5.7,10.7-9.9c2.1,0.3,2.9,2.2,4.4,3.5c1.6-0.7,3.1-0.7,4.7-0.7c-0.4,0.2-0.8,0.4-1.2,0.6
		c-0.2,0.7,1,2.4,1.8,2.6c1.6,0.3,2-1.1,2.2-1.8c0.1-0.4,0-0.8-0.3-1.1c1.3,0.3,2.4,0.9,3.5,1.9c2.5-2.1,0.8-3.6,4.9-3.6
		c2.5,0,4.1,1.4,6.6,1.4c0-5,4.9-7.9,5.8-7.9c3.3,0,4.9,2.1,6.6,2.1c0.8,0,0.8,0,0.8-0.7c0-1.5-3.3-2.2-3.3-5.8c0-5,5.7-5,5.7-9.4
		c0-4.3-4.1-5.7-4.1-9.3c0-2.9,3.3-3.6,3.3-7.2c-1.6,0-2.5,0.7-4.1,0.7c-6.6,0-8.2-11.5-9-12.2c-1.6,1.5-4.1,2.2-5.8,2.2
		c-4.1,0-7.4-1.5-8.2-4.3C817,149.4,816.2,150.8,813.7,150.8L813.7,150.8z"/>
	<path class="st0" d="M1405,69.7c0.4,0.1,0.6,0.4,0.8,0.4c0.7,0.1,1.2-0.6,1.3-1.1c0.2-1,0-1.5,0.1-2c0.6-1.2,1.2-2.1,2.2-2.7
		c2.2,0.4,3.5,2.6,4.8,2.8c0,0,0.3-0.2,0.3-0.5c-1.9-0.8-3.7-2.6-3.3-4.8c0.5-3.5,4.4-5.1,5.8-7.9l3.1,0.5c-0.9,0.7-2.1,1.7-2.3,2.5
		c0,0-0.1,0.2,0.1,0.3c0.9-0.9,2.2-2,3-2.7l0.4,0.1c-0.1,0-0.2-0.1-0.3-0.1c0.3-0.3,0.5-0.5,0.6-0.5c0.1-0.2,0.2-0.5,0-0.6
		c0,0-0.5,0.3-1.1,0.8c-1.1-0.5-2.3-0.8-3.5-1c-0.2,0-0.7,0.1-1.1,0.1c-1.1-0.2-1.1-1.7-0.9-2.9c0.5-3.5,3-0.5,3.4-2.7
		c0.1-0.6-2.2-0.7-3.1-2.3c0.2,0.1,0.4-0.4,0.5-0.6c-0.1-0.3-0.1-0.3-0.3-0.4c-0.1-0.1-0.3,0-0.4,0.1c0,0,0,0,0,0l2.7-1.1
		c0.2,0,0.3-0.2,0.3-0.2c0.1-0.7-0.7-1.6-1.1-1.7c-0.7-0.1-1.2,0.6-1.4,0.5c-1.1-0.2-1.1-1.4-1.2-2.2c1-0.3,2-0.9,2.2-2.2
		c0-0.2,0.1-0.5-0.4-0.6c-0.2,0-0.9,0.1-1.4,0.3c-1.6-0.2-2.8-1.2-2.5-2.9c0.1-0.7,2.9-2.8,2.9-2.8l-3.2,0c0,0,0,0,0,0
		c-0.1-0.4-0.4-0.9-0.7-1c-0.4-0.2-1.3,0.2-1.6,0.9c0,0,0,0,0,0c-1.1-0.7-2.4-1.7-3-2.3c0.4-2.2,2.1-3.4,2.3-4.4
		c0-0.2-0.1-0.5-0.4-0.6c-1.6-0.2-2.1,3.4-3.9,3.2c-0.7-0.1-1.3-0.7-1.1-1.4c0-0.2,0.2-0.3,0.3-0.6c0,0,0.1,0,0.1,0.1
		c0.5,0,0.5,0,0.6-0.3c0.3-0.7-1.6-1.5-1.8-1.6c0.1,0.2,0.1,0.3,0.1,0.5c-0.5,0.3-1.2,1.1-2,0.9c-2-0.3-1.7-2-1.4-4
		c-0.3,0.7-0.9,1.4-1.6,1.3c-1.1-0.2-1.6-1.5-2.5-1.7c-0.7-0.1-0.8,2.4-4.6,1.8c-0.9-0.1-0.8-1.9-0.8-2.4c-2.7,0.1-2,4.2-5.6,3.7
		c-0.4-0.1-1-0.7-1.5-0.7c-0.6-0.1-0.9,0.6-1.3,1.3l-0.2-0.1l0.1,0.2c-0.5,1-1.1,2.2-2.4,2c-0.4-0.1-0.8-0.6-1.2-1
		c-0.2,0.2-0.5,0.3-0.7,0.4c-0.2-0.5-0.4-0.9-0.6-1c-0.4-0.2-0.6-0.3-0.9-0.1c-0.2,0.4-0.2,0.9,0,1.4c-0.6,0.1-1.2,0.3-1.7,1.4
		c-0.5-0.2-0.8-0.3-1,0.4c-0.1,0.2-0.1,0.8,0.4,1c0.1,0,0.1,0.1,0.2,0.1c-0.1,0.4-0.2,0.9-0.3,1.4c-1.1-0.2-2.4-0.6-3.4-1
		c0.9-0.7,1.7-1.3,1.7-1.5c0.1-0.2,0.2-0.5,0-0.6c0,0-3.2,2.1-3.8,3.5c0,0-0.1,0.2,0.1,0.3c0.3-0.3,0.7-0.7,1.1-1.1
		c-0.1,1.2,1.5,1.9,2.5,2.8c-1.4,1.8-3.3,3.8-4.8,4.8c-0.2,0-0.4-0.3-0.6-0.3c-0.4-0.1-0.9,0.1-1,0.6c0.1,1,0.7,2.6,1.1,3.2
		c-0.7,0.4-2.7,3.9-4.4,3.6l-3.8-0.6c0.8,0.4,3.7,1.1,3.6,1.6c-0.1,0.5-0.4,1-0.4,1.2c-0.1,0.5,0.1,0.8,0.3,1.1
		c0.5-0.2,1-0.3,1.6-0.2c0.7,0.1,1.3,0.5,1.5,1.2c-0.1,0.1-0.1,0.2-0.2,0.3c-0.1,0.1,0,0.3,0.1,0.3c0,0,0,0,0,0c0.1,0,0.1,0,0.2-0.1
		c0,0.1,0,0.2,0,0.4c-0.3,2.2-2.1,3-2.4,5.2c0,0.2,0.1,0.8,0,1.3c-0.2,1-1.2,0.6-1.4,1.8c-0.1,0.7,0.7,1.4,0.7,1.6l0,0.2
		c0.9-0.1,2,0.1,3.4,0.3c1.5,2,2.2,7.9,3.9,9.7c0.9,0.1,1.3-1,2-0.9c1.9,0.8,2.2,1.6,2.1,2.6c-0.1,0.5-0.4,1-0.5,1.4
		c-0.1,0.5,0.1,0.8,0.8,0.9c1-0.6,1.1-1.3,2.5-1.1c3.6,0.6,1,3.9,2.5,4.2c0.9,0.1,1.6-1.3,3.1-1.7c-0.2,0.1-0.5,0.3-0.6,0.7
		c-0.3,0.7,0.3,1.2,0.9,1.5c0.6,0.3,1.5-0.1,1.8-0.8c0.3-0.7,0.1-1-0.1-1.1c-0.3-0.1-0.6-0.2-0.9-0.3c0.1,0,0.3,0,0.4,0
		c3.8,0.6,0.8,3.4,2.8,3.7c1.4,0.2,0.7-2.4,2.4-2.8c0.1,0.3,0.3,0.5,0.5,0.5c0.2,0,0.4-0.1,0.5-0.4c1.4,0.4,2.4,1.9,3.1,2
		c0.4,0.1,1.6-1.5,1.8-2.5c1.1,0.2,1.5,1.8,2.4,1.9c0.5-0.2,0.5-0.4,0.6-0.7c0.1-0.7-0.3-1-0.1-2c0-0.2,2.2-2.7,4.5-2.3
		c0.2,0,0.6,0.6,0.7,1.4c-0.1,0.5,0.5,1.3,0.9,1.4c0.5-0.2,0.7-0.4,0.8-0.6c0.2-1-0.6-2.1-0.5-2.9
		C1403.1,70.4,1404.6,69.7,1405,69.7L1405,69.7z"/>
	<path class="st0" d="M1299.5,113c-0.1,0-0.1-0.1-0.1-0.1c-0.1-0.1-0.2,0-0.3,0.1c-0.1,0.1-0.1,0.2-0.2,0.3
		c-0.2,0.1-0.3,0.2-0.5,0.3c-0.3-0.2-0.3-0.6-0.5-0.8c0,0-0.1,0-0.1,0.1c0.2,0.3,0.4,0.7,0.2,1c-0.3,0.5-1,0.5-1.4,0.9l-0.4-0.3
		c0.2-0.1,0.4-0.1,0.5-0.2c0,0,0,0,0-0.1c-0.2,0.1-0.5,0.2-0.7,0.2l-0.1,0l0,0c0,0-0.1,0-0.1,0c0,0-0.1,0.1,0,0.1c0,0,0.1,0,0.2-0.1
		c0.1,0.2,0.3,0.3,0.5,0.4c0,0,0.1,0,0.2,0.1c0.2,0.1,0,0.3-0.1,0.5c-0.3,0.5-0.5-0.1-0.7,0.2c-0.1,0.1,0.3,0.3,0.3,0.6
		c0,0-0.1,0-0.1,0.1c0,0.1,0,0.1,0,0.1c0,0,0,0,0.1,0c0,0,0,0,0,0l-0.5,0c0,0-0.1,0-0.1,0c-0.1,0.1,0,0.3,0,0.3c0.1,0.1,0.2,0,0.3,0
		c0.2,0.1,0.1,0.3,0,0.4c-0.2,0-0.4,0-0.5,0.2c0,0,0,0.1,0,0.1c0,0,0.1,0,0.2,0.1c0.2,0.1,0.3,0.4,0.2,0.6c-0.1,0.1-0.7,0.2-0.7,0.2
		l0.5,0.2l0,0c0,0.1,0,0.2,0,0.2c0.1,0.1,0.2,0,0.3,0c0,0,0,0,0,0c0.1,0.2,0.2,0.4,0.3,0.6c-0.2,0.3-0.6,0.4-0.7,0.5
		c0,0,0,0.1,0,0.1c0.2,0.1,0.6-0.4,0.8-0.2c0.1,0.1,0.1,0.2,0.1,0.3c0,0,0,0-0.1,0.1c0,0,0,0,0,0c-0.1,0-0.1,0-0.1,0
		c-0.1,0.1,0.1,0.3,0.2,0.4c0,0,0-0.1,0-0.1c0.1,0,0.3-0.1,0.4,0c0.3,0.2,0.1,0.4-0.1,0.7c0.1-0.1,0.2-0.2,0.3-0.1
		c0.2,0.1,0.1,0.3,0.3,0.4c0.1,0.1,0.3-0.3,0.8,0c0.1,0.1,0,0.4-0.1,0.4c0.4,0.2,0.6-0.5,1.1-0.2c0.1,0,0.1,0.2,0.2,0.2
		c0.1,0.1,0.2,0,0.3-0.1l0,0l0,0c0.2-0.1,0.3-0.3,0.5-0.2c0.1,0,0.1,0.2,0.1,0.2c0,0,0.1,0,0.1,0c0,0.1,0,0.2,0,0.2
		c0.1,0.1,0.1,0.1,0.1,0.1c0.1-0.1,0.1-0.1,0.1-0.2c0.1,0,0.2,0,0.4-0.1c0.1,0.1,0.1,0.1,0.2,0c0,0,0.1-0.1,0-0.2l0,0
		c0-0.1,0.1-0.1,0.1-0.2c0.2,0.1,0.3,0.3,0.4,0.4c-0.2,0.1-0.3,0.1-0.4,0.1c0,0-0.1,0.1,0,0.1c0,0,0.6-0.1,0.8-0.3c0,0,0,0,0-0.1
		c-0.1,0-0.2,0.1-0.2,0.1c0.1-0.2-0.1-0.4-0.2-0.6c0.3-0.2,0.8-0.4,1.1-0.4c0,0,0,0.1,0.1,0.1c0.1,0,0.1,0,0.2,0
		c0.1-0.2,0.1-0.5,0.1-0.6c0.1,0,0.7-0.4,0.9-0.3l0.5,0.3c-0.1-0.1-0.5-0.4-0.4-0.5c0-0.1,0.1-0.1,0.2-0.2c0-0.1,0-0.1,0-0.2
		c-0.1,0-0.2,0-0.3-0.1c-0.1-0.1-0.2-0.2-0.2-0.3c0,0,0,0,0,0c0,0,0-0.1,0-0.1c0,0,0,0,0,0c0,0,0,0,0-0.1c0.2-0.3,0.5-0.3,0.7-0.7
		c0,0,0-0.1,0.1-0.2c0.1-0.1,0.2,0,0.3-0.2c0.1-0.1,0-0.3,0-0.3l0,0c-0.1,0-0.3-0.1-0.5-0.3c-0.1-0.4,0.2-1.4,0.1-1.8
		c-0.1-0.1-0.3,0.1-0.4,0c-0.2-0.3-0.2-0.4-0.1-0.5c0-0.1,0.1-0.1,0.2-0.2c0-0.1,0-0.1-0.1-0.2c-0.2,0-0.3,0.1-0.5,0
		c-0.5-0.3,0.1-0.7-0.1-0.8c-0.1-0.1-0.3,0.1-0.6,0.1c0.1,0,0.1,0,0.1-0.1c0.1-0.1,0-0.2,0-0.3c-0.1-0.1-0.2-0.1-0.3,0
		c-0.1,0.1-0.1,0.2-0.1,0.2c0,0,0.1,0.1,0.1,0.1c0,0,0,0-0.1,0c-0.5-0.3,0.1-0.6-0.2-0.8c-0.2-0.1-0.3,0.3-0.6,0.3
		c0-0.1,0-0.1,0-0.1c0,0-0.1,0-0.1,0c-0.2-0.2-0.2-0.5-0.3-0.5c-0.1,0-0.4,0.1-0.4,0.3c-0.2-0.1-0.1-0.4-0.2-0.5
		c-0.1,0-0.1,0-0.1,0.1c-0.1,0.1,0,0.2-0.1,0.3c0,0-0.5,0.3-0.8,0.1c0,0,0-0.1,0-0.3c0-0.1,0-0.2,0-0.3c-0.1,0-0.1,0-0.2,0
		c-0.1,0.1-0.1,0.4-0.1,0.5C1299.8,113,1299.6,113,1299.5,113L1299.5,113z"/>
	<path class="st0" d="M373.2,18.3c-0.1,0-0.1-0.1-0.1-0.1c-0.1-0.1-0.3,0-0.3,0.1c-0.1,0.2-0.1,0.3-0.2,0.3
		c-0.2,0.2-0.4,0.3-0.6,0.3c-0.3-0.2-0.4-0.7-0.6-0.8c0,0-0.1,0-0.1,0.1c0.3,0.3,0.4,0.7,0.2,1.1c-0.4,0.6-1.2,0.6-1.6,1l-0.5-0.3
		c0.2-0.1,0.5-0.1,0.6-0.3c0,0,0,0,0-0.1c-0.2,0.1-0.5,0.2-0.7,0.2l-0.1,0c0,0,0,0,0,0c0,0-0.1,0-0.1,0c0,0-0.1,0.1,0,0.1
		c0,0,0.1,0,0.3-0.1c0.1,0.2,0.3,0.3,0.5,0.4c0,0,0.1,0,0.2,0.1c0.2,0.1,0,0.4-0.1,0.6c-0.4,0.6-0.6-0.1-0.8,0.2
		c-0.1,0.1,0.3,0.3,0.3,0.6c0,0-0.1,0-0.1,0.1c0,0.1,0,0.1,0,0.1c0,0,0,0,0.1,0l0,0l-0.5,0c0,0-0.1,0-0.1,0c-0.1,0.1,0,0.3,0.1,0.4
		c0.1,0.1,0.3,0,0.3,0c0.2,0.1,0.1,0.3,0,0.5c-0.2,0-0.4,0-0.5,0.2c0,0-0.1,0.1,0,0.1c0,0,0.2,0,0.3,0.1c0.2,0.2,0.4,0.4,0.2,0.7
		c-0.1,0.1-0.7,0.3-0.7,0.3l0.5,0.2h0c0,0.1,0,0.2,0,0.2c0.1,0.1,0.2,0.1,0.3,0c0,0,0,0,0,0c0.1,0.2,0.3,0.5,0.3,0.6
		c-0.2,0.4-0.6,0.5-0.7,0.6c0,0,0,0.1,0,0.1c0.2,0.2,0.6-0.5,0.9-0.3c0.1,0.1,0.2,0.2,0.1,0.3c0,0-0.1,0-0.1,0.1c0,0,0,0,0,0
		c-0.1,0-0.1,0-0.1,0c-0.1,0.1,0.1,0.4,0.2,0.4c0,0,0-0.1,0-0.1c0.1,0,0.3-0.1,0.4,0c0.3,0.2,0.1,0.5-0.1,0.8
		c0.1-0.1,0.3-0.2,0.4-0.1c0.2,0.1,0.1,0.4,0.3,0.5c0.1,0.1,0.3-0.4,0.9,0c0.1,0.1,0,0.4-0.1,0.5c0.5,0.2,0.7-0.6,1.2-0.2
		c0.1,0,0.1,0.2,0.2,0.2c0.1,0.1,0.2,0,0.3-0.1l0,0l0,0c0.2-0.1,0.4-0.3,0.6-0.2c0.1,0,0.1,0.2,0.1,0.3c0,0,0.1,0,0.1,0
		c0,0.1,0,0.2,0,0.2c0.1,0.1,0.1,0.1,0.1,0.1c0.1-0.1,0.1-0.1,0.1-0.2c0.1,0,0.2,0,0.4-0.1c0.1,0.1,0.1,0.1,0.2,0c0,0,0.1-0.1,0-0.2
		c0,0,0,0,0,0c0-0.1,0.1-0.1,0.2-0.2c0.2,0.1,0.4,0.3,0.5,0.4c-0.2,0.1-0.4,0.1-0.4,0.1c0,0-0.1,0.1,0,0.1c0,0,0.7-0.1,0.9-0.3
		c0,0,0,0,0-0.1c-0.1,0-0.2,0.1-0.3,0.1c0.1-0.2-0.1-0.5-0.2-0.7c0.4-0.2,0.9-0.4,1.2-0.5c0,0,0,0.1,0.1,0.1c0.1,0,0.2,0,0.2,0
		c0.1-0.2,0.1-0.5,0.1-0.6c0.2,0,0.8-0.5,1-0.3l0.6,0.4c-0.1-0.1-0.5-0.5-0.5-0.5c0.1-0.1,0.1-0.1,0.2-0.2c0.1-0.1,0-0.1,0-0.2
		c-0.1,0-0.2,0-0.3-0.1c-0.1-0.1-0.2-0.2-0.2-0.3c0,0,0,0,0.1,0c0,0,0-0.1,0-0.1c0,0,0,0,0,0c0,0,0,0,0-0.1c0.2-0.4,0.6-0.4,0.8-0.7
		c0,0,0-0.1,0.1-0.2c0.1-0.2,0.3,0,0.4-0.2c0.1-0.1,0-0.3,0-0.3l0,0c-0.2,0-0.3-0.2-0.5-0.3c-0.1-0.5,0.3-1.6,0.1-2
		c-0.1-0.1-0.3,0.1-0.4,0c-0.3-0.3-0.3-0.5-0.1-0.6c0.1-0.1,0.1-0.1,0.2-0.2c0.1-0.1,0-0.1-0.1-0.2c-0.2,0-0.3,0.2-0.5,0
		c-0.6-0.4,0.2-0.8-0.1-0.9c-0.1-0.1-0.4,0.1-0.7,0.1c0.1,0,0.1,0,0.2-0.1c0.1-0.1,0-0.2,0-0.3c-0.1-0.1-0.3-0.1-0.4,0
		c-0.1,0.1-0.1,0.2-0.1,0.2c0,0,0.1,0.1,0.1,0.1c0,0,0,0-0.1,0c-0.6-0.4,0.1-0.7-0.2-0.9c-0.2-0.1-0.3,0.4-0.6,0.3
		c0-0.1,0-0.1,0-0.1c0,0-0.1,0-0.1,0c-0.2-0.2-0.3-0.5-0.4-0.6c-0.1,0-0.4,0.1-0.5,0.3c-0.2-0.1-0.1-0.4-0.3-0.5
		c-0.1,0-0.1,0-0.1,0.1c-0.1,0.1,0,0.2-0.1,0.4c0,0-0.6,0.3-0.9,0.1c0,0-0.1-0.1,0-0.3c0.1-0.1,0-0.3,0-0.3c-0.1,0-0.2,0-0.2,0.1
		c-0.1,0.2-0.1,0.4-0.2,0.5C373.5,18.3,373.2,18.4,373.2,18.3L373.2,18.3z M418.8,178.5c-0.3,0.1-0.3,0.5-0.2,0.8
		c0.2,0.4,0.4,0.6,0.5,0.8c0.1,0.6,0.1,1.1-0.1,1.6c-0.9,0.5-2-0.1-2.5,0.2c0,0,0,0.2,0,0.3c0.9-0.2,2.1,0,2.6,1
		c0.8,1.5-0.2,3.2,0.1,4.6l-1.2,0.6c0.1-0.5,0.3-1.2,0.2-1.6c0,0,0-0.1-0.1-0.1c-0.1,0.6-0.3,1.4-0.4,1.9l-0.1,0.1c0,0,0.1,0,0.1,0
		c0,0.2-0.1,0.3-0.1,0.3c0,0.1,0.1,0.2,0.2,0.2c0,0,0.1-0.3,0.2-0.6c0.5-0.1,1.1-0.3,1.6-0.5c0.1,0,0.2-0.2,0.4-0.3
		c0.5-0.2,0.9,0.4,1.1,0.9c0.8,1.5-1,1-0.5,2c0.1,0.3,1-0.3,1.8,0.1c-0.1,0,0,0.2,0,0.4c0.1,0.1,0.1,0.1,0.2,0.1
		c0.1,0,0.1-0.1,0.1-0.1c0,0-0.7,1.2-0.7,1.2c-0.1,0,0,0.2,0,0.2c0.2,0.3,0.7,0.4,0.9,0.4c0.3-0.1,0.3-0.5,0.4-0.6
		c0.5-0.2,0.8,0.3,1.1,0.5c-0.3,0.4-0.5,0.9-0.2,1.4c0.1,0.1,0.1,0.2,0.3,0.1c0.1,0,0.3-0.3,0.4-0.5c0.6-0.3,1.3-0.3,1.7,0.5
		c0.2,0.3-0.3,1.9-0.3,1.9l1.2-0.9c0.1,0.1,0.4,0.2,0.5,0.2c0.2,0,0.4-0.4,0.3-0.8c0.6,0,1.3,0,1.7,0.1c0.5,1,0.2,1.9,0.4,2.3
		c0.1,0.1,0.2,0.2,0.3,0.1c0.6-0.3-0.2-1.9,0.6-2.3c0.3-0.1,0.7-0.1,0.8,0.2c0,0.1,0,0.2,0.1,0.3c-0.2,0.2-0.2,0.2-0.2,0.3
		c0.1,0.3,1,0.2,1.1,0.1c-0.1,0-0.1-0.1-0.2-0.2c0.1-0.3,0.1-0.7,0.5-0.9c0.8-0.4,1.2,0.3,1.6,1.2c-0.1-0.4,0-0.8,0.2-0.9
		c0.5-0.2,1,0.2,1.4,0c0.3-0.1-0.4-1.2,1.2-1.9c0.4-0.2,0.8,0.5,0.9,0.7c1-0.8-0.4-2.2,1-2.9c0.2-0.1,0.6,0,0.7-0.1
		c0.2-0.1,0.2-0.5,0.1-0.9c-0.1-0.6-0.2-1.2,0.3-1.5c0.2-0.1,0.5,0,0.7,0c0-0.1,0.1-0.2,0.1-0.3c0.2,0.1,0.4,0.2,0.5,0.2
		c0.2,0,0.3-0.1,0.4-0.2c-0.1-0.2-0.2-0.4-0.4-0.5c0.2-0.2,0.3-0.5,0.2-1c0.3,0,0.4-0.1,0.3-0.4c0-0.1-0.2-0.3-0.4-0.3
		c0,0-0.1,0-0.1,0c-0.1-0.2-0.2-0.4-0.3-0.6c0.5-0.2,1-0.4,1.5-0.5c-0.1,0.5-0.2,1-0.2,1c0,0.1,0.1,0.2,0.2,0.2c0,0,0.6-1.7,0.4-2.4
		c0,0,0-0.1-0.1-0.1c0,0.2-0.1,0.5-0.1,0.7c-0.3-0.5-1.1-0.3-1.7-0.4c0-1.1,0.2-2.4,0.4-3.2c0.1,0,0.2,0,0.3,0
		c0.2-0.1,0.3-0.3,0.2-0.5c-0.3-0.4-1-0.8-1.3-0.9c0.2-0.4-0.1-2.2,0.6-2.6l1.5-0.8c-0.4,0.1-1.7,0.6-1.8,0.4
		c-0.1-0.2-0.1-0.5-0.2-0.6c-0.1-0.2-0.3-0.3-0.4-0.3c-0.1,0.2-0.3,0.4-0.5,0.5c-0.3,0.2-0.6,0.1-0.9,0c0-0.1,0-0.1,0-0.2
		c0-0.1-0.1-0.1-0.1-0.1c0,0,0,0-0.1,0.1c0,0-0.1-0.1-0.1-0.1c-0.5-1-0.1-1.7-0.6-2.7c-0.1-0.1-0.3-0.3-0.4-0.5
		c-0.2-0.4,0.3-0.5,0-1.1c-0.2-0.3-0.6-0.3-0.7-0.4l-0.1-0.1c-0.3,0.3-0.8,0.5-1.3,0.8c-1.1-0.4-3-2.5-4.1-2.7
		c-0.4,0.2-0.2,0.8-0.5,0.9c-0.9,0.2-1.3,0-1.5-0.4c-0.1-0.2-0.1-0.5-0.2-0.7c-0.1-0.2-0.3-0.3-0.5-0.1c-0.2,0.5,0,0.8-0.6,1.1
		c-1.5,0.7-1.4-1.3-2.1-0.9c-0.4,0.2-0.2,0.9-0.7,1.5c0.1-0.1,0.1-0.3,0-0.4c-0.1-0.3-0.4-0.4-0.7-0.3c-0.3,0.1-0.5,0.5-0.4,0.8
		c0.1,0.3,0.2,0.4,0.3,0.4c0.1,0,0.3-0.1,0.4-0.1c-0.1,0-0.1,0.1-0.2,0.1c-1.5,0.8-1.2-1.1-2.1-0.7c-0.6,0.3,0.4,1.1-0.1,1.7
		c-0.1-0.1-0.3-0.1-0.3-0.1c-0.1,0-0.1,0.2-0.1,0.3c-0.6,0.2-1.4-0.1-1.7,0.1c-0.2,0.1-0.2,1,0,1.4c-0.5,0.2-1-0.3-1.4-0.1
		c-0.1,0.2-0.1,0.3,0,0.4c0.2,0.3,0.4,0.3,0.6,0.8c0.1,0.1-0.1,1.6-1,2.1c-0.1,0-0.4-0.1-0.6-0.3c-0.1-0.2-0.5-0.4-0.7-0.3
		c-0.1,0.2-0.2,0.3-0.1,0.5c0.2,0.4,0.8,0.7,1,1c0.2,0.4-0.1,1.1-0.3,1.2C419,178.5,418.8,178.5,418.8,178.5L418.8,178.5z
		 M510.4,88.6c-0.2,0.1-0.3,0.1-0.4,0.2c-0.2,0.2-0.1,0.6,0,0.8c0.3,0.3,0.5,0.5,0.7,0.6c0.2,0.6,0.4,1.1,0.4,1.6
		c-0.8,0.7-1.9,0.5-2.4,0.9c0,0,0,0.2,0.1,0.2c0.8-0.4,2-0.5,2.7,0.3c1.1,1.2,0.6,3.1,1.3,4.5l-1,0.9c0-0.6,0-1.2-0.2-1.6
		c0,0-0.1-0.1-0.2-0.1c0.1,0.6,0.1,1.4,0.1,1.9l-0.1,0.1c0,0,0.1,0,0.1-0.1c0,0.2,0,0.3,0,0.4c0.1,0.1,0.1,0.2,0.2,0.2
		c0,0,0-0.3,0-0.6c0.5-0.2,0.9-0.6,1.4-0.9c0.1-0.1,0.1-0.3,0.3-0.4c0.4-0.3,0.9,0.1,1.3,0.6c1.1,1.2-0.7,1.2,0.1,2
		c0.2,0.2,0.9-0.6,1.7-0.4c-0.1,0,0,0.2,0.1,0.3c0.2,0.1,0.2,0.1,0.2,0c0.1,0,0.1-0.1,0.1-0.2c0,0,0,0,0,0l-0.4,1.3
		c-0.1,0.1,0,0.2,0,0.2c0.2,0.3,0.8,0.3,0.9,0.1c0.2-0.2,0.1-0.6,0.2-0.7c0.4-0.3,0.9,0,1.2,0.2c-0.1,0.4-0.2,1,0.2,1.4
		c0.1,0.1,0.2,0.2,0.3,0c0.1-0.1,0.2-0.4,0.3-0.6c0.5-0.5,1.2-0.6,1.8,0c0.2,0.3,0.2,1.9,0.2,1.9l0.9-1.1l0,0
		c0.2,0.1,0.4,0.1,0.6,0.1c0.2-0.1,0.3-0.5,0.1-0.8c0,0,0,0,0,0c0.5-0.2,1.3-0.3,1.7-0.4c0.7,0.8,0.7,1.8,1,2.2
		c0.1,0.1,0.2,0.1,0.3,0c0.5-0.5-0.7-1.8-0.1-2.3c0.2-0.2,0.6-0.2,0.9,0c0.1,0.1,0.1,0.2,0.1,0.3c0,0,0,0-0.1,0
		c-0.1,0.2-0.1,0.2-0.1,0.3c0.2,0.3,1-0.1,1.1-0.2c-0.1,0-0.1-0.1-0.2-0.1c0-0.3-0.1-0.8,0.2-1c0.7-0.6,1.2,0,1.9,0.7
		c-0.2-0.3-0.2-0.7,0-0.9c0.4-0.3,1-0.1,1.3-0.4c0.2-0.2-0.6-1,0.6-2.2c0.3-0.3,0.9,0.3,1.1,0.5c0.8-1-1-2,0.2-3.1
		c0.2-0.1,0.5-0.2,0.7-0.3c0.2-0.2,0-0.5-0.1-0.9l0.1,0l-0.1,0c-0.2-0.5-0.5-1.1-0.1-1.5c0.2-0.1,0.5-0.1,0.7-0.1
		c0-0.1,0-0.2,0.1-0.4c0.2,0.1,0.5,0.1,0.6,0.1c0.2-0.1,0.3-0.1,0.3-0.3c-0.1-0.2-0.3-0.3-0.5-0.4c0.1-0.2,0.2-0.5,0-1
		c0.2-0.1,0.3-0.2,0.1-0.5c-0.1-0.1-0.3-0.3-0.5-0.2c0,0-0.1,0-0.1,0c-0.1-0.2-0.3-0.3-0.4-0.5c0.4-0.3,0.9-0.7,1.4-0.9
		c0,0.5,0,1,0.1,1.1c0.1,0.1,0.1,0.2,0.2,0.2c0,0,0.1-1.8-0.2-2.4c0,0-0.1-0.1-0.2-0.1c0,0.2,0.1,0.5,0.1,0.7
		c-0.4-0.4-1.1-0.1-1.8,0c-0.3-1-0.4-2.3-0.4-3.2c0.1-0.1,0.2-0.1,0.3-0.1c0.2-0.1,0.2-0.4,0.1-0.5c-0.4-0.3-1.2-0.5-1.5-0.6
		c0.1-0.4-0.7-2.1-0.1-2.7l1.3-1.2c-0.4,0.2-1.4,1-1.6,0.8c-0.2-0.2-0.2-0.4-0.3-0.5c-0.2-0.2-0.3-0.2-0.5-0.2
		c-0.1,0.2-0.1,0.4-0.4,0.7c-0.2,0.2-0.6,0.3-0.9,0.2c0-0.1,0-0.1,0-0.1c-0.1-0.1-0.2-0.1-0.2-0.1c0,0,0,0.1,0,0.1
		c0,0-0.1-0.1-0.1-0.1c-0.7-0.8-0.5-1.6-1.2-2.4c-0.1-0.1-0.3-0.2-0.5-0.4c-0.3-0.4,0.1-0.6-0.3-1.1c-0.2-0.3-0.7-0.2-0.8-0.3
		l-0.1-0.1c-0.2,0.4-0.6,0.7-1.1,1.1c-1.2-0.1-3.5-1.6-4.7-1.5c-0.3,0.3,0,0.8-0.2,1c-0.8,0.4-1.2,0.3-1.5,0
		c-0.2-0.2-0.2-0.4-0.4-0.6c-0.2-0.2-0.3-0.2-0.5,0c-0.1,0.5,0.2,0.8-0.3,1.2c-1.2,1.1-1.7-0.8-2.3-0.4c-0.3,0.3,0,0.9-0.3,1.6
		c0-0.1,0-0.3-0.1-0.4c-0.2-0.3-0.5-0.3-0.8-0.1c-0.3,0.1-0.4,0.6-0.2,0.9c0.2,0.3,0.3,0.4,0.4,0.3c0.1-0.1,0.3-0.1,0.4-0.2
		c0,0-0.1,0.1-0.1,0.1c-1.3,1.2-1.5-0.7-2.2-0.1c-0.5,0.4,0.7,1,0.3,1.7c-0.1,0-0.3,0-0.3,0c-0.1,0.1-0.1,0.2,0,0.3
		c-0.5,0.4-1.4,0.3-1.6,0.5c-0.2,0.1,0.1,1,0.4,1.4c-0.4,0.3-1.1,0-1.4,0.3c-0.1,0.2,0,0.3,0.1,0.4c0.2,0.3,0.5,0.2,0.8,0.6
		c0.1,0.1,0.4,1.6-0.4,2.3c-0.1,0.1-0.4,0-0.7-0.2c-0.2-0.2-0.6-0.2-0.8-0.1c-0.1,0.2-0.1,0.4,0,0.5c0.3,0.4,0.9,0.4,1.2,0.7
		C510.7,87.7,510.6,88.4,510.4,88.6L510.4,88.6z"/>
	<path class="st0" d="M75.2,123.7c2.3-1,5.4-2,7.8-2.1c1.6-0.1,2.4,0.6,4,0.5c3-2.6,7.7-4.5,13.1-5.7c3.8,8.5,11.5,16.7,11.8,20.7
		c0.6,7.9-20.5,25.3-27.3,31.4c10.7-6.3,22.9-14.3,31.9-22.1c4,0.5,13.1,4.7,13.2,7c0.4,5.5-6.5,9.2-6.2,14c0.1,1.6,1.9,3.9,3.5,3.7
		c2.4-0.2,5.7-10,8.7-11.8c4.8-0.3,17,15.5,18.6,15.4c0,0-1.3,4.1-1.1,6.4c0.2,3.2,4.9,2,5.7,13.1c1.9-6.5,4.2-19.4,11.3-19.9
		c5.6-0.4,14.4,1.4,14.7,5.3c0.1,1.6-0.6,3.2-0.5,4.8c0.4,5.5,3,8.6,4,10.9c-0.6,14.4,2,28.5,0.4,40.6c4-0.3,1-31.9,1.1-40.7
		c2.2-2.5,2.8-5.8,2.6-8.9c-0.1-1.6-1-3.1-1.2-5.5c-0.4-6.3,9.9-7.1,13.8-7.3c15.9-1.1,9.8,15.2,20.1,14.5c0.8-0.1,0.7-0.8,0.7-1.6
		c-0.3-4.8-2.2-9.4-3.4-14.9c3.6-5,16.8-9.9,19.2-10.1c2.4-0.2,9.2,6.5,10.8,6.4c0.8-0.1,1.4-2.5,1.4-3.3c-0.2-3.2-2.8-5.4-3-8.6
		c-0.2-2.4,1.9-6.5,4.3-6.7c3.2-0.2,6,5.9,9.2,5.7c1.6-0.1,3.1-1.8,3-2.6l-4.7-10c2.8-5,7.4-7.7,12.6-12.8c3.3,1.4,8.4,5.8,12.3,5.5
		c1.6-0.1,2.3-1,3.1-1.8c-2.2-9.4-11.8-8.7-11.9-10.3c-0.3-4.8,3.2-10.6,6.2-13.2c5.8,2.8,32.2,16.1,33.8,16c0.8-0.1,2.3-1,2.3-1.8
		c0.1,0.8-28.6-21.1-28.7-23.5c-0.1-0.8,2.3-1.7,3.8-2.7c3.2-0.2,4.9,2,8.1,1.8c4-0.3,3.8-2.7,3.6-5c-0.2-2.4-9.7-1.7-14.7-5.3
		c-0.5-7.1-0.4-17.5,4.8-22.6c10.3-0.7,16-9.9,23.2-10.4c4-0.3,8,1,10.4,0.9c0.8-0.1,1.5-0.9,1.5-0.9c-0.2-2.4-7.4-2.7-9.7-2.5
		c-0.8,0.1-2.3,1-3.1,1c-1.7-1.5-5-2.8-8.1-2.6c-2.4,0.2-4.7,1.1-7.1,1.3c-8.7,0.6-10.8-7.2-11.5-15.9c4.8-0.3,15.9-1.1,15.6-5.1
		c-0.3-4-19.2-1.8-19.6-7.4c-0.6-8.7,12.4-4.8,15.1-12.2c-0.1-1.6-1.8-3.1-1.9-4.6c0,0.3-12.7,6.6-13.9,7.3
		c-2.4-1.8-4.2-3.7-5.5-5.6c0.4-0.5,0.7-1.2,0.9-2.2c0.2-1.1-1.3-2.5-2.4-2.7c-2.2-6.2,1.2-12.6,7-18.2c0,1,0.3,1.7,1.9,1.9
		c1.1,0.2,1.9-0.8,2-2c0.1-0.5-0.2-2.1-1.2-2.4c1.9-1.5,3.9-2.9,5.9-4.2c-2.6-0.7-4.8,0-7.6,0c0.2-0.3,1.4-1.1,1.9-3.8
		c0.1,0.1,0.4,0.1,0.9,0.2c0.5,0.1,0.6-0.5,0.7-1c0.2-1.1,0.4-2.2-0.7-2.4c-0.3,0-0.5,0.5-0.7,1.1c0-0.7,0-1.4,0-2
		c-6.3-0.9-12.7,0.2-18.5,2.1c-0.1-0.6-0.4-0.9-0.8-1c-1.1-0.2-1.8,0.3-1.9,0.9c-0.1,0.5-0.1,0.8-0.1,1.2c-2.6,1-5.2,2.3-7.7,3.6
		c-0.4-2.2-0.9-4.6-1.2-6.9c1.3,0.3,2.1-1.3,2.1-1.3c0.2-1.1-0.2-2.3-0.7-2.4c-0.8,0.3-1.3,0.6-1.7,1c-1.3,0.6-5.1,2.1-8,4
		c-0.3-0.2-0.6-0.4-0.8-0.4c-0.6-0.1-0.7,1-0.8,1.6c-0.2,0.2-0.5,0.4-0.7,0.6c-1.7-2.5-7.4-7.3-8.9-10c-0.7,2.1-3.9,6.6-4.9,9.7
		c-0.3-3.6-1.2-6.9-2.6-10.1c1.3,0.6,2.8,1.1,4.5,1.7c0.3-1.6-2.5-2.5-5.1-3.1c-2.7-5.5-7-10.2-12.3-14c-9,5.4-14.1,13-21.9,10.3
		c0.3-0.5,0.6-1,0.6-1.3c0.3-1.7-0.7-2.9-2.3-3.2c-1.1-0.2-2.5,1.3-3.8,2.2c-2.3,3.7-6,9.5-9.3,9.8c-1.9,0.1-8.8-7.3-11.2-7.2
		c-3.2,0.2-4.6,14.7-13.3,15.3c-3.2-0.6-4.4-5.3-9.1-4.9c-2,0.1-0.8,5.8-4.9,8c-0.3-0.2-0.7-0.3-1.2-0.2c-0.4,0-0.9,0.3-1.3,0.6
		c-1.3,0.7-2.8,2-2.9,2.7c-0.1,0.6-0.2,1-0.1,1.4c-2-0.1-4.2-0.4-5.4-0.3c-2.3,0.2-5.7,4.7-9.1,9.8c0.1-0.2-0.5-1.1-0.5-1.1
		c-0.6,0-1.1,0.6-1,1.2c0,0.6,0.1,1.1,0.6,1.1c-4.3,6.7-9,14.2-12,14.4c-4.8,0.3-10-6.5-12.4-6.3c1.8,2.3,7.6,5.8,7.7,8.2
		c0.8,11.1-10,5.5-9.3,15c0.2,2.4,1.1,4.7,2,6.2c-1.9,6.5-6.4,10.8-11,13.5l3.2,11.7c0.9,12.7-10.8,5.5-10.2,13.5
		c0.3,4,8.9,2.6,9.6,12.1c0.5,7.1-8.4,5.4-7.9,11.7c0.4,6.3,9,3.4,9.1,4.9c0.1,1.6-0.6,2.4-0.6,3.2c0.2,2.4,1,3.1,1.1,4.7
		c0.7,10.3-21.6,9.5-21.3,14.2C74.3,121.4,75.2,122.9,75.2,123.7L75.2,123.7z"/>
	<path class="st0" d="M1164.4,70.7c-2.8-1.6-17.4-8.8-30.4,5c0,0-0.1,2.4-0.7,3.3c-2,3.5-2.8,1.3-4.2,3.1c-3.2,0-6-0.3-7.2-1
		c-0.7-0.4-1-1.6-1.8-2l-4.4-2.5c0,0-1-8.4-4.7-10.5c3.7,2.1,3.2,9.6,1.5,12.6c1.5,0.8,2.3-0.6,3.8,0.2c-1.3,2.2-2.4,4.2-3.4,6
		c-0.7-0.5-1.4-0.9-2.2-1.4c-8.9,2.4-9.5-3-16.3,4.4c0.7,0.4,0,3,1.2,5.5c-1.5,0-3.2,0-5.1-0.1c8.7,5,2.3,7,2.9,9
		c-0.7-0.9-1.7-2.1-2.5-2.6c-2.7-1.5-9,0.2-10.5,2.8c-1.5,2.7,0.4,5.5-2,9.5c-0.6,1-1.7,2.2-3.2,3.6c-0.8-2.8-1.8-5.8-4.9-7.6
		c-4.8-2.8-9.9-2.7-14.1-0.6c-2.3-5.9-6.9-14.1-16.8-19.8c-0.9-0.5-4.3-1.2-5.9,1.6c-0.5,0.9,0.4,1.5,2.3,2.5l0.5-0.9
		c0.9,0.5-0.2,12.6,14,21.7c-0.2,0.2-0.4,0.4-0.5,0.6c-0.5,0.9-1.2,2.3-1.6,3.9c-0.9,0.5-1.8,1.3-2.6,2.6c-3.1,5.3,2.2,8.4,0.7,11.1
		c-6.3,10.9-14.7,1.9-21.8,2c-1.3-0.9-16.2-10.7-14.6-13.4c-1.9-1.1-4.3-1.2-6.2-2.3l-0.4-1.5c-0.9-0.5-2.4-0.1-3.4-0.7
		c-0.9-0.5-1.3-2-0.8-3c-0.9-0.5-3.4-0.7-4.3-1.2c-5.6-3.3-10-10.8-15.7-14.1c-3.8-2.2-8.6-2.5-10.8,1.3c-3.9,6.8,4.7,12.7,8,15.3
		l0.8-0.2c0,0,4,6.1,9.6,9.3c0.5-0.9,1.5-0.4,2.4,0.2c0.9,0.5,2.3,2.5,2.7,4c1.9,1.1,2.8,1.6,5.2,1.8c-1.1,1.9,1.2,4.4,4.9,6.6
		c5.8,3.3,11.8,5.7,16.7,7.2c1.4,4.3,3.5,8.7,1.3,12.6c-4.6,8-110.7-48-113-44c-0.8,1.3-0.2,3.4,13.1,11.1
		c24,13.8,74.7,39.6,77.4,41.1c4,2.3,9.3,5.4,8.3,10.1c-11.5,19.9-21.4,12.5-33.4,18l11.6,13.8c-5.2,5.9-16.8,4.5-19.9,9.8
		c-0.6,1.1,0,4.1,1.7,6c-1.1,0-2.1-0.2-2.9-0.7c0.5-0.9-0.8-2.9-1.7-3.5c-1.9-1.1-12.2-7.1-16-0.5c-2.8,4.9,6,11.1,12.3,18
		c-1.3,4.6-1.5,10-0.9,17.2c-0.1,0-0.3,0-0.4,0.1c0,0,0,0,0-0.1l-0.9-0.5c-0.1,0.2-0.2,0.5-0.3,0.7c-5.3,0.7-11.6,1.2-11,1.5
		c0,0,7.1,3.1,10.9-0.2c0.1,0.6,0.3,1.3,0.6,2.1c-1.1,3.6-2.4,7.6-4.9,11.9c-0.7,0-1.5-0.1-2.4-0.2c-0.6-1.7-2.7-3.3-4.2-4.2
		c-0.4-0.2-12.5,0.6-18.7-3c-1.5-0.8-3,0.2-5.3,0.8l-1.7,2.9c7.1,4.1,15,5.6,20.9,6c-0.7,0.7-1.4,1.4-2,2.5c-1,1.7,1.9,6.2,2.5,12.3
		c-2.2,0-4.5,1.7-6.1,4.5c-1.1,1.9,0.1,6.3,2.9,8c0.2,0.1,0.3,0.1,0.5,0.2c-3.1,5.2-8.3,2.2-11.4,7.5c-0.8,1.3-1.5,2.7-0.2,3.4
		c2.6,0.5,5,0.5,7.3,0.6c-0.6,0.4-1.1,1-1.4,1.6c-0.6,1-0.2,2.4-0.2,2.4c2.3,0.5,4.9-0.6,7-2.6c0.1,0,0.1,0.1,0.2,0.1
		c1,16.6-3.6,24.6,1.8,27.6c2.7,1.5,4.8,1,8.2,1.2c0.9,7.6,7,9.4,6.6,16.3c0.6,2.1-1.7,6.1-0.4,6.9c4.8,1,12.2,3.5,17.5,6.6
		c6.6,3.8,11.2,8.2,15,14c4.4-4.5,37.6-6.7,38.9-5.9c2.7,1.5,5.1,6.5,9.1,8.8c0.8-1.3-0.4-5.5,2-9.5c0.5-0.8,1.1-1.6,1.7-2.4
		c1.1,0.7,2.3,1.3,3.4,2c-0.1,0.8-0.2,1.6-0.3,2.4c-0.2-0.1-0.4-0.1-0.6,0.2l-0.4,0.7c0.3,0.2,0.6,0.3,0.9,0.5
		c-0.2,3.7,0.6,7.2,4.9,9.7c4.8,2.8,8.3-0.3,11.9-3.8c4.6,2.6,9.3,5,14,7.3c-4,3.6-7.8,7.7-9.2,10.2c-0.5,0.9,2.3,2.6,1.7,3.5
		l-0.9-0.5c-2.3,6.2,9,12.7,5.2,19.2c1.2-0.3,2.7,0.4,4.3,1.3c-0.5,0.9,0,8.7,1.7,12.2c2.8,1.6,11.9-11.9,25.9-10.1
		c2.8,1.6,3.2,3.1,5.1,4.2c3.5,2,6.6,2.7,9.3-1c-1.4-1.3-0.3-19.9-1.6-29.9c8.2-0.8,16.5-3.5,24.9-8.7c3.4,9.1,0,21.1,2,32.8
		c2.1-0.6,2.1-0.6,2.9-1.9c1.5-2.7-0.5-14.5,3.3-21.1c2.3-4,4.6-8,12.6-3.4c1.5-2.7,2.5-7.4,4.1-10.1c1.9-3.3,8.1-5.4,13.3-6.2
		c0.8,0.5,1.5,1,2.3,1.5c-0.4,0.6-0.9,1.2-1.2,1.8c1.9,1.1-1.4,6.7,4.3,10c2.8,1.6,9.7,0.6,10.6,1.2c6.6,3.8,4.7,26.5,13.2,31.4
		c-0.9-0.5,13.7-2.1,20.3,1.7c2.8,1.6-0.2,2.4,13,10c0,0-0.9-0.5-0.4-1.5c-0.5,1,33.9-6.7,48,1.4c0.8,3,2.7,4.1,5.5,5.7
		c1.9,1.1,0.3,3.9,1.2,4.4s4.3,1.2,4.9,0.3c0.5-0.9-4.3-10-4.3-10c-0.9-0.5-1.9-1.1-1.3-2c1-1.7,3.8-3.4,7.4-5.1
		c10.2-4.7,27.1-9.1,29.1-12.6c2.7-4.7-9-12.7-4.1-21.2c0.8-1.4,2.5-2.7,4.4-4.1c1.3,1.1,0.2,2,1.5,2.7c2.2,1.3,4.4,2.5,6.1-0.4
		c-1.6-0.9-1.5-3.1-2.6-5.9c1.4-1.1,2.7-2.4,3.6-3.8c8.1-14.1-7.6-19.4-3.3-26.9c5.4-9.4,22.5-10.8,26.9-18.3
		c0.5-0.9,1.6-2.8-0.3-3.9c-1.9-1.1-23.3,7.9-39.8-0.4c0,0-5.5-5.7-4.4-7.5c0.5-0.9,2-1.3,3.1-3.2c0.5-0.9-0.4-1.5-0.4-1.5
		c-0.7-0.4-3.7,4.3-8.2,4.2c1.4-11.8,1.8-25.8,1.3-40.4c4.3-2.1,10.1-2.9,11.3-5c-2.2-1.3-0.6-2.3-2.1-3.1c-6.4-3.7-6.4,1.7-9.4,4.4
		c-0.2-4.1-0.5-8.1-0.9-12.2c0.7,0,1.1-0.1,1.7-1.1c-0.6-0.4-1.2-0.6-1.9-0.7c-0.2-2.1-0.4-4.3-0.7-6.4c6.1,0.2,11.7,0.5,13.5-2.6
		c0.4-0.6,0.8-2.1,0.8-3.6c0.1-0.1,0.3-0.2,0.4-0.3c-0.2-0.1-0.3-0.3-0.5-0.4c0-0.6-0.1-1.2-0.3-1.7c2.7-0.9,6-2.4,10.2-4.9
		c11.7,6.7,17.3-4.6,62.2-16.7c1.3-2.2,1.9-6.7-1-8.4c-2.7-1.6-1.8,0.6-2.8,0.3c-0.1-0.3-0.2-0.5-0.3-0.8c0.2-0.3,0.3-0.6,0.2-1.2
		c-0.2-0.1-0.4-0.1-0.7-0.2c-1.8-0.5-4.9,0.5-8.7,2.1c-0.4-0.1-0.7-0.2-1-0.3c2.6-2.3,7-3.5,8.1-5.4l-2.3-2.6
		c-1.5,0.4-1.6,2.8-3.1,3.2l0.9,0.5c-0.5,0.9-0.9-0.5-2.4-0.2c-1.5-0.9-5.7,0-7.7,0.1c0,0.2,0,0.3-0.1,0.4
		c-7,12.2-15.1,0.1-22.1,12.3c-2.3-2.5-5.1-4.2-8.9-6.3c-4.7-2.7-9.3,0.9-11.2-0.2l-0.4-1.5c-4.7-2.7-6.2-2.3-6.2-2.3
		c-0.5,0.9,3.1,5.5,2.5,6.5c-1.1,1.9-2.6,2.3-3.7,4.2c-0.5,0.9,2.1,5,1.1,6.8c-0.4,0.7-1.2,1.7-2.1,2.8c-5.3,1-11.7,2.1-17.3,2.6
		c-1.4-7.8-3.2-15.3-5.4-22.2c6.7-1.4,18,0.1,19.8-2.9c0.8-1.3-0.6-2.1-1.9-2.9c-4-2.3-8.2-1.2-12.2-3.5c-2.7-1.5-6.7-3.8-4.3-7.8
		c4.4-4.6,10.5-2.8,12-5.5c0.8-1.3,2.3-4-0.4-5.5c-6.7-3.8-18.1,3.7-24.8-0.1c-2.7-1.5-1.7-6.3-3.6-9.2c5.7-3.8,9.9-4.9,16.8-16.9
		c-10.6-6.1-13.9,2.6-20.6-1.2c-29.3-16.9-13.3-41.4-17.3-43.7c-5.5-3.2-9.4-1.8-13.7,0c-0.4,0.2-0.9,0.4-1.3,0.6
		c0.2-0.3,0.4-0.5,0.5-0.8c-2.8-1.6-4.2-3.7-7.3-0.4c-0.8,1.3-0.7,2.4,0,3.3c-4.4,0.7-9.7,0.1-17.1-3.9c0-1,0-1.6-0.3-1.7
		c0,0-0.1,0-0.1-0.1c2.3-6.9,4.7-14.5-0.7-18.3c-0.4-1.3-2.1-2.8-3.2-3.4c-2.2-1.3-2.9-1.7-5.2-1.1c-1.3,2.2-1,3.3,2,5
		c0.7,0,1.6,0.2,2.6,0.4c-1.8,0.9-4.3,2-7.5,3c0.5-0.3,0.9-0.7,1.1-1.1c1.1-1.9-1.7-3.5-4.6-5.1c-2.4-1.4-3.7-1.1-4.6-0.3
		c0.7-4.1,1.4-9.5-1.3-11.1l-2.1,3.7c-3.2,5.5-6.5,7.9-10.2,5.8c-1.5-0.8-1.5-5.8-3-6.6c-1.3,2.2-3.9,1.7-6.1,0.4
		c1.3-2.2-0.9-4.4-2.7-5.4c-0.3,0.6-0.7,1.2-1.2,1.8c7.2-28.5,28.4-88.5,25.3-90.2c-0.7-0.4-0.7-0.4-1.4,0.9
		c-4.5,7.8-23.2,52.3-33.9,76.1c-1.1-0.5-3.2-0.6-5-1.6C1164.1,75.6,1162.8,73.6,1164.4,70.7L1164.4,70.7z"/>
</g>
</svg>
