<svg width="1440" height="480" xmlns="http://www.w3.org/2000/svg"><defs><linearGradient x1="40.946%" y1="74.998%" x2="28.173%" y2="26.506%" id="a"><stop stop-color="#2793E0" offset="0%"/><stop stop-color="#0055B8" offset="100%"/></linearGradient><linearGradient x1="32.169%" y1="35.561%" x2="54.69%" y2="98.721%" id="b"><stop stop-color="#01A4FF" offset="0%"/><stop stop-color="#0055B8" offset="100%"/></linearGradient></defs><g fill="none" fill-rule="evenodd"><path d="M590.738-15.162c1.378 2.078 2.063 3.133 3.79 3.487 2.598.538 3.822-1.003 5.912-2.388.143 3.641 3.24 6.105 7.576 7 1.727.358 4.505.024 6.598-1.367.682 1.058-.46 15.27 6.473 16.702 1.727.358 2.769-.34 4.503.024-.898 4.338-4.534 4.463-5.252 7.933-.898 4.335 3.076 6.954 2.005 12.125-1.077 5.216-7.133 3.963-8.389 10.022-.89 4.309 2.387 5.893 2.024 7.639-.174.849-.174.849-1.043.669-1.724-.361-2.922-3.31-6.382-4.023-.865-.183-6.774 2.21-8.03 8.263-2.595-.538-3.964-2.61-6.562-3.15-4.329-.893-2.954 1.18-6.09 3.24-1.375-2.078-2.92-3.314-5.517-3.848-1.728-.361-3.464-.718-5.374-.201-1.37-2.107-1.694-4.87-4.296-5.411-.862-.18-1.91.517-2.775.334-.865-.175-9.217-20.853-11.455-23.134.714-3.466 4.03-6.367 4.744-9.83.535-2.589-.838-4.695-1.169-7.468 14.752-1.472 5.137-16.091 21.58-12.684 3.457.715 5.219-3.417 7.129-3.934zm237.909 160.624c.917.19 1.384-.907 1.89-1.044.366.551.548.831 1.006.925.689.143 1.013-.266 1.567-.633.038.965.86 1.619 2.01 1.856.457.095 1.194.007 1.749-.362.181.28-.122 4.049 1.717 4.429.458.095.734-.09 1.194.006-.239 1.15-1.203 1.184-1.393 2.104-.238 1.15.816 1.844.532 3.215-.286 1.383-1.892 1.051-2.225 2.658-.236 1.143.633 1.562.537 2.026-.047.225-.047.225-.277.177-.457-.096-.775-.878-1.692-1.067-.23-.048-1.797.586-2.13 2.192-.688-.143-1.05-.693-1.74-.836-1.148-.237-.783.313-1.615.86-.364-.552-.774-.88-1.463-1.021-.458-.096-.918-.19-1.425-.054-.363-.558-.45-1.291-1.139-1.434-.229-.048-.507.137-.736.088-.23-.046-2.444-5.53-3.038-6.134.19-.92 1.069-1.689 1.258-2.607.142-.687-.222-1.245-.31-1.98 3.912-.391 1.363-4.268 5.723-3.364M60.95 351.242c.744-.826 1.594-.8 3.281-.769.267-1.255-1.76-3.827-.276-5.474 7.032-7.81-4.865-8.087-1.337-16.849-1.816-.88-3.524-.93-4.964-2.227-1.917-1.725-2.713-4.685-4.635-6.415-2.084.366-17.344-2.947-17.712-2.539-.02.023-.024.059-.044.081-.726-4.038-1.096-8.367-1.381-8.768-.387-.509-.77-1.031-1.243-.725 0 0 .19 7.383 1.759 11.319-1.12.857-2.776.113-4.35.07-.243 1.197-.922 1.993-1.626 2.774.062-.298.105-.606.144-.94-.387-.509-2.085-.945-2.558-.64-.946.604-.186 1.634.198 2.157.195.272.543.448.876.516-.805.456-1.696.643-2.8.62.319 2.531 2.016 2.573.17 4.624-1.112 1.234-2.81 1.193-3.925 2.432 3.362 3.027 3.065 7.221 2.69 7.639-1.484 1.647-3.654 1.172-4.398 1.998-.376.417-.376.417.085.832.974.877 2.94-.328 5.328 1.823 3.357 3.022.774 5.89 3.665 8.493 2.87 2.584 5.683 1.386 8.091 3.555 1.927 1.735.901 3.802 3.31 5.97.735-.816.624-1.672 1.368-2.498 2.962-3.29 11.394 2.815 12.247 2.836-.229-1.694.4-3.37 1.14-4.192 1.854-2.06 4.307-2.826 6.592-1.51-.224-1.688-.806-2.959.306-4.193m874.147-68.866c-1.859 0-2.778-.814-4.626-2.414-1.859.804-2.788 4.854-6.495 4.854-17.574 0-4.606 11.327-19.443 15.395.94 2.431 2.788 4.067 2.788 6.499 0 3.236-2.788 6.464-2.788 9.709 2.788 1.635 15.747 18.648 16.666 18.648.05 0 .1-.026.15-.026-4.207 4.067-9.172 8.047-9.352 8.65-.2.788-.42 1.584.49 1.767 0 0 8.962-6.376 12.099-11.143 2.318.323 3.247 2.493 4.956 3.997 1.758-.778 3.506-.813 5.265-.813-.44.192-.87.41-1.329.656-.2.787 1.16 2.738 2.068 2.921 1.809.376 2.238-1.198 2.458-1.994.12-.411-.05-.884-.34-1.25 1.47.366 2.698 1.04 3.907 2.09 2.788-2.423.94-4.041 5.555-4.041 2.778 0 4.626 1.618 7.414 1.618 0-5.677 5.545-8.922 6.484-8.922 3.707 0 5.545 2.423 7.404 2.423.939 0 .939 0 .939-.779 0-1.644-3.697-2.466-3.697-6.499 0-5.668 6.454-5.668 6.454-10.548 0-4.846-4.636-6.464-4.636-10.532 0-3.253 3.717-4.032 3.717-8.1-1.838 0-2.777.823-4.636.823-7.403 0-9.252-12.99-10.18-13.803-1.85 1.636-4.637 2.458-6.485 2.458-4.636 0-8.333-1.644-9.252-4.88-1.849 1.626-2.778 3.236-5.555 3.236m-555.535 113.86c-1.858 0-2.777-.813-4.626-2.414-1.858.805-2.787 4.855-6.494 4.855-17.575 0-4.606 11.327-19.443 15.394.94 2.432 2.788 4.068 2.788 6.5 0 3.235-2.788 6.463-2.788 9.708 2.788 1.636 15.746 18.649 16.665 18.649.05 0 .1-.027.15-.027-4.206 4.068-9.172 8.047-9.351 8.65-.2.788-.42 1.584.49 1.768 0 0 8.961-6.377 12.099-11.144 2.318.324 3.247 2.493 4.955 3.998 1.759-.779 3.507-.814 5.266-.814-.44.193-.87.411-1.33.656-.199.787 1.16 2.738 2.069 2.922 1.808.376 2.238-1.199 2.458-1.995.12-.41-.05-.883-.34-1.25 1.469.367 2.698 1.04 3.907 2.09 2.787-2.423.939-4.041 5.555-4.041 2.778 0 4.626 1.618 7.413 1.618 0-5.677 5.546-8.922 6.485-8.922 3.707 0 5.545 2.423 7.403 2.423.94 0 .94 0 .94-.778 0-1.645-3.697-2.467-3.697-6.5 0-5.667 6.454-5.667 6.454-10.548 0-4.846-4.636-6.464-4.636-10.531 0-3.254 3.717-4.032 3.717-8.1-1.838 0-2.778.822-4.636.822-7.404 0-9.252-12.989-10.181-13.802-1.849 1.636-4.636 2.458-6.484 2.458-4.636 0-8.333-1.645-9.252-4.881-1.849 1.627-2.778 3.236-5.556 3.236m926.265-430.91c-2.997 1.298-4.496 7.828-10.473 7.828-28.342 0-7.428 18.267-31.355 24.826 1.515 3.922 4.495 6.56 4.495 10.48 0 5.22-4.495 10.425-4.495 15.658 4.495 2.638 25.393 30.073 26.875 30.073-6.541 6.517-14.55 12.935-14.84 13.908-.321 1.27-.676 2.553.79 2.85 0 0 14.453-10.284 19.512-17.971 3.739.522 5.237 4.02 7.992 6.446 2.836-1.255 5.656-1.312 8.491-1.312-.709.31-1.401.663-2.143 1.058-.322 1.27 1.87 4.415 3.336 4.711 2.916.607 3.609-1.932 3.963-3.216.194-.663-.08-1.424-.547-2.017 2.368.593 4.35 1.679 6.3 3.371 4.495-3.907 1.514-6.516 8.958-6.516 4.48 0 7.46 2.61 11.955 2.61 0-9.155 8.943-14.389 10.457-14.389 5.978 0 8.943 3.908 11.94 3.908 1.514 0 1.514 0 1.514-1.256 0-2.652-5.962-3.977-5.962-10.48 0-9.14 10.409-9.14 10.409-17.011 0-7.815-7.476-10.424-7.476-16.983 0-5.248 5.994-6.503 5.994-13.062-2.965 0-4.48 1.326-7.476 1.326-11.94 0-14.92-20.947-16.419-22.259-2.98 2.638-7.476 3.964-10.457 3.964-7.476 0-13.438-2.652-14.92-7.871-2.98 2.624-4.48 5.219-8.958 5.219-2.997 0-4.48-1.312-7.46-3.893zm-134.6 206.064c.206.032.29.162.39.178.308.048.565-.257.601-.488.071-.449.007-.693.043-.92.295-.535.568-.956 1.03-1.23 1.024.162 1.594 1.18 2.207 1.278 0 0 .12-.098.137-.211-.883-.371-1.694-1.194-1.532-2.216.252-1.588 2.046-2.347 2.67-3.643l1.404.222c-.432.334-.943.786-1.079 1.138 0 0-.041.11.054.15.397-.428 1.026-.924 1.394-1.23l.166.027c-.037-.02-.084-.04-.124-.06.144-.118.243-.207.253-.237.043-.104.085-.213-.012-.255 0 0-.226.146-.512.362a6.885 6.885 0 00-1.593-.473c-.102-.016-.324.066-.528.034-.511-.08-.504-.78-.415-1.344.252-1.589 1.4-.244 1.562-1.265.046-.29-1.015-.336-1.406-1.077.095.037.176-.172.218-.277-.055-.15-.055-.15-.15-.189-.061-.03-.14-.009-.199.037l-.002-.015 1.23-.501c.102.016.12-.099.12-.099.054-.34-.3-.743-.506-.776-.306-.048-.563.258-.664.242-.511-.08-.525-.665-.573-1.02.445-.16.907-.435.997-1.003.018-.113.036-.224-.17-.257-.102-.016-.425.047-.647.127-.716-.113-1.274-.548-1.148-1.341.054-.34 1.356-1.294 1.356-1.294l-1.465-.002-.01.002c-.029-.191-.178-.4-.321-.465-.192-.084-.6.112-.726.43 0 .004.003.012.002.019a11.567 11.567 0 01-1.392-1.07c.162-1.022.986-1.586 1.057-2.04.019-.115-.067-.24-.168-.256-.714-.113-.983 1.583-1.8 1.454-.308-.049-.579-.324-.525-.662.013-.08.073-.152.12-.262a.548.548 0 00.054.023c.231-.022.231-.022.272-.13.123-.319-.733-.695-.83-.738.037.096.035.17.028.233-.227.16-.554.495-.935.435-.918-.146-.792-.94-.649-1.843-.157.323-.415.63-.721.581-.51-.08-.727-.696-1.136-.761-.306-.049-.383 1.1-2.119.825-.408-.065-.386-.875-.35-1.098-1.26.03-.936 1.941-2.569 1.682-.204-.032-.475-.308-.678-.34-.26-.041-.422.263-.604.615l-.07-.031.05.074c-.243.476-.52 1.02-1.094.929-.206-.033-.373-.289-.56-.437a.963.963 0 01-.32.177c-.082-.223-.197-.43-.293-.471-.191-.086-.284-.128-.423-.063a.8.8 0 00.011.622c-.283.036-.546.154-.767.653-.238-.114-.352-.132-.472.179-.042.106-.027.36.166.445.03.014.062.027.093.04a9.1 9.1 0 00-.125.638c-.506-.08-1.092-.287-1.58-.482.41-.342.77-.62.794-.68.04-.106.081-.214-.015-.255 0 0-1.485.967-1.73 1.605 0 0-.04.108.053.149.149-.16.333-.331.521-.498-.051.546.7.896 1.146 1.31-.653.823-1.528 1.732-2.23 2.199-.103-.016-.188-.143-.29-.159-.204-.032-.427.045-.463.275.03.469.332 1.211.5 1.474-.342.177-1.223 1.779-2.04 1.65l-1.737-.276c.39.18 1.7.502 1.664.73-.035.224-.174.438-.192.55-.036.227.05.353.132.484.222-.083.446-.16.752-.112.3.048.577.217.71.534a.31.31 0 00-.085.126.11.11 0 00.054.15c.024.01.06-.008.097-.04.008.054.016.11.018.168-.161 1.019-.95 1.36-1.112 2.382-.017.111.05.353.014.58-.072.453-.564.258-.654.826-.054.339.318.632.3.744l-.018.115c.427-.05.94.03 1.55.127.692.922.993 3.644 1.805 4.467.408.064.6-.482.906-.433.883.37 1.035.74.963 1.194-.037.23-.175.439-.21.664-.037.228.048.358.353.407.464-.278.518-.617 1.129-.52 1.634.259.447 1.814 1.162 1.927.399.063.727-.59 1.436-.787a.545.545 0 00-.275.308c-.123.317.121.549.41.676.285.126.694-.068.816-.388.123-.32.068-.468-.028-.511a1.98 1.98 0 00-.429-.132c.063.005.122-.002.19.009 1.735.274.378 1.568 1.298 1.713.631.1.33-1.126 1.1-1.277.059.122.146.222.246.238.084.014.179-.057.23-.207.65.175 1.12.861 1.41.907.203.032.738-.697.81-1.15.51.082.707.811 1.117.876.222-.081.24-.196.258-.31.054-.339-.133-.482-.06-.936.017-.114 1.03-1.232 2.052-1.07.103.016.27.273.318.633-.036.224.217.611.422.644.22-.08.34-.176.359-.29.072-.453-.263-.973-.21-1.313.073-.452.757-.809.96-.777m-422.404 39.464c-.07-.046-.08-.11-.114-.133-.106-.068-.255.008-.309.092-.105.162-.124.267-.177.349-.204.16-.38.278-.6.31-.351-.23-.384-.716-.595-.853 0 0-.061.019-.088.06.263.286.42.736.18 1.106-.373.573-1.173.576-1.633.977l-.482-.313c.219-.06.488-.152.6-.266 0 0 .035-.036.007-.067-.223.102-.544.192-.734.25l-.057-.037c.01.014.024.03.035.043a.572.572 0 00-.135.051c-.035.034-.07.069-.04.1 0 0 .109-.02.253-.056.151.17.343.333.509.44.035.024.132.027.202.073.176.114.05.383-.082.588-.373.574-.563-.133-.803.236-.068.105.318.294.333.645-.029-.03-.095.038-.13.071-.005.067-.005.067.023.098.018.021.05.026.08.018 0 .002 0 .004-.002.006l-.545-.005c-.035-.023-.062.018-.062.018-.08.123-.019.337.052.383.105.068.254-.01.29.014.175.114.078.342.033.487-.193-.01-.414.022-.547.227-.027.04-.053.08.018.127.035.023.166.05.263.056.246.16.377.418.19.705-.08.122-.73.28-.73.28l.543.239h.004c-.023.08-.004.184.038.232.056.064.243.054.345-.049 0-.001.001-.005.003-.007.127.198.264.48.329.64-.24.369-.645.454-.752.618-.027.041-.017.103.018.126.245.16.643-.454.924-.271.106.069.158.219.079.341-.019.029-.054.047-.091.082a.22.22 0 00-.016-.018c-.09-.029-.09-.029-.124.006-.101.104.15.388.179.42a.202.202 0 01.03-.094c.113-.025.293-.102.424-.017.316.205.13.492-.083.818.116-.1.265-.176.37-.108.176.114.148.387.289.479.105.068.335-.364.932.023.14.091-.01.401-.063.482.473.193.689-.6 1.25-.235.07.045.123.196.192.241.09.058.204-.033.333-.14l.02.023-.005-.036c.174-.145.373-.31.57-.183.07.046.088.172.131.26a.393.393 0 01.15-.017c-.009.1-.002.198.026.23.056.064.083.095.146.093a.355.355 0 00.105-.243c.112.032.23.03.4-.128.069.082.108.108.207.007.034-.034.074-.135.017-.199l-.028-.03a3.84 3.84 0 00.159-.227c.174.113.355.288.502.442-.212.066-.395.115-.414.135-.034.034-.068.07-.04.1 0 0 .722-.133.926-.34 0 0 .033-.035.006-.067a3.342 3.342 0 01-.281.109c.115-.203-.103-.46-.196-.693.388-.212.873-.423 1.215-.49.036.023.045.086.08.109.07.045.167.051.22-.032.072-.186.09-.522.074-.651.158-.013.767-.49 1.048-.308l.597.387c-.113-.132-.544-.469-.49-.55.053-.082.142-.142.168-.183.053-.082.044-.145.036-.209a.539.539 0 01-.299-.078.356.356 0 01-.17-.322.135.135 0 00.054-.034c.035-.035.006-.067.006-.067-.007-.008-.023-.007-.043 0 .007-.023.013-.046.023-.069.24-.368.592-.372.832-.741.026-.04.044-.145.097-.227.106-.164.255-.009.388-.214.08-.123-.007-.296.02-.336l.026-.042c-.167-.05-.343-.164-.554-.3-.094-.47.272-1.571.115-2.021-.14-.091-.307.09-.412.02-.264-.285-.255-.453-.148-.617.054-.083.142-.142.195-.223.053-.083.045-.147-.06-.215-.221.032-.3.155-.51.018-.563-.364.152-.774-.094-.933-.137-.09-.374.11-.672.071a.233.233 0 00.156-.074c.102-.103.052-.232-.033-.328-.084-.095-.27-.086-.371.018-.102.104-.108.17-.08.202a.765.765 0 00.136.12c-.022-.011-.045-.018-.069-.033-.596-.388.136-.668-.18-.874-.218-.14-.321.383-.634.317 0-.057-.015-.11-.05-.133-.028-.018-.076-.006-.121.043-.211-.173-.265-.514-.365-.579-.07-.045-.396.15-.503.314-.175-.114-.12-.428-.26-.52-.098-.004-.125.037-.151.078-.08.123-.036.209-.142.372-.027.042-.6.31-.951.082-.035-.023-.053-.15-.007-.296.053-.081.027-.272-.044-.318-.096-.004-.157.013-.184.055-.106.163-.073.418-.153.541-.106.164-.423.19-.493.146M489.841 308c-.308.157-.33.616-.206.86.241.474.465.664.586.902.1.704.141 1.285-.087 1.852-1.026.522-2.23-.068-2.844.245 0 0-.04.172.02.292 1.043-.233 2.328.012 2.878 1.09.853 1.675-.239 3.583.083 5.228l-1.409.718c.16-.603.311-1.37.194-1.795 0 0-.037-.13-.15-.107-.065.67-.29 1.557-.413 2.09l-.167.085c.048-.005.102-.018.151-.025-.048.208-.076.358-.066.393.033.127.07.258.185.234 0 0 .103-.288.213-.682a7.305 7.305 0 001.748-.605c.102-.052.245-.277.45-.382.512-.261.98.407 1.285 1.003.853 1.676-1.089 1.157-.54 2.234.156.306 1.137-.351 1.99.094-.11.027-.04.28-.007.407.151.105.151.105.263.08.076-.012.132-.085.153-.167.005.006-.749 1.303-.749 1.303-.102.052-.04.174-.04.174.182.358.773.507.98.402.307-.157.329-.618.43-.67.513-.261.922.285 1.206.59-.29.446-.517 1.014-.211 1.614.06.119.12.236.326.131.103-.052.35-.326.494-.55.718-.365 1.513-.321 1.94.516.182.358-.336 2.126-.336 2.126l1.313-.967c.164.154.44.254.611.22.23-.047.462-.503.358-.889.632-.046 1.494.016 1.96.08.549 1.077.194 2.158.438 2.637.062.121.223.184.325.132.716-.365-.195-2.155.625-2.573.308-.157.737-.075.92.283.042.083.037.192.07.328-.256.187-.256.187-.22.316.107.385 1.129.176 1.245.153a.554.554 0 01-.183-.203c.095-.302.16-.837.542-1.031.92-.47 1.347.367 1.833 1.32-.079-.41-.056-.872.251-1.029.512-.26 1.124.181 1.535-.028.307-.156-.405-1.299 1.337-2.186.409-.208.94.576 1.06.812 1.108-.862-.481-2.464 1.157-3.299.205-.104.636-.021.84-.125.26-.133.199-.529.122-.984-.117-.666-.237-1.367.338-1.66.206-.105.53.027.798.045a1.08 1.08 0 01.167-.38c.224.158.468.278.582.253.23-.045.34-.066.422-.22a.976.976 0 00-.433-.583c.23-.223.385-.508.244-1.129.29-.048.405-.107.3-.481-.033-.13-.22-.36-.45-.313a1.26 1.26 0 00-.11.024c-.09-.207-.19-.43-.322-.69.507-.258 1.173-.45 1.742-.587-.134.595-.27 1.098-.25 1.17.038.128.073.258.188.233 0 0 .673-1.9.46-2.67 0 0-.038-.128-.15-.105-.025.25-.073.534-.128.817-.325-.552-1.235-.387-1.916-.486.026-1.214.192-2.657.504-3.565.102-.052.264.012.367-.04.205-.105.351-.326.228-.568-.346-.425-1.12-.93-1.45-1.069.187-.395-.112-2.5.708-2.918l1.741-.887c-.47.087-1.863.648-1.985.408-.12-.237-.142-.532-.201-.65-.123-.24-.285-.303-.448-.372-.143.225-.29.447-.598.603a.979.979 0 01-.998-.037.37.37 0 00-.009-.176c-.035-.132-.15-.107-.15-.107-.029.007-.049.047-.061.103-.043-.047-.088-.094-.13-.149-.547-1.074-.073-1.92-.622-2.998-.06-.117-.284-.303-.406-.542-.244-.478.33-.618.024-1.218-.182-.357-.714-.39-.773-.507l-.062-.122c-.349.33-.863.593-1.476.905-1.246-.418-3.364-2.805-4.65-3.05-.41.21-.21.855-.517 1.011-1.043.234-1.43-.018-1.674-.497-.124-.242-.142-.532-.263-.77-.123-.24-.287-.308-.593-.152-.227.57-.045.928-.658 1.24-1.64.835-1.632-1.427-2.35-1.061-.4.204-.25 1.04-.752 1.697a.64.64 0 00.037-.474c-.104-.383-.481-.442-.826-.372-.34.07-.575.524-.467.91.108.385.257.49.372.467.15-.031.317-.084.474-.159-.06.037-.108.082-.176.117-1.74.887-1.403-1.24-2.327-.769-.633.323.47 1.288-.116 1.941-.137-.077-.283-.114-.384-.063-.084.043-.12.172-.064.348-.702.265-1.588-.076-1.879.072-.204.104-.188 1.15.055 1.628-.512.26-1.184-.302-1.595-.093-.144.225-.082.346-.021.466.182.357.446.37.69.849.061.12-.086 1.853-1.111 2.375-.103.052-.429-.08-.715-.392-.12-.236-.61-.436-.815-.332-.143.223-.186.393-.125.514.244.477.896.75 1.079 1.108.243.477-.128 1.269-.331 1.372-.207.106-.37.038-.472.09m86.445 83.477c-.172.155-.347.131-.432.208-.257.231-.16.681.024.884.355.395.62.52.8.72.278.654.468 1.205.394 1.81-.855.771-2.17.512-2.684.974 0 0 .006.176.096.276.947-.494 2.252-.59 3.062.31 1.257 1.396.697 3.522 1.433 5.027l-1.175 1.058c-.001-.624-.054-1.404-.277-1.784 0 0-.07-.116-.173-.064.11.663.122 1.579.142 2.126l-.14.125c.045-.017.095-.044.14-.064.008.214.019.366.038.397.065.115.134.232.24.178 0 0 .024-.305.028-.714a7.305 7.305 0 001.533-1.037c.085-.076.164-.33.335-.484.428-.386 1.053.138 1.5.635 1.259 1.398-.751 1.4.058 2.298.23.255 1.007-.634 1.947-.424-.1.054.033.28.098.395.173.062.173.062.275.01.07-.032.105-.117.104-.202.007.004.011.006.015.01l-.4 1.442c-.087.078.004.179.004.179.27.299.88.29 1.052.134.256-.23.157-.681.242-.758.428-.385.964.036 1.318.258-.164.506-.237 1.113.213 1.613.09.1.178.197.35.043.085-.077.252-.405.335-.659.598-.539 1.377-.702 2.006-.004.27.299.226 2.14.226 2.14l1.019-1.274c.002-.002.003-.007.004-.01.193.117.485.142.642.065.21-.105.316-.606.116-.951-.003-.004-.013-.007-.018-.012.617-.196 1.465-.36 1.93-.42.81.9.748 2.036 1.107 2.435.091.101.263.12.348.043.598-.538-.746-2.03-.062-2.646.258-.232.693-.263.962.035.063.07.086.175.152.299a.602.602 0 00-.059.03c-.14.217-.14.217-.07.332.202.344 1.135-.122 1.241-.175a.554.554 0 01-.229-.149c.013-.315-.062-.85.256-1.136.768-.692 1.397.007 2.113.802-.183-.377-.28-.829-.024-1.06.427-.384 1.133-.116 1.475-.424.256-.23-.727-1.15.726-2.458.341-.307 1.056.313 1.234.51.847-1.12-1.102-2.255.264-3.486.17-.153.608-.185.778-.337.218-.196.056-.563-.136-.983l.076-.037-.1-.012c-.262-.564-.56-1.21-.08-1.642.173-.155.52-.111.783-.163a1.08 1.08 0 01.063-.411c.258.095.524.148.628.095.21-.103.312-.153.35-.321a.976.976 0 00-.569-.453c.164-.274.24-.59-.056-1.153.267-.122.363-.208.166-.542-.066-.116-.306-.292-.517-.186-.034.015-.068.034-.1.051-.14-.176-.295-.366-.49-.582.424-.381 1.017-.738 1.532-1.018.024.61.024 1.13.062 1.194.069.114.136.23.24.177 0 0 .159-2.01-.246-2.698 0 0-.07-.114-.172-.063.04.247.067.535.088.823-.457-.45-1.294-.055-1.977.026-.289-1.18-.502-2.616-.436-3.574.086-.077.259-.057.345-.135.17-.153.254-.404.072-.607-.444-.32-1.323-.609-1.676-.656.078-.431-.756-2.386-.072-3.003l1.453-1.307c-.433.206-1.632 1.108-1.812.908-.178-.198-.275-.477-.363-.575-.18-.2-.353-.22-.529-.245-.08.255-.165.507-.421.738a.979.979 0 01-.974.222.37.37 0 00-.054-.167c-.068-.118-.173-.064-.173-.064-.026.013-.035.058-.032.114-.054-.033-.11-.067-.164-.11-.807-.896-.567-1.835-1.377-2.734-.088-.098-.353-.22-.532-.419-.36-.399.158-.682-.292-1.183-.268-.298-.79-.192-.879-.29l-.091-.1c-.251.409-.68.795-1.192 1.255-1.31-.081-3.975-1.838-5.28-1.742-.342.307.018.88-.238 1.11-.947.496-1.386.352-1.746-.047-.182-.202-.274-.477-.453-.675-.18-.201-.357-.224-.612.006-.072.61.196.908-.315 1.368-1.367 1.231-1.945-.956-2.544-.417-.334.3.027 1.07-.287 1.834a.64.64 0 00-.087-.467c-.2-.343-.58-.302-.894-.145-.31.155-.42.655-.216.999s.375.406.48.355c.137-.07.284-.163.416-.276-.047.05-.082.107-.139.159-1.451 1.306-1.676-.835-2.446-.141-.529.475.787 1.122.39 1.905-.152-.039-.303-.038-.387.038-.07.063-.072.198.027.353-.609.438-1.553.337-1.796.555-.17.154.116 1.16.475 1.558-.427.385-1.222.016-1.565.325-.08.253.01.354.1.454.269.298.528.243.887.642.09.1.396 1.812-.46 2.582-.085.077-.434.032-.79-.194-.178-.196-.703-.264-.874-.11-.08.253-.078.428.013.529.358.398 1.059.492 1.328.79.358.399.205 1.26.035 1.413m427.612-305.971c-.172.156-.347.132-.432.208-.258.232-.16.682.023.885.356.395.62.52.8.72.278.653.469 1.204.395 1.81-.856.77-2.171.512-2.684.973 0 0 .005.177.095.277.948-.495 2.253-.59 3.062.31 1.258 1.396.697 3.521 1.433 5.027l-1.175 1.058c0-.624-.054-1.405-.277-1.784 0 0-.07-.117-.173-.065.111.664.122 1.58.142 2.126l-.139.126c.045-.017.094-.044.14-.064.007.214.018.365.038.396.065.115.134.233.239.179 0 0 .025-.305.029-.714a7.305 7.305 0 001.532-1.037c.085-.076.165-.331.335-.485.428-.385 1.054.139 1.501.636 1.259 1.398-.752 1.4.057 2.298.23.255 1.007-.634 1.947-.424-.1.054.034.28.099.394.173.063.173.063.274.01.07-.031.106-.116.105-.2.006.003.01.004.015.009l-.401 1.442c-.086.077.005.179.005.179.27.299.879.29 1.051.134.257-.23.158-.681.243-.758.428-.385.964.036 1.317.258-.164.506-.237 1.113.214 1.613.089.1.177.197.349.043.085-.078.253-.406.335-.659.599-.539 1.378-.703 2.007-.005.269.3.225 2.14.225 2.14l1.019-1.273c.003-.002.004-.007.005-.01.193.117.485.142.642.065.21-.105.316-.606.115-.952-.003-.003-.012-.006-.017-.011.616-.197 1.464-.36 1.93-.42.81.9.747 2.036 1.107 2.435.09.101.263.12.348.043.597-.538-.746-2.03-.062-2.646.257-.232.693-.264.961.034.063.07.086.176.153.3a.603.603 0 00-.06.029c-.139.217-.139.217-.07.333.202.343 1.135-.123 1.242-.175a.554.554 0 01-.23-.149c.014-.316-.062-.85.257-1.136.768-.692 1.396.006 2.112.801-.182-.377-.28-.828-.024-1.06.427-.384 1.133-.115 1.475-.423.257-.231-.726-1.15.726-2.458.342-.307 1.057.313 1.234.51.848-1.12-1.102-2.255.265-3.486.17-.153.608-.185.778-.338.217-.196.055-.563-.137-.982l.077-.037-.101-.013c-.261-.564-.559-1.21-.08-1.641.173-.155.52-.111.784-.164a1.08 1.08 0 01.062-.41c.258.095.524.147.628.094.21-.102.312-.152.35-.32a.976.976 0 00-.568-.453c.164-.274.24-.59-.057-1.153.268-.122.364-.208.166-.543-.066-.116-.306-.291-.516-.186a1.341 1.341 0 00-.1.052c-.14-.177-.295-.366-.49-.582.423-.381 1.017-.739 1.531-1.019.025.61.024 1.13.062 1.195.07.114.137.23.241.177 0 0 .158-2.01-.247-2.698 0 0-.07-.115-.172-.063.041.247.068.535.088.822-.457-.45-1.293-.055-1.976.027-.29-1.18-.503-2.616-.436-3.574.085-.077.258-.058.344-.135.17-.154.255-.405.073-.607-.444-.32-1.323-.609-1.677-.657.078-.43-.756-2.386-.071-3.002l1.452-1.308c-.432.206-1.631 1.11-1.812.909-.178-.198-.274-.477-.362-.575-.18-.2-.354-.22-.53-.245-.079.255-.164.507-.42.738a.979.979 0 01-.974.222.37.37 0 00-.054-.168c-.068-.118-.174-.064-.174-.064-.026.014-.034.058-.032.115-.053-.034-.109-.068-.164-.11-.806-.896-.566-1.835-1.376-2.734-.089-.098-.353-.22-.533-.42-.36-.398.159-.682-.292-1.182-.268-.298-.79-.192-.878-.29l-.091-.101c-.252.41-.68.795-1.192 1.256-1.311-.082-3.975-1.839-5.281-1.742-.341.307.019.88-.238 1.11-.946.496-1.386.352-1.745-.047-.182-.202-.275-.478-.453-.676-.181-.2-.357-.224-.613.006-.071.61.197.909-.314 1.369-1.368 1.231-1.946-.956-2.544-.417-.334.3.027 1.07-.287 1.834a.64.64 0 00-.087-.467c-.2-.344-.58-.303-.894-.146-.311.156-.42.655-.216 1 .203.344.374.406.48.354a2.09 2.09 0 00.416-.275c-.048.05-.082.107-.14.158-1.45 1.307-1.676-.834-2.446-.14-.528.475.787 1.122.39 1.904-.152-.038-.303-.037-.387.039-.07.063-.072.197.028.353-.61.438-1.553.337-1.796.555-.17.154.116 1.16.474 1.558-.427.385-1.222.015-1.565.324-.08.254.01.355.101.455.268.298.527.242.887.642.09.1.395 1.812-.46 2.581-.085.077-.434.033-.791-.193-.178-.197-.702-.264-.874-.11-.08.252-.078.427.013.529.359.398 1.06.491 1.329.79.358.399.205 1.26.035 1.412" fill="#2793E1"/><path d="M1116.784 237.737c.666 1.31-.328 2.645.11 3.759.598 1.498 1.654-.122 1.883 1.88.158 1.39-1.265 3.065-.79 5.25 1.388 6.393 6.547 17.163 12.138 19.075.6.206 3.057-1.102 3.683-1.095 2.997.045 10.244 1.414 12.427.994 1.476-.282 2.778-1.89 4.146-2.388 3.732-1.357 7.889-1.778 11.71-4.126 3.163-1.942 6.303-6.525 8.789-7.178.067-.016 1.827.718 1.476.975 1.116-.814 5.526-8.2 7.14-9.706.322-.302 1.557.509 2.146.132.492-.312 0-1.246.696-1.942 1.81-1.81 6.66-3.13 7.19-3.746 2.697-3.136-1.256-16.267-.55-18.793 1.189-4.288 4.245-8.59 7.633-12.105.74-.765 3.478-5.628 6.382-5.561 1.08.022 3.86 4.06 3.763 3.764 1.08 3.175-1.112 7.14.561 10.631 1.748 3.637 6.93 8.252 8.503 10.903.619 1.035 1.22 3.951 2.02 4.54 2.558 1.872 6.413-1.023 9.246-.305 5.306 1.34 7.596 8.731 11.482 11.749 1.351 1.052 3.18.14 4.691 1.176 3.12 2.141 2.383 4.339 5.005 5.386 2.372.948 4.825.932 6.431.403 1.941-.64 1.671-2.418 3.54-3.753 2.103-1.502 4.47-1.259 6.32-3.359 2.824-3.201 4.112-9.103 7.87-12.75 1.033-1.005 2.405-.969 3.276-2.004.787-.932 1.262-3.381 2.267-4.27 1.306-1.16 3.814-1.126 5.217-2.324 3.568-3.04 4.415-9.152 7.403-11.457 1.454-1.123 3.925-.793 5.419-1.87 1.445-1.037 2-3.886 3.57-4.853 1.16-.716 3.726.046 5.393-.768 3.434-1.678 6.273-6.232 10.526-7.949 2.906-1.177 4.037-2.258 5.884-3.164 1.963-.967 7.191-.524 9.941-2.252 2.755-1.727 6.772-9.09 9.144-12.232 4.316-5.71 8.005-12.967 13.382-17.925.427-.395 2.128-.565 1.942-.322 2.032-2.62 1.588-6.954 4.936-7.634-.406.08 9.764 3.076 10.423 3.516 2.264 1.502 6.286 7.135 6.792 10.577.682 4.607-2.485 14.027-6.11 19.04-1.062 1.468-3.15 2.036-4.177 3.492-1.246 1.769-1.543 5.093-2.791 7.77-.809 1.732-3.055 3.072-3.773 4.4-.867 1.606-.168 3.9-.559 4.6-.906 1.638-2.972 1.736-3.943 2.846-1.288 1.47-.617 3.702-1.224 5.44-.46 1.312-1.707.834-1.77 1.875-.213 3.545 2.512 6.433 3.172 9.469.039.178-1.744.576-1.739.774.126 5.025 4.22 7.086 6.994 11.03.64.907-.465 1.299.142 2.658 1.749 3.897 8.04 8.901 7.338 14.141-.59 4.434-7.839 6.778-10.962 8.143-4.246 1.856-6.895 4.476-11.136 6.59-3.677 1.836-9.212 3.55-10.434 4.646-2.94 2.64-8.347 12.926-7.73 15.41 1.272 5.104 5.593 5.993 9.555 3.908 9.54-5.023 17.973-6.673 25.222-11.23 2.133-1.343 3.996-2.42 6.552-4.007 1.975-1.224 4.52-2.916 6.352-4.458 1.313-1.108 1.523-3.375 2.7-4.467 2.616-2.422 3.553-1.333 4.786-2.13-.072.043 2.82-3.927 5.51-5.173 1.889-.876 10.25-5.72 11.942-4.775 5.508 3.076-1.196 5.816-4.065 7.252-2.084 1.04-2.809 3.232-4.846 4.332-1.995 1.08-4.787.257-6.894.895-8.524 2.575-15.142 16.007-15.509 24.855-.403 9.745 11.503 12.788 20.695 12.546 2.136-.057 5.484 1.266 7.503.467 2.856-1.13 9.512-10.112 11.011-2.183-.076-.415-1.469 3.413-2.7 4.47-3.258 2.791-6.64 1.685-9.13 4.064-2.116 2.023-1.216 4.046-1.861 5.18-.579 1.015-1.952-.993-1.74.776.198 1.632 4.321 4.682 5.176 6.942 1.42 3.747.08 5.024-1.752 8.939-.171.367-.016 2.133-.06 2.204-.69 1.073-2.62 1.154-3.074 2.458-.206.585 1.264.904 1.242 1.622-.085 3.07-4.382 6.664-1.143 10.3 2.903 3.26 9.362-4.147 14.056-3.538.902.12.737 1.681 2.08 2.34 1.402.683 3.092-.615 3.449-.45 1.436.676 1.24 3.718 4.863 2.732 1.674-.457 3.076-2.858 4.814-3.233 1.767-.38 12.25 1.427 13.064 1.257.444-.095-.126-1.294.463-1.293 3.753-.002 7.262 2.434 12.227.538 1.982-.754 4.637.25 6.666-.246 1.8-.44 3.284-2.361 5.012-2.779 4.136-.989 14.223-1.365 18.113-2.622 2.965-.957 9.88-6.161 13.216-4.252 2.336 1.335 2.32 8.153 1.465 9.141.223-.26-6.473 2.026-8.87 2.315-3.84.466-5.976-.685-9.674.5-2.314.744-6.417.785-9.275 1.41-2.694.59-3.637 1.782-6.088 2.71-3.307 1.254-9.022.089-13.791 1.789-5.055 1.8-7.524 2.546-12.147 4.32-3.533 1.357-5.215-2.065-7.904-1.378-2.94.755-5.3 6.721-6.678 8.413-.52.644-1.394-.38-1.273-.52-.552.648.608 1.21-.063 2.203-1.45 2.152-7.169 3.294-10.434 4.645-2.75 1.14-12.67-1.151-11.711 4.127.7 3.849 4.417.66 5.763 1.243 1.023.441.212 1.715 1.212 2.723 1.31 1.317 7.92 3.122 11.093 2.68 2.638-.371 5.033-2.89 7.192-3.747 2.29-.91 5.773-.654 8.633-1.669 2.369-.84 3.931-2.887 5.684-3.618 1.577-.656.954.951 1.91.782 2.393-.43 6.048-3.771 9.164-5.168 3.061-1.374 6.952-1.637 10.173-2.897 1.694-.663 17.813-8.56 12.053-1.016-1.754 2.297-1.274 1.021-2.407 1.616-3.635 1.91-12.318 3.612-18.434 6.575-5.498 2.664-14.055 4.032-20.813 7.092-2.695 1.219-3.808 3.549-7.422 4.392-5.32 1.24-9.144 4.453-14.985 6.13-1.182.337-5.727.356-6.693 1.347-1.911 1.95.389 7.29-.48 9.46-.226.561-1.438-.228-1.505.127-.084.427 1.024 1.538 1.01 2.27-.01.503-1.481 1.335-1.57 2.33-.193 2.27 2.513 10.432 3.55 11.477 1.9 1.918 11.047.358 13.326-.493 5.14-1.92 12.155-2.003 19.214-3.66 4.56-1.069 7.66-4.736 11.97-5.873 2.62-.69 8.146-.047 8.777.987 2.679 4.405-3.654 4.934-4.439 5.244-4.64 1.816-10.521 4.134-14.489 3.728-2.534-.257-5.834 1.073-8.466 3.225-3.063 2.507-12.62 6.92-10.354 9.51.895 1.023 10.257-1.713 11.648-1.925 6.762-1.036 15.035.788 23.175.563 2.148-.06 4.918-1.577 6.694-1.35 1.71.221.671.346 3.016-.253 2.114-.541 4.063.876 5.992.594 1.617-.235 3.388-.96 5.39-.767 2.549.246 12.944-3.05 13.066 1.256-.012-.462.129 1-2.843 1.809-6.786 1.845-22.268-1.22-30.91-.381-5.06.49-12.224 2.98-15.534 2.564-2.48-.316-.468-.975-2.577.057-3.522 1.729-10.56-.628-15.442-.74-3.012-.069-5.019 1.155-10.14 1.796-4.155.518-10.823-.646-12.69.753-3.764 2.822-3.744 5.502-7.14 9.706-3.13 3.87-7.474 5.694-7.343 9.254.052 1.42 2.834 6.096 4.304 7.332 2.355 1.98 3.366-.043 5.797.139 1.625.124 3.832 2.31 6.168 2.15 5.418-.367 9.483-4.492 12.516-2.307.76.546 2.288 3.675 1.15 4.927-1.394 1.533-6.054-.569-7.067-.66-4.802-.447-12.451-1.673-6.583 5.105 1.331 1.538.436 2.116 2.284 2.79 2.639.963 8.849-4.258 9.785 3.26-.163-1.329-1.745 4.019-1.161 3.237-2.069 2.768-10.521.484-12.053 1.014-1.016.355-.259 1.394-1.568 2.33-2.07 1.483-8 2.098-9.566 4.26-.866 1.196 1.053 1.128 1.01 2.27-.027.75-2.663 3.747-3.195 6.864-.44 2.569.87 5.05.686 6.224-.023.138-1.511 1.339-1.539 1.228 1.088 4.773 8.888 7.348 5.489 11.155-.22.247-1.957-.021-1.942.322-.002-.07 7.338 11.267 3.982 11.283.224-.002-4.63-4.535-5.406-6.297-1.132-2.572-1.22-4.191-5.269-3.639-2.52.345-9.258 3.726-9.831 6.01-.87 3.467 2.978 10.97 6.126 11.415 1.218.17 2.034-1.503 2.408-1.614 3.104-.917 14.267-2.082 10.798 5.528-.825 1.804-10.5 5.881-13.45 4.9-2.044-.684-.33-.736-2.812.706-2.394 1.392-4.082.02-7.099.441-1.529.213-1.926 1.635-2.84 1.81-1.294.245-.979-1.395-2.752-1.495-.603-.034-.416 1.894-1.332 1.68-1.74-.4-3.781-2.882-6.136-3.252-6.295-.98-10.644-3.86-16.948-.613-3.02 1.554-9.081 1.82-11.507 4.58-1.785 2.027-3.905 8.606-3.117 11.722.015.066 2.857 5.066 2.655 4.802.642.841 3.681 3.8 6.08 5.455 2.016 1.394 9.18 4.055 5.98 8.76-.251.371-6.357 3.008-8.23 2.576-1.822-.419-3.236-4.041-5.206-5.842-7.24-6.61-18.475-4.15-27.108-5.884-.634-.127-1.55 1.136-2.174.968-.787-.21-1.581-2.094-2.719-2.596-.25-.11-2.125.557-2.374.514-4.654-.8-10.68-6.913-15.958-5.408-9.123 2.597-1.545 11.778.382 17.238.623 1.765.888 3.789.744 4.02-3.952 6.406-14.39-8.4-18.468-7.553-2.272.472-2.967 4.872-5.311 5.627-1.593.516-3.9-1.616-5.733-2.342-3.39-1.338-16.498-9.378-19.716-9.174-6.948.439-10.576 8.776-14.703 11.443-2.809 1.811-8.813 3.802-13.423 3.799-2.674-.002-2.886-.674-6.226.052-6.574 1.427-16.32-2.185-20.587-8.787-1.02-1.58-3.236-5.126-2.596-7.003.076-.22 1.304-.362 1.305-.581-.001-1.846-.971-6.318-.623-8.427.302-1.841 2.361-5.531-2.426-5.449-2.487.045-4.424 2.542-6.526 2.905-6.476 1.119-13.984-4.524-14.93-11.303-.102-.72-.212-5.58-.02-7.063.188-1.446 1.783-1.245 1.367-2.785-1.373-5.068-8.22-8.45-11.173-7.537-4.73 1.456-5.826 13.673-10.497 6.848-2.441-3.565.976-9.406 2.015-10.688 6.348-7.852-.444-14.095-9.656-15.831-2.639-.497-4.608-2.892-5.933-2.798-2.227.158-3.75 3.318-6.088 2.71-1.907-.494-1.718-3.677-4.632-3.379.143-.015-9.995 7.7-7.792 2.384.936-2.26 5.845-4.083 7.45-5.492 1.928-1.696 3.258-4.244 4.439-5.243 1.747-1.474 4.69-1 4.815-3.23.075-1.304-3.597-5.513-5.408-6.297-5.777-2.495-2.536-10.78-9.049-14.467-1.569-.89-6.389-.846-8.37-.08-3.035 1.167-6.608 1.561-8.05-4.033-.362-1.413 1.522-4.529 1.054-6.998-.325-1.728-1.607-2.577-1.617-3.632-.01-1.11 1.385-2.464 1.163-3.238-.471-1.655-3.61-3.849-4.366-5.128-1.568-2.64-1.614-5.664-4.304-7.333-3.989-2.466-8.887-1.643-10.366-5.72-.784-2.171 1.36-7.135 3.664-8.16 2.11-.938 3.652 1.456 5.128.983.905-.291-.248-1.848.058-2.203.818-.949 3.01-.81 3.913-1.742 1.03-1.064.67-7.121-2.098-9.4-1.342-1.105-2.915.51-5.363-.335-2.612-.902-9.728-5.595-9.572-10.969.046-1.606 2.689-4.02 4.44-5.244 1.11-.77 7.77-1.505 9.334-3.61 1.106-1.485-1.74-4.074-1.295-7.583.202-1.561 2.244-2.103 1.4-3.888-.91-1.914-12.735-5.882-15.864-8.713-1.362-1.23-10.402-3.462-13.984-6.83-6.696-6.297.05-6.28 2.7-4.466.502.342 1.886 3.202 3.996 3.117 3.593-.141 8.951-2.271 12.082-2.116.943.048 2.018 1.255 2.114 1.236 4.237-.862 9.11-6.082 7.401-11.457-.928-2.926-4.68-5.568-3.17-9.467 1.888-4.87 9.05-3.445 10.87-4.84 2.655-2.034.98-5.434.91-9.654-.056-3.759 2.36-7.66 1.583-10.496-.886-3.231-5.53-5.164-5.379-7.397.067-.982 2.384-2.03 2.437-2.717.105-1.381-2.565-3.44-1.353-5.382.961-1.539 6.227-2.235 8.2-1.474.498.19-.066 1.545.375 2.008.576.61 9.502 4.352 7.611 4.228 3.524.236 11.59-7.976 11.6-7.887-.057-.535-6.373-1.482-2.425-5.447 1.532-1.539 1.496 1.437 1.676 1.429 3.092-.098 5.155-16.006 4.404-19.367-.94-4.213-10.967-13.405-7.076-15.892.96-.611 3.497.686 3.852.462.559-.353-.65-1.561-.373-2.01 3.382-5.363 5.452 2.096 9.495 6.108 1.706 1.697 6.124 4.338 6.742 4.615 1.017.455 5.296 1.144 5.997.594 1.277-.997-1.896-11.31-3.021-14.975a151.841 151.841 0 00-3.98-11.284c-2.463-6.136-9.588-12.462-4.265-16.597 3.06-2.377 6.022-1.084 8.28 3.385" fill="url(#a)"/><path d="M-38.495-111.308c-2.334-5.711 6.256-5.065 7.95-7.786.401-.639-.796-4.083-.283-5.758 1.346-4.41 5.551-8.613 5.623-12.038.049-2.362-1.149-3.883-1.28-6.569-.243-4.948-4.016-13.37-1.74-17.206 1.207-2.035 9.18-5.606 12.71-5.51 2.258.06 8.085 3.987 13.717 2.413 1.19-.328 2.284-2.229 3.702-2.532 5.895-1.262 11.303 2.92 14.815-3.011 4.827-8.164-12.884-16.331-10.705-24.472.844-3.161 1.737-1.106.048-3.12-1.657-1.987-3.257-7.267-4.156-8.11-2.594-2.422-6.563-3.996-6.923-8.761-.064-.803 1.31-2.007.935-3.196-.72-2.285-4.946-4.304-1.503-8.33 7.422-8.694 20.394 12.42 23.303 18.08 1.805 3.514 11.837 17.688 19.99 20.138 2.074.623 3.07-1.963 5.082-2.203 3.374-.403 10.501 3.296 14.551 5.463 8.91 4.764 16.809 13.973 26.293 20.5 5.432 3.736 13.577 2.79 17.64 1.644 1.041-.29.127-1.207 1.547-1.91 1.151-.562 16.978-.489 16.361-4.921-.333-2.404 3.297-.33 6.742-3.232 1.647-1.385 5.62-3.286 9.17-5.212 3.997-2.17 11.357-4.605 14.98-5.256 3.081-.552 4.614 1.383 6.305.364 1.623-.975 1.701-4.652 5.294-7.558 4.8-3.875 13.175-4.266 14.371-6.537 2.605-4.952-12.534-18.763-18.556-22.93-1.935-1.337-4.516-1.573-6.64-3.002-4.012-2.705-7.091-8.3-10.186-9.832-4.755-2.356-12.204 1.65-17.032-.36-7.364-3.071-6.079-11.639 1.75-14.386 1.683-.592 4.723 1.065 5.917.842 1.8-.335 7.114-2.153 8.124-2.904 3.9-2.892 4.492-10.796 10.21-14.644.3-.204 2.012 1.244 2.38 1.137 1.225-.352 1.842-2.723 2.318-2.862 2.826-.826 7.726.118 10.118-1.289 9.798-5.759 1.234-22.217 13.563-26.938 1.928-.737 5.24.731 7.58-.186 2.196-.868 4.177-3.837 6.513-4.996 3.59-1.773 6.905-.66 10.17-4.405 1.822-2.089 4.393-7.836 8.671-5.62 1.583.819 1.141 4.692 2.056 5.615 2.482 2.517 11.148 2.673 13.604 1.537 2.864-1.323 5.334-6.618 8.95-6.976-.011 0 4.99 1.683 5.141 1.796 3.644 2.69 5.182 10.685 8.756 12.62 1.18.637 3.359-.385 4.038.107 4.06 2.966 9.568 12.1 11.853 15.923 6.71 11.223 10.447 24.834 6.191 38.195-1.33 4.185-.41 11.207-2.135 14.863-2.299 4.871-8.096 9.274-10.82 13.362-.871 1.306-.302 3.455-1.211 4.548.184-.22-2.264-1.238-2.38-1.135-.768.696.01 3.94-1.484 5.906-2.906 3.829-28.146 13.096-29.007 14.434-1.487 2.307 1.248 2.701 1.778 6.973.81 6.517-6.912 14.71 1.187 19.923 1.99 1.28 8.086-1.985 9.02 4.143.646 4.243-5.654 7.89-7.283 13.067-2.617 8.333 8.167 21.27 18.168 23.403 3.145.67 20.355-1.21 23.676 3.366 2.81 3.876-.31 5.41-2.312 9.984-.36.828.094 3.543-.713 4.952-.313.548-2.372 1.783-2.427 1.982-2.025 6.957 2.378 14.09 9.972 15.186 5.303.768 10.739-5.849 16.583-3.159 3.608 1.654 10.11 9.77 7.983 13.57-.486.871-4.234 3.305-5.741 4.042-8.243 4.026-12.665 3.309-14.972 12.37-.88 3.468-3.583 8.38-2.97 11.817.715 3.993 5.036 7.784 5.991 11.963 1.581 6.938-3.191 17.074 9.037 18.376 2.582.278 8.373-1.174 10.94-5.36 1.161-1.892.472-5.69 2.92-8.699.63-.772 6.21-3.635 6.243-3.632 10.595.804 7.52 15.096 10.147 20.067 2.687 5.084 12.584 8.874 15.558 13.386.71 1.08-.53 1.918.333 2.644 7.599 6.38 13.341 1.185 23.225-.155 1.657-.227 6.116 1.365 8.57.62 6.925-2.103 14.676-6.496 18.752 3.331 3.542 8.546-9.775 14.963-10.974 22.717-.402 2.603 2.538 11.426 2.949 12.658.386 1.162 2.666 5.995 3.05 6.42 4.131 4.577 18.855 5.462 18.982 12.213.056 3.035-3.555 5.785-4.574 9.725-.96 3.714-1.62 11.279.13 15.121 3.22 7.07 22.77 15.503 17.67 23-.235.347-3.146 1.5-3.315 2.057-.652 2.14 2.131 1.201 1.605 2.091-2.153 3.657-8.22 5.433-8.996 10.094-.356 2.13 4.298 7.633 1.563 12.328-2.476 4.248-12.157 8.502-12.86 14.865-.738 6.653 9.235 10.414 5.164 16.035-3.747 5.163-12.252 1.259-17.247 4.999-2.562 1.916-5.14 6.477-5.349 10.677-.21 4.246 3.672 6.341 3.995 10.346.559 6.875-5.286 5.781-6.405 5.873-2.508.21-4.07-1.693-8.024-3.333-3.788-1.576-10.682-2.768-13.49-.656-7.507 5.638.953 21.776-10.473 23.118-2.507.297-2.883-2.29-5.259-2.675-10.444-1.688-15.851 4.566-22.878 9.917-7.773 5.918-14.761-9.66-22.298-10.156-1.757-.114-7.677 1.236-9.507 2.572-3.31 2.412-7.202 13.052-11.316 12.957-5.165-.114-5.8-10.222-7.871-12.691-4.078-4.858-7.807-3.742-11.897-5.685-.705-.333-2.644-3.206-3.102-3.299-4.406-.903-22.706 11.2-26.924 2.688-1.094-2.208 2.835-6.463-1.616-9.211-2.662-1.64-4.68-.574-8.35 1.141-4.118 1.924-7.754.738-8.735 1.618-1.282 1.16 2.07.357 1.994 1.614-.426 7.207-21.501 3.786-17.54-7.882.453-1.325 1.969-1.802 2.705-3.34 2.383-4.979 2.175-12.936 3.022-14.938 1.478-3.49 4.822-4.885 3.912-7.887-.22-.744-2.565-2.636-2.602-2.9-.272-2.123.18-8.55.815-11.192.196-.809 1.921-1.566 1.932-2.386.099-6.592-5.453-18.172-14.458-18.82-5.46-.39-11.746 2.785-17.967 2.837-5.62.042-12.692-2.405-18.637-2.454-10.427-.087-11.853 3.195-18.343 10.429-3.336 3.714-9.936 4.862-16.536.045-1.11-.814.083-1.921-.831-3.05-1.277-1.568-5.064-1.409-7.524-2.931-7.943-4.907-8.51-10.277-16.717-11.955-2.737-.562-6.843 1.209-9.73.81-.685-.096-1.31-1.573-1.994-1.615-5.48-.33-12.006 3.446-18.524-1.569-.17-.13-1.17-2.793-1.723-2.974-.66-.213-7.532-.696-9.952-.947-8.652-.906-19.985.64-25.563-11.221-2.403-5.112.1-9.73-1.29-13.686-2.244-6.393-11.082-16.31-18.994-19.331-5.87-2.244-15.751 2.358-23.109 1.036-8.436-1.512-9.202-17.144-8.826-23.735.116-2.013 1.677-2.869 1.209-4.553-.329-1.186-3.107-1.91-4.097-4.106-1.104-2.453.885-5.597-.009-7.119-.854-1.456-2.952-.676-4.26-1.871-2.358-2.152-1.827-6.47-3-9.538-.6-1.578-2.654-2.483-3.212-4.183-1.834-5.584-.276-10.748-6.16-16.838-3.104-3.217-7.747-2.524-9.578-8.548-1.922-6.325.208-15.662-3.681-21.943-.802-1.298-3.246-2.3-3.6-3.703-1.552-6.204 6.423-7.304 10.434-12.886 1.914-2.664 4.387-10.475 4.24-12.366-.093-1.175-4.13-5.625-4.434-6.75-1.074-4.058.968-.41-2.603-2.899-1.526-1.063-6.56-7.687-5.764-10.2.41-1.288 2.739-2.314 3.091-3.818.597-2.56.635-7.494.924-10.31.094-.87-1.344-2.086-1.216-2.567.181-.686 2.74-1.58 2.816-2.458.12-1.408-1.887-.835-2.105-2.496-.271-2.06 3.435-12.2 5.013-13.32 2.002-1.422 8.704 1.608 12.387-1.034 2.983-2.14 6.573-3.318 7.127-3.708.352-.253-.647-3.916 2.654-.222" fill="url(#b)"/></g></svg>