<?xml version="1.0" encoding="UTF-8" standalone="no"?>
<svg width="1586px" height="511px" viewBox="0 0 1586 511" version="1.1" xmlns="http://www.w3.org/2000/svg" xmlns:xlink="http://www.w3.org/1999/xlink">
    <!-- Generator: Sketch 43.2 (39069) - http://www.bohemiancoding.com/sketch -->
    <title>Hero</title>
    <desc>Created with Sketch.</desc>
    <defs>
        <linearGradient x1="100%" y1="87.0649371%" x2="0%" y2="4.03833874%" id="linearGradient-1">
            <stop stop-color="#B35EFF" offset="0%"></stop>
            <stop stop-color="#B35EFF" stop-opacity="0" offset="100%"></stop>
        </linearGradient>
        <linearGradient x1="-14.1249401%" y1="100%" x2="77.4532318%" y2="13.6663191%" id="linearGradient-2">
            <stop stop-color="#B35EFF" offset="0%"></stop>
            <stop stop-color="#B35EFF" stop-opacity="0" offset="100%"></stop>
        </linearGradient>
    </defs>
    <g id="Page-1" stroke="none" stroke-width="1" fill="none" fill-rule="evenodd">
        <g id="Hero">
            <g id="bg">
                <path d="M63.7683426,321.140955 C62.8731431,324.388151 66.9078013,326.266226 67.3241004,328.105609 C65.1768734,329.31103 64.0876096,329.909276 63.6431399,331.531386 C62.9701752,333.971992 64.4444374,335.210152 65.7183753,337.263833 C62.0749756,337.219187 59.4519783,340.037789 58.3314138,344.109433 C57.883814,345.731543 58.0716181,348.386445 59.3518161,350.443102 C58.2594222,351.038371 44.1271632,349.24661 42.333634,355.75886 C41.8860342,357.380969 42.5276982,358.404833 42.0738383,360.032895 C37.7887746,358.964386 37.8545061,355.50587 34.4270811,354.651658 C30.1451475,353.583149 27.3218258,357.226199 22.2135541,355.952322 C17.0614614,354.669516 18.6296257,348.981715 12.6449349,347.487588 C8.3880418,346.428008 6.63520347,349.460907 4.91053576,349.029337 C4.07167742,348.820992 4.07167742,348.820992 4.29704235,348.005473 C4.74777221,346.386339 7.75576797,345.395215 8.64783748,342.145043 C8.87633247,341.3325 6.79483696,335.60303 0.81640625,334.108904 C1.48937096,331.671274 3.63033777,330.474783 4.30643256,328.034177 C5.42386699,323.968486 3.28290018,325.17093 1.38920877,322.09041 C3.53643572,320.887965 4.85106446,319.483129 5.52089911,317.042524 C5.97162896,315.420414 6.41922875,313.789375 6.00292965,311.949992 C8.17832721,310.7535 10.9546979,310.583848 11.6307927,308.140266 C11.8561576,307.3307 11.2144936,306.300883 11.4429886,305.48834 C11.6620934,304.675797 32.7493644,297.773646 35.1438668,295.761635 C38.5681617,296.61287 41.2913212,299.904711 44.712486,300.755947 C47.2697519,301.392885 49.4451495,300.193417 52.2309104,300.017813 C52.9289156,314.098915 68.0314958,305.696685 63.7683426,321.140955" id="Path" fill="url(#linearGradient-1)"></path>
                <path d="M942.164421,214.298863 C945.621496,214.978987 947.382705,211.049441 949.292649,210.557863 C950.670967,212.533753 951.356256,213.536793 953.083067,213.873961 C955.681426,214.385267 956.904593,212.920528 958.994707,211.603333 C959.138502,215.065391 962.235891,217.408638 966.570602,218.259617 C968.297577,218.599757 971.075943,218.282474 973.168856,216.959179 C973.851183,217.965347 972.70909,231.478915 979.64216,232.841201 C981.369135,233.18134 982.41082,232.51844 984.144375,232.864213 C983.246483,236.989171 979.610888,237.107758 978.893167,240.407099 C977.995111,244.529084 981.968826,247.019409 980.898339,251.936821 C979.820768,256.896313 973.765333,255.704883 972.509407,261.466058 C971.619418,265.563798 974.896323,267.069539 974.533347,268.729846 C974.358445,269.537318 974.358445,269.537318 973.490187,269.365996 C971.766174,269.022728 970.567864,266.218249 967.107826,265.541253 C966.24253,265.366802 960.334343,267.643219 959.078089,273.398449 C956.482856,272.886987 955.114243,270.916575 952.51572,270.402296 C948.187424,269.553978 949.562289,271.524079 946.426216,273.483523 C945.051024,271.507478 943.506854,270.332648 940.908659,269.824314 C939.18152,269.481202 937.445168,269.141529 935.535224,269.633107 C934.164809,267.63 933.841336,265.002476 931.239687,264.488353 C930.377681,264.316719 929.329744,264.979931 928.464447,264.80548 C927.599643,264.639947 919.247339,244.977 917.008994,242.808515 C917.723753,239.512302 921.038345,236.754147 921.753268,233.460906 C922.288348,230.999228 920.914808,228.996276 920.584591,226.360147 C935.33612,224.960383 925.721638,211.058923 942.164421,214.298863" id="Path" fill="#B35EFF"></path>
                <path d="M1057.83845,78.5314657 C1058.75521,78.711824 1059.22225,77.6697696 1059.72874,77.5394109 C1060.09425,78.0633861 1060.27598,78.3293766 1060.7339,78.4187882 C1061.42295,78.5543787 1061.74731,78.1659527 1062.30158,77.8166531 C1062.33971,78.734737 1063.16109,79.3561297 1064.31059,79.5817961 C1064.76855,79.6719958 1065.50533,79.5878573 1066.06034,79.23694 C1066.24128,79.5037601 1065.93842,83.0873481 1067.77696,83.448605 C1068.23493,83.5388048 1068.51116,83.363014 1068.97088,83.4547076 C1068.73277,84.5485822 1067.76867,84.5800297 1067.57834,85.4549635 C1067.34019,86.5480499 1068.39395,87.2084451 1068.11008,88.5124664 C1067.82432,89.8276464 1066.21852,89.5116977 1065.88546,91.0394716 C1065.64945,92.1261285 1066.51844,92.5254276 1066.42218,92.9657151 C1066.3758,93.1798441 1066.3758,93.1798441 1066.14555,93.1344121 C1065.68837,93.0433828 1065.3706,92.2996786 1064.45305,92.1201498 C1064.22359,92.0738883 1062.65683,92.6775585 1062.32369,94.203756 C1061.63547,94.0681242 1061.27254,93.5456015 1060.58345,93.4092228 C1059.43565,93.184262 1059.80025,93.7067021 1058.96861,94.2263163 C1058.60393,93.7022998 1058.19444,93.3907533 1057.50544,93.255951 C1057.04743,93.164963 1056.58697,93.0748872 1056.08049,93.2052459 C1055.71707,92.674053 1055.63129,91.9772746 1054.94138,91.8409372 C1054.71279,91.7954225 1054.43489,91.9712959 1054.20543,91.9250344 C1053.97609,91.8811374 1051.76119,86.6668302 1051.16762,86.0917816 C1051.35716,85.2176773 1052.23614,84.4862574 1052.42573,83.6129413 C1052.56762,82.9601424 1052.20338,82.4289908 1052.11581,81.7299304 C1056.02769,81.3587348 1053.47808,77.6722841 1057.83845,78.5314657" id="Path" fill="#B35EFF"></path>
                <path d="M1145.9657,358.730618 C1145.9657,367.980632 1140.29103,372.555908 1129.12475,381.756191 C1134.7384,391.006206 1162.9897,395.631213 1162.9897,414.08151 C1162.9897,501.558796 1242.00791,437.007621 1270.38125,510.858542 C1287.34423,506.183803 1298.75458,496.98352 1315.71756,496.98352 C1338.29419,496.98352 1360.80981,510.858542 1383.44746,510.858542 C1394.85781,496.98352 1513.53767,432.482076 1513.53767,427.9068 C1513.53767,427.658144 1513.35462,427.409488 1513.35462,427.160832 C1541.72795,448.097692 1569.4911,472.814128 1573.70134,473.709291 C1579.19295,474.703916 1584.74559,475.798004 1586.02696,471.272459 C1586.02696,471.272459 1541.5449,426.663519 1508.29013,411.047903 C1510.54779,399.510251 1525.68024,394.885244 1536.17532,386.381198 C1530.74472,377.628497 1530.50065,368.925526 1530.50065,360.172824 C1531.84305,362.361 1533.36849,364.499444 1535.077,366.787082 C1540.56861,367.781707 1554.17561,361.018256 1555.45698,356.492711 C1558.08075,347.491353 1547.09753,345.352909 1541.5449,344.258821 C1538.67705,343.662046 1535.38209,344.507478 1532.81933,345.949684 C1535.38209,338.639189 1540.08047,332.522244 1547.40262,326.504762 C1530.50065,312.62974 1519.21234,321.830023 1519.21234,298.854181 C1519.21234,285.028891 1530.50065,275.828608 1530.50065,261.953586 C1490.90002,261.953586 1468.26237,234.352737 1468.26237,229.677999 C1468.26237,211.227701 1485.16434,202.077149 1485.16434,192.827135 C1485.16434,188.152397 1485.16434,188.152397 1479.73374,188.152397 C1468.26237,188.152397 1462.52669,206.552963 1434.39742,206.552963 C1394.85781,206.552963 1394.85781,174.426569 1360.80981,174.426569 C1327.00588,174.426569 1315.71756,197.501874 1287.34423,197.501874 C1264.64556,197.501874 1259.21497,179.001845 1230.84163,179.001845 C1230.84163,188.152397 1236.57732,192.827135 1236.57732,202.077149 C1236.57732,238.928013 1145.9657,248.128296 1140.29103,252.753303 C1151.70139,261.953586 1157.43707,275.828608 1157.43707,285.028891 C1157.43707,308.104195 1145.9657,326.504762 1123.38907,331.080037 C1134.7384,340.280321 1145.9657,344.905328 1145.9657,358.730618 L1145.9657,358.730618 Z" id="Path" fill="url(#linearGradient-1)"></path>
                <path d="M234.075443,119.14607 C234.819005,118.360817 235.668522,118.384865 237.356015,118.415436 C237.623022,117.222165 235.596492,114.776142 237.079618,113.209858 C244.111474,105.78373 232.214513,105.520311 235.742343,97.1886867 C233.926542,96.3526099 232.218329,96.3042994 230.778307,95.0713743 C228.86173,93.430431 228.065675,90.6160433 226.143918,88.9706649 C224.059927,89.3192026 208.800004,86.1688235 208.432221,86.5572282 C208.412232,86.5783371 208.407784,86.612751 208.387796,86.63386 C207.662133,82.7942199 207.29209,78.6780736 207.006632,78.2960676 C206.620391,77.8124834 206.236964,77.3160207 205.7644,77.6070689 C205.7644,77.6070689 205.954688,84.6271161 207.522494,88.3698233 C206.403383,89.1851841 204.746977,88.477935 203.172431,88.4370441 C202.92986,89.5747925 202.250992,90.3313456 201.547406,91.0743806 C201.609344,90.7910522 201.651744,90.4986407 201.690598,90.1802589 C201.304356,89.6966747 199.605551,89.2818371 199.132986,89.5728853 C198.186675,90.146325 198.947165,91.1261587 199.330592,91.6226215 C199.526077,91.8817271 199.873754,92.0494457 200.207243,92.1132831 C199.402032,92.5476169 198.511466,92.7254034 197.406159,92.7040421 C197.725659,95.1104114 199.423511,95.149852 197.5766,97.1003188 C196.465255,98.2739763 194.767402,98.2345357 193.652059,99.412415 C197.013839,102.290718 196.716903,106.27919 196.341125,106.676038 C194.857999,108.242322 192.687589,107.790641 191.944028,108.575894 C191.568249,108.972742 191.568249,108.972742 192.029264,109.367456 C193.003092,110.201233 194.969134,109.056059 197.357086,111.100585 C200.713685,113.974454 198.131207,116.70173 201.021613,119.17645 C203.891298,121.63343 206.704493,120.494991 209.113165,122.557258 C211.040101,124.207071 210.013992,126.17229 212.422663,128.234557 C213.15823,127.457748 213.047094,126.644011 213.790656,125.858758 C216.75291,122.730412 225.184682,128.53533 226.038197,128.555157 C225.809113,126.944784 226.437542,125.350016 227.177106,124.568985 C229.032013,122.610075 231.484969,121.881789 233.76933,123.134328 C233.545425,121.52839 232.964098,120.319727 234.075443,119.14607 L234.075443,119.14607" id="Path" fill="#B35EFF"></path>
                <path d="M673.709217,314.767201 C673.935695,313.013269 674.855107,312.239999 676.669103,310.680989 C676.096873,308.833805 672.190523,307.487534 672.642262,303.9891 C674.784065,287.402187 661.960893,298.329355 659.732114,283.854858 C657.204167,284.459468 655.355444,286.014423 652.941954,285.732638 C649.729756,285.357599 646.865956,282.352677 643.645076,281.976624 C641.681896,284.417975 623.216891,294.676861 623.104869,295.544397 C623.098781,295.591546 623.118738,295.641736 623.11265,295.688884 C619.588318,291.247631 616.243341,286.099854 615.666227,285.860179 C614.909234,285.580359 614.145994,285.280665 613.852877,286.117486 C613.852877,286.117486 619.089566,295.31489 623.438713,298.82825 C622.835004,300.978446 620.568724,301.604035 618.867272,303.042178 C619.425634,304.792024 619.247276,306.446283 619.032974,308.105918 C618.895554,307.66871 618.730871,307.23789 618.543797,306.775741 C617.786804,306.495921 615.685206,307.552328 615.392088,308.389149 C614.798388,310.052346 616.308722,310.640276 617.071961,310.93997 C617.465386,311.100767 617.954893,310.995196 618.354832,310.764306 C617.811213,312.107906 616.99296,313.189715 615.803834,314.20908 C617.868924,317.120749 619.700284,315.563767 619.137741,319.920307 C618.799242,322.541774 616.967882,324.098757 616.628164,326.729655 C622.262534,327.387493 624.807632,332.997051 624.693176,333.883446 C624.241437,337.38188 621.612586,338.83618 621.386107,340.590112 C621.27165,341.476507 621.27165,341.476507 622.044314,341.566719 C623.676459,341.757279 624.943052,338.363556 628.945278,338.830833 C634.570966,339.487658 633.78438,345.57927 638.628723,346.144869 C643.438339,346.706413 645.609416,342.518533 649.646368,342.989866 C652.87593,343.366931 653.195637,346.965007 657.232589,347.436339 C657.456632,345.701267 656.755017,344.719591 656.981495,342.96566 C657.883756,335.978222 671.001218,335.738943 671.921848,334.956243 C670.523646,333.022195 670.047291,330.296017 670.272552,328.551515 C670.83753,324.176116 672.920195,320.877672 676.244415,320.385175 C674.854895,318.45214 673.370717,317.388668 673.709217,314.767201 L673.709217,314.767201" id="Path" fill="url(#linearGradient-1)"></path>
                <path d="M790.526804,8.54181827 C789.691635,8.08331375 789.560527,7.39694891 789.149642,7.17137449 C787.903588,6.48729555 786.251509,7.40365377 785.682929,8.34009882 C784.57886,10.1584868 784.422716,11.3081449 783.866169,12.224771 C781.639587,14.0677158 779.70618,15.4572258 777.215925,15.9200342 C773.071343,13.6446749 772.406477,8.38438718 769.923301,7.02113309 C769.923301,7.02113309 769.232638,7.25634909 768.95286,7.71713951 C772.124086,10.673692 774.177752,15.4610449 771.662762,19.6032039 C767.757909,26.0344509 758.636127,26.5230813 753.630881,31.1280488 L747.941013,28.0043335 C750.407322,27.2377003 753.423206,26.0857252 754.636793,24.7832985 C754.636793,24.7832985 755.007352,24.3789526 754.668574,24.0542326 C752.189649,25.2829873 748.585665,26.4424135 746.449321,27.1854003 L745.774933,26.815164 C745.899614,26.9628891 746.069049,27.1153651 746.205671,27.2630393 C745.369984,27.550764 744.785329,27.7781148 744.687789,27.8897238 C744.317324,28.2743016 743.9423,28.6761956 744.290009,29.0058195 C744.290009,29.0058195 745.525661,28.7262722 747.147351,28.2424599 C748.976402,30.0063278 751.253737,31.6595613 753.214374,32.7359436 C753.62526,32.961518 754.734282,32.9493736 755.560519,33.4029743 C757.63281,34.540654 756.36503,37.5309709 754.975167,39.8200588 C751.067306,46.2562605 748.477361,38.7037313 745.965379,42.8409356 C745.252398,44.015208 749.764715,45.8516402 750.143948,49.6404601 C749.800612,49.3330561 749.080554,50.1070647 748.710089,50.4916426 C748.685782,51.2182057 748.685782,51.2182057 749.023102,51.5355191 C749.238471,51.7594567 749.618928,51.7899559 749.952272,51.6822828 C749.946163,51.7119603 749.94607,51.7317283 749.934037,51.7515473 L743.717861,52.0053956 C743.30251,51.7773693 743.019724,52.2431144 743.019724,52.2431144 C742.1834,53.620531 743.002557,55.9001942 743.837726,56.3586987 C745.079314,57.0403258 746.734401,56.1190128 747.145286,56.3445873 C749.217577,57.4822669 748.241515,60.0117425 747.819084,61.6097787 C745.608606,61.6117967 743.115342,62.0795599 741.716454,64.383512 C741.439685,64.8393477 741.165924,65.2902286 741.996627,65.7462813 C742.411978,65.9743076 743.922861,66.2026018 745.030333,66.2028187 C747.928861,67.7940991 749.577263,70.5224084 747.624837,73.7380319 C746.788513,75.1154484 739.454777,77.2000971 739.454777,77.2000971 L745.797897,79.4734894 C745.811295,79.480845 745.83071,79.4782913 745.842651,79.4782403 C745.631111,80.3464464 745.904923,81.4745025 746.413042,81.9714667 C747.096521,82.6307653 749.213952,82.4191135 750.320975,81.24316 C750.330001,81.2282958 750.330186,81.1887598 750.345228,81.1639861 C751.913108,83.240308 753.648355,86.2276966 754.480779,87.9068623 C751.965789,92.0490213 747.396163,93.2002126 746.280061,95.0384196 C745.997275,95.5041647 746.144882,96.1731625 746.555768,96.3987369 C749.449829,97.9875654 753.622426,91.115347 756.936305,92.9346537 C758.18236,93.6187327 758.867401,95.2169858 758.034085,96.5894476 C757.838541,96.9115054 757.450954,97.1281317 757.047582,97.5276757 C756.986699,97.4612198 756.933198,97.4120291 756.855909,97.3431722 C755.816821,97.0832137 755.816821,97.0832137 755.449271,97.4826048 C754.35118,98.6634622 757.391152,101.600807 757.735853,101.935386 C757.747012,101.465857 757.88431,101.151461 758.028805,100.893866 C759.293083,100.557364 761.307939,99.6221617 762.848759,100.468066 C766.569057,102.510495 764.616631,105.726119 762.393452,109.387668 C763.649594,108.24073 765.309147,107.321869 766.550735,108.003496 C768.61856,109.138724 768.464268,112.119348 770.121208,113.029001 C771.362796,113.710629 773.733187,108.894517 780.767364,112.756253 C782.419838,113.663454 780.887229,117.109556 780.336699,118.016273 C785.849115,119.833612 787.834813,111.119982 794.453639,114.753692 C795.279876,115.207293 795.966375,116.812953 796.788146,117.264101 C797.842156,117.842749 799.084435,116.787295 800.494719,115.553216 L800.741351,115.794316 L800.659622,115.399313 C802.55404,113.730752 804.724206,111.823803 807.046601,113.098789 C807.88177,113.557294 808.15301,114.915159 808.697919,115.841912 C809.316845,115.626769 809.881342,115.560116 810.402172,115.575191 C810.35678,116.660132 810.490591,117.72454 810.833834,118.051712 C811.509839,118.713514 811.836675,119.038285 812.553393,118.975924 C813.360508,118.097764 813.624555,117.172502 813.609315,116.285496 C814.90353,116.566605 816.25028,116.466963 818.094576,114.665184 C818.920414,115.521552 819.384893,115.776549 820.452993,114.625471 C820.826467,114.235938 821.212307,113.119893 820.524362,112.458143 C820.41891,112.3474 820.302976,112.244115 820.191508,112.143281 C820.711398,111.40472 821.260006,110.589437 821.864687,109.593535 C823.914647,110.718955 826.088333,112.513475 827.855508,114.10464 C825.478429,114.940079 823.42021,115.574011 823.21319,115.79728 C822.853115,116.194168 822.481099,116.591107 822.824342,116.918279 C822.824342,116.918279 830.974945,115.057473 833.171126,112.695758 C833.171126,112.695758 833.53421,112.293915 833.199899,111.971647 C832.273868,112.427782 831.171737,112.879726 830.060765,113.306999 C831.25201,111.040997 828.616722,108.378672 827.417849,105.910365 C831.708853,103.384043 837.113438,100.828261 840.983469,99.9073817 C841.398821,100.135408 841.54342,100.809361 841.958771,101.037387 C842.785008,101.490988 843.886463,101.501114 844.452035,100.569624 C845.149777,98.5083452 845.15947,94.8537682 844.894339,93.4662253 C846.69694,93.2336781 853.354264,87.7123524 856.668143,89.5316591 L863.70232,93.3933951 C862.332633,92.0204485 857.22469,88.615033 857.784245,87.6934522 C858.337783,86.7817808 859.318707,86.0783168 859.592468,85.6274359 C860.152023,84.705855 860.007424,84.0319025 859.879324,83.3405829 C858.770302,83.3527273 857.66438,83.340149 856.422792,82.658522 C855.208001,81.9916063 854.307444,80.8365728 854.293902,79.270048 C854.497264,79.19011 854.70382,79.0656812 854.886866,78.8622823 C855.266357,78.4628402 854.918647,78.1332164 854.918647,78.1332164 C854.830968,78.0520491 854.644291,78.0750841 854.424522,78.1526212 C854.488347,77.9101957 854.550714,77.6603636 854.647446,77.4029721 C857.153411,73.2756773 861.172507,73.0312026 863.687496,68.8890436 C863.961257,68.4381626 864.102453,67.2935102 864.659,66.3768841 C865.775102,64.5386771 867.56014,66.1396501 868.959028,63.835698 C869.792344,62.4632362 868.702435,60.6294991 868.976195,60.1786182 L869.258981,59.712873 C867.319256,59.2689648 865.242499,58.1288332 862.763789,56.768031 C861.403794,51.7405075 864.926567,39.5832277 862.868434,34.7934229 C861.215961,33.8862215 859.416763,35.9373736 858.175175,35.2557465 C855.000941,32.3041488 855.003554,30.4756343 856.119656,28.6374274 C856.685228,27.7059371 857.654118,27.022292 858.207656,26.1106206 C858.77022,25.1840851 858.634646,24.4952683 857.397524,23.8160932 C854.893777,24.2913139 854.060461,25.6637757 851.586217,24.3054254 C844.962925,20.6692639 852.864845,15.8246105 849.966318,14.23333 C848.349573,13.3457437 845.770112,15.6423779 842.34736,15.3950602 C842.944671,15.333209 843.532427,15.0811353 844.08293,14.4981133 C845.182478,13.3246626 844.533696,11.9511113 843.509982,10.9596859 C842.496658,9.98057092 840.380777,10.1798614 839.284144,11.3681253 C838.183045,12.5539374 838.157281,13.2730938 838.497516,13.6052205 C838.944753,14.0357287 839.50538,14.475637 840.121615,14.8337666 C839.859478,14.7162794 839.592596,14.6556443 839.315695,14.5036267 C832.285984,10.6443426 840.460509,7.18472935 836.731279,5.13739631 C834.172178,3.73245998 833.304956,9.46629384 829.701478,8.92817496 C829.6596,8.31061603 829.460758,7.74561675 829.054339,7.52249422 C828.714912,7.33615014 828.179849,7.49163187 827.693608,8.05708307 C825.180932,6.30107373 824.366812,2.63024392 823.192216,1.98539531 C822.365979,1.53179458 818.756613,3.83776469 817.64352,5.67101691 C815.575695,4.53578913 816.01423,1.09682618 814.352824,0.184720924 C813.24681,0.191910612 812.964024,0.657655769 812.684247,1.11844619 C811.850931,2.49090798 812.403406,3.39538967 811.287304,5.23359662 C811.007527,5.69438704 804.634052,8.93381454 800.493936,6.66090708 C800.078584,6.43288076 799.805886,5.06760866 800.24035,3.44975351 C800.79088,2.54303687 800.382608,0.488948028 799.551905,0.0328953994 C798.453366,0.037582248 797.764253,0.260436884 797.481467,0.726182041 C796.368374,2.55943426 796.897271,5.30734551 796.060946,6.68476204 C794.947853,8.51801426 791.348574,8.99296711 790.526804,8.54181827 L790.526804,8.54181827" id="Path" fill="url(#linearGradient-2)"></path>
                <path d="M1471.53778,150.587017 C1471.74387,150.618055 1471.82725,150.741472 1471.92864,150.756742 C1472.23611,150.80305 1472.49235,150.512639 1472.52896,150.292858 C1472.60005,149.866086 1472.53598,149.633527 1472.57181,149.418396 C1472.86667,148.909699 1473.14021,148.50865 1473.60273,148.248115 C1474.62546,148.402143 1475.19607,149.37138 1475.80883,149.463665 C1475.80883,149.463665 1475.92823,149.370788 1475.94624,149.262642 C1475.06275,148.910248 1474.25203,148.127761 1474.41396,147.155605 C1474.66537,145.646206 1476.4598,144.924683 1477.08424,143.691992 L1478.48828,143.903449 C1478.05581,144.22096 1477.54479,144.650612 1477.40882,144.985361 C1477.40882,144.985361 1477.36786,145.088859 1477.46298,145.128218 C1477.85961,144.720674 1478.48832,144.249145 1478.85638,143.958886 L1479.02279,143.983949 C1478.98544,143.964019 1478.93869,143.94625 1478.89894,143.927152 C1479.04316,143.814171 1479.14189,143.730102 1479.15225,143.70186 C1479.19483,143.602183 1479.2369,143.498851 1479.13957,143.459161 C1479.13957,143.459161 1478.91422,143.598066 1478.62817,143.802929 C1478.11373,143.588367 1477.51831,143.425978 1477.0345,143.353113 C1476.9331,143.337843 1476.71101,143.416447 1476.50713,143.385741 C1475.99577,143.308726 1476.00246,142.644577 1476.09194,142.107334 C1476.34355,140.596772 1477.4918,141.875915 1477.65353,140.904923 C1477.69944,140.629324 1476.63919,140.585272 1476.24824,139.880308 C1476.34284,139.916012 1476.42341,139.717156 1476.466,139.617478 C1476.41054,139.475619 1476.41054,139.475619 1476.31633,139.437589 C1476.25441,139.409191 1476.17534,139.429468 1476.11723,139.473165 C1476.11599,139.467018 1476.11437,139.463198 1476.11514,139.458546 L1477.34455,138.982123 C1477.44704,138.997559 1477.46525,138.888249 1477.46525,138.888249 C1477.5191,138.564973 1477.16498,138.181447 1476.9589,138.150409 C1476.65252,138.104267 1476.39609,138.39584 1476.29469,138.38057 C1475.78333,138.303556 1475.76961,137.748385 1475.72187,137.411001 C1476.16638,137.258612 1476.6291,136.996913 1476.71916,136.456181 C1476.73698,136.349198 1476.75461,136.243377 1476.54962,136.212505 C1476.44713,136.197069 1476.12423,136.256913 1475.90143,136.333025 C1475.18618,136.225305 1474.62799,135.812235 1474.7537,135.057536 C1474.80754,134.734259 1476.10972,133.827741 1476.10972,133.827741 L1474.64488,133.825271 C1474.64158,133.824773 1474.63788,133.826601 1474.63549,133.827432 C1474.60594,133.645368 1474.45717,133.446542 1474.31368,133.385594 C1474.12143,133.305382 1473.71305,133.491822 1473.58802,133.794841 C1473.58744,133.798329 1473.59068,133.80597 1473.58971,133.811785 C1473.10187,133.518977 1472.50469,133.061892 1472.19778,132.795142 C1472.35971,131.822987 1473.18336,131.286646 1473.25522,130.855223 C1473.27343,130.745913 1473.18817,130.626982 1473.08678,130.611712 C1472.37264,130.504158 1472.10399,132.117052 1471.28625,131.993896 C1470.97877,131.947588 1470.70823,131.686315 1470.76188,131.364202 C1470.77447,131.288615 1470.83445,131.220166 1470.88241,131.115338 C1470.90018,131.123974 1470.91503,131.129787 1470.93629,131.137758 C1471.16691,131.116465 1471.16691,131.116465 1471.20768,131.01413 C1471.33051,130.710779 1470.47502,130.353066 1470.37789,130.312213 C1470.41464,130.403574 1470.41313,130.473677 1470.40546,130.533315 C1470.17907,130.685178 1469.85142,131.00417 1469.4712,130.946907 C1468.55318,130.808647 1468.67888,130.053947 1468.82202,129.19459 C1468.66458,129.502264 1468.40704,129.793672 1468.10067,129.74753 C1467.59041,129.670682 1467.3739,129.08497 1466.96504,129.023392 C1466.65866,128.97725 1466.58179,130.069499 1464.84603,129.808082 C1464.43826,129.74667 1464.46037,128.976369 1464.49582,128.763564 C1463.23597,128.791966 1463.56018,130.609776 1461.92691,130.363796 C1461.72302,130.33309 1461.45157,130.070489 1461.24879,130.039949 C1460.9887,130.000778 1460.82645,130.289847 1460.64524,130.624935 L1460.5756,130.595374 L1460.62485,130.665969 C1460.38233,131.118179 1460.10413,131.635346 1459.53106,131.549037 C1459.32497,131.517999 1459.15763,131.274655 1458.97105,131.13331 C1458.86441,131.217381 1458.75638,131.269058 1458.65036,131.301963 C1458.56939,131.089506 1458.45407,130.893333 1458.35785,130.853809 C1458.16689,130.772601 1458.07417,130.732411 1457.93517,130.793728 C1457.84574,131.018666 1457.86946,131.215349 1457.94619,131.385446 C1457.66249,131.420201 1457.39985,131.532034 1457.17847,132.006501 C1456.94122,131.898055 1456.82661,131.880793 1456.70734,132.176336 C1456.66456,132.277176 1456.67962,132.519045 1456.87298,132.599423 C1456.90339,132.613539 1456.93529,132.625496 1456.96608,132.637286 C1456.92284,132.815538 1456.88018,133.010569 1456.84125,133.244305 C1456.3354,133.16812 1455.74909,132.971343 1455.26145,132.78585 C1455.67025,132.461199 1456.03165,132.197354 1456.05475,132.140039 C1456.09423,132.038701 1456.1361,131.936532 1456.03988,131.897008 C1456.03988,131.897008 1454.55478,132.816506 1454.30913,133.423208 C1454.30913,133.423208 1454.26946,133.525709 1454.36347,133.564902 C1454.51188,133.413215 1454.69606,133.250228 1454.88406,133.091393 C1454.83262,133.610525 1455.58386,133.943001 1456.03003,134.336814 C1455.37663,135.119323 1454.50166,135.98409 1453.79961,136.427887 C1453.69712,136.412451 1453.61206,136.292357 1453.50957,136.276921 C1453.30568,136.246215 1453.08327,136.320001 1453.04685,136.53862 C1453.07768,136.984316 1453.37924,137.690121 1453.54781,137.939612 C1453.2045,138.108434 1452.32381,139.631535 1451.50608,139.508379 L1449.77031,139.246962 C1450.15987,139.417684 1451.47024,139.723509 1451.43422,139.939802 C1451.39858,140.153769 1451.25967,140.356952 1451.24204,140.462773 C1451.20602,140.679066 1451.29108,140.79916 1451.37426,140.923739 C1451.59635,140.845136 1451.81987,140.771516 1452.12625,140.817658 C1452.42601,140.862804 1452.7031,141.023739 1452.83593,141.325064 C1452.80165,141.354472 1452.77044,141.392683 1452.7505,141.444515 C1452.70734,141.547681 1452.80466,141.587371 1452.80466,141.587371 C1452.82904,141.597003 1452.86468,141.579722 1452.90245,141.54965 C1452.90975,141.600814 1452.91795,141.653307 1452.91986,141.709621 C1452.75852,142.678288 1451.97031,143.001825 1451.80839,143.97398 C1451.79076,144.079801 1451.85742,144.310367 1451.82159,144.525497 C1451.74973,144.95692 1451.25767,144.770762 1451.16761,145.311495 C1451.11395,145.633608 1451.4855,145.912476 1451.46787,146.018297 L1451.44967,146.127606 C1451.87674,146.079875 1452.38921,146.157055 1453.00086,146.249174 C1453.69198,147.125701 1453.99298,149.713647 1454.8048,150.4963 C1455.21257,150.557712 1455.40416,150.03823 1455.71054,150.084373 C1456.59422,150.435603 1456.74555,150.788589 1456.67369,151.220012 C1456.63728,151.438631 1456.49915,151.637162 1456.46351,151.851129 C1456.42729,152.068585 1456.51177,152.192167 1456.81704,152.238144 C1457.28125,151.974285 1457.3349,151.652172 1457.94545,151.744124 C1459.57982,151.990271 1458.39256,153.468393 1459.10781,153.576113 C1459.50676,153.636198 1459.83493,153.015697 1460.54401,152.828057 C1460.42899,152.881064 1460.33169,152.970117 1460.26936,153.120463 C1460.14563,153.422485 1460.39021,153.642895 1460.67849,153.763794 C1460.96365,153.883031 1461.37275,153.699084 1461.49467,153.394404 C1461.61769,153.08989 1461.56315,152.94936 1461.46712,152.908673 C1461.3414,152.856361 1461.19208,152.810033 1461.03837,152.783307 C1461.10087,152.78795 1461.15959,152.781298 1461.22792,152.791589 C1462.96258,153.05284 1461.60545,154.282468 1462.52569,154.42106 C1463.15717,154.516166 1462.85543,153.350208 1463.62503,153.20625 C1463.68474,153.322526 1463.77166,153.417868 1463.87195,153.432972 C1463.95571,153.445586 1464.05043,153.378794 1464.10129,153.236256 C1464.75259,153.402293 1465.22123,154.054586 1465.51108,154.098239 C1465.71496,154.128945 1466.24954,153.435823 1466.3212,153.005563 C1466.83146,153.082412 1467.02885,153.776104 1467.43882,153.837848 C1467.66072,153.760407 1467.67893,153.651098 1467.69694,153.542952 C1467.75059,153.220838 1467.56433,153.084311 1467.63619,152.652888 C1467.65421,152.544742 1468.66731,151.481443 1469.68893,151.635306 C1469.79142,151.650742 1469.95967,151.895415 1470.00663,152.23745 C1469.97118,152.450255 1470.22391,152.81851 1470.42889,152.849383 C1470.64949,152.772939 1470.76961,152.682554 1470.78782,152.573245 C1470.85949,152.142985 1470.52487,151.649153 1470.57872,151.325876 C1470.65039,150.895616 1471.335,150.556477 1471.53778,150.587017 L1471.53778,150.587017" id="Path" fill="#B35EFF"></path>
                <path d="M484.393091,277.2571 C486.311509,277.546025 487.087648,278.694879 488.031469,278.837024 C490.893709,279.268094 493.278987,276.564734 493.61976,274.518842 C494.281473,270.546132 493.685078,268.38129 494.018639,266.378698 C496.763405,261.643361 499.309713,257.910097 503.615213,255.484837 C513.135494,256.918648 518.447229,265.941038 524.151191,266.800089 C524.151191,266.800089 525.262693,265.935526 525.430375,264.928817 C517.206192,261.648473 509.659388,254.36449 511.166723,245.314938 C513.507059,231.264318 530.210905,224.547839 536.02374,213.073027 L549.093608,215.041428 C545.067836,217.997057 540.310827,221.99658 539.04514,225.112678 C539.04514,225.112678 538.663823,226.076116 539.549263,226.442492 C543.241398,222.648773 549.093934,218.259424 552.520088,215.557476 L554.069186,215.79078 C553.721501,215.60526 553.286335,215.439854 552.91633,215.262069 C554.258813,214.210365 555.177884,213.427784 555.274254,213.164889 C555.670679,212.237016 556.062254,211.275123 555.156297,210.905657 C555.156297,210.905657 553.05851,212.198691 550.39574,214.105707 C545.606993,212.10841 540.064311,210.59677 535.560644,209.918491 C534.616823,209.776346 532.549437,210.508044 530.651537,210.222208 C525.891396,209.505302 525.953667,203.322906 526.786668,198.321838 C529.128807,184.260393 539.817595,196.167621 541.323127,187.128894 C541.750445,184.563411 531.880869,184.153341 528.241597,177.591012 C529.122187,177.923369 529.872198,176.072268 530.268623,175.144395 C529.752438,173.823861 529.752438,173.823861 528.875454,173.469854 C528.299027,173.205499 527.562997,173.39425 527.022012,173.801015 C527.010509,173.743801 526.9954,173.708236 527.002613,173.664937 L538.446879,169.230027 C539.400959,169.373717 539.570444,168.356184 539.570444,168.356184 C540.071687,165.346883 536.775325,161.776737 534.856906,161.487811 C532.004926,161.058286 529.617844,163.772471 528.674023,163.630326 C523.913883,162.91342 523.786151,157.745467 523.34177,154.604846 C527.479588,153.186295 531.786892,150.75021 532.625301,145.716667 C532.79118,144.720783 532.955256,143.735724 531.047097,143.448344 C530.093017,143.304654 527.087219,143.861732 525.013181,144.570236 C518.355139,143.567494 513.159074,139.722337 514.329242,132.697027 C514.830485,129.687727 526.952132,121.249178 526.952132,121.249178 L513.316354,121.226183 C513.285577,121.221548 513.251194,121.238562 513.228873,121.246297 C512.953802,119.55151 511.568964,117.700682 510.233251,117.133336 C508.443657,116.386668 504.642146,118.122183 503.478239,120.942911 C503.47283,120.975386 503.503047,121.046515 503.494032,121.100639 C498.952801,118.37497 493.393817,114.120071 490.536853,111.636967 C492.044188,102.587415 499.711367,97.5947494 500.380292,93.5787402 C500.549777,92.5612069 499.756167,91.4541075 498.812346,91.3119623 C492.164564,90.3107661 489.663759,105.324795 482.051638,104.178364 C479.189398,103.747293 476.670979,101.315176 477.170419,98.3166997 C477.287616,97.6130862 477.845946,96.9759101 478.292422,96.0000933 C478.457809,96.0804833 478.596025,96.1345886 478.793991,96.208789 C480.940777,96.0105785 480.940777,96.0105785 481.32029,95.0579659 C482.46368,92.2341473 474.500135,88.9042861 473.59598,88.5239949 C473.938073,89.3744547 473.924024,90.0270247 473.852587,90.5821808 C471.745226,91.9958332 468.695171,94.9652549 465.155842,94.4322106 C456.610159,93.1451791 457.780327,86.1198692 459.112768,78.1203252 C457.647186,80.9843907 455.249846,83.6970312 452.397865,83.2675057 C447.647984,82.5521449 445.63261,77.0999016 441.826549,76.5266859 C438.974569,76.0971604 438.259041,86.2646364 422.101237,83.8311735 C418.305436,83.2595029 418.511265,76.0889577 418.84122,74.1080151 C407.113601,74.3724007 410.131604,91.2939435 394.92788,89.0041708 C393.02998,88.7183355 390.503104,86.2738479 388.615462,85.9895576 C386.194356,85.6249245 384.684008,88.3158022 382.997146,91.4350471 L382.348905,91.1598763 L382.807326,91.8170249 C380.549763,96.0265339 377.960124,100.840716 372.625484,100.037287 C370.707065,99.7483618 369.149378,97.483129 367.412507,96.1673905 C366.41982,96.949981 365.414262,97.431031 364.427294,97.7373388 C363.673534,95.7596278 362.60007,93.9335021 361.704372,93.5655807 C359.92684,92.8096334 359.063721,92.4355224 357.769795,93.0062988 C356.937278,95.1001908 357.158133,96.9310648 357.87241,98.5144565 C355.231518,98.8379862 352.786605,99.8790066 350.725889,104.295704 C348.517358,103.286207 347.45043,103.125521 346.340179,105.876656 C345.941951,106.815354 346.082229,109.066851 347.882081,109.815064 C348.165166,109.946469 348.462115,110.05777 348.748806,110.167525 C348.346229,111.826832 347.949186,113.642322 347.586777,115.818111 C342.877931,115.10893 337.420117,113.277181 332.880756,111.550467 C336.686241,108.528372 340.050408,106.072305 340.265469,105.53878 C340.632921,104.595447 341.022693,103.644379 340.126994,103.276458 C340.126994,103.276458 326.302617,111.835842 324.015837,117.483479 C324.015837,117.483479 323.646583,118.437637 324.521763,118.802468 C325.903229,117.390455 327.617704,115.873246 329.367806,114.394692 C328.888893,119.22716 335.882006,122.322098 340.035267,125.988009 C333.952945,133.272192 325.808087,141.322093 319.272928,145.453285 C318.318848,145.309595 317.527041,144.191671 316.572962,144.047981 C314.675061,143.762145 312.604628,144.448999 312.265658,146.484066 C312.552616,150.63294 315.359797,157.203108 316.928987,159.525555 C313.733186,161.097076 305.535073,175.275249 297.922952,174.128818 L281.765148,171.695355 C285.391465,173.284559 297.589391,176.13141 297.254027,178.144827 C296.922269,180.136594 295.629219,182.027971 295.465143,183.01303 C295.129779,185.026447 295.921586,186.144371 296.695922,187.304049 C298.763308,186.572351 300.844,185.887043 303.69598,186.316568 C306.486407,186.736824 309.065754,188.234926 310.302184,191.039883 C309.983164,191.313631 309.692559,191.669334 309.50703,192.151825 C309.105196,193.112173 310.011153,193.481639 310.011153,193.481639 C310.238093,193.571299 310.56986,193.410434 310.921459,193.130496 C310.989357,193.60677 311.065711,194.095413 311.083557,194.61963 C309.581632,203.636707 302.244407,206.64843 300.737072,215.697982 C300.572996,216.683041 301.193515,218.829323 300.859954,220.831916 C300.191029,224.847925 295.610633,223.115031 294.772223,228.148573 C294.272783,231.147049 297.731418,233.742962 297.567342,234.72802 L297.397857,235.745554 C301.373402,235.301236 306.143802,236.019687 311.837504,236.877193 C318.271001,245.036565 321.072916,269.127108 328.629978,276.412636 C332.42578,276.984307 334.209254,272.148578 337.061235,272.578104 C345.287222,275.847623 346.695942,279.133479 346.027017,283.149488 C345.688047,285.184555 344.402209,287.032632 344.070451,289.0244 C343.733284,291.048641 344.519682,292.19904 347.361404,292.627021 C351.682572,290.170831 352.182012,287.172355 357.865455,288.028316 C373.079438,290.319634 362.027541,304.079106 368.685582,305.081847 C372.399312,305.641157 375.454142,299.865073 382.054844,298.118375 C380.984127,298.611805 380.078361,299.440775 379.498211,300.840315 C378.346365,303.651763 380.62317,305.703505 383.306659,306.828919 C385.961174,307.938872 389.769338,306.226553 390.904272,303.390364 C392.049464,300.555721 391.541735,299.247557 390.64784,298.86881 C389.477513,298.381854 388.087583,297.950594 386.656743,297.701812 C387.238455,297.745036 387.7851,297.683111 388.421153,297.778905 C404.568698,300.210822 391.935549,311.657127 400.501749,312.947249 C406.380112,313.832566 403.571295,302.978953 410.735245,301.638878 C411.291097,302.721266 412.10025,303.608779 413.033812,303.749379 C413.81349,303.866804 414.695256,303.24505 415.168653,301.918203 C421.231492,303.463797 425.593922,309.535834 428.292019,309.942184 C430.18992,310.228019 435.166148,303.775925 435.83327,299.77074 C440.583151,300.486101 442.420584,306.943508 446.236904,307.518269 C448.302486,306.797395 448.471971,305.779862 448.639653,304.773154 C449.139093,301.774678 447.405268,300.503783 448.074193,296.487774 C448.241875,295.481066 457.672571,285.583088 467.182592,287.015355 C468.136672,287.159045 469.702815,289.436647 470.139984,292.620568 C469.810029,294.60151 472.16257,298.029512 474.070729,298.316892 C476.12425,297.605299 477.242406,296.76393 477.411891,295.746397 C478.079013,291.741212 474.964198,287.144253 475.465441,284.134952 C476.132563,280.129768 482.505449,276.972809 484.393091,277.2571 L484.393091,277.2571" id="Path" fill="url(#linearGradient-1)"></path>
                <path d="M504.469888,302.15124 C504.399054,302.107499 504.390896,302.046898 504.356047,302.025378 C504.250365,301.960118 504.101457,302.033062 504.047215,302.112485 C503.941888,302.266709 503.92269,302.366578 503.869596,302.44432 C503.665975,302.5958 503.490182,302.7089 503.270153,302.738523 C502.918636,302.521456 502.885843,302.058494 502.675236,301.928441 C502.675236,301.928441 502.613696,301.946002 502.587006,301.985084 C502.85011,302.257485 503.006647,302.685138 502.766719,303.03645 C502.3942,303.581907 501.594054,303.584886 501.134098,303.965821 L500.651519,303.667822 C500.870918,303.611521 501.14024,303.523914 501.252659,303.415293 C501.252659,303.415293 501.287017,303.381544 501.258952,303.351668 C501.036223,303.44833 500.715429,303.534026 500.525003,303.589696 L500.467806,303.554376 C500.477999,303.56784 500.492082,303.581914 500.50332,303.595425 C500.428843,303.616947 500.376614,303.634283 500.367545,303.643619 C500.33329,303.675639 500.298553,303.709154 500.327375,303.739499 C500.327375,303.739499 500.436793,303.720435 500.580958,303.685189 C500.732424,303.847429 500.923631,304.001946 501.08992,304.104632 C501.124768,304.126152 501.221822,304.129923 501.291898,304.173196 C501.467657,304.28173 501.342362,304.537737 501.209771,304.731883 C500.836965,305.277761 500.646854,304.605929 500.407213,304.95682 C500.339196,305.056414 500.724991,305.236696 500.739895,305.569719 C500.711349,305.541337 500.644641,305.605893 500.610387,305.637914 C500.604759,305.701353 500.604759,305.701353 500.632731,305.730575 C500.650488,305.7511 500.683616,305.755425 500.713289,305.747461 C500.712612,305.75003 500.712508,305.751758 500.71136,305.753439 L500.16647,305.748548 C500.131242,305.726794 500.104265,305.766296 500.104265,305.766296 C500.02448,305.88312 500.085135,306.086069 500.155969,306.12981 C500.261273,306.194837 500.410467,306.121472 500.445316,306.142992 C500.621075,306.251525 500.523515,306.468499 500.478867,306.606422 C500.285528,306.596964 500.065213,306.627008 499.93176,306.822415 C499.905357,306.861076 499.87924,306.899317 499.949695,306.942824 C499.984923,306.964577 500.115964,306.991129 500.212823,306.995975 C500.458657,307.147781 500.589675,307.393584 500.403416,307.666313 C500.323631,307.783136 499.672174,307.933496 499.672174,307.933496 L500.215985,308.159973 C500.217121,308.160675 500.218832,308.160536 500.219876,308.160583 C500.19719,308.235595 500.2157,308.335448 500.257744,308.381127 C500.314344,308.441768 500.500554,308.432486 500.603043,308.334462 C500.603904,308.333201 500.604111,308.329744 500.605546,308.327643 C500.732664,308.516072 500.870028,308.784912 500.934738,308.9354 C500.694811,309.286711 500.289602,309.367478 500.183127,309.523383 C500.15615,309.562885 500.165835,309.622039 500.200683,309.643558 C500.446139,309.795131 500.844201,309.212273 501.125263,309.385833 C501.230945,309.451093 501.283155,309.593862 501.203658,309.710266 C501.185003,309.737581 501.15006,309.754837 501.112855,309.788023 C501.107851,309.781946 501.103409,309.77741 501.096981,309.771051 C501.007356,309.743787 501.007356,309.743787 500.973284,309.777115 C500.871553,309.875607 501.12327,310.145757 501.151805,310.176522 C501.155044,310.135505 501.168568,310.108607 501.182447,310.086707 C501.294643,310.062787 501.47537,309.989776 501.606053,310.070474 C501.921585,310.26532 501.735325,310.538049 501.523236,310.848598 C501.638627,310.753762 501.788201,310.680631 501.893504,310.745658 C502.068884,310.853957 502.041022,311.11397 502.181553,311.20075 C502.286857,311.265777 502.517387,310.854891 503.113981,311.223297 C503.254133,311.309843 503.10348,311.604559 503.05096,311.681461 C503.524316,311.864431 503.739987,311.110992 504.301354,311.457644 C504.37143,311.500917 504.423732,311.64434 504.493429,311.687379 C504.582823,311.742582 504.696561,311.655686 504.825853,311.5539 L504.846261,311.576062 L504.841017,311.541159 C505.014746,311.403483 505.213741,311.24616 505.410712,311.367793 C505.481545,311.411533 505.498723,311.531475 505.541913,311.614903 C505.597081,311.598785 505.646774,311.595415 505.692253,311.599004 C505.683053,311.693695 505.689625,311.787371 505.718068,311.817482 C505.774002,311.878309 505.801021,311.908138 505.864006,311.905808 C505.938829,311.832522 505.966383,311.752749 505.969326,311.675105 C506.081163,311.705332 506.19943,311.702487 506.369417,311.552942 C506.437517,311.631439 506.476911,311.655766 506.575875,311.559748 C506.610417,311.527307 506.649542,311.431379 506.592564,311.370504 C506.583876,311.360359 506.574234,311.35082 506.564971,311.341516 C506.614001,311.279187 506.665912,311.210274 506.723598,311.125807 C506.897462,311.233171 507.078923,311.399594 507.22581,311.54646 C507.013883,311.609167 506.830816,311.65564 506.811634,311.674264 C506.778228,311.707407 506.743779,311.740502 506.772222,311.770612 C506.772222,311.770612 507.494043,311.64339 507.697505,311.446407 C507.697505,311.446407 507.731197,311.412844 507.703512,311.383201 C507.620323,311.419059 507.521752,311.453782 507.422527,311.486309 C507.537636,311.293317 507.319987,311.048984 507.227031,310.827881 C507.6145,310.625631 508.099505,310.425658 508.442416,310.361985 C508.477644,310.383739 508.487042,310.443313 508.522269,310.465066 C508.592346,310.50834 508.68863,310.514026 508.742585,310.435023 C508.813546,310.257784 508.832009,309.938197 508.815509,309.815687 C508.974286,309.803205 509.58315,309.349326 509.864212,309.522886 L510.460806,309.891292 C510.347632,309.765244 509.917306,309.445144 509.970687,309.366981 C510.023494,309.289659 510.112677,309.232409 510.138793,309.194168 C510.192174,309.116006 510.182776,309.056432 510.174905,308.995411 C510.077851,308.991639 509.981188,308.985719 509.875884,308.920692 C509.772854,308.857069 509.699658,308.752125 509.706025,308.615058 C509.724197,308.608953 509.742862,308.59897 509.759851,308.581979 C509.794967,308.548698 509.766145,308.518353 509.766145,308.518353 C509.758868,308.510872 509.74243,308.512073 509.722836,308.517897 C509.729586,308.496972 509.736245,308.475394 509.745946,308.453304 C509.985013,308.103253 510.337701,308.099389 510.577629,307.748077 C510.603745,307.709836 510.621612,307.61034 510.674706,307.532598 C510.781181,307.376693 510.929583,307.524494 511.063035,307.329087 C511.142533,307.212684 511.056049,307.047555 511.082165,307.009314 L511.109143,306.969812 C510.941634,306.922534 510.765497,306.813766 510.555268,306.683947 C510.460557,306.238313 510.827261,305.190391 510.670345,304.762504 C510.530193,304.675958 510.362948,304.84751 510.257644,304.782484 C509.994253,304.510502 510.003296,304.350592 510.109771,304.194687 C510.163726,304.115683 510.25176,304.060115 510.304567,303.982793 C510.358235,303.90421 510.349698,303.843375 510.244773,303.778582 C510.023505,303.809233 509.944008,303.925636 509.734158,303.796051 C509.172412,303.449165 509.886867,303.059892 509.641032,302.908085 C509.50391,302.82341 509.26724,303.013031 508.969078,302.976483 C509.021617,302.973677 509.074237,302.954192 509.125195,302.9056 C509.227018,302.807763 509.176896,302.684804 509.092141,302.593632 C509.008235,302.503583 508.82222,302.51179 508.720581,302.610936 C508.618562,302.709848 508.612843,302.772633 508.640999,302.803164 C508.678039,302.842766 508.724951,302.883684 508.77712,302.917691 C508.75476,302.906273 508.731711,302.899807 508.708226,302.885305 C508.11201,302.517133 508.843631,302.250184 508.527341,302.05487 C508.310294,301.920841 508.206808,302.418542 507.894242,302.355772 C507.893556,302.301578 507.878889,302.251297 507.844419,302.230011 C507.815631,302.212234 507.768085,302.2235 507.722833,302.270835 C507.511538,302.106303 507.45803,301.781704 507.358408,301.720186 C507.288332,301.676913 506.961542,301.862862 506.855354,302.018347 C506.679974,301.910047 506.734905,301.611187 506.593995,301.524173 C506.497228,301.519981 506.470251,301.559483 506.44356,301.598564 C506.364063,301.714968 506.408022,301.796482 506.301547,301.952387 C506.274857,301.991468 505.701818,302.24701 505.350679,302.030177 C505.315452,302.008423 505.298183,301.887828 505.34398,301.748224 C505.3965,301.671322 505.370694,301.489892 505.300239,301.446385 C505.204138,301.442007 505.142794,301.458494 505.115816,301.497996 C505.009628,301.653481 505.04264,301.896118 504.962855,302.012942 C504.856667,302.168427 504.539585,302.194279 504.469888,302.15124 L504.469888,302.15124" id="Path-Copy" fill="#B35EFF"></path>
                <path d="M1270.99924,176.74024 C1270.92841,176.696499 1270.92025,176.635898 1270.8854,176.614379 C1270.77972,176.549118 1270.63081,176.622062 1270.57657,176.701486 C1270.47124,176.85571 1270.45205,176.955578 1270.39895,177.033321 C1270.19533,177.1848 1270.01954,177.2979 1269.79951,177.327524 C1269.44799,177.110457 1269.4152,176.647494 1269.20459,176.517441 C1269.20459,176.517441 1269.14305,176.535003 1269.11636,176.574084 C1269.37947,176.846486 1269.536,177.274139 1269.29608,177.62545 C1268.92356,178.170908 1268.12341,178.173886 1267.66345,178.554821 L1267.18088,178.256822 C1267.40027,178.200522 1267.6696,178.112915 1267.78201,178.004294 C1267.78201,178.004294 1267.81637,177.970545 1267.78831,177.940668 C1267.56558,178.037331 1267.24479,178.123026 1267.05436,178.178697 L1266.99716,178.143377 C1267.00735,178.15684 1267.02144,178.170914 1267.03268,178.184425 C1266.9582,178.205947 1266.90597,178.223283 1266.8969,178.232619 C1266.86265,178.26464 1266.82791,178.298155 1266.85673,178.328499 C1266.85673,178.328499 1266.96615,178.309436 1267.11031,178.27419 C1267.26178,178.436429 1267.45299,178.590947 1267.61928,178.693633 C1267.65412,178.715152 1267.75118,178.718924 1267.82125,178.762197 C1267.99701,178.87073 1267.87172,179.126738 1267.73913,179.320884 C1267.36632,179.866761 1267.17621,179.194929 1266.93657,179.545821 C1266.86855,179.645415 1267.25435,179.825696 1267.26925,180.158719 C1267.2407,180.130337 1267.174,180.194894 1267.13974,180.226914 C1267.13411,180.290353 1267.13411,180.290353 1267.16209,180.319576 C1267.17984,180.3401 1267.21297,180.344426 1267.24264,180.336461 C1267.24197,180.33903 1267.24186,180.340759 1267.24072,180.34244 L1266.69583,180.337548 C1266.6606,180.315795 1266.63362,180.355296 1266.63362,180.355296 C1266.55384,180.47212 1266.61449,180.67507 1266.68532,180.718811 C1266.79063,180.783837 1266.93982,180.710473 1266.97467,180.731992 C1267.15043,180.840526 1267.05287,181.0575 1267.00822,181.195423 C1266.81488,181.185965 1266.59457,181.216009 1266.46112,181.411415 C1266.43471,181.450076 1266.4086,181.488317 1266.47905,181.531824 C1266.51428,181.553578 1266.64532,181.580129 1266.74218,181.584975 C1266.98801,181.736782 1267.11903,181.982584 1266.93277,182.255313 C1266.85299,182.372137 1266.20153,182.522496 1266.20153,182.522496 L1266.74534,182.748973 C1266.74648,182.749675 1266.74819,182.749536 1266.74923,182.749584 C1266.72655,182.824595 1266.74506,182.924448 1266.7871,182.970128 C1266.8437,183.030769 1267.02991,183.021486 1267.1324,182.923463 C1267.13326,182.922202 1267.13347,182.918745 1267.1349,182.916644 C1267.26202,183.105072 1267.39938,183.373912 1267.46409,183.5244 C1267.22417,183.875712 1266.81896,183.956478 1266.71248,184.112384 C1266.68551,184.151885 1266.69519,184.211039 1266.73004,184.232559 C1266.9755,184.384131 1267.37356,183.801273 1267.65462,183.974833 C1267.7603,184.040094 1267.81251,184.182863 1267.73301,184.299266 C1267.71436,184.326581 1267.67942,184.343838 1267.64221,184.377024 C1267.63721,184.370946 1267.63276,184.366411 1267.62634,184.360052 C1267.53671,184.332787 1267.53671,184.332787 1267.50264,184.366116 C1267.40091,184.464608 1267.65263,184.734757 1267.68116,184.765522 C1267.6844,184.724506 1267.69792,184.697607 1267.7118,184.675707 C1267.824,184.651787 1268.00473,184.578776 1268.13541,184.659475 C1268.45094,184.85432 1268.26468,185.127049 1268.05259,185.437599 C1268.16798,185.342762 1268.31756,185.269632 1268.42286,185.334658 C1268.59824,185.442958 1268.57038,185.702971 1268.71091,185.789751 C1268.81621,185.854777 1269.04674,185.443892 1269.64334,185.812297 C1269.78349,185.898843 1269.63284,186.19356 1269.58032,186.270462 C1270.05367,186.453432 1270.26934,185.699992 1270.83071,186.046645 C1270.90079,186.089918 1270.95309,186.233341 1271.02279,186.27638 C1271.11218,186.331582 1271.22592,186.244687 1271.35521,186.142901 L1271.37562,186.165063 L1271.37037,186.130159 C1271.5441,185.992484 1271.7431,185.835161 1271.94007,185.956793 C1272.0109,186.000534 1272.02808,186.120475 1272.07127,186.203904 C1272.12644,186.187785 1272.17613,186.184416 1272.22161,186.188004 C1272.21241,186.282695 1272.21898,186.376372 1272.24742,186.406482 C1272.30336,186.46731 1272.33038,186.497139 1272.39336,186.494808 C1272.46819,186.421522 1272.49574,186.34175 1272.49868,186.264106 C1272.61052,186.294332 1272.72879,186.291488 1272.89877,186.141942 C1272.96687,186.22044 1273.00627,186.244766 1273.10523,186.148748 C1273.13977,186.116307 1273.1789,186.02038 1273.12192,185.959505 C1273.11323,185.94936 1273.10359,185.939821 1273.09433,185.930516 C1273.14336,185.868188 1273.19527,185.799274 1273.25295,185.714808 C1273.42682,185.822172 1273.60828,185.988595 1273.75517,186.13546 C1273.54324,186.198167 1273.36017,186.24464 1273.34099,186.263265 C1273.30758,186.296407 1273.27313,186.329502 1273.30158,186.359613 C1273.30158,186.359613 1274.0234,186.232391 1274.22686,186.035407 C1274.22686,186.035407 1274.26055,186.001845 1274.23287,185.972202 C1274.14968,186.008059 1274.05111,186.042783 1273.95188,186.07531 C1274.06699,185.882317 1273.84934,185.637985 1273.75639,185.416881 C1274.14386,185.214631 1274.62886,185.014658 1274.97177,184.950986 C1275.007,184.972739 1275.0164,185.032313 1275.05163,185.054067 C1275.1217,185.09734 1275.21799,185.103026 1275.27194,185.024023 C1275.3429,184.846785 1275.36137,184.527198 1275.34487,184.404688 C1275.50364,184.392206 1276.11251,183.938327 1276.39357,184.111887 L1276.99016,184.480292 C1276.87699,184.354245 1276.44666,184.034144 1276.50004,183.955982 C1276.55285,183.878659 1276.64203,183.82141 1276.66815,183.783169 C1276.72153,183.705006 1276.71213,183.645432 1276.70426,183.584411 C1276.60721,183.580639 1276.51054,183.574719 1276.40524,183.509693 C1276.30221,183.44607 1276.22901,183.341125 1276.23538,183.204058 C1276.25355,183.197953 1276.27222,183.187971 1276.28921,183.170979 C1276.32432,183.137698 1276.2955,183.107354 1276.2955,183.107354 C1276.28822,183.099873 1276.27179,183.101074 1276.25219,183.106897 C1276.25894,183.085973 1276.2656,183.064394 1276.2753,183.042305 C1276.51437,182.692254 1276.86706,182.688389 1277.10698,182.337077 C1277.1331,182.298836 1277.15097,182.199341 1277.20406,182.121598 C1277.31054,181.965693 1277.45894,182.113494 1277.59239,181.918088 C1277.67189,181.801684 1277.5854,181.636555 1277.61152,181.598314 L1277.6385,181.558813 C1277.47099,181.511534 1277.29485,181.402767 1277.08462,181.272948 C1276.98991,180.827313 1277.35662,179.779391 1277.1997,179.351505 C1277.05955,179.264959 1276.8923,179.436511 1276.787,179.371484 C1276.52361,179.099503 1276.53265,178.939592 1276.63913,178.783687 C1276.69308,178.704684 1276.78112,178.649115 1276.83392,178.571793 C1276.88759,178.49321 1276.87905,178.432375 1276.77413,178.367583 C1276.55286,178.398233 1276.47336,178.514637 1276.26351,178.385051 C1275.70177,178.038165 1276.41622,177.648892 1276.17039,177.497086 C1276.03327,177.412411 1275.7966,177.602032 1275.49843,177.565483 C1275.55097,177.562677 1275.60359,177.543193 1275.65455,177.494601 C1275.75637,177.396763 1275.70625,177.273805 1275.6215,177.182633 C1275.53759,177.092583 1275.35158,177.100791 1275.24994,177.199937 C1275.14792,177.298849 1275.1422,177.361634 1275.17035,177.392165 C1275.20739,177.431766 1275.25431,177.472684 1275.30648,177.506692 C1275.28412,177.495274 1275.26107,177.488808 1275.23758,177.474305 C1274.64137,177.106133 1275.37299,176.839184 1275.0567,176.643871 C1274.83965,176.509841 1274.73616,177.007542 1274.4236,176.944773 C1274.42291,176.890579 1274.40824,176.840297 1274.37378,176.819012 C1274.34499,176.801234 1274.29744,176.812501 1274.25219,176.859836 C1274.04089,176.695304 1273.98739,176.370705 1273.88776,176.309187 C1273.81769,176.265914 1273.4909,176.451863 1273.38471,176.607348 C1273.20933,176.499048 1273.26426,176.200188 1273.12335,176.113174 C1273.02658,176.108982 1272.99961,176.148483 1272.97292,176.187565 C1272.89342,176.303968 1272.93738,176.385482 1272.8309,176.541387 C1272.80421,176.580469 1272.23117,176.83601 1271.88004,176.619177 C1271.84481,176.597424 1271.82754,176.476828 1271.87334,176.337224 C1271.92586,176.260323 1271.90005,176.078892 1271.82959,176.035386 C1271.73349,176.031007 1271.67215,176.047495 1271.64517,176.086996 C1271.53898,176.242481 1271.572,176.485119 1271.49221,176.601942 C1271.38602,176.757427 1271.06894,176.783279 1270.99924,176.74024 L1270.99924,176.74024" id="Path-Copy" fill="#B35EFF"></path>
                <path d="M732.009133,137.252003 C731.700655,137.401461 731.67862,137.838575 731.802845,138.070406 C732.044063,138.520574 732.267588,138.701203 732.389183,138.928127 C732.488505,139.596916 732.530017,140.150023 732.301882,140.688539 C731.275831,141.185663 730.072325,140.62387 729.457579,140.921716 C729.457579,140.921716 729.416985,141.085075 729.478111,141.19915 C730.521168,140.978079 731.806311,141.211391 732.35579,142.236843 C733.208928,143.828991 732.117192,145.643435 732.438536,147.207402 L731.029926,147.889876 C731.190444,147.316139 731.341204,146.586442 731.223839,146.182876 C731.223839,146.182876 731.186589,146.058777 731.073277,146.081231 C731.009181,146.717952 730.782929,147.561478 730.660636,148.068798 L730.493682,148.149688 C730.541373,148.145122 730.595937,148.132591 730.645182,148.125727 C730.596726,148.323797 730.568355,148.465783 730.579258,148.499127 C730.612325,148.620617 730.64847,148.745251 730.763993,148.721726 C730.763993,148.721726 730.866602,148.447978 730.976451,148.073381 C731.590493,147.953559 732.239805,147.733216 732.725189,147.498046 C732.82691,147.448762 732.969673,147.234357 733.17422,147.135253 C733.687246,146.886691 734.155724,147.521859 734.459383,148.088556 C735.313179,149.681931 733.370912,149.189142 733.919734,150.213367 C734.075507,150.504075 735.056599,149.878863 735.910387,150.302627 C735.800153,150.328224 735.870052,150.567835 735.903119,150.689324 C736.05413,150.789207 736.05413,150.789207 736.165679,150.766062 C736.241429,150.754082 736.297762,150.685072 736.318596,150.606995 C736.324094,150.612056 735.570131,151.84568 735.570131,151.84568 C735.467305,151.8955 735.529089,152.010802 735.529089,152.010802 C735.71181,152.351801 736.302968,152.493367 736.509726,152.393192 C736.817099,152.244269 736.838476,151.805929 736.940197,151.756645 C737.453223,151.508083 737.862129,152.026878 738.145913,152.317367 C737.856652,152.741807 737.629174,153.281549 737.934805,153.851925 C737.995274,153.964774 738.055086,154.076396 738.260739,153.976757 C738.363565,153.926938 738.610021,153.666928 738.755204,153.45444 C739.472777,153.106775 740.267824,153.148011 740.694394,153.944085 C740.877115,154.285085 740.358425,155.965577 740.358425,155.965577 L741.672184,155.046311 C741.83559,155.19272 742.110878,155.288012 742.282937,155.255636 C742.51243,155.210884 742.745007,154.776826 742.640518,154.410284 C743.273019,154.366497 744.134431,154.425021 744.599886,154.485344 C745.149365,155.510796 744.794816,156.538543 745.038663,156.993617 C745.100447,157.108919 745.26177,157.168269 745.363491,157.118985 C746.079958,156.771855 745.168322,155.070538 745.988721,154.673053 C746.2972,154.523594 746.726168,154.601595 746.908233,154.941368 C746.950955,155.021098 746.946134,155.123863 746.978065,155.253629 C746.722444,155.431555 746.722444,155.431555 746.759037,155.554427 C746.865738,155.919898 747.887518,155.721496 748.003698,155.699198 C747.905514,155.635523 747.856784,155.567974 747.821052,155.506488 C747.915325,155.219782 747.980903,154.710584 748.362355,154.52577 C749.283369,154.079536 749.709938,154.875611 750.195662,155.78208 C750.116873,155.390726 750.139355,154.951849 750.446728,154.802926 C750.958648,154.5549 751.570996,154.975127 751.981195,154.776385 C752.288568,154.627462 751.577108,153.541434 753.318521,152.697716 C753.727615,152.499509 754.258116,153.245228 754.378397,153.469699 C755.486503,152.650072 753.897471,151.127083 755.536057,150.333184 C755.740604,150.234081 756.171336,150.312773 756.374777,150.214205 C756.635712,150.087781 756.574521,149.711076 756.497439,149.278723 C756.380544,148.644714 756.260246,147.978363 756.835188,147.699802 C757.041946,147.599627 757.365668,147.72553 757.633762,147.74242 C757.669215,147.595457 757.729048,147.478399 757.800504,147.380431 C758.024808,147.531326 758.26824,147.645142 758.382658,147.622153 C758.611702,147.579164 758.72346,147.559008 758.804154,147.413302 C758.72356,147.143337 758.561799,146.97141 758.371555,146.858089 C758.600825,146.646579 758.756173,146.375088 758.615489,145.785052 C758.905461,145.738809 759.02045,145.683097 758.916138,145.327284 C758.882414,145.204567 758.696125,144.984266 758.465527,145.029554 C758.428204,145.035276 758.391091,145.043987 758.355083,145.052162 C758.266474,144.855608 758.165346,144.643489 758.033235,144.396939 C758.540732,144.151055 759.206445,143.969117 759.775726,143.838536 C759.641505,144.404167 759.506306,144.882204 759.526559,144.95119 C759.5636,145.072299 759.599088,145.195707 759.713505,145.172717 C759.713505,145.172717 760.386753,143.364809 760.173351,142.633867 C760.173351,142.633867 760.135653,142.511531 760.023446,142.533449 C759.998891,142.770925 759.950368,143.041645 759.89545,143.310828 C759.570661,142.78527 758.660283,142.942059 757.979327,142.848635 C758.005523,141.694139 758.171405,140.322093 758.483149,139.458777 C758.585976,139.408958 758.747956,139.469533 758.850783,139.419714 C759.05533,139.320611 759.201828,139.110576 759.078261,138.879972 C758.732244,138.475943 757.957916,137.99514 757.628696,137.864175 C757.81558,137.487793 757.51627,135.486712 758.336669,135.089227 L760.078082,134.245509 C759.607204,134.328413 758.215074,134.862303 758.092821,134.634152 C757.971883,134.408455 757.951143,134.128031 757.891331,134.016409 C757.769078,133.788258 757.607098,133.727682 757.443594,133.661664 C757.30083,133.87607 757.153226,134.08664 756.845853,134.235563 C756.545114,134.381272 756.181965,134.402712 755.847732,134.200013 C755.857418,134.150513 755.858081,134.094569 755.838903,134.032788 C755.803864,133.907618 755.688341,133.931143 755.688341,133.931143 C755.659624,133.937331 755.640048,133.976172 755.627702,134.028506 C755.584618,133.984487 755.53977,133.939778 755.497822,133.887484 C754.950315,132.865713 755.425145,132.062437 754.875666,131.036985 C754.815854,130.925363 754.591433,130.748258 754.469838,130.521334 C754.22599,130.06626 754.799693,129.933535 754.494062,129.363158 C754.311998,129.023386 753.779994,128.992215 753.720183,128.880593 L753.658399,128.765291 C753.309983,129.079336 752.795852,129.328433 752.182211,129.625744 C750.937006,129.227845 748.818579,126.958602 747.532331,126.725825 C747.123237,126.924032 747.322756,127.538095 747.015383,127.687018 C745.972983,127.909316 745.585266,127.669182 745.341418,127.214108 C745.217851,126.983504 745.19974,126.707987 745.078802,126.482289 C744.955892,126.252912 744.791939,126.188656 744.485672,126.337043 C744.258403,126.879774 744.440467,127.219547 743.827932,127.516322 C742.18824,128.310756 742.195646,126.159526 741.478074,126.507191 C741.077825,126.701112 741.227186,127.497074 740.726137,128.121465 C740.79129,127.998739 740.81482,127.852918 740.763232,127.670873 C740.658294,127.306093 740.281765,127.250582 739.937198,127.317097 C739.596604,127.383231 739.361607,127.815371 739.470071,128.181533 C739.577429,128.548231 739.726677,128.647422 739.841752,128.62566 C739.991729,128.596257 740.158561,128.546328 740.315325,128.475011 C740.256037,128.509916 740.208193,128.553183 740.139642,128.586396 C738.399335,129.429578 738.736409,127.40755 737.813184,127.854855 C737.179642,128.161808 738.282861,129.079658 737.696412,129.700618 C737.559861,129.627721 737.413895,129.591833 737.31328,129.640581 C737.22925,129.681294 737.192125,129.804345 737.248406,129.971755 C736.54644,130.22379 735.6607,129.898941 735.369912,130.039829 C735.165365,130.138932 735.181735,131.133749 735.424925,131.587597 C734.913005,131.835623 734.240637,131.300785 733.829332,131.500063 C733.685912,131.713242 733.747695,131.828544 733.808822,131.94262 C733.990886,132.282392 734.255244,132.294911 734.499092,132.749986 C734.560218,132.864061 734.412448,134.511624 733.387502,135.008212 C733.284676,135.058032 732.959191,134.931438 732.672777,134.636042 C732.552496,134.411572 732.063059,134.220722 731.857407,134.320361 C731.714434,134.531777 731.67142,134.693219 731.733203,134.808521 C731.976394,135.262369 732.628887,135.520999 732.811608,135.861999 C733.054799,136.315847 732.6839,137.068768 732.480459,137.167335 C732.273701,137.26751 732.110854,137.202719 732.009133,137.252003" id="Path-Copy" fill="#B35EFF"></path>
                <path d="M474.798481,48.2619149 C474.626034,48.4095612 474.4511,48.3870554 474.36626,48.4596942 C474.108973,48.6799794 474.206666,49.1076218 474.389759,49.3009803 C474.745288,49.6764436 475.010361,49.7959067 475.189579,49.9851729 C475.467551,50.6067299 475.658197,51.1307735 475.584412,51.7070854 C474.728633,52.4397901 473.413223,52.1933321 472.900494,52.6323233 C472.900494,52.6323233 472.905747,52.8001068 472.99584,52.8952514 C473.943183,52.4250078 475.24804,52.3340862 476.05791,53.189365 C477.315339,54.5172979 476.75467,56.5386013 477.490755,57.9701919 L476.315903,58.9760818 C476.314787,58.3823897 476.261797,57.6404529 476.038586,57.2795226 C476.038586,57.2795226 475.968827,57.1688204 475.865488,57.2183958 C475.976882,57.8491954 475.987936,58.7196614 476.007896,59.2397924 L475.868647,59.3590148 C475.913471,59.3428676 475.962765,59.3173349 476.008464,59.2985855 C476.015571,59.5018317 476.026813,59.6459622 476.046421,59.6754865 C476.111429,59.7846986 476.180266,59.8961904 476.285449,59.8450358 C476.285449,59.8450358 476.310051,59.5553621 476.314197,59.1664952 C476.874703,58.8996352 477.441915,58.5269984 477.84675,58.1803849 C477.93159,58.107746 478.011131,57.8655111 478.181733,57.7194439 C478.609623,57.3530915 479.235022,57.8513206 479.682582,58.3239747 C480.94098,59.6529306 478.930764,59.654941 479.739665,60.5091967 C479.969257,60.7516622 480.746745,59.9062981 481.686784,60.1054984 C481.587273,60.1573535 481.720009,60.3715965 481.785017,60.4808086 C481.958069,60.5401227 481.958069,60.5401227 482.059517,60.4903138 C482.129425,60.4600991 482.165055,60.3795765 482.163928,60.2990319 C482.170616,60.3025681 482.175367,60.3040582 482.179242,60.3081505 L481.77812,61.6797136 C481.692358,61.753142 481.783419,61.8493097 481.783419,61.8493097 C482.05273,62.1337206 482.662277,62.124974 482.834724,61.9773277 C483.091089,61.7578321 482.992427,61.3291666 483.077267,61.2565278 C483.505157,60.8901754 484.041339,61.2906577 484.394521,61.5014067 C484.230643,61.9825739 484.157826,62.5599087 484.608292,63.035632 C484.697417,63.1297536 484.785572,63.2228521 484.957097,63.0759953 C485.042859,63.002567 485.210146,62.6907624 485.292547,62.449784 C485.891039,61.9373644 486.670219,61.7815276 487.298934,62.445494 C487.568245,62.7299049 487.524636,64.4807901 487.524636,64.4807901 L488.543418,63.2695204 C488.546184,63.2671517 488.547013,63.262737 488.547889,63.2601348 C488.741107,63.3707246 489.032952,63.3950196 489.190336,63.3214015 C489.399828,63.2216945 489.506336,62.7451873 489.305639,62.4168505 C489.302733,62.4137813 489.293231,62.4108011 489.288388,62.4056858 C489.90467,62.2188916 490.75266,62.063421 491.218674,62.0071364 C492.028544,62.8624152 491.965814,63.9424 492.325218,64.3219555 C492.41628,64.4181233 492.58826,64.4357473 492.673101,64.3631084 C493.27067,63.8514784 491.927023,62.4324931 492.611277,61.8466452 C492.868564,61.62636 493.304147,61.5961307 493.572489,61.8795185 C493.635457,61.9460174 493.658772,62.0464671 493.724935,62.1639528 C493.704414,62.1722599 493.688598,62.1802444 493.666279,62.1919432 C493.526453,62.3987271 493.526453,62.3987271 493.595243,62.5084063 C493.797784,62.835164 494.730745,62.3920542 494.836898,62.3419227 C494.724728,62.3045817 494.659273,62.2513271 494.608023,62.2007301 C494.621046,61.9005923 494.545793,61.3926052 494.863943,61.1202096 C495.632116,60.4625124 496.26083,61.1264788 496.976732,61.8825207 C496.794106,61.5238919 496.696366,61.0944369 496.952731,60.8749413 C497.379699,60.5093784 498.085561,60.764583 498.427688,60.4716591 C498.684053,60.2521635 497.701234,59.3782376 499.15366,58.1346924 C499.494865,57.8425579 500.210265,58.4323064 500.387545,58.6195266 C501.234802,57.5551136 499.285378,56.4750931 500.652043,55.3049762 C500.822645,55.158909 501.260119,55.1289132 501.429799,54.9836355 C501.647433,54.7973011 501.485793,54.4484913 501.293656,54.0498405 L501.37002,54.014099 L501.268879,54.0025126 C501.008176,53.466204 500.710605,52.8521645 501.190136,52.4415972 C501.362583,52.2939509 501.709543,52.3358934 501.973099,52.2862274 C501.967343,52.135547 501.993276,52.0077519 502.035631,51.8955362 C502.293364,51.9860865 502.559481,52.0361142 502.663742,51.9857492 C502.873281,51.8878549 502.975745,51.8408816 503.014029,51.6802814 C502.862701,51.4393499 502.659655,51.3130917 502.44505,51.250453 C502.608937,50.9897241 502.685096,50.689252 502.388606,50.1539445 C502.656111,50.0379124 502.752017,49.9557989 502.554412,49.6377817 C502.488435,49.5275465 502.248531,49.3605993 502.038117,49.4610958 C502.003624,49.4758084 501.970146,49.4933566 501.937591,49.5101153 C501.798501,49.3420662 501.643083,49.162063 501.448366,48.9564277 C501.871644,48.5940231 502.465152,48.2544469 502.979493,47.98821 C503.003803,48.5676012 503.003326,49.0626227 503.041666,49.1242734 C503.110409,49.2321399 503.178277,49.3426086 503.282539,49.2922436 C503.282539,49.2922436 503.440759,47.3802459 503.035675,46.7267304 C503.035675,46.7267304 502.965963,46.6178408 502.863546,46.6666267 C502.904465,46.9020548 502.931282,47.1754923 502.951504,47.4490189 C502.494731,47.0213021 501.658049,47.3967994 500.974868,47.4741481 C500.685933,46.3525434 500.472711,44.9864241 500.53885,44.0758019 C500.624612,44.0023735 500.797562,44.0210206 500.883324,43.9475922 C501.053926,43.801525 501.138264,43.5625927 500.95614,43.3702573 C500.511943,43.0651532 499.633131,42.7913015 499.279483,42.7458229 C499.357552,42.3362715 498.523774,40.4770384 499.208029,39.8911905 L500.660456,38.6476452 C500.228189,38.843612 499.028811,39.7019242 498.848625,39.5116349 C498.670376,39.3233917 498.574015,39.0576279 498.485859,38.9645294 C498.305672,38.7742401 498.132723,38.755593 497.956821,38.7320641 C497.87728,38.974299 497.792021,39.2140208 497.535656,39.4335164 C497.284824,39.6482747 496.939884,39.7583583 496.561868,39.6448234 C496.557751,39.5946263 496.543164,39.540426 496.507824,39.4854696 C496.439909,39.3731883 496.334726,39.4243429 496.334726,39.4243429 C496.308672,39.4373873 496.300335,39.4797225 496.302654,39.5333113 C496.249056,39.5013965 496.193568,39.4692482 496.138815,39.4290599 C495.331851,38.5768502 495.571862,37.6840856 494.761992,36.8288068 C494.673836,36.7357082 494.408856,36.6198704 494.229639,36.4306041 C493.870235,36.0510486 494.388264,35.7816535 493.937798,35.3059302 C493.669456,35.0225424 493.147096,35.1233645 493.05894,35.0302659 L492.967878,34.9340982 C492.716813,35.3231899 492.288001,35.6903318 491.776194,36.1285335 C490.465115,36.0506485 487.801215,34.3800899 486.495436,34.471801 C486.154231,34.7639355 486.514091,35.3079718 486.257726,35.5274674 C485.311351,35.9987341 484.871484,35.862203 484.512081,35.4826475 C484.329957,35.2903121 484.23747,35.0286405 484.059221,34.8403973 C483.878066,34.6490849 483.702211,34.6273687 483.446768,34.8460747 C483.374967,35.4262453 483.643309,35.7096331 483.132424,36.1470452 C481.764837,37.3179516 481.186455,35.2381999 480.587963,35.7506194 C480.254136,36.0364375 480.615057,36.7685186 480.301031,37.4949461 C480.33056,37.3603675 480.313598,37.2137239 480.214218,37.0505786 C480.013567,36.7240543 479.634759,36.7631015 479.320037,36.9121504 C479.009049,37.0598537 478.899682,37.5351043 479.104114,37.8620956 C479.307625,38.1898764 479.478785,38.248957 479.584016,38.1996151 C479.72088,38.134304 479.868437,38.0450175 480.000448,37.9375493 C479.952681,37.9858565 479.918243,38.0394234 479.861069,38.0883757 C478.409564,39.3311313 478.184784,37.2950457 477.414768,37.954322 C476.886361,38.4067356 478.201815,39.0217992 477.804365,39.7659311 C477.652626,39.7291243 477.501865,39.7303824 477.417947,39.8022317 C477.347862,39.8622377 477.345495,39.9902327 477.445425,40.1380876 C476.835979,40.5542942 475.892,40.4585019 475.649468,40.6661542 C475.478865,40.8122214 475.765453,41.7691118 476.123888,42.1476443 C475.696921,42.5132071 474.901887,42.1620683 474.558838,42.4557818 C474.478329,42.6969937 474.569391,42.7931614 474.659484,42.8883061 C474.927826,43.1716939 475.186584,43.1187252 475.545988,43.4982808 C475.636081,43.5934254 475.94179,45.2212163 475.086933,45.9531314 C475.001171,46.0265598 474.652319,45.9843839 474.295262,45.7695426 C474.117982,45.5823225 473.593275,45.5184303 473.42175,45.665287 C473.341195,45.9046863 473.343588,46.0712132 473.43465,46.1673809 C473.793085,46.5459134 474.493741,46.6351471 474.763051,46.919558 C475.121487,47.2980905 474.968161,48.1166372 474.798481,48.2619149 L474.798481,48.2619149" id="Path-Copy" fill="#B35EFF"></path>
            </g>
        </g>
    </g>
</svg>