<svg width="1385" height="360" xmlns="http://www.w3.org/2000/svg"><defs><linearGradient x1="39.616%" y1="59.508%" x2="39.616%" y2="19.659%" id="a"><stop stop-color="#2793E0" offset="0%"/><stop stop-color="#0055B8" offset="100%"/></linearGradient><linearGradient x1="50%" y1="72.944%" x2="84.911%" y2="15.694%" id="b"><stop stop-color="#01A4FF" offset="0%"/><stop stop-color="#0055B8" offset="100%"/></linearGradient></defs><g fill="none" fill-rule="evenodd"><path d="M567.81 14.049c3.067.634 4.63-3.032 6.323-3.49 1.223 1.843 1.831 2.779 3.363 3.094 2.305.477 3.39-.89 5.244-2.119.128 3.23 2.876 5.416 6.72 6.21 1.533.317 3.998.021 5.854-1.213.606.939-.408 13.546 5.743 14.817 1.532.317 2.456-.301 3.994.021-.797 3.849-4.022 3.96-4.659 7.037-.796 3.846 2.729 6.169 1.78 10.757-.957 4.627-6.329 3.515-7.443 8.89-.79 3.823 2.118 5.227 1.796 6.776-.155.754-.155.754-.926.594-1.529-.32-2.592-2.937-5.661-3.568-.768-.163-6.01 1.96-7.124 7.33-2.302-.477-3.516-2.316-5.821-2.795-3.84-.792-2.62 1.046-5.402 2.874-1.22-1.843-2.59-2.94-4.895-3.414-1.532-.32-3.073-.637-4.767-.178-1.216-1.869-1.503-4.32-3.81-4.8-.765-.16-1.695.459-2.463.296-.767-.154-8.176-18.498-10.162-20.521.634-3.076 3.575-5.649 4.209-8.721.474-2.297-.744-4.165-1.037-6.625 13.086-1.306 4.557-14.275 19.144-11.252m208.504 50.29c.813.168 1.228-.804 1.677-.926.324.49.485.737.892.82.61.127.899-.235 1.39-.561.034.857.763 1.436 1.783 1.647.406.084 1.06.005 1.552-.322.16.249-.108 3.592 1.523 3.93.406.083.65-.08 1.059.005-.211 1.02-1.067 1.05-1.236 1.866-.21 1.02.724 1.636.472 2.853-.253 1.226-1.678.932-1.973 2.357-.21 1.014.561 1.386.476 1.797-.041.2-.041.2-.246.157-.405-.084-.687-.778-1.501-.946-.204-.043-1.594.52-1.89 1.944-.61-.126-.932-.614-1.543-.741-1.018-.21-.695.277-1.432.762-.324-.489-.687-.78-1.298-.905-.407-.085-.815-.17-1.265-.047-.322-.496-.398-1.146-1.01-1.273-.203-.043-.45.121-.653.078-.203-.04-2.168-4.905-2.695-5.442.168-.815.948-1.498 1.116-2.312.126-.61-.197-1.105-.275-1.757 3.47-.346 1.209-3.786 5.077-2.984M95.283 246.888c.66-.732 1.414-.71 2.91-.681.238-1.114-1.56-3.396-.244-4.857 6.238-6.928-4.316-7.174-1.187-14.947-1.61-.78-3.126-.825-4.403-1.975-1.7-1.53-2.407-4.156-4.112-5.691-1.848.325-15.386-2.614-15.712-2.252-.018.02-.022.052-.04.072-.643-3.583-.971-7.423-1.225-7.779-.342-.451-.682-.914-1.102-.643 0 0 .17 6.55 1.56 10.041-.993.76-2.462.1-3.86.063-.214 1.061-.817 1.767-1.44 2.46.054-.264.092-.537.126-.834-.342-.451-1.85-.838-2.269-.567-.839.535-.164 1.45.176 1.913.173.241.482.398.777.457-.714.406-1.504.572-2.484.552.283 2.245 1.79 2.281.15 4.101-.985 1.095-2.491 1.058-3.48 2.157 2.982 2.685 2.718 6.406 2.385 6.777-1.316 1.46-3.241 1.04-3.901 1.772-.333.37-.333.37.076.738.864.778 2.608-.29 4.726 1.617 2.978 2.681.687 5.226 3.25 7.535 2.547 2.292 5.042 1.23 7.179 3.154 1.71 1.539.8 3.372 2.936 5.296.652-.725.554-1.484 1.214-2.216 2.627-2.919 10.107 2.497 10.864 2.515-.203-1.502.355-2.99 1.01-3.719 1.646-1.827 3.822-2.507 5.849-1.338-.199-1.498-.714-2.626.271-3.72zm775.464-61.091c-1.648 0-2.464-.722-4.103-2.142-1.649.714-2.473 4.307-5.762 4.307-15.59 0-4.086 10.048-17.248 13.656.833 2.157 2.473 3.608 2.473 5.766 0 2.87-2.473 5.734-2.473 8.613 2.473 1.45 13.969 16.543 14.784 16.543.045 0 .089-.024.133-.024-3.731 3.608-8.136 7.139-8.296 7.674-.177.699-.372 1.405.434 1.568 0 0 7.95-5.657 10.734-9.886 2.056.287 2.88 2.212 4.396 3.546 1.56-.69 3.111-.721 4.671-.721-.39.17-.77.364-1.179.582-.177.698 1.029 2.428 1.835 2.591 1.604.334 1.986-1.063 2.18-1.769.107-.364-.044-.783-.3-1.11 1.302.327 2.392.924 3.465 1.855 2.473-2.15.833-3.585 4.928-3.585 2.464 0 4.104 1.436 6.576 1.436 0-5.036 4.92-7.915 5.753-7.915 3.288 0 4.919 2.15 6.568 2.15.833 0 .833 0 .833-.691 0-1.459-3.28-2.188-3.28-5.765 0-5.028 5.726-5.028 5.726-9.358 0-4.299-4.113-5.734-4.113-9.343 0-2.886 3.298-3.577 3.298-7.185-1.631 0-2.464.73-4.113.73-6.568 0-8.208-11.523-9.032-12.245-1.64 1.451-4.112 2.18-5.752 2.18-4.113 0-7.392-1.458-8.208-4.33-1.64 1.444-2.464 2.872-4.928 2.872zM1080.22 87.34c.183.029.257.144.347.158.273.043.5-.228.533-.433.063-.398.006-.615.038-.816.262-.474.504-.848.914-1.091.908.143 1.414 1.047 1.958 1.134 0 0 .105-.087.121-.188-.783-.329-1.503-1.059-1.359-1.966.223-1.408 1.815-2.081 2.369-3.231l1.246.197c-.384.296-.837.697-.958 1.01 0 0-.036.096.048.133.352-.38.91-.82 1.236-1.091l.148.023c-.033-.018-.075-.035-.11-.053.128-.105.215-.183.225-.21.037-.093.075-.19-.012-.226 0 0-.2.13-.453.32a6.108 6.108 0 00-1.414-.42c-.09-.013-.287.06-.468.031-.454-.072-.448-.691-.368-1.192.223-1.41 1.242-.216 1.385-1.122.04-.257-.9-.298-1.247-.956.084.033.156-.152.194-.245-.05-.133-.05-.133-.133-.168-.055-.027-.125-.008-.177.033l-.002-.014 1.09-.444c.092.014.108-.088.108-.088.048-.301-.266-.659-.45-.688-.271-.043-.498.229-.588.215-.454-.072-.466-.59-.509-.905.395-.142.805-.386.885-.89.016-.1.032-.2-.15-.228-.091-.014-.378.042-.575.113-.635-.101-1.13-.486-1.018-1.19.047-.302 1.202-1.148 1.202-1.148l-1.299-.002-.008.002c-.027-.17-.159-.355-.286-.412-.17-.075-.533.099-.644.382 0 .003.003.01.002.015-.433-.273-.963-.7-1.235-.948.144-.907.874-1.407.938-1.81.016-.102-.06-.213-.15-.227-.633-.1-.871 1.404-1.597 1.29-.272-.044-.512-.288-.465-.588.011-.07.065-.134.107-.232a.5.5 0 00.048.02c.205-.02.205-.02.24-.115.11-.283-.65-.616-.735-.654.032.085.03.15.024.206-.2.141-.491.44-.829.386-.814-.13-.703-.833-.576-1.635-.14.287-.368.559-.64.516-.452-.072-.644-.618-1.007-.676-.272-.043-.34.976-1.88.732-.361-.057-.342-.776-.31-.974-1.118.026-.83 1.722-2.28 1.493-.18-.029-.421-.274-.6-.302-.232-.037-.376.233-.536.545l-.062-.027.044.066c-.216.421-.462.904-.97.823-.184-.029-.332-.256-.498-.387a.854.854 0 01-.284.157c-.072-.198-.174-.381-.26-.418-.169-.076-.251-.113-.374-.056a.71.71 0 00.01.552c-.252.032-.485.137-.682.58-.21-.102-.312-.118-.418.158-.038.094-.024.32.147.394.027.014.056.025.083.036a8.075 8.075 0 00-.11.566c-.45-.071-.97-.255-1.402-.428.362-.303.683-.549.703-.602.035-.095.073-.19-.013-.227 0 0-1.317.858-1.535 1.424 0 0-.035.096.048.132.132-.141.295-.294.462-.442-.046.485.62.795 1.016 1.162-.58.73-1.355 1.537-1.978 1.951-.091-.014-.167-.126-.257-.14-.181-.03-.379.04-.411.243.027.416.295 1.075.444 1.307-.304.158-1.085 1.579-1.81 1.464l-1.54-.244c.345.16 1.507.445 1.475.646-.031.2-.154.39-.17.488-.032.202.043.314.117.43.197-.073.396-.142.667-.099a.79.79 0 01.63.474.275.275 0 00-.076.111.098.098 0 00.048.133c.022.01.053-.007.087-.035.006.048.014.097.015.15-.143.903-.842 1.205-.986 2.112-.015.099.044.314.012.515-.064.402-.5.228-.58.733-.048.3.282.56.266.66l-.016.101c.379-.044.834.028 1.376.114.613.817.88 3.232 1.6 3.962.362.057.532-.427.804-.384.784.327.918.657.854 1.06-.032.203-.154.388-.186.588-.032.203.043.318.314.36.411-.245.459-.546 1-.46 1.45.23.397 1.609 1.032 1.71.354.055.645-.524 1.274-.699a.483.483 0 00-.244.273c-.11.282.107.487.363.6.253.112.616-.06.724-.344.11-.284.061-.416-.024-.454a1.757 1.757 0 00-.38-.116c.055.004.107-.002.168.007 1.538.244.335 1.391 1.15 1.52.561.09.293-.999.976-1.133.053.109.13.198.22.212.073.011.157-.05.203-.184.577.155.993.764 1.25.804.181.029.655-.618.719-1.02.453.073.628.72.991.777.197-.072.213-.174.23-.275.047-.3-.118-.428-.055-.83.016-.101.915-1.093 1.821-.95.091.015.24.243.282.562-.031.199.193.542.375.571.196-.071.302-.155.318-.257.064-.402-.233-.863-.185-1.164.063-.402.67-.718.85-.69zm276.285 55.621c-.063-.04-.07-.097-.101-.117-.094-.061-.226.007-.274.08-.094.145-.11.238-.158.31-.18.142-.336.247-.532.275-.312-.203-.34-.634-.527-.756 0 0-.055.017-.079.053.234.254.373.653.16.98-.33.51-1.04.513-1.449.868l-.428-.278c.195-.053.434-.134.534-.236 0 0 .03-.031.005-.059-.197.09-.482.17-.65.222l-.052-.033.032.038a.508.508 0 00-.12.045c-.031.03-.062.061-.036.09 0 0 .097-.018.225-.05.134.15.304.295.451.39.031.02.117.024.18.064.155.102.044.34-.073.522-.331.509-.5-.118-.712.21-.06.092.281.26.295.571-.026-.026-.085.034-.115.064-.005.06-.005.06.02.086.015.02.045.024.071.016 0 .003 0 .004-.002.006l-.483-.005c-.031-.02-.055.017-.055.017-.07.109-.017.298.046.339.093.06.225-.008.256.012.156.101.07.304.03.432-.171-.008-.367.02-.485.202-.024.036-.047.072.016.112a.71.71 0 00.233.05c.218.142.334.37.17.625-.072.11-.65.25-.65.25l.483.21.003.001c-.02.07-.003.164.034.206.05.057.215.048.306-.043.001-.002.001-.005.003-.007.112.176.234.427.292.567-.213.328-.573.403-.667.549-.024.037-.016.092.015.112.218.141.571-.402.82-.24a.22.22 0 01.07.302c-.016.026-.047.042-.08.073a.196.196 0 00-.015-.016c-.079-.026-.079-.026-.11.005-.09.092.134.344.16.373a.179.179 0 01.026-.084c.1-.022.26-.09.376-.015.28.182.115.436-.073.726.102-.088.235-.157.328-.096.156.101.131.344.256.425.093.06.298-.323.827.02.124.081-.01.356-.056.428.42.17.611-.532 1.11-.209.061.04.108.174.17.215.079.051.18-.03.294-.125l.019.02-.005-.032c.154-.128.33-.275.505-.162.063.041.078.153.117.231a.349.349 0 01.133-.015c-.008.089-.002.176.023.204.05.057.074.085.13.082a.315.315 0 00.093-.215c.099.028.204.026.355-.114.06.073.095.096.183.007.03-.03.065-.12.015-.177l-.025-.027c.044-.058.09-.122.14-.201.155.1.316.255.446.392-.188.059-.35.102-.367.12-.03.03-.06.061-.035.09 0 0 .64-.12.82-.303 0 0 .03-.031.006-.06a2.965 2.965 0 01-.249.097c.102-.18-.091-.408-.173-.614.343-.189.774-.375 1.078-.435.031.02.04.076.07.096.063.04.148.046.196-.028.063-.165.08-.463.065-.578.14-.011.68-.435.93-.273l.53.344c-.101-.118-.483-.416-.436-.49.047-.071.126-.125.15-.16.047-.073.039-.129.032-.186a.478.478 0 01-.266-.07.316.316 0 01-.15-.285.12.12 0 00.047-.03c.032-.032.006-.06.006-.06-.006-.007-.021-.006-.038 0 .006-.02.012-.04.02-.06.212-.327.525-.33.738-.658.023-.036.039-.129.086-.201.094-.146.226-.008.345-.19.07-.109-.007-.263.016-.299l.024-.037c-.148-.044-.304-.145-.49-.266-.085-.416.24-1.394.101-1.793-.124-.08-.273.08-.366.019-.234-.254-.226-.403-.131-.549.048-.073.126-.125.173-.197.047-.074.04-.13-.053-.19-.197.028-.267.136-.453.016-.499-.324.135-.687-.083-.829-.122-.079-.332.098-.596.064a.207.207 0 00.138-.066c.09-.091.046-.206-.029-.291-.074-.084-.24-.077-.33.016-.09.092-.095.15-.07.18a.679.679 0 00.12.106c-.02-.01-.04-.017-.06-.03-.53-.344.12-.593-.16-.775-.193-.125-.285.34-.563.28 0-.05-.013-.097-.044-.116-.025-.017-.067-.007-.108.038-.187-.154-.235-.457-.323-.514-.062-.04-.352.133-.446.278-.156-.1-.107-.38-.232-.46-.086-.005-.11.032-.133.068-.071.11-.032.185-.126.33-.024.037-.532.275-.844.073-.031-.02-.047-.133-.006-.263.047-.072.024-.24-.039-.282-.085-.004-.14.012-.163.049-.095.145-.065.371-.136.48-.094.145-.376.17-.437.13zm-163.093 6c-.063-.04-.07-.097-.1-.117-.095-.061-.227.007-.275.08-.093.145-.11.238-.157.31-.18.142-.337.247-.532.275-.312-.203-.341-.634-.528-.756 0 0-.054.017-.078.053.233.254.372.653.16.98-.331.51-1.041.513-1.449.868l-.428-.278c.195-.053.433-.134.533-.236 0 0 .03-.031.006-.059-.198.09-.482.17-.651.222l-.051-.033c.009.013.021.026.031.038a.507.507 0 00-.12.045c-.03.03-.061.062-.036.09 0 0 .097-.018.225-.05.135.15.304.295.452.39.03.02.117.024.179.064.156.102.045.34-.073.522-.33.509-.5-.118-.712.21-.06.092.282.26.295.571-.025-.026-.084.034-.115.064-.005.06-.005.06.02.086.016.02.045.024.072.016l-.002.006-.483-.005c-.032-.02-.056.017-.056.017-.07.109-.017.298.046.339.094.06.226-.008.257.012.156.101.07.304.03.432-.172-.008-.367.02-.486.202-.023.036-.046.072.016.112.032.02.148.045.234.05.218.142.334.37.169.625-.071.11-.649.25-.649.25l.483.21.003.001c-.02.07-.004.164.034.206.05.057.215.048.306-.043 0-.002 0-.005.002-.007.113.176.235.427.292.567-.213.328-.572.403-.667.549-.024.037-.015.092.016.112.218.141.57-.402.82-.24a.22.22 0 01.07.302c-.017.026-.048.042-.08.073a.194.194 0 00-.015-.016c-.08-.026-.08-.026-.11.005-.09.092.133.344.159.373a.179.179 0 01.027-.084c.1-.022.26-.09.376-.015.28.182.114.436-.074.726.103-.088.235-.157.329-.096.155.101.13.344.255.425.094.06.298-.323.827.02.125.081-.009.356-.056.428.42.17.612-.532 1.11-.209.062.04.108.174.17.215.08.051.18-.03.295-.125l.018.02-.005-.032c.155-.128.331-.275.506-.162.063.041.078.153.116.231a.349.349 0 01.134-.015c-.009.089-.003.176.023.204.05.057.073.085.129.082a.315.315 0 00.093-.215c.1.028.205.026.355-.114.06.073.096.096.183.007.031-.03.066-.12.015-.177-.007-.01-.016-.018-.024-.027.043-.058.09-.122.14-.201.155.1.316.255.446.392-.188.059-.35.102-.367.12-.03.03-.06.061-.035.09 0 0 .64-.12.82-.303 0 0 .03-.031.006-.06a2.964 2.964 0 01-.25.097c.103-.18-.09-.408-.173-.614.344-.189.774-.375 1.078-.435.032.02.04.076.071.096.062.04.148.046.196-.028a1.57 1.57 0 00.064-.578c.141-.011.681-.435.93-.273l.53.344c-.1-.118-.482-.416-.435-.49.047-.071.126-.125.15-.16.047-.073.038-.129.031-.186a.478.478 0 01-.265-.07.316.316 0 01-.15-.285.12.12 0 00.047-.03c.031-.032.006-.06.006-.06-.007-.007-.021-.006-.039 0 .006-.02.012-.04.02-.06.213-.327.526-.33.738-.658.024-.036.04-.129.087-.201.094-.146.226-.008.344-.19.07-.109-.006-.263.017-.299l.024-.037c-.149-.044-.305-.145-.491-.266-.084-.416.24-1.394.102-1.793-.125-.08-.273.08-.366.019-.234-.254-.226-.403-.132-.549.048-.073.126-.125.173-.197.048-.074.04-.13-.053-.19-.196.028-.267.136-.453.016-.498-.324.136-.687-.082-.829-.122-.079-.332.098-.596.064a.207.207 0 00.138-.066c.09-.091.046-.206-.03-.291-.074-.084-.239-.077-.329.016-.09.092-.095.15-.07.18a.679.679 0 00.12.106c-.02-.01-.04-.017-.06-.03-.53-.344.12-.593-.161-.775-.193-.125-.285.34-.562.28 0-.05-.014-.097-.044-.116-.026-.017-.068-.007-.108.038-.187-.154-.235-.457-.323-.514-.062-.04-.352.133-.447.278-.155-.1-.106-.38-.231-.46-.086-.005-.11.032-.134.068-.07.11-.031.185-.126.33-.024.037-.532.275-.843.073-.032-.02-.047-.133-.006-.263.046-.072.023-.24-.04-.282-.084-.004-.139.012-.163.049-.094.145-.065.371-.135.48-.095.145-.376.17-.438.13zm-717.656 59.567c-.273.14-.293.547-.183.763.214.42.413.589.52.8.089.624.125 1.14-.077 1.643-.91.464-1.978-.06-2.523.217 0 0-.036.153.018.26.925-.207 2.065.01 2.553.967.757 1.486-.212 3.178.073 4.637l-1.25.637c.143-.535.277-1.216.173-1.592 0 0-.033-.116-.134-.095-.057.594-.257 1.38-.366 1.854l-.148.076c.042-.005.09-.016.134-.023-.043.185-.068.317-.058.349.03.113.061.23.164.207 0 0 .09-.255.188-.605a6.48 6.48 0 001.552-.536c.09-.046.216-.246.398-.339.455-.232.87.36 1.14.89.757 1.486-.966 1.026-.479 1.982.138.271 1.009-.312 1.766.083-.098.024-.036.248-.006.36.134.094.134.094.233.072.067-.01.117-.075.135-.148.005.005-.664 1.156-.664 1.156-.09.046-.036.154-.036.154.162.318.686.45.87.356.273-.138.291-.547.382-.593.455-.232.818.252 1.07.523-.257.396-.46.9-.188 1.431.054.106.107.21.29.117.09-.047.309-.29.438-.487.636-.325 1.342-.286 1.72.456.162.318-.298 1.886-.298 1.886l1.166-.857c.144.136.389.225.541.195.204-.042.41-.447.318-.789.56-.04 1.325.014 1.738.07.487.957.173 1.916.389 2.34.055.108.198.163.288.117.636-.324-.173-1.91.555-2.282.273-.139.654-.066.816.25.037.075.033.171.061.292-.226.166-.226.166-.194.28.095.342 1.001.157 1.104.136a.491.491 0 01-.162-.18c.084-.268.142-.743.48-.915.818-.416 1.196.326 1.627 1.172-.07-.365-.05-.774.223-.913.454-.232.997.16 1.36-.025.273-.14-.358-1.152 1.187-1.94.363-.184.834.511.94.72.983-.764-.426-2.185 1.027-2.925.182-.093.564-.02.744-.111.232-.118.178-.47.11-.873-.104-.592-.211-1.213.299-1.473.183-.094.47.024.708.04a.958.958 0 01.148-.338c.2.14.415.247.517.225.203-.04.302-.059.374-.194a.866.866 0 00-.384-.518c.203-.198.341-.451.216-1.001.257-.044.36-.096.267-.428-.03-.114-.195-.32-.4-.277-.033.005-.066.013-.098.02a9.925 9.925 0 00-.285-.61c.45-.23 1.04-.4 1.545-.521-.119.527-.239.973-.22 1.038.032.113.064.228.165.206 0 0 .598-1.686.408-2.368 0 0-.033-.114-.133-.094a8.146 8.146 0 01-.113.725c-.288-.49-1.096-.344-1.7-.431.023-1.077.17-2.357.447-3.162.091-.047.235.01.326-.037.181-.092.311-.288.202-.503-.307-.377-.994-.826-1.286-.948.166-.351-.1-2.218.628-2.589l1.545-.787c-.418.077-1.653.575-1.761.362-.108-.21-.126-.472-.18-.576-.108-.213-.251-.27-.396-.33-.127.2-.258.396-.53.535a.868.868 0 01-.886-.034.329.329 0 00-.008-.156c-.031-.116-.134-.094-.134-.094-.025.005-.042.042-.053.09a1.52 1.52 0 01-.116-.131c-.485-.953-.064-1.703-.551-2.66-.054-.104-.253-.269-.36-.48-.217-.425.292-.549.021-1.081-.161-.317-.633-.346-.687-.45l-.054-.108c-.31.293-.765.526-1.31.803-1.105-.371-2.984-2.488-4.125-2.705-.363.184-.186.757-.458.896-.925.208-1.27-.016-1.485-.44-.11-.216-.126-.473-.233-.684-.11-.214-.255-.274-.527-.135-.201.506-.04.823-.583 1.1-1.455.741-1.448-1.266-2.085-.941-.355.18-.222.923-.667 1.506a.568.568 0 00.033-.42c-.093-.341-.427-.393-.733-.33-.302.06-.51.464-.414.806.095.342.228.434.33.414.133-.027.28-.074.42-.14-.053.032-.095.072-.156.103-1.544.787-1.245-1.1-2.064-.682-.562.286.417 1.142-.103 1.722-.122-.068-.251-.102-.34-.056-.075.038-.108.153-.058.309-.623.235-1.408-.068-1.666.063-.182.093-.167 1.02.048 1.444-.454.232-1.05-.267-1.415-.081-.127.198-.072.306-.018.412.161.317.396.33.612.754.054.106-.077 1.643-.986 2.106-.091.047-.38-.071-.634-.347-.107-.21-.54-.387-.723-.294-.127.197-.165.348-.11.455.215.424.794.665.956.983.216.423-.113 1.126-.294 1.218-.183.093-.327.033-.418.079zm76.687 74.053c-.153.138-.309.117-.384.185-.228.205-.141.604.021.784.315.35.55.462.71.639.246.58.415 1.068.35 1.606-.76.684-1.926.454-2.381.863 0 0 .005.157.084.246.84-.44 1.998-.524 2.717.274 1.115 1.239.618 3.125 1.271 4.46l-1.042.939c-.001-.554-.048-1.246-.246-1.583 0 0-.062-.103-.154-.057.099.588.109 1.4.126 1.886l-.123.11c.04-.014.083-.038.124-.056.006.19.016.325.034.352.057.102.118.206.212.158 0 0 .022-.27.025-.633a6.48 6.48 0 001.36-.92c.075-.068.146-.293.297-.43.38-.342.934.123 1.331.564 1.117 1.24-.667 1.242.051 2.039.204.226.893-.563 1.727-.377-.088.049.03.249.087.35.154.056.154.056.244.01.062-.029.094-.104.093-.18.006.004.01.006.013.01l-.356 1.279c-.076.068.005.158.005.158.239.265.78.257.933.12.227-.205.14-.605.215-.673.38-.342.855.032 1.168.229-.145.448-.21.987.19 1.43.08.089.157.176.31.039.076-.069.224-.36.297-.585.531-.478 1.222-.623 1.78-.004.239.266.2 1.9.2 1.9l.904-1.13.004-.01c.171.104.43.126.57.057.186-.093.28-.537.102-.843-.002-.003-.01-.006-.015-.01.547-.175 1.299-.32 1.712-.373.719.798.663 1.806.982 2.16.08.09.233.106.308.038.53-.477-.661-1.8-.054-2.347.228-.206.614-.234.852.03.056.062.077.156.136.266a.535.535 0 00-.052.026c-.125.193-.125.193-.063.295.18.305 1.007-.109 1.101-.155a.491.491 0 01-.203-.132c.012-.28-.055-.754.227-1.008.681-.614 1.24.006 1.874.711-.162-.334-.248-.735-.021-.94.379-.34 1.005-.103 1.308-.376.228-.205-.644-1.02.644-2.18.303-.273.938.277 1.095.452.752-.993-.978-2 .235-3.092.151-.137.54-.165.69-.3.193-.174.05-.5-.121-.871l.068-.034-.09-.01c-.231-.5-.495-1.074-.07-1.457.153-.137.46-.098.695-.145a.958.958 0 01.055-.364c.229.084.465.131.557.084.186-.091.277-.135.311-.285a.866.866 0 00-.505-.4c.146-.244.213-.524-.05-1.024.238-.108.323-.185.147-.481-.058-.103-.271-.259-.458-.165-.03.013-.06.03-.089.045a9.925 9.925 0 00-.434-.516c.376-.338.902-.655 1.358-.903.022.54.022 1.002.056 1.06.06.1.12.203.213.156 0 0 .14-1.784-.219-2.393 0 0-.062-.102-.152-.056.036.22.06.474.078.73-.406-.4-1.148-.05-1.754.023-.256-1.046-.445-2.32-.387-3.17.076-.069.23-.051.306-.12.151-.136.226-.36.064-.539-.394-.284-1.173-.54-1.487-.582.07-.382-.67-2.117-.063-2.663l1.288-1.16c-.383.182-1.447.983-1.607.806-.158-.176-.244-.424-.322-.51-.16-.178-.313-.196-.47-.218-.07.226-.145.45-.373.655a.868.868 0 01-.864.197.329.329 0 00-.048-.149c-.06-.105-.153-.057-.153-.057-.023.012-.03.052-.029.102-.047-.03-.096-.06-.145-.097-.716-.796-.503-1.628-1.221-2.426-.079-.087-.314-.195-.473-.372-.319-.354.141-.605-.259-1.05-.238-.263-.701-.17-.78-.256l-.08-.09c-.223.363-.603.706-1.057 1.114-1.163-.072-3.526-1.63-4.685-1.545-.303.272.017.78-.21.985-.84.44-1.23.312-1.55-.042-.16-.18-.243-.424-.401-.6-.16-.178-.317-.198-.543.006-.064.541.174.806-.28 1.214-1.212 1.092-1.726-.848-2.256-.37-.297.266.024.95-.255 1.627a.568.568 0 00-.077-.414c-.178-.305-.514-.269-.793-.13-.276.138-.373.582-.192.887.18.305.333.36.426.315.121-.061.252-.145.37-.245-.043.045-.074.095-.124.14-1.288 1.16-1.487-.74-2.17-.124-.47.422.698.996.345 1.69-.134-.035-.268-.033-.343.034-.062.056-.064.175.025.313-.54.388-1.378.299-1.593.493-.152.136.102 1.029.42 1.382-.378.34-1.084.013-1.388.287-.071.225.01.315.09.404.237.264.467.215.786.569.08.089.35 1.607-.408 2.29-.076.069-.385.03-.702-.171-.157-.175-.623-.234-.775-.097-.071.223-.07.378.012.468.318.353.94.436 1.178.702.318.353.182 1.116.032 1.252z" fill="#459BFF"/><path d="M1117.74 83.75c.066 1.302-1.22 2.025-1.268 3.085-.056 1.43 1.385.499.848 2.204-.374 1.184-2.13 2.027-2.534 3.969-1.182 5.682-.887 16.272 2.953 19.839.412.383 2.876.21 3.38.441 2.413 1.117 7.792 4.842 9.713 5.29 1.298.304 2.933-.53 4.222-.44 3.514.247 7.034 1.406 10.978.881 3.264-.432 7.463-3.013 9.713-2.645.06.011 1.222 1.241.844 1.322 1.198-.256 7.437-4.651 9.288-5.289.37-.128 1.08.974 1.692.881.511-.075.45-1.01 1.265-1.323 2.12-.813 6.526-.134 7.179-.441 3.316-1.568 4.85-13.636 6.335-15.429 2.51-3.046 6.539-5.429 10.553-7.056.877-.352 4.85-3.306 7.179-2.204.867.408 1.663 4.684 1.692 4.409-.271 2.962-3.478 5.385-3.382 8.818.105 3.578 2.639 9.188 2.957 11.903.128 1.063-.437 3.642 0 4.409 1.397 2.44 5.565 1.485 7.602 3.089 3.817 3 3.005 9.816 5.066 13.664.716 1.34 2.527 1.26 3.378 2.646 1.755 2.86.365 4.376 2.113 6.17 1.58 1.625 3.573 2.497 5.066 2.648 1.804.181 2.226-1.357 4.222-1.764 2.246-.459 4.077.592 6.335-.442 3.443-1.576 6.616-5.893 10.978-7.494 1.2-.441 2.299.083 3.378-.441.974-.472 2.243-2.285 3.378-2.644 1.476-.468 3.497.464 5.066 0 3.989-1.176 6.88-5.823 10.134-6.614 1.583-.385 3.466.774 5.066.44 1.545-.32 3.024-2.427 4.645-2.644 1.198-.162 3.002 1.381 4.647 1.323 3.388-.121 7.332-2.788 11.399-2.644 2.78.094 4.086-.374 5.91-.442 1.94-.075 6.017 2.17 8.869 1.763 2.855-.406 8.767-4.924 11.824-6.614 5.557-3.07 11.166-7.62 17.312-9.698.488-.166 1.929.31 1.69.44 2.592-1.391 3.796-5.063 6.755-4.407-.358-.08 6.802 6.016 7.178 6.61 1.293 2.035 2.52 8.051 1.689 11.023-1.11 3.98-7.076 10.471-11.823 13.227-1.39.805-3.287.513-4.645 1.322-1.648.984-3.088 3.57-5.066 5.29-1.28 1.111-3.584 1.387-4.645 2.204-1.281.989-1.543 3.1-2.112 3.527-1.325 1-3.035.334-4.222.883-1.575.727-1.837 2.778-2.956 3.967-.845.898-1.684.06-2.11.88-1.452 2.798-.286 6.12-.846 8.82-.033.158-1.622-.163-1.688 0-1.712 4.117.862 7.264 1.688 11.461.191.966-.846.885-.844 2.206.01 3.79 3.303 10.115.844 14.108-2.079 3.38-8.799 2.665-11.822 2.644-4.11-.029-7.203 1.14-11.403 1.323-3.642.16-8.746-.448-10.132 0-3.335 1.079-11.428 7.463-11.824 9.7-.812 4.594 2.37 6.874 6.333 6.613 9.543-.628 16.973 1.078 24.492 0 2.214-.319 4.111-.519 6.756-.883 2.042-.28 4.715-.732 6.756-1.32 1.464-.425 2.452-2.186 3.8-2.646 2.994-1.02 3.36.201 4.647 0-.074.009 3.702-2.165 6.332-2.205 1.847-.028 10.37-.937 11.4.44 3.355 4.48-3.067 4.282-5.91 4.41-2.064.09-3.443 1.606-5.49 1.763-2.007.154-3.973-1.52-5.91-1.763-7.837-.989-18.047 7.509-21.537 14.548-3.843 7.752 4.708 14.513 12.245 17.634 1.751.725 3.987 3.004 5.912 3.086 2.721.115 11.357-4.763 9.71 2.204.09-.365-2.421 2.236-3.8 2.647-3.648 1.087-5.99-1.03-8.865 0-2.446.876-2.446 2.84-3.378 3.527-.835.613-1.224-1.51-1.69 0-.429 1.395 1.812 5.354 1.69 7.494-.201 3.55-1.748 4.1-4.645 6.612-.272.236-.783 1.723-.844 1.764-.948.621-2.54-.009-3.378.884-.378.4.697 1.188.42 1.762-1.176 2.457-5.955 3.82-4.643 7.935 1.177 3.69 9.084.017 12.668 2.204.689.423-.009 1.629.843 2.648.889 1.059 2.727.617 2.957.88.92 1.065-.337 3.46 2.955 3.968 1.521.234 3.524-1.206 5.067-.883 1.57.33 9.413 5.576 10.134 5.733.394.083.366-1.095.843-.882 3.042 1.353 5.006 4.593 9.714 4.848 1.878.104 3.668 1.876 5.491 2.206 1.618.293 3.514-.728 5.064-.443 3.71.69 12.02 4.025 15.625 4.41 2.75.294 10.23-1.429 12.245 1.323 1.412 1.924-1.06 7.444-2.11 7.937.274-.13-5.978-.695-8.024-1.325-3.28-1.008-4.596-2.712-8.02-3.086-2.144-.232-5.484-1.679-8.026-2.204-2.396-.494-3.59.132-5.912 0-3.132-.177-7.343-3.183-11.822-3.527-4.746-.364-7.016-.65-11.402-.88-3.353-.176-3.481-3.556-5.909-3.97-2.655-.448-6.72 3.535-8.447 4.409-.655.334-.993-.812-.844-.881-.682.326.056 1.2-.846 1.762-1.952 1.221-6.998.083-10.132 0-2.641-.068-9.853-5.504-10.98-.881-.82 3.372 3.342 2.129 4.222 3.087.67.727-.447 1.466 0 2.644.585 1.54 5.292 5.387 8.023 6.174 2.272.651 5.122-.526 7.18-.441 2.184.089 4.915 1.553 7.599 1.762 2.223.174 4.227-.92 5.912-.88 1.514.037.43 1.114 1.265 1.322 2.094.515 6.262-.874 9.291-.881 2.977-.01 6.225 1.181 9.29 1.323 1.613.073 17.525-.51 10.134 3.525-2.25 1.228-1.4.368-2.534.441-3.634.236-11.285-1.517-17.31-1.323-5.417.176-12.846-1.804-19.426-1.762-2.625.015-4.367 1.502-7.6.881-4.76-.915-9.017.31-14.356-.44-1.08-.153-4.77-1.777-5.91-1.322-2.253.89-2.316 6.048-3.803 7.493-.385.374-1.083-.704-1.265-.44-.223.316.274 1.616 0 2.204-.19.404-1.683.548-2.113 1.321-.976 1.77-1.728 9.362-1.265 10.583.847 2.24 8.823 4.276 10.978 4.408 4.858.298 10.573 2.763 16.891 3.967 4.081.78 7.917-1.074 11.82-.44 2.372.385 6.62 2.9 6.757 3.967.582 4.536-4.741 2.68-5.49 2.647-4.415-.202-10.018-.445-13.087-2.206-1.96-1.122-5.115-1.236-8.024-.441-3.387.926-12.724 1.055-11.822 3.97.356 1.153 8.93 2.314 10.133 2.644 5.855 1.6 11.9 6.063 18.579 8.818 1.762.727 4.554.497 5.911 1.321 1.307.797.42.523 2.536.883 1.909.325 2.977 2.176 4.642 2.644 1.395.393 3.092.444 4.645 1.323 1.977 1.119 11.59 2.198 10.135 5.733.158-.38-.256.857-2.957.44-6.165-.953-17.605-9.024-24.912-11.462-4.277-1.429-10.982-1.995-13.514-3.527-1.896-1.152-.027-.959-2.11-.884-3.477.13-8.33-4.319-12.246-6.17-2.417-1.144-4.484-.876-8.865-2.204-3.556-1.08-8.539-4.43-10.557-3.969-4.069.929-5.02 3.108-9.288 5.29-3.933 2.007-8.112 1.917-9.29 4.85-.47 1.17.097 5.962.842 7.495 1.194 2.455 2.743 1.18 4.648 2.204 1.273.687 2.272 3.255 4.222 3.968 4.524 1.657 9.307-.219 10.977 2.646.419.717.527 3.804-.846 4.408-1.683.74-4.701-2.645-5.49-3.085-3.73-2.095-9.486-5.848-7.176 1.762.524 1.727-.41 1.872.844 3.086 1.79 1.732 8.708-.259 6.754 6.172.347-1.136-2.865 2.627-2.11 2.204-2.674 1.497-8.7-3.404-10.133-3.526-.951-.08-.712 1.036-2.111 1.322-2.213.455-7.24-1.187-9.29 0-1.133.657.446 1.295 0 2.204-.293.599-3.51 2.076-5.066 4.41-1.284 1.923-1.117 4.407-1.69 5.292-.069.104-1.708.54-1.69.44-.84 4.26 4.55 9.161.423 11.02-.268.12-1.578-.723-1.69-.44.023-.056 1.881 11.78-.844 10.581.182.08-2.117-5.346-2.11-7.054.011-2.493.525-3.836-2.956-4.85-2.167-.63-8.847-.32-10.136 1.323-1.956 2.497-1.545 9.966.846 11.462.925.578 2.19-.485 2.534-.44 2.846.378 12.313 3.462 6.756 8.377-1.32 1.165-10.631.978-12.668-.883-1.41-1.29-.002-.715-2.534-.441-2.442.264-3.315-1.457-5.912-2.204-1.316-.38-2.15.63-2.955.441-1.137-.268-.29-1.483-1.69-2.204-.477-.245-1.021 1.385-1.686.881-1.265-.953-2.025-3.7-3.8-4.85-4.747-3.066-7.233-6.968-13.513-6.612-3.008.17-8.016-1.802-10.978-.44-2.178.999-6.27 5.566-6.756 8.375-.011.059.488 5.137.42 4.85.216.914 1.611 4.408 2.958 6.614 1.131 1.857 5.977 6.6 1.686 9.258-.338.21-6.237.144-7.6-.883-1.325-.996-1.164-4.442-2.111-6.612-3.483-7.97-13.474-10.03-19.845-14.55-.468-.332-1.666.361-2.111 0-.562-.454-.526-2.268-1.267-3.085-.163-.18-1.923-.315-2.11-.44-3.482-2.328-6.16-9.456-10.98-10.14-8.331-1.188-5.503 8.988-5.911 14.107-.132 1.655-.647 3.391-.848 3.527-5.514 3.765-8.63-12-12.241-12.785-2.012-.438-4.162 2.878-6.335 2.644-1.477-.157-2.577-2.717-3.8-3.967-2.265-2.308-9.987-13.553-12.669-14.549-5.789-2.151-11.737 3.297-16.044 3.969-2.93.454-8.514-.099-12.248-1.765-2.168-.966-2.097-1.587-5.065-2.204-5.843-1.215-12.438-7.66-13.514-14.55-.256-1.649-.773-5.32.423-6.612.141-.15 1.188.178 1.267 0 .665-1.496 1.493-5.47 2.536-7.053.91-1.384 3.91-3.631 0-5.292-2.031-.86-4.502.465-6.337 0-5.651-1.43-9.7-8.712-8.02-14.547.176-.621 1.841-4.599 2.531-5.731.675-1.104 1.895-.366 2.113-1.765.716-4.602-3.613-9.812-6.335-10.139-4.359-.526-9.655 8.979-10.978 1.763-.692-3.77 4.184-7.271 5.49-7.935 7.977-4.073 4.726-11.583-2.113-16.314-1.96-1.355-2.692-4.006-3.8-4.408-1.861-.676-4.236 1.336-5.911 0-1.367-1.09-.066-3.6-2.534-4.41.12.04-10.88 2.634-7.176-.88 1.574-1.494 6.21-1.2 8.02-1.762 2.174-.68 4.171-2.265 5.489-2.648 1.948-.564 4.162.881 5.067-.881.532-1.029-.925-5.765-2.11-7.054-3.782-4.106 1.834-9.65-2.113-14.989-.951-1.287-4.873-2.99-6.755-3.085-2.88-.15-5.919-1.12-5.07-6.173.218-1.276 2.87-3.121 3.38-5.291.36-1.517-.372-2.669 0-3.527.393-.902 2.012-1.497 2.112-2.204.215-1.512-1.537-4.422-1.688-5.731-.319-2.706.735-5.173-.843-7.496-2.342-3.438-6.61-4.538-6.336-8.376.148-2.042 3.676-5.292 5.913-5.292 2.048.002 2.435 2.499 3.801 2.648.839.09.467-1.587.843-1.765 1.004-.473 2.73.43 3.799 0 1.218-.49 3.112-5.529 1.691-8.374-.688-1.38-2.546-.638-4.225-2.206-1.791-1.674-5.865-8.045-3.8-12.344.617-1.285 3.63-2.287 5.491-2.647 1.177-.225 6.84 1.583 8.867.441 1.432-.804.06-3.929 1.687-6.612.726-1.193 2.577-.894 2.537-2.646-.047-1.88-8.198-9.361-9.713-12.785-.66-1.488-7.18-6.559-8.868-10.58-3.154-7.52 2.306-5.073 3.799-2.646.283.459.374 3.276 2.114 3.969 2.963 1.18 8.074 1.388 10.555 2.643.747.38 1.182 1.746 1.267 1.765 3.745.83 9.578-1.642 10.133-6.614.303-2.706-1.784-6.201.845-8.817 3.288-3.264 8.578.474 10.557 0 2.885-.69 2.755-4.05 4.22-7.495 1.31-3.067 4.676-5.356 5.07-7.935.448-2.939-2.619-6.18-1.69-7.936.409-.771 2.664-.785 2.955-1.322.584-1.082-.836-3.714.846-4.85 1.334-.9 5.853.436 7.177 1.764.335.334-.61 1.229-.42 1.763.247.702 6.13 6.956 4.642 6.172 2.771 1.463 12.27-2.281 12.247-2.206.147-.454-4.63-3.5 0-5.289 1.797-.694.694 1.704.842 1.763 2.542 1.036 9.954-11.112 10.557-14.106.76-3.754-4.05-14.821 0-15.433.998-.149 2.587 1.817 2.955 1.765.58-.085.037-1.5.423-1.765 4.676-3.125 3.662 3.667 5.491 8.377.77 1.99 3.398 5.725 3.8 6.173.659.735 3.878 2.838 4.644 2.645 1.396-.347 2.545-9.85 2.955-13.226a134.7 134.7 0 00.846-10.581c.219-5.861-3.273-13.559 2.532-14.989 3.339-.823 5.272 1.295 5.49 5.731z" fill="url(#a)" transform="rotate(-24 1188.863 266.235)"/><path d="M324.742 193.379c-2.635 4.797-6.985-1.485-9.806-1.135-.665.08-2.371 2.829-3.812 3.41-3.791 1.534-9.037.982-11.438 2.844-1.656 1.285-2.036 2.96-3.815 4.55-3.275 2.93-6.975 10.233-10.89 10.805-2.077.304-8.99-3.198-10.895-5.686-1.22-1.59-1.765-7.8-5.994-10.804-.89-.637-2.812-.33-3.812-1.139-4.162-3.36-4.297-9.423-10.347-8.532-8.323 1.23-4.066 17.999-10.895 21.042-2.65 1.183-1.732-.58-2.178 1.709-.445 2.251-3.191 6.302-3.27 7.393-.222 3.14.909 6.755-2.176 9.664-.517.491-2.115.216-2.725 1.139-1.173 1.772-.206 5.813-4.903 5.686-10.138-.263-2.824-20.993-.546-26.158 1.415-3.206 5.586-18.036 2.723-25.025-.727-1.777-3.066-1.02-4.355-2.273-2.161-2.1-3.59-9.08-4.358-13.082-1.69-8.802.25-19.389-.545-29.571-.457-5.83-5.656-10.918-8.715-13.08-.781-.555-.902.587-2.18 0-1.03-.48-9.816-11.43-12.527-8.532-1.471 1.573-2.068-2.088-5.992-2.843-1.874-.363-5.402-2.04-8.713-3.413-3.728-1.543-9.514-5.258-11.986-7.393-2.1-1.815-1.622-3.953-3.268-4.55-1.579-.574-4.157 1.425-8.168.57-5.35-1.146-10.295-6.701-12.529-6.258-4.868.969-5.938 19.116-5.448 25.594.158 2.081 1.436 3.992 1.636 6.253.376 4.277-1.762 9.523-1.09 12.513 1.03 4.593 7.95 7.492 9.26 11.942 1.993 6.792-4.63 10.689-10.895 6.826-1.348-.83-1.903-3.851-2.723-4.55-1.236-1.054-5.456-3.702-6.538-3.98-4.17-1.073-9.95 2.93-15.796 1.137-.307-.093-.265-2.081-.545-2.276-.926-.648-2.905.25-3.266 0-2.148-1.488-4.232-5.392-6.538-6.256-9.44-3.54-16.005 11.553-26.143 5.689-1.585-.918-2.422-4.022-4.36-5.122-1.825-1.03-4.977-.738-7.08-1.702-3.227-1.485-4.311-4.391-8.715-4.552-2.458-.09-7.855 1.346-8.715-2.84-.32-1.549 2.597-3.406 2.723-4.553.35-3.115-4.38-9.177-6.535-10.236-2.511-1.236-7.54.017-9.806-2.276.007.008-1.625-4.379-1.632-4.547-.18-4.014 4.474-9.537 3.812-13.082-.22-1.168-2.14-2.1-2.18-2.843-.222-4.455 3-13.352 4.36-17.062 3.991-10.89 11.289-21.066 22.876-25.59 3.628-1.42 7.955-5.975 11.438-6.827 4.642-1.134 10.914.404 15.253 0 1.387-.129 2.55-1.72 3.811-1.704-.254-.004.41 2.252.546 2.274.91.141 2.712-2.205 4.9-2.274 4.263-.133 24.742 12.094 26.146 11.94 2.42-.262 1.166-2.368 3.814-5.119 4.04-4.196 14-3.447 13.073-11.94-.229-2.086-5.883-4.467-2.18-8.532 2.564-2.814 8.596-.506 13.075-2.274 7.206-2.848 10.104-17.504 5.991-25.59-1.293-2.542-12.198-13.358-10.897-18.202 1.103-4.102 3.903-2.807 8.174-3.98.772-.214 2.39-2.042 3.812-2.274.553-.09 2.553.64 2.721.568 5.927-2.488 8.386-9.506 4.903-15.353-2.432-4.085-10.027-4.138-11.436-9.67-.874-3.41 1.091-12.424 4.899-13.078.872-.151 4.642 1.073 5.992 1.701 7.376 3.435 9.351 6.884 16.886 3.415 2.882-1.329 7.778-2.207 9.804-4.55 2.355-2.72 2.556-7.816 4.903-10.807 3.9-4.964 13.553-7.332 7.624-16.49-1.25-1.935-5.483-5.117-9.804-4.55-1.951.256-4.185 2.85-7.626 2.844-.883-.003-5.973-2.252-5.99-2.276-5.36-7.754 6.21-13.613 8.17-18.199 2.005-4.69-.907-13.63.543-18.199.348-1.093 1.618-.706 1.637-1.706.156-8.8-6.63-9.859-13.073-15.925-1.081-1.015-2.473-4.978-4.357-6.254-5.316-3.6-12.672-6.492-8.172-14.788 3.915-7.212 15.773-1.614 21.788-5.117 2.019-1.175 6.46-8.128 7.08-9.099.586-.915 2.644-5.185 2.724-5.686.848-5.404-6.762-16.05-2.178-19.905 2.061-1.733 5.973-.78 9.258-2.276 3.096-1.412 8.68-5.18 10.352-8.532 3.077-6.166-2.024-24.353 5.992-25.022.37-.032 2.79 1.331 3.269 1.137 1.839-.745-.362-2.14.545-2.274 3.723-.557 8.335 2.634 11.981.567 1.667-.944 2.864-7.225 7.627-7.96 4.31-.664 12.648 3.635 17.427.567 5-3.205 2.024-12.18 8.172-12.512 5.652-.3 7.708 7.744 13.075 9.1 2.751.696 7.335-.073 10.347-2.274 3.045-2.225 2.322-6.071 4.903-8.53 4.428-4.223 6.936.417 7.624 1.137 1.546 1.612 1.105 3.751 2.182 7.393 1.029 3.49 4.055 8.91 7.079 9.666 8.078 2.028 14.48-12.813 21.785-5.686 1.604 1.563.03 3.267 1.091 5.12 4.668 8.142 11.998 8.378 19.61 10.235 8.419 2.055 1.58 15.57 5.446 21.042.903 1.276 5.139 4.603 7.081 5.12 3.511.934 13.019-2.323 15.25.567 2.805 3.624-3.81 9.705-4.355 12.512-1.073 5.523 1.779 7.47 2.723 11.375.163.672-.734 3.612-.543 3.98 1.837 3.542 20.398 9.401 16.884 17.062-.911 1.986-6.038 1.653-5.448 6.256.356 2.75 2.217 3.546 5.448 5.119 3.626 1.765 4.838 4.934 5.992 5.12 1.516.235-.91-1.627 0-2.277 5.206-3.729 14.614 12.71 4.358 16.492-1.166.429-2.341-.35-3.812 0-4.763 1.137-10.133 5.723-11.986 6.256-3.232.93-6.06-.596-7.622 1.707-.39.567-.385 3.24-.545 3.413-1.313 1.373-5.997 4.65-8.172 5.686-.667.317-2.152-.45-2.723 0-4.6 3.613-9.485 13.905-4.903 20.475 2.779 3.982 8.477 6.543 11.986 10.803 3.166 3.85 5.427 10.092 8.712 14.218 5.761 7.238 8.82 6.388 17.43 6.824 4.423.226 8.9 4.136 9.263 11.375.059 1.22-1.37 1.015-1.639 2.276-.368 1.755 1.856 4.277 2.18 6.823 1.052 8.216-2.334 11.604 1.091 18.199 1.14 2.2 4.654 4.043 5.99 6.256.317.526-.352 1.782 0 2.276 2.833 3.963 9.079 6.353 9.26 13.646.005.19-1.273 2.366-1.088 2.848.221.575 3.725 5.582 4.903 7.39 4.206 6.471 11.599 13.421 6.535 23.888-2.182 4.511-6.764 5.363-8.715 8.53-3.155 5.117-5.057 16.745-2.723 23.887 1.73 5.3 10.419 9.543 13.615 15.353 3.668 6.66-6.682 15.915-11.435 19.336-1.453 1.044-2.915.445-3.815 1.708-.634.889.418 3.209-.543 5.117-1.075 2.13-4.353 2.515-4.903 3.98-.527 1.402 1.182 2.413 1.089 3.983-.168 2.826-3.442 4.87-4.901 7.393-.753 1.295-.23 3.215-1.091 4.55-2.826 4.38-7.256 6.19-8.17 13.646-.485 3.936 2.586 6.75-.545 11.375-3.288 4.856-10.914 8.6-13.073 14.788-.447 1.278.226 3.523-.543 4.55-3.41 4.532-8.622-.35-14.71 0-2.904.168-9.67 2.824-10.892 3.98-.757.72-1.571 5.988-2.177 6.825-2.199 3.007-.823-.438-.546 3.413.119 1.646-1.637 8.815-3.814 9.67-1.117.435-3.124-.597-4.358 0-2.098 1.017-5.52 3.746-7.624 5.118-.652.422-.687 2.091-1.09 2.272-.574.258-2.619-1.008-3.267-.57-1.038.703.478 1.767-.546 2.846-1.268 1.336-10.328 4.442-11.981 3.98-2.098-.587-3.751-6.899-7.629-7.963-3.14-.862-5.957-2.68-6.535-2.843-.37-.102-2.338 2.631-1.634-1.706" fill="url(#b)" transform="rotate(129 240.831 -16.644)"/></g></svg>