<?xml version="1.0" encoding="UTF-8" standalone="no"?>
<svg width="1491px" height="566px" viewBox="0 0 1491 566" version="1.1" xmlns="http://www.w3.org/2000/svg" xmlns:xlink="http://www.w3.org/1999/xlink">
    <!-- Generator: Sketch 43.2 (39069) - http://www.bohemiancoding.com/sketch -->
    <title>bg</title>
    <desc>Created with Sketch.</desc>
    <defs>
        <linearGradient x1="41.959431%" y1="91.6891483%" x2="79.5314466%" y2="0%" id="linearGradient-1">
            <stop stop-color="#20BF65" offset="0%"></stop>
            <stop stop-color="#20BF65" stop-opacity="0" offset="100%"></stop>
        </linearGradient>
        <linearGradient x1="84.2820522%" y1="68.4179899%" x2="9.13914865%" y2="24.8492077%" id="linearGradient-2">
            <stop stop-color="#20BF65" offset="0%"></stop>
            <stop stop-color="#20BF65" stop-opacity="0" offset="100%"></stop>
        </linearGradient>
        <linearGradient x1="124.685784%" y1="100%" x2="21.8254815%" y2="10.9447173%" id="linearGradient-3">
            <stop stop-color="#20BF65" offset="0%"></stop>
            <stop stop-color="#20BF65" stop-opacity="0" offset="100%"></stop>
        </linearGradient>
        <linearGradient x1="-9.87640617%" y1="91.1013076%" x2="64.0065618%" y2="21.2948805%" id="linearGradient-4">
            <stop stop-color="#20BF65" offset="0%"></stop>
            <stop stop-color="#20BF65" stop-opacity="0" offset="100%"></stop>
        </linearGradient>
        <linearGradient x1="91.7973657%" y1="82.7725359%" x2="21.8254815%" y2="10.9447173%" id="linearGradient-5">
            <stop stop-color="#20BF65" offset="0%"></stop>
            <stop stop-color="#20BF65" stop-opacity="0" offset="100%"></stop>
        </linearGradient>
    </defs>
    <g id="Page-1" stroke="none" stroke-width="1" fill="none" fill-rule="evenodd">
        <g id="bg">
            <path d="M78.2480655,364.546015 C77.1353494,368.582218 82.1503532,370.91663 82.6678051,373.202948 C79.9988426,374.701264 78.6449083,375.444872 78.0924409,377.461124 C77.2559585,380.49475 79.0884385,382.033761 80.6719192,384.586446 C76.1432423,384.530953 72.8829063,388.034422 71.4900658,393.095398 C70.9337077,395.11165 71.1671447,398.411644 72.7584066,400.968029 C71.4005816,401.707938 53.8344512,399.480812 51.6051283,407.575415 C51.0487703,409.591667 51.8463465,410.86431 51.2822072,412.887961 C45.9559541,411.559824 46.0376571,407.260954 41.7774327,406.199184 C36.4550703,404.871048 32.9457348,409.39929 26.5962498,407.815885 C20.1922961,406.221382 22.1414947,399.151552 14.7026372,397.294381 C9.41139968,395.977343 7.23265482,399.747179 5.0889255,399.210745 C4.04624046,398.951777 4.04624046,398.951777 4.3263648,397.938102 C4.88661348,395.92555 8.62549529,394.693601 9.7343208,390.653699 C10.0183358,389.643723 7.43107623,382.522101 0,380.664929 C0.836482403,377.635003 3.49766363,376.147786 4.33803665,373.114159 C5.7269865,368.060582 3.06580527,369.555198 0.711982696,365.726169 C3.38094515,364.231553 5.0150038,362.485368 5.84759559,359.451742 C6.40784427,357.43549 6.96420233,355.40814 6.44675042,353.121822 C9.15072842,351.634605 12.6017047,351.423731 13.4420777,348.386405 C13.722202,347.380129 12.9246258,346.100087 13.2086407,345.090111 C13.4809838,344.080135 39.6920627,335.500892 42.6683838,333 C46.9247175,334.05807 50.3095532,338.149766 54.5619963,339.207835 C57.7406295,339.999538 60.4446075,338.508622 63.9072556,338.290348 C64.7748629,355.792893 83.5470842,345.349079 78.2480655,364.546015" id="Path" fill="url(#linearGradient-1)"></path>
            <path d="M879.164421,258.298863 C882.621496,258.978987 884.382705,255.049441 886.292649,254.557863 C887.670967,256.533753 888.356256,257.536793 890.083067,257.873961 C892.681426,258.385267 893.904593,256.920528 895.994707,255.603333 C896.138502,259.065391 899.235891,261.408638 903.570602,262.259617 C905.297577,262.599757 908.075943,262.282474 910.168856,260.959179 C910.851183,261.965347 909.70909,275.478915 916.64216,276.841201 C918.369135,277.18134 919.41082,276.51844 921.144375,276.864213 C920.246483,280.989171 916.610888,281.107758 915.893167,284.407099 C914.995111,288.529084 918.968826,291.019409 917.898339,295.936821 C916.820768,300.896313 910.765333,299.704883 909.509407,305.466058 C908.619418,309.563798 911.896323,311.069539 911.533347,312.729846 C911.358445,313.537318 911.358445,313.537318 910.490187,313.365996 C908.766174,313.022728 907.567864,310.218249 904.107826,309.541253 C903.24253,309.366802 897.334343,311.643219 896.078089,317.398449 C893.482856,316.886987 892.114243,314.916575 889.51572,314.402296 C885.187424,313.553978 886.562289,315.524079 883.426216,317.483523 C882.051024,315.507478 880.506854,314.332648 877.908659,313.824314 C876.18152,313.481202 874.445168,313.141529 872.535224,313.633107 C871.164809,311.63 870.841336,309.002476 868.239687,308.488353 C867.377681,308.316719 866.329744,308.979931 865.464447,308.80548 C864.599643,308.639947 856.247339,288.977 854.008994,286.808515 C854.723753,283.512302 858.038345,280.754147 858.753268,277.460906 C859.288348,274.999228 857.914808,272.996276 857.584591,270.360147 C872.33612,268.960383 862.721638,255.058923 879.164421,258.298863" id="Path" fill="#20BF65"></path>
            <path d="M994.838446,122.531466 C995.755208,122.711824 996.222254,121.66977 996.728741,121.539411 C997.094249,122.063386 997.275977,122.329377 997.733901,122.418788 C998.422945,122.554379 998.74731,122.165953 999.301576,121.816653 C999.339708,122.734737 1000.16109,123.35613 1001.31059,123.581796 C1001.76855,123.671996 1002.50533,123.587857 1003.06034,123.23694 C1003.24128,123.50376 1002.93842,127.087348 1004.77696,127.448605 C1005.23493,127.538805 1005.51116,127.363014 1005.97088,127.454708 C1005.73277,128.548582 1004.76867,128.58003 1004.57834,129.454963 C1004.34019,130.54805 1005.39395,131.208445 1005.11008,132.512466 C1004.82432,133.827646 1003.21852,133.511698 1002.88546,135.039472 C1002.64945,136.126128 1003.51844,136.525428 1003.42218,136.965715 C1003.3758,137.179844 1003.3758,137.179844 1003.14555,137.134412 C1002.68837,137.043383 1002.3706,136.299679 1001.45305,136.12015 C1001.22359,136.073888 999.656826,136.677558 999.323687,138.203756 C998.635472,138.068124 998.272537,137.545601 997.583449,137.409223 C996.435653,137.184262 996.800245,137.706702 995.968607,138.226316 C995.603928,137.7023 995.194438,137.390753 994.505437,137.255951 C994.047427,137.164963 993.586973,137.074887 993.080486,137.205246 C992.717073,136.674053 992.631293,135.977275 991.941377,135.840937 C991.712786,135.795423 991.434889,135.971296 991.205426,135.925034 C990.976093,135.881137 988.761193,130.66683 988.167618,130.091782 C988.357161,129.217677 989.236139,128.486257 989.425726,127.612941 C989.567621,126.960142 989.203379,126.428991 989.115811,125.72993 C993.027687,125.358735 990.478076,121.672284 994.838446,122.531466" id="Path" fill="#20BF65"></path>
            <path d="M944.062326,376.086445 C944.062326,387.584038 937.008822,393.271019 923.129348,404.706797 C930.107007,416.204389 965.222836,421.953186 965.222836,444.886556 C965.222836,553.619167 1063.44098,473.383278 1098.70849,565.178575 C1119.79316,559.367964 1133.97601,547.932186 1155.06068,547.932186 C1183.123,547.932186 1211.10948,565.178575 1239.24765,565.178575 C1253.43051,547.932186 1400.94733,467.758112 1400.94733,462.07113 C1400.94733,461.762055 1400.71979,461.45298 1400.71979,461.143905 C1435.98731,487.168026 1470.49639,517.890089 1475.72963,519.002759 C1482.5556,520.239059 1489.45742,521.59899 1491.05014,515.973823 C1491.05014,515.973823 1435.75978,460.525755 1394.42473,441.11584 C1397.23096,426.774757 1416.04031,421.025961 1429.0855,410.455593 C1422.33537,399.57615 1422.03199,388.758523 1422.03199,377.87908 C1423.70056,380.598941 1425.59667,383.256986 1427.7203,386.100477 C1434.54627,387.336777 1451.45951,378.929935 1453.05224,373.304769 C1456.31354,362.116251 1442.66159,359.458206 1435.75978,358.098275 C1432.1951,357.356495 1428.09952,358.407351 1424.91407,360.199986 C1428.09952,351.113179 1433.93952,343.509932 1443.04081,336.030315 C1422.03199,318.783926 1408.00083,330.219704 1408.00083,301.661167 C1408.00083,284.476593 1422.03199,273.040815 1422.03199,255.794426 C1372.80916,255.794426 1344.67099,221.487093 1344.67099,215.676481 C1344.67099,192.743111 1365.67981,181.369148 1365.67981,169.871555 C1365.67981,164.060944 1365.67981,164.060944 1358.92968,164.060944 C1344.67099,164.060944 1337.54164,186.9325 1302.5775,186.9325 C1253.43051,186.9325 1253.43051,147 1211.10948,147 C1169.09184,147 1155.06068,175.682167 1119.79316,175.682167 C1091.57915,175.682167 1084.82902,152.686981 1049.5615,152.686981 C1049.5615,164.060944 1056.69085,169.871555 1056.69085,181.369148 C1056.69085,227.174074 944.062326,238.609852 937.008822,244.358648 C951.191673,255.794426 958.321021,273.040815 958.321021,284.476593 C958.321021,313.15876 944.062326,336.030315 916,341.717297 C930.107007,353.153074 944.062326,358.901871 944.062326,376.086445 L944.062326,376.086445 Z" id="Path" fill="url(#linearGradient-2)"></path>
            <path d="M171.075443,163.14607 C171.819005,162.360817 172.668522,162.384865 174.356015,162.415436 C174.623022,161.222165 172.596492,158.776142 174.079618,157.209858 C181.111474,149.78373 169.214513,149.520311 172.742343,141.188687 C170.926542,140.35261 169.218329,140.304299 167.778307,139.071374 C165.86173,137.430431 165.065675,134.616043 163.143918,132.970665 C161.059927,133.319203 145.800004,130.168824 145.432221,130.557228 C145.412232,130.578337 145.407784,130.612751 145.387796,130.63386 C144.662133,126.79422 144.29209,122.678074 144.006632,122.296068 C143.620391,121.812483 143.236964,121.316021 142.7644,121.607069 C142.7644,121.607069 142.954688,128.627116 144.522494,132.369823 C143.403383,133.185184 141.746977,132.477935 140.172431,132.437044 C139.92986,133.574792 139.250992,134.331346 138.547406,135.074381 C138.609344,134.791052 138.651744,134.498641 138.690598,134.180259 C138.304356,133.696675 136.605551,133.281837 136.132986,133.572885 C135.186675,134.146325 135.947165,135.126159 136.330592,135.622621 C136.526077,135.881727 136.873754,136.049446 137.207243,136.113283 C136.402032,136.547617 135.511466,136.725403 134.406159,136.704042 C134.725659,139.110411 136.423511,139.149852 134.5766,141.100319 C133.465255,142.273976 131.767402,142.234536 130.652059,143.412415 C134.013839,146.290718 133.716903,150.27919 133.341125,150.676038 C131.857999,152.242322 129.687589,151.790641 128.944028,152.575894 C128.568249,152.972742 128.568249,152.972742 129.029264,153.367456 C130.003092,154.201233 131.969134,153.056059 134.357086,155.100585 C137.713685,157.974454 135.131207,160.70173 138.021613,163.17645 C140.891298,165.63343 143.704493,164.494991 146.113165,166.557258 C148.040101,168.207071 147.013992,170.17229 149.422663,172.234557 C150.15823,171.457748 150.047094,170.644011 150.790656,169.858758 C153.75291,166.730412 162.184682,172.53533 163.038197,172.555157 C162.809113,170.944784 163.437542,169.350016 164.177106,168.568985 C166.032013,166.610075 168.484969,165.881789 170.76933,167.134328 C170.545425,165.52839 169.964098,164.319727 171.075443,163.14607 L171.075443,163.14607" id="Path" fill="#20BF65"></path>
            <path d="M771.400298,408.758066 C771.681806,406.577962 772.824618,405.616802 775.079381,403.678983 C774.368109,401.382967 769.512591,399.709578 770.074094,395.361091 C772.736314,374.743872 756.797353,388.326135 754.027023,370.334609 C750.884834,371.086128 748.586906,373.018908 745.586984,372.668654 C741.594282,372.202488 738.034634,368.467426 734.031141,368 C731.590945,371.034553 708.639292,383.786154 708.500052,384.864485 C708.492484,384.92309 708.51729,384.985475 708.509723,385.04408 C704.129045,379.523686 699.971302,373.125097 699.25396,372.827186 C698.313032,372.479374 697.36434,372.106861 697,373.147013 C697,373.147013 703.509106,384.579212 708.915014,388.946252 C708.164615,391.618905 705.347671,392.3965 703.232799,394.184085 C703.926832,396.359111 703.705136,398.415323 703.438763,400.478217 C703.267953,399.934776 703.063255,399.399276 702.830725,398.824833 C701.889797,398.477021 699.277551,399.790116 698.913211,400.830268 C698.175253,402.897591 700.052569,403.628377 701.001261,404.00089 C701.49028,404.200758 702.098728,404.069536 702.595845,403.782544 C701.920137,405.452613 700.903065,406.797281 699.425003,408.064332 C701.991871,411.683482 704.268217,409.748182 703.568987,415.163279 C703.148238,418.421714 700.871893,420.357014 700.44963,423.62717 C707.453045,424.44485 710.616554,431.417425 710.474286,432.519197 C709.912784,436.867684 706.645171,438.675352 706.363663,440.855456 C706.221396,441.957228 706.221396,441.957228 707.181802,442.06936 C709.210527,442.306223 710.784878,438.087889 715.759569,438.668706 C722.752193,439.485126 721.774481,447.056885 727.795908,447.759914 C733.774169,448.457903 736.472777,443.252447 741.490633,443.838304 C745.504917,444.30699 745.902307,448.779329 750.920162,449.365187 C751.198643,447.208525 750.326549,445.98832 750.608057,443.808217 C751.729549,435.122964 768.034307,434.825544 769.178632,433.852664 C767.440694,431.448678 766.848594,428.060091 767.128589,425.891708 C767.830846,420.45317 770.41956,416.353266 774.551502,415.741101 C772.824355,413.338376 770.979549,412.016501 771.400298,408.758066 L771.400298,408.758066" id="Path" fill="url(#linearGradient-3)"></path>
            <path d="M917.481562,10.5764301 C916.443463,10.0065176 916.280499,9.15337914 915.769776,8.87299441 C914.220954,8.02269723 912.167452,9.16171315 911.460718,10.3256966 C910.088381,12.5859185 909.894297,14.0149218 909.20252,15.1542707 C906.43492,17.4450161 904.031732,19.1721507 900.936391,19.7474129 C895.784755,16.9191843 894.958339,10.3807462 891.871798,8.68624719 C891.871798,8.68624719 891.013317,8.97861623 890.665559,9.55137 C894.607332,13.2263088 897.160001,19.1768978 894.033916,24.3255231 C889.180257,32.3194414 877.842054,32.9267998 871.620629,38.6506872 L864.548231,34.7679682 C867.613806,33.8150577 871.362492,32.3831743 872.870959,30.7642827 C872.870959,30.7642827 873.331556,30.2616884 872.910462,29.8580675 C869.829204,31.3853863 865.34952,32.8265311 862.694086,33.7500497 L861.855834,33.289853 C862.01081,33.4734725 862.221415,33.6629973 862.391233,33.8465535 C861.35249,34.2041898 860.625775,34.4867827 860.504535,34.6255104 C860.044053,35.1035334 859.577905,35.6030801 860.010102,36.0127963 C860.010102,36.0127963 861.545994,35.6653243 863.561723,35.0639548 C865.835199,37.2564092 868.665884,39.3113471 871.102919,40.6492699 C871.613641,40.9296547 872.992136,40.9145594 874.019132,41.4783765 C876.594951,42.8924908 875.019124,46.6093982 873.291551,49.4546911 C868.434153,57.454768 865.214901,48.0671171 862.092555,53.2095838 C861.206332,54.6691821 866.815058,56.9518326 867.286437,61.661264 C866.859677,61.2791667 865.964658,62.2412447 865.504177,62.7192677 C865.473964,63.6223719 865.473964,63.6223719 865.893246,64.0167865 C866.160946,64.2951368 866.633847,64.3330466 867.048188,64.1992111 C867.040594,64.2360996 867.040478,64.2606708 867.025521,64.2853054 L859.298933,64.6008341 C858.782659,64.3174017 858.431161,64.8963141 858.431161,64.8963141 C857.391626,66.6084168 858.409823,69.4419951 859.447922,70.0119075 C860.991193,70.8591571 863.048434,69.7139825 863.559157,69.9943672 C866.134975,71.4084815 864.921748,74.5525718 864.396675,76.5389006 C861.649093,76.5414089 858.550013,77.1228297 856.811221,79.9865985 C856.467203,80.5531937 856.126923,81.1136302 857.159471,81.6804949 C857.675745,81.9639273 859.553744,82.2476927 860.93031,82.2479624 C864.533126,84.2258938 866.582059,87.6171306 864.15523,91.6140897 C863.115694,93.3261924 854,95.9173712 854,95.9173712 L861.884377,98.7431548 C861.901031,98.7522978 861.925164,98.7491235 861.940006,98.7490601 C861.677066,99.8282239 862.017408,101.230376 862.648992,101.848093 C863.498543,102.667589 866.13047,102.40451 867.506479,100.942822 C867.517697,100.924346 867.517927,100.875203 867.536624,100.84441 C869.485469,103.425239 871.642348,107.138507 872.677036,109.225678 C869.550951,114.374303 863.870992,115.805212 862.483698,118.090068 C862.132201,118.668981 862.315674,119.500532 862.826396,119.780917 C866.42366,121.755801 871.610119,113.213764 875.729208,115.475127 C877.27803,116.325425 878.129524,118.312023 877.093728,120.017967 C876.850671,120.418279 876.368907,120.687541 875.867523,121.184167 C875.791847,121.101563 875.725346,121.04042 875.629277,120.954832 C874.33771,120.631709 874.33771,120.631709 873.880853,121.128145 C872.515947,122.595928 876.294574,126.246992 876.723031,126.662867 C876.736902,126.079252 876.907561,125.688463 877.087164,125.368277 C878.658638,124.950012 881.163067,123.787573 883.078277,124.839016 C887.702537,127.377717 885.275708,131.374676 882.512338,135.925913 C884.073699,134.50029 886.136492,133.358163 887.679762,134.205413 C890.25003,135.61648 890.058248,139.321339 892.117793,140.452021 C893.661063,141.299271 896.607414,135.312935 905.350764,140.113 C907.404757,141.240634 905.499753,145.524073 904.815455,146.651105 C911.667284,148.910024 914.135469,138.079147 922.362544,142.595779 C923.389541,143.159596 924.242846,145.155401 925.264292,145.71617 C926.574406,146.435418 928.118536,145.123509 929.871492,143.589572 L930.178051,143.889255 L930.076464,143.398274 C932.431189,141.324284 935.128664,138.953983 938.015357,140.538766 C939.053456,141.108678 939.390603,142.79648 940.067914,143.948415 C940.837228,143.680998 941.538887,143.598149 942.186269,143.616886 C942.129847,144.965447 942.296172,146.288487 942.722817,146.695156 C943.563077,147.517763 943.969329,147.921447 944.860195,147.843934 C945.863424,146.752398 946.19163,145.602314 946.172687,144.499783 C947.781372,144.849195 949.455356,144.725342 951.747781,142.485765 C952.774283,143.550214 953.351621,143.867171 954.679249,142.436402 C955.14347,141.952221 955.623061,140.564998 954.767959,139.742455 C954.636885,139.604804 954.492781,139.476422 954.354228,139.351088 C955.000441,138.43307 955.682351,137.419688 956.433958,136.181801 C958.98202,137.580677 961.68387,139.811232 963.880435,141.78902 C960.925771,142.827455 958.367444,143.61542 958.110122,143.892939 C957.662555,144.386264 957.200146,144.879651 957.626791,145.28632 C957.626791,145.28632 967.757836,142.973373 970.487648,140.037806 C970.487648,140.037806 970.938954,139.538323 970.523412,139.13775 C969.372373,139.704717 968.002444,140.266475 966.621528,140.797566 C968.102223,137.980969 964.826609,134.671749 963.336434,131.603691 C968.67007,128.463521 975.387867,125.286732 980.198242,124.142096 C980.714516,124.425529 980.89425,125.263239 981.410524,125.546671 C982.437521,126.110488 983.806609,126.123075 984.509604,124.965251 C985.376884,122.40312 985.388932,117.86055 985.059379,116.135861 C987.299978,115.846809 995.574906,108.983906 999.693995,111.245269 L1008.43734,116.045334 C1006.73485,114.338788 1000.38577,110.105921 1001.08129,108.960413 C1001.76933,107.827223 1002.9886,106.95283 1003.32888,106.392394 C1004.02439,105.246886 1003.84466,104.409176 1003.68543,103.549879 C1002.30694,103.564974 1000.9323,103.54934 999.389029,102.70209 C997.879066,101.873127 996.759691,100.437442 996.742858,98.490281 C996.995634,98.3909196 997.252379,98.2362569 997.479902,97.983436 C997.951602,97.486937 997.519405,97.0772208 997.519405,97.0772208 C997.410421,96.9763314 997.178385,97.0049635 996.905216,97.1013406 C996.98455,96.8000104 997.062071,96.4894738 997.182307,96.169541 C1000.29717,91.0393916 1005.29283,90.7355143 1008.41892,85.586889 C1008.7592,85.0264525 1008.9347,83.6036712 1009.62648,82.4643223 C1011.01377,80.1794658 1013.23254,82.1694449 1014.97133,79.305676 C1016.00713,77.599732 1014.65239,75.3204316 1014.99267,74.7599951 L1015.34417,74.1810827 C1012.93313,73.6293132 1010.35176,72.2121512 1007.27077,70.5206998 C1005.58032,64.2715832 1009.95906,49.1603145 1007.40084,43.2066778 C1005.34685,42.0790436 1003.11048,44.6285868 1001.56721,43.7813373 C997.621694,40.1125572 997.624943,37.8397483 999.012236,35.5548919 C999.715231,34.3970671 1000.91954,33.5473092 1001.60758,32.4141189 C1002.30684,31.2624527 1002.13832,30.4062666 1000.6006,29.5620647 C997.488492,30.1527551 996.452696,31.8586991 993.377257,30.1702954 C985.144631,25.6506154 994.966568,19.6288029 991.363753,17.6508715 C989.354171,16.5476185 986.147948,19.4022914 981.893533,19.09488 C982.635979,19.0180002 983.366548,18.7046774 984.050813,17.9799921 C985.417531,16.5214151 984.611107,14.8141168 983.33865,13.5817938 C982.079108,12.3647724 979.449108,12.6124867 978.086014,14.0894762 C976.717369,15.5634182 976.685344,16.4573161 977.10825,16.8701433 C977.664157,17.4052568 978.361006,17.9520544 979.126975,18.3972028 C978.801143,18.2511684 978.469413,18.1758001 978.125231,17.9868452 C969.387433,13.1898281 979.548213,8.88959424 974.91285,6.34479802 C971.731937,4.59848876 970.653996,11.7255357 966.174941,11.0566641 C966.122888,10.2890501 965.875731,9.58676666 965.370559,9.30942959 C964.948658,9.07780742 964.283585,9.27106827 963.679196,9.97391341 C960.555987,7.79122703 959.544052,3.22845505 958.084052,2.42692043 C957.057055,1.86310331 952.570681,4.72938052 951.187127,7.00807833 C948.61686,5.59701168 949.161951,1.32244583 947.096855,0.188716253 C945.7221,0.1976529 945.370603,0.776565315 945.022844,1.34931909 C943.987048,3.05526312 944.673765,4.17951674 943.286472,6.46437319 C942.938713,7.03712696 935.016604,11.063674 929.870519,8.23849308 C929.354245,7.95506068 929.015286,6.2580533 929.555317,4.24708996 C930.239615,3.12005834 929.732141,0.566864787 928.699593,-1.42108547e-14 C927.334129,0.00582566404 926.477575,0.282829758 926.126077,0.861742174 C924.742523,3.14043998 925.399932,6.55604167 924.360397,8.26814434 C922.976842,10.5468421 918.503007,11.1371996 917.481562,10.5764301 L917.481562,10.5764301" id="Path" fill="url(#linearGradient-4)"></path>
            <path d="M1408.53778,194.587017 C1408.74387,194.618055 1408.82725,194.741472 1408.92864,194.756742 C1409.23611,194.80305 1409.49235,194.512639 1409.52896,194.292858 C1409.60005,193.866086 1409.53598,193.633527 1409.57181,193.418396 C1409.86667,192.909699 1410.14021,192.50865 1410.60273,192.248115 C1411.62546,192.402143 1412.19607,193.37138 1412.80883,193.463665 C1412.80883,193.463665 1412.92823,193.370788 1412.94624,193.262642 C1412.06275,192.910248 1411.25203,192.127761 1411.41396,191.155605 C1411.66537,189.646206 1413.4598,188.924683 1414.08424,187.691992 L1415.48828,187.903449 C1415.05581,188.22096 1414.54479,188.650612 1414.40882,188.985361 C1414.40882,188.985361 1414.36786,189.088859 1414.46298,189.128218 C1414.85961,188.720674 1415.48832,188.249145 1415.85638,187.958886 L1416.02279,187.983949 C1415.98544,187.964019 1415.93869,187.94625 1415.89894,187.927152 C1416.04316,187.814171 1416.14189,187.730102 1416.15225,187.70186 C1416.19483,187.602183 1416.2369,187.498851 1416.13957,187.459161 C1416.13957,187.459161 1415.91422,187.598066 1415.62817,187.802929 C1415.11373,187.588367 1414.51831,187.425978 1414.0345,187.353113 C1413.9331,187.337843 1413.71101,187.416447 1413.50713,187.385741 C1412.99577,187.308726 1413.00246,186.644577 1413.09194,186.107334 C1413.34355,184.596772 1414.4918,185.875915 1414.65353,184.904923 C1414.69944,184.629324 1413.63919,184.585272 1413.24824,183.880308 C1413.34284,183.916012 1413.42341,183.717156 1413.466,183.617478 C1413.41054,183.475619 1413.41054,183.475619 1413.31633,183.437589 C1413.25441,183.409191 1413.17534,183.429468 1413.11723,183.473165 C1413.11599,183.467018 1413.11437,183.463198 1413.11514,183.458546 L1414.34455,182.982123 C1414.44704,182.997559 1414.46525,182.888249 1414.46525,182.888249 C1414.5191,182.564973 1414.16498,182.181447 1413.9589,182.150409 C1413.65252,182.104267 1413.39609,182.39584 1413.29469,182.38057 C1412.78333,182.303556 1412.76961,181.748385 1412.72187,181.411001 C1413.16638,181.258612 1413.6291,180.996913 1413.71916,180.456181 C1413.73698,180.349198 1413.75461,180.243377 1413.54962,180.212505 C1413.44713,180.197069 1413.12423,180.256913 1412.90143,180.333025 C1412.18618,180.225305 1411.62799,179.812235 1411.7537,179.057536 C1411.80754,178.734259 1413.10972,177.827741 1413.10972,177.827741 L1411.64488,177.825271 C1411.64158,177.824773 1411.63788,177.826601 1411.63549,177.827432 C1411.60594,177.645368 1411.45717,177.446542 1411.31368,177.385594 C1411.12143,177.305382 1410.71305,177.491822 1410.58802,177.794841 C1410.58744,177.798329 1410.59068,177.80597 1410.58971,177.811785 C1410.10187,177.518977 1409.50469,177.061892 1409.19778,176.795142 C1409.35971,175.822987 1410.18336,175.286646 1410.25522,174.855223 C1410.27343,174.745913 1410.18817,174.626982 1410.08678,174.611712 C1409.37264,174.504158 1409.10399,176.117052 1408.28625,175.993896 C1407.97877,175.947588 1407.70823,175.686315 1407.76188,175.364202 C1407.77447,175.288615 1407.83445,175.220166 1407.88241,175.115338 C1407.90018,175.123974 1407.91503,175.129787 1407.93629,175.137758 C1408.16691,175.116465 1408.16691,175.116465 1408.20768,175.01413 C1408.33051,174.710779 1407.47502,174.353066 1407.37789,174.312213 C1407.41464,174.403574 1407.41313,174.473677 1407.40546,174.533315 C1407.17907,174.685178 1406.85142,175.00417 1406.4712,174.946907 C1405.55318,174.808647 1405.67888,174.053947 1405.82202,173.19459 C1405.66458,173.502264 1405.40704,173.793672 1405.10067,173.74753 C1404.59041,173.670682 1404.3739,173.08497 1403.96504,173.023392 C1403.65866,172.97725 1403.58179,174.069499 1401.84603,173.808082 C1401.43826,173.74667 1401.46037,172.976369 1401.49582,172.763564 C1400.23597,172.791966 1400.56018,174.609776 1398.92691,174.363796 C1398.72302,174.33309 1398.45157,174.070489 1398.24879,174.039949 C1397.9887,174.000778 1397.82645,174.289847 1397.64524,174.624935 L1397.5756,174.595374 L1397.62485,174.665969 C1397.38233,175.118179 1397.10413,175.635346 1396.53106,175.549037 C1396.32497,175.517999 1396.15763,175.274655 1395.97105,175.13331 C1395.86441,175.217381 1395.75638,175.269058 1395.65036,175.301963 C1395.56939,175.089506 1395.45407,174.893333 1395.35785,174.853809 C1395.16689,174.772601 1395.07417,174.732411 1394.93517,174.793728 C1394.84574,175.018666 1394.86946,175.215349 1394.94619,175.385446 C1394.66249,175.420201 1394.39985,175.532034 1394.17847,176.006501 C1393.94122,175.898055 1393.82661,175.880793 1393.70734,176.176336 C1393.66456,176.277176 1393.67962,176.519045 1393.87298,176.599423 C1393.90339,176.613539 1393.93529,176.625496 1393.96608,176.637286 C1393.92284,176.815538 1393.88018,177.010569 1393.84125,177.244305 C1393.3354,177.16812 1392.74909,176.971343 1392.26145,176.78585 C1392.67025,176.461199 1393.03165,176.197354 1393.05475,176.140039 C1393.09423,176.038701 1393.1361,175.936532 1393.03988,175.897008 C1393.03988,175.897008 1391.55478,176.816506 1391.30913,177.423208 C1391.30913,177.423208 1391.26946,177.525709 1391.36347,177.564902 C1391.51188,177.413215 1391.69606,177.250228 1391.88406,177.091393 C1391.83262,177.610525 1392.58386,177.943001 1393.03003,178.336814 C1392.37663,179.119323 1391.50166,179.98409 1390.79961,180.427887 C1390.69712,180.412451 1390.61206,180.292357 1390.50957,180.276921 C1390.30568,180.246215 1390.08327,180.320001 1390.04685,180.53862 C1390.07768,180.984316 1390.37924,181.690121 1390.54781,181.939612 C1390.2045,182.108434 1389.32381,183.631535 1388.50608,183.508379 L1386.77031,183.246962 C1387.15987,183.417684 1388.47024,183.723509 1388.43422,183.939802 C1388.39858,184.153769 1388.25967,184.356952 1388.24204,184.462773 C1388.20602,184.679066 1388.29108,184.79916 1388.37426,184.923739 C1388.59635,184.845136 1388.81987,184.771516 1389.12625,184.817658 C1389.42601,184.862804 1389.7031,185.023739 1389.83593,185.325064 C1389.80165,185.354472 1389.77044,185.392683 1389.7505,185.444515 C1389.70734,185.547681 1389.80466,185.587371 1389.80466,185.587371 C1389.82904,185.597003 1389.86468,185.579722 1389.90245,185.54965 C1389.90975,185.600814 1389.91795,185.653307 1389.91986,185.709621 C1389.75852,186.678288 1388.97031,187.001825 1388.80839,187.97398 C1388.79076,188.079801 1388.85742,188.310367 1388.82159,188.525497 C1388.74973,188.95692 1388.25767,188.770762 1388.16761,189.311495 C1388.11395,189.633608 1388.4855,189.912476 1388.46787,190.018297 L1388.44967,190.127606 C1388.87674,190.079875 1389.38921,190.157055 1390.00086,190.249174 C1390.69198,191.125701 1390.99298,193.713647 1391.8048,194.4963 C1392.21257,194.557712 1392.40416,194.03823 1392.71054,194.084373 C1393.59422,194.435603 1393.74555,194.788589 1393.67369,195.220012 C1393.63728,195.438631 1393.49915,195.637162 1393.46351,195.851129 C1393.42729,196.068585 1393.51177,196.192167 1393.81704,196.238144 C1394.28125,195.974285 1394.3349,195.652172 1394.94545,195.744124 C1396.57982,195.990271 1395.39256,197.468393 1396.10781,197.576113 C1396.50676,197.636198 1396.83493,197.015697 1397.54401,196.828057 C1397.42899,196.881064 1397.33169,196.970117 1397.26936,197.120463 C1397.14563,197.422485 1397.39021,197.642895 1397.67849,197.763794 C1397.96365,197.883031 1398.37275,197.699084 1398.49467,197.394404 C1398.61769,197.08989 1398.56315,196.94936 1398.46712,196.908673 C1398.3414,196.856361 1398.19208,196.810033 1398.03837,196.783307 C1398.10087,196.78795 1398.15959,196.781298 1398.22792,196.791589 C1399.96258,197.05284 1398.60545,198.282468 1399.52569,198.42106 C1400.15717,198.516166 1399.85543,197.350208 1400.62503,197.20625 C1400.68474,197.322526 1400.77166,197.417868 1400.87195,197.432972 C1400.95571,197.445586 1401.05043,197.378794 1401.10129,197.236256 C1401.75259,197.402293 1402.22123,198.054586 1402.51108,198.098239 C1402.71496,198.128945 1403.24954,197.435823 1403.3212,197.005563 C1403.83146,197.082412 1404.02885,197.776104 1404.43882,197.837848 C1404.66072,197.760407 1404.67893,197.651098 1404.69694,197.542952 C1404.75059,197.220838 1404.56433,197.084311 1404.63619,196.652888 C1404.65421,196.544742 1405.66731,195.481443 1406.68893,195.635306 C1406.79142,195.650742 1406.95967,195.895415 1407.00663,196.23745 C1406.97118,196.450255 1407.22391,196.81851 1407.42889,196.849383 C1407.64949,196.772939 1407.76961,196.682554 1407.78782,196.573245 C1407.85949,196.142985 1407.52487,195.649153 1407.57872,195.325876 C1407.65039,194.895616 1408.335,194.556477 1408.53778,194.587017 L1408.53778,194.587017" id="Path" fill="#20BF65"></path>
            <path d="M530.666374,286.375365 C533.276298,286.768435 534.332201,288.3314 535.616228,288.524782 C539.510178,289.111235 542.755245,285.433432 543.218851,282.650087 C544.119082,277.24539 543.307713,274.300218 543.761508,271.57578 C547.495642,265.133562 550.959781,260.054621 556.817224,256.755162 C569.769146,258.705799 576.995527,270.980363 584.755515,272.149064 C584.755515,272.149064 586.267665,270.972863 586.495789,269.603281 C575.30715,265.140518 565.040057,255.23098 567.09072,242.919464 C570.274643,223.804216 592.999489,214.666741 600.907594,199.055766 L618.688573,201.733689 C613.211689,205.754692 606.739987,211.195867 605.018076,215.435181 C605.018076,215.435181 604.499311,216.745895 605.703913,217.244334 C610.7269,212.083146 618.689016,206.111631 623.350148,202.43575 L625.457627,202.753149 C624.984617,202.500758 624.392594,202.27573 623.889217,202.033861 C625.715606,200.603065 626.965961,199.538398 627.097069,199.18074 C627.636388,197.91841 628.169109,196.609798 626.936594,196.107155 C626.936594,196.107155 624.082648,197.866271 620.460066,200.460682 C613.945187,197.743448 606.404613,195.686928 600.277573,194.764159 C598.993546,194.570777 596.180959,195.56622 593.598949,195.177353 C587.122988,194.202034 587.207705,185.791157 588.340966,178.987425 C591.527342,159.85745 606.068967,176.056708 608.117176,163.759918 C608.698524,160.269692 595.271401,159.71181 590.320332,150.784051 C591.518335,151.236208 592.538693,148.717866 593.078012,147.455536 C592.375765,145.659008 592.375765,145.659008 591.182667,145.177397 C590.398463,144.817754 589.397127,145.074542 588.661141,145.627927 C588.645492,145.55009 588.624937,145.501706 588.634749,145.442799 L604.204168,139.4093 C605.502151,139.604784 605.732728,138.220475 605.732728,138.220475 C606.414647,134.126454 601.930093,129.269427 599.320169,128.876357 C595.440175,128.292006 592.192656,131.984536 590.908629,131.791154 C584.432668,130.815835 584.258895,123.785063 583.654334,119.512387 C589.283653,117.58251 595.143549,114.268324 596.284169,107.420411 C596.50984,106.065555 596.733058,104.725426 594.137091,104.334458 C592.839107,104.138974 588.749852,104.896854 585.928214,105.860742 C576.870243,104.496556 569.801225,99.26539 571.393187,89.7077658 C572.075106,85.613745 588.566072,74.1334713 588.566072,74.1334713 L570.015197,74.1021878 C569.973327,74.0958819 569.926551,74.1190293 569.896184,74.129552 C569.521962,71.8238697 567.637951,69.3059003 565.820772,68.53405 C563.386109,67.5182418 558.214321,69.8793327 556.630876,73.7168093 C556.623517,73.7609893 556.664627,73.8577574 556.652362,73.9313909 C550.474218,70.2232387 542.911465,64.4346368 539.024692,61.0564826 C541.075354,48.7449667 551.506214,41.9526656 552.416256,36.4890623 C552.646833,35.1047531 551.567162,33.5985932 550.283135,33.405211 C541.239121,32.0431278 537.836886,52.4690519 527.480931,50.9093825 C523.586981,50.32293 520.160782,47.0141412 520.840248,42.9348471 C520.999689,41.977612 521.759274,41.110762 522.366684,39.7832063 C522.591685,39.8925734 522.779722,39.9661812 523.049046,40.0671276 C525.969654,39.797471 525.969654,39.797471 526.485965,38.5014835 C528.041496,34.659803 517.207444,30.1296738 515.977382,29.6123043 C516.442783,30.7693174 516.423671,31.6571101 516.326484,32.4123755 C513.459512,34.3355872 509.310047,38.3753543 504.494947,37.6501711 C492.868922,35.8992216 494.460884,26.3415974 496.273611,15.4585708 C494.279751,19.3550055 491.018275,23.0454333 487.138282,22.4610828 C480.676278,21.4878659 477.934451,14.0703296 472.756473,13.2904949 C468.87648,12.7061444 467.903036,26.5385468 445.921057,23.2279279 C440.757036,22.4501952 441.037057,12.6949849 441.485946,10 C425.531039,10.3596849 429.636899,33.3806973 408.952904,30.2655625 C406.370893,29.8766962 402.933191,26.5510787 400.365137,26.1643143 C397.07133,25.668247 395.016567,29.3290674 392.721665,33.5726624 L391.839763,33.1983046 L392.463425,34.0923263 C389.392109,39.8191776 385.869019,46.3686603 378.611477,45.2756306 C376.001553,44.8825603 373.882389,41.800811 371.519452,40.0108068 C370.168946,41.0754866 368.800928,41.7299339 367.458201,42.1466521 C366.432745,39.4560636 364.972344,36.9717002 363.753786,36.4711594 C361.335533,35.4427264 360.161298,34.9337649 358.400968,35.710281 C357.268366,38.5589287 357.568829,41.049752 358.540571,43.2038865 C354.947754,43.6440344 351.621558,45.0602968 348.818045,51.0690187 C345.813435,49.6956429 344.361927,49.4770369 342.85148,53.2198346 C342.309708,54.4968915 342.50055,57.5599539 344.94917,58.5778641 C345.334294,58.7566351 345.738281,58.9080547 346.12831,59.0573723 C345.580622,61.314786 345.040463,63.7846794 344.547421,66.7447448 C338.141244,65.7799359 330.716129,63.2879216 324.540529,60.9388035 C329.717723,56.8273765 334.294523,53.4860058 334.587105,52.7601682 C335.087007,51.4768053 335.617275,50.1829198 334.398716,49.682379 C334.398716,49.682379 315.59126,61.3270435 312.480198,69.0104046 C312.480198,69.0104046 311.977844,70.3084941 313.168488,70.8048309 C315.047911,68.8838495 317.380379,66.8197538 319.761315,64.808246 C319.109775,71.382606 328.623597,75.5931315 334.273925,80.5804426 C325.999195,90.4902524 314.918475,101.441787 306.02768,107.062092 C304.729696,106.866608 303.652478,105.345721 302.354494,105.150237 C299.772484,104.761371 296.955752,105.695805 296.494598,108.464423 C296.884992,114.108784 300.704037,123.047207 302.838851,126.206793 C298.491105,128.344779 287.337933,147.633558 276.981979,146.073888 L255,142.763269 C259.933444,144.925311 276.528184,148.798327 276.071936,151.537492 C275.620594,154.247203 273.861457,156.820338 273.638239,158.160467 C273.181991,160.899632 274.25921,162.420518 275.312659,163.99821 C278.125247,163.002767 280.955935,162.070435 284.835929,162.654785 C288.632182,163.226524 292.14127,165.264626 293.823378,169.080646 C293.389366,169.453069 292.99401,169.936986 292.741606,170.593395 C292.194929,171.899905 293.427444,172.402548 293.427444,172.402548 C293.736186,172.524527 294.187539,172.305677 294.665875,171.924833 C294.758247,172.572782 294.862122,173.23756 294.886402,173.950734 C292.843098,186.21807 282.861128,190.315386 280.810465,202.626902 C280.587247,203.967031 281.431436,206.886954 280.977641,209.611392 C280.067598,215.074995 273.836171,212.717469 272.695552,219.565382 C272.016086,223.644676 276.721405,227.1763 276.498187,228.516429 L276.267611,229.900739 C281.676165,229.296264 288.166082,230.273685 295.912113,231.440284 C304.664602,242.540749 308.476484,275.31487 318.757533,285.226509 C323.921554,286.004242 326.347892,279.425447 330.227886,280.009798 C341.418978,284.457834 343.335479,288.928097 342.425437,294.3917 C341.964283,297.160318 340.214957,299.674546 339.763615,302.384257 C339.304915,305.138149 340.374774,306.703216 344.240811,307.285464 C350.11957,303.943927 350.799036,299.864633 358.53111,301.02913 C379.229062,304.146366 364.193443,322.865521 373.251414,324.229706 C378.30378,324.990623 382.459741,317.132515 391.439706,314.75621 C389.983042,315.427499 388.750788,316.555277 387.961519,318.459288 C386.394484,322.28414 389.491976,325.075444 393.142745,326.60652 C396.754095,328.116563 401.934934,325.787027 403.478961,321.928518 C405.036946,318.072111 404.346203,316.292411 403.130097,315.777144 C401.537919,315.114661 399.646981,314.527952 397.700386,314.189494 C398.49178,314.248298 399.235465,314.164052 400.100788,314.294375 C422.06881,317.602892 404.881968,333.175085 416.535906,334.930238 C424.53316,336.134673 420.711888,321.368811 430.458126,319.545699 C431.214338,321.01824 432.315154,322.225662 433.585224,322.416943 C434.645942,322.576693 435.845546,321.730824 436.489581,319.925709 C444.737807,322.02842 450.672701,330.289159 454.343342,330.841979 C456.925352,331.230846 463.695291,322.453056 464.602881,317.00418 C471.064885,317.977396 473.564631,326.762413 478.756565,327.54435 C481.5667,326.563634 481.797276,325.179325 482.0254,323.809742 C482.704866,319.730448 480.346074,318.001453 481.256117,312.537849 C481.484241,311.168267 494.314286,297.702505 507.252251,299.65104 C508.550234,299.846524 510.680902,302.945102 511.275652,307.276686 C510.826763,309.97167 514.02729,314.635315 516.623257,315.026283 C519.416982,314.058192 520.938183,312.913547 521.16876,311.529238 C522.07635,306.080361 517.838782,299.8264 518.520701,295.73238 C519.428291,290.283503 528.098321,285.988601 530.666374,286.375365 L530.666374,286.375365" id="Path" fill="url(#linearGradient-5)"></path>
            <path d="M925.797713,368.705541 C925.72688,368.6618 925.718721,368.601199 925.683873,368.57968 C925.57819,368.514419 925.429283,368.587363 925.375041,368.666787 C925.269713,368.821011 925.250515,368.920879 925.197421,368.998622 C924.993801,369.150101 924.818007,369.263201 924.597979,369.292825 C924.246462,369.075758 924.213669,368.612795 924.003061,368.482742 C924.003061,368.482742 923.941522,368.500304 923.914832,368.539385 C924.177936,368.811787 924.334473,369.23944 924.094545,369.590751 C923.722026,370.136209 922.92188,370.139187 922.461924,370.520122 L921.979345,370.222123 C922.198744,370.165823 922.468066,370.078216 922.580484,369.969595 C922.580484,369.969595 922.614842,369.935846 922.586778,369.905969 C922.364048,370.002632 922.043255,370.088327 921.852829,370.143998 L921.795632,370.108678 C921.805824,370.122141 921.819908,370.136215 921.831145,370.149726 C921.756669,370.171248 921.704439,370.188584 921.695371,370.19792 C921.661116,370.229941 921.626379,370.263456 921.655201,370.2938 C921.655201,370.2938 921.764619,370.274737 921.908784,370.239491 C922.06025,370.40173 922.251457,370.556248 922.417745,370.658934 C922.452594,370.680453 922.549648,370.684225 922.619724,370.727498 C922.795482,370.836031 922.670188,371.092039 922.537597,371.286185 C922.164791,371.832062 921.97468,371.16023 921.735039,371.511122 C921.667021,371.610716 922.052816,371.790997 922.067721,372.12402 C922.039174,372.095638 921.972467,372.160195 921.938213,372.192215 C921.932584,372.255654 921.932584,372.255654 921.960557,372.284877 C921.978314,372.305401 922.011441,372.309727 922.041115,372.301762 C922.040437,372.304331 922.040334,372.30606 922.039186,372.307741 L921.494296,372.302849 C921.459068,372.281096 921.432091,372.320597 921.432091,372.320597 C921.352306,372.437421 921.412961,372.640371 921.483795,372.684112 C921.589098,372.749138 921.738293,372.675774 921.773142,372.697293 C921.9489,372.805827 921.851341,373.022801 921.806692,373.160724 C921.613354,373.151266 921.393039,373.18131 921.259586,373.376716 C921.233183,373.415377 921.207066,373.453618 921.277521,373.497125 C921.312749,373.518879 921.44379,373.54543 921.540648,373.550276 C921.786483,373.702083 921.917501,373.947885 921.731242,374.220614 C921.651457,374.337438 921,374.487797 921,374.487797 L921.543811,374.714274 C921.544947,374.714976 921.546657,374.714837 921.547702,374.714885 C921.525016,374.789896 921.543526,374.889749 921.58557,374.935429 C921.642169,374.99607 921.82838,374.986787 921.930869,374.888764 C921.93173,374.887503 921.931937,374.884046 921.933372,374.881945 C922.06049,375.070373 922.197854,375.339213 922.262564,375.489701 C922.022636,375.841013 921.617428,375.921779 921.510953,376.077685 C921.483975,376.117186 921.49366,376.17634 921.528509,376.19786 C921.773965,376.349432 922.172027,375.766574 922.453089,375.940134 C922.558771,376.005395 922.610981,376.148164 922.531483,376.264567 C922.512829,376.291882 922.477886,376.309139 922.440681,376.342325 C922.435677,376.336247 922.431235,376.331712 922.424807,376.325353 C922.335181,376.298088 922.335181,376.298088 922.30111,376.331417 C922.199379,376.429909 922.451096,376.700058 922.479631,376.730823 C922.48287,376.689807 922.496394,376.662908 922.510273,376.641008 C922.622469,376.617088 922.803196,376.544077 922.933879,376.624776 C923.249411,376.819621 923.063151,377.09235 922.851062,377.4029 C922.966453,377.308063 923.116027,377.234933 923.22133,377.299959 C923.39671,377.408259 923.368848,377.668272 923.509379,377.755052 C923.614683,377.820078 923.845212,377.409193 924.441807,377.777598 C924.581959,377.864144 924.431306,378.158861 924.378786,378.235763 C924.852141,378.418733 925.067813,377.665293 925.62918,378.011946 C925.699256,378.055219 925.751557,378.198642 925.821255,378.241681 C925.910649,378.296883 926.024387,378.209988 926.153679,378.108202 L926.174087,378.130364 L926.168843,378.09546 C926.342572,377.957785 926.541567,377.800462 926.738537,377.922094 C926.809371,377.965835 926.826548,378.085776 926.869739,378.169205 C926.924907,378.153086 926.974599,378.149717 927.020079,378.153305 C927.010879,378.247996 927.017451,378.341673 927.045894,378.371783 C927.101827,378.432611 927.128847,378.46244 927.191832,378.460109 C927.266655,378.386823 927.294209,378.307051 927.297151,378.229407 C927.408988,378.259633 927.527255,378.256789 927.697243,378.107243 C927.765342,378.185741 927.804737,378.210067 927.903701,378.114049 C927.938243,378.081608 927.977368,377.985681 927.92039,377.924806 C927.911701,377.914661 927.90206,377.905122 927.892797,377.895817 C927.941826,377.833489 927.993738,377.764575 928.051423,377.680109 C928.225288,377.787473 928.406748,377.953895 928.553636,378.100761 C928.341709,378.163468 928.158642,378.209941 928.13946,378.228566 C928.106054,378.261708 928.071604,378.294803 928.100047,378.324914 C928.100047,378.324914 928.821869,378.197692 929.025331,378.000708 C929.025331,378.000708 929.059023,377.967146 929.031338,377.937503 C928.948148,377.97336 928.849577,378.008084 928.750352,378.040611 C928.865461,377.847618 928.647812,377.603286 928.554857,377.382182 C928.942326,377.179932 929.42733,376.979959 929.770242,376.916287 C929.80547,376.93804 929.814868,376.997614 929.850095,377.019368 C929.920171,377.062641 930.016456,377.068327 930.070411,376.989324 C930.141371,376.812086 930.159835,376.492499 930.143335,376.369989 C930.302112,376.357507 930.910976,375.903628 931.192038,376.077188 L931.788632,376.445593 C931.675457,376.319546 931.245132,375.999445 931.298513,375.921283 C931.35132,375.84396 931.440502,375.786711 931.466619,375.74847 C931.52,375.670307 931.510602,375.610733 931.502731,375.549712 C931.405677,375.54594 931.309014,375.54002 931.20371,375.474994 C931.100679,375.411371 931.027484,375.306426 931.033851,375.169359 C931.052022,375.163254 931.070688,375.153272 931.087677,375.13628 C931.122793,375.102999 931.093971,375.072655 931.093971,375.072655 C931.086694,375.065174 931.070256,375.066375 931.050661,375.072198 C931.057412,375.051274 931.064071,375.029695 931.073772,375.007606 C931.312838,374.657555 931.665527,374.65369 931.905454,374.302378 C931.931571,374.264137 931.949437,374.164642 932.002531,374.086899 C932.109006,373.930994 932.257409,374.078795 932.390861,373.883389 C932.470359,373.766985 932.383874,373.601856 932.409991,373.563615 L932.436968,373.524114 C932.26946,373.476835 932.093322,373.368068 931.883094,373.238249 C931.788383,372.792614 932.155087,371.744692 931.998171,371.316806 C931.858019,371.23026 931.690774,371.401812 931.58547,371.336785 C931.322079,371.064804 931.331122,370.904893 931.437597,370.748988 C931.491552,370.669985 931.579586,370.614416 931.632393,370.537094 C931.686061,370.458511 931.677524,370.397676 931.572599,370.332884 C931.351331,370.363534 931.271833,370.479938 931.061984,370.350352 C930.500238,370.003466 931.214693,369.614193 930.968858,369.462387 C930.831736,369.377712 930.595066,369.567333 930.296904,369.530784 C930.349443,369.527978 930.402063,369.508494 930.453021,369.459902 C930.554843,369.362064 930.504722,369.239106 930.419967,369.147934 C930.336061,369.057884 930.150046,369.066092 930.048406,369.165238 C929.946388,369.26415 929.940668,369.326935 929.968824,369.357466 C930.005865,369.397067 930.052776,369.437985 930.104946,369.471993 C930.082586,369.460575 930.059537,369.454109 930.036052,369.439606 C929.439836,369.071434 930.171456,368.804485 929.855167,368.609172 C929.63812,368.475142 929.534634,368.972843 929.222068,368.910074 C929.221382,368.85588 929.206715,368.805598 929.172245,368.784313 C929.143457,368.766535 929.095911,368.777802 929.050658,368.825137 C928.839364,368.660605 928.785856,368.336006 928.686234,368.274488 C928.616158,368.231215 928.289367,368.417164 928.183179,368.572649 C928.0078,368.464349 928.062731,368.165489 927.921821,368.078475 C927.825054,368.074283 927.798077,368.113784 927.771386,368.152866 C927.691889,368.269269 927.735848,368.350783 927.629373,368.506688 C927.602683,368.54577 927.029644,368.801311 926.678505,368.584478 C926.643278,368.562725 926.626009,368.442129 926.671805,368.302525 C926.724325,368.225624 926.698519,368.044193 926.628064,368.000687 C926.531964,367.996308 926.47062,368.012796 926.443642,368.052297 C926.337454,368.207782 926.370466,368.45042 926.290681,368.567243 C926.184493,368.722728 925.867411,368.74858 925.797713,368.705541 L925.797713,368.705541" id="Path-Copy" fill="#20BF65"></path>
            <path d="M1207.99924,220.74024 C1207.92841,220.696499 1207.92025,220.635898 1207.8854,220.614379 C1207.77972,220.549118 1207.63081,220.622062 1207.57657,220.701486 C1207.47124,220.85571 1207.45205,220.955578 1207.39895,221.033321 C1207.19533,221.1848 1207.01954,221.2979 1206.79951,221.327524 C1206.44799,221.110457 1206.4152,220.647494 1206.20459,220.517441 C1206.20459,220.517441 1206.14305,220.535003 1206.11636,220.574084 C1206.37947,220.846486 1206.536,221.274139 1206.29608,221.62545 C1205.92356,222.170908 1205.12341,222.173886 1204.66345,222.554821 L1204.18088,222.256822 C1204.40027,222.200522 1204.6696,222.112915 1204.78201,222.004294 C1204.78201,222.004294 1204.81637,221.970545 1204.78831,221.940668 C1204.56558,222.037331 1204.24479,222.123026 1204.05436,222.178697 L1203.99716,222.143377 C1204.00735,222.15684 1204.02144,222.170914 1204.03268,222.184425 C1203.9582,222.205947 1203.90597,222.223283 1203.8969,222.232619 C1203.86265,222.26464 1203.82791,222.298155 1203.85673,222.328499 C1203.85673,222.328499 1203.96615,222.309436 1204.11031,222.27419 C1204.26178,222.436429 1204.45299,222.590947 1204.61928,222.693633 C1204.65412,222.715152 1204.75118,222.718924 1204.82125,222.762197 C1204.99701,222.87073 1204.87172,223.126738 1204.73913,223.320884 C1204.36632,223.866761 1204.17621,223.194929 1203.93657,223.545821 C1203.86855,223.645415 1204.25435,223.825696 1204.26925,224.158719 C1204.2407,224.130337 1204.174,224.194894 1204.13974,224.226914 C1204.13411,224.290353 1204.13411,224.290353 1204.16209,224.319576 C1204.17984,224.3401 1204.21297,224.344426 1204.24264,224.336461 C1204.24197,224.33903 1204.24186,224.340759 1204.24072,224.34244 L1203.69583,224.337548 C1203.6606,224.315795 1203.63362,224.355296 1203.63362,224.355296 C1203.55384,224.47212 1203.61449,224.67507 1203.68532,224.718811 C1203.79063,224.783837 1203.93982,224.710473 1203.97467,224.731992 C1204.15043,224.840526 1204.05287,225.0575 1204.00822,225.195423 C1203.81488,225.185965 1203.59457,225.216009 1203.46112,225.411415 C1203.43471,225.450076 1203.4086,225.488317 1203.47905,225.531824 C1203.51428,225.553578 1203.64532,225.580129 1203.74218,225.584975 C1203.98801,225.736782 1204.11903,225.982584 1203.93277,226.255313 C1203.85299,226.372137 1203.20153,226.522496 1203.20153,226.522496 L1203.74534,226.748973 C1203.74648,226.749675 1203.74819,226.749536 1203.74923,226.749584 C1203.72655,226.824595 1203.74506,226.924448 1203.7871,226.970128 C1203.8437,227.030769 1204.02991,227.021486 1204.1324,226.923463 C1204.13326,226.922202 1204.13347,226.918745 1204.1349,226.916644 C1204.26202,227.105072 1204.39938,227.373912 1204.46409,227.5244 C1204.22417,227.875712 1203.81896,227.956478 1203.71248,228.112384 C1203.68551,228.151885 1203.69519,228.211039 1203.73004,228.232559 C1203.9755,228.384131 1204.37356,227.801273 1204.65462,227.974833 C1204.7603,228.040094 1204.81251,228.182863 1204.73301,228.299266 C1204.71436,228.326581 1204.67942,228.343838 1204.64221,228.377024 C1204.63721,228.370946 1204.63276,228.366411 1204.62634,228.360052 C1204.53671,228.332787 1204.53671,228.332787 1204.50264,228.366116 C1204.40091,228.464608 1204.65263,228.734757 1204.68116,228.765522 C1204.6844,228.724506 1204.69792,228.697607 1204.7118,228.675707 C1204.824,228.651787 1205.00473,228.578776 1205.13541,228.659475 C1205.45094,228.85432 1205.26468,229.127049 1205.05259,229.437599 C1205.16798,229.342762 1205.31756,229.269632 1205.42286,229.334658 C1205.59824,229.442958 1205.57038,229.702971 1205.71091,229.789751 C1205.81621,229.854777 1206.04674,229.443892 1206.64334,229.812297 C1206.78349,229.898843 1206.63284,230.19356 1206.58032,230.270462 C1207.05367,230.453432 1207.26934,229.699992 1207.83071,230.046645 C1207.90079,230.089918 1207.95309,230.233341 1208.02279,230.27638 C1208.11218,230.331582 1208.22592,230.244687 1208.35521,230.142901 L1208.37562,230.165063 L1208.37037,230.130159 C1208.5441,229.992484 1208.7431,229.835161 1208.94007,229.956793 C1209.0109,230.000534 1209.02808,230.120475 1209.07127,230.203904 C1209.12644,230.187785 1209.17613,230.184416 1209.22161,230.188004 C1209.21241,230.282695 1209.21898,230.376372 1209.24742,230.406482 C1209.30336,230.46731 1209.33038,230.497139 1209.39336,230.494808 C1209.46819,230.421522 1209.49574,230.34175 1209.49868,230.264106 C1209.61052,230.294332 1209.72879,230.291488 1209.89877,230.141942 C1209.96687,230.22044 1210.00627,230.244766 1210.10523,230.148748 C1210.13977,230.116307 1210.1789,230.02038 1210.12192,229.959505 C1210.11323,229.94936 1210.10359,229.939821 1210.09433,229.930516 C1210.14336,229.868188 1210.19527,229.799274 1210.25295,229.714808 C1210.42682,229.822172 1210.60828,229.988595 1210.75517,230.13546 C1210.54324,230.198167 1210.36017,230.24464 1210.34099,230.263265 C1210.30758,230.296407 1210.27313,230.329502 1210.30158,230.359613 C1210.30158,230.359613 1211.0234,230.232391 1211.22686,230.035407 C1211.22686,230.035407 1211.26055,230.001845 1211.23287,229.972202 C1211.14968,230.008059 1211.05111,230.042783 1210.95188,230.07531 C1211.06699,229.882317 1210.84934,229.637985 1210.75639,229.416881 C1211.14386,229.214631 1211.62886,229.014658 1211.97177,228.950986 C1212.007,228.972739 1212.0164,229.032313 1212.05163,229.054067 C1212.1217,229.09734 1212.21799,229.103026 1212.27194,229.024023 C1212.3429,228.846785 1212.36137,228.527198 1212.34487,228.404688 C1212.50364,228.392206 1213.11251,227.938327 1213.39357,228.111887 L1213.99016,228.480292 C1213.87699,228.354245 1213.44666,228.034144 1213.50004,227.955982 C1213.55285,227.878659 1213.64203,227.82141 1213.66815,227.783169 C1213.72153,227.705006 1213.71213,227.645432 1213.70426,227.584411 C1213.60721,227.580639 1213.51054,227.574719 1213.40524,227.509693 C1213.30221,227.44607 1213.22901,227.341125 1213.23538,227.204058 C1213.25355,227.197953 1213.27222,227.187971 1213.28921,227.170979 C1213.32432,227.137698 1213.2955,227.107354 1213.2955,227.107354 C1213.28822,227.099873 1213.27179,227.101074 1213.25219,227.106897 C1213.25894,227.085973 1213.2656,227.064394 1213.2753,227.042305 C1213.51437,226.692254 1213.86706,226.688389 1214.10698,226.337077 C1214.1331,226.298836 1214.15097,226.199341 1214.20406,226.121598 C1214.31054,225.965693 1214.45894,226.113494 1214.59239,225.918088 C1214.67189,225.801684 1214.5854,225.636555 1214.61152,225.598314 L1214.6385,225.558813 C1214.47099,225.511534 1214.29485,225.402767 1214.08462,225.272948 C1213.98991,224.827313 1214.35662,223.779391 1214.1997,223.351505 C1214.05955,223.264959 1213.8923,223.436511 1213.787,223.371484 C1213.52361,223.099503 1213.53265,222.939592 1213.63913,222.783687 C1213.69308,222.704684 1213.78112,222.649115 1213.83392,222.571793 C1213.88759,222.49321 1213.87905,222.432375 1213.77413,222.367583 C1213.55286,222.398233 1213.47336,222.514637 1213.26351,222.385051 C1212.70177,222.038165 1213.41622,221.648892 1213.17039,221.497086 C1213.03327,221.412411 1212.7966,221.602032 1212.49843,221.565483 C1212.55097,221.562677 1212.60359,221.543193 1212.65455,221.494601 C1212.75637,221.396763 1212.70625,221.273805 1212.6215,221.182633 C1212.53759,221.092583 1212.35158,221.100791 1212.24994,221.199937 C1212.14792,221.298849 1212.1422,221.361634 1212.17035,221.392165 C1212.20739,221.431766 1212.25431,221.472684 1212.30648,221.506692 C1212.28412,221.495274 1212.26107,221.488808 1212.23758,221.474305 C1211.64137,221.106133 1212.37299,220.839184 1212.0567,220.643871 C1211.83965,220.509841 1211.73616,221.007542 1211.4236,220.944773 C1211.42291,220.890579 1211.40824,220.840297 1211.37378,220.819012 C1211.34499,220.801234 1211.29744,220.812501 1211.25219,220.859836 C1211.04089,220.695304 1210.98739,220.370705 1210.88776,220.309187 C1210.81769,220.265914 1210.4909,220.451863 1210.38471,220.607348 C1210.20933,220.499048 1210.26426,220.200188 1210.12335,220.113174 C1210.02658,220.108982 1209.99961,220.148483 1209.97292,220.187565 C1209.89342,220.303968 1209.93738,220.385482 1209.8309,220.541387 C1209.80421,220.580469 1209.23117,220.83601 1208.88004,220.619177 C1208.84481,220.597424 1208.82754,220.476828 1208.87334,220.337224 C1208.92586,220.260323 1208.90005,220.078892 1208.82959,220.035386 C1208.73349,220.031007 1208.67215,220.047495 1208.64517,220.086996 C1208.53898,220.242481 1208.572,220.485119 1208.49221,220.601942 C1208.38602,220.757427 1208.06894,220.783279 1207.99924,220.74024 L1207.99924,220.74024" id="Path-Copy" fill="#20BF65"></path>
            <path d="M669.009133,181.252003 C668.700655,181.401461 668.67862,181.838575 668.802845,182.070406 C669.044063,182.520574 669.267588,182.701203 669.389183,182.928127 C669.488505,183.596916 669.530017,184.150023 669.301882,184.688539 C668.275831,185.185663 667.072325,184.62387 666.457579,184.921716 C666.457579,184.921716 666.416985,185.085075 666.478111,185.19915 C667.521168,184.978079 668.806311,185.211391 669.35579,186.236843 C670.208928,187.828991 669.117192,189.643435 669.438536,191.207402 L668.029926,191.889876 C668.190444,191.316139 668.341204,190.586442 668.223839,190.182876 C668.223839,190.182876 668.186589,190.058777 668.073277,190.081231 C668.009181,190.717952 667.782929,191.561478 667.660636,192.068798 L667.493682,192.149688 C667.541373,192.145122 667.595937,192.132591 667.645182,192.125727 C667.596726,192.323797 667.568355,192.465783 667.579258,192.499127 C667.612325,192.620617 667.64847,192.745251 667.763993,192.721726 C667.763993,192.721726 667.866602,192.447978 667.976451,192.073381 C668.590493,191.953559 669.239805,191.733216 669.725189,191.498046 C669.82691,191.448762 669.969673,191.234357 670.17422,191.135253 C670.687246,190.886691 671.155724,191.521859 671.459383,192.088556 C672.313179,193.681931 670.370912,193.189142 670.919734,194.213367 C671.075507,194.504075 672.056599,193.878863 672.910387,194.302627 C672.800153,194.328224 672.870052,194.567835 672.903119,194.689324 C673.05413,194.789207 673.05413,194.789207 673.165679,194.766062 C673.241429,194.754082 673.297762,194.685072 673.318596,194.606995 C673.324094,194.612056 672.570131,195.84568 672.570131,195.84568 C672.467305,195.8955 672.529089,196.010802 672.529089,196.010802 C672.71181,196.351801 673.302968,196.493367 673.509726,196.393192 C673.817099,196.244269 673.838476,195.805929 673.940197,195.756645 C674.453223,195.508083 674.862129,196.026878 675.145913,196.317367 C674.856652,196.741807 674.629174,197.281549 674.934805,197.851925 C674.995274,197.964774 675.055086,198.076396 675.260739,197.976757 C675.363565,197.926938 675.610021,197.666928 675.755204,197.45444 C676.472777,197.106775 677.267824,197.148011 677.694394,197.944085 C677.877115,198.285085 677.358425,199.965577 677.358425,199.965577 L678.672184,199.046311 C678.83559,199.19272 679.110878,199.288012 679.282937,199.255636 C679.51243,199.210884 679.745007,198.776826 679.640518,198.410284 C680.273019,198.366497 681.134431,198.425021 681.599886,198.485344 C682.149365,199.510796 681.794816,200.538543 682.038663,200.993617 C682.100447,201.108919 682.26177,201.168269 682.363491,201.118985 C683.079958,200.771855 682.168322,199.070538 682.988721,198.673053 C683.2972,198.523594 683.726168,198.601595 683.908233,198.941368 C683.950955,199.021098 683.946134,199.123863 683.978065,199.253629 C683.722444,199.431555 683.722444,199.431555 683.759037,199.554427 C683.865738,199.919898 684.887518,199.721496 685.003698,199.699198 C684.905514,199.635523 684.856784,199.567974 684.821052,199.506488 C684.915325,199.219782 684.980903,198.710584 685.362355,198.52577 C686.283369,198.079536 686.709938,198.875611 687.195662,199.78208 C687.116873,199.390726 687.139355,198.951849 687.446728,198.802926 C687.958648,198.5549 688.570996,198.975127 688.981195,198.776385 C689.288568,198.627462 688.577108,197.541434 690.318521,196.697716 C690.727615,196.499509 691.258116,197.245228 691.378397,197.469699 C692.486503,196.650072 690.897471,195.127083 692.536057,194.333184 C692.740604,194.234081 693.171336,194.312773 693.374777,194.214205 C693.635712,194.087781 693.574521,193.711076 693.497439,193.278723 C693.380544,192.644714 693.260246,191.978363 693.835188,191.699802 C694.041946,191.599627 694.365668,191.72553 694.633762,191.74242 C694.669215,191.595457 694.729048,191.478399 694.800504,191.380431 C695.024808,191.531326 695.26824,191.645142 695.382658,191.622153 C695.611702,191.579164 695.72346,191.559008 695.804154,191.413302 C695.72356,191.143337 695.561799,190.97141 695.371555,190.858089 C695.600825,190.646579 695.756173,190.375088 695.615489,189.785052 C695.905461,189.738809 696.02045,189.683097 695.916138,189.327284 C695.882414,189.204567 695.696125,188.984266 695.465527,189.029554 C695.428204,189.035276 695.391091,189.043987 695.355083,189.052162 C695.266474,188.855608 695.165346,188.643489 695.033235,188.396939 C695.540732,188.151055 696.206445,187.969117 696.775726,187.838536 C696.641505,188.404167 696.506306,188.882204 696.526559,188.95119 C696.5636,189.072299 696.599088,189.195707 696.713505,189.172717 C696.713505,189.172717 697.386753,187.364809 697.173351,186.633867 C697.173351,186.633867 697.135653,186.511531 697.023446,186.533449 C696.998891,186.770925 696.950368,187.041645 696.89545,187.310828 C696.570661,186.78527 695.660283,186.942059 694.979327,186.848635 C695.005523,185.694139 695.171405,184.322093 695.483149,183.458777 C695.585976,183.408958 695.747956,183.469533 695.850783,183.419714 C696.05533,183.320611 696.201828,183.110576 696.078261,182.879972 C695.732244,182.475943 694.957916,181.99514 694.628696,181.864175 C694.81558,181.487793 694.51627,179.486712 695.336669,179.089227 L697.078082,178.245509 C696.607204,178.328413 695.215074,178.862303 695.092821,178.634152 C694.971883,178.408455 694.951143,178.128031 694.891331,178.016409 C694.769078,177.788258 694.607098,177.727682 694.443594,177.661664 C694.30083,177.87607 694.153226,178.08664 693.845853,178.235563 C693.545114,178.381272 693.181965,178.402712 692.847732,178.200013 C692.857418,178.150513 692.858081,178.094569 692.838903,178.032788 C692.803864,177.907618 692.688341,177.931143 692.688341,177.931143 C692.659624,177.937331 692.640048,177.976172 692.627702,178.028506 C692.584618,177.984487 692.53977,177.939778 692.497822,177.887484 C691.950315,176.865713 692.425145,176.062437 691.875666,175.036985 C691.815854,174.925363 691.591433,174.748258 691.469838,174.521334 C691.22599,174.06626 691.799693,173.933535 691.494062,173.363158 C691.311998,173.023386 690.779994,172.992215 690.720183,172.880593 L690.658399,172.765291 C690.309983,173.079336 689.795852,173.328433 689.182211,173.625744 C687.937006,173.227845 685.818579,170.958602 684.532331,170.725825 C684.123237,170.924032 684.322756,171.538095 684.015383,171.687018 C682.972983,171.909316 682.585266,171.669182 682.341418,171.214108 C682.217851,170.983504 682.19974,170.707987 682.078802,170.482289 C681.955892,170.252912 681.791939,170.188656 681.485672,170.337043 C681.258403,170.879774 681.440467,171.219547 680.827932,171.516322 C679.18824,172.310756 679.195646,170.159526 678.478074,170.507191 C678.077825,170.701112 678.227186,171.497074 677.726137,172.121465 C677.79129,171.998739 677.81482,171.852918 677.763232,171.670873 C677.658294,171.306093 677.281765,171.250582 676.937198,171.317097 C676.596604,171.383231 676.361607,171.815371 676.470071,172.181533 C676.577429,172.548231 676.726677,172.647422 676.841752,172.62566 C676.991729,172.596257 677.158561,172.546328 677.315325,172.475011 C677.256037,172.509916 677.208193,172.553183 677.139642,172.586396 C675.399335,173.429578 675.736409,171.40755 674.813184,171.854855 C674.179642,172.161808 675.282861,173.079658 674.696412,173.700618 C674.559861,173.627721 674.413895,173.591833 674.31328,173.640581 C674.22925,173.681294 674.192125,173.804345 674.248406,173.971755 C673.54644,174.22379 672.6607,173.898941 672.369912,174.039829 C672.165365,174.138932 672.181735,175.133749 672.424925,175.587597 C671.913005,175.835623 671.240637,175.300785 670.829332,175.500063 C670.685912,175.713242 670.747695,175.828544 670.808822,175.94262 C670.990886,176.282392 671.255244,176.294911 671.499092,176.749986 C671.560218,176.864061 671.412448,178.511624 670.387502,179.008212 C670.284676,179.058032 669.959191,178.931438 669.672777,178.636042 C669.552496,178.411572 669.063059,178.220722 668.857407,178.320361 C668.714434,178.531777 668.67142,178.693219 668.733203,178.808521 C668.976394,179.262369 669.628887,179.520999 669.811608,179.861999 C670.054799,180.315847 669.6839,181.068768 669.480459,181.167335 C669.273701,181.26751 669.110854,181.202719 669.009133,181.252003" id="Path-Copy" fill="#20BF65"></path>
            <path d="M241.897987,300.793755 C241.72554,300.941401 241.550607,300.918895 241.465766,300.991534 C241.208479,301.211819 241.306172,301.639462 241.489265,301.83282 C241.844794,302.208284 242.109867,302.327747 242.289085,302.517013 C242.567057,303.13857 242.757703,303.662614 242.683918,304.238925 C241.828139,304.97163 240.51273,304.725172 240,305.164163 C240,305.164163 240.005253,305.331947 240.095346,305.427091 C241.04269,304.956848 242.347546,304.865926 243.157416,305.721205 C244.414846,307.049138 243.854176,309.070441 244.590261,310.502032 L243.415409,311.507922 C243.414293,310.91423 243.361303,310.172293 243.138092,309.811363 C243.138092,309.811363 243.068333,309.70066 242.964994,309.750236 C243.076389,310.381035 243.087442,311.251501 243.107402,311.771632 L242.968154,311.890855 C243.012977,311.874708 243.062271,311.849175 243.10797,311.830425 C243.115077,312.033672 243.126319,312.177802 243.145927,312.207326 C243.210935,312.316539 243.279772,312.42803 243.384956,312.376876 C243.384956,312.376876 243.409557,312.087202 243.413704,311.698335 C243.974209,311.431475 244.541421,311.058838 244.946256,310.712225 C245.031096,310.639586 245.110637,310.397351 245.281239,310.251284 C245.709129,309.884931 246.334528,310.383161 246.782088,310.855815 C248.040486,312.184771 246.03027,312.186781 246.839171,313.041037 C247.068764,313.283502 247.846252,312.438138 248.78629,312.637338 C248.686779,312.689193 248.819515,312.903436 248.884523,313.012649 C249.057575,313.071963 249.057575,313.071963 249.159023,313.022154 C249.228932,312.991939 249.264561,312.911416 249.263435,312.830872 C249.270123,312.834408 249.274873,312.835898 249.278748,312.83999 L248.877626,314.211554 C248.791864,314.284982 248.882926,314.38115 248.882926,314.38115 C249.152236,314.665561 249.761784,314.656814 249.93423,314.509168 C250.190595,314.289672 250.091934,313.861007 250.176774,313.788368 C250.604663,313.422015 251.140845,313.822498 251.494027,314.033247 C251.330149,314.514414 251.257332,315.091749 251.707798,315.567472 C251.796923,315.661594 251.885079,315.754692 252.056603,315.607835 C252.142366,315.534407 252.309653,315.222602 252.392053,314.981624 C252.990545,314.469204 253.769726,314.313368 254.39844,314.977334 C254.667751,315.261745 254.624142,317.01263 254.624142,317.01263 L255.642924,315.80136 C255.645691,315.798992 255.64652,315.794577 255.647395,315.791975 C255.840613,315.902565 256.132458,315.92686 256.289842,315.853241 C256.499334,315.753534 256.605842,315.277027 256.405145,314.94869 C256.402239,314.945621 256.392738,314.942641 256.387894,314.937526 C257.004176,314.750732 257.852166,314.595261 258.31818,314.538976 C259.12805,315.394255 259.06532,316.47424 259.424724,316.853796 C259.515786,316.949963 259.687767,316.967587 259.772607,316.894948 C260.370177,316.383318 259.026529,314.964333 259.710783,314.378485 C259.96807,314.1582 260.403653,314.127971 260.671995,314.411358 C260.734963,314.477857 260.758278,314.578307 260.824441,314.695793 C260.80392,314.7041 260.788104,314.712084 260.765785,314.723783 C260.625959,314.930567 260.625959,314.930567 260.694749,315.040246 C260.897291,315.367004 261.830252,314.923894 261.936404,314.873763 C261.824235,314.836422 261.758779,314.783167 261.707529,314.73257 C261.720552,314.432432 261.645299,313.924445 261.96345,313.65205 C262.731622,312.994352 263.360337,313.658319 264.076238,314.414361 C263.893612,314.055732 263.795873,313.626277 264.052237,313.406781 C264.479205,313.041218 265.185067,313.296423 265.527194,313.003499 C265.783559,312.784003 264.80074,311.910078 266.253167,310.666532 C266.594372,310.374398 267.309771,310.964146 267.487051,311.151367 C268.334308,310.086954 266.384885,309.006933 267.751549,307.836816 C267.922152,307.690749 268.359625,307.660753 268.529305,307.515475 C268.746939,307.329141 268.585299,306.980331 268.393162,306.58168 L268.469526,306.545939 L268.368385,306.534353 C268.107682,305.998044 267.810111,305.384004 268.289642,304.973437 C268.462089,304.825791 268.80905,304.867733 269.072605,304.818067 C269.066849,304.667387 269.092782,304.539592 269.135137,304.427376 C269.39287,304.517926 269.658987,304.567954 269.763248,304.517589 C269.972787,304.419695 270.075251,304.372722 270.113535,304.212121 C269.962207,303.97119 269.759161,303.844932 269.544556,303.782293 C269.708443,303.521564 269.784603,303.221092 269.488112,302.685784 C269.755617,302.569752 269.851523,302.487639 269.653918,302.169622 C269.587942,302.059386 269.348037,301.892439 269.137623,301.992936 C269.10313,302.007648 269.069652,302.025197 269.037097,302.041955 C268.898008,301.873906 268.74259,301.693903 268.547872,301.488268 C268.971151,301.125863 269.564659,300.786287 270.078999,300.52005 C270.103309,301.099441 270.102832,301.594463 270.141172,301.656113 C270.209916,301.76398 270.277783,301.874449 270.382045,301.824084 C270.382045,301.824084 270.540265,299.912086 270.135182,299.25857 C270.135182,299.25857 270.06547,299.149681 269.963052,299.198467 C270.003972,299.433895 270.030788,299.707332 270.05101,299.980859 C269.594238,299.553142 268.757555,299.928639 268.074374,300.005988 C267.78544,298.884383 267.572217,297.518264 267.638356,296.607642 C267.724118,296.534213 267.897068,296.552861 267.98283,296.479432 C268.153433,296.333365 268.23777,296.094433 268.055646,295.902097 C267.611449,295.596993 266.732638,295.323141 266.378989,295.277663 C266.457058,294.868111 265.623281,293.008878 266.307535,292.42303 L267.759962,291.179485 C267.327695,291.375452 266.128318,292.233764 265.948131,292.043475 C265.769882,291.855232 265.673521,291.589468 265.585365,291.496369 C265.405179,291.30608 265.232229,291.287433 265.056327,291.263904 C264.976787,291.506139 264.891527,291.745861 264.635162,291.965356 C264.38433,292.180115 264.03939,292.290198 263.661374,292.176663 C263.657257,292.126466 263.642671,292.072266 263.60733,292.01731 C263.539416,291.905028 263.434232,291.956183 263.434232,291.956183 C263.408178,291.969227 263.399841,292.011562 263.40216,292.065151 C263.348563,292.033236 263.293074,292.001088 263.238321,291.9609 C262.431358,291.10869 262.671368,290.215926 261.861498,289.360647 C261.773342,289.267548 261.508362,289.15171 261.329145,288.962444 C260.969741,288.582889 261.48777,288.313493 261.037304,287.83777 C260.768962,287.554382 260.246602,287.655204 260.158446,287.562106 L260.067384,287.465938 C259.816319,287.85503 259.387507,288.222172 258.8757,288.660373 C257.564622,288.582488 254.900721,286.91193 253.594942,287.003641 C253.253737,287.295775 253.613597,287.839812 253.357232,288.059307 C252.410857,288.530574 251.970991,288.394043 251.611587,288.014487 C251.429463,287.822152 251.336976,287.56048 251.158727,287.372237 C250.977572,287.180925 250.801717,287.159209 250.546274,287.377915 C250.474473,287.958085 250.742815,288.241473 250.23193,288.678885 C248.864343,289.849792 248.285962,287.77004 247.687469,288.282459 C247.353642,288.568277 247.714563,289.300359 247.400537,290.026786 C247.430066,289.892208 247.413104,289.745564 247.313724,289.582419 C247.113073,289.255894 246.734265,289.294941 246.419543,289.44399 C246.108556,289.591694 245.999188,290.066944 246.203621,290.393936 C246.407131,290.721716 246.578292,290.780797 246.683522,290.731455 C246.820386,290.666144 246.967943,290.576857 247.099954,290.469389 C247.052187,290.517696 247.01775,290.571263 246.960575,290.620216 C245.50907,291.862971 245.284291,289.826886 244.514274,290.486162 C243.985867,290.938576 245.301322,291.553639 244.903872,292.297771 C244.752132,292.260964 244.601371,292.262222 244.517453,292.334072 C244.447368,292.394078 244.445001,292.522073 244.544931,292.669928 C243.935485,293.086134 242.991506,292.990342 242.748974,293.197994 C242.578371,293.344061 242.864959,294.300952 243.223394,294.679484 C242.796427,295.045047 242.001394,294.693908 241.658344,294.987622 C241.577835,295.228834 241.668897,295.325001 241.75899,295.420146 C242.027332,295.703534 242.28609,295.650565 242.645494,296.030121 C242.735588,296.125265 243.041296,297.753056 242.186439,298.484971 C242.100677,298.5584 241.751826,298.516224 241.394768,298.301383 C241.217488,298.114162 240.692781,298.05027 240.521257,298.197127 C240.440701,298.436526 240.443094,298.603053 240.534156,298.699221 C240.892591,299.077753 241.593247,299.166987 241.862558,299.451398 C242.220993,299.82993 242.067667,300.648477 241.897987,300.793755 L241.897987,300.793755" id="Path-Copy" fill="#20BF65"></path>
        </g>
    </g>
</svg>