<svg width="1390" height="360" viewBox="0 0 1390 360" xmlns="http://www.w3.org/2000/svg"><title>bg</title><defs><linearGradient x1="58.894%" y1="86.753%" x2="32.838%" y2="20.528%" id="a"><stop stop-color="#2793E0" offset="0%"/><stop stop-color="#0055B8" offset="100%"/></linearGradient><linearGradient x1="75.974%" y1="34.724%" x2="27.54%" y2="58.904%" id="b"><stop stop-color="#469BFF" offset="0%"/><stop stop-color="#0055B8" offset="100%"/></linearGradient></defs><g fill="none" fill-rule="evenodd"><path d="M474.181 235.669c4.683.969 7.068-4.629 9.655-5.329 1.867 2.815 2.795 4.243 5.134 4.724 3.52.728 5.176-1.359 8.007-3.235.195 4.932 4.39 8.27 10.262 9.482 2.339.484 6.102.032 8.937-1.853.924 1.433-.623 20.683 8.768 22.623 2.339.484 3.75-.46 6.098.033-1.216 5.875-6.14 6.044-7.113 10.744-1.216 5.871 4.166 9.419 2.716 16.423-1.46 7.065-9.661 5.368-11.362 13.574-1.206 5.837 3.233 7.982 2.74 10.347-.236 1.15-.236 1.15-1.412.906-2.335-.49-3.958-4.484-8.645-5.448-1.172-.249-9.174 2.994-10.876 11.192-3.515-.729-5.369-3.536-8.888-4.268-5.863-1.208-4 1.598-8.248 4.389-1.863-2.815-3.955-4.488-7.474-5.212-2.34-.49-4.69-.973-7.278-.273-1.856-2.853-2.294-6.596-5.818-7.328-1.168-.245-2.587.7-3.759.452-1.171-.236-12.484-28.244-15.516-31.333.968-4.696 5.458-8.624 6.426-13.315.725-3.507-1.136-6.36-1.583-10.115 19.98-1.994 6.958-21.795 29.23-17.18M719.314 34.339c.813.168 1.228-.804 1.677-.926.324.49.485.737.892.82.61.127.899-.235 1.39-.561.034.857.763 1.436 1.783 1.647.406.084 1.06.005 1.552-.322.16.249-.108 3.592 1.523 3.93.406.083.65-.08 1.059.005-.211 1.02-1.067 1.05-1.236 1.866-.21 1.02.724 1.636.472 2.853-.253 1.226-1.678.932-1.973 2.357-.21 1.014.561 1.386.476 1.797-.041.2-.041.2-.246.157-.405-.084-.687-.778-1.501-.946-.204-.043-1.594.52-1.89 1.944-.61-.126-.932-.614-1.543-.741-1.018-.21-.695.277-1.432.762-.324-.489-.687-.78-1.298-.905-.407-.085-.815-.17-1.265-.047-.322-.496-.398-1.146-1.01-1.273-.203-.043-.45.121-.653.078-.203-.04-2.168-4.905-2.695-5.442.168-.815.948-1.498 1.116-2.312.126-.61-.197-1.105-.275-1.757 3.47-.346 1.209-3.786 5.077-2.984" fill="#0055B8"/><path d="M38.283 246.888c.66-.732 1.414-.71 2.91-.681.238-1.114-1.56-3.396-.244-4.857 6.238-6.928-4.316-7.174-1.187-14.947-1.61-.78-3.126-.825-4.403-1.975-1.7-1.53-2.407-4.156-4.112-5.691-1.848.325-15.386-2.614-15.712-2.252-.018.02-.022.052-.04.072-.643-3.583-.971-7.423-1.225-7.779-.342-.451-.682-.914-1.102-.643 0 0 .17 6.55 1.56 10.041-.993.76-2.462.1-3.86.063-.214 1.061-.817 1.767-1.44 2.46.054-.264.092-.537.126-.834-.342-.451-1.85-.838-2.269-.567-.839.535-.164 1.45.176 1.913.173.241.482.398.777.457-.714.406-1.504.572-2.484.552.283 2.245 1.79 2.281.15 4.101-.985 1.095-2.491 1.058-3.48 2.157 2.982 2.685 2.718 6.406 2.385 6.777-1.316 1.46-3.241 1.04-3.901 1.772-.333.37-.333.37.076.738.864.778 2.608-.29 4.726 1.617 2.978 2.681.687 5.226 3.25 7.535 2.547 2.292 5.042 1.23 7.179 3.154 1.71 1.539.8 3.372 2.936 5.296.652-.725.554-1.484 1.214-2.216 2.627-2.919 10.107 2.497 10.864 2.515-.203-1.502.355-2.99 1.01-3.719 1.646-1.827 3.822-2.507 5.849-1.338-.199-1.498-.714-2.626.271-3.72z" fill="#2793E1"/><path d="M813.747 150.797c-1.648 0-2.464-.722-4.103-2.142-1.649.714-2.473 4.307-5.762 4.307-15.59 0-4.086 10.048-17.248 13.656.833 2.157 2.473 3.608 2.473 5.766 0 2.87-2.473 5.734-2.473 8.613 2.473 1.45 13.969 16.543 14.784 16.543.045 0 .089-.024.133-.024-3.731 3.608-8.136 7.139-8.296 7.674-.177.699-.372 1.405.434 1.568 0 0 7.95-5.657 10.734-9.886 2.056.287 2.88 2.212 4.396 3.546 1.56-.69 3.111-.721 4.671-.721-.39.17-.77.364-1.179.582-.177.698 1.029 2.428 1.835 2.591 1.604.334 1.986-1.063 2.18-1.769.107-.364-.044-.783-.3-1.11 1.302.327 2.392.924 3.465 1.855 2.473-2.15.833-3.585 4.928-3.585 2.464 0 4.104 1.436 6.576 1.436 0-5.036 4.92-7.915 5.753-7.915 3.288 0 4.919 2.15 6.568 2.15.833 0 .833 0 .833-.691 0-1.459-3.28-2.188-3.28-5.765 0-5.028 5.726-5.028 5.726-9.358 0-4.299-4.113-5.734-4.113-9.343 0-2.886 3.298-3.577 3.298-7.185-1.631 0-2.464.73-4.113.73-6.568 0-8.208-11.523-9.032-12.245-1.64 1.451-4.112 2.18-5.752 2.18-4.113 0-7.392-1.458-8.208-4.33-1.64 1.444-2.464 2.872-4.928 2.872z" fill="#0055B8"/><path d="M1404.996 69.738c.448.07.63.353.85.388.668.106 1.225-.558 1.305-1.06.154-.976.015-1.508.093-2 .64-1.163 1.235-2.08 2.24-2.675 2.224.352 3.464 2.568 4.796 2.779 0 0 .26-.212.299-.46-1.92-.805-3.683-2.594-3.331-4.816.546-3.45 4.447-5.1 5.804-7.918l3.052.484c-.94.725-2.05 1.708-2.346 2.473 0 0-.09.236.117.326.863-.931 2.23-2.01 3.03-2.673l.361.058c-.081-.046-.183-.087-.27-.13.314-.259.529-.45.551-.515.093-.228.184-.464-.027-.555 0 0-.49.317-1.112.786a14.966 14.966 0 0 0-3.464-1.028c-.22-.035-.703.144-1.146.074-1.112-.176-1.097-1.694-.903-2.922.547-3.453 3.043-.53 3.395-2.749.1-.63-2.205-.73-3.055-2.342.206.082.38-.373.473-.6-.12-.325-.12-.325-.325-.412-.135-.065-.306-.019-.433.081-.002-.014-.006-.023-.004-.033l2.672-1.09c.223.036.262-.214.262-.214.117-.739-.652-1.616-1.1-1.686-.666-.106-1.224.56-1.444.526-1.111-.176-1.141-1.445-1.245-2.217.966-.348 1.972-.946 2.168-2.182.038-.245.077-.487-.369-.557-.223-.036-.925.101-1.409.275-1.555-.246-2.768-1.19-2.495-2.916.117-.739 2.948-2.81 2.948-2.81l-3.184-.006c-.007-.002-.015.003-.02.005-.065-.417-.388-.871-.7-1.01-.418-.184-1.306.242-1.577.935-.002.008.005.025.003.039-1.06-.67-2.358-1.714-3.025-2.324.352-2.222 2.142-3.449 2.298-4.435.04-.25-.146-.521-.366-.556-1.552-.246-2.136 3.44-3.914 3.16-.668-.107-1.256-.704-1.14-1.44.028-.173.158-.33.263-.57.038.02.07.034.117.052.501-.049.501-.049.59-.282.267-.694-1.593-1.512-1.804-1.605a.99.99 0 0 1 .06.505c-.492.348-1.204 1.077-2.031.946-1.995-.316-1.722-2.041-1.411-4.006-.342.703-.902 1.37-1.568 1.264-1.11-.176-1.58-1.514-2.469-1.655-.665-.106-.833 2.391-4.606 1.794-.886-.14-.838-1.902-.76-2.388-2.74.065-2.035 4.22-5.585 3.658-.443-.07-1.033-.67-1.474-.74-.565-.09-.918.57-1.312 1.337l-.151-.068.107.162c-.527 1.033-1.132 2.216-2.377 2.018-.448-.07-.812-.627-1.218-.95-.232.192-.466.31-.697.385-.176-.485-.427-.934-.636-1.024-.415-.186-.616-.277-.918-.137a1.74 1.74 0 0 0 .024 1.352c-.617.08-1.188.335-1.67 1.42-.515-.248-.764-.287-1.023.388-.093.23-.06.784.36.967.066.033.135.06.202.087-.094.407-.187.853-.271 1.388-1.1-.175-2.374-.624-3.434-1.048.888-.743 1.674-1.346 1.724-1.477.086-.231.177-.465-.032-.555 0 0-3.228 2.102-3.762 3.488 0 0-.086.235.118.324.322-.346.723-.719 1.132-1.082-.112 1.187 1.52 1.947 2.49 2.847-1.42 1.789-3.322 3.765-4.848 4.78-.223-.035-.407-.31-.63-.345-.443-.07-.927.098-1.006.598.067 1.019.723 2.632 1.089 3.203-.746.386-2.66 3.867-4.438 3.586l-3.773-.598c.847.39 3.695 1.09 3.617 1.584-.078.49-.38.954-.418 1.195-.078.495.107.77.287 1.054.483-.18.969-.348 1.635-.242.652.103 1.254.47 1.543 1.16a.674.674 0 0 0-.186.273.24.24 0 0 0 .118.326c.053.022.13-.017.212-.086.016.117.034.237.038.366-.35 2.214-2.064 2.954-2.416 5.176-.038.242.107.769.029 1.26-.156.987-1.226.561-1.422 1.797-.116.737.691 1.374.653 1.616l-.04.25c.929-.11 2.043.067 3.372.278 1.502 2.003 2.157 7.92 3.921 9.708.887.14 1.303-1.047 1.969-.941 1.92.803 2.25 1.61 2.094 2.596-.08.5-.38.953-.457 1.442-.079.497.105.78.768.885 1.01-.603 1.126-1.34 2.453-1.13 3.553.563.972 3.942 2.527 4.189.867.137 1.58-1.281 3.121-1.71-.25.12-.461.324-.597.668-.269.69.263 1.194.89 1.47.62.273 1.509-.147 1.774-.844.267-.696.149-1.017-.06-1.11a4.305 4.305 0 0 0-.932-.287c.136.01.263-.004.412.02 3.77.596.82 3.407 2.82 3.724 1.373.217.718-2.448 2.39-2.777.13.266.32.484.537.518.182.03.388-.123.499-.45 1.415.38 2.434 1.871 3.064 1.971.443.07 1.605-1.514 1.761-2.498 1.11.176 1.538 1.762 2.43 1.903.482-.177.521-.427.56-.674.117-.737-.288-1.049-.132-2.035.04-.247 2.242-2.678 4.462-2.326.223.035.589.595.69 1.377-.076.486.473 1.328.919 1.398.48-.174.74-.381.78-.63.156-.984-.572-2.113-.455-2.852.156-.984 1.644-1.76 2.085-1.69z" fill="#2793E1"/><path d="M1299.505 112.961c-.063-.04-.07-.097-.101-.117-.094-.061-.226.007-.274.08-.094.145-.11.238-.158.31-.18.142-.336.247-.532.275-.312-.203-.34-.634-.527-.756 0 0-.055.017-.079.053.234.254.373.653.16.98-.33.51-1.04.513-1.449.868l-.428-.278c.195-.053.434-.134.534-.236 0 0 .03-.031.005-.059-.197.09-.482.17-.65.222l-.052-.033.032.038a.508.508 0 0 0-.12.045c-.031.03-.062.061-.036.09 0 0 .097-.018.225-.05.134.15.304.295.451.39.031.02.117.024.18.064.155.102.044.34-.073.522-.331.509-.5-.118-.712.21-.06.092.281.26.295.571-.026-.026-.085.034-.115.064-.005.06-.005.06.02.086.015.02.045.024.071.016 0 .003 0 .004-.002.006l-.483-.005c-.031-.02-.055.017-.055.017-.07.109-.017.298.046.339.093.06.225-.008.256.012.156.101.07.304.03.432-.171-.008-.367.02-.485.202-.024.036-.047.072.016.112.031.02.147.045.233.05.218.142.334.37.17.625-.072.11-.65.25-.65.25l.483.21.003.001c-.02.07-.003.164.034.206.05.057.215.048.306-.043.001-.002.001-.005.003-.007.112.176.234.427.292.567-.213.328-.573.403-.667.549-.024.037-.016.092.015.112.218.141.571-.402.82-.24.094.06.14.194.07.302-.016.026-.047.042-.08.073a.196.196 0 0 0-.015-.016c-.079-.026-.079-.026-.11.005-.09.092.134.344.16.373a.179.179 0 0 1 .026-.084c.1-.022.26-.09.376-.015.28.182.115.436-.073.726.102-.088.235-.157.328-.096.156.101.131.344.256.425.093.06.298-.323.827.02.124.081-.01.356-.056.428.42.17.611-.532 1.11-.209.061.04.108.174.17.215.079.051.18-.03.294-.125l.019.02-.005-.032c.154-.128.33-.275.505-.162.063.041.078.153.117.231a.349.349 0 0 1 .133-.015c-.008.089-.002.176.023.204.05.057.074.085.13.082a.315.315 0 0 0 .093-.215c.099.028.204.026.355-.114.06.073.095.096.183.007.03-.03.065-.12.015-.177l-.025-.027c.044-.058.09-.122.14-.201.155.1.316.255.446.392-.188.059-.35.102-.367.12-.03.03-.06.061-.035.09 0 0 .64-.12.82-.303 0 0 .03-.031.006-.06a2.965 2.965 0 0 1-.249.097c.102-.18-.091-.408-.173-.614.343-.189.774-.375 1.078-.435.031.02.04.076.07.096.063.04.148.046.196-.028.063-.165.08-.463.065-.578.14-.011.68-.435.93-.273l.53.344c-.101-.118-.483-.416-.436-.49.047-.071.126-.125.15-.16.047-.073.039-.129.032-.186a.478.478 0 0 1-.266-.07.316.316 0 0 1-.15-.285.12.12 0 0 0 .047-.03c.032-.032.006-.06.006-.06-.006-.007-.021-.006-.038 0 .006-.02.012-.04.02-.06.212-.327.525-.33.738-.658.023-.036.039-.129.086-.201.094-.146.226-.008.345-.19.07-.109-.007-.263.016-.299l.024-.037c-.148-.044-.304-.145-.49-.266-.085-.416.24-1.394.101-1.793-.124-.08-.273.08-.366.019-.234-.254-.226-.403-.131-.549.048-.073.126-.125.173-.197.047-.074.04-.13-.053-.19-.197.028-.267.136-.453.016-.499-.324.135-.687-.083-.829-.122-.079-.332.098-.596.064a.207.207 0 0 0 .138-.066c.09-.091.046-.206-.029-.291-.074-.084-.24-.077-.33.016-.09.092-.095.15-.07.18a.679.679 0 0 0 .12.106c-.02-.01-.04-.017-.06-.03-.53-.344.12-.593-.16-.775-.193-.125-.285.34-.563.28 0-.05-.013-.097-.044-.116-.025-.017-.067-.007-.108.038-.187-.154-.235-.457-.323-.514-.062-.04-.352.133-.446.278-.156-.1-.107-.38-.232-.46-.086-.005-.11.032-.133.068-.071.11-.032.185-.126.33-.024.037-.532.275-.844.073-.031-.02-.047-.133-.006-.263.047-.072.024-.24-.039-.282-.085-.004-.14.012-.163.049-.095.145-.065.371-.136.48-.094.145-.376.17-.437.13z" fill="#0055B8"/><path d="M373.166 18.31c-.07-.046-.078-.11-.113-.132-.104-.068-.252.008-.306.09-.104.162-.123.266-.176.347-.202.158-.376.276-.594.307-.349-.227-.381-.71-.59-.845 0 0-.061.018-.088.059.261.284.417.73.179 1.096-.37.569-1.163.572-1.619.97l-.478-.312c.217-.058.484-.15.596-.263 0 0 .034-.035.006-.066-.221.1-.54.19-.728.248l-.057-.037c.01.014.025.029.036.043a.567.567 0 0 0-.135.05c-.034.034-.068.069-.04.1 0 0 .109-.02.252-.056.15.169.34.33.504.437.035.022.131.026.2.071.175.114.05.38-.081.583-.37.57-.558-.131-.796.234-.067.104.315.292.33.64-.028-.03-.094.037-.128.07-.006.067-.006.067.022.097.018.022.05.026.08.018l-.002.006-.54-.005c-.035-.023-.062.018-.062.018-.08.122-.019.334.051.38.105.067.253-.01.287.013.174.113.078.34.033.483-.191-.01-.41.022-.542.226-.026.04-.052.08.018.125.035.023.165.05.26.056.244.158.374.414.19.698-.08.122-.725.279-.725.279l.539.236h.004c-.023.079-.005.183.037.23.056.064.24.054.343-.048 0-.001 0-.005.002-.007.126.196.262.477.326.634-.238.366-.64.45-.745.613-.027.04-.017.103.018.125.243.158.638-.45.916-.269.105.068.157.217.078.339-.019.028-.053.046-.09.08a.217.217 0 0 0-.016-.017c-.089-.029-.089-.029-.122.006-.101.103.148.385.177.417a.2.2 0 0 1 .03-.094c.111-.025.29-.101.42-.017.313.203.128.488-.082.811.114-.098.263-.175.367-.107.174.113.146.384.285.475.105.067.333-.361.925.023.139.09-.01.398-.063.478.47.19.684-.595 1.24-.234.07.046.121.195.19.24.09.057.202-.033.33-.14l.02.024-.005-.037c.172-.143.37-.307.565-.18.07.045.087.17.13.257a.39.39 0 0 1 .15-.016c-.01.099-.004.196.025.228.055.063.082.094.144.092a.352.352 0 0 0 .105-.24c.11.03.228.028.396-.128.068.082.107.107.205.007.034-.034.073-.134.017-.197-.009-.011-.018-.021-.028-.03.049-.066.1-.138.158-.226.172.112.352.286.498.439-.21.065-.392.114-.411.133-.033.035-.067.07-.04.1 0 0 .716-.132.918-.337 0 0 .034-.035.006-.066-.082.037-.18.073-.278.107.114-.2-.102-.456-.194-.686.384-.211.865-.42 1.205-.486.035.023.044.085.079.108.07.045.165.05.218-.032.07-.185.089-.518.073-.646.157-.013.76-.486 1.04-.305l.59.384c-.111-.131-.538-.465-.485-.546.052-.081.14-.14.167-.18.052-.082.043-.144.035-.208a.534.534 0 0 1-.296-.078.353.353 0 0 1-.169-.318.134.134 0 0 0 .054-.035c.035-.035.006-.066.006-.066-.007-.008-.023-.007-.043 0 .007-.022.013-.045.023-.068.237-.365.587-.369.825-.735.025-.04.043-.144.096-.225.105-.163.253-.008.385-.212.079-.122-.007-.294.019-.334l.027-.04c-.167-.05-.341-.163-.55-.299-.093-.464.27-1.557.115-2.003-.14-.09-.305.088-.41.02-.26-.283-.252-.45-.146-.612.053-.083.14-.14.193-.221.053-.082.045-.145-.06-.213-.219.032-.298.153-.506.018-.557-.361.152-.767-.092-.926-.136-.088-.37.11-.666.072a.23.23 0 0 0 .155-.074c.1-.102.05-.23-.033-.325-.083-.094-.268-.086-.369.018-.1.103-.106.168-.078.2a.759.759 0 0 0 .135.12c-.023-.013-.045-.02-.069-.034-.59-.384.134-.663-.18-.866-.214-.14-.317.379-.627.314 0-.057-.015-.11-.05-.132-.028-.018-.075-.006-.12.043-.21-.172-.262-.51-.361-.574-.07-.045-.393.149-.499.31-.174-.112-.12-.424-.259-.515-.096-.004-.123.037-.149.078-.079.121-.035.206-.14.369-.027.04-.595.307-.944.081-.034-.023-.052-.148-.006-.294.052-.08.026-.27-.044-.315-.095-.004-.156.013-.182.054-.106.162-.073.415-.152.537-.105.162-.42.19-.489.144zM418.756 178.528c-.273.14-.293.547-.183.763.214.42.413.589.52.8.089.624.125 1.14-.077 1.643-.91.464-1.978-.06-2.523.217 0 0-.036.153.018.26.925-.207 2.065.01 2.553.967.757 1.486-.212 3.178.073 4.637l-1.25.637c.143-.535.277-1.216.173-1.592 0 0-.033-.116-.134-.095-.057.594-.257 1.38-.366 1.854l-.148.076c.042-.005.09-.016.134-.023-.043.185-.068.317-.058.349.03.113.061.23.164.207 0 0 .09-.255.188-.605a6.48 6.48 0 0 0 1.552-.536c.09-.046.216-.246.398-.339.455-.232.87.36 1.14.89.757 1.486-.966 1.026-.479 1.982.138.271 1.009-.312 1.766.083-.098.024-.036.248-.006.36.134.094.134.094.233.072.067-.01.117-.075.135-.148.005.005-.664 1.156-.664 1.156-.09.046-.036.154-.036.154.162.318.686.45.87.356.273-.138.291-.547.382-.593.455-.232.818.252 1.07.523-.257.396-.46.9-.188 1.431.054.106.107.21.29.117.09-.047.309-.29.438-.487.636-.325 1.342-.286 1.72.456.162.318-.298 1.886-.298 1.886l1.166-.857c.144.136.389.225.541.195.204-.042.41-.447.318-.789.56-.04 1.325.014 1.738.07.487.957.173 1.916.389 2.34.055.108.198.163.288.117.636-.324-.173-1.91.555-2.282.273-.139.654-.066.816.25.037.075.033.171.061.292-.226.166-.226.166-.194.28.095.342 1.001.157 1.104.136a.491.491 0 0 1-.162-.18c.084-.268.142-.743.48-.915.818-.416 1.196.326 1.627 1.172-.07-.365-.05-.774.223-.913.454-.232.997.16 1.36-.025.273-.14-.358-1.152 1.187-1.94.363-.184.834.511.94.72.983-.764-.426-2.185 1.027-2.925.182-.093.564-.02.744-.111.232-.118.178-.47.11-.873-.104-.592-.211-1.213.299-1.473.183-.094.47.024.708.04a.958.958 0 0 1 .148-.338c.2.14.415.247.517.225.203-.04.302-.059.374-.194a.866.866 0 0 0-.384-.518c.203-.198.341-.451.216-1.001.257-.044.36-.096.267-.428-.03-.114-.195-.32-.4-.277-.033.005-.066.013-.098.02a9.925 9.925 0 0 0-.285-.61c.45-.23 1.04-.4 1.545-.521-.119.527-.239.973-.22 1.038.032.113.064.228.165.206 0 0 .598-1.686.408-2.368 0 0-.033-.114-.133-.094a8.146 8.146 0 0 1-.113.725c-.288-.49-1.096-.344-1.7-.431.023-1.077.17-2.357.447-3.162.091-.047.235.01.326-.037.181-.092.311-.288.202-.503-.307-.377-.994-.826-1.286-.948.166-.351-.1-2.218.628-2.589l1.545-.787c-.418.077-1.653.575-1.761.362-.108-.21-.126-.472-.18-.576-.108-.213-.251-.27-.396-.33-.127.2-.258.396-.53.535a.868.868 0 0 1-.886-.034.329.329 0 0 0-.008-.156c-.031-.116-.134-.094-.134-.094-.025.005-.042.042-.053.09-.039-.04-.078-.082-.116-.131-.485-.953-.064-1.703-.551-2.66-.054-.104-.253-.269-.36-.48-.217-.425.292-.549.021-1.081-.161-.317-.633-.346-.687-.45l-.054-.108c-.31.293-.765.526-1.31.803-1.105-.371-2.984-2.488-4.125-2.705-.363.184-.186.757-.458.896-.925.208-1.27-.016-1.485-.44-.11-.216-.126-.473-.233-.684-.11-.214-.255-.274-.527-.135-.201.506-.04.823-.583 1.1-1.455.741-1.448-1.266-2.085-.941-.355.18-.222.923-.667 1.506a.568.568 0 0 0 .033-.42c-.093-.341-.427-.393-.733-.33-.302.06-.51.464-.414.806.095.342.228.434.33.414.133-.027.28-.074.42-.14-.053.032-.095.072-.156.103-1.544.787-1.245-1.1-2.064-.682-.562.286.417 1.142-.103 1.722-.122-.068-.251-.102-.34-.056-.075.038-.108.153-.058.309-.623.235-1.408-.068-1.666.063-.182.093-.167 1.02.048 1.444-.454.232-1.05-.267-1.415-.081-.127.198-.072.306-.018.412.161.317.396.33.612.754.054.106-.077 1.643-.986 2.106-.091.047-.38-.071-.634-.347-.107-.21-.54-.387-.723-.294-.127.197-.165.348-.11.455.215.424.794.665.956.983.216.423-.113 1.126-.294 1.218-.183.093-.327.033-.418.079zM510.443 88.581c-.153.138-.309.117-.384.185-.228.205-.141.604.021.784.315.35.55.462.71.639.246.58.415 1.068.35 1.606-.76.684-1.926.454-2.381.863 0 0 .005.157.084.246.84-.44 1.998-.524 2.717.274 1.115 1.239.618 3.125 1.271 4.46l-1.042.939c-.001-.554-.048-1.246-.246-1.583 0 0-.062-.103-.154-.057.099.588.109 1.4.126 1.886l-.123.11c.04-.014.083-.038.124-.056.006.19.016.325.034.352.057.102.118.206.212.158 0 0 .022-.27.025-.633a6.48 6.48 0 0 0 1.36-.92c.075-.068.146-.293.297-.43.38-.342.934.123 1.331.564 1.117 1.24-.667 1.242.051 2.039.204.226.893-.563 1.727-.377-.088.049.03.249.087.35.154.056.154.056.244.01.062-.029.094-.104.093-.18.006.004.01.006.013.01l-.356 1.279c-.076.068.005.158.005.158.239.265.78.257.933.12.227-.205.14-.605.215-.673.38-.342.855.032 1.168.229-.145.448-.21.987.19 1.43.08.089.157.176.31.039.076-.069.224-.36.297-.585.531-.478 1.222-.623 1.78-.004.239.266.2 1.9.2 1.9l.904-1.13.004-.01c.171.104.43.126.57.057.186-.093.28-.537.102-.843-.002-.003-.01-.006-.015-.01.547-.175 1.299-.32 1.712-.373.719.798.663 1.806.982 2.16.08.09.233.106.308.038.53-.477-.661-1.8-.054-2.347.228-.206.614-.234.852.03.056.062.077.156.136.266a.535.535 0 0 0-.052.026c-.125.193-.125.193-.063.295.18.305 1.007-.109 1.101-.155a.491.491 0 0 1-.203-.132c.012-.28-.055-.754.227-1.008.681-.614 1.24.006 1.874.711-.162-.334-.248-.735-.021-.94.379-.34 1.005-.103 1.308-.376.228-.205-.644-1.02.644-2.18.303-.273.938.277 1.095.452.752-.993-.978-2 .235-3.092.151-.137.54-.165.69-.3.193-.174.05-.5-.121-.871l.068-.034-.09-.01c-.231-.5-.495-1.074-.07-1.457.153-.137.46-.098.695-.145a.958.958 0 0 1 .055-.364c.229.084.465.131.557.084.186-.091.277-.135.311-.285a.866.866 0 0 0-.505-.4c.146-.244.213-.524-.05-1.024.238-.108.323-.185.147-.481-.058-.103-.271-.259-.458-.165-.03.013-.06.03-.089.045a9.925 9.925 0 0 0-.434-.516c.376-.338.902-.655 1.358-.903.022.54.022 1.002.056 1.06.06.1.12.203.213.156 0 0 .14-1.784-.219-2.393 0 0-.062-.102-.152-.056.036.22.06.474.078.73-.406-.4-1.148-.05-1.754.023-.256-1.046-.445-2.32-.387-3.17.076-.069.23-.051.306-.12.151-.136.226-.36.064-.539-.394-.284-1.173-.54-1.487-.582.07-.382-.67-2.117-.063-2.663l1.288-1.16c-.383.182-1.447.983-1.607.806-.158-.176-.244-.424-.322-.51-.16-.178-.313-.196-.47-.218-.07.226-.145.45-.373.655a.868.868 0 0 1-.864.197.329.329 0 0 0-.048-.149c-.06-.105-.153-.057-.153-.057-.023.012-.03.052-.029.102-.047-.03-.096-.06-.145-.097-.716-.796-.503-1.628-1.221-2.426-.079-.087-.314-.195-.473-.372-.319-.354.141-.605-.259-1.05-.238-.263-.701-.17-.78-.256l-.08-.09c-.223.363-.603.706-1.057 1.114-1.163-.072-3.526-1.63-4.685-1.545-.303.272.017.78-.21.985-.84.44-1.23.312-1.55-.042-.16-.18-.243-.424-.401-.6-.16-.178-.317-.198-.543.006-.064.541.174.806-.28 1.214-1.212 1.092-1.726-.848-2.256-.37-.297.266.024.95-.255 1.627a.568.568 0 0 0-.077-.414c-.178-.305-.514-.269-.793-.13-.276.138-.373.582-.192.887.18.305.333.36.426.315.121-.061.252-.145.37-.245-.043.045-.074.095-.124.14-1.288 1.16-1.487-.74-2.17-.124-.47.422.698.996.345 1.69-.134-.035-.268-.033-.343.034-.062.056-.064.175.025.313-.54.388-1.378.299-1.593.493-.152.136.102 1.029.42 1.382-.378.34-1.084.013-1.388.287-.071.225.01.315.09.404.237.264.467.215.786.569.08.089.35 1.607-.408 2.29-.076.069-.385.03-.702-.171-.157-.175-.623-.234-.775-.097-.071.223-.07.378.012.468.318.353.94.436 1.178.702.318.353.182 1.116.032 1.252z" fill="#2793E1"/><path d="M384.779 70.8c-2.383.796-5.563 1.592-7.947 1.592-1.586 0-2.387-.796-3.968-.796-3.186 2.384-7.95 3.972-13.514 4.767-3.18-8.736-10.33-17.476-10.33-21.449 0-7.945 22.251-23.837 29.401-29.397-11.126 5.56-23.838 12.709-33.37 19.864-3.976-.797-12.712-5.567-12.712-7.949 0-5.562 7.15-8.738 7.15-13.509 0-1.59-1.59-3.972-3.183-3.972-2.376 0-6.348 9.535-9.531 11.126-4.768 0-15.889-16.689-17.48-16.689 0 0 1.591-3.969 1.591-6.353 0-3.178-4.767-2.385-4.767-13.508-2.388 6.356-5.56 19.067-12.711 19.067-5.568 0-14.302-2.382-14.302-6.356 0-1.588.798-3.178.798-4.769 0-5.56-2.388-8.742-3.187-11.121 1.592-14.3 0-28.606 2.389-40.52-3.976 0-3.183 31.776-3.976 40.52-2.383 2.38-3.176 5.56-3.176 8.738 0 1.592.793 3.18.793 5.564 0 6.356-10.327 6.356-14.3 6.356-15.895 0-8.744-15.89-19.069-15.89-.796 0-.796.792-.796 1.587 0 4.766 1.588 9.535 2.379 15.097-3.966 4.766-17.478 8.742-19.866 8.742-2.376 0-8.735-7.154-10.32-7.154-.795 0-1.593 2.385-1.593 3.178 0 3.181 2.385 5.562 2.385 8.742 0 2.386-2.385 6.352-4.768 6.352-3.18 0-5.566-6.352-8.736-6.352-1.595 0-3.183 1.588-3.183 2.386l3.976 10.33c-3.181 4.766-7.947 7.143-13.51 11.914-3.177-1.588-7.94-6.354-11.912-6.354-1.598 0-2.391.797-3.184 1.583 1.586 9.542 11.119 9.542 11.119 11.128 0 4.766-3.964 10.332-7.152 12.708-5.557-3.175-30.984-18.27-32.57-18.27-.8 0-2.381.793-2.381 1.591 0-.798 27.013 23.04 27.013 25.426 0 .787-2.388 1.582-3.975 2.38-3.177 0-4.764-2.38-7.95-2.38-3.964 0-3.964 2.38-3.964 4.764 0 2.386 9.533 2.386 14.296 6.355 0 7.154-.795 17.483-6.352 22.254-10.337 0-16.687 8.739-23.84 8.739-3.974 0-7.94-1.597-10.329-1.597-.795 0-1.588.803-1.588.803 0 2.383 7.149 3.171 9.537 3.171.794 0 2.38-.788 3.176-.788 1.59 1.587 4.767 3.176 7.943 3.176 2.388 0 4.764-.796 7.157-.796 8.737 0 10.32 7.943 10.32 16.687-4.763 0-15.89 0-15.89 3.974 0 3.97 19.07 3.176 19.07 8.742 0 8.734-12.71 3.969-15.893 11.12 0 1.58 1.593 3.175 1.593 4.76 0-.302 13.122-5.733 14.34-6.284 2.29 1.996 3.909 4.002 5.064 6.003-.42.482-.831 1.158-1.068 2.147-.254 1.085 1.133 2.563 2.227 2.826 1.765 6.353-2.045 12.505-8.288 17.646.117-.993-.168-1.683-1.775-2.064-1.095-.26-1.907.702-2.17 1.81-.122.508.044 2.113.995 2.497a58.894 58.894 0 0 1-6.214 3.776c2.5.921 4.764.35 7.623.583-.262.292-1.442.984-2.178 3.689-.124-.093-.39-.16-.922-.287-.541-.128-.671.408-.799.963-.26 1.087-.527 2.192.567 2.454.268.063.531-.434.746-1.018a25.571 25.571 0 0 0-.16 2.043c6.22 1.344 12.7.735 18.635-.8.075.58.374.952.756 1.043 1.1.257 1.777-.166 1.91-.721.112-.459.156-.814.193-1.149a61.625 61.625 0 0 0 7.913-3.102c.209 2.22.53 4.657.703 7.01-1.266-.387-2.205 1.133-2.205 1.133-.26 1.087.032 2.323.58 2.454.81-.197 1.36-.465 1.731-.926 1.378-.457 5.22-1.726 8.273-3.384.243.243.525.43.75.488.55.126.805-.963.938-1.514.241-.19.493-.35.709-.529 1.57 2.586 6.915 7.79 8.19 10.572.821-2.094 4.349-6.331 5.553-9.336.014 3.575.694 6.986 1.851 10.216-1.304-.676-2.75-1.313-4.344-1.987-.37 1.569 2.31 2.666 4.875 3.414 2.332 5.627 6.243 10.64 11.247 14.815 9.377-4.708 14.946-11.938 22.564-8.727-.338.436-.623.97-.693 1.26-.387 1.64.455 2.989 2.102 3.381 1.09.263 2.581-1.122 3.933-1.952 2.514-3.553 6.69-9.078 9.934-9.173 1.92-.003 8.278 7.942 10.659 7.942 3.18 0 5.569-14.302 14.3-14.302 3.18.795 3.976 5.566 8.744 5.566 2.017 0 1.206-5.687 5.487-7.676.322.2.68.326 1.148.326.364 0 .935-.245 1.31-.559 1.351-.621 2.924-1.786 3.095-2.516.132-.585.23-1.008.23-1.381 2.027.219 4.19.683 5.411.683 2.348 0 5.972-4.255 9.787-9.155-.066.19.46 1.087.46 1.087.568 0 1.114-.564 1.114-1.128 0-.558 0-1.124-.546-1.124 4.79-6.38 9.983-13.52 13.024-13.52 4.768 0 9.533 7.148 11.921 7.148-1.595-2.378-7.153-6.354-7.153-8.739 0-11.123 10.328-4.765 10.328-14.3 0-2.381-.794-4.768-1.588-6.352 2.39-6.357 7.15-10.33 11.92-12.716l-2.394-11.918c0-12.712 11.131-4.77 11.131-12.712 0-3.97-8.738-3.176-8.738-12.713 0-7.154 8.738-4.767 8.738-11.123 0-6.36-8.738-3.972-8.738-5.562 0-1.593.795-2.386.795-3.18 0-2.382-.795-3.176-.795-4.765 0-10.332 22.251-7.945 22.251-12.715 0-.796-.798-2.384-.798-3.18z" fill="url(#a)" transform="rotate(176 229.077 91.838)"/><path d="M1053.347 278.628c0 3.255 1.066 19.522 19.521 23.86 0 0 2.145-1.084 3.242-1.084 4.002 0 2.519 1.827 4.797 2.115 1.617 2.773 2.777 5.344 2.777 6.758 0 .847-.842 1.694-.842 2.532v5.06s-6.745 5.056-6.745 9.277c0-4.221 6.745-7.579 10.12-7.579 0-1.698-1.694-1.698-1.694-3.375 2.588 0 4.832-.073 6.87-.021-.065.808-.09 1.672-.09 2.58 6.495 6.516 2.14 9.762 11.911 11.929 0-.752 2.606-1.54 4.196-3.762.791 1.329 1.56 2.777 2.408 4.45 0-10.064 4.892-5.456 6.34-6.99-.46 1.027-1.014 2.519-1.014 3.447 0 3.07 4.608 7.678 7.69 7.678 3.083 0 4.61-3.07 9.226-3.07 1.11 0 2.786.366 4.673.972-2.003 2.09-4.157 4.48-4.157 8.082 0 5.516 2.635 9.892 6.552 12.506-3.99 4.96-8.779 13.013-8.779 24.414 0 1.087 1.07 4.333 4.338 4.333 1.062 0 1.062-1.092 1.062-3.246h-1.062c0-1.044 11.01-6.147 11.848-22.952.275.017.529.1.804.116 1.057 0 2.579-.086 4.221-.537.903.546 2.042.903 3.538.903 6.156 0 6.156-6.152 9.234-6.152 12.532 0 9.02 11.813 12.622 17.922-.086 1.586-1.208 19.375-4.312 19.375 0 2.159 1.083 4.334 1.083 6.5l-1.083 1.084c0 1.092 1.083 2.175 1.083 3.254 0 1.083-1.083 2.167-2.183 2.167 0 1.079 1.1 3.254 1.1 4.342 0 6.508-4.355 14.096-4.355 20.6 0 4.342 2.154 8.688 6.5 8.688 7.837 0 8.688-10.45 9.29-14.599l-.602-.593s3.242-6.509 3.242-13.009c-1.053 0-1.053-1.087-1.053-2.175 0-1.088 1.053-3.254 2.153-4.338 0-2.162 0-3.245-1.1-5.42 2.18 0 3.25-3.26 3.25-7.588 0-6.685-.967-13.116-2.102-18.038 2.987-3.388 5.816-7.412 10.278-7.412 9.209 0 13.809 119.863 18.439 119.863 1.534 0 3.065-1.535 3.065-16.908 0-27.66-3.065-84.508-3.065-87.595 0-4.604 0-10.751 4.608-12.29 23.034 0 21.508 12.29 32.268 19.985l6.147-16.907c7.682 1.534 12.3 12.299 18.434 12.299 1.273 0 3.538-2.077 4.33-4.505.524.941.88 1.9.88 2.833-1.061 0-2.162 2.153-2.162 3.241 0 2.18 0 14.105 7.583 14.105 5.696 0 6.612-10.713 9.398-19.646 4.595-1.165 9.453-3.702 15.343-7.803.09.12.185.224.292.344-.026 0-.047-.004-.064-.004v1.083c.257 0 .515-.069.773-.142 3.285 4.265 6.814 9.47 6.814 8.822 0 0-.868-7.683-5.606-9.406.503-.379 1.01-.912 1.514-1.518 3.684-.825 7.798-1.728 12.797-1.728.336.632.645 1.401 1.01 2.197-1.121 1.388-1.555 3.998-1.555 5.79 0 .413 6.736 10.533 6.736 17.699 0 1.68 1.664 2.528 3.357 4.213h3.388c0-8.142-2.678-15.781-5.292-21.134.924.263 1.93.456 3.117.456 1.917 0 4.423-4.742 9.358-8.331 1.144 1.896 3.753 3.082 6.926 3.082 2.205 0 5.447-3.259 5.447-6.509 0-.193-.065-.34-.09-.52 6.01.09 6.074 6.122 12.174 6.122 1.54 0 3.074 0 3.074-1.526-.826-2.515-2.12-4.583-3.13-6.676.67.262 1.372.434 2.046.434 1.101 0 2.193-1.084 2.193-1.084-.74-2.21-2.988-3.894-5.7-4.767 0-.077-.022-.142-.022-.22 13.838-9.195 23.05-9.195 23.05-15.355 0-3.07-1.534-4.613-3.081-7.674 6.16-4.621 4.621-10.751 10.777-13.834 1.53-1.543 6.143-1.543 6.143-3.078-1.539-4.608-3.078-12.312-3.078-18.438 0-7.678 1.54-13.817 4.604-19.977-6.139-1.539-24.577-29.203-24.577-30.746 0-3.07 3.078-7.678 3.078-12.286-1.539 0-4.617 3.074-9.234 3.074a17.25 17.25 0 0 1-2.914-.263c.03-1.31.03-2.622.055-3.942.731-.318 1.48-.632 2.193-.967.073.232.163.4.426.4h.85a9.51 9.51 0 0 0-.047-1.006c3.32-1.733 5.946-4.114 5.946-9.101 0-5.576-4.432-7.033-9.277-8.409-.069-5.322-.28-10.57-.697-15.717 5.142 1.608 10.554 2.88 13.439 2.88 1.07 0 1.07-3.254 2.17-3.254v1.088c6.484-1.088 6.484-14.105 14.067-14.105-.869-.894-1.019-2.558-1.04-4.333 1.074-.017 7.579-4.346 9.728-7.592 0-3.25-16.271-4.338-21.67-17.355 0-3.246 1.095-4.329 1.095-6.504 0-4.037-.997-7.093-5.494-7.51-.412 1.87-17.062 10.244-25.101 16.327-4.798-6.74-11.263-12.592-19.973-17.247 6.208-7.463 18.283-10.576 27.393-18.163-1.556-1.535-1.556-1.535-3.095-1.535-3.061 0-12.274 7.678-19.973 7.678-4.604 0-9.209 0-9.209-9.213-3.078 0-7.699 1.535-10.773 1.535-3.847 0-8.748-4.295-12.054-8.396.047-.898.086-1.788.129-2.687.71.095 1.427.168 2.205.168 0-2.162 6.5-2.162 6.5-8.675 0-3.246-4.303-8.676-4.303-9.763 0-7.596 20.58-17.355 20.58-27.118 0 1.088-8.689-10.842-8.689-18.425 0-3.263 2.197-1.092 2.197-16.276 0 0 0 1.088-1.1 1.088 1.1 0-22.764-26.026-22.764-42.293 2.189-2.171 2.189-4.342 2.189-7.596 0-2.158 3.237-2.158 3.237-3.246s-1.084-4.346-2.193-4.346c-1.044 0-6.491 8.675-6.491 8.675 0 1.083 0 2.171-1.088 2.171-1.99 0-4.87-1.578-8.146-3.878-9.2-6.495-21.465-18.893-25.459-18.893-5.446 0-6.5 14.1-16.293 14.1-1.637 0-3.61-.787-5.704-1.763.3-1.625 1.616-1.147 1.616-2.63 0-2.537 0-5.065-3.37-5.065 0 1.81-1.952 2.902-3.745 5.215-1.72-.68-3.443-1.182-5.055-1.182-16.276 0-12.996 16.267-21.675 16.267-10.855 0-20.622-14.1-29.306-14.1-1.07 0-3.25 0-3.25 2.17 0 2.171 18.472 16.268 19.521 34.706 0 0-2.158 7.596-4.324 7.596-1.062 0-2.176-1.083-4.35-1.083-1.063 0-1.063 1.083-1.063 1.083 0 .86 5.537 1.04 7.773 4.97-10.932 4.715-23.262 11.306-35.6 19.078-3.972-2.717-7.605-7.287-9.965-7.287 0 2.541-1.68 1.686-1.68 3.375 0 7.437 4.65 4.677 8.486 5.933a319.862 319.862 0 0 0-10.099 6.818c-.348-.59-.627-.942-1.77-.942 0 .718.128 1.363.313 1.986a252.678 252.678 0 0 0-5.206 3.788c-2.837-5.348-5.425-10.386-9.02-10.386-.734 0-2.196.37-3.49 1.087a7.367 7.367 0 0 1-.494-.232c0 .228-.073.4-.108.61-.503.336-.954.697-1.315 1.144-2.137-1.844-5.107-3.99-9.338-6.431 0-13.486-12.634-12.652-45.512-45.526-2.541 0-6.754 1.69-6.754 5.064 0 3.126 1.436 1.213 1.655 2.261-.159.237-.344.465-.529.688-.313 0-.709.013-1.126.426 0 .202.12.434.18.653.486 1.802 2.877 4.046 6.2 6.505.09.365.167.705.258.988-3.25-1.083-6.492-4.333-8.688-4.333l-1.084 3.25c1.083 1.083 3.28 0 4.346 1.083V9.67c1.08 0 0 1.083 1.08 2.171 0 1.754 2.815 4.9 3.907 6.625.142-.06.245-.116.439-.116 14.083 0 7.6 13.008 21.67 13.008-1.053 3.254-1.053 6.504-1.053 10.842 0 5.43 5.404 7.596 5.404 9.763l-1.057 1.083c0 5.434 1.057 6.513 1.057 6.513 1.096 0 3.25-5.425 4.346-5.425 2.184 0 3.237 1.083 5.438 1.083 1.062 0 3.238-4.337 5.4-4.337.864 0 2.09.176 3.448.386 3.546 4.115 7.703 9.063 10.915 13.654-6.023 5.146-11.629 10.438-16.577 15.781-4.574-5.141-8.946-15.665-12.433-15.665-1.539 0-1.539 1.539-1.539 3.074 0 4.612 3.091 7.682 3.091 12.299 0 3.07 0 7.686-4.617 7.686-6.147-1.543-7.682-7.686-10.751-7.686-1.544 0-4.609 0-4.609 3.07 0 7.682 12.29 13.838 12.29 21.507 0 3.078-4.612 4.617-6.147 7.69-6.143-3.073-9.23-6.142-23.05-6.142 0 12.29 9.225 10.755 9.225 18.442 0 33.798-29.216 32.263-29.216 36.88 0 6.354 3.182 9.037 6.874 11.835.374.288.766.585 1.165.882a8.706 8.706 0 0 0-.937-.06c0 3.262-1.096 5.43 3.242 6.504 1.504 0 2.459-.555 2.914-1.63 2.82 3.405 4.983 8.34 5.155 16.805-.843.443-1.337.817-1.337 1.13 0 .052.021.1.021.147-7.101 1.414-14.926 3.138-15.493 9.724-.916 1.045-1.401 3.216-1.401 4.462 0 2.532 0 3.375 1.689 5.064 2.54 0 3.383-.838 3.383-4.217-.292-.593-.606-1.5-.898-2.429 1.66 1.092 3.899 2.679 6.328 4.983-.503-.25-1.01-.413-1.462-.413-2.14 0-2.14 3.25-2.14 6.504 0 2.752.85 3.749 2.041 4.123-3.916 1.401-8.941 3.534-8.941 6.625h4.23c6.32 0 10.115 1.676 10.115 5.894 0 1.685-4.221 4.221-4.221 5.902 2.532 0 3.374 2.532 3.374 5.06-2.523 0-3.374 2.949-3.374 5.047.657 0 1.401.056 2.145.142-28.326 8.017-90.828 19.637-90.828 23.175 0 .757 0 .757 1.526.757 8.963 0 56.91-6.027 82.875-8.71.137 1.14 1.057 3.108 1.057 5.124 0 2.176-1.096 4.342-4.35 4.342z" fill="url(#b)" transform="rotate(120 1168.894 206.748)"/></g></svg>