<svg width="404" height="359" xmlns="http://www.w3.org/2000/svg"><defs><linearGradient x1="110.046%" y1="0%" x2="29.318%" y2="73.118%" id="a"><stop stop-color="#FF9030" stop-opacity=".3" offset="0%"/><stop stop-color="#FF9030" offset="100%"/></linearGradient></defs><path d="M1025.966 66.844c.069 1.288-1.26 2.003-1.31 3.053-.057 1.415 1.431.493.876 2.181-.386 1.17-2.201 2.006-2.618 3.927-1.22 5.623-.917 16.102 3.052 19.632.425.379 2.97.207 3.492.437 2.492 1.105 8.05 4.791 10.035 5.234 1.34.3 3.03-.525 4.362-.435 3.63.244 7.268 1.39 11.342.872 3.373-.428 7.71-2.982 10.036-2.618.061.011 1.262 1.228.872 1.309 1.238-.254 7.684-4.603 9.596-5.234.383-.127 1.115.963 1.748.872.528-.075.465-1 1.307-1.31 2.19-.804 6.743-.132 7.417-.436 3.427-1.552 5.012-13.494 6.545-15.268 2.594-3.014 6.756-5.372 10.904-6.982.905-.35 5.01-3.272 7.417-2.181.896.403 1.718 4.635 1.748 4.362-.28 2.932-3.593 5.33-3.494 8.726.108 3.54 2.726 9.092 3.055 11.78.133 1.05-.452 3.604 0 4.362 1.443 2.414 5.75 1.47 7.854 3.057 3.944 2.969 3.105 9.714 5.234 13.521.74 1.326 2.61 1.248 3.49 2.618 1.814 2.831.378 4.33 2.183 6.107 1.632 1.607 3.692 2.47 5.235 2.62 1.863.179 2.3-1.343 4.362-1.747 2.32-.453 4.212.587 6.545-.437 3.557-1.559 6.836-5.831 11.342-7.415 1.24-.437 2.375.082 3.49-.437 1.007-.467 2.318-2.261 3.49-2.616 1.526-.463 3.614.46 5.235 0 4.12-1.163 7.109-5.763 10.47-6.545 1.636-.381 3.582.766 5.234.435 1.597-.316 3.124-2.401 4.8-2.616 1.237-.16 3.101 1.367 4.8 1.309 3.502-.12 7.576-2.758 11.778-2.616 2.872.093 4.222-.37 6.106-.437 2.004-.075 6.216 2.147 9.163 1.744 2.95-.402 9.059-4.872 12.216-6.545 5.743-3.038 11.537-7.54 17.888-9.597.504-.164 1.992.307 1.746.435 2.678-1.376 3.921-5.01 6.978-4.36-.37-.08 7.029 5.953 7.417 6.542 1.336 2.013 2.603 7.966 1.745 10.907-1.147 3.938-7.311 10.362-12.215 13.088-1.436.798-3.397.508-4.799 1.31-1.703.972-3.191 3.532-5.234 5.233-1.322 1.1-3.703 1.373-4.8 2.181-1.323.979-1.594 3.069-2.182 3.49-1.37.99-3.136.331-4.362.875-1.627.718-1.898 2.748-3.054 3.925-.874.889-1.74.06-2.18.872-1.5 2.767-.296 6.056-.875 8.726-.033.157-1.675-.16-1.744 0-1.768 4.075.891 7.19 1.744 11.342.198.956-.874.876-.872 2.183.012 3.75 3.414 10.01.872 13.96-2.147 3.345-9.09 2.637-12.214 2.617-4.246-.028-7.441 1.128-11.781 1.309-3.763.159-9.036-.443-10.469 0-3.445 1.068-11.807 7.385-12.216 9.598-.838 4.547 2.448 6.803 6.543 6.545 9.86-.622 17.537 1.067 25.305 0 2.287-.315 4.248-.513 6.98-.874 2.11-.276 4.872-.724 6.98-1.307 1.513-.42 2.534-2.162 3.927-2.618 3.093-1.008 3.472.2 4.801 0-.076.01 3.825-2.142 6.542-2.181 1.908-.028 10.715-.928 11.78.435 3.465 4.433-3.17 4.237-6.107 4.364-2.133.09-3.558 1.59-5.673 1.744-2.073.153-4.105-1.503-6.107-1.744-8.096-.978-18.645 7.43-22.251 14.396-3.97 7.67 4.864 14.362 12.651 17.45 1.81.717 4.12 2.973 6.108 3.053 2.813.114 11.735-4.713 10.034 2.181.091-.36-2.502 2.213-3.927 2.62-3.769 1.076-6.189-1.02-9.16 0-2.526.867-2.526 2.81-3.49 3.49-.862.607-1.264-1.493-1.746 0-.442 1.38 1.873 5.298 1.746 7.416-.207 3.512-1.805 4.057-4.799 6.543-.28.233-.808 1.705-.872 1.746-.978.614-2.624-.01-3.49.874-.39.396.72 1.176.435 1.744-1.216 2.431-6.153 3.78-4.797 7.852 1.215 3.65 9.385.017 13.088 2.181.712.419-.01 1.612.87 2.62.92 1.048 2.818.61 3.055.87.95 1.055-.347 3.425 3.053 3.927 1.573.232 3.642-1.193 5.237-.873 1.62.326 9.725 5.518 10.47 5.673.407.082.377-1.083.87-.872 3.143 1.338 5.173 4.545 10.037 4.797 1.94.103 3.789 1.856 5.673 2.183 1.671.29 3.63-.721 5.233-.44 3.831.684 12.418 3.984 16.143 4.365 2.84.291 10.57-1.414 12.651 1.309 1.459 1.905-1.096 7.367-2.18 7.854.283-.129-6.176-.687-8.29-1.31-3.39-.998-4.749-2.684-8.287-3.054-2.215-.23-5.666-1.662-8.291-2.181-2.477-.49-3.71.13-6.109 0-3.236-.176-7.587-3.15-12.214-3.49-4.904-.36-7.25-.644-11.781-.872-3.464-.174-3.597-3.518-6.105-3.927-2.743-.445-6.943 3.497-8.728 4.362-.676.33-1.025-.803-.872-.872-.704.323.058 1.188-.874 1.744-2.016 1.208-7.23.082-10.468 0-2.728-.067-10.18-5.447-11.344-.872-.848 3.337 3.452 2.106 4.362 3.055.693.719-.461 1.45 0 2.616.605 1.524 5.467 5.331 8.289 6.11 2.347.644 5.292-.52 7.42-.437 2.255.088 5.076 1.537 7.85 1.744 2.296.172 4.367-.911 6.108-.872 1.564.038.444 1.104 1.307 1.31 2.164.509 6.47-.865 9.6-.873 3.075-.01 6.431 1.17 9.598 1.31 1.666.072 18.106-.505 10.47 3.487-2.324 1.216-1.447.365-2.618.437-3.755.234-11.66-1.501-17.885-1.309-5.597.174-13.272-1.785-20.07-1.744-2.712.015-4.512 1.487-7.853.872-4.917-.905-9.316.307-14.832-.435-1.115-.151-4.928-1.759-6.107-1.309-2.326.882-2.392 5.985-3.929 7.415-.397.37-1.118-.696-1.307-.435-.23.312.284 1.599 0 2.181-.196.4-1.738.542-2.183 1.308-1.008 1.751-1.785 9.264-1.307 10.472.876 2.216 9.117 4.231 11.343 4.362 5.019.295 10.924 2.734 17.452 3.925 4.216.771 8.179-1.062 12.212-.435 2.45.381 6.839 2.87 6.98 3.925.602 4.49-4.897 2.652-5.67 2.62-4.562-.2-10.351-.44-13.522-2.183-2.026-1.11-5.285-1.223-8.291-.437-3.5.917-13.146 1.044-12.215 3.93.368 1.14 9.227 2.289 10.47 2.615 6.05 1.584 12.295 6 19.195 8.727 1.821.718 4.706.49 6.108 1.307 1.35.788.434.517 2.62.874 1.972.32 3.076 2.153 4.796 2.616 1.441.388 3.195.439 4.799 1.309 2.043 1.107 11.975 2.175 10.472 5.673.163-.375-.265.848-3.055.435-6.37-.943-18.19-8.93-25.74-11.342-4.418-1.414-11.346-1.974-13.962-3.49-1.959-1.14-.028-.95-2.18-.874-3.592.128-8.606-4.275-12.652-6.107-2.497-1.131-4.633-.866-9.16-2.18-3.673-1.069-8.821-4.383-10.907-3.928-4.204.919-5.186 3.076-9.596 5.234-4.064 1.987-8.381 1.898-9.599 4.8-.485 1.157.101 5.9.87 7.417 1.235 2.43 2.835 1.167 4.803 2.18 1.315.68 2.348 3.222 4.362 3.928 4.674 1.64 9.616-.217 11.341 2.618.433.71.545 3.764-.874 4.362-1.738.732-4.857-2.618-5.671-3.053-3.854-2.073-9.802-5.787-7.415 1.744.541 1.709-.424 1.852.872 3.053 1.85 1.714 8.997-.256 6.978 6.108.359-1.124-2.96 2.6-2.18 2.181-2.763 1.481-8.989-3.368-10.47-3.49-.982-.078-.735 1.025-2.18 1.31-2.286.45-7.481-1.175-9.599 0-1.17.65.461 1.28 0 2.18-.302.592-3.626 2.054-5.234 4.364-1.326 1.903-1.154 4.36-1.746 5.236-.071.103-1.765.535-1.746.436-.868 4.216 4.702 9.066.437 10.905-.276.12-1.63-.715-1.746-.435.024-.056 1.944 11.656-.872 10.47.188.079-2.187-5.29-2.18-6.98.012-2.467.542-3.796-3.054-4.8-2.24-.623-9.141-.317-10.473 1.31-2.02 2.47-1.596 9.861.874 11.342.956.572 2.264-.48 2.618-.435 2.942.374 12.723 3.425 6.98 8.29-1.363 1.152-10.983.967-13.088-.875-1.456-1.277-.002-.707-2.618-.437-2.523.262-3.425-1.441-6.108-2.18-1.36-.376-2.222.623-3.053.436-1.175-.265-.299-1.467-1.746-2.18-.493-.243-1.055 1.37-1.742.871-1.307-.943-2.092-3.662-3.925-4.799-4.906-3.034-7.474-6.896-13.963-6.543-3.107.168-8.282-1.783-11.342-.435-2.25.988-6.478 5.507-6.98 8.287-.012.058.504 5.083.433 4.8.224.903 1.666 4.362 3.057 6.544 1.169 1.838 6.175 6.53 1.742 9.162-.35.207-6.444.142-7.852-.874-1.369-.986-1.203-4.396-2.181-6.543-3.599-7.886-13.921-9.925-20.504-14.398-.484-.328-1.722.357-2.181 0-.58-.45-.543-2.244-1.309-3.053-.168-.177-1.987-.312-2.18-.435-3.598-2.304-6.365-9.357-11.345-10.035-8.607-1.175-5.685 8.894-6.107 13.96-.136 1.638-.668 3.356-.875 3.49-5.698 3.726-8.917-11.874-12.648-12.651-2.078-.433-4.3 2.848-6.545 2.616-1.526-.155-2.663-2.689-3.927-3.925-2.34-2.284-10.317-13.412-13.089-14.397-5.98-2.13-12.126 3.262-16.576 3.927-3.027.45-8.797-.098-12.655-1.746-2.24-.956-2.166-1.57-5.233-2.181-6.037-1.203-12.85-7.58-13.962-14.398-.265-1.632-.8-5.266.437-6.543.146-.15 1.227.175 1.309 0 .687-1.48 1.542-5.414 2.62-6.98.94-1.37 4.04-3.593 0-5.236-2.099-.852-4.652.459-6.547 0-5.84-1.416-10.022-8.622-8.287-14.396.183-.614 1.902-4.55 2.616-5.671.696-1.092 1.957-.362 2.183-1.746.74-4.555-3.733-9.71-6.545-10.033-4.504-.521-9.976 8.885-11.343 1.744-.715-3.731 4.323-7.195 5.671-7.853 8.243-4.03 4.884-11.461-2.182-16.143-2.025-1.34-2.781-3.964-3.926-4.362-1.923-.669-4.377 1.322-6.108 0-1.412-1.078-.067-3.563-2.618-4.364.125.04-11.24 2.607-7.413-.87 1.626-1.48 6.416-1.188 8.285-1.744 2.247-.673 4.31-2.241 5.671-2.62 2.013-.559 4.3.872 5.236-.872.55-1.018-.956-5.705-2.18-6.98-3.907-4.064 1.895-9.55-2.184-14.833-.982-1.274-5.034-2.96-6.978-3.053-2.976-.148-6.116-1.108-5.238-6.108.224-1.263 2.964-3.089 3.492-5.236.372-1.502-.385-2.64 0-3.49.405-.893 2.078-1.481 2.181-2.182.222-1.495-1.587-4.375-1.744-5.67-.329-2.679.76-5.12-.87-7.418-2.42-3.402-6.83-4.49-6.547-8.29.153-2.02 3.798-5.235 6.11-5.235 2.116.002 2.515 2.472 3.927 2.62.866.09.482-1.57.87-1.746 1.038-.469 2.822.425 3.925 0 1.259-.486 3.216-5.472 1.748-8.288-.711-1.365-2.63-.63-4.366-2.183-1.85-1.656-6.06-7.96-3.925-12.214.637-1.272 3.75-2.263 5.673-2.62 1.216-.222 7.066 1.567 9.161.437 1.48-.795.062-3.888 1.743-6.543.75-1.18 2.663-.885 2.621-2.618-.048-1.86-8.47-9.264-10.035-12.652-.681-1.473-7.419-6.49-9.163-10.47-3.258-7.441 2.383-5.02 3.925-2.618.293.454.387 3.242 2.185 3.927 3.06 1.169 8.342 1.374 10.906 2.616.77.376 1.22 1.728 1.309 1.746 3.869.822 9.895-1.624 10.468-6.545.314-2.678-1.843-6.136.874-8.724 3.397-3.23 8.862.468 10.907 0 2.98-.684 2.846-4.008 4.36-7.417 1.354-3.035 4.831-5.3 5.238-7.853.464-2.907-2.705-6.115-1.746-7.852.422-.764 2.753-.777 3.054-1.309.603-1.07-.865-3.675.874-4.8 1.378-.89 6.046.432 7.415 1.747.345.33-.631 1.216-.435 1.744.256.695 6.334 6.883 4.797 6.108 2.863 1.447 12.678-2.257 12.653-2.183.151-.45-4.784-3.464 0-5.234 1.856-.687.717 1.686.87 1.744 2.626 1.025 10.284-10.995 10.908-13.958.784-3.715-4.185-14.667 0-15.272 1.03-.147 2.672 1.799 3.053 1.746.6-.084.037-1.484.437-1.746 4.83-3.092 3.783 3.629 5.673 8.29.795 1.97 3.51 5.665 3.925 6.108.682.728 4.007 2.808 4.8 2.618 1.44-.344 2.628-9.748 3.052-13.089.286-2.22.717-6.39.874-10.47.226-5.8-3.382-13.417 2.616-14.832 3.45-.815 5.448 1.28 5.672 5.67z" transform="matrix(-1 0 0 1 1303 -61)" fill="url(#a)" fill-rule="evenodd"/></svg>