<svg class="c-hero__full-bg" viewBox="-26 -28 1496 470" xmlns="http://www.w3.org/2000/svg"><defs><linearGradient x1="50%" y1="100%" x2="50%" y2="-16.834%" id="a"><stop stop-color="#01A4FF" offset="0%"/><stop stop-color="#0055B8" offset="100%"/></linearGradient><linearGradient x1="100%" y1="122.475%" x2="18.938%" y2="0%" id="b"><stop stop-color="#01A4FF" offset="0%"/><stop stop-color="#0055B8" offset="100%"/></linearGradient><linearGradient x1=".373%" y1="43.907%" x2="99.627%" y2="56.093%" id="c"><stop stop-color="#01A4FF" offset="0%"/><stop stop-color="#0055B8" offset="100%"/></linearGradient><linearGradient x1="52.773%" y1="17.9%" x2="33.231%" y2="112.806%" id="d"><stop stop-color="#01A4FF" offset="0%"/><stop stop-color="#0055B8" offset="100%"/></linearGradient><linearGradient x1="45.671%" y1="10.055%" x2="69.575%" y2="94.193%" id="e"><stop stop-color="#01A4FF" offset="0%"/><stop stop-color="#0055B8" offset="100%"/></linearGradient></defs><path d="M37.768 293.141c-.895 3.247 3.14 5.125 3.556 6.965-2.147 1.205-3.236 1.803-3.68 3.425-.674 2.441.8 3.68 2.074 5.733-3.643-.045-6.266 2.774-7.387 6.845-.447 1.623-.26 4.277 1.02 6.334-1.092.595-15.224-1.196-17.017 5.316-.448 1.622.194 2.646-.26 4.274-4.285-1.069-4.22-4.527-7.647-5.381-4.282-1.069-7.105 2.574-12.213 1.3-5.153-1.282-3.584-6.97-9.57-8.464-4.256-1.06-6.009 1.973-7.733 1.541-.84-.208-.84-.208-.614-1.024.45-1.619 3.459-2.61 4.35-5.86.23-.813-1.852-6.542-7.83-8.036.672-2.438 2.813-3.634 3.49-6.075 1.117-4.066-1.024-2.863-2.918-5.944 2.147-1.202 3.462-2.607 4.132-5.047.45-1.623.898-3.254.482-5.093 2.175-1.197 4.952-1.366 5.628-3.81.225-.81-.417-1.84-.188-2.652.22-.812 21.306-7.714 23.7-9.726 3.425.85 6.148 4.143 9.57 4.994 2.557.637 4.732-.563 7.518-.738.698 14.08 15.8 5.679 11.537 21.123" fill="url(#a)" fill-rule="evenodd"/><path d="M916.164 186.299c3.457.68 5.219-3.25 7.129-3.741 1.378 1.976 2.063 2.979 3.79 3.316 2.598.511 3.822-.953 5.912-2.27.144 3.461 3.24 5.805 7.576 6.656 1.727.34 4.505.022 6.598-1.3.682 1.005-.46 14.519 6.473 15.881 1.727.34 2.769-.323 4.502.023-.898 4.125-4.533 4.244-5.25 7.543-.899 4.122 3.075 6.612 2.004 11.53-1.077 4.96-7.133 3.768-8.389 9.53-.89 4.097 2.387 5.603 2.024 7.263-.175.807-.175.807-1.043.636-1.724-.343-2.922-3.148-6.382-3.825-.865-.174-6.774 2.102-8.03 7.857-2.595-.511-3.964-2.481-6.562-2.996-4.329-.848-2.954 1.122-6.09 3.082-1.375-1.977-2.92-3.151-5.517-3.66-1.727-.343-3.464-.682-5.374-.19-1.37-2.004-1.694-4.632-4.295-5.146-.862-.171-1.91.492-2.776.317-.864-.165-9.217-19.828-11.455-21.996.715-3.297 4.03-6.055 4.744-9.348.535-2.462-.838-4.465-1.168-7.1 14.751-1.4 5.137-15.302 21.58-12.062m115.673-135.768c.917.18 1.384-.861 1.89-.992.366.524.548.79 1.006.88.689.135 1.013-.253 1.568-.602.038.918.86 1.54 2.009 1.765.458.09 1.194.006 1.75-.345.18.267-.123 3.85 1.716 4.212.458.09.734-.086 1.194.006-.238 1.094-1.202 1.125-1.393 2-.238 1.093.816 1.753.532 3.057-.286 1.316-1.891 1-2.225 2.527-.236 1.087.633 1.486.537 1.927-.046.214-.046.214-.276.168-.458-.09-.775-.834-1.693-1.014-.23-.046-1.796.558-2.13 2.084-.688-.136-1.05-.658-1.74-.795-1.147-.225-.783.298-1.614.817-.365-.524-.775-.835-1.464-.97-.458-.091-.918-.181-1.425-.05-.363-.532-.449-1.229-1.139-1.365-.228-.046-.506.13-.736.084-.229-.044-2.444-5.258-3.037-5.833.19-.874 1.068-1.606 1.258-2.48.142-.652-.223-1.183-.31-1.882 3.912-.371 1.362-4.058 5.722-3.199" fill="#459BFF" fill-rule="evenodd"/><path d="M1111.91 318.227c0 7.508-4.606 11.221-13.669 18.689 4.557 7.508 27.487 11.261 27.487 26.237 0 71.002 64.136 18.608 87.166 78.55 13.768-3.794 23.03-11.262 36.798-11.262 18.324 0 36.6 11.262 54.973 11.262 9.262-11.262 105.59-63.615 105.59-67.329 0-.201-.149-.403-.149-.605 23.03 16.994 45.564 37.055 48.982 37.782 4.457.807 8.964 1.695 10.004-1.978 0 0-36.105-36.208-63.096-48.882 1.832-9.365 14.115-13.119 22.633-20.021-4.408-7.105-4.606-14.169-4.606-21.273 1.09 1.776 2.328 3.512 3.715 5.369 4.457.807 15.501-4.683 16.541-8.356 2.13-7.306-6.785-9.042-11.292-9.93-2.327-.484-5.002.202-7.082 1.373 2.08-5.934 5.894-10.899 11.837-15.783-13.719-11.262-22.881-3.794-22.881-22.443 0-11.221 9.162-18.689 9.162-29.95-32.142 0-50.516-22.403-50.516-26.198 0-14.975 13.718-22.402 13.718-29.91 0-3.794 0-3.794-4.407-3.794-9.311 0-13.967 14.935-36.798 14.935-32.093 0-32.093-26.076-59.729-26.076-27.437 0-36.6 18.73-59.629 18.73-18.424 0-22.831-15.017-45.861-15.017 0 7.428 4.655 11.222 4.655 18.73 0 29.91-73.546 37.378-78.152 41.132 9.262 7.467 13.917 18.73 13.917 26.197 0 18.729-9.31 33.664-27.635 37.378 9.212 7.467 18.324 11.221 18.324 22.443z" fill="url(#b)" fill-rule="evenodd"/><path d="M208.075 91.146c.744-.785 1.594-.761 3.281-.73.267-1.194-1.76-3.64-.276-5.206 7.031-7.426-4.865-7.69-1.338-16.021-1.815-.836-3.524-.885-4.964-2.118-1.916-1.64-2.712-4.455-4.634-6.1-2.084.348-17.344-2.802-17.712-2.414-.02.021-.024.056-.044.077-.726-3.84-1.096-7.956-1.381-8.338-.387-.484-.77-.98-1.243-.689 0 0 .19 7.02 1.758 10.763-1.119.815-2.775.108-4.35.067-.242 1.138-.921 1.894-1.625 2.637.062-.283.105-.575.144-.894-.387-.483-2.085-.898-2.558-.607-.946.573-.186 1.553.198 2.05.195.259.543.426.876.49-.805.435-1.696.612-2.8.591.319 2.406 2.017 2.446.17 4.396-1.112 1.174-2.81 1.135-3.925 2.312 3.362 2.879 3.065 6.867 2.69 7.264-1.484 1.566-3.654 1.115-4.398 1.9-.376.397-.376.397.085.791.974.834 2.94-.31 5.328 1.734 3.357 2.873.774 5.6 3.665 8.075 2.87 2.457 5.682 1.319 8.091 3.381 1.927 1.65.901 3.615 3.31 5.678.735-.777.624-1.591 1.368-2.376 2.962-3.129 11.394 2.676 12.247 2.696-.229-1.61.4-3.205 1.14-3.986 1.854-1.959 4.307-2.687 6.591-1.435-.224-1.606-.805-2.814.306-3.988" fill="#459BFF" fill-rule="evenodd"/><path d="M647.71 286.767c.226-1.754 1.145-2.527 2.96-4.086-.573-1.847-4.48-3.193-4.028-6.692 2.142-16.587-10.681-5.66-12.91-20.134-2.528.604-4.377 2.16-6.79 1.878-3.212-.375-6.076-3.38-9.297-3.756-1.963 2.441-20.428 12.7-20.54 13.567-.006.048.014.098.008.145-3.525-4.441-6.87-9.59-7.447-9.829-.757-.28-1.52-.58-1.813.257 0 0 5.237 9.198 9.586 12.711-.604 2.15-2.87 2.776-4.572 4.214.559 1.75.38 3.404.166 5.064a17.622 17.622 0 00-.49-1.33c-.756-.28-2.858.776-3.15 1.613-.595 1.663.916 2.251 1.679 2.551.393.16.883.055 1.283-.176-.544 1.344-1.362 2.426-2.551 3.445 2.065 2.912 3.896 1.355 3.334 5.711-.339 2.622-2.17 4.179-2.51 6.81 5.635.657 8.18 6.267 8.065 7.153-.452 3.499-3.08 4.953-3.307 6.707-.114.887-.114.887.658.977 1.632.19 2.9-3.203 6.901-2.736 5.626.657 4.84 6.748 9.684 7.314 4.81.561 6.98-3.626 11.017-3.155 3.23.377 3.55 3.975 7.587 4.446.224-1.735-.478-2.716-.252-4.47.903-6.988 14.02-7.227 14.94-8.01-1.397-1.934-1.874-4.66-1.648-6.404.565-4.376 2.647-7.674 5.971-8.167-1.39-1.933-2.873-2.996-2.535-5.618" fill="url(#c)" fill-rule="evenodd"/><path d="M764.527-19.458c-.835-.459-.966-1.145-1.377-1.37-1.246-.685-2.898.232-3.467 1.168-1.104 1.818-1.26 2.968-1.817 3.885-2.226 1.843-4.16 3.232-6.65 3.695-4.145-2.275-4.81-7.536-7.293-8.899 0 0-.69.235-.97.696 3.171 2.957 5.225 7.744 2.71 11.886-3.905 6.431-13.027 6.92-18.032 11.525L721.94.004c2.466-.766 5.482-1.918 6.696-3.22 0 0 .37-.405.032-.73-2.48 1.229-6.083 2.388-8.22 3.131l-.674-.37c.125.148.294.3.43.448-.835.288-1.42.515-1.517.627-.37.384-.746.786-.398 1.116 0 0 1.236-.28 2.857-.764 1.83 1.764 4.107 3.418 6.067 4.494.411.226 1.52.213 2.347.667 2.072 1.138.804 4.128-.586 6.417-3.908 6.436-6.498-1.116-9.01 3.02-.713 1.175 3.8 3.012 4.179 6.8-.343-.307-1.063.467-1.434.852-.024.726-.024.726.313 1.044.215.223.596.254.93.146-.007.03-.007.05-.019.07l-6.216.253c-.415-.228-.698.238-.698.238-.837 1.378-.017 3.657.818 4.116 1.241.681 2.896-.24 3.307-.014 2.073 1.137 1.097 3.667.674 5.265-2.21.002-4.704.47-6.103 2.774-.276.455-.55.906.28 1.362.416.228 1.927.457 3.034.457 2.899 1.591 4.547 4.32 2.595 7.535-.836 1.377-8.17 3.462-8.17 3.462l6.343 2.273c.013.008.033.005.045.005-.212.868.062 1.997.57 2.493.684.66 2.801.448 3.908-.728.009-.015.01-.054.024-.079 1.568 2.076 3.303 5.064 4.136 6.743-2.515 4.142-7.085 5.293-8.2 7.131-.284.466-.136 1.135.275 1.36 2.894 1.59 7.066-5.283 10.38-3.463 1.246.684 1.931 2.282 1.098 3.654-.195.323-.583.54-.986.939a2.444 2.444 0 00-.192-.185c-1.04-.26-1.04-.26-1.407.14-1.098 1.18 1.942 4.118 2.287 4.452.011-.47.148-.784.293-1.041 1.264-.337 3.279-1.272 4.82-.426 3.72 2.042 1.768 5.258-.456 8.92 1.257-1.147 2.916-2.066 4.158-1.385 2.068 1.136 1.913 4.116 3.57 5.026 1.242.682 3.612-4.134 10.646-.273 1.653.907.12 4.354-.43 5.26 5.512 1.818 7.498-6.896 14.117-3.262.826.453 1.512 2.059 2.334 2.51 1.054.579 2.296-.477 3.707-1.71l.246.24-.081-.395c1.894-1.668 4.064-3.575 6.387-2.3.835.458 1.106 1.816 1.65 2.743a4.697 4.697 0 011.705-.267c-.045 1.085.089 2.15.432 2.477.676.662 1.003.986 1.72.924.807-.878 1.07-1.803 1.055-2.69 1.295.28 2.641.181 4.486-1.62.825.856 1.29 1.11 2.358-.04.373-.39.76-1.506.071-2.168-.105-.11-.221-.214-.332-.315a43.934 43.934 0 001.673-2.55c2.05 1.126 4.223 2.92 5.99 4.512-2.377.835-4.435 1.469-4.642 1.692-.36.397-.732.794-.389 1.121 0 0 8.15-1.86 10.347-4.222 0 0 .363-.402.029-.724-.926.456-2.028.908-3.14 1.335 1.192-2.266-1.443-4.928-2.642-7.397 4.29-2.526 9.695-5.082 13.565-6.003.416.228.56.902.976 1.13.826.454 1.927.464 2.493-.467.698-2.062.707-5.716.442-7.104 1.803-.232 8.46-5.754 11.774-3.934l7.034 3.861c-1.37-1.373-6.477-4.778-5.918-5.7.554-.911 1.535-1.615 1.808-2.066.56-.921.415-1.595.287-2.286-1.109.012-2.215 0-3.456-.682-1.215-.667-2.116-1.822-2.13-3.389.204-.08.41-.204.594-.408.38-.4.032-.729.032-.729-.088-.081-.275-.058-.494.02.063-.243.126-.493.222-.75 2.506-4.127 6.526-4.372 9.04-8.514.274-.45.415-1.595.972-2.512 1.116-1.838 2.901-.237 4.3-2.541.833-1.373-.257-3.207.017-3.657l.283-.466c-1.94-.444-4.017-1.584-6.495-2.945-1.36-5.027 2.163-17.185.104-21.975-1.652-.907-3.451 1.144-4.693.463-3.174-2.952-3.171-4.78-2.055-6.619.565-.931 1.534-1.615 2.088-2.526.562-.927.427-1.616-.81-2.295-2.504.475-3.338 1.848-5.812.49-6.623-3.637 1.279-8.481-1.62-10.073-1.616-.887-4.196 1.41-7.619 1.162.598-.062 1.185-.314 1.736-.897 1.1-1.173.45-2.547-.573-3.538-1.013-.98-3.13-.78-4.226.408-1.101 1.186-1.127 1.905-.786 2.237.447.43 1.007.87 1.624 1.229-.263-.118-.53-.178-.806-.33-7.03-3.86 1.145-7.32-2.585-9.367-2.559-1.405-3.426 4.33-7.03 3.791-.041-.617-.24-1.182-.647-1.406-.34-.186-.874-.03-1.36.535-2.513-1.756-3.327-5.427-4.502-6.072-.826-.453-4.435 1.853-5.548 3.686-2.068-1.135-1.63-4.574-3.291-5.486-1.106.007-1.389.473-1.669.933-.833 1.373-.28 2.277-1.397 4.116-.28.46-6.653 3.7-10.793 1.427-.415-.228-.688-1.593-.254-3.211.55-.907.143-2.961-.688-3.417-1.099.005-1.788.227-2.07.693-1.114 1.833-.585 4.581-1.421 5.959-1.113 1.833-4.712 2.308-5.534 1.857" fill="url(#d)" fill-rule="evenodd"/><path d="M1445.538 122.587c.206.031.29.154.39.17.308.046.564-.244.601-.464.071-.427.007-.66.043-.875.295-.508.568-.91 1.03-1.17 1.023.154 1.594 1.123 2.207 1.216 0 0 .12-.093.137-.201-.883-.353-1.694-1.135-1.532-2.107.251-1.51 2.046-2.231 2.67-3.464l1.404.211c-.432.318-.943.748-1.08 1.082 0 0-.04.104.055.143.397-.407 1.025-.879 1.393-1.17l.167.026c-.038-.02-.084-.038-.124-.057.144-.113.243-.197.253-.225.043-.1.085-.203-.012-.243 0 0-.226.14-.512.344a7.156 7.156 0 00-1.593-.45c-.102-.015-.324.063-.528.033-.511-.077-.505-.741-.415-1.279.252-1.51 1.4-.231 1.562-1.202.045-.276-1.015-.32-1.406-1.025.095.036.175-.163.218-.263-.055-.141-.055-.141-.15-.18-.062-.028-.14-.008-.199.036-.001-.006-.003-.01-.002-.014l1.23-.477c.102.016.12-.094.12-.094.054-.323-.3-.707-.506-.738-.306-.046-.563.246-.664.23-.512-.076-.525-.632-.573-.969.444-.152.907-.414.997-.955.018-.107.036-.213-.17-.243-.102-.016-.425.044-.648.12-.715-.108-1.273-.52-1.147-1.275.054-.324 1.356-1.23 1.356-1.23l-1.465-.003-.01.002c-.03-.182-.178-.38-.321-.441-.193-.08-.601.106-.726.409 0 .003.003.011.002.017a11.519 11.519 0 01-1.392-1.017c.162-.972.985-1.508 1.057-1.94.018-.11-.067-.228-.168-.243-.714-.108-.983 1.505-1.8 1.382-.308-.046-.579-.308-.525-.63.012-.075.072-.144.12-.249a.58.58 0 00.054.023c.23-.022.23-.022.272-.124.123-.303-.733-.66-.83-.702a.414.414 0 01.027.221c-.226.152-.554.471-.934.414-.918-.138-.792-.893-.649-1.752-.157.307-.415.599-.721.553-.51-.077-.727-.663-1.136-.725-.306-.046-.383 1.046-2.119.785-.408-.061-.386-.832-.35-1.044-1.26.028-.936 1.846-2.57 1.6-.203-.03-.474-.294-.677-.324-.26-.04-.423.25-.604.585l-.07-.03.05.071c-.243.452-.52.97-1.094.883-.206-.031-.373-.274-.56-.416a.979.979 0 01-.32.169c-.082-.212-.197-.409-.293-.448-.191-.081-.284-.122-.423-.06a.727.727 0 00.011.591c-.284.035-.546.147-.768.622-.237-.109-.351-.126-.47.17-.043.1-.028.342.165.422.03.015.062.026.093.038a8.282 8.282 0 00-.125.607c-.506-.076-1.092-.273-1.58-.458.41-.325.77-.589.794-.646.04-.101.081-.203-.015-.243 0 0-1.485.92-1.73 1.526 0 0-.04.103.053.142.149-.152.333-.315.521-.474-.051.52.7.852 1.146 1.246-.653.782-1.528 1.647-2.23 2.09-.103-.015-.188-.135-.29-.15-.204-.03-.427.043-.463.262.03.445.332 1.151.5 1.4-.342.17-1.223 1.693-2.04 1.57l-1.737-.262c.39.17 1.7.477 1.664.693-.035.214-.174.417-.192.523-.036.216.05.336.132.46.222-.078.446-.151.752-.105.3.045.577.206.71.507a.295.295 0 00-.085.12c-.044.103.054.142.054.142.024.01.06-.007.097-.037.008.05.016.103.018.16-.161.968-.95 1.292-1.112 2.264-.017.106.05.336.014.551-.072.432-.564.246-.654.786-.054.323.318.601.3.707l-.018.11c.427-.048.94.03 1.55.121.692.877.993 3.465 1.805 4.247.408.062.6-.458.906-.412.883.352 1.035.705.963 1.136-.037.219-.175.417-.21.631-.037.218.048.341.353.387.464-.264.518-.586 1.128-.494 1.635.246.448 1.724 1.163 1.832.399.06.727-.56 1.436-.748a.528.528 0 00-.275.292c-.123.302.121.523.41.644.285.119.694-.065.816-.37.123-.304.068-.445-.028-.485a2.056 2.056 0 00-.429-.126c.063.005.122-.002.19.009 1.735.26.377 1.49 1.298 1.63.631.094.33-1.072 1.099-1.216.06.117.147.212.247.227.084.013.178-.054.23-.197.65.166 1.12.819 1.41.862.203.03.738-.662.81-1.092.51.076.707.77 1.117.832.222-.078.24-.187.258-.295.054-.322-.133-.459-.06-.89.017-.108 1.03-1.172 2.052-1.018.102.016.27.26.318.602-.036.213.217.582.422.612.22-.076.34-.166.359-.276.071-.43-.263-.924-.21-1.247.072-.43.757-.77.96-.739" fill="#459BFF" fill-rule="evenodd"/><path d="M458.393 249.257c1.919.289 2.695 1.438 3.638 1.58 2.863.431 5.248-2.272 5.589-4.318.661-3.973.065-6.138.399-8.14 2.744-4.736 5.29-8.469 9.596-10.894 9.52 1.434 14.832 10.456 20.536 11.315 0 0 1.112-.864 1.28-1.871-8.225-3.28-15.772-10.565-14.264-19.614 2.34-14.05 19.044-20.767 24.857-32.242l13.07 1.968c-4.026 2.956-8.783 6.956-10.049 10.072 0 0-.381.963.504 1.33 3.692-3.794 9.545-8.184 12.971-10.886l1.55.234c-.348-.186-.784-.351-1.154-.529 1.343-1.052 2.262-1.834 2.358-2.097.397-.928.788-1.89-.118-2.26 0 0-2.097 1.294-4.76 3.2-4.789-1.997-10.332-3.508-14.835-4.187-.944-.142-3.012.59-4.91.304-4.76-.717-4.697-6.9-3.864-11.9 2.342-14.062 13.03-2.154 14.536-11.193.427-2.566-9.442-2.976-13.081-9.538.88.332 1.63-1.519 2.027-2.447-.517-1.32-.517-1.32-1.394-1.674-.576-.265-1.312-.076-1.853.331-.011-.057-.027-.093-.02-.136l11.445-4.435c.954.144 1.123-.874 1.123-.874.502-3.01-2.795-6.58-4.713-6.868-2.852-.43-5.24 2.284-6.183 2.142-4.76-.717-4.888-5.885-5.332-9.025 4.138-1.419 8.445-3.855 9.283-8.888.166-.996.33-1.981-1.578-2.269-.954-.143-3.96.414-6.034 1.122-6.658-1.003-11.854-4.848-10.684-11.873.501-3.01 12.623-11.448 12.623-11.448l-13.636-.023c-.03-.004-.065.013-.087.02-.275-1.694-1.66-3.545-2.996-4.113-1.79-.746-5.59.99-6.755 3.81-.005.032.025.104.016.158-4.541-2.726-10.1-6.98-12.957-9.464 1.507-9.05 9.174-14.042 9.843-18.058.17-1.018-.624-2.125-1.568-2.267-6.647-1.001-9.148 14.013-16.76 12.866-2.863-.43-5.381-2.863-4.882-5.861.118-.704.676-1.341 1.122-2.317.166.08.304.135.502.209 2.147-.198 2.147-.198 2.526-1.151 1.144-2.824-6.82-6.154-7.724-6.534.342.85.328 1.503.257 2.058-2.108 1.414-5.158 4.383-8.697 3.85-8.546-1.287-7.376-8.312-6.043-16.312-1.466 2.864-3.863 5.577-6.715 5.148-4.75-.716-6.765-6.168-10.571-6.741-2.852-.43-3.568 9.738-19.726 7.304-3.796-.571-3.59-7.742-3.26-9.723-11.727.264-8.71 17.186-23.913 14.896-1.898-.286-4.425-2.73-6.313-3.014-2.42-.365-3.931 2.326-5.618 5.445l-.648-.275.458.657c-2.257 4.21-4.847 9.024-10.182 8.22-1.918-.289-3.476-2.554-5.212-3.87a9.109 9.109 0 01-2.986 1.57c-.753-1.977-1.827-3.803-2.723-4.171-1.777-.756-2.64-1.13-3.934-.56-.833 2.094-.612 3.925.102 5.508-2.64.324-5.085 1.365-7.146 5.782-2.209-1.01-3.276-1.17-4.386 1.58-.398.94-.258 3.19 1.542 3.94.283.13.58.242.867.352a76.56 76.56 0 00-1.162 5.65c-4.71-.71-10.167-2.54-14.706-4.268 3.805-3.022 7.17-5.478 7.384-6.011.368-.944.758-1.895-.138-2.263 0 0-13.824 8.56-16.111 14.207 0 0-.37.955.506 1.32 1.381-1.413 3.096-2.93 4.846-4.408-.48 4.832 6.514 7.927 10.667 11.593-6.082 7.284-14.227 15.334-20.762 19.465-.954-.143-1.746-1.261-2.7-1.405-1.898-.286-3.968.401-4.307 2.436.287 4.149 3.094 10.72 4.663 13.042-3.196 1.571-11.394 15.75-19.006 14.603l-16.158-2.434c3.626 1.59 15.824 4.436 15.489 6.45-.332 1.992-1.625 3.883-1.789 4.868-.335 2.013.457 3.131 1.23 4.291 2.068-.732 4.149-1.417 7.001-.987 2.79.42 5.37 1.918 6.606 4.723-.319.274-.61.63-.795 1.112-.402.96.504 1.33.504 1.33.227.09.559-.072.91-.352.068.477.145.965.163 1.49-1.502 9.017-8.84 12.028-10.347 21.078-.164.985.457 3.131.123 5.134-.669 4.016-5.25 2.283-6.088 7.317-.5 2.998 2.96 5.594 2.795 6.579l-.17 1.018c3.976-.445 8.747.274 14.44 1.131 6.434 8.16 9.236 32.25 16.793 39.536 3.796.571 5.58-4.264 8.431-3.835 8.226 3.27 9.635 6.555 8.966 10.571-.339 2.036-1.625 3.884-1.957 5.875-.337 2.025.45 3.175 3.291 3.603 4.322-2.456 4.821-5.455 10.504-4.599 15.214 2.292 4.163 16.051 10.82 17.054 3.714.56 6.77-5.217 13.37-6.964-1.07.494-1.977 1.323-2.557 2.722-1.152 2.812 1.125 4.864 3.809 5.989 2.654 1.11 6.462-.602 7.597-3.439 1.145-2.834.638-4.142-.256-4.521a19.139 19.139 0 00-3.991-1.167c.581.043 1.128-.019 1.764.077 16.148 2.432 3.515 13.878 12.08 15.168 5.88.886 3.07-9.968 10.234-11.308.556 1.082 1.365 1.97 2.299 2.11.78.118 1.661-.504 2.135-1.83 6.062 1.545 10.425 7.617 13.123 8.023 1.898.286 6.874-6.166 7.541-10.171 4.75.715 6.588 7.173 10.404 7.747 2.065-.72 2.235-1.738 2.403-2.745.5-2.998-1.235-4.27-.566-8.285.168-1.007 9.599-10.905 19.109-9.473.954.144 2.52 2.422 2.957 5.606-.33 1.98 2.023 5.409 3.93 5.696 2.054-.712 3.172-1.553 3.342-2.57.667-4.006-2.448-8.603-1.947-11.612.668-4.005 7.04-7.162 8.928-6.878" fill="url(#e)" fill-rule="evenodd"/><path d="M478.47 274.151c-.07-.044-.08-.104-.114-.126-.106-.065-.255.008-.309.087-.105.155-.124.255-.177.332-.204.152-.38.265-.6.295-.351-.218-.384-.68-.595-.81 0 0-.061.017-.088.056.263.272.42.7.18 1.051-.373.546-1.173.549-1.633.93l-.482-.298c.219-.056.488-.144.6-.253 0 0 .035-.033.007-.063-.223.096-.544.182-.734.238l-.057-.036c.01.014.024.028.035.041a.59.59 0 00-.135.049c-.035.032-.07.065-.04.095 0 0 .109-.019.253-.054.151.162.343.317.509.42.035.021.132.025.202.068.176.109.05.365-.082.559-.373.546-.563-.126-.803.225-.068.1.318.28.333.613-.029-.029-.095.036-.13.068-.005.063-.005.063.023.093.017.02.05.024.08.016 0 .003 0 .005-.002.006l-.545-.004c-.035-.022-.062.017-.062.017-.08.117-.019.32.052.364.105.065.254-.009.29.013.175.109.078.325.033.463-.193-.009-.414.021-.547.216-.027.04-.053.077.018.12a.82.82 0 00.263.054c.246.152.377.398.19.67-.08.117-.73.267-.73.267l.543.227h.004c-.023.076-.004.175.038.221.056.06.243.051.345-.047l.003-.006c.127.188.264.457.329.607-.24.352-.645.432-.752.588-.027.04-.017.099.018.12.245.152.643-.43.924-.257.106.065.158.208.079.324-.019.028-.054.045-.091.078a.212.212 0 00-.016-.017c-.09-.027-.09-.027-.124.006-.101.099.15.369.179.4a.185.185 0 01.03-.09c.113-.024.293-.097.424-.017.316.195.13.468-.083.779.116-.095.265-.168.37-.103.176.108.148.368.289.455.105.065.335-.346.932.022.14.087-.01.382-.063.458.473.183.689-.57 1.25-.223.07.043.123.186.192.23.09.055.204-.032.333-.134l.02.022-.005-.035c.174-.138.373-.295.57-.173.07.044.088.163.13.247a.412.412 0 01.151-.016c-.009.095-.002.188.026.218.056.061.083.091.146.089a.33.33 0 00.105-.23c.112.03.23.026.4-.123.069.078.108.103.207.007.034-.033.074-.129.017-.19l-.028-.028c.049-.063.1-.132.159-.216.173.107.355.274.502.42-.212.063-.395.11-.414.128-.034.033-.068.067-.04.097 0 0 .722-.128.926-.325 0 0 .033-.033.006-.063a3.45 3.45 0 01-.281.103c.115-.193-.103-.437-.196-.658.388-.202.873-.402 1.215-.466.036.022.045.081.08.103.07.043.167.049.22-.03a1.61 1.61 0 00.074-.62c.158-.012.767-.466 1.048-.292l.597.368c-.113-.126-.544-.446-.49-.524.052-.077.142-.135.168-.173.053-.078.044-.138.036-.199a.56.56 0 01-.3-.074.335.335 0 01-.169-.306.136.136 0 00.054-.033c.035-.033.006-.064.006-.064-.007-.007-.024-.006-.043 0 .007-.021.013-.043.023-.065.239-.35.592-.354.832-.705.026-.038.044-.138.097-.215.106-.156.255-.009.388-.204.08-.116-.007-.281.02-.32l.026-.04c-.167-.046-.344-.155-.554-.285-.094-.446.272-1.494.115-1.921-.14-.087-.307.085-.412.02-.264-.272-.255-.432-.148-.588.054-.08.142-.135.195-.212.053-.079.045-.14-.06-.204-.221.03-.301.147-.51.017-.563-.347.152-.736-.094-.888-.137-.085-.374.105-.672.068a.238.238 0 00.156-.07c.102-.098.052-.221-.033-.312-.084-.09-.27-.082-.371.017-.102.099-.108.162-.08.192.037.04.084.08.136.115-.022-.012-.045-.018-.069-.033-.596-.368.136-.635-.18-.83-.218-.134-.321.364-.634.3 0-.053-.015-.104-.05-.125-.028-.018-.076-.007-.121.04-.211-.164-.265-.488-.365-.55-.07-.043-.396.143-.503.298-.175-.108-.12-.407-.261-.494-.097-.004-.124.035-.15.075-.08.116-.036.197-.142.353-.027.04-.6.295-.951.078-.036-.022-.053-.142-.007-.282.053-.077.027-.258-.044-.302-.096-.004-.157.012-.184.052-.106.155-.073.398-.153.515-.106.155-.423.181-.493.138M1245 148.74c-.072-.044-.08-.104-.115-.126-.105-.065-.254.008-.308.087-.106.155-.125.255-.178.332-.204.152-.38.265-.6.295-.351-.218-.384-.68-.594-.81 0 0-.062.017-.089.056.263.272.42.7.18 1.051-.372.546-1.173.549-1.633.93l-.482-.298c.22-.056.489-.144.601-.253 0 0 .034-.033.006-.063-.222.096-.543.182-.734.238l-.057-.036c.01.014.024.028.036.041a.59.59 0 00-.136.049c-.034.032-.07.065-.04.095 0 0 .11-.019.253-.054.152.162.343.317.51.42.034.021.131.025.201.068.176.109.05.365-.082.559-.373.546-.563-.126-.802.225-.068.1.317.28.332.613-.028-.029-.095.036-.13.068-.005.063-.005.063.023.093.018.02.051.024.08.016l-.001.006-.545-.004c-.035-.022-.062.017-.062.017-.08.117-.02.32.051.364.106.065.255-.009.29.013.175.109.078.326.033.463-.193-.009-.413.021-.547.216-.026.04-.052.077.018.12a.82.82 0 00.263.054c.246.152.377.398.19.67-.079.117-.73.267-.73.267l.543.227h.004c-.022.076-.004.175.038.221.057.06.243.051.345-.047l.003-.006c.127.188.264.457.33.607-.24.352-.646.432-.753.588-.026.04-.017.099.018.12.245.152.644-.43.925-.257.105.065.158.208.078.324-.019.028-.054.045-.09.078a.213.213 0 00-.017-.017c-.09-.027-.09-.027-.123.006-.102.099.15.369.178.4a.185.185 0 01.03-.09c.113-.024.294-.097.424-.017.316.195.13.468-.082.779.115-.095.265-.168.37-.103.175.108.147.368.288.455.105.065.336-.346.932.022.14.087-.01.382-.063.458.474.183.69-.57 1.25-.223.07.043.123.186.193.23.09.055.203-.032.332-.134l.02.022-.005-.035c.174-.138.373-.295.57-.173.07.044.088.163.131.247a.412.412 0 01.15-.016c-.009.095-.002.188.026.218.056.061.083.091.146.089a.33.33 0 00.106-.23c.112.03.23.026.4-.123.068.078.107.103.206.007.035-.033.074-.129.017-.19-.009-.01-.018-.02-.028-.028.05-.063.101-.132.159-.216.174.107.355.274.502.42-.212.063-.395.11-.414.128-.033.033-.068.067-.04.097 0 0 .722-.128.926-.325 0 0 .034-.033.006-.063-.083.036-.182.07-.281.103.115-.193-.103-.437-.196-.658.388-.202.873-.402 1.216-.466.035.022.044.081.08.103.07.043.166.049.22-.03.07-.177.09-.497.073-.62.159-.012.768-.466 1.049-.292l.596.368c-.113-.126-.543-.446-.49-.524.053-.077.142-.135.168-.173.054-.078.044-.138.036-.199a.56.56 0 01-.299-.074.335.335 0 01-.17-.306.136.136 0 00.054-.033c.035-.033.006-.064.006-.064-.007-.007-.023-.006-.043 0 .007-.021.014-.043.023-.065.24-.35.592-.354.832-.705.026-.038.044-.138.097-.215.107-.156.255-.009.388-.204.08-.116-.007-.281.02-.32l.026-.04c-.167-.046-.343-.155-.553-.285-.095-.446.272-1.494.115-1.921-.14-.087-.308.085-.413.02-.263-.272-.254-.432-.148-.588.054-.08.142-.135.195-.212.054-.079.045-.14-.06-.204-.221.03-.3.147-.51.017-.562-.347.152-.736-.094-.888-.137-.085-.373.105-.672.068a.238.238 0 00.157-.07c.101-.098.051-.221-.034-.312-.083-.09-.27-.082-.371.017-.102.099-.108.162-.08.192.037.04.084.08.136.115-.022-.012-.045-.018-.068-.033-.597-.368.135-.635-.181-.83-.217-.134-.32.364-.633.3-.001-.053-.016-.104-.05-.125-.029-.018-.077-.006-.122.04-.211-.164-.265-.488-.364-.55-.07-.043-.397.143-.503.298-.176-.108-.12-.407-.262-.494-.096-.004-.123.035-.15.075-.08.116-.036.197-.142.353-.027.04-.6.295-.951.078-.035-.022-.052-.142-.007-.282.053-.077.027-.258-.043-.302-.097-.004-.158.012-.185.052-.106.155-.073.398-.153.515-.106.155-.423.181-.493.138M706.01 109.252c-.31.15-.331.587-.207.818.241.45.465.631.586.858.1.669.141 1.222-.087 1.76-1.026.498-2.23-.064-2.844.234 0 0-.041.163.02.277 1.043-.22 2.328.012 2.878 1.038.853 1.592-.239 3.406.083 4.97l-1.41.683c.161-.574.312-1.304.195-1.707 0 0-.037-.124-.15-.102-.065.637-.291 1.48-.413 1.988l-.167.08c.047-.004.102-.016.151-.023-.048.198-.077.34-.066.373.033.122.07.246.185.223 0 0 .103-.274.212-.649a7.561 7.561 0 001.75-.575c.1-.05.244-.264.448-.363.513-.248.982.387 1.285.954.854 1.593-1.088 1.1-.54 2.124.157.291 1.138-.334 1.991.09-.11.025-.04.265-.007.386.151.1.151.1.263.077.075-.012.132-.08.153-.159.005.005-.749 1.239-.749 1.239-.103.05-.04.165-.04.165.182.34.773.482.98.382.307-.149.328-.587.43-.636.513-.249.922.27 1.206.56-.29.425-.517.965-.211 1.535.06.113.12.224.326.125.103-.05.349-.31.494-.523.718-.347 1.513-.306 1.94.49.182.341-.337 2.022-.337 2.022l1.314-.92c.164.147.439.242.61.21.23-.045.463-.48.359-.846.632-.044 1.493.015 1.959.075.55 1.026.195 2.054.439 2.509.061.115.223.174.324.125.717-.347-.195-2.048.626-2.446.308-.15.737-.071.92.268.042.08.037.183.07.313-.257.178-.257.178-.22.3.107.366 1.129.167 1.245.145a.536.536 0 01-.183-.193c.094-.286.16-.795.541-.98.921-.446 1.348.35 1.834 1.256-.08-.391-.057-.83.25-.98.513-.247 1.125.173 1.535-.026.308-.149-.404-1.235 1.338-2.078.409-.198.94.547 1.06.772 1.108-.82-.482-2.343 1.157-3.137.205-.099.635-.02.839-.119.26-.126.2-.503.122-.935-.116-.634-.237-1.3.338-1.58.207-.1.53.027.799.043a.986.986 0 01.167-.362c.224.151.467.265.582.242.229-.043.34-.063.421-.209a.935.935 0 00-.432-.555c.229-.211.384-.483.243-1.073.29-.046.405-.102.301-.458-.034-.122-.22-.343-.45-.297-.038.005-.075.014-.11.022-.09-.196-.19-.409-.323-.655.508-.246 1.173-.428 1.743-.558-.134.565-.27 1.043-.25 1.112.038.121.073.245.188.222 0 0 .673-1.808.46-2.54 0 0-.038-.121-.15-.1a8.335 8.335 0 01-.129.778c-.324-.526-1.235-.369-1.916-.462.027-1.155.192-2.527.504-3.39.103-.05.265.01.368-.04.204-.098.35-.308.227-.539-.346-.404-1.12-.885-1.45-1.016.188-.376-.112-2.377.709-2.775l1.741-.843c-.47.082-1.863.616-1.985.388-.121-.226-.142-.506-.202-.618-.122-.228-.284-.288-.447-.354-.143.214-.29.425-.598.574-.3.145-.664.167-.998-.036a.336.336 0 00-.01-.167c-.034-.125-.15-.102-.15-.102-.028.006-.048.045-.06.098-.043-.045-.088-.09-.13-.142-.548-1.021-.073-1.825-.622-2.85-.06-.112-.285-.289-.406-.516-.244-.455.33-.587.024-1.158-.182-.34-.714-.37-.774-.482l-.062-.116c-.348.314-.862.563-1.476.86-1.245-.397-3.363-2.666-4.65-2.9-.409.199-.21.813-.517.962-1.042.222-1.43-.018-1.674-.473-.123-.23-.141-.506-.262-.732-.123-.23-.287-.293-.593-.145-.228.543-.046.883-.658 1.18-1.64.794-1.632-1.357-2.35-1.01-.4.194-.25.99-.752 1.614a.581.581 0 00.037-.45c-.105-.365-.481-.42-.826-.354-.34.066-.575.498-.467.865.107.366.257.465.372.444.15-.03.317-.08.473-.151-.059.035-.107.078-.175.111-1.74.844-1.404-1.178-2.327-.731-.633.307.47 1.225-.117 1.846-.136-.073-.282-.11-.383-.06-.084.04-.12.163-.065.33-.702.253-1.587-.072-1.878.069-.205.099-.188 1.094.055 1.548-.512.248-1.184-.287-1.596-.088-.143.213-.081.329-.02.443.182.34.446.352.69.807.061.114-.087 1.762-1.111 2.258-.103.05-.429-.077-.715-.372-.12-.224-.61-.415-.816-.316-.143.212-.186.373-.124.489.243.453.896.712 1.079 1.053.243.454-.128 1.207-.332 1.305-.206.1-.37.036-.47.085m-257.212-88.99c-.172.148-.347.125-.432.198-.257.22-.16.648.024.841.355.375.62.495.8.684.278.622.468 1.146.394 1.722-.855.733-2.17.486-2.684.925 0 0 .006.168.096.263.947-.47 2.252-.56 3.062.294 1.257 1.328.697 3.35 1.433 4.781l-1.175 1.006c-.001-.594-.054-1.336-.277-1.696 0 0-.07-.111-.174-.062.112.631.123 1.502.143 2.022l-.14.119c.045-.016.095-.042.14-.06.008.203.019.347.038.376.065.11.134.221.24.17 0 0 .024-.29.028-.679a7.336 7.336 0 001.533-.986c.085-.072.164-.314.335-.46.428-.367 1.053.131 1.5.604 1.259 1.329-.751 1.33.058 2.185.23.243 1.007-.603 1.947-.404-.1.052.033.267.098.376.173.06.173.06.275.01.07-.03.105-.111.104-.192.007.004.011.005.015.01l-.4 1.37c-.087.074.004.17.004.17.27.285.88.276 1.052.128.256-.22.157-.648.242-.72.428-.367.964.034 1.318.244-.164.482-.237 1.059.213 1.535.09.094.178.187.35.04.085-.073.252-.385.335-.626.598-.513 1.377-.668 2.006-.005.27.285.226 2.036.226 2.036l1.018-1.211c.003-.003.004-.007.005-.01.193.11.485.135.642.061.21-.1.316-.576.116-.904-.003-.003-.013-.006-.018-.011a13.252 13.252 0 011.93-.399c.81.855.748 1.935 1.107 2.315.091.096.263.114.348.041.598-.512-.746-1.93-.062-2.516.258-.22.693-.25.961.033.063.066.087.166.153.284a.615.615 0 00-.059.028c-.14.207-.14.207-.07.316.202.327 1.135-.116 1.24-.166a.557.557 0 01-.228-.141c.013-.3-.062-.808.256-1.08.768-.658 1.397.005 2.113.762-.183-.36-.28-.789-.024-1.008.427-.366 1.133-.11 1.475-.403.256-.22-.727-1.094.726-2.337.34-.292 1.056.297 1.234.485.847-1.065-1.103-2.145.264-3.315.17-.146.608-.176.778-.321.217-.187.056-.536-.136-.934l.076-.036-.101-.011c-.26-.537-.558-1.15-.079-1.561.173-.148.52-.106.783-.156a.98.98 0 01.063-.39c.257.09.523.14.628.09.21-.098.312-.145.35-.306a.97.97 0 00-.569-.43c.164-.26.24-.56-.056-1.096.267-.116.363-.198.165-.516-.066-.11-.305-.277-.516-.177a1.165 1.165 0 00-.1.05 10.87 10.87 0 00-.49-.555c.424-.362 1.017-.702 1.531-.968.025.58.024 1.075.063 1.136.068.108.136.219.24.168 0 0 .159-1.912-.246-2.565 0 0-.07-.11-.172-.06.04.235.067.508.088.782-.457-.428-1.294-.052-1.977.025-.29-1.121-.502-2.488-.436-3.398.086-.074.259-.055.344-.128.17-.146.255-.385.073-.578-.444-.305-1.323-.579-1.677-.624.079-.41-.755-2.269-.071-2.855l1.452-1.243c-.432.196-1.631 1.054-1.811.864-.179-.189-.275-.454-.363-.547-.18-.19-.353-.21-.53-.233-.079.242-.164.482-.42.702a1.016 1.016 0 01-.974.21.34.34 0 00-.054-.159c-.068-.112-.173-.06-.173-.06-.026.012-.035.055-.032.108-.054-.032-.11-.064-.164-.104-.807-.852-.567-1.745-1.377-2.6-.088-.093-.353-.21-.532-.398-.36-.38.158-.65-.292-1.125-.269-.283-.79-.183-.88-.276l-.09-.096c-.251.39-.68.756-1.192 1.195-1.31-.078-3.975-1.749-5.28-1.657-.342.292.018.836-.238 1.055-.947.472-1.387.335-1.746-.044-.182-.193-.275-.454-.453-.643-.18-.19-.357-.213-.612.006-.072.58.196.864-.315 1.301-1.367 1.171-1.946-.909-2.544-.396-.334.285.027 1.018-.287 1.744a.583.583 0 00-.087-.444c-.2-.327-.58-.288-.894-.139-.311.148-.42.623-.216.95.204.328.375.387.48.338.137-.066.284-.155.416-.262-.047.048-.082.101-.139.15-1.451 1.243-1.676-.793-2.446-.134-.529.453.787 1.068.39 1.812-.152-.037-.303-.036-.387.036-.07.06-.073.188.027.336-.609.416-1.553.32-1.796.528-.17.146.116 1.103.475 1.482-.427.365-1.222.014-1.565.308-.08.241.01.337.1.432.269.284.528.23.887.61.09.095.396 1.723-.46 2.455-.085.074-.434.031-.79-.183-.178-.188-.703-.252-.874-.105-.08.24-.078.406.013.502.358.379 1.059.468 1.328.753.358.378.205 1.197.035 1.342" fill="#459BFF" fill-rule="evenodd"/></svg>