<?xml version="1.0" encoding="UTF-8" standalone="no"?>
<svg width="1567px" height="905px" viewBox="0 0 1567 905" version="1.1" xmlns="http://www.w3.org/2000/svg" xmlns:xlink="http://www.w3.org/1999/xlink">
    <!-- Generator: Sketch 43.2 (39069) - http://www.bohemiancoding.com/sketch -->
    <title>Hero</title>
    <desc>Created with Sketch.</desc>
    <defs>
        <linearGradient x1="35.8212362%" y1="16.37537%" x2="73.1034495%" y2="69.9777412%" id="linearGradient-1">
            <stop stop-color="#B35EFF" offset="0%"></stop>
            <stop stop-color="#B35EFF" stop-opacity="0" offset="100%"></stop>
        </linearGradient>
        <linearGradient x1="100%" y1="87.0649371%" x2="0%" y2="4.03833874%" id="linearGradient-2">
            <stop stop-color="#B35EFF" offset="0%"></stop>
            <stop stop-color="#B35EFF" stop-opacity="0" offset="100%"></stop>
        </linearGradient>
    </defs>
    <g id="Page-1" stroke="none" stroke-width="1" fill="none" fill-rule="evenodd">
        <g id="Hero">
            <path d="M662.737577,299.837758 C664.115904,301.915712 664.801198,302.970563 666.528022,303.325147 C669.126399,303.862865 670.349574,302.322465 672.439703,300.937231 C672.583499,304.57812 675.68091,307.042407 680.015651,307.937343 C681.742638,308.295053 684.521024,307.961381 686.613951,306.569731 C687.296283,307.627872 686.154181,321.83948 693.0873,323.272134 C694.814287,323.629843 695.85598,322.932701 697.589546,323.296335 C696.691648,327.634366 693.056028,327.759079 692.338302,331.228846 C691.44024,335.563751 695.413982,338.182712 694.343488,343.354132 C693.265909,348.569805 687.210432,347.316831 685.954497,353.375598 C685.064502,357.685005 688.34143,359.268525 687.978452,361.014594 C687.803549,361.863776 687.803549,361.863776 686.935285,361.683604 C685.211259,361.322605 684.01294,358.373261 680.552878,357.661296 C679.687576,357.477834 673.779348,359.871838 672.523085,365.924353 C669.927834,365.386471 668.559212,363.314278 665.960671,362.773434 C661.632345,361.881296 663.007219,363.953162 659.871124,366.013821 C658.495922,363.935704 656.951742,362.700189 654.353528,362.165597 C652.626378,361.804761 650.890013,361.447543 648.980056,361.964513 C647.609632,359.857936 647.286156,357.094688 644.684489,356.554008 C643.822477,356.373509 642.774532,357.070978 641.90923,356.887517 C641.044419,356.713433 632.692057,336.034804 630.453697,333.754306 C631.168461,330.287829 634.483076,327.387201 635.198004,323.92385 C635.733087,321.335014 634.359537,319.2286 634.029319,316.456303 C648.78095,314.984235 639.166402,300.3647 655.609299,303.771998 C659.066399,304.487253 660.82762,300.354728 662.737577,299.837758 Z" id="Path" fill="#B35EFF" opacity="0.40129431"></path>
            <path d="M900.647065,460.461672 C901.563834,460.651346 902.030882,459.555465 902.537373,459.418373 C902.902884,459.969414 903.084613,460.249144 903.54254,460.343174 C904.231589,460.485768 904.555956,460.077278 905.110226,459.709936 C905.148358,460.675443 905.969743,461.328933 907.119249,461.566257 C907.577219,461.661116 908.314004,461.572631 908.869016,461.203587 C909.04996,461.48419 908.747092,465.252887 910.585647,465.632804 C911.043617,465.727663 911.319858,465.542792 911.779573,465.639222 C911.541464,466.7896 910.577354,466.822672 910.387024,467.7428 C910.148872,468.89235 911.202647,469.586857 910.918769,470.958238 C910.633012,472.341353 909.027193,472.009084 908.694139,473.615774 C908.458126,474.758562 909.327116,475.178487 909.23086,475.641517 C909.184479,475.866707 909.184479,475.866707 908.954228,475.818928 C908.497044,475.723197 908.179268,474.941077 907.261714,474.752275 C907.032249,474.703623 905.465479,475.338476 905.132337,476.943509 C904.444117,476.800871 904.08118,476.251357 903.392087,476.107934 C902.244283,475.871353 902.608878,476.42078 901.777234,476.967234 C901.412552,476.41615 901.00306,476.088511 900.314054,475.946745 C899.85604,475.851057 899.395583,475.756329 898.889093,475.893421 C898.525677,475.334789 898.439897,474.602019 897.749975,474.458639 C897.521383,474.410774 897.243484,474.595732 897.01402,474.547081 C896.784685,474.500916 894.569769,469.017266 893.97619,468.412513 C894.165735,467.493257 895.044719,466.724056 895.234307,465.805629 C895.376203,465.11911 895.011959,464.560522 894.92439,463.825352 C898.836293,463.434982 896.286664,459.558109 900.647065,460.461672" id="Path" fill="#B35EFF" opacity="0.40129431"></path>
            <path d="M136.231261,665.473301 C136.49827,664.218392 134.471726,661.64602 135.954862,659.99883 C142.986767,652.189109 131.089723,651.912083 134.617578,643.150091 C132.801764,642.270827 131.093539,642.220021 129.653507,640.92341 C127.736916,639.197704 126.940856,636.23794 125.019086,634.507571 C122.93508,634.874112 107.67505,631.561001 107.307264,631.969469 C106.537171,628.012083 106.167126,623.683319 105.881666,623.281581 C105.495422,622.773017 105.111993,622.25091 104.639425,622.556992 C104.639425,622.556992 104.829714,629.939657 106.397531,633.875693 C105.278412,634.733171 103.621995,633.989389 102.047438,633.946386 C101.804865,635.142904 101.125992,635.938537 100.422402,636.719953 C100.48434,636.421989 100.526741,636.114473 100.565594,635.779646 C100.17935,635.271082 98.4805326,634.834816 98.007965,635.140898 C97.0616475,635.743959 97.8221429,636.774406 98.2055717,637.296513 C98.4010585,637.569003 98.7487375,637.745385 99.0822289,637.81252 C98.2770122,638.269289 97.3864405,638.456259 96.2811253,638.433794 C96.6006276,640.964464 98.2984921,641.005941 96.4515676,643.057159 C95.3402148,644.291441 93.6423502,644.249963 92.5269997,645.488686 C95.8888028,648.515667 95.5918652,652.710161 95.216084,653.127509 C93.7329477,654.774699 91.5625232,654.299686 90.8189562,655.125501 C90.443175,655.542848 90.443175,655.542848 90.9041927,655.957951 C91.8780278,656.834796 93.844084,655.630468 96.232052,657.780604 C99.5886752,660.802921 97.006179,663.671074 99.8966045,666.273625 C102.76631,668.857519 105.579525,667.660275 107.988213,669.829067 C109.915163,671.564101 108.889047,673.630833 111.297735,675.799625 C112.033307,674.98269 111.92217,674.126921 112.665737,673.301106 C115.628012,670.011166 124.059843,676.115934 124.913364,676.136785 C124.684278,674.443229 125.312711,672.766085 126.052281,671.94471 C127.9072,669.884612 130.360174,669.118708 132.64455,670.435946 C132.420645,668.747054 131.839313,667.475958 132.950666,666.241675 C133.694233,665.41586 134.543756,665.441151 136.231261,665.473301 Z" id="Path" fill="#B35EFF" opacity="0.40129431"></path>
            <path d="M1007.09768,597.375909 C1005.23929,597.375909 1004.32009,596.56245 1002.4717,594.961772 C1000.61332,595.766484 999.684128,599.816288 995.977355,599.816288 C978.402651,599.816288 991.371364,611.143492 976.534277,615.21079 C977.47346,617.642421 979.321851,619.278087 979.321851,621.709719 C979.321851,624.946063 976.534277,628.17366 976.534277,631.418751 C979.321851,633.054417 992.280572,650.067091 993.199772,650.067091 C993.249729,650.067091 993.299685,650.04085 993.349642,650.04085 C989.143303,654.108148 984.177625,658.087977 983.997781,658.691511 C983.797955,659.47873 983.578147,660.274696 984.487355,660.45838 C984.487355,660.45838 993.449555,654.081907 996.586824,649.31486 C998.904807,649.638494 999.833998,651.807719 1001.54251,653.312182 C1003.30098,652.53371 1005.04946,652.498723 1006.80793,652.498723 C1006.36831,652.691154 1005.93868,652.909826 1005.47908,653.154738 C1005.27926,653.941957 1006.63808,655.892511 1007.54728,656.076195 C1009.35571,656.452311 1009.78534,654.877873 1010.00515,654.081907 C1010.12504,653.670804 1009.95519,653.198473 1009.66544,652.831104 C1011.13416,653.198473 1012.36309,653.871982 1013.57204,654.921607 C1016.35961,652.498723 1014.51122,650.880551 1019.12721,650.880551 C1021.90479,650.880551 1023.75318,652.498723 1026.54075,652.498723 C1026.54075,646.822 1032.08593,643.576909 1033.02511,643.576909 C1036.73188,643.576909 1038.57028,645.999794 1040.42867,645.999794 C1041.36785,645.999794 1041.36785,645.999794 1041.36785,645.221322 C1041.36785,643.576909 1037.67107,642.754703 1037.67107,638.722393 C1037.67107,633.054417 1044.12545,633.054417 1044.12545,628.17366 C1044.12545,623.327891 1039.48948,621.709719 1039.48948,617.642421 C1039.48948,614.388583 1043.20625,613.610112 1043.20625,609.542814 C1041.36785,609.542814 1040.42867,610.36502 1038.57028,610.36502 C1031.16673,610.36502 1029.31834,597.375909 1028.38914,596.56245 C1026.54075,598.198116 1023.75318,599.020322 1021.90479,599.020322 C1017.26882,599.020322 1013.57204,597.375909 1012.65284,594.139565 C1010.80445,595.766484 1009.87526,597.375909 1007.09768,597.375909 L1007.09768,597.375909" id="Path" fill="#B35EFF" opacity="0.40129431"></path>
            <path d="M451.563398,711.236344 C449.705016,711.236344 448.785816,710.422885 446.937425,708.822206 C445.079042,709.626919 444.149851,713.676723 440.443077,713.676723 C422.868374,713.676723 435.837086,725.003927 421,729.071225 C421.939183,731.502856 423.787574,733.138522 423.787574,735.570153 C423.787574,738.806498 421,742.034095 421,745.279186 C423.787574,746.914852 436.746295,763.927526 437.665495,763.927526 C437.715451,763.927526 437.765408,763.901285 437.815364,763.901285 C433.609025,767.968583 428.643347,771.948411 428.463504,772.551946 C428.263678,773.339165 428.043869,774.13513 428.953078,774.318815 C428.953078,774.318815 437.915277,767.942342 441.052547,763.175294 C443.370529,763.498929 444.29972,765.668154 446.008233,767.172617 C447.766703,766.394145 449.515181,766.359157 451.273651,766.359157 C450.834033,766.551589 450.404407,766.770261 449.944807,767.015173 C449.744981,767.802392 451.103798,769.752945 452.013007,769.93663 C453.821433,770.312745 454.251059,768.738308 454.470868,767.942342 C454.590763,767.531239 454.420911,767.058907 454.131163,766.691539 C455.599885,767.058907 456.828815,767.732417 458.037763,768.782042 C460.825337,766.359157 458.976946,764.740985 463.592928,764.740985 C466.370511,764.740985 468.218902,766.359157 471.006476,766.359157 C471.006476,760.682435 476.551649,757.437344 477.490832,757.437344 C481.197605,757.437344 483.036005,759.860228 484.894388,759.860228 C485.83357,759.860228 485.83357,759.860228 485.83357,759.081756 C485.83357,757.437344 482.136788,756.615137 482.136788,752.582828 C482.136788,746.914852 488.59117,746.914852 488.59117,742.034095 C488.59117,737.188326 483.955205,735.570153 483.955205,731.502856 C483.955205,728.249018 487.67197,727.470546 487.67197,723.403249 C485.83357,723.403249 484.894388,724.225455 483.036005,724.225455 C475.632449,724.225455 473.784058,711.236344 472.854867,710.422885 C471.006476,712.058551 468.218902,712.880757 466.370511,712.880757 C461.734546,712.880757 458.037763,711.236344 457.118563,708 C455.270172,709.626919 454.340981,711.236344 451.563398,711.236344 L451.563398,711.236344" id="Path" fill="#8F45D0" opacity="0.4"></path>
            <path d="M1377.82764,280.32592 C1374.83075,281.623629 1373.3323,288.154491 1367.35462,288.154491 C1339.01301,288.154491 1359.92683,306.421157 1336,312.980229 C1337.51456,316.901568 1340.49534,319.539302 1340.49534,323.460641 C1340.49534,328.679688 1336,333.88463 1336,339.117783 C1340.49534,341.755517 1361.39305,369.190779 1362.87539,369.190779 C1356.33378,375.707536 1348.32594,382.125553 1348.03592,383.098835 C1347.71367,384.368333 1347.3592,385.651937 1348.82542,385.948153 C1348.82542,385.948153 1363.2782,375.665219 1368.33747,367.977703 C1372.07554,368.499608 1373.57398,371.99778 1376.32919,374.423932 C1379.16497,373.16854 1381.98463,373.112118 1384.8204,373.112118 C1384.11146,373.422439 1383.41863,373.775078 1382.67746,374.170033 C1382.35521,375.439531 1384.54649,378.585064 1386.01271,378.881281 C1388.92905,379.487819 1389.62188,376.948823 1389.97635,375.665219 C1390.1697,375.002259 1389.89579,374.24056 1389.42853,373.648128 C1391.79704,374.24056 1393.77886,375.326686 1395.72846,377.01935 C1400.2238,373.112118 1397.24302,370.502594 1404.68692,370.502594 C1409.16615,370.502594 1412.14693,373.112118 1416.64228,373.112118 C1416.64228,363.957626 1425.58463,358.724474 1427.09919,358.724474 C1433.07687,358.724474 1436.04154,362.631706 1439.03843,362.631706 C1440.55299,362.631706 1440.55299,362.631706 1440.55299,361.376314 C1440.55299,358.724474 1434.59143,357.398554 1434.59143,350.895903 C1434.59143,341.755517 1445,341.755517 1445,333.88463 C1445,326.070164 1437.52387,323.460641 1437.52387,316.901568 C1437.52387,311.654309 1443.51766,310.398917 1443.51766,303.839844 C1440.55299,303.839844 1439.03843,305.165764 1436.04154,305.165764 C1424.10229,305.165764 1421.12151,284.219047 1419.62306,282.907233 C1416.64228,285.544967 1412.14693,286.870888 1409.16615,286.870888 C1401.69002,286.870888 1395.72846,284.219047 1394.24612,279 C1391.26534,281.623629 1389.76689,284.219047 1385.28766,284.219047 C1382.29076,284.219047 1380.80843,282.907233 1377.82764,280.32592 Z" id="Path" fill="#B35EFF" opacity="0.40129431"></path>
            <path d="M1243.22793,486.389301 C1243.43402,486.421942 1243.51739,486.551734 1243.61879,486.567792 C1243.92627,486.616493 1244.18251,486.311081 1244.21912,486.079947 C1244.2902,485.63113 1244.22613,485.386558 1244.26197,485.160315 C1244.55683,484.625341 1244.83037,484.203576 1245.29289,483.929583 C1246.31562,484.091567 1246.88625,485.11087 1247.499,485.207922 C1247.499,485.207922 1247.61841,485.110248 1247.63642,484.996515 C1246.75293,484.625919 1245.9422,483.803012 1246.10413,482.78064 C1246.35554,481.193274 1248.14998,480.43448 1248.77443,479.138115 L1250.17848,479.360495 C1249.74601,479.694407 1249.23498,480.146252 1249.09901,480.498293 C1249.09901,480.498293 1249.05804,480.607137 1249.15316,480.648528 C1249.5498,480.219934 1250.17852,479.724048 1250.54658,479.418795 L1250.71299,479.445153 C1250.67564,479.424194 1250.62889,479.405507 1250.58914,479.385422 C1250.73336,479.266606 1250.83209,479.178194 1250.84245,479.148493 C1250.88503,479.043667 1250.9271,478.934997 1250.82977,478.893257 C1250.82977,478.893257 1250.60442,479.039337 1250.31836,479.254782 C1249.80393,479.029138 1249.20849,478.85836 1248.72468,478.781732 C1248.62329,478.765673 1248.4012,478.848337 1248.19731,478.816044 C1247.68595,478.735052 1247.69264,478.036597 1247.78212,477.471602 C1248.03373,475.883012 1249.18199,477.22823 1249.34372,476.207081 C1249.38963,475.917246 1248.32938,475.870918 1247.93842,475.12954 C1248.03302,475.167088 1248.11359,474.95796 1248.15618,474.853134 C1248.10073,474.703947 1248.10073,474.703947 1248.00651,474.663953 C1247.94459,474.634087 1247.86552,474.655412 1247.8074,474.701366 C1247.80617,474.694902 1247.80455,474.690884 1247.80532,474.685992 L1249.03474,474.184959 C1249.13723,474.201193 1249.15544,474.086237 1249.15544,474.086237 C1249.20929,473.746262 1248.85517,473.342925 1248.64908,473.310284 C1248.3427,473.261758 1248.08627,473.568393 1247.98487,473.552334 C1247.47351,473.471342 1247.45979,472.887493 1247.41205,472.532682 C1247.85656,472.372421 1248.31928,472.097205 1248.40935,471.528541 C1248.42717,471.416031 1248.44479,471.304744 1248.23981,471.272278 C1248.13731,471.256044 1247.81441,471.31898 1247.5916,471.399023 C1246.87635,471.285739 1246.31816,470.851333 1246.44386,470.057649 C1246.49771,469.717674 1247.7999,468.76433 1247.7999,468.76433 L1246.33505,468.761732 C1246.33175,468.761209 1246.32805,468.763131 1246.32566,468.764005 C1246.29611,468.572537 1246.14734,468.36344 1246.00385,468.299344 C1245.8116,468.214989 1245.40321,468.411058 1245.27818,468.72973 C1245.2776,468.733399 1245.28084,468.741434 1245.27988,468.747549 C1244.79203,468.439617 1244.19484,467.958921 1243.88793,467.678392 C1244.04986,466.656021 1244.87352,466.091975 1244.94538,465.638267 C1244.96358,465.523311 1244.87833,465.398237 1244.77694,465.382178 C1244.06279,465.269068 1243.79414,466.965276 1242.97639,466.835758 C1242.66891,466.787058 1242.39837,466.512289 1242.45202,466.173537 C1242.46461,466.094046 1242.52459,466.022062 1242.57255,465.911819 C1242.59032,465.920901 1242.60517,465.927013 1242.62643,465.935396 C1242.85706,465.913003 1242.85706,465.913003 1242.89783,465.805382 C1243.02066,465.486362 1242.16516,465.110171 1242.06803,465.067208 C1242.10478,465.163288 1242.10327,465.237012 1242.0956,465.299731 C1241.86921,465.459438 1241.54155,465.794908 1241.16134,465.734688 C1240.2433,465.589285 1240.36901,464.795602 1240.51215,463.891855 C1240.35471,464.215422 1240.09717,464.521882 1239.79079,464.473357 C1239.28053,464.392539 1239.06402,463.776573 1238.65515,463.711814 C1238.34877,463.663288 1238.27191,464.811957 1236.53613,464.537037 C1236.12836,464.472453 1236.15047,463.662361 1236.18592,463.438565 C1234.92606,463.468434 1235.25027,465.380142 1233.61699,465.121456 C1233.4131,465.089163 1233.14165,464.812998 1232.93887,464.78088 C1232.67878,464.739686 1232.51652,465.043687 1232.33531,465.396084 L1232.26567,465.364996 L1232.31492,465.439237 C1232.0724,465.914806 1231.7942,466.458688 1231.22112,466.36792 C1231.01503,466.335279 1230.84769,466.079365 1230.66111,465.930719 C1230.55447,466.019132 1230.44644,466.073479 1230.34042,466.108084 C1230.25944,465.884652 1230.14412,465.678346 1230.0479,465.63678 C1229.85695,465.551377 1229.76422,465.509112 1229.62522,465.573595 C1229.53579,465.810153 1229.55951,466.016995 1229.63625,466.195879 C1229.35254,466.232429 1229.0899,466.350039 1228.86852,466.849014 C1228.63127,466.734966 1228.51665,466.716813 1228.39738,467.027622 C1228.3546,467.133671 1228.36967,467.388034 1228.56302,467.472563 C1228.59343,467.487408 1228.62533,467.499983 1228.65613,467.512382 C1228.61288,467.699842 1228.57023,467.904947 1228.5313,468.150756 C1228.02544,468.070637 1227.43913,467.863695 1226.95148,467.66862 C1227.36029,467.327199 1227.72169,467.049725 1227.74479,466.98945 C1227.78427,466.882878 1227.82614,466.775431 1227.72992,466.733865 C1227.72992,466.733865 1226.24481,467.70086 1225.99915,468.338901 C1225.99915,468.338901 1225.95948,468.446697 1226.0535,468.487914 C1226.20191,468.328392 1226.38609,468.156985 1226.5741,467.989946 C1226.52265,468.535893 1227.27389,468.885543 1227.72006,469.299699 C1227.06666,470.122628 1226.19169,471.032065 1225.48964,471.498785 C1225.38714,471.482552 1225.30208,471.356255 1225.19959,471.340021 C1224.9957,471.307729 1224.77328,471.385326 1224.73687,471.615238 C1224.7677,472.083956 1225.06926,472.82622 1225.23784,473.088598 C1224.89452,473.26614 1224.01383,474.867917 1223.19608,474.738399 L1221.46031,474.463479 C1221.84987,474.643019 1223.16025,474.964642 1223.12422,475.192107 C1223.08858,475.417127 1222.94968,475.630805 1222.93205,475.742092 C1222.89602,475.969557 1222.98108,476.095855 1223.06427,476.226869 C1223.28636,476.144206 1223.50988,476.066783 1223.81626,476.115308 C1224.11603,476.162787 1224.39312,476.332035 1224.52594,476.648924 C1224.49167,476.679851 1224.46045,476.720036 1224.44052,476.774546 C1224.39735,476.883041 1224.49468,476.924781 1224.49468,476.924781 C1224.51906,476.934911 1224.5547,476.916737 1224.59247,476.885111 C1224.59976,476.938918 1224.60796,476.994122 1224.60988,477.053346 C1224.44853,478.072048 1223.66032,478.412297 1223.49839,479.434669 C1223.48077,479.545956 1223.54743,479.788432 1223.51159,480.014674 C1223.43973,480.468382 1222.94768,480.272609 1222.85761,480.841273 C1222.80396,481.180025 1223.17551,481.473298 1223.15788,481.584585 L1223.13967,481.69954 C1223.56675,481.649344 1224.07922,481.730511 1224.69088,481.827387 C1225.382,482.749191 1225.683,485.470816 1226.49483,486.293898 C1226.9026,486.358482 1227.0942,485.812166 1227.40057,485.860692 C1228.28426,486.230065 1228.4356,486.601284 1228.36374,487.054992 C1228.32732,487.284904 1228.18919,487.49369 1228.15355,487.71871 C1228.11733,487.947398 1228.20181,488.077364 1228.50709,488.125715 C1228.97129,487.848228 1229.02495,487.509475 1229.6355,487.606177 C1231.26989,487.865039 1230.08262,489.419513 1230.79787,489.532797 C1231.19682,489.595985 1231.52499,488.943433 1232.23408,488.7461 C1232.11906,488.801845 1232.02176,488.895498 1231.95943,489.053611 C1231.83569,489.371234 1232.08028,489.603029 1232.36856,489.730172 C1232.65373,489.855569 1233.06282,489.66212 1233.18475,489.341702 C1233.30777,489.021459 1233.25323,488.873669 1233.1572,488.83088 C1233.03147,488.775867 1232.88216,488.727145 1232.72845,488.699039 C1232.79094,488.703922 1232.84966,488.696926 1232.91799,488.707748 C1234.65267,488.982494 1233.29553,490.275638 1234.21577,490.42139 C1234.84726,490.521408 1234.54552,489.295223 1235.31512,489.143828 C1235.37483,489.266111 1235.46176,489.366378 1235.56205,489.382262 C1235.6458,489.395528 1235.74053,489.325285 1235.79138,489.175385 C1236.44269,489.349998 1236.91134,490.035986 1237.20118,490.081893 C1237.40507,490.114185 1237.93965,489.385261 1238.01131,488.932776 C1238.52158,489.013594 1238.71897,489.743118 1239.12894,489.808052 C1239.35084,489.726611 1239.36904,489.611655 1239.38706,489.497923 C1239.44071,489.15917 1239.25445,489.015591 1239.32631,488.561883 C1239.34433,488.44815 1240.35743,487.329928 1241.37906,487.491738 C1241.48156,487.507971 1241.6498,487.765283 1241.69676,488.124986 C1241.66132,488.348783 1241.91404,488.736061 1242.11903,488.768528 C1242.33963,488.688135 1242.45975,488.593082 1242.47796,488.478126 C1242.54963,488.025641 1242.21501,487.5063 1242.26886,487.166325 C1242.34053,486.71384 1243.02514,486.357183 1243.22793,486.389301 L1243.22793,486.389301" id="Path" fill="#B35EFF" opacity="0.40129431"></path>
            <path d="M1554.55715,548.956683 C1554.45146,548.888052 1554.30256,548.964764 1554.24831,549.04829 C1554.14299,549.21048 1554.12379,549.315508 1554.07069,549.397266 C1553.86707,549.55657 1553.69128,549.675512 1553.47125,549.706665 C1553.11973,549.478386 1553.08693,548.991509 1552.87632,548.854738 C1552.87632,548.854738 1552.81479,548.873207 1552.78809,548.914307 C1553.0512,549.20078 1553.20774,549.650523 1552.96781,550.019981 C1552.59529,550.593614 1551.79514,550.596747 1551.33518,550.997359 L1550.85259,550.683967 C1551.07199,550.624758 1551.34132,550.532626 1551.45374,550.418394 C1551.45374,550.418394 1551.4881,550.382902 1551.46003,550.351482 C1551.2373,550.453138 1550.91651,550.54326 1550.72608,550.601806 L1550.66888,550.564661 C1550.67907,550.57882 1550.69316,550.593621 1550.70439,550.60783 C1550.62992,550.630464 1550.57769,550.648695 1550.56862,550.658514 C1550.53436,550.692188 1550.49963,550.727434 1550.52845,550.759346 C1550.52845,550.759346 1550.63787,550.739298 1550.78203,550.702231 C1550.9335,550.872851 1551.12471,551.03535 1551.291,551.14334 C1551.32585,551.165972 1551.4229,551.169938 1551.49298,551.215446 C1551.66874,551.329586 1551.54344,551.598817 1551.41085,551.802992 C1551.03804,552.377067 1550.84793,551.670531 1550.60829,552.039548 C1550.54027,552.144287 1550.92607,552.33388 1550.94097,552.684105 C1550.91242,552.654257 1550.84572,552.722148 1550.81146,552.755823 C1550.80583,552.822539 1550.80583,552.822539 1550.83381,552.853271 C1550.85156,552.874855 1550.88469,552.879405 1550.91436,552.871029 C1550.91369,552.873731 1550.36754,552.872172 1550.36754,552.872172 C1550.33231,552.849295 1550.30534,552.890837 1550.30534,552.890837 C1550.22555,553.013695 1550.28621,553.227128 1550.35704,553.273128 C1550.46234,553.341514 1550.61154,553.26436 1550.64639,553.286991 C1550.82215,553.401131 1550.72459,553.629312 1550.67994,553.77436 C1550.4866,553.764413 1550.26628,553.796009 1550.13283,554.001509 C1550.10643,554.042167 1550.08031,554.082383 1550.15077,554.128138 C1550.18599,554.151015 1550.31704,554.178938 1550.41389,554.184034 C1550.65973,554.343682 1550.79075,554.602182 1550.60449,554.888998 C1550.5247,555.011856 1549.87324,555.169983 1549.87324,555.169983 L1550.41706,555.408158 C1550.39826,555.487686 1550.41677,555.592698 1550.45882,555.640736 C1550.51542,555.70451 1550.70163,555.694748 1550.80412,555.591661 C1550.93374,555.782651 1551.07111,556.065378 1551.13582,556.22364 C1550.89589,556.593098 1550.49067,556.678037 1550.3842,556.841995 C1550.35722,556.883537 1550.36691,556.945746 1550.40176,556.968378 C1550.64721,557.12778 1551.04528,556.514814 1551.32634,556.69734 C1551.43202,556.765971 1551.48423,556.916115 1551.40474,557.038531 C1551.38608,557.067257 1551.35114,557.085405 1551.31393,557.120305 C1551.20843,557.073783 1551.20843,557.073783 1551.17436,557.108834 C1551.07263,557.212413 1551.32435,557.496517 1551.35288,557.528871 C1551.35612,557.485736 1551.36965,557.457448 1551.38353,557.434417 C1551.49572,557.409262 1551.67645,557.332479 1551.80713,557.417346 C1552.12267,557.622256 1551.93641,557.909073 1551.72432,558.235664 C1551.83971,558.135928 1551.98928,558.05902 1552.09459,558.127406 C1552.26997,558.2413 1552.24211,558.514744 1552.38264,558.606006 C1552.48794,558.674392 1552.71847,558.242282 1553.31507,558.629717 C1553.45523,558.720734 1553.30457,559.030673 1553.25205,559.111548 C1553.72541,559.303969 1553.94108,558.511611 1554.50245,558.87617 C1554.57253,558.921678 1554.62483,559.07251 1554.69453,559.117772 C1554.78393,559.175826 1554.89766,559.084442 1555.02696,558.977398 C1555.21585,558.819211 1555.41485,558.653762 1555.61182,558.781677 C1555.68265,558.827677 1555.69983,558.953814 1555.74302,559.041552 C1555.79819,559.024601 1555.84788,559.021057 1555.89336,559.024831 C1555.88416,559.124414 1555.89074,559.222929 1555.91918,559.254595 C1555.97511,559.318564 1556.00213,559.349934 1556.06512,559.347483 C1556.13994,559.270412 1556.1675,559.186518 1556.17044,559.104864 C1556.28228,559.136652 1556.40054,559.13366 1556.57053,558.97639 C1556.63863,559.058942 1556.67803,559.084525 1556.77699,558.983547 C1556.81153,558.949431 1556.85066,558.848548 1556.79368,558.784529 C1556.78499,558.773859 1556.77535,558.763828 1556.76609,558.754043 C1556.81512,558.688494 1556.86703,558.616021 1556.92472,558.527192 C1557.09858,558.640102 1557.28004,558.815121 1557.42693,558.969573 C1557.215,559.035519 1557.03193,559.084392 1557.01275,559.103979 C1556.97935,559.138834 1556.9449,559.173638 1556.97334,559.205304 C1556.97334,559.205304 1557.69517,559.07151 1557.89863,558.864352 C1557.89863,558.864352 1557.93232,558.829055 1557.90464,558.797882 C1557.82145,558.835591 1557.72287,558.872108 1557.62365,558.906316 C1557.73876,558.703354 1557.52111,558.4464 1557.42815,558.213876 C1557.81562,558.001179 1558.30063,557.790877 1558.64355,557.723915 C1558.67877,557.746792 1558.68817,557.809444 1558.7234,557.832321 C1558.79348,557.877829 1558.88976,557.883809 1558.94372,557.800725 C1559.01468,557.614332 1559.03314,557.278236 1559.01664,557.149398 C1559.17542,557.136271 1559.78429,556.658947 1560.06535,556.841472 L1560.66195,557.228908 C1560.54877,557.096349 1560.11845,556.759714 1560.17183,556.677514 C1560.22463,556.596198 1560.31382,556.535991 1560.33993,556.495775 C1560.39332,556.413575 1560.38392,556.350923 1560.37605,556.28675 C1560.27899,556.282784 1560.18233,556.276558 1560.07702,556.208172 C1559.97399,556.141263 1559.9008,556.030898 1559.90716,555.88675 C1559.92534,555.88033 1559.944,555.869832 1559.96099,555.851963 C1559.99611,555.816963 1559.96728,555.785051 1559.96728,555.785051 C1559.96001,555.777183 1559.94357,555.778446 1559.92397,555.784571 C1559.93072,555.762565 1559.93738,555.739872 1559.94708,555.716641 C1560.18615,555.348509 1560.53884,555.344444 1560.77877,554.974986 C1560.80489,554.93477 1560.82276,554.830134 1560.87585,554.748376 C1560.98233,554.584418 1561.13073,554.739854 1561.26418,554.534353 C1561.34368,554.411937 1561.2572,554.238279 1561.28331,554.198062 L1561.31029,554.15652 C1561.14278,554.1068 1560.96664,553.992414 1560.75641,553.855889 C1560.6617,553.387235 1561.02841,552.285184 1560.87149,551.835195 C1560.73134,551.744178 1560.56409,551.924592 1560.45879,551.856206 C1560.19539,551.570175 1560.20444,551.402005 1560.31091,551.238047 C1560.36487,551.154963 1560.4529,551.096523 1560.50571,551.015207 C1560.55938,550.932565 1560.55084,550.868588 1560.44592,550.800449 C1560.22465,550.832682 1560.14515,550.955098 1559.9353,550.818819 C1559.37355,550.454015 1560.08801,550.044634 1559.84217,549.884986 C1559.70505,549.795937 1559.46838,549.995353 1559.17021,549.956917 C1559.22275,549.953966 1559.27537,549.933475 1559.32633,549.882373 C1559.42815,549.779482 1559.37803,549.650172 1559.29328,549.554291 C1559.20937,549.459589 1559.02335,549.468221 1558.92171,549.572488 C1558.81969,549.676509 1558.81397,549.742538 1558.84213,549.774645 C1558.87917,549.816293 1558.92608,549.859324 1558.97825,549.895089 C1558.95589,549.883081 1558.93284,549.87628 1558.90936,549.861029 C1558.31314,549.473839 1559.04476,549.193101 1558.72847,548.987699 C1558.51142,548.846746 1558.40794,549.370156 1558.09537,549.304144 C1558.09468,549.24715 1558.08001,549.194272 1558.04554,549.171886 C1558.01676,549.153191 1557.96921,549.165039 1557.92396,549.21482 C1557.71266,549.041789 1557.65915,548.700423 1557.55953,548.635727 C1557.48945,548.590219 1557.16266,548.785773 1557.05647,548.949289 C1556.88109,548.835395 1556.93602,548.521097 1556.79511,548.429589 C1556.69834,548.42518 1556.67137,548.466722 1556.64468,548.507823 C1556.56518,548.630239 1556.60914,548.715963 1556.50266,548.879922 C1556.47597,548.921022 1555.90293,549.189763 1555.55179,548.96173 C1555.51656,548.938852 1555.49929,548.812028 1555.54509,548.665213 C1555.59761,548.584338 1555.5718,548.393537 1555.50135,548.347782 C1555.40524,548.343178 1555.3439,548.360517 1555.31692,548.402059 C1555.21073,548.565576 1555.24375,548.820746 1555.16396,548.943605 C1555.05777,549.107121 1554.74069,549.134308 1554.67099,549.089046 C1554.60016,549.043046 1554.592,548.979315 1554.55715,548.956683 Z" id="Path-Copy" fill-opacity="0.4" fill="#B35EFF"></path>
            <path d="M820.823933,525.852588 C820.753099,525.806587 820.74494,525.742856 820.710091,525.720225 C820.604408,525.651594 820.455499,525.728306 820.401257,525.811831 C820.295929,525.974022 820.276731,526.079049 820.223637,526.160807 C820.020015,526.320111 819.84422,526.439053 819.62419,526.470207 C819.27267,526.241928 819.239877,525.755051 819.029268,525.61828 C819.029268,525.61828 818.967729,525.636749 818.941038,525.677849 C819.204144,525.964321 819.360682,526.414064 819.120753,526.783523 C818.748231,527.357156 817.948079,527.360288 817.48812,527.760901 L817.005538,527.447508 C817.224938,527.3883 817.494262,527.296167 817.606681,527.181936 C817.606681,527.181936 817.64104,527.146443 817.612975,527.115024 C817.390244,527.216679 817.069448,527.306801 816.879021,527.365347 L816.821823,527.328203 C816.832016,527.342362 816.8461,527.357163 816.857337,527.371372 C816.78286,527.394005 816.73063,527.412237 816.721561,527.422055 C816.687306,527.45573 816.652569,527.490976 816.681391,527.522888 C816.681391,527.522888 816.79081,527.502839 816.934976,527.465773 C817.086443,527.636393 817.277651,527.798892 817.443941,527.906882 C817.47879,527.929513 817.575844,527.933479 817.645921,527.978988 C817.821681,528.093127 817.696386,528.362359 817.563793,528.566533 C817.190985,529.140608 817.000872,528.434073 816.76123,528.803089 C816.693212,528.907828 817.07901,529.097422 817.093914,529.447647 C817.065368,529.417799 816.99866,529.48569 816.964405,529.519364 C816.958777,529.586081 816.958777,529.586081 816.986749,529.616813 C817.004506,529.638397 817.037634,529.642946 817.067308,529.634571 C817.06663,529.637272 817.066527,529.63909 817.065379,529.640858 L816.520485,529.635714 C816.485257,529.612836 816.45828,529.654378 816.45828,529.654378 C816.378494,529.777237 816.43915,529.99067 816.509984,530.03667 C816.615288,530.105055 816.764484,530.027901 816.799333,530.050532 C816.975093,530.164672 816.877533,530.392854 816.832884,530.537901 C816.639544,530.527955 816.419227,530.55955 816.285774,530.765051 C816.25937,530.805709 816.233253,530.845925 816.303709,530.891679 C816.338937,530.914556 816.469979,530.94248 816.566838,530.947576 C816.812674,531.107224 816.943693,531.365723 816.757433,531.65254 C816.677647,531.775398 816.026186,531.933524 816.026186,531.933524 L816.57,532.1717 C816.571137,532.172438 816.572847,532.172292 816.573892,532.172342 C816.551205,532.251228 816.569715,532.356239 816.61176,532.404278 C816.66836,532.468051 816.854572,532.45829 816.957061,532.355202 C816.957922,532.353876 816.958129,532.350241 816.959564,532.348031 C817.086683,532.546193 817.224049,532.82892 817.288759,532.987181 C817.048829,533.35664 816.643618,533.441578 816.537142,533.605537 C816.510165,533.647079 816.51985,533.709288 816.554699,533.731919 C816.800156,533.891321 817.198221,533.278356 817.479285,533.460881 C817.584968,533.529513 817.637178,533.679656 817.55768,533.802073 C817.539025,533.830798 817.504082,533.848947 817.466877,533.883847 C817.461873,533.877455 817.457431,533.872686 817.451003,533.865998 C817.361376,533.837325 817.361376,533.837325 817.327305,533.872375 C817.225573,533.975955 817.477292,534.260059 817.505827,534.292413 C817.509066,534.249278 817.52259,534.22099 817.536469,534.197959 C817.648666,534.172803 817.829394,534.096021 817.960078,534.180888 C818.275612,534.385798 818.089351,534.672614 817.877261,534.999205 C817.992652,534.89947 818.142227,534.822562 818.247532,534.890948 C818.422913,535.004841 818.39505,535.278285 818.535583,535.369548 C818.640887,535.437933 818.871418,535.005823 819.468017,535.393259 C819.60817,535.484275 819.457516,535.794215 819.404995,535.875089 C819.878354,536.067511 820.094027,535.275153 820.655398,535.639711 C820.725475,535.68522 820.777777,535.836051 820.847474,535.881313 C820.936869,535.939367 821.050608,535.847983 821.179901,535.74094 L821.200309,535.764246 L821.195065,535.72754 C821.368795,535.582753 821.567791,535.417303 821.764763,535.545218 C821.835598,535.591219 821.852775,535.717355 821.895966,535.805094 C821.951134,535.788142 822.000827,535.784599 822.046306,535.788373 C822.037107,535.887955 822.043679,535.98647 822.072122,536.018136 C822.128056,536.082106 822.155076,536.113475 822.218061,536.111025 C822.292885,536.033953 822.320438,535.95006 822.323381,535.868405 C822.435219,535.900193 822.553487,535.897201 822.723475,535.739932 C822.791576,535.822484 822.83097,535.848067 822.929935,535.747089 C822.964477,535.712972 823.003603,535.61209 822.946625,535.54807 C822.937935,535.537401 822.928294,535.52737 822.919031,535.517584 C822.968061,535.452036 823.019972,535.379563 823.077659,535.290734 C823.251524,535.403643 823.432986,535.578663 823.579874,535.733114 C823.367946,535.799061 823.184878,535.847934 823.165695,535.867521 C823.13229,535.902375 823.09784,535.93718 823.126283,535.968845 C823.126283,535.968845 823.848109,535.835052 824.051573,535.627893 C824.051573,535.627893 824.085265,535.592597 824.05758,535.561423 C823.97439,535.599133 823.875818,535.63565 823.776592,535.669857 C823.891702,535.466896 823.674052,535.209942 823.581096,534.977418 C823.968567,534.764721 824.453575,534.554418 824.796489,534.487457 C824.831717,534.510334 824.841115,534.572985 824.876343,534.595862 C824.94642,534.641371 825.042705,534.647351 825.09666,534.564267 C825.167621,534.377873 825.186085,534.041778 825.169585,533.91294 C825.328363,533.899813 825.937231,533.422489 826.218295,533.605014 L826.814893,533.99245 C826.701718,533.859891 826.271389,533.523256 826.324771,533.441056 C826.377578,533.359739 826.466761,533.299533 826.492878,533.259316 C826.546259,533.177116 826.536861,533.114465 826.52899,533.050292 C826.431936,533.046325 826.335272,533.040099 826.229967,532.971714 C826.126936,532.904804 826.05374,532.794439 826.060107,532.650292 C826.078279,532.643871 826.096944,532.633374 826.113934,532.615504 C826.14905,532.580504 826.120228,532.548592 826.120228,532.548592 C826.11295,532.540725 826.096512,532.541988 826.076917,532.548112 C826.083668,532.526107 826.090327,532.503414 826.100028,532.480183 C826.339096,532.11205 826.691787,532.107986 826.931716,531.738528 C826.957833,531.698311 826.9757,531.593676 827.028794,531.511918 C827.13527,531.34796 827.283673,531.503395 827.417127,531.297895 C827.496625,531.175479 827.41014,531.00182 827.436257,530.961604 L827.463234,530.920062 C827.295724,530.870341 827.119586,530.755956 826.909356,530.619431 C826.814644,530.150777 827.181351,529.048725 827.024434,528.598736 C826.88428,528.50772 826.717034,528.688133 826.61173,528.619748 C826.348337,528.333717 826.35738,528.165546 826.463855,528.001588 C826.517811,527.918504 826.605846,527.860065 826.658653,527.778749 C826.712322,527.696107 826.703785,527.63213 826.598859,527.56399 C826.377589,527.596224 826.298091,527.71864 826.08824,527.582361 C825.52649,527.217557 826.24095,526.808176 825.995113,526.648528 C825.85799,526.559479 825.621319,526.758895 825.323155,526.720459 C825.375694,526.717508 825.428315,526.697016 825.479272,526.645915 C825.581096,526.543023 825.530974,526.413713 825.446219,526.317832 C825.362312,526.223131 825.176295,526.231763 825.074655,526.33603 C824.972637,526.440051 824.966917,526.506079 824.995073,526.538187 C825.032113,526.579834 825.079026,526.622866 825.131196,526.65863 C825.108835,526.646622 825.085786,526.639822 825.062301,526.624571 C824.466081,526.237381 825.197706,525.956643 824.881415,525.75124 C824.664366,525.610288 824.560879,526.133697 824.248311,526.067685 C824.247625,526.010692 824.232958,525.957813 824.198488,525.935428 C824.169699,525.916733 824.122153,525.928581 824.0769,525.978361 C823.865605,525.80533 823.812096,525.463964 823.712474,525.399269 C823.642397,525.35376 823.315604,525.549314 823.209415,525.712831 C823.034034,525.598937 823.088966,525.284639 822.948055,525.19313 C822.851288,525.188722 822.82431,525.230264 822.797619,525.271364 C822.718121,525.39378 822.762081,525.479505 822.655605,525.643463 C822.628915,525.684563 822.055872,525.953305 821.704731,525.725271 C821.669503,525.702394 821.652234,525.57557 821.698031,525.428754 C821.750551,525.34788 821.724745,525.157078 821.65429,525.111324 C821.558188,525.10672 821.496844,525.124059 821.469866,525.165601 C821.363677,525.329117 821.396689,525.584288 821.316904,525.707146 C821.210715,525.870663 820.893631,525.89785 820.823933,525.852588 L820.823933,525.852588" id="Path-Copy" fill="#B35EFF" opacity="0.40129431"></path>
            <path d="M561.841308,622.999535 C561.532827,623.156714 561.510793,623.616407 561.635018,623.860213 C561.876238,624.333634 562.099765,624.523594 562.221361,624.76224 C562.320683,625.465575 562.362195,626.047252 562.134059,626.613584 C561.108,627.136387 559.904487,626.545575 559.289736,626.858806 C559.289736,626.858806 559.249141,627.030604 559.310268,627.150571 C560.353333,626.918081 561.638484,627.163445 562.187967,628.241866 C563.041111,629.916256 561.949367,631.824424 562.270713,633.469177 L560.862094,634.186904 C561.022613,633.583531 561.173375,632.816142 561.056009,632.39173 C561.056009,632.39173 561.018758,632.261221 560.905445,632.284834 C560.841349,632.954445 560.615095,633.841543 560.492802,634.375068 L560.325846,634.460136 C560.373537,634.455335 560.428102,634.442157 560.477348,634.434939 C560.428891,634.64324 560.40052,634.79256 560.411423,634.827626 C560.444491,634.955392 560.480635,635.086464 560.596159,635.061724 C560.596159,635.061724 560.698769,634.773835 560.808619,634.379889 C561.422665,634.253877 562.071981,634.022152 562.557369,633.774834 C562.65909,633.723005 562.801855,633.497524 563.006403,633.393302 C563.519432,633.1319 563.987914,633.799878 564.291575,634.395847 C565.145377,636.071528 563.203096,635.553284 563.751922,636.630415 C563.907696,636.936139 564.888796,636.278632 565.742589,636.724285 C565.632354,636.751205 565.702254,637.003192 565.735321,637.130957 C565.886333,637.235999 565.886333,637.235999 565.997882,637.211659 C566.073633,637.19906 566.129966,637.126485 566.150801,637.044375 C566.156299,637.049698 565.402331,638.347044 565.402331,638.347044 C565.299504,638.399437 565.361288,638.520695 565.361288,638.520695 C565.544011,638.879309 566.135173,639.028187 566.341932,638.922838 C566.649308,638.766223 566.670685,638.30524 566.772406,638.25341 C567.285435,637.992009 567.694344,638.537602 567.978131,638.843096 C567.688868,639.28946 567.461388,639.857082 567.767022,640.456922 C567.827491,640.575599 567.887303,640.692987 568.092957,640.588201 C568.195784,640.535808 568.442242,640.262368 568.587426,640.038905 C569.305004,639.67328 570.100057,639.716646 570.526629,640.553842 C570.709352,640.912455 570.190658,642.679753 570.190658,642.679753 L571.504426,641.713003 C571.667834,641.866974 571.943123,641.967189 572.115184,641.93314 C572.344678,641.886077 572.577257,641.429598 572.472767,641.044122 C573.105273,640.998073 573.966691,641.05962 574.432149,641.123059 C574.981632,642.20148 574.62708,643.282315 574.870929,643.760897 C574.932713,643.882154 575.094038,643.944569 575.195759,643.89274 C575.912231,643.527679 575.000589,641.738481 575.820994,641.320464 C576.129475,641.163285 576.558446,641.245315 576.740511,641.602639 C576.783234,641.686487 576.778414,641.794561 576.810345,641.931029 C576.554721,642.118147 576.554721,642.118147 576.591314,642.247365 C576.698016,642.631714 577.719803,642.423064 577.835985,642.399614 C577.7378,642.33265 577.68907,642.261612 577.653337,642.19695 C577.747611,641.895434 577.81319,641.359934 578.194645,641.165573 C579.115665,640.69629 579.542237,641.533485 580.027964,642.486778 C579.949174,642.075208 579.971657,641.613662 580.279032,641.457046 C580.790956,641.196208 581.403307,641.638142 581.813509,641.429133 C582.120885,641.272518 581.40942,640.130392 583.150845,639.243092 C583.559941,639.034647 584.090446,639.818885 584.210728,640.054951 C585.318842,639.192987 583.729799,637.591328 585.368397,636.756421 C585.572945,636.652198 586.003679,636.734955 586.207122,636.631296 C586.468059,636.498342 586.406868,636.102178 586.329785,635.647491 C586.212889,634.980733 586.09259,634.279962 586.667537,633.987012 C586.874296,633.881663 587.19802,634.014069 587.466116,634.031831 C587.501569,633.877277 587.561403,633.754172 587.632859,633.651144 C587.857165,633.809833 588.100599,633.929529 588.215017,633.905352 C588.444063,633.860142 588.555822,633.838946 588.636516,633.685714 C588.555921,633.401803 588.394159,633.220995 588.203914,633.101821 C588.433185,632.879385 588.588535,632.593871 588.447849,631.973357 C588.737824,631.924725 588.852813,631.866135 588.748501,631.491942 C588.714776,631.362887 588.528486,631.131206 588.297886,631.178833 C588.260564,631.184851 588.22345,631.194012 588.187442,631.20261 C588.098832,630.995903 587.997704,630.772826 587.865591,630.513541 C588.373092,630.254956 589.03881,630.06362 589.608094,629.926293 C589.473873,630.521143 589.338673,631.023872 589.358926,631.096421 C589.395968,631.223787 589.431455,631.353569 589.545874,631.329392 C589.545874,631.329392 590.219127,629.428096 590.005723,628.659398 C590.005723,628.659398 589.968024,628.530743 589.855817,628.553793 C589.831262,628.803536 589.782738,629.08824 589.72782,629.371328 C589.403028,628.818622 588.492644,628.983509 587.811683,628.88526 C587.83788,627.671129 588.003763,626.228211 588.315509,625.3203 C588.418336,625.267907 588.580318,625.331612 588.683145,625.279219 C588.887693,625.174997 589.034192,624.954113 588.910625,624.711597 C588.564605,624.286698 587.790272,623.78106 587.46105,623.64333 C587.647935,623.247505 587.348623,621.143059 588.169028,620.725042 L589.910453,619.837742 C589.439572,619.924929 588.047432,620.486396 587.925179,620.246461 C587.80424,620.009105 587.783499,619.714196 587.723687,619.596808 C587.601433,619.356873 587.439451,619.293168 587.275946,619.223739 C587.133182,619.44922 586.985577,619.670667 586.678202,619.827283 C586.37746,619.980518 586.014309,620.003065 585.680073,619.789896 C585.68976,619.737839 585.690422,619.679006 585.671244,619.614033 C585.636205,619.482398 585.520681,619.507138 585.520681,619.507138 C585.491964,619.513646 585.472388,619.554493 585.460042,619.60953 C585.416957,619.563238 585.37211,619.516219 585.330161,619.461224 C584.78265,618.386673 585.257484,617.541904 584.708001,616.463483 C584.648189,616.346095 584.423766,616.159843 584.302169,615.921197 C584.05832,615.442615 584.632028,615.303035 584.326394,614.703196 C584.144329,614.345872 583.612321,614.313091 583.552509,614.195704 L583.490725,614.074446 C583.142307,614.404712 582.628172,614.666677 582.014527,614.979345 C580.769313,614.560893 578.650871,612.174433 577.364614,611.929632 C576.955518,612.138077 577.155038,612.783859 576.847663,612.940475 C575.805255,613.174256 575.417536,612.921718 575.173686,612.443137 C575.050118,612.200621 575.032007,611.910872 574.911068,611.673516 C574.788157,611.432291 574.624203,611.364716 574.317934,611.520768 C574.090663,612.091533 574.272729,612.448857 573.660189,612.760961 C572.020486,613.596432 572.027892,611.33408 571.310315,611.699705 C570.910063,611.903643 571.059425,612.74072 570.558372,613.397363 C570.623526,613.268298 570.647056,613.114944 570.595468,612.923496 C570.490529,612.539874 570.113998,612.481495 569.769428,612.551445 C569.428832,612.620996 569.193833,613.075458 569.302298,613.460534 C569.409657,613.846173 569.558906,613.950488 569.673981,613.927602 C569.823959,613.896681 569.990793,613.844172 570.147558,613.769171 C570.088269,613.805879 570.040425,613.851381 569.971874,613.886309 C568.231555,614.773046 568.568631,612.646571 567.6454,613.116981 C567.011853,613.43979 568.11508,614.405051 567.528626,615.058087 C567.392075,614.981424 567.246107,614.943682 567.145491,614.994948 C567.061461,615.037764 567.024336,615.167172 567.080617,615.34323 C566.378647,615.608283 565.4929,615.266654 565.20211,615.414819 C564.997562,615.519042 565.013932,616.565245 565.257124,617.042537 C564.7452,617.303375 564.072828,616.74091 563.66152,616.950482 C563.518098,617.174672 563.579882,617.29593 563.641009,617.415898 C563.823074,617.773222 564.087435,617.786387 564.331284,618.264969 C564.392411,618.384936 564.244639,620.117603 563.219687,620.639843 C563.11686,620.692236 562.791373,620.559103 562.504957,620.248449 C562.384675,620.012383 561.895234,619.811675 561.68958,619.916461 C561.546607,620.138798 561.503592,620.308579 561.565376,620.429836 C561.808568,620.907128 562.461066,621.179118 562.643789,621.537731 C562.886981,622.015023 562.51608,622.806835 562.312637,622.910495 C562.105878,623.015844 561.94303,622.947706 561.841308,622.999535" id="Path-Copy" fill="#B35EFF" opacity="0.40129431"></path>
            <path d="M648.28649,706.476583 C648.114042,706.631856 647.939107,706.608187 647.854266,706.684578 C647.596978,706.916242 647.694671,707.365975 647.877765,707.569321 C648.233297,707.964179 648.498371,708.089812 648.67759,708.288855 C648.955565,708.942518 649.146212,709.493631 649.072426,710.099712 C648.216641,710.870265 646.901223,710.611076 646.38849,711.072743 C646.38849,711.072743 646.393743,711.249193 646.483836,711.349253 C647.431187,710.854719 648.736052,710.759101 649.545928,711.658559 C650.803366,713.055086 650.242693,715.180799 650.978783,716.686338 L649.803922,717.744186 C649.802807,717.119827 649.749817,716.339566 649.526604,715.959992 C649.526604,715.959992 649.456845,715.843571 649.353504,715.895708 C649.4649,716.559091 649.475953,717.474521 649.495914,718.021519 L649.356664,718.1469 C649.401488,718.129918 649.450782,718.103067 649.496482,718.083349 C649.503588,718.297094 649.514831,718.448669 649.534439,718.479719 C649.599447,718.594572 649.668284,718.711823 649.773469,718.658026 C649.773469,718.658026 649.798071,718.353389 649.802217,717.944436 C650.362726,717.663791 650.929942,717.271906 651.33478,716.907388 C651.419621,716.830997 651.499162,716.57625 651.669766,716.422637 C652.097659,716.037361 652.723062,716.561326 653.170625,717.058395 C654.429032,718.455998 652.418802,718.458112 653.227709,719.356494 C653.457303,719.611484 654.234796,718.722453 655.174841,718.931943 C655.075329,718.986476 655.208066,719.211786 655.273075,719.326639 C655.446128,719.389017 655.446128,719.389017 655.547577,719.336635 C655.617486,719.30486 655.653116,719.220178 655.651989,719.135473 C655.658677,719.139192 655.663428,719.140759 655.667303,719.145063 L655.266178,720.587473 C655.180415,720.664695 655.271477,720.76583 655.271477,720.76583 C655.54079,721.064932 656.150341,721.055734 656.322789,720.900461 C656.579156,720.669627 656.480494,720.218819 656.565334,720.142428 C656.993227,719.757152 657.529412,720.178321 657.882597,720.399956 C657.718718,720.905978 657.645901,721.513135 658.09637,722.013431 C658.185495,722.112415 658.273651,722.210322 658.445177,722.055879 C658.53094,721.978658 658.698228,721.650747 658.780629,721.397321 C659.379125,720.858433 660.158312,720.694546 660.787031,721.39281 C661.056343,721.691912 661.012734,723.533238 661.012734,723.533238 L662.031523,722.259401 C662.03429,722.25691 662.035119,722.252267 662.035994,722.249531 C662.229214,722.365833 662.52106,722.391383 662.678446,722.313962 C662.887939,722.209105 662.994448,721.707984 662.793749,721.362687 C662.790843,721.359459 662.781342,721.356325 662.776498,721.350945 C663.392785,721.154502 664.24078,720.991001 664.706798,720.931809 C665.516674,721.831267 665.453943,722.967038 665.81335,723.366199 C665.904412,723.467335 666.076394,723.485869 666.161235,723.409478 C666.758809,722.87142 665.415151,721.379137 666.099411,720.763028 C666.356699,720.531364 666.792285,720.499573 667.060629,720.797599 C667.123598,720.867533 667.146913,720.973171 667.213076,721.096726 C667.192555,721.105462 667.176739,721.113859 667.15442,721.126162 C667.014593,721.343627 667.014593,721.343627 667.083383,721.458972 C667.285926,721.802608 668.218894,721.33661 668.325047,721.283889 C668.212877,721.244619 668.147421,721.188613 668.09617,721.135403 C668.109194,720.819761 668.03394,720.285534 668.352093,719.999068 C669.12027,719.307398 669.74899,720.005661 670.464896,720.800756 C670.282269,720.423603 670.184529,719.971964 670.440895,719.741131 C670.867866,719.356685 671.573733,719.625072 671.915862,719.317017 C672.172229,719.086184 671.189403,718.167115 672.64184,716.859335 C672.983047,716.552111 673.698451,717.172322 673.875733,717.369213 C674.722996,716.249819 672.773559,715.11401 674.140233,713.883451 C674.310836,713.729839 674.748313,713.698294 674.917994,713.545512 C675.135629,713.349552 674.973988,712.982725 674.78185,712.563482 L674.858214,712.525894 L674.757073,712.513709 C674.496368,711.949698 674.198795,711.30394 674.67833,710.872165 C674.850778,710.716892 675.197741,710.761001 675.461298,710.70877 C675.455542,710.550306 675.481475,710.41591 675.52383,710.297898 C675.781565,710.393125 676.047684,710.445737 676.151946,710.392771 C676.361486,710.28982 676.463951,710.24042 676.502236,710.071524 C676.350906,709.818147 676.147859,709.685367 675.933252,709.619493 C676.09714,709.345296 676.1733,709.029303 675.876808,708.466345 C676.144314,708.344319 676.240221,708.257964 676.042615,707.92352 C675.976638,707.80759 675.736732,707.63202 675.526317,707.737707 C675.491823,707.75318 675.458345,707.771634 675.425789,707.789259 C675.286699,707.612529 675.13128,707.423228 674.936561,707.206971 C675.359843,706.825846 675.953355,706.468729 676.467699,706.18874 C676.492009,706.798059 676.491532,707.318651 676.529872,707.383486 C676.598616,707.496925 676.666485,707.613099 676.770747,707.560133 C676.770747,707.560133 676.928968,705.549372 676.523882,704.862099 C676.523882,704.862099 676.454169,704.747585 676.351751,704.798891 C676.392671,705.04648 676.419488,705.334042 676.43971,705.621697 C675.982934,705.171887 675.146246,705.56678 674.46306,705.648124 C674.174123,704.468583 673.9609,703.031898 674.027039,702.074238 C674.112802,701.997016 674.285752,702.016627 674.371515,701.939405 C674.542119,701.785793 674.626457,701.534519 674.444332,701.332248 C674.000132,701.011384 673.121314,700.723387 672.767663,700.675559 C672.845733,700.244852 672.011949,698.289581 672.696209,697.673472 L674.148646,696.365691 C673.716376,696.571781 672.51699,697.474429 672.336802,697.27431 C672.158552,697.076343 672.06219,696.796852 671.974034,696.698944 C671.793846,696.498826 671.620895,696.479215 671.444992,696.454471 C671.365451,696.709218 671.28019,696.961323 671.023824,697.192157 C670.77299,697.418008 670.428048,697.533778 670.050029,697.414379 C670.045912,697.361589 670.031325,697.304588 669.995985,697.246793 C669.92807,697.128712 669.822885,697.182509 669.822885,697.182509 C669.796831,697.196227 669.788494,697.240749 669.790814,697.297106 C669.737215,697.263543 669.681726,697.229734 669.626973,697.18747 C668.820004,696.29124 669.060016,695.352359 668.25014,694.452902 C668.161984,694.354994 667.897002,694.233173 667.717783,694.03413 C667.358377,693.634969 667.87641,693.351658 667.425941,692.851361 C667.157597,692.553335 666.635233,692.659365 666.547077,692.561458 L666.456014,692.460322 C666.204947,692.869513 665.776132,693.255619 665.264321,693.716456 C663.953234,693.634548 661.289315,691.877697 659.983527,691.974146 C659.642319,692.28137 660.002182,692.853508 659.745815,693.084342 C658.799434,693.579952 658.359564,693.436368 658.000158,693.037207 C657.818032,692.834936 657.725545,692.559748 657.547295,692.361781 C657.366139,692.160587 657.190282,692.137749 656.934837,692.367752 C656.863036,692.977891 657.13138,693.275917 656.620491,693.735924 C655.252895,694.967313 654.674509,692.780132 654.076013,693.319021 C653.742183,693.619603 654.103106,694.389499 653.789079,695.15345 C653.818607,695.01192 653.801645,694.857701 653.702265,694.686129 C653.501613,694.342738 653.122802,694.383802 652.808077,694.54055 C652.497088,694.695883 652.38772,695.195683 652.592154,695.539565 C652.795665,695.884277 652.966827,695.946409 653.072058,695.894518 C653.208923,695.825834 653.356481,695.731935 653.488493,695.618916 C653.440726,695.669718 653.406288,695.726052 653.349113,695.777533 C651.897598,697.084483 651.672817,694.943224 650.902795,695.636555 C650.374385,696.112338 651.689848,696.759172 651.292396,697.541742 C651.140655,697.503034 650.989893,697.504357 650.905974,697.579918 C650.835888,697.643023 650.833522,697.77763 650.933452,697.933122 C650.324002,698.370828 649.380017,698.270087 649.137483,698.488466 C648.966879,698.642078 649.253469,699.648396 649.611906,700.046482 C649.184936,700.430928 648.389897,700.061651 648.046846,700.370536 C647.966336,700.624208 648.057398,700.725343 648.147492,700.825402 C648.415836,701.123428 648.674596,701.067724 649.034002,701.466885 C649.124096,701.566944 649.429807,703.278818 648.574944,704.04854 C648.489181,704.125761 648.140327,704.081407 647.783268,703.855468 C647.605986,703.658577 647.081276,703.591385 646.90975,703.745827 C646.829193,703.997592 646.831587,704.172721 646.922649,704.273856 C647.281087,704.671942 647.981748,704.765785 648.25106,705.064887 C648.609498,705.462972 648.456171,706.323801 648.28649,706.476583 L648.28649,706.476583" id="Path-Copy" fill="#B35EFF" opacity="0.40129431"></path>
            <path d="M1075.898,400.506266 C1075.72555,400.661539 1075.55062,400.637871 1075.46578,400.714262 C1075.20849,400.945926 1075.30618,401.395658 1075.48928,401.599004 C1075.84481,401.993862 1076.10988,402.119496 1076.2891,402.318539 C1076.56708,402.972202 1076.75772,403.523315 1076.68394,404.129396 C1075.82815,404.899948 1074.51273,404.64076 1074,405.102427 C1074,405.102427 1074.00525,405.278877 1074.09535,405.378936 C1075.0427,404.884402 1076.34756,404.788784 1077.15744,405.688242 C1078.41488,407.084769 1077.8542,409.210482 1078.59029,410.716021 L1077.41543,411.77387 C1077.41432,411.149511 1077.36133,410.36925 1077.13811,409.989676 C1077.13811,409.989676 1077.06835,409.873255 1076.96501,409.925391 C1077.07641,410.588775 1077.08746,411.504204 1077.10742,412.051202 L1076.96817,412.176583 C1077.013,412.159602 1077.06229,412.13275 1077.10799,412.113032 C1077.1151,412.326777 1077.12634,412.478353 1077.14595,412.509402 C1077.21096,412.624256 1077.27979,412.741506 1077.38498,412.687709 C1077.38498,412.687709 1077.40958,412.383073 1077.41373,411.974119 C1077.97424,411.693474 1078.54145,411.301589 1078.94629,410.937072 C1079.03113,410.860681 1079.11067,410.605933 1079.28128,410.452321 C1079.70917,410.067045 1080.33457,410.59101 1080.78214,411.088078 C1082.04054,412.485681 1080.03031,412.487795 1080.83922,413.386177 C1081.06881,413.641167 1081.84631,412.752136 1082.78635,412.961626 C1082.68684,413.01616 1082.81958,413.241469 1082.88459,413.356323 C1083.05764,413.418701 1083.05764,413.418701 1083.15909,413.366319 C1083.229,413.334544 1083.26463,413.249862 1083.2635,413.165157 C1083.27019,413.168875 1083.27494,413.170442 1083.27881,413.174746 L1082.87769,414.617157 C1082.79193,414.694378 1082.88299,414.795513 1082.88299,414.795513 C1083.1523,415.094615 1083.76185,415.085417 1083.9343,414.930144 C1084.19067,414.699311 1084.092,414.248503 1084.17684,414.172112 C1084.60474,413.786835 1085.14092,414.208004 1085.49411,414.42964 C1085.33023,414.935661 1085.25741,415.542818 1085.70788,416.043115 C1085.79701,416.142098 1085.88516,416.240006 1086.05669,416.085563 C1086.14245,416.008342 1086.30974,415.680431 1086.39214,415.427005 C1086.99064,414.888117 1087.76982,414.72423 1088.39854,415.422493 C1088.66785,415.721595 1088.62424,417.562922 1088.62424,417.562922 L1089.64303,416.289085 C1089.6458,416.286594 1089.64663,416.281951 1089.6475,416.279214 C1089.84072,416.395516 1090.13257,416.421066 1090.28996,416.343646 C1090.49945,416.238788 1090.60596,415.737667 1090.40526,415.39237 C1090.40235,415.389143 1090.39285,415.386008 1090.38801,415.380629 C1091.0043,415.184186 1091.85229,415.020685 1092.31831,414.961493 C1093.12818,415.860951 1093.06545,416.996722 1093.42486,417.395883 C1093.51592,417.497018 1093.6879,417.515553 1093.77274,417.439162 C1094.37032,416.901103 1093.02666,415.408821 1093.71092,414.792711 C1093.96821,414.561047 1094.4038,414.529256 1094.67214,414.827283 C1094.73511,414.897217 1094.75842,415.002855 1094.82459,415.126409 C1094.80407,415.135145 1094.78825,415.143542 1094.76593,415.155846 C1094.6261,415.373311 1094.6261,415.373311 1094.69489,415.488655 C1094.89744,415.832292 1095.8304,415.366293 1095.93656,415.313572 C1095.82439,415.274302 1095.75893,415.218297 1095.70768,415.165086 C1095.7207,414.849445 1095.64545,414.315218 1095.9636,414.028752 C1096.73178,413.337082 1097.3605,414.035345 1098.07641,414.83044 C1097.89378,414.453286 1097.79604,414.001648 1098.05241,413.770814 C1098.47938,413.386368 1099.18524,413.654756 1099.52737,413.346701 C1099.78374,413.115867 1098.80091,412.196799 1100.25335,410.889019 C1100.59456,410.581794 1101.30996,411.202006 1101.48724,411.398897 C1102.33451,410.279502 1100.38507,409.143693 1101.75174,407.913135 C1101.92235,407.759522 1102.35982,407.727977 1102.5295,407.575195 C1102.74714,407.379236 1102.5855,407.012408 1102.39336,406.593165 L1102.46972,406.555578 L1102.36858,406.543393 C1102.10788,405.979381 1101.81031,405.333624 1102.28984,404.901849 C1102.46229,404.746576 1102.80925,404.790685 1103.07281,404.738453 C1103.06705,404.57999 1103.09299,404.445593 1103.13534,404.327581 C1103.39308,404.422809 1103.65919,404.475421 1103.76346,404.422454 C1103.973,404.319503 1104.07546,404.270103 1104.11375,404.101208 C1103.96242,403.847831 1103.75937,403.715051 1103.54476,403.649176 C1103.70865,403.37498 1103.78481,403.058987 1103.48832,402.496028 C1103.75582,402.374002 1103.85173,402.287647 1103.65413,401.953203 C1103.58815,401.837274 1103.34824,401.661703 1103.13783,401.767391 C1103.10333,401.782863 1103.06986,401.801318 1103.0373,401.818942 C1102.89821,401.642213 1102.74279,401.452911 1102.54807,401.236654 C1102.97135,400.85553 1103.56487,400.498413 1104.07921,400.218423 C1104.10352,400.827743 1104.10304,401.348335 1104.14138,401.41317 C1104.21013,401.526608 1104.278,401.642783 1104.38226,401.589816 C1104.38226,401.589816 1104.54048,399.579055 1104.13539,398.891783 C1104.13539,398.891783 1104.06568,398.777268 1103.96326,398.828574 C1104.00418,399.076163 1104.031,399.363725 1104.05122,399.651381 C1103.59444,399.20157 1102.75776,399.596464 1102.07457,399.677808 C1101.78563,398.498267 1101.57241,397.061581 1101.63855,396.103921 C1101.72431,396.0267 1101.89726,396.04631 1101.98303,395.969089 C1102.15363,395.815477 1102.23797,395.564202 1102.05584,395.361932 C1101.61164,395.041068 1100.73282,394.75307 1100.37917,394.705243 C1100.45724,394.274536 1099.62346,392.319265 1100.30772,391.703155 L1101.76016,390.395375 C1101.32789,390.601464 1100.1285,391.504112 1099.94831,391.303994 C1099.77006,391.106027 1099.6737,390.826535 1099.58554,390.728628 C1099.40536,390.528509 1099.23241,390.508899 1099.0565,390.484155 C1098.97696,390.738902 1098.8917,390.991007 1098.63533,391.22184 C1098.3845,391.447692 1098.03956,391.563462 1097.66154,391.444062 C1097.65742,391.391272 1097.64284,391.334272 1097.6075,391.276477 C1097.53958,391.158396 1097.4344,391.212193 1097.4344,391.212193 C1097.40834,391.225911 1097.4,391.270433 1097.40232,391.32679 C1097.34873,391.293227 1097.29324,391.259418 1097.23848,391.217153 C1096.43151,390.320923 1096.67153,389.382043 1095.86165,388.482585 C1095.77349,388.384678 1095.50851,388.262856 1095.32929,388.063813 C1094.96989,387.664652 1095.48792,387.381341 1095.03745,386.881045 C1094.76911,386.583019 1094.24674,386.689049 1094.15859,386.591141 L1094.06752,386.490006 C1093.81646,386.899196 1093.38764,387.285303 1092.87583,387.746139 C1091.56474,387.664231 1088.90083,385.907381 1087.59504,386.003829 C1087.25383,386.311054 1087.61369,386.883192 1087.35733,387.114026 C1086.41094,387.609635 1085.97107,387.466052 1085.61167,387.06689 C1085.42954,386.86462 1085.33706,386.589432 1085.15881,386.391465 C1084.97765,386.190271 1084.80179,386.167433 1084.54635,386.397436 C1084.47455,387.007575 1084.74289,387.305601 1084.232,387.765607 C1082.86441,388.996997 1082.28602,386.809816 1081.68752,387.348704 C1081.35369,387.649286 1081.71462,388.419183 1081.40059,389.183134 C1081.43012,389.041603 1081.41316,388.887385 1081.31378,388.715812 C1081.11312,388.372422 1080.73431,388.413486 1080.41959,388.570234 C1080.1086,388.725567 1079.99923,389.225366 1080.20366,389.569248 C1080.40718,389.91396 1080.57834,389.976093 1080.68357,389.924202 C1080.82043,389.855517 1080.96799,389.761619 1081.1,389.648599 C1081.05224,389.699402 1081.0178,389.755736 1080.96062,389.807217 C1079.50911,391.114166 1079.28433,388.972907 1078.51431,389.666238 C1077.98589,390.142021 1079.30136,390.788856 1078.90391,391.571426 C1078.75217,391.532718 1078.6014,391.534041 1078.51748,391.609601 C1078.4474,391.672707 1078.44503,391.807313 1078.54496,391.962806 C1077.93551,392.400511 1076.99153,392.299771 1076.74899,392.518149 C1076.57839,392.671762 1076.86498,393.67808 1077.22342,394.076165 C1076.79645,394.460611 1076.00141,394.091334 1075.65836,394.40022 C1075.57785,394.653891 1075.66891,394.755026 1075.759,394.855086 C1076.02735,395.153112 1076.28611,395.097407 1076.64551,395.496568 C1076.73561,395.596628 1077.04132,397.308502 1076.18645,398.078224 C1076.10069,398.155445 1075.75184,398.11109 1075.39478,397.885152 C1075.2175,397.688261 1074.69279,397.621068 1074.52126,397.775511 C1074.4407,398.027276 1074.4431,398.202405 1074.53416,398.30354 C1074.8926,398.701625 1075.59326,398.795469 1075.86257,399.094571 C1076.22101,399.492656 1076.06768,400.353485 1075.898,400.506266 L1075.898,400.506266" id="Path-Copy" fill="#B35EFF" opacity="0.40129431"></path>
            <path d="M1188.8938,556.495697 C1189.49193,557.99441 1190.54793,556.373962 1190.77729,558.376825 C1190.9345,559.766813 1189.51213,561.440945 1189.98738,563.625399 C1191.37529,570.018642 1196.53425,580.789387 1202.12465,582.70129 C1202.72465,582.906842 1205.18192,581.598571 1205.80763,581.606396 C1208.80459,581.650547 1216.05158,583.020483 1218.23513,582.600161 C1219.7108,582.318043 1221.0128,580.709149 1222.38139,580.21158 C1226.11299,578.855204 1230.26993,578.434128 1234.09063,576.085714 C1237.25389,574.144106 1240.39394,569.560648 1242.8799,568.907888 C1242.94652,568.892202 1244.70741,569.626396 1244.35562,569.883151 C1245.47195,569.069449 1249.88187,561.682899 1251.49534,560.177496 C1251.81806,559.875473 1253.05295,560.68552 1253.64152,560.309377 C1254.13364,559.997129 1253.64207,559.063369 1254.33787,558.367046 C1256.1482,556.557444 1260.99738,555.236716 1261.52826,554.620805 C1264.22464,551.485296 1260.27179,538.354322 1260.97791,535.827839 C1262.16672,531.540314 1265.22266,527.238799 1268.61066,523.723178 C1269.35157,522.957871 1272.08851,518.095167 1274.99294,518.161891 C1276.07322,518.183879 1278.85274,522.222787 1278.7562,521.925806 C1279.8354,525.101094 1277.64449,529.06637 1279.31697,532.557319 C1281.06536,536.19376 1286.24711,540.809395 1287.81973,543.459962 C1288.43899,544.495205 1289.03917,547.411078 1289.84087,547.999519 C1292.39833,549.871642 1296.25255,546.9774 1299.0856,547.695288 C1304.39224,549.034973 1306.68169,556.426262 1310.56768,559.443966 C1311.91903,560.495555 1313.74766,559.583601 1315.25937,560.619678 C1318.3783,562.761081 1317.64177,564.958807 1320.26441,566.005557 C1322.63609,566.954477 1325.08876,566.938252 1326.69537,566.409228 C1328.63595,565.768765 1328.36633,563.991062 1330.23425,562.656448 C1332.33752,561.154179 1334.70489,561.397148 1336.55544,559.297199 C1339.37865,556.095909 1340.66738,550.194473 1344.42485,546.546952 C1345.45825,545.541977 1346.83042,545.578379 1347.70105,544.54342 C1348.48795,543.610937 1348.96307,541.16169 1349.96754,540.272053 C1351.2736,539.113084 1353.78188,539.146614 1355.1846,537.949269 C1358.75333,534.909699 1359.60029,528.797458 1362.588,526.491593 C1364.04194,525.369238 1366.5126,525.698944 1368.00665,524.621599 C1369.45179,523.584661 1370.00784,520.736133 1371.57787,519.769329 C1372.73747,519.052791 1375.30273,519.815393 1376.96964,519.001054 C1380.40409,517.322912 1383.24277,512.768849 1387.49632,511.052015 C1390.40217,509.874674 1391.53327,508.7936 1393.38012,507.887506 C1395.34262,506.920602 1400.57118,507.363636 1403.32134,505.636229 C1406.07608,503.909108 1410.09287,496.546234 1412.465,493.40374 C1416.78061,487.693801 1420.47001,480.437109 1425.84749,475.479198 C1426.27388,475.084445 1427.97532,474.913701 1427.78934,475.157174 C1429.8207,472.536636 1429.37658,468.203067 1432.72452,467.522792 C1432.31879,467.603308 1442.48854,470.5989 1443.14822,471.038676 C1445.4117,472.541053 1449.43379,478.173632 1449.94033,481.615527 C1450.62227,486.222763 1447.45465,495.643192 1443.83025,500.656523 C1442.7684,502.123567 1440.67999,502.692467 1439.65337,504.148481 C1438.4067,505.916696 1438.1095,509.241422 1436.86151,511.918345 C1436.05336,513.649655 1433.8066,514.989941 1433.08869,516.317826 C1432.22244,517.923649 1432.92074,520.218364 1432.52999,520.918584 C1431.62426,522.555956 1429.55811,522.653899 1428.58705,523.763842 C1427.29902,525.233792 1427.96962,527.466321 1427.3626,529.203554 C1426.90338,530.516388 1425.65561,530.038067 1425.59273,531.078972 C1425.3804,534.624377 1428.10454,537.512037 1428.76481,540.547851 C1428.80399,540.726005 1427.02087,541.124051 1427.02642,541.321836 C1427.15172,546.346883 1431.2453,548.408276 1434.02013,552.351477 C1434.66041,553.258609 1433.55485,553.650708 1434.16236,555.010192 C1435.91088,558.907373 1442.20226,563.911476 1441.49991,569.151337 C1440.90908,573.584773 1433.66107,575.929285 1430.5377,577.294287 C1426.29226,579.149551 1423.64324,581.770323 1419.40164,583.884671 C1415.72479,585.719637 1410.19004,587.43408 1408.96753,588.530238 C1406.02844,591.170719 1400.62083,601.455734 1401.23849,603.940029 C1402.50959,609.04405 1406.83056,609.933087 1410.79286,607.847621 C1420.33209,602.825082 1428.76581,601.175134 1436.01453,596.618208 C1438.14833,595.27466 1440.01092,594.198558 1442.56693,592.611145 C1444.54208,591.38713 1447.0872,589.695123 1448.9186,588.153235 C1450.23153,587.044762 1450.44238,584.778373 1451.61976,583.686014 C1454.23475,581.264339 1455.17238,582.353435 1456.40501,581.555483 C1456.33302,581.599175 1459.22443,577.629382 1461.91436,576.382846 C1463.80357,575.506788 1472.16415,570.662071 1473.85666,571.608336 C1479.36515,574.683713 1472.66131,577.423958 1469.79241,578.859613 C1467.70841,579.899242 1466.98305,582.091996 1464.94607,583.192182 C1462.95104,584.271365 1460.15857,583.449256 1458.05171,584.086913 C1449.52799,586.661769 1442.9099,600.093666 1442.5431,608.942365 C1442.1404,618.687225 1454.046,621.729607 1463.23843,621.488245 C1465.37422,621.431485 1468.72175,622.753921 1470.74118,621.954941 C1473.59699,620.825494 1480.25341,611.842632 1481.7522,619.772234 C1481.67641,619.356571 1480.28341,623.185477 1479.0519,624.241398 C1475.79428,627.033013 1472.41134,625.926593 1469.92252,628.306063 C1467.80572,630.328957 1468.70641,632.351936 1468.06094,633.486896 C1467.48224,634.501319 1466.10871,632.493268 1466.32068,634.26171 C1466.51896,635.894208 1470.64212,638.943698 1471.49671,641.203755 C1472.91758,644.951092 1471.577,646.227885 1469.74503,650.142792 C1469.574,650.510007 1469.72906,652.275846 1469.68481,652.346774 C1468.99417,653.420348 1467.06544,653.50135 1466.61107,654.805039 C1466.4055,655.390213 1467.87459,655.70945 1467.85285,656.427002 C1467.76769,659.496653 1463.47126,663.090742 1466.70955,666.727467 C1469.61271,669.987156 1476.07193,662.580022 1480.76556,663.189043 C1481.6685,663.308617 1481.50293,664.870258 1482.84679,665.529334 C1484.24791,666.211818 1485.93833,664.91432 1486.29497,665.079197 C1487.73119,665.755366 1487.53558,668.79735 1491.15765,667.811076 C1492.8321,667.354299 1494.23419,664.953383 1495.97164,664.577998 C1497.73861,664.198783 1508.2217,666.004706 1509.03614,665.835357 C1509.47996,665.740211 1508.91029,664.540848 1509.49943,664.541671 C1513.25225,664.540355 1516.761,666.976234 1521.72633,665.079875 C1523.70775,664.32576 1526.36281,665.330131 1528.39222,664.834073 C1530.19214,664.393619 1531.6765,662.473009 1533.40409,662.055442 C1537.54002,661.066244 1547.62684,660.689801 1551.51652,659.433023 C1554.48244,658.475759 1561.39618,653.271626 1564.73294,655.180987 C1567.06909,656.515959 1567.05367,663.333753 1566.19811,664.322417 C1566.42131,664.06237 1559.72458,666.347719 1557.32868,666.636719 C1553.4885,667.103045 1551.35223,665.951519 1547.65386,667.13709 C1545.34001,667.880875 1541.23682,667.921758 1538.37939,668.54664 C1535.68469,669.136322 1534.74166,670.329254 1532.29127,671.257245 C1528.98441,672.510673 1523.26943,671.34581 1518.4998,673.045592 C1513.4452,674.846643 1510.97597,675.59208 1506.35318,677.366198 C1502.82011,678.722668 1501.13837,675.301047 1498.44924,675.988378 C1495.50916,676.743199 1493.14969,682.70921 1491.77094,684.401175 C1491.25031,685.045121 1490.37708,684.020499 1490.49769,683.880645 C1489.94568,684.529248 1491.10566,685.090897 1490.43474,686.083512 C1488.98439,688.235801 1483.26608,689.377657 1480.00062,690.729079 C1477.2502,691.869819 1467.33117,689.577585 1468.28953,694.855774 C1468.99066,698.704677 1472.70692,695.515595 1474.05288,696.099228 C1475.0765,696.53996 1474.26542,697.813858 1475.26504,698.821796 C1476.5741,700.13904 1483.18494,701.943559 1486.35807,701.501785 C1488.99615,701.130576 1491.39143,698.61113 1493.55032,697.754715 C1495.83936,696.845007 1499.32311,697.100879 1502.18309,696.085999 C1504.55201,695.245509 1506.11431,693.199389 1507.86715,692.467871 C1509.44418,691.812305 1508.82147,693.419138 1509.77653,693.250052 C1512.16992,692.820137 1515.82514,689.478934 1518.94112,688.082297 C1522.00226,686.707748 1525.89286,686.444839 1529.11441,685.185149 C1530.80838,684.521757 1546.92739,676.625597 1541.16661,684.168844 C1539.41262,686.465638 1539.89286,685.190013 1538.75961,685.785383 C1535.12481,687.694767 1526.44239,689.397231 1520.32613,692.360203 C1514.82846,695.024478 1506.27115,696.391818 1499.5134,699.451786 C1496.8178,700.670573 1495.70536,703.000742 1492.09094,703.843899 C1486.77067,705.083306 1482.94711,708.296875 1477.10551,709.973297 C1475.92427,710.31061 1471.37866,710.329586 1470.41274,711.320818 C1468.50201,713.27059 1470.8015,718.610642 1469.93245,720.781214 C1469.70732,721.342497 1468.49485,720.55274 1468.42799,720.908499 C1468.34355,721.334958 1469.45152,722.446008 1469.43856,723.178278 C1469.42829,723.681156 1467.95666,724.513335 1467.86842,725.507315 C1467.67492,727.777619 1470.3814,735.94026 1471.41768,736.985436 C1473.31761,738.903487 1482.46483,737.343357 1484.74399,736.491604 C1489.88371,734.57116 1496.89893,734.488835 1503.95783,732.831606 C1508.51785,731.763035 1511.61776,728.096257 1515.92875,726.959263 C1518.5472,726.268472 1524.07445,726.911503 1524.70475,727.94649 C1527.38404,732.351357 1521.05132,732.879603 1520.26606,733.189639 C1515.62647,735.006165 1509.74501,737.32438 1505.77738,736.918373 C1503.24313,736.661223 1499.94335,737.990667 1497.31101,740.142969 C1494.24786,742.650074 1484.69153,747.063168 1486.95704,749.652062 C1487.85235,750.67617 1497.21419,747.940055 1498.60519,747.728233 C1505.36745,746.692068 1513.63953,748.516053 1521.78003,748.291312 C1523.92784,748.231523 1526.69791,746.714133 1528.4738,746.94102 C1530.18459,747.16196 1529.14527,747.287062 1531.49004,746.687851 C1533.60432,746.147015 1535.55309,747.563648 1537.48187,747.282375 C1539.09871,747.046842 1540.86978,746.321183 1542.87177,746.514928 C1545.42104,746.760734 1555.81588,743.464567 1555.93813,747.77146 C1555.92615,747.308761 1556.06664,748.771392 1553.09474,749.579966 C1546.30911,751.425218 1530.82694,748.359239 1522.18408,749.198835 C1517.12542,749.688406 1509.96065,752.179809 1506.6505,751.762824 C1504.17028,751.446692 1506.18305,750.788056 1504.07351,751.820425 C1500.55218,753.548889 1493.51458,751.191579 1488.63249,751.080943 C1485.61969,751.011243 1483.61329,752.2352 1478.49253,752.875829 C1474.33657,753.394269 1467.66937,752.22957 1465.80148,753.629369 C1462.03751,756.450828 1462.05782,759.131228 1458.66176,763.335024 C1455.53229,767.205902 1451.18757,769.028526 1451.31858,772.588718 C1451.3711,774.009022 1454.15317,778.684809 1455.62255,779.921356 C1457.97848,781.901838 1458.98868,779.877988 1461.42024,780.059775 C1463.04549,780.183749 1465.25231,782.370326 1467.58764,782.210751 C1473.00599,781.842791 1477.07081,777.718466 1480.10399,779.902703 C1480.86458,780.448905 1482.39174,783.578429 1481.25407,784.830081 C1479.86042,786.363355 1475.19995,784.260961 1474.18685,784.169474 C1469.38486,783.722798 1461.7359,782.496906 1467.60398,789.275199 C1468.93541,790.813006 1468.03977,791.391066 1469.8878,792.065508 C1472.52656,793.028241 1478.73673,787.806706 1479.67338,795.325285 C1479.50987,793.996311 1477.92769,799.343818 1478.51188,798.562131 C1476.44336,801.329614 1467.99102,799.045666 1466.45882,799.576493 C1465.44346,799.930759 1466.20049,800.969866 1464.8914,801.906644 C1462.82176,803.389282 1456.89105,804.00399 1455.32462,806.166048 C1454.45872,807.361899 1456.37789,807.294471 1456.33519,808.435827 C1456.30795,809.1861 1453.6724,812.182753 1453.14014,815.300111 C1452.70032,817.868699 1454.01017,820.349848 1453.82594,821.523948 C1453.8028,821.66232 1452.31452,822.862834 1452.28728,822.751552 C1453.37546,827.524866 1461.1745,830.09968 1457.77566,833.906534 C1457.55557,834.15355 1455.81942,833.885685 1455.83381,834.228558 C1455.83205,834.159486 1463.17203,845.496006 1459.81586,845.511654 C1460.04019,845.509576 1455.1852,840.976656 1454.40963,839.214652 C1453.27784,836.642576 1453.1904,835.023599 1449.14103,835.576079 C1446.62042,835.9206 1439.88317,839.302095 1439.30971,841.585559 C1438.44053,845.05318 1442.28755,852.556665 1445.43608,853.001364 C1446.6538,853.171732 1447.46955,851.497578 1447.84395,851.386768 C1450.94845,850.470262 1462.11139,849.305005 1458.64195,856.915495 C1457.81709,858.719449 1448.14232,862.796409 1445.1916,861.814232 C1443.14802,861.131381 1444.86182,861.078549 1442.37968,862.521305 C1439.98627,863.912911 1438.29822,862.54087 1435.28099,862.962132 C1433.7521,863.174805 1433.35509,864.597322 1432.44032,864.771753 C1431.14674,865.017042 1431.46246,863.376905 1429.68949,863.276788 C1429.08564,863.242929 1429.27296,865.171376 1428.35701,864.957467 C1426.6172,864.556173 1424.57573,862.074768 1422.22108,861.705058 C1415.92562,860.724126 1411.57715,857.844806 1405.27287,861.091746 C1402.25363,862.645563 1396.19199,862.911077 1393.7661,865.672345 C1391.981,867.698909 1389.86097,874.27783 1390.6486,877.394324 C1390.66425,877.459538 1393.50625,882.460253 1393.30401,882.196361 C1393.94612,883.037478 1396.98538,885.996737 1399.38344,887.651094 C1401.39995,889.044553 1408.56422,891.70639 1405.36472,896.411785 C1405.1127,896.782455 1399.00733,899.419244 1397.13328,898.986909 C1395.31216,898.568266 1393.89793,894.946041 1391.92764,893.145469 C1384.68723,886.53576 1373.45347,888.994604 1364.82041,887.261481 C1364.18607,887.134087 1363.2696,888.396693 1362.64648,888.229376 C1361.85912,888.018759 1361.06487,886.134671 1359.92713,885.632978 C1359.67742,885.522945 1357.80228,886.19016 1357.55346,886.147255 C1352.89918,885.346081 1346.8729,879.234324 1341.5949,880.738988 C1332.47222,883.336026 1340.0503,892.517438 1341.97699,897.976902 C1342.59991,899.741673 1342.86545,901.765685 1342.72115,901.997586 C1338.76861,908.402773 1328.33183,893.597055 1324.25314,894.444339 C1321.98085,894.915811 1321.28615,899.316322 1318.94166,900.071423 C1317.34921,900.587159 1315.04162,898.454761 1313.20879,897.729308 C1309.81849,896.390981 1296.71146,888.350947 1293.49255,888.55464 C1286.54465,888.993529 1282.91718,897.331025 1278.78986,899.997581 C1275.9813,901.809203 1269.97656,903.80043 1265.36725,903.796541 C1262.69264,903.795154 1262.48057,903.123489 1259.14149,903.848718 C1252.5669,905.276345 1242.82052,901.663809 1238.55418,895.061871 C1237.53369,893.481096 1235.31767,889.936429 1235.958,888.058624 C1236.03396,887.838523 1237.26217,887.696854 1237.26273,887.477721 C1237.26155,885.631728 1236.29186,881.159596 1236.63988,879.051017 C1236.94188,877.209751 1239.00107,873.519671 1234.21382,873.601994 C1231.72725,873.647282 1229.79031,876.144283 1227.68831,876.507338 C1221.21238,877.62559 1213.70434,871.982619 1212.75818,865.204083 C1212.65593,864.483526 1212.54626,859.62383 1212.73813,858.141292 C1212.92622,856.695363 1214.52086,856.895837 1214.10494,855.355579 C1212.73173,850.287705 1205.88521,846.906927 1202.9325,847.818725 C1198.20179,849.275314 1197.10644,861.49176 1192.43543,854.667159 C1189.99388,851.101822 1193.41053,845.261221 1194.44979,843.978873 C1200.79817,836.12744 1194.00625,829.883883 1184.79422,828.147738 C1182.15541,827.650733 1180.18598,825.256005 1178.86075,825.350061 C1176.63393,825.507897 1175.11057,828.668341 1172.77263,828.060666 C1170.86631,827.565861 1171.0548,824.382675 1168.14117,824.680972 C1168.28404,824.66626 1158.1462,832.381636 1160.34885,827.065243 C1161.28474,824.804369 1166.1938,822.981965 1167.79907,821.573355 C1169.72666,819.876866 1171.05655,817.328802 1172.23776,816.330205 C1173.98548,814.855843 1176.92825,815.329283 1177.05262,813.09907 C1177.12829,811.796338 1173.45644,807.58656 1171.64452,806.802897 C1165.8681,804.307862 1169.10897,796.023734 1162.59633,792.335961 C1161.02724,791.446512 1156.20706,791.48994 1154.22625,792.255428 C1151.19108,793.422819 1147.61761,793.816969 1146.17535,788.223323 C1145.81382,786.810209 1147.69808,783.693987 1147.22981,781.224672 C1146.90457,779.497349 1145.62298,778.647549 1145.61273,777.592638 C1145.60304,776.483916 1146.99817,775.12928 1146.77608,774.354964 C1146.30453,772.699765 1143.16683,770.50618 1142.41003,769.227136 C1140.84173,766.586286 1140.796,763.563269 1138.10606,761.894498 C1134.11747,759.427765 1129.21866,760.251327 1127.73986,756.173517 C1126.95632,754.002911 1129.09956,749.038964 1131.40378,748.01306 C1133.51343,747.076112 1135.05641,749.469765 1136.53186,748.996806 C1137.43701,748.705578 1136.28442,747.148689 1136.59023,746.793653 C1137.40791,745.845139 1139.59983,745.984594 1140.50256,745.051773 C1141.53208,743.987985 1141.17253,737.93091 1138.40485,735.651749 C1137.06325,734.54692 1135.48992,736.162519 1133.04184,735.317476 C1130.4299,734.414985 1123.3137,729.722232 1123.47014,724.348207 C1123.51561,722.742239 1126.15887,720.328938 1127.9107,719.104229 C1129.0194,718.333507 1135.67955,717.598944 1137.2444,715.493469 C1138.34992,714.009309 1135.50445,711.420165 1135.94923,707.910977 C1136.15063,706.349681 1138.19325,705.808157 1137.34938,704.023002 C1136.43923,702.109017 1124.61446,698.141155 1121.48524,695.310434 C1120.12324,694.079635 1111.08305,691.847848 1107.50088,688.480653 C1100.80513,682.182631 1107.55012,682.19966 1110.20018,684.014261 C1110.70264,684.356381 1112.08746,687.216299 1114.19737,687.131475 C1117.78957,686.98978 1123.14833,684.860043 1126.27918,685.014565 C1127.22179,685.062925 1128.29676,686.270166 1128.39289,686.250651 C1132.63008,685.388684 1137.50287,680.168813 1135.79443,674.793804 C1134.8664,671.867889 1131.11429,669.226013 1132.62321,665.326868 C1134.51198,660.457588 1141.67383,661.881733 1143.49472,660.486561 C1146.14859,658.452743 1144.4745,655.053327 1144.40408,650.832797 C1144.34751,647.074137 1146.76363,643.173912 1145.98663,640.336764 C1145.10108,637.105528 1140.45612,635.173199 1140.60815,632.939986 C1140.67491,631.957894 1142.99169,630.910101 1143.04476,630.222842 C1143.15017,628.841666 1140.48026,626.782099 1141.69222,624.840731 C1142.65311,623.302211 1147.91878,622.606375 1149.89218,623.36704 C1150.38965,623.557699 1149.82634,624.912224 1150.26662,625.375168 C1150.84347,625.984548 1159.76913,629.72731 1157.87827,629.60284 C1161.40209,629.838538 1169.46819,621.627493 1169.4786,621.715998 C1169.42084,621.180539 1163.10513,620.234242 1167.0534,616.268918 C1168.58508,614.730076 1168.54941,617.705509 1168.72885,617.6978 C1171.82076,617.599552 1173.88432,601.692099 1173.13288,598.331298 C1172.19369,594.118023 1162.16645,584.925659 1166.05716,582.438961 C1167.01621,581.82801 1169.55379,583.124525 1169.90926,582.901062 C1170.46778,582.547608 1169.25864,581.339562 1169.53582,580.890163 C1172.91805,575.528262 1174.9878,582.9871 1179.03095,586.998964 C1180.73664,588.696133 1185.15515,591.337033 1185.7734,591.613629 C1186.79018,592.06905 1191.0689,592.758016 1191.76982,592.208439 C1193.04749,591.211132 1189.87402,580.897616 1188.74866,577.232936 C1188.00469,574.79556 1186.50261,570.264739 1184.76846,565.949012 C1182.30631,559.812841 1175.18119,553.487111 1180.50366,549.352374 C1183.56414,546.974525 1186.52644,548.268227 1188.7839,552.737492 C1189.44977,554.047711 1188.45594,555.382014 1188.8938,556.495697 Z" id="Path" fill-opacity="0.6" fill="url(#linearGradient-1)"></path>
            <path d="M41.4551683,189.906494 C41.8561726,189.267404 40.6592549,185.822673 41.1717277,184.147705 C42.5175734,179.738722 46.7230558,175.535177 46.7952537,172.110374 C46.8435926,169.748432 45.6460147,168.227417 45.5154485,165.541363 C45.2717042,160.592537 41.4989768,152.170506 43.7748268,148.33539 C44.9819367,146.299693 52.95461,142.728763 56.4853258,142.824939 C58.7428793,142.884382 64.5699597,146.811714 70.2017634,145.237651 C71.3922944,144.909872 72.4864567,143.009294 73.9039999,142.7064 C79.7991867,141.443693 85.2072197,145.626887 88.7187334,139.694651 C93.5464341,131.530975 75.8353908,123.364045 78.0141795,115.223064 C78.8583233,112.061518 79.7506081,114.11651 78.0619463,112.103132 C76.4052723,110.115658 74.8051215,104.836106 73.9059878,103.993021 C71.3121647,101.571312 67.3432062,99.9974917 66.9830302,95.231689 C66.9194397,94.4294321 68.2933741,93.2254806 67.918486,92.0358674 C67.1979524,89.7513391 62.97158,87.7323424 66.415192,83.7065723 C73.8369042,75.0124357 86.808972,96.1257548 89.7182613,101.785682 C91.5228369,105.299758 101.555212,119.473878 109.708731,121.923602 C111.781504,122.546974 112.777208,119.961322 114.790093,119.721182 C118.163673,119.318113 125.291479,123.017045 129.341491,125.184064 C138.251795,129.947672 146.150027,139.157202 155.634351,145.684258 C161.065908,149.419811 169.211193,148.474291 173.27486,147.328045 C174.315149,147.037548 173.401004,146.121433 174.821308,145.41834 C175.972463,144.855766 191.798769,144.928987 191.182491,140.496886 C190.84853,138.092526 194.47925,140.166882 197.923939,137.264745 C199.571465,135.879908 203.543205,133.979478 207.094563,132.053137 C211.091255,129.882076 218.450597,127.447895 222.074009,126.797355 C225.155082,126.245345 226.688372,128.180251 228.378532,127.161356 C230.001534,126.18615 230.080012,122.509416 233.67333,119.60251 C238.473575,115.728412 246.848022,115.337082 248.044394,113.066108 C250.649111,108.114142 235.510352,94.3027642 229.488389,90.1364558 C227.552617,88.7988615 224.972222,88.5625322 222.848872,87.1339133 C218.83575,84.4286231 215.756851,78.8342571 212.661779,77.3018793 C207.906668,74.9460275 200.457897,78.9513515 195.63013,76.9424815 C188.266271,73.8707958 189.550998,65.3034176 197.379484,62.5558707 C199.06266,61.9641916 202.102757,63.6211422 203.296982,63.3978087 C205.096959,63.0630409 210.410799,61.2450233 211.421342,60.4941836 C215.32071,57.6017668 215.912873,49.6977784 221.631007,45.8500277 C221.930365,45.6460437 223.642861,47.0936686 224.011937,46.9867231 C225.235808,46.6352142 225.853117,44.2639426 226.329129,44.125229 C229.155392,43.2992417 234.054588,44.2431922 236.447394,42.8362361 C246.244943,37.0771763 237.680869,20.6189413 250.009506,15.8983542 C251.938155,15.1605113 255.250886,16.6290375 257.589222,15.7122982 C259.786325,14.8435178 261.766571,11.874879 264.102917,10.7164195 C267.692828,8.94304379 271.008144,10.0551914 274.273213,6.31094827 C276.095386,4.22208427 278.666108,-1.52508202 282.944349,0.691480841 C284.527223,1.50995839 284.085236,5.38269161 285.000338,6.30634495 C287.481869,8.82312042 296.147716,8.97888784 298.603617,7.84284235 C301.468247,6.52036184 303.937583,1.22542105 307.55406,0.866865079 C307.542701,0.867811837 312.543268,2.54992276 312.695374,2.66295004 C316.339251,5.35330436 317.87664,13.3483547 321.45131,15.282631 C322.630391,15.9195413 324.810005,14.8979447 325.488541,15.389921 C329.548175,18.3560761 335.056763,27.4905076 337.342465,31.3130291 C344.05178,42.5357884 347.788826,56.1470611 343.533017,69.508383 C342.20272,73.6932299 343.12292,80.7150371 341.398291,84.3708882 C339.099019,89.2421627 333.302126,93.6450068 330.578112,97.732697 C329.707031,99.0394885 330.276375,101.188058 329.366657,102.280944 C329.551203,102.061769 327.102981,101.043054 326.987859,101.145975 C326.21913,101.842378 326.99637,105.085915 325.503016,107.052143 C322.596873,110.880748 297.356884,120.147649 296.495552,121.486006 C295.009057,123.792588 297.743514,124.187493 298.274366,128.459107 C299.084522,134.97584 291.362007,143.169373 299.460639,148.381554 C301.450295,149.661328 307.546741,146.397238 308.481565,152.524561 C309.127405,156.767546 302.826993,160.414322 301.197952,165.591613 C298.580621,173.925322 309.364648,186.861648 319.366453,188.995432 C322.510747,189.664726 339.721079,187.784641 343.041883,192.360826 C345.852855,196.236704 342.731955,197.771005 340.729781,202.345158 C340.369984,203.173179 340.82366,205.887537 340.017336,207.297494 C339.704251,207.845453 337.645402,209.079825 337.590292,209.278688 C335.56537,216.235506 339.968498,223.368901 347.561817,224.465422 C352.865259,225.232834 358.300763,218.616473 364.144834,221.306294 C367.752726,222.959727 374.255157,231.07616 372.127895,234.876037 C371.641531,235.746985 367.894428,238.181032 366.386598,238.918084 C358.144498,242.943818 353.721818,242.226798 351.415072,251.288849 C350.535138,254.756213 347.831669,259.668794 348.445864,263.104954 C349.159525,267.098495 353.480646,270.888506 354.435977,275.067603 C356.017114,282.005755 351.244677,292.141816 363.473222,293.444346 C366.055094,293.722454 371.84588,292.270368 374.413783,288.083317 C375.57423,286.192451 374.885455,282.394916 377.333091,279.385418 C377.962073,278.61305 383.543106,275.749985 383.576009,275.752956 C394.170525,276.557439 391.096568,290.848751 393.723256,295.819905 C396.410217,300.904122 406.306615,304.694184 409.280592,309.20595 C409.991653,310.285647 408.751177,311.124216 409.61441,311.850304 C417.21265,318.229818 422.954961,313.035394 432.839077,311.695445 C434.495773,311.46785 438.954924,313.059858 441.40876,312.314431 C448.333775,310.211664 456.085437,305.819218 460.160926,315.646382 C463.702586,324.192425 450.385774,330.608581 449.187262,338.363122 C448.784942,340.965979 451.724629,349.788844 452.135552,351.021164 C452.522236,352.18313 454.80223,357.015573 455.185295,357.440754 C459.317446,362.017884 474.041461,362.90292 474.167693,369.653784 C474.223949,372.688862 470.612664,375.439182 469.593739,379.379047 C468.634146,383.093031 467.974061,390.657945 469.724652,394.500306 C472.9431,401.570546 492.494001,410.003147 487.394143,417.500035 C487.158887,417.847237 484.24787,419.000263 484.079411,419.557119 C483.42699,421.697049 486.210258,420.758464 485.684157,421.647961 C483.531136,425.305234 477.46388,427.081292 476.687601,431.741828 C476.33244,433.87222 480.985858,439.375354 478.250847,444.069628 C475.77486,448.317585 466.094286,452.571772 465.39065,458.934694 C464.653095,465.58804 474.626139,469.348859 470.55468,474.969696 C466.80779,480.133038 458.30316,476.228883 453.307941,479.968767 C450.746373,481.884988 448.168571,486.446169 447.959457,490.646133 C447.748513,494.891961 451.630618,496.987266 451.953533,500.992424 C452.51259,507.867201 446.668353,506.773462 445.549211,506.864833 C443.040911,507.075793 441.479025,505.17184 437.524649,503.532048 C433.737223,501.95643 426.843402,500.763516 424.035008,502.875535 C416.527663,508.514187 424.987866,524.65158 413.562008,525.994322 C411.055009,526.290881 410.678667,523.703402 408.30327,523.318568 C397.858776,521.631172 392.451885,527.885176 385.424607,533.236217 C377.652327,539.154073 370.663637,523.575888 363.127476,523.08027 C361.369956,522.96582 355.449565,524.316335 353.619726,525.65161 C350.309981,528.064441 346.418459,538.70418 342.304324,538.609014 C337.139295,538.494776 336.504537,528.386557 334.432768,525.917528 C330.354904,521.059705 326.626101,522.176136 322.535689,520.23342 C321.831337,519.899774 319.892028,517.027354 319.434393,516.934078 C315.028261,516.030931 296.728147,528.134399 292.509623,519.621915 C291.416184,517.414177 295.345388,513.159378 290.894345,510.410593 C288.231544,508.771716 286.214353,509.836914 282.544364,511.552207 C278.426386,513.476253 274.78979,512.289938 273.809011,513.169716 C272.527085,514.329811 275.878576,513.52671 275.802916,514.784348 C275.37665,521.990753 254.302041,518.570484 258.263859,506.902108 C258.715514,505.576944 260.231514,505.100143 260.968077,503.562677 C263.351223,498.583467 263.142618,490.626229 263.990492,488.624282 C265.468253,485.133757 268.81159,483.739 267.902378,480.73692 C267.681712,479.993466 265.336899,478.101437 265.299613,477.837898 C265.02805,475.71403 265.480477,469.286338 266.115165,466.645067 C266.310969,465.836427 268.036282,465.079344 268.046986,464.259467 C268.145583,457.666994 262.594332,446.086783 253.588642,445.43938 C248.128326,445.048824 241.842649,448.223932 235.621538,448.275803 C230.001821,448.317548 222.929707,445.871021 216.984664,445.821794 C206.557762,445.734714 205.13202,449.017109 198.642241,456.250822 C195.306362,459.96478 188.705942,461.112945 182.105815,456.29583 C180.996074,455.481725 182.189081,454.374752 181.274641,453.245345 C179.99842,451.677555 176.211257,451.83702 173.750743,450.314607 C165.807559,445.407541 165.240637,440.038065 157.033984,438.36033 C154.297403,437.797997 150.190575,439.568744 147.304399,439.169344 C146.618837,439.074113 145.993142,437.596856 145.310494,437.554711 C139.829197,437.224947 133.304116,441.000916 126.786082,435.986498 C126.616438,435.855886 125.616334,433.192785 125.063433,433.012218 C124.403033,432.798708 117.530547,432.316343 115.110838,432.064716 C106.458867,431.159279 95.1258329,432.705696 89.5483956,420.843879 C87.1449416,415.732224 89.6485834,411.114372 88.258538,407.158158 C86.0137864,400.764802 77.1763736,390.848847 69.2639546,387.826691 C63.3942266,385.582784 53.5129533,390.185101 46.1550582,388.86326 C37.718815,387.351316 36.9528899,371.719217 37.3291175,365.128364 C37.4446816,363.115077 39.0063114,362.259264 38.5379613,360.574622 C38.2094681,359.38876 35.4312439,358.664196 34.4407792,356.468827 C33.3372992,354.016231 35.3258232,350.871677 34.4323807,349.350074 C33.5778441,347.893794 31.4804992,348.674266 30.1711831,347.478731 C27.8144139,345.326766 28.3452525,341.008566 27.1713397,337.940935 C26.5710676,336.362519 24.5180244,335.457524 23.959714,333.757524 C22.1257753,328.173673 23.6838302,323.009917 17.8002768,316.919839 C14.6960172,313.702642 10.052566,314.396297 8.22204362,308.372195 C6.29974704,302.047194 8.43002329,292.710349 4.54072446,286.429299 C3.73871178,285.130534 1.29453649,284.128623 0.940419136,282.725867 C-0.610592825,276.52229 7.36383064,275.4215 11.3752268,269.839952 C13.288912,267.175886 15.7621143,259.364626 15.6158409,257.474106 C15.5221511,256.299149 11.4846117,251.849361 11.1810539,250.724274 C10.107074,246.665533 12.1487536,250.314122 8.57828866,247.825252 C7.05235442,246.762047 2.01751627,240.138411 2.81379707,237.624613 C3.22432113,236.337161 5.55256498,235.310795 5.90504061,233.807245 C6.50220818,231.247191 6.53966219,226.31302 6.82878997,223.496756 C6.92297192,222.626116 5.48487358,221.410839 5.61320158,220.929704 C5.79402776,220.244208 8.35345668,219.350943 8.42940309,218.4723 C8.54911561,217.064334 6.54213372,217.637291 6.32351466,215.975641 C6.05251401,213.916483 9.75869298,203.775964 11.3365262,202.655963 C13.3390234,201.233922 20.0412986,204.263612 23.7237378,201.621639 C26.7065279,199.481753 30.2974979,198.304434 30.8505577,197.913603 C31.2031025,197.66138 30.204223,193.998254 33.5048762,197.692378 C31.1706524,191.980712 39.7609643,192.626548 41.4551683,189.906494 Z" id="Path" fill-opacity="0.6" fill="url(#linearGradient-2)"></path>
        </g>
    </g>
</svg>