<?xml version="1.0" encoding="utf-8"?>
<!-- Generator: Adobe Illustrator 22.0.1, SVG Export Plug-In . SVG Version: 6.00 Build 0)  -->
<svg version="1.1" id="Layer_1" xmlns="http://www.w3.org/2000/svg" xmlns:xlink="http://www.w3.org/1999/xlink" x="0px" y="0px"
	 viewBox="0 0 1388 360" style="enable-background:new 0 0 1388 360;" xml:space="preserve">
<style type="text/css">
	.st0{fill:#2793E0;}
	.st1{fill:url(#SVGID_1_);}
	.st2{fill:url(#SVGID_2_);}
</style>
<title>hero-summer programs 2</title>
<path id="Path" class="st0" d="M567.8,14c3.1,0.6,4.6-3,6.3-3.5c1.2,1.8,1.8,2.8,3.4,3.1c2.3,0.5,3.4-0.9,5.2-2.1
	c0.1,3.2,2.9,5.4,6.7,6.2c2,0.3,4.1-0.1,5.8-1.2c0.6,0.9-0.4,13.5,5.7,14.8c1.5,0.3,2.5-0.3,4,0c-0.8,3.8-4,4-4.7,7
	c-0.8,3.8,2.7,6.2,1.8,10.8s-6.3,3.5-7.4,8.9c-0.8,3.8,2.1,5.2,1.8,6.8c-0.2,0.8-0.2,0.8-0.9,0.6c-1.5-0.3-2.6-2.9-5.7-3.6
	c-0.8-0.2-6,2-7.1,7.3c-2.3-0.5-3.5-2.3-5.8-2.8c-3.8-0.8-2.6,1-5.4,2.9c-1.1-1.8-2.8-3-4.9-3.4c-1.6-0.5-3.2-0.5-4.8-0.2
	c-1.2-1.9-1.5-4.3-3.8-4.8c-0.8-0.2-1.7,0.5-2.5,0.3s-8.2-18.5-10.2-20.5c0.6-3.1,3.6-5.7,4.2-8.7c0.5-2.3-0.7-4.2-1-6.6
	C561.8,24,553.2,11,567.8,14"/>
<path id="Path-2" class="st0" d="M776.3,64.3c0.8,0.2,1.2-0.8,1.7-0.9c0.3,0.5,0.5,0.7,0.9,0.8c0.6,0.1,0.9-0.2,1.4-0.6
	c0,0.9,0.8,1.4,1.8,1.6c0.5,0.1,1.1,0,1.5-0.3c0.2,0.2-0.1,3.6,1.5,3.9c0.4,0.1,0.7-0.1,1.1,0c-0.2,1-1.1,1-1.2,1.9
	c-0.2,1,0.7,1.6,0.5,2.8s-1.7,0.9-2,2.4c-0.2,1,0.6,1.4,0.5,1.8c0,0.2,0,0.2-0.2,0.2c-0.4-0.1-0.7-0.8-1.5-0.9c-0.9,0.2-1.7,1-1.9,2
	c-0.6-0.1-0.9-0.6-1.5-0.7c-1-0.2-0.7,0.3-1.4,0.8c-0.3-0.5-0.8-0.8-1.3-0.9c-0.4-0.1-0.8-0.1-1.3,0c-0.3-0.5-0.4-1.2-1-1.3
	c-0.2,0-0.5,0.1-0.7,0.1s-2.2-4.9-2.7-5.4c0.2-0.8,1-1.5,1.1-2.3c0.1-0.6-0.2-1.1-0.3-1.8C774.7,67.1,772.5,63.6,776.3,64.3"/>
<path id="Path-3" class="st0" d="M95.3,246.9c0.7-0.7,1.4-0.7,2.9-0.7c0.2-1.1-1.6-3.4-0.2-4.9c6.2-6.9-4.3-7.2-1.2-14.9
	c-1.6-0.8-3.1-0.8-4.4-2c-1.7-1.5-2.4-4.2-4.1-5.7c-1.8,0.3-15.4-2.6-15.7-2.2c0,0,0,0.1,0,0.1c-0.6-3.6-1-7.4-1.2-7.8
	s-0.7-0.9-1.1-0.6c0,0,0.2,6.6,1.6,10c-1,0.8-2.5,0.1-3.9,0.1c-0.2,0.9-0.7,1.8-1.4,2.5c0.1-0.3,0.1-0.5,0.1-0.8
	c-0.6-0.5-1.5-0.7-2.3-0.6c-0.8,0.5-0.2,1.4,0.2,1.9c0.2,0.2,0.5,0.4,0.8,0.5c-0.8,0.4-1.6,0.6-2.5,0.6c0.3,2.2,1.8,2.3,0.2,4.1
	c-1,1.1-2.5,1.1-3.5,2.2c3,2.7,2.7,6.4,2.4,6.8c-1.3,1.5-3.2,1-3.9,1.8c-0.3,0.4-0.3,0.4,0.1,0.7c0.9,0.8,2.6-0.3,4.7,1.6
	c3,2.7,0.7,5.2,3.2,7.5s5,1.2,7.2,3.1c1.7,1.5,0.8,3.4,2.9,5.3c0.7-0.7,0.6-1.5,1.2-2.2c2.6-2.9,10.1,2.5,10.9,2.5
	c-0.2-1.3,0.2-2.7,1-3.7c1.7-1.8,3.8-2.5,5.8-1.3C94.9,249,94.3,247.9,95.3,246.9L95.3,246.9z"/>
<path id="Path-4" class="st0" d="M870.8,185.8c-1.7,0-2.5-0.7-4.1-2.1c-1.7,0.7-2.5,4.3-5.8,4.3c-15.6,0-4.1,10-17.2,13.7
	c0.8,2.2,2.5,3.6,2.5,5.8c0,2.9-2.5,5.7-2.5,8.6c2.5,1.4,14,16.5,14.8,16.5h0.1c-3.7,3.6-8.1,7.1-8.3,7.7c-0.2,0.7-0.4,1.4,0.4,1.6
	c0,0,8-5.7,10.7-9.9c2.1,0.3,2.9,2.2,4.4,3.6c1.5-0.6,3.1-0.8,4.7-0.7c-0.4,0.2-0.8,0.4-1.2,0.6c-0.2,0.7,1,2.4,1.8,2.6
	c1.6,0.3,2-1.1,2.2-1.8c0.1-0.4,0-0.8-0.3-1.1c1.3,0.3,2.5,1,3.5,1.9c2.5-2.1,0.8-3.6,4.9-3.6c2.5,0,4.1,1.4,6.6,1.4
	c0-5,4.9-7.9,5.8-7.9c3.3,0,4.9,2.1,6.6,2.1c0.8,0,0.8,0,0.8-0.7c0-1.5-3.3-2.2-3.3-5.8c0-5,5.7-5,5.7-9.4s-4.1-5.7-4.1-9.3
	c0-2.9,3.3-3.6,3.3-7.2c-1.6,0-2.5,0.7-4.1,0.7c-6.6,0-8.2-11.5-9-12.2c-1.6,1.3-3.6,2.1-5.8,2.2c-4.1,0-7.4-1.5-8.2-4.3
	C874.1,184.4,873.2,185.8,870.8,185.8L870.8,185.8z"/>
<path id="Path-5" class="st0" d="M1080.2,87.3c0.2,0,0.3,0.1,0.3,0.2c0.3,0,0.5-0.2,0.5-0.4c0.1-0.4,0-0.6,0-0.8
	c0.2-0.4,0.5-0.8,0.9-1.1c0.9,0.1,1.4,1,2,1.1c0.1,0,0.1-0.1,0.1-0.2c-0.9-0.3-1.4-1.1-1.4-2c0.2-1.4,1.8-2.1,2.4-3.2l1.2,0.2
	c-0.4,0.3-0.7,0.6-1,1c0,0,0,0.1,0,0.1c0.4-0.4,0.8-0.8,1.2-1.1h0.2l-0.1-0.1c0.1-0.1,0.2-0.1,0.2-0.2c0-0.1,0.1-0.2,0-0.2
	s-0.2,0.1-0.4,0.3c-0.5-0.2-0.9-0.3-1.4-0.4c-0.2,0-0.3,0-0.5,0c-0.4-0.1-0.4-0.7-0.4-1.2c0.2-1.4,1.2-0.2,1.4-1.1
	c0-0.3-0.9-0.3-1.2-1c0.1,0,0.2-0.2,0.2-0.2s0-0.1-0.1-0.2c-0.1,0-0.1,0-0.2,0l0,0l1.1-0.4c0.1,0,0.1-0.1,0.1-0.1
	c0-0.3-0.2-0.6-0.4-0.7c-0.3,0-0.5,0.2-0.6,0.2c-0.4-0.1-0.5-0.6-0.5-0.9c0.4-0.1,0.8-0.5,0.9-0.9c0-0.1,0-0.2-0.2-0.2
	c-0.2,0-0.4,0-0.6,0.1c-0.6-0.1-1.1-0.5-1-1.2c0-0.3,1.2-1.2,1.2-1.2h-1.2c0-0.2-0.1-0.3-0.3-0.4c-0.3,0-0.5,0.1-0.6,0.4l0,0
	c-0.4-0.3-0.8-0.6-1.2-0.9c0.1-0.9,0.9-1.4,0.9-1.8c0-0.1,0-0.2-0.2-0.2c-0.6-0.1-0.9,1.4-1.6,1.3c-0.3,0-0.5-0.3-0.5-0.6
	c0,0,0,0,0,0c0-0.1,0.1-0.2,0.1-0.2l0,0c0.2,0,0.2,0,0.2-0.1c0.1-0.3-0.7-0.6-0.7-0.7c0,0.1,0,0.1,0,0.2c-0.2,0.1-0.5,0.4-0.8,0.4
	c-0.8-0.1-0.7-0.8-0.6-1.6c-0.1,0.3-0.4,0.6-0.6,0.5c-0.4-0.1-0.6-0.6-1-0.7s-0.3,1-1.9,0.7c-0.4-0.1-0.3-0.8-0.3-1
	c-1.1,0-0.8,1.7-2.3,1.5c-0.2,0-0.4-0.3-0.6-0.3s-0.4,0.2-0.5,0.6h-0.1v0.1c-0.2,0.4-0.5,0.9-1,0.8c-0.2,0-0.3-0.3-0.5-0.4
	c-0.1,0.1-0.2,0.1-0.3,0.2c0-0.2-0.1-0.3-0.3-0.4c-0.2-0.1-0.2-0.1-0.4-0.1c-0.1,0.2-0.1,0.4,0,0.6c-0.2,0-0.5,0.1-0.7,0.6
	c-0.2-0.1-0.3-0.1-0.4,0.2c0,0.1,0,0.3,0.2,0.4h0.1c0,0.2-0.1,0.3-0.1,0.6c-0.5-0.1-0.9-0.2-1.4-0.4c0.2-0.2,0.5-0.4,0.7-0.6
	c0-0.1,0.1-0.2,0-0.2s-1.3,0.9-1.5,1.4c0,0,0,0.1,0,0.1c0.1-0.1,0.3-0.3,0.5-0.4c0,0.5,0.6,0.8,1,1.2c-0.6,0.8-1.2,1.4-2,2
	c-0.1,0-0.2-0.1-0.3-0.1c-0.2,0-0.4,0.1-0.4,0.2c0,0,0,0,0,0c0.1,0.5,0.2,0.9,0.4,1.3c-0.3,0.2-1.1,1.6-1.8,1.5l-1.5-0.2
	c0.3,0.2,1.5,0.4,1.5,0.7c0,0.2-0.1,0.3-0.2,0.5c0,0.2,0,0.3,0.1,0.4c0.2-0.1,0.4-0.1,0.7-0.1c0.3,0,0.5,0.2,0.6,0.5
	c0,0-0.1,0.1-0.1,0.1c0,0,0,0.1,0,0.1c0,0,0.1,0,0.1,0c0,0,0,0.1,0,0.2c-0.1,0.9-0.8,1.2-1,2.1c0,0.2,0,0.3,0,0.5
	c-0.1,0.4-0.5,0.2-0.6,0.7c0,0.3,0.3,0.6,0.3,0.7V83c0.5,0,0.9,0,1.4,0.1c0.6,0.8,0.9,3.2,1.6,4c0.4,0.1,0.5-0.4,0.8-0.4
	c0.8,0.3,0.9,0.7,0.8,1.1c0,0.2-0.2,0.4-0.2,0.6s0,0.3,0.3,0.4c0.4-0.2,0.5-0.6,1-0.5c1.4,0.2,0.4,1.6,1,1.7
	c0.3,0.1,0.7-0.5,1.3-0.7c-0.1,0.1-0.2,0.2-0.2,0.3c-0.1,0.3,0.1,0.5,0.4,0.6c0.3,0.1,0.6-0.1,0.7-0.3c0.1-0.3,0.1-0.4,0-0.4
	c-0.1-0.1-0.2-0.1-0.4-0.1h0.2c1.5,0.2,0.3,1.4,1.2,1.5c0.6,0.1,0.3-1,1-1.1c0,0.1,0.1,0.2,0.2,0.2c0.1,0,0.2-0.1,0.2-0.2
	c0.6,0.2,1,0.8,1.2,0.8s0.7-0.6,0.7-1c0.4,0.1,0.6,0.7,1,0.8c0.1,0,0.2-0.1,0.2-0.3c0-0.3-0.1-0.4-0.1-0.8c0.4-0.6,1.1-0.9,1.8-0.9
	c0.1,0,0.2,0.2,0.3,0.6c0,0.2,0.1,0.5,0.4,0.6c0.2-0.1,0.3-0.2,0.3-0.3c0.1-0.4-0.2-0.9-0.2-1.2c0.1-0.4,0.5-0.6,0.8-0.7
	L1080.2,87.3z"/>
<path id="Path-Copy" class="st0" d="M1356.5,143c-0.1,0-0.1-0.1-0.1-0.1c-0.1,0-0.2,0-0.3,0.1c-0.1,0.1-0.1,0.2-0.2,0.3
	c-0.1,0.1-0.3,0.2-0.5,0.3c-0.3-0.2-0.3-0.6-0.5-0.8c0,0-0.1,0-0.1,0.1c0.3,0.3,0.3,0.7,0.2,1c-0.3,0.5-1,0.5-1.4,0.9l-0.4-0.3
	c0.2,0,0.4-0.1,0.5-0.2c0,0,0,0,0-0.1c-0.2,0.1-0.4,0.2-0.7,0.2h-0.1l0,0h-0.1c0,0-0.1,0.1,0,0.1l0.2-0.1c0.1,0.1,0.3,0.3,0.4,0.4
	c0.1,0,0.1,0,0.2,0.1c0.2,0.1,0,0.3-0.1,0.5c-0.3,0.5-0.5-0.1-0.7,0.2c-0.1,0.1,0.3,0.3,0.3,0.6c0,0-0.1,0-0.1,0.1s0,0.1,0,0.1
	c0,0,0,0,0.1,0h-0.5h-0.1c-0.1,0.1-0.1,0.2,0,0.3c0.1,0.1,0.2,0,0.3,0s0.1,0.3,0,0.4c-0.2,0-0.4,0-0.5,0.2c0,0,0,0.1,0,0.1
	c0.1,0,0.2,0,0.2,0c0.2,0.1,0.3,0.4,0.2,0.6c0,0,0,0,0,0.1c-0.1,0.1-0.7,0.2-0.7,0.2l0.5,0.2l0,0c0,0.1,0,0.2,0.1,0.2
	c0.1,0,0.2,0,0.2-0.1l0,0c0.1,0.2,0.2,0.4,0.3,0.6c-0.2,0.3-0.6,0.4-0.7,0.6c0,0,0,0.1,0,0.1c0.2,0.1,0.6-0.4,0.8-0.2
	c0.1,0.1,0.1,0.2,0.1,0.3c0,0-0.1,0-0.1,0.1l0,0c-0.1,0-0.1,0-0.1,0s0.1,0.3,0.2,0.4c0,0,0-0.1,0-0.1c0.1,0,0.3-0.1,0.4,0
	c0.3,0.2,0.1,0.4-0.1,0.7c0.1-0.1,0.2-0.2,0.3-0.1s0.1,0.3,0.3,0.4s0.3-0.3,0.8,0c0.1,0.1,0,0.4-0.1,0.4c0.4,0.2,0.6-0.5,1.1-0.2
	c0.1,0,0.1,0.2,0.2,0.2s0.2,0,0.3-0.1l0,0l0,0c0.2-0.1,0.3-0.3,0.5-0.2s0.1,0.1,0.1,0.2h0.1c0,0.1,0,0.1,0,0.2
	c0,0.1,0.1,0.1,0.1,0.1c0.1-0.1,0.1-0.1,0.1-0.2c0.1,0,0.3,0,0.3-0.1c0.1,0.1,0.1,0.1,0.2,0c0-0.1,0-0.1,0-0.2l0,0l0.1-0.2
	c0.2,0.1,0.3,0.2,0.4,0.4c-0.1,0-0.2,0.1-0.4,0.1c0,0-0.1,0.1,0,0.1c0.3,0,0.6-0.1,0.8-0.3c0,0,0,0,0-0.1l-0.2,0.1
	c0.1-0.2-0.1-0.4-0.2-0.6c0.3-0.2,0.7-0.3,1.1-0.4c0,0,0,0.1,0.1,0.1c0,0.1,0.1,0.1,0.2,0c0,0,0,0,0,0c0.1-0.2,0.1-0.4,0.1-0.6
	c0.1,0,0.7-0.4,0.9-0.3l0.5,0.3c-0.1-0.1-0.5-0.4-0.4-0.5c0-0.1,0.1-0.1,0.2-0.2c0-0.1,0-0.1,0-0.2c-0.1,0-0.2,0-0.3-0.1
	c-0.1-0.1-0.2-0.2-0.2-0.3l0,0 M1361,148.9L1361,148.9L1361,148.9c0.2-0.4,0.5-0.4,0.7-0.7c0-0.1,0.1-0.1,0.1-0.2
	c0.1-0.1,0.2,0,0.3-0.2s0-0.3,0-0.3l0,0c-0.2-0.1-0.3-0.2-0.5-0.3c-0.1-0.4,0.2-1.4,0.1-1.8c-0.1-0.1-0.3,0.1-0.4,0
	c-0.2-0.2-0.2-0.4-0.1-0.6s0.1-0.1,0.2-0.2s0-0.1-0.1-0.2s-0.3,0.1-0.4,0c-0.5-0.3,0.1-0.7-0.1-0.8s-0.3,0.1-0.6,0.1
	c0.1,0,0.1,0,0.1-0.1c0.1-0.1,0-0.2,0-0.3c-0.1-0.1-0.2-0.1-0.3,0c-0.1,0.1-0.1,0.1-0.1,0.2l0.1,0.1h-0.1c-0.5-0.3,0.1-0.6-0.2-0.8
	s-0.3,0.3-0.6,0.3c0,0,0-0.1,0-0.1c0,0-0.1,0-0.1,0c-0.2-0.1-0.2-0.5-0.3-0.5s-0.3,0.1-0.4,0.3c-0.2-0.1-0.1-0.4-0.2-0.5
	c-0.1,0-0.1,0-0.1,0.1c-0.1,0.1,0,0.2-0.1,0.3c-0.3,0.2-0.6,0.2-0.8,0.1c0,0,0-0.1,0-0.3c0.1-0.1,0.1-0.2,0-0.3c-0.1,0-0.1,0-0.2,0
	s-0.1,0.4-0.1,0.5c-0.1,0.1-0.3,0.2-0.4,0.1L1361,148.9z"/>
<path id="Path-Copy-2" class="st0" d="M1193.4,149c-0.1,0-0.1-0.1-0.1-0.1c-0.1,0-0.2,0-0.3,0.1c-0.1,0.1-0.1,0.2-0.2,0.3
	c-0.1,0.1-0.3,0.2-0.5,0.3c-0.3-0.2-0.3-0.6-0.5-0.8c0,0-0.1,0-0.1,0.1c0.3,0.3,0.3,0.7,0.2,1c-0.3,0.5-1,0.5-1.4,0.9l-0.4-0.3
	c0.2,0,0.4-0.1,0.5-0.2c0,0,0,0,0-0.1c-0.2,0.1-0.4,0.2-0.7,0.2h-0.1l0,0h-0.1c0,0-0.1,0.1,0,0.1l0.2-0.1c0.1,0.1,0.3,0.3,0.4,0.4
	c0.1,0,0.1,0,0.2,0.1c0.2,0.1,0,0.3-0.1,0.5c-0.3,0.5-0.5-0.1-0.7,0.2c-0.1,0.1,0.3,0.3,0.3,0.6c0,0-0.1,0-0.1,0.1s0,0.1,0,0.1
	c0,0,0,0,0.1,0h-0.5h-0.1c-0.1,0.1-0.1,0.2,0,0.3c0.1,0.1,0.2,0,0.3,0s0.1,0.3,0,0.4c-0.2,0-0.4,0-0.5,0.2c0,0,0,0.1,0,0.1
	c0.1,0,0.2,0,0.2,0c0.2,0.1,0.3,0.4,0.2,0.6c0,0,0,0,0,0.1c-0.1,0.1-0.7,0.2-0.7,0.2l0.5,0.2l0,0c0,0.1,0,0.2,0.1,0.2
	c0.1,0,0.2,0,0.2-0.1l0,0c0.1,0.2,0.2,0.4,0.3,0.6c-0.2,0.3-0.6,0.4-0.7,0.6c0,0,0,0.1,0,0.1c0.2,0.1,0.6-0.4,0.8-0.2
	c0.1,0.1,0.1,0.2,0.1,0.3c0,0-0.1,0-0.1,0.1l0,0c-0.1,0-0.1,0-0.1,0s0.1,0.3,0.2,0.4c0,0,0-0.1,0-0.1c0.1,0,0.3-0.1,0.4,0
	c0.3,0.2,0.1,0.4-0.1,0.7c0.1-0.1,0.2-0.2,0.3-0.1s0.1,0.3,0.3,0.4s0.3-0.3,0.8,0c0.1,0.1,0,0.4-0.1,0.4c0.4,0.2,0.6-0.5,1.1-0.2
	c0.1,0,0.1,0.2,0.2,0.2s0.2,0,0.3-0.1l0,0l0,0c0.2-0.1,0.3-0.3,0.5-0.2s0.1,0.1,0.1,0.2h0.1c0,0.1,0,0.1,0,0.2
	c0,0.1,0.1,0.1,0.1,0.1c0.1-0.1,0.1-0.1,0.1-0.2c0.1,0,0.3,0,0.3-0.1c0.1,0.1,0.1,0.1,0.2,0c0-0.1,0-0.1,0-0.2l0,0l0.1-0.2
	c0.2,0.1,0.3,0.2,0.4,0.4c-0.1,0-0.2,0.1-0.4,0.1c0,0-0.1,0.1,0,0.1c0.3,0,0.6-0.1,0.8-0.3c0,0,0,0,0-0.1l-0.2,0.1
	c0.1-0.2-0.1-0.4-0.2-0.6c0.3-0.2,0.7-0.3,1.1-0.4c0,0,0,0.1,0.1,0.1c0,0.1,0.1,0.1,0.2,0c0,0,0,0,0,0c0.1-0.2,0.1-0.4,0.1-0.6
	c0.1,0,0.7-0.4,0.9-0.3l0.5,0.3c-0.1-0.1-0.5-0.4-0.4-0.5c0-0.1,0.1-0.1,0.2-0.2c0-0.1,0-0.1,0-0.2c-0.1,0-0.2,0-0.3-0.1
	c-0.1-0.1-0.2-0.2-0.2-0.3l0,0 M1197.9,154.9L1197.9,154.9L1197.9,154.9c0.2-0.4,0.5-0.4,0.7-0.7c0-0.1,0.1-0.1,0.1-0.2
	c0.1-0.1,0.2,0,0.3-0.2s0-0.3,0-0.3l0,0c-0.2-0.1-0.3-0.2-0.5-0.3c-0.1-0.4,0.2-1.4,0.1-1.8c-0.1-0.1-0.3,0.1-0.4,0
	c-0.2-0.2-0.2-0.4-0.1-0.6s0.1-0.1,0.2-0.2s0-0.1-0.1-0.2s-0.3,0.1-0.4,0c-0.5-0.3,0.1-0.7-0.1-0.8s-0.3,0.1-0.6,0.1
	c0.1,0,0.1,0,0.1-0.1c0.1-0.1,0-0.2,0-0.3c-0.1-0.1-0.2-0.1-0.3,0c-0.1,0.1-0.1,0.1-0.1,0.2l0.1,0.1h-0.1c-0.5-0.3,0.1-0.6-0.2-0.8
	s-0.3,0.3-0.6,0.3c0,0,0-0.1,0-0.1c0,0-0.1,0-0.1,0c-0.2-0.1-0.2-0.5-0.3-0.5s-0.3,0.1-0.4,0.3c-0.2-0.1-0.1-0.4-0.2-0.5
	c-0.1,0-0.1,0-0.1,0.1c-0.1,0.1,0,0.2-0.1,0.3c-0.3,0.2-0.6,0.2-0.8,0.1c0,0,0-0.1,0-0.3c0.1-0.1,0.1-0.2,0-0.3c-0.1,0-0.1,0-0.2,0
	s-0.1,0.4-0.1,0.5c-0.1,0.1-0.3,0.2-0.4,0.1L1197.9,154.9z"/>
<path id="Path-Copy-3" class="st0" d="M475.8,208.5c-0.2,0.2-0.3,0.5-0.2,0.8c0.2,0.4,0.4,0.6,0.5,0.8c0.1,0.5,0.1,1.1-0.1,1.6
	c-0.9,0.5-2-0.1-2.5,0.2c0,0.1,0,0.2,0,0.3c1-0.3,2,0.1,2.5,1c0.8,1.5-0.2,3.2,0.1,4.6l-1.2,0.6c0.2-0.5,0.2-1.1,0.2-1.6
	c0,0,0-0.1-0.1-0.1c-0.1,0.6-0.2,1.2-0.4,1.9l-0.1,0.1h0.1c0,0.1-0.1,0.2-0.1,0.4c0,0.1,0.1,0.2,0.2,0.2s0.1-0.3,0.2-0.6
	c0.5-0.1,1.1-0.3,1.5-0.5c0.1,0,0.2-0.2,0.4-0.3c0.5-0.2,0.9,0.4,1.1,0.9c0.8,1.5-1,1-0.5,2c0.1,0.3,1-0.3,1.8,0.1
	c-0.1,0,0,0.2,0,0.4s0.1,0.1,0.2,0.1c0.1,0,0.1-0.1,0.1-0.1l-0.7,1.2v0.1c0.2,0.3,0.5,0.4,0.9,0.4c0.3-0.1,0.3-0.6,0.4-0.6
	c0.5-0.2,0.8,0.2,1.1,0.5c-0.3,0.4-0.4,0.9-0.2,1.3c0,0.1,0.1,0.2,0.3,0.1c0.2-0.1,0.3-0.3,0.4-0.5c0.5-0.4,1.3-0.2,1.6,0.3
	c0,0.1,0.1,0.1,0.1,0.2c0,0.6-0.1,1.3-0.3,1.9l1.2-0.9c0.1,0.1,0.3,0.2,0.5,0.2c0.2,0,0.4-0.4,0.3-0.8c0.6,0,1.2,0,1.7,0.1
	c0.5,1,0.2,1.9,0.4,2.3c0.1,0.1,0.2,0.2,0.3,0.1c0.6-0.3-0.2-1.9,0.5-2.3c0.3-0.2,0.7-0.1,0.8,0.2c0,0,0,0,0,0c0,0.1,0,0.2,0.1,0.3
	c-0.2,0.2-0.2,0.2-0.2,0.3c0.1,0.3,1,0.2,1.1,0.1c-0.1,0-0.1-0.1-0.2-0.2c0.1-0.3,0.1-0.7,0.5-0.9c0.8-0.4,1.2,0.3,1.6,1.2
	c-0.1-0.4,0-0.8,0.2-0.9c0.5-0.2,1,0.2,1.4,0s-0.4-1.1,1.2-1.9c0.4-0.2,0.8,0.5,0.9,0.7c1-0.8-0.4-2.2,1-2.9c0.2-0.1,0.6,0,0.7-0.1
	s0.2-0.5,0.1-0.9c-0.1-0.6-0.2-1.2,0.3-1.5c0.2-0.1,0.5,0,0.7,0c0-0.1,0.1-0.2,0.1-0.3c0.1,0.1,0.3,0.2,0.5,0.2
	c0.2,0,0.3-0.1,0.4-0.2c-0.1-0.2-0.2-0.4-0.4-0.5c0.3-0.3,0.4-0.7,0.2-1c0.3,0,0.4-0.1,0.3-0.4c-0.1-0.2-0.2-0.3-0.4-0.3h-0.1
	c-0.1-0.2-0.2-0.4-0.3-0.6c0.5-0.2,1-0.4,1.5-0.5c-0.1,0.3-0.2,0.7-0.2,1c0,0.1,0.1,0.2,0.2,0.2c0.3-0.8,0.4-1.6,0.4-2.4
	c0,0,0-0.1-0.1-0.1c0,0.2-0.1,0.5-0.1,0.7c-0.3-0.5-1.1-0.3-1.7-0.4c0-1.1,0.2-2.1,0.5-3.2c0.1,0,0.2,0,0.3,0
	c0.2-0.1,0.3-0.3,0.2-0.5c0,0,0,0,0,0c-0.4-0.4-0.8-0.7-1.3-0.9c0.2-0.4-0.1-2.2,0.6-2.6l1.5-0.8c-0.4,0.1-1.6,0.6-1.8,0.4
	c-0.1-0.2-0.1-0.4-0.2-0.6c-0.1-0.2-0.2-0.3-0.4-0.3c-0.1,0.2-0.3,0.4-0.5,0.5c-0.3,0.2-0.6,0.2-0.9,0c0-0.1,0-0.1,0-0.2
	c0-0.1-0.1-0.1-0.1-0.1c0,0,0,0,0,0c0,0,0,0,0,0.1l-0.1-0.1c-0.5-1-0.1-1.7-0.5-2.7c-0.1-0.2-0.2-0.3-0.4-0.5
	c-0.2-0.4,0.3-0.6,0-1.1c-0.2-0.3-0.6-0.4-0.7-0.4l0-0.1c-0.4,0.3-0.8,0.6-1.3,0.8c-1.1-0.4-3-2.5-4.1-2.7c-0.4,0.2-0.2,0.8-0.5,0.9
	c-0.9,0.2-1.3,0-1.5-0.4c-0.1-0.2-0.1-0.5-0.2-0.7s-0.2-0.3-0.5-0.1c-0.2,0.5,0,0.8-0.6,1.1c-1.5,0.7-1.5-1.3-2.1-0.9
	c-0.4,0.2-0.2,0.9-0.7,1.5c0.1-0.1,0.1-0.3,0-0.4c-0.1-0.3-0.4-0.4-0.7-0.3c-0.3,0.1-0.5,0.5-0.4,0.8c0.1,0.3,0.2,0.4,0.3,0.4
	c0.1,0,0.3-0.1,0.4-0.1l-0.2,0.1c-1.5,0.8-1.2-1.1-2.1-0.7c-0.6,0.3,0.4,1.1-0.1,1.7c-0.1-0.1-0.2-0.1-0.3-0.1
	c-0.1,0-0.1,0.1-0.1,0.3c-0.6,0.2-1.4-0.1-1.7,0.1s-0.2,1,0,1.4c-0.5,0.2-1-0.3-1.4-0.1c-0.1,0.1-0.1,0.3,0,0.4
	c0.2,0.3,0.4,0.3,0.6,0.8c0,0.8-0.3,1.6-1,2.1c-0.1,0-0.4-0.1-0.6-0.4c-0.2-0.2-0.4-0.3-0.7-0.3c-0.1,0.2-0.2,0.4-0.1,0.5
	c0.2,0.4,0.8,0.7,1,1c0.1,0.4,0,0.9-0.3,1.2C476,208.5,475.9,208.5,475.8,208.5z"/>
<path id="Path-Copy-4" class="st0" d="M552.4,282.6c-0.2,0.1-0.3,0.1-0.4,0.2c-0.2,0.2-0.2,0.6,0,0.8c0.3,0.4,0.5,0.5,0.7,0.6
	c0.3,0.5,0.4,1.1,0.3,1.6c-0.8,0.7-1.9,0.5-2.4,0.9c0,0.1,0,0.2,0.1,0.2c0.9-0.5,2-0.4,2.7,0.3c1.1,1.2,0.6,3.1,1.3,4.5l-1,0.9
	c0-0.5-0.1-1.1-0.2-1.6c0,0-0.1-0.1-0.2-0.1c0.1,0.6,0.1,1.3,0.1,1.9l-0.1,0.1l0.1-0.1c0,0.1,0,0.2,0,0.4c0.1,0.1,0.1,0.2,0.2,0.2
	s0-0.3,0-0.6c0.5-0.2,0.9-0.6,1.4-0.9c0.1-0.1,0.2-0.3,0.3-0.4c0.4-0.3,0.9,0.1,1.3,0.6c1.1,1.2-0.7,1.2,0,2
	c0.2,0.2,0.9-0.6,1.7-0.4c-0.1,0,0,0.2,0.1,0.4s0.2,0.1,0.2,0c0.1,0,0.1-0.1,0.1-0.2l0,0l-0.4,1.3c-0.1,0.1,0,0.2,0,0.2
	c0.3,0.2,0.6,0.3,0.9,0.1c0.2-0.2,0.1-0.6,0.2-0.7c0.4-0.3,0.9,0,1.2,0.2c-0.2,0.5-0.1,1,0.2,1.4c0.1,0.1,0.2,0.2,0.3,0
	c0.1-0.2,0.2-0.4,0.3-0.6c0.4-0.5,1.2-0.5,1.6-0.1c0,0,0.1,0.1,0.1,0.1c0.2,0.6,0.2,1.3,0.2,1.9l0.9-1.1l0,0
	c0.2,0.2,0.6,0.1,0.7-0.1c0.1-0.2,0.1-0.5-0.1-0.7l0,0c0.6-0.2,1.1-0.3,1.7-0.4c0.7,0.8,0.7,1.8,1,2.2c0.1,0.1,0.2,0.1,0.3,0
	c0.5-0.5-0.7-1.8,0-2.4c0.2-0.2,0.6-0.2,0.8,0c0,0,0,0,0,0c0.1,0.1,0.1,0.2,0.1,0.3h0c-0.1,0.2-0.1,0.2-0.1,0.3
	c0.2,0.3,1-0.1,1.1-0.2c-0.1,0-0.1-0.1-0.2-0.1c0-0.3-0.1-0.8,0.2-1c0.7-0.6,1.2,0,1.9,0.7c-0.2-0.3-0.2-0.7,0-0.9
	c0.4-0.3,1-0.1,1.3-0.4s-0.6-1,0.6-2.2c0.3-0.3,0.9,0.3,1.1,0.5c0.8-1-1-2,0.2-3.1c0.2-0.1,0.5-0.2,0.7-0.3s0-0.5-0.1-0.9h0.1h-0.1
	c-0.2-0.5-0.5-1.1-0.1-1.5c0.2-0.1,0.5-0.1,0.7-0.1c0-0.1,0-0.2,0.1-0.4c0.2,0.1,0.4,0.1,0.6,0.1c0.2-0.1,0.3-0.1,0.3-0.3
	c-0.1-0.2-0.3-0.3-0.5-0.4c0.2-0.3,0.2-0.7,0-1c0.2-0.1,0.3-0.2,0.2-0.5c-0.1-0.2-0.3-0.2-0.5-0.2h-0.1c-0.1-0.2-0.3-0.3-0.4-0.5
	c0.4-0.3,0.9-0.7,1.4-0.9c0,0.4,0,0.7,0.1,1.1c0.1,0.1,0.1,0.2,0.2,0.2c0.1-0.8,0-1.6-0.2-2.4c0,0-0.1-0.1-0.2-0.1
	c0,0.2,0.1,0.5,0.1,0.7c-0.4-0.4-1.2,0-1.8,0c-0.3-1-0.4-2.1-0.4-3.2c0.1-0.1,0.2,0,0.3-0.1c0.2-0.1,0.2-0.4,0.1-0.5c0,0,0,0,0,0
	c-0.5-0.3-1-0.5-1.5-0.6c0.1-0.4-0.7-2.1-0.1-2.7l1.3-1.2c-0.4,0.2-1.5,1-1.6,0.8c-0.1-0.2-0.2-0.3-0.3-0.5
	c-0.1-0.1-0.3-0.2-0.5-0.2c-0.1,0.2-0.2,0.5-0.4,0.6c-0.2,0.2-0.6,0.3-0.9,0.2c0,0,0-0.1,0-0.1c0-0.1-0.1-0.1-0.1-0.1c0,0,0,0,0,0
	c0,0,0,0,0,0.1l-0.2-0.1c-0.7-0.8-0.5-1.6-1.2-2.4c-0.2-0.1-0.3-0.2-0.5-0.4c-0.3-0.4,0.1-0.6-0.3-1c-0.2-0.3-0.7-0.2-0.8-0.3
	l-0.1-0.1c-0.3,0.4-0.7,0.8-1.1,1.1c-1.2-0.1-3.5-1.6-4.7-1.5c-0.3,0.3,0,0.8-0.2,1c-0.8,0.4-1.2,0.3-1.5,0
	c-0.2-0.2-0.2-0.4-0.4-0.6s-0.3-0.2-0.5,0c-0.1,0.5,0.2,0.8-0.3,1.2c-1.2,1.1-1.7-0.9-2.3-0.4c-0.3,0.3,0,1-0.2,1.6
	c0-0.1,0-0.3-0.1-0.4c-0.2-0.3-0.5-0.3-0.8-0.1c-0.3,0.2-0.4,0.6-0.2,0.9c0.2,0.3,0.3,0.4,0.4,0.3c0.1-0.1,0.3-0.1,0.4-0.2
	c0,0-0.1,0.1-0.1,0.1c-1.3,1.2-1.5-0.7-2.2-0.1c-0.5,0.4,0.7,1,0.3,1.7c-0.1-0.1-0.2-0.1-0.3,0c-0.1,0.1-0.1,0.2,0,0.3
	c-0.5,0.4-1.4,0.3-1.6,0.5s0.1,1,0.4,1.4c-0.4,0.3-1.1,0-1.4,0.3c-0.1,0.1,0,0.3,0.1,0.4c0.2,0.3,0.5,0.2,0.8,0.6
	c0.2,0.8,0.1,1.6-0.4,2.3c-0.1,0.1-0.4,0-0.7-0.2c-0.2-0.2-0.5-0.2-0.8-0.1c-0.1,0.2-0.1,0.4,0,0.5c0.3,0.4,0.9,0.4,1.2,0.7
	c0.2,0.4,0.2,0.9,0,1.2L552.4,282.6z"/>
<linearGradient id="SVGID_1_" gradientUnits="userSpaceOnUse" x1="1234.0071" y1="251.284" x2="1336.2319" y2="-328.4164" gradientTransform="matrix(1 0 0 -1 0 362)">
	<stop  offset="0.1" style="stop-color:#00326D"/>
	<stop  offset="1" style="stop-color:#2793E0"/>
</linearGradient>
<path class="st1" d="M1015,653.8c3.3,10,11.2,15.6,20.1,15.6c6.7,0,16.8-2.2,21.2-13.4l2.2-14.5c7.8-1.1,15.6,0,23.5-1.1
	c0.5,1,0.9,2.2,1.1,3.3c-0.6-0.6-1.4-1-2.2-1.1c0.5,1.1,0.9,2.2,1.1,3.3c0,1.1-1.1,1.1-2.2,1.1c-2.2,0-4.5-1.1-6.7-1.1
	c-1.1,0-3.3,0-4.4,1.1c2.1,1.5,4.7,2.3,7.3,2.2c2.2,0,3.3-0.5,5-0.5c2.8,0,4.5,0.5,4.5,2.8c0,14.5-8.9,8.9-19,20.1
	c8.9-2.2,13.4-8.9,20.1-8.9c6.2,0,4.5,10,4.5,14.5c2.2,0,3.3-1.1,4.4-1.1c5.6,0,15.6,13.4,17.9,15.6c2.2-1.1,3.4-2.2,4.5-2.2
	c14.5,0,8.9,8.9,12.3,17.9c1.1-1.1,1.1-2.2,1.1-4.5c0.1-1.9-0.3-3.8-1.1-5.6c1.1-1.1,3.3-1.1,4.5-1.1c3.3,0,5.6,1.1,6.7,4.5
	c1.1,0,1.1-1.1,1.1-2.2s-1.1-2.2-1.1-3.3c0-2.2,3.4-2.2,4.5-2.2s2.2,0,2.2,1.1l3.3,29c2.2,0,2.2-2.2,2.2-4.5
	c-1.1-6.7-3.3-15.6-3.3-23.5c0-3.3,2.2-6.7,6.7-7.8c4.5,14.5,6.7,30.1,8.9,30.1c0-7.2-3.3-15.1-3.3-22.3c0-4.5,2.2-7.8,2.2-11.2
	c0-2.2-1.1-4.5-1.1-5.6c0-5.6,3.3-11.2,6.7-15.6l5.6,2.2c2.2-2.2,3.3-4.5,6.7-4.5c2.2,0,7.3,1.5,11.5,2.5c0.6,3.5,0.9,7,1,10.5
	c0.1,2.4-0.1,4.7-0.8,7c-0.2,1.1,0.6,2.2,1.8,2.4c0.2,0,0.4,0,0.6,0c0,0,1.6,0,1.6-3.1l-1.2-16.2c0.8,0.2,1.5,0.2,2.3,0.3
	c2.6-0.1,5.1-0.7,7.4-2c7,2.3,21.5,5.6,26.8,20.2c3.1-2.3,13.3-7.8,13.3-7.8c3.9,0,11,3.9,17.2,3.9c0.7-0.5,1.3-1.1,1.8-1.7
	c0.4,1.4,1.7,2.3,3.2,2.2c2.3,0.1,4.2-1.6,4.3-3.9c0-0.2,0-0.3,0-0.5c-0.1-1.9-1.5-3.6-3.3-4.2c5.5-10.5,9.4-25.7,18.3-25.7
	c0-3.9-3.9-2.3-3.9-4.7s2.3-4.7,2.3-7.8s-1.6-6.3-1.6-9.4c0-10.5,13-5.9,14-22.8c1.3-1.6,2.8-2.8,4.6-3.8c0.4,0.5,0.9,1,1.4,1.5
	c1.7,3.8,3.6,7.5,5.3,11.3c-9,4.9-14.3,16.4-14.3,29.5c0,2.3,3.1,3.9,5.5,3.9c1.6,0,3.1-1.6,4.7-1.6s6.3,9.4,8.6,11.8
	c-3.9,6.3-15.7,9.4-15.7,15.7c0,0.8,1.6,4.7,4.7,4.7c3.9,0,7.8-5.5,7.8-10.2c9.4-7,9.4-9.4,9.4-11c1.6,0.8,3.1,1.6,3.1,3.1
	c0,0.8-2.3,1.6-2.3,3.1c0,3.9,8.6,4.7,8.6,8.6c0,8.6-7.1,5.5-7.1,12.5c0.1,2.1,1.8,3.8,3.9,3.9c0,0,6.3-1.6,6.3-4.7
	c0-2.3-0.8-3.9-0.8-5.5c0-9.4,20.4-18,29.8-18c1.6,0,2.3,0.8,3.9,0.8c11,0,14.9-15.7,14.9-25.8c0-3.9-8.6-10.2-11.8-14.9
	c0-1.6,0.8-2.4,0.8-3.9c0-3.1-0.8-5.5-0.8-7.8c1.4-0.9,3-1.4,4.7-1.6c8.6,0,10.2,14.1,22.7,21.2c0.8,0,2.4-0.8,2.4-1.6
	c0-42.3,40-19.6,40-32.1c0-7.8-3.1-13.3-3.9-21.2c6.2-17.8,19.3-20.3,19.6-28.7c3.8-4.2,7.8-10.7,7.8-18.8
	c0-11.3-6.1-24.2-16.5-24.2c-2.6,0-5.2,0.9-7.8,0.9c-1.8-0.9-2.6-3.5-5.2-3.5c-1.8,0.1-3.7,0.6-5.3,1.4c-4.1-8.9-8-17.1-8.3-17.1
	c-2.2,0-4.7,1.8-8.4,3c3.7-7.8,14.4-1.7,14.4-11c0-5.6-12.3-4.5-12.3-17.9c0-7.2,6.3-7.5,9.9-10.5c2.8,1.2,5,3.4,5,8.1
	s-3.1,8.6-3.1,12.5c0,1.6,11.8,14.9,18,16.5c0,3.1,0.8,6.3,1.6,6.3c1.4-0.9,3-1.4,4.7-1.5c9.4,0,19.6,7.8,22.7,7.8
	c0.3,0,2.9-3.9,7.2-8.3c2.1,7.3,7.3,13.8,17.8,13.8c4.4,0.1,8.6-1.2,12.2-3.7c2.5,0.8,4.9,1.5,5.3,2.4c6.3,0.1,12.1-3.8,14.3-9.8
	c4.4-0.7,9-4.9,9-8.5c0-7.1-3.9-10.2-11-11.8c-1.2,0.3-2.3,0.7-3.4,1.1c-2.7-1.5-5.9-2.3-9-2.3c-0.4,0-0.8,0-1.2,0.1
	c-1.4-2.2-3.3-4.1-5.4-5.6c-2.1-3.3-3.7-6.9-4.8-10.7c0.7-0.6,0.8-2.2,0.8-3c-0.4,0-0.9,0-1.3,0.1c0.7-4.7,9.4-11.5,11.7-19l5.5-0.8
	c2.3-18.8,5.5-36.8,5.5-54.8c0-4.2-0.1-8.2-0.3-11.9c5.8-0.1,9.8-3.3,9.8-8.7c0-6.4-5.1-7.6-9.8-7.8c0,0,0,0,0,0
	c0-4.3,2.6-8.7,2.6-13c0-3.5-6.1-6.9-6.1-12.1l0.9-0.9c0-3.5-5.2-6-5.2-9.5c0.1-0.7,0.4-1.3,0.9-1.7c0-0.9,0-0.9-0.9-0.9
	c0-0.9,0.9,0,0.9-0.9c0-6.9-24.3-4.3-24.3-16.5c-3.5,0-6.1,3.5-9.5,3.5c-1.4-0.1-2.5-1.2-2.6-2.6c0-10.4,22.5-6.9,24.2-22.5
	c0-1.7,0-2.6-0.9-2.6c-4.3,0-13,14.7-19.9,14.7c-5.2,0-5.2-16.4-21.6-16.4c0-0.1,0-0.3,0-0.4c3.2-1.4,4.1-3.2,5.5-3.2
	c1.8,0,3.7,0.9,4.6,0.9c0.5,0,2.3-7.4,2.3-6.9c0-2.8-1.8-5.1-1.8-7.8c0-1.8,4.6-6.4,4.6-6.4c2.8,0.5,7.4,13.3,13.8,16.1
	c2.7,1.1,5.3,2.2,7.7,3.1c-0.1,0.4-0.3,0.8-0.4,1.1c0.9,0,0.9,0,0.9,0.9c0.9-0.2,1.7-0.5,2.5-0.9c4.8,1.9,9.9,3,15,3.1
	c13.8,0,23-11.5,23-11.5c0.5,0.4,1.2,0.5,1.8,0.5v-1.3c0-0.2,0.2-0.5,0.4-0.5c0,0,0,0,0,0c0.6,0,0.8,0.2,0.8,0.3
	c0.8-1.4,3.2-4.3,9.3-10.4h-0.4c0-0.9,3.7-4.1,3.7-8.3v-3.2c0.3,0,0.7,0.2,0.9,0.5c3.2-6.4,3.7-15.6,3.7-19.3c0,0,0-0.5-0.9-0.5
	c0.5-0.9,0.5-1.8,0.9-2.3c-2.8-0.5-0.5-9.7-2.8-10.1c0.9-3.5,1.5-7,1.8-10.6c-0.9,0-3.7-10.1-4.1-11.5c-0.4-1.3-0.5-2.7-0.5-4.1
	c0-3.2,0.9-5.5,0.9-8.7c0,0-0.9-0.5-0.9-0.9c0,0.4,2.8-7.8,2.8-8.3v-6c0-4.1,6.9-9.6,6.9-9.6c2.3,0,4.6,2.8,6.4,2.8
	c2.3,0,7.4-3.7,10.1-5.1c1.8-0.9,2.8-4.6,4.1-5.5c0-12-0.9-12.9-10.6-17.9c0,0.5-0.4,0.9-0.9,0.9c-0.9,0-2.8-1.4-4.6-1.8
	c0,1.2-0.7,1-1.4,0.9c-0.2,1-11,5.1-11,13.3c0,3.7,5.5,9.2,5.5,11.5c0,0.5-12,13.3-15.2,13.3c-11-2.3-12.9-12.9-18.4-14.3
	c0-0.4,0.5-0.4,0.5-0.9c0,0-5.5-5.5-6.9-5.5h0.5c-4.6-0.5-3.7-2.8-6.9-2.8c-12,0-12.4,6.4-16.1,9.6c0,0.5-9.2,9.2-9.2,11.5v0.9
	c-0.3-0.5-0.8-0.9-1.4-0.9c-0.6,0-1.4,0.7-2.8,2.7c0.2-1.1,0.3-2.2,0.3-3.4c0-0.9-1.7-0.9-1.7-1.7c0.8,0,1.7,0,1.7-0.9
	s-1.7-2.6-3.5-2.6c-3.5,0-6.1,13.9-6.9,19.9c0,1.7,0.9,2.6,1.8,2.6c0.8-0.1,1.6-0.4,2.3-1c-0.7,1.5-1.9,2.7-3.5,3.2
	c-0.9-1.8-2.8-5.1-5.1-6v0.5c-0.9,0,0.5-3.7-1.4-3.7c-0.9,0-3.2,2.8-3.2,3.2c-6.4,0-8.7-5.5-12-5.5s-8.3,0-8.3,4.1
	c0,1.4,1.8,1.8,3.7,1.8c2.8,0,5.5-0.5,7.4-0.5c6,0,10.6,3.2,10.6,10.6c0,4.6-6,4.6-6,10.6c4.6,2.8,10.6,8.7,10.6,29
	c-2.8-0.5-6-10.6-6-13.3c0-9.2-8.3-4.1-11-8.7c-11-8.3-0.9-14.2-18.9-14.2c-1.4,0-6.9-5.1-7.4-5.1h-4.6c-3.2,0-5.5,2.3-9.2,2.8
	c-6,0-6.4-6-11.5-6s-5.5,9.2-10.6,9.2c-4.6,0-5-3.2-8.7-3.2c-2.8,0-3.2,1.8-3.2,4.1c0,2.8,1.4,2.3,1.4,3.7c0,2.3-4.6,6.4-5.5,6.9
	c-0.5,0.5-0.5,0.5-0.9,0.5c-1.4,0-1.4-1.4-3.2-1.4c-2.3,0-6,0.9-6,3.7c0,1.8,0.5,3.2,0.5,4.6c0,6-11.5,3.2-11.5,6
	c0,6.4,8.7,3.2,8.7,8.3c0,5.5-9.2,9.6-9.2,9.2c0,1.8,4.1,4.6,4.1,7.4c0,10.6-12.9,5.5-13.8,10.6c1.4,0.4,0.9,1.4,4.1,1.4
	c2.3,0,4.2-0.9,6.4-0.9c3.2,0,5.1,2.8,5.1,6.4c-0.2,2-0.5,4-0.9,6c0.6,1.4,1.2,2.8,1.6,4.3h-0.2c-1.7,0-3.5,0.9-5.2,0.9
	c-3.5,0,0.8-8.7-4.3-8.7c0,4.3,1.8,8.7,1.8,13.9c0,2.6-0.9,3.5-1.8,3.5c-0.8-0.4-1.7-0.7-2.6-0.9c-2.6,0-6.1,1.7-8.7,1.7
	c-1.6,0-3.1-0.7-4.3-1.7c-2.6,0-23.4,29.4-35.5,29.4c-1.8,0-3.5-1.7-4.3-2.6c0.9,0.9,0.9,0.9,0.9,1.7c-3.2,0.1-6.2-1.3-8.1-3.8
	c2.1-19.9,0-39.7,3.3-56.3c-5.1,0-4.6,37.7-5.3,53.3c-1.9-3.3-3.4-7.3-5.4-10.5c-4.3-12.1-14.8-10.4-25.1-12.1
	c-5.2,0-7.8-6.1-17.3-6.1c-1.3,0-2.6,0.7-3.4,1.7c-3.5,0-6.1-0.9-9.5-0.9c-12.1,0-20.8,19.9-26.9,21.7l0.9-0.9
	c-6.9,0-5.2,12.1-13,13.8c-2.1,0-4.2-0.5-6-1.6c-0.2-0.2-0.3-0.4-0.5-0.5l-0.2,0.2c-1.4-0.9-3-1.5-4.6-1.5
	c-17.3,0-27.7,19.9-31.2,19.9c-0.8,0-1.5-0.1-2.3-0.2c-0.1-0.3-0.1-0.5-0.1-0.8c0-3.7,2.3-6.4,2.3-10.1c0-2.8-0.5-5.5-0.5-8.7
	c4.2-2.3,12.9-19.8,12.9-22.1c-3.2-3.2-10.1-8.7-10.1-14.2c0-4.6,3.2-13.8,4.2-20.2c-1.4-0.9-9.2-6.4-9.2-6.4
	c-0.3,0.1-0.7,0.2-0.9,0.5c0,0-2.3-1.8-3.2-2.8c0,0-2.3-11-7.4-11c-1.4,0-2.8,0.5-3.7,0.5c-10.1,0-4.2-12.9-10.1-12.9
	c-1.4,0-2.3,1.8-3.2,1.8c-2.8,0-7.8-2.3-10.1-5.1c-6.7-5.5-12.8-11.7-18.4-18.4c0-3.7,1.8-6.9,3.7-10.6c-0.9-0.5-0.5,0-0.9-0.9
	c-5.1,1.4-2.3,6.9-9.7,6.9c-2.3,0-4.6-0.4-6.9-0.4h0.9c0-0.9-12.9-4.6-25.3-4.6v-0.9c-6-0.9-9.7-4.1-9.7-6.4
	c0.2-0.8,0.3-1.5,0.4-2.3c0-1.8-3.2-1.8-6.4-2.8c-1.4,1.4-5.5,3.7-10.6,3.7c0.4-1.2,0.6-2.4,0.5-3.7c0-1.8-0.9-2.3-3.2-2.3
	c0.4,4.1,0.9,8.3,1.4,12.4c0,2.8-2.8,6.9-10.1,14.2h0.5c0,1.4-7.8,6.9-7.8,9.2c0,0,0,0.1,0,0.1c-2.8,0.8-6.9,8.6-7.4,8.6
	c-0.2,0-0.4-0.1-0.5-0.2c-0.4,1.3-3.1,2.5-3.1,2.5c-0.9,0-7.8,7.8-21.6,7.8c-8.3,0-12,12.4-15.6,12.4c-12.9,0-16.6-12.4-23-13.3
	l-0.9,0.9c0.9,0.9,1.8,3.7,2.3,3.7s0.9-0.5,1.4-0.5c1.4,3.2,5.5,6,8.7,7.8c0,0,14.7,5.1,14.7,11.5c0,0.9-1.4,13.3-13.3,13.3
	c-10.6,0-6-10.6-15.2-10.6c-4.6,0-5.5,1.4-5.5,6.4c1.8,0.9,3.7,1.8,4.2,4.1c0,3.2-2.8,2.8-5.1,2.8c-0.9-2.3-4.6-0.5-6.4-3.7
	c-1.4-0.5-3.7-1.8-5.5-1.8c-1.4,0-2.8,2.3-2.8,2.8c0,10.1,13.8,2.8,13.8,14.7c0,0.9-0.5,2.3,0.9,2.3c0,0.5-0.9,3.2-1.4,3.2
	c-0.3,0-0.5,0.2-0.5,0.4c0,0,0,0,0,0c0,6-11,0.9-11,12.4c0,9.7,8.3,8.7,8.8,15.6c6,8.7,10.6,11.5,10.6,13.8c0,1.8-0.5,3.2-0.5,4.6
	v3.7c0,0.9-6,3.7-6,6.9c0,4.6,8.8,0.5,8.8,6.9c0,4.6-7.8,6-7.8,11c0,0.9,1.8,2.3,3.7,2.3c1.4,0,4.6-2.3,6.9-2.3c0.2,0,0.4,0,0.6,0.1
	c-0.3,0.9-0.4,1.9-0.4,2.9c0,2.3,0.9,4.5,2.7,6.1c-0.1,0.8-0.1,1.6-0.1,2.4c1.8,0.5,2.3,5.1,4.6,5.1c9.2,0,0.5,12.4,16.1,15.6
	c3.7,0.5,3.7,2.8,6.4,4.6c-0.5,1.8,0,5.1-1.8,5.5c0.5,3.2,1.8,3.7,3.7,3.7c2.3,0,5.1-0.9,6.9-0.9h7.3c2.8,0,5.5-1.8,8.7-1.8
	c0.6,0.9,2.3,1.6,4.1,2.9c-0.5,0.4-0.9,0.7-1.4,1c-1.8,0.9-6.1,15.6-6.1,21.6c0,11.3,13.8,18.2,25.1,18.2c13,0,15.6-7.8,22.5-11.3
	c2.6,2.6,6.9,3.5,10.4,3.5c12.1,0,26-6.1,29.4-6.1c2.6,0,6.9,1.8,10.4,2.6c4.3,0,11.3-0.9,11.3-3.5c2.2,1,4.5,1.6,6.9,1.7
	c3.5,0,9.5-1.7,9.5-5.2c0-0.9-0.9-1.7-1.7-2.6c1.7,0,6.1-7.8,6.9-8.7c1.4-0.3,2.8-0.7,4.1-1.4c7.8,7.2,14.4,13.9,14.4,15.3
	c0,1.1-3.4,2.2-5.6,3.4c-4.5,0-6.7-3.4-11.2-3.4c-5.6,0-5.6,3.4-5.6,6.7s13.4,3.3,20.1,8.9c0,2.1-0.1,4.5-0.2,6.9
	c-0.4-0.1-0.9-0.1-1.3-0.1c0,2,0.5,2.9,1.1,3.3c-0.8,8.1-3,16.5-8.5,21.2c-14.5,0-23.5,12.3-33.5,12.3c-5.6,0-11.2-2.2-14.5-2.2
	c-0.8,0.1-1.6,0.5-2.2,1.1c0,3.4,10.1,4.5,13.4,4.5c1.1,0,3.3-1.1,4.4-1.1c3.1,2.8,7,4.4,11.2,4.5c3.3,0,6.7-1.1,10.1-1.1
	c10.6,0,13.7,8.3,14.4,18.5c-0.6-0.1-1.1-0.1-1.7-0.1c0,1.7-0.9,3.5-0.9,4.3c0,0.3,0,0.6,0.1,0.8c-7.5,0.1-19.5,0.7-19.5,5.6
	c0,5.6,26.8,4.5,26.8,12.3c0,0.6-0.1,1.2-0.2,1.7c-1.7,0.3-3.3,0.8-4.8,1.4c-2.3,0.8-3.1,2.3-3.1,3.9c0,0.4,0.1,0.8,0.3,1.2
	c-5.4,1.4-12,1.8-14.5,7.4c0,2.2,2.2,4.5,2.2,6.7c10.1,0,11.2-8.9,20.1-8.9c6.7,0,7.8,8.9,7.8,15.6c-1.1,0-1.1,1.1-1.1,2.2
	c0,2.2,1.1,4.5,1.1,5.6c-4.4,8.9-23.5,4.5-23.5,15.6c0,5.6,4.5,8.9,4.5,15.6c0,3.3-6.7,1.1-6.7,6.7c0,3.3-13.4,15.6-19,15.6
	c-2.2,0-8.9-3.4-10.1-3.4c-2.2,0-4.5,2.2-6.7,2.2c0,7.8,6.7,12.3,6.7,20.1c0,11.2-11.2,17.9-25.7,17.9c-8.9,0-11.2-12.3-26.8-12.3
	C1012.8,632.6,1017.3,644.8,1015,653.8"/>
<linearGradient id="SVGID_2_" gradientUnits="userSpaceOnUse" x1="324.9834" y1="197.0561" x2="79.3798" y2="622.457" gradientTransform="matrix(1 0 0 -1 0 362)">
	<stop  offset="0" style="stop-color:#00326D"/>
	<stop  offset="1" style="stop-color:#2793E0"/>
</linearGradient>
<path class="st2" d="M-118.7-106.5l-1.6-0.8c-0.8,1.6-0.9,5.5-1.8,7.1s-7.1-1.8-10.4,4.5c-0.8,1.6-1.7,3.1-0.1,4s5.5,0.9,7.1,1.8
	c1.5,4.8-2,15-4.5,19.7c-5.9,11,9.9,15.3,7.4,20c-0.8,1.6-2.4,0.7-5.7,7c3.1,1.7,7.1,1.8,10.2,3.4c0,0,11.6,12.2,8.2,18.5
	c-0.8,1.5-4,3.9-4,3.9l-0.1,4c1.6,0.9,15.1-2,26.1,3.9c4.7,2.5-4.4,15.7-1.3,17.4C-87.6,8.5-81,0-76.3,2.5c1.6,0.8,3.8,4.1,4.6,6.5
	c7.2-2.2,5.1-13.3,14.5-8.3c1.6,0.8,2.2,7.2,6.9,9.7l5-9.4c3.1,1.7,5.4,4.9,7,5.7c7.8,4.2,8.3-11.7,16.9-9.1
	c6.2,3.3,4.5,6.5,12.4,10.7c1.7-3.1,0.9-5.6,1.8-7.1C-5.7-2-3.2-2.8,2.3-1.8C3.7,3,1.1,11.6-2.2,17.9c-3.1-1.7-5.6,3-7.3,6.1
	c6.9,9.7,13.4,5.1,5.8,19.2l0.8-1.6c3.1,1.7,0.9,24.6,7.2,27.9c1.6,0.8,1.7-3.1,4.8-1.4c17.2,9.2,7.3,24,15.1,28.2
	c4.7,2.5,8-3.8,11.1-2.1c7.8,4.2,12.4,10.6,21.8,15.7c0.8-1.4,5.6-4,8.8-3.1l-0.8-0.7l1.6,0.8c-0.2-0.1-0.5,0-0.8-0.1
	c3,2.8,13.3,14.4,3.9,31.9c2.4-0.7,3.9,0.1,4.8-1.5s-2.9-9.6,1.3-17.4c9.2-17.2,30.3-7.9,30.3-7.9c1.6,0.8,1.6,0.8,0.8,2.4
	c1.5,0.8,3.9,0.1,3.9,0.1c0.1-4,1.1-9.5,1.9-11c14,3.2,23-7.7,37.9-2.2c-2,5.2-3.5,9.3-4,10.5c12,15.5,25,30.2,39.1,43.9
	c7.2-16.4,18-20.9,35.1-16.4c-0.4,0.7,4.8,17.5,6.1,18.2c11.6,6.2,14.4-18.7,36.3-7c0,0,8.4,10.6,7.7,12c6.5,2.6,10.6,4.8,15-1.7
	c1.5-2.7,2.2-5.9,3.3-7.9c2.6-4.9,30.9-24.9,48.7-15.4c4.1,2.2,3.6,8.1,7.7,10.3c3.4,1.8,7.7-1.2,8.4-2.6c4-7.5-4.1-15.4-0.8-21.6
	c14.5,0.7,10.9-5.6,21.9,0.2c-1.5,2.7,5.4,6.4,6.8,7.1s5.2-1.6,6.7-4.3c3.3-6.2-4.9-10.6-0.5-18.8c4.7-8.9,11.9-2.5,19-9.2
	c-1.4-0.7-1-1.4-0.6-2.1s1.8-1.7,2.1-2.4c0.7-1.4-2.5-8.4-0.7-11.8c2.7-5.1,12.6-8.7,22.1-11.7c-2.1,4.1-1.7,8.5,5.7,12.4
	c1,0.5,2,0.8,3.1,0.8c-1.2,2.8-0.3,3.3,0.6,3.8c1.1,0.8,2.4,1,3.7,0.7c1.1-2,1.1-4.5-0.7-5.7c1.8-1.4,3.2-3.1,4.2-5.1
	c-0.7-0.4-6.8-5.4-6.1-6.8l-3.9-2.1c6.8-2.1,12.3-3.9,13.4-6c3.5-1.6,8.9,4.8,10.4,2c2.7,1.6,5.3,3.5,7.5,5.7c1.1-2,4.8,0.8,5.5,1.2
	c1.2-5.5-2.6-6.7-6.7-8.8c-0.7,1.4-14.8-3.5-17.6-5c-8.9-4.8-14.5-17.4-10.5-24.9c0.7,0.4,12-7.7,20.2-3.3
	c2.7,1.5,30.1,2.9,33.7-0.5c-5.9-2.2-13.2,0-19.4-3.3c-4.1-2.3-7.9-5-11.6-7.9c-0.7,1.4-5.6,0.5-9.7-1.6c-2.8-1.4-10.2-8.9-5.1-18.5
	l5.1-9.6c1.8-3.4,0.2-8.7,4.6-16.9c4.1,0.5,9,1.3,13.1,1.8c5.8-0.1,11.5-0.6,17.2-1.7c0.1,0.1,0.3,0.2,0.4,0.3c1,0.5,1.9,1,3.3-1.2
	c4.1-1.2,7.5-2.9,8.8-5.3c1.8-3.5-3.4-1.8-1.6-5.3c-12.3-6.6-24.1,3.9-39.8-4.5c0,0-9.4-13.8-2.1-27.5c4.4-8.2,12.7-5.6,16.7-13.1
	c2.2-4.1,0.4-4.2-4-7.4c-1.1,2.1-14.3,3.8-17.8,3.7c-1.3,0-2.7-0.4-3.8-1.1c-5.5-2.9-6-21.7-4.9-23.7c1.1-0.3,27.5-15.3,41.4-16.6
	c2.2-4.1,3.1-10.7-3.1-14c0.7,0.4-15,3.4-18.7,10.3c-2.4-0.4-16,15.2-31.8,8.5c0.7-1.4-0.3-2.8-1.6-3.5c-0.7-0.4-2.4-0.4-3.1-0.8
	c-2.7-1.5-6.7-8.9-5.6-10.9c0.4-0.7,1.8-1.7,2.5-3.1c0.5-1.2,0.1-2.5-1-3.2c1.5-2.7,4-4.1,5-6.1s0.2-6.9-3.2-8.8
	c-7.5-4-13.8,7.6-20.6,4c-2.8-1.5-3-6-1.5-10.5c1.5-2.7,4.8-10.6,8.2-8.8c1.5-2.8,1.2-7.3,2.7-10c4.8-8.9,17.5-6.5,25.2-20.9
	l-6.9-3.7c-1.8,3.4-3.8,0.6-6.4,5.4c-1.8,3.4-3.7,8.6-4.1,9.3c-4.8-2.5-13.9,12.8-18,10.6c-8.4,15.8-27.4,11.8-46.3,4.3
	c0-1.7-1-3.1-1.3-4.2c0.4-0.7,1.8-1.7,2.5-3.1c0.5-1.1,0.1-2.5-0.9-3.1c2.6-3,4.9-6.2,6.8-9.6c-4.8-2.6,6.4-31.8,1.6-34.3
	c-2.2,4.1-4.7,7.2-6.9,11.3c-1.3,2.2-2.4,4.7-3,7.2c-3.4-1.8-9.7,11.6-10.8,13.6c-0.7-0.4-24.9,23.6-37.2,17.1
	c-6.2-3.3-7-13.4-13.1-16.6c-6.3,1.9-9.6,6.4-14.5,10.7c-0.7-0.4-12.5,2.1-13.3,3.4c-3-2.5-7.1-6.4-10.5-8.2
	c-4.1-2.2-10.2,4.2-17.4,3c0.3,2.8,1.2,7.7-0.3,10.4c-6.2,11.6-17-2.9-30.1,8.6c-1.1,2.1-0.9,8.3-2,10.4c-0.4,0.7-5.2,1.6-6.6,0.9
	c-2.8-1.5-4.7-4.3-7.5-5.8c-4.1-2.2-5.8-2.2-7.3,0.5c-2.2,4.1,4.1,13.6-1.3,23.9c-1.2-0.7-1.4-0.7-1.9,0.3
	c-15.8,29-26,64.2-65.4,84.3c5.1,1.8,10.4,5.6,15.7,9.5c-2.8,0-5.6-0.7-8.1-2.1c-14.1-7.5-6.9-9.7-19.4-16.4
	c-6.5,4.6-12.9,9.2-20.7,5c-1.6-0.8-2.3-3.2-2.2-7.2c-2.4,0.7-5.5-0.9-8.7-2.6c0.5-0.8,0.2-1.9-0.7-2.4c0,0,0,0-0.1,0L68.5-77
	c-1.7,3.1,2.9,9.6,0.4,14.2c0,0-35.3,17.3-41.6,14c-4.7-2.5-1.1-16.7,1.4-21.4c1.7-3.1,15.8,4.4,18.2-0.3c0.8-1.6,0.1-4,0.1-4
	c-4.4-2.3-11-0.7-15.7-2.6c0.4,0.4,0.7,0.6,0.7,0.6l-1.6-0.8c0.3,0.1,0.6,0.2,0.9,0.3c-2.6-2.4-12.6-12.3-7.5-21.8
	c1.7-3.1,4.9-5.4,9-9.3c-6.2-3.3-11.9-0.3-16.6-2.8c-0.6-6.3-8.1-22.4-8.1-22.4c4.1-3.9,7.4-10.1,9.9-14.8
	c-6.2-3.3-15.5,17.8-18.7,16.2c-7.8-4.2-5.2-12.8-8.3-14.5c-4.7-2.5-4.9,5.4-17.4-1.3c-4.7-2.5,0.2-7.9-2.9-9.6
	c-9.4-5-17.7,10.6-24,7.3c-7.8-4.2-0.2-24.2-8.8-28.8c-1.4,8.9-2.1,17.9-2.3,26.9c-14.4,4.4-31.1,5.5-32.8,8.7
	c-0.8,1.6-1.7,3.1,1.5,4.8c-9,9.3-25,16.8-28.2,15.1c-0.9-0.4-1.2-1.5-0.8-2.3c0,0,0,0,0-0.1c-1.7,3.1,3,5.6,6.2,7.3
	C-114.5-114.3-116.2-111.2-118.7-106.5z"/>
</svg>
