<svg id="Layer_1" data-name="Layer 1" xmlns="http://www.w3.org/2000/svg" xmlns:xlink="http://www.w3.org/1999/xlink" viewBox="0 0 1388 360"><defs><style>.cls-1{fill:#ffb700;}.cls-2,.cls-3{fill-rule:evenodd;}.cls-2{fill:url(#Pre-Schooler_Primary_Gradient);}.cls-3{fill:url(#Naamloos_verloop_22);}</style><linearGradient id="Pre-Schooler_Primary_Gradient" x1="1234.16" y1="110.69" x2="1336.39" y2="690.42" gradientUnits="userSpaceOnUse"><stop offset="0.1" stop-color="#ff6100"/><stop offset="0.28" stop-color="#ff7600"/><stop offset="0.53" stop-color="#ff8a00"/><stop offset="0.77" stop-color="#ff9700"/><stop offset="1" stop-color="#ff9b00"/></linearGradient><linearGradient id="Naamloos_verloop_22" x1="325" y1="164.94" x2="79.42" y2="-260.42" gradientUnits="userSpaceOnUse"><stop offset="0" stop-color="#ff6100"/><stop offset="1" stop-color="#ff9300"/></linearGradient></defs><title>hero-summer programs 2</title><path id="Path" class="cls-1" d="M567.81,14c3.07.63,4.63-3,6.32-3.49,1.22,1.84,1.83,2.78,3.36,3.09,2.31.48,3.39-.89,5.24-2.12.13,3.23,2.88,5.42,6.72,6.21a8.42,8.42,0,0,0,5.85-1.21c.61.94-.41,13.55,5.74,14.82,1.53.32,2.46-.3,4,0-.8,3.85-4,4-4.66,7-.8,3.85,2.73,6.17,1.78,10.76s-6.33,3.52-7.44,8.89c-.79,3.82,2.12,5.23,1.8,6.78-.16.75-.16.75-.93.59-1.53-.32-2.59-2.94-5.66-3.57-.77-.16-6,2-7.12,7.33-2.3-.48-3.52-2.32-5.82-2.8-3.84-.79-2.62,1-5.4,2.87a7.13,7.13,0,0,0-4.89-3.41,9.81,9.81,0,0,0-4.77-.18c-1.22-1.87-1.5-4.32-3.81-4.8-.76-.16-1.69.46-2.46.3s-8.18-18.5-10.16-20.52c.63-3.08,3.57-5.65,4.21-8.72.47-2.3-.74-4.17-1-6.62C561.75,24,553.22,11,567.81,14"/><path id="Path-2" data-name="Path" class="cls-1" d="M776.31,64.34c.81.17,1.23-.8,1.68-.93.32.49.49.74.89.82.61.13.9-.24,1.39-.56,0,.86.76,1.44,1.78,1.65a2.23,2.23,0,0,0,1.55-.32c.16.25-.11,3.59,1.52,3.93.41.08.65-.08,1.06,0-.21,1-1.07,1-1.24,1.87-.21,1,.72,1.64.47,2.85s-1.68.93-2,2.36c-.21,1,.56,1.39.48,1.8,0,.2,0,.2-.25.16-.41-.08-.69-.78-1.5-.95A2.53,2.53,0,0,0,780.29,79c-.61-.13-.93-.61-1.54-.74-1-.21-.69.28-1.43.76a1.89,1.89,0,0,0-1.3-.91,2.6,2.6,0,0,0-1.26,0c-.32-.5-.4-1.15-1-1.27-.2,0-.45.12-.65.08s-2.17-4.91-2.69-5.44c.17-.82.95-1.5,1.12-2.31.13-.61-.2-1.1-.27-1.76,3.47-.35,1.21-3.79,5.08-3"/><path id="Path-3" data-name="Path" class="cls-1" d="M95.28,246.89c.66-.73,1.41-.71,2.91-.68.24-1.11-1.56-3.4-.25-4.86,6.24-6.93-4.32-7.17-1.19-14.95-1.61-.78-3.13-.83-4.4-2-1.7-1.53-2.41-4.16-4.11-5.69-1.85.33-15.39-2.61-15.71-2.25,0,0,0,.05,0,.07-.64-3.58-1-7.42-1.23-7.78s-.68-.91-1.1-.64c0,0,.17,6.55,1.56,10-1,.76-2.46.1-3.86.06a5.13,5.13,0,0,1-1.44,2.46c.05-.26.09-.54.13-.83a2.67,2.67,0,0,0-2.27-.57c-.84.53-.16,1.45.18,1.91a1.28,1.28,0,0,0,.78.46,4.65,4.65,0,0,1-2.48.55c.28,2.24,1.79,2.28.15,4.1-1,1.09-2.49,1.06-3.48,2.16,3,2.69,2.72,6.41,2.39,6.78-1.32,1.46-3.24,1-3.9,1.77-.33.37-.33.37.08.74.86.78,2.61-.29,4.73,1.62,3,2.68.69,5.23,3.25,7.53s5,1.23,7.18,3.15c1.71,1.54.8,3.37,2.94,5.3.65-.72.55-1.48,1.21-2.22,2.63-2.92,10.11,2.5,10.86,2.52a4.94,4.94,0,0,1,1-3.72c1.65-1.83,3.82-2.51,5.85-1.34-.2-1.5-.71-2.63.27-3.72Z"/><path id="Path-4" data-name="Path" class="cls-1" d="M870.75,185.8c-1.65,0-2.46-.72-4.1-2.14-1.65.71-2.47,4.31-5.76,4.31-15.59,0-4.09,10-17.25,13.66.83,2.16,2.47,3.61,2.47,5.77,0,2.87-2.47,5.73-2.47,8.61,2.47,1.45,14,16.54,14.78,16.54l.13,0c-3.73,3.61-8.14,7.14-8.3,7.67-.18.7-.37,1.4.43,1.57,0,0,8-5.66,10.73-9.89,2.06.29,2.88,2.21,4.4,3.55a11,11,0,0,1,4.67-.72c-.39.17-.77.36-1.18.58-.18.7,1,2.43,1.83,2.59,1.6.33,2-1.06,2.18-1.77A1.29,1.29,0,0,0,873,235a8.14,8.14,0,0,1,3.47,1.85c2.47-2.15.83-3.58,4.93-3.58,2.46,0,4.1,1.44,6.58,1.44,0-5,4.92-7.91,5.75-7.91,3.29,0,4.92,2.15,6.57,2.15.83,0,.83,0,.83-.69,0-1.46-3.28-2.19-3.28-5.77,0-5,5.73-5,5.73-9.36s-4.11-5.73-4.11-9.34c0-2.89,3.3-3.58,3.3-7.19-1.63,0-2.46.73-4.11.73-6.57,0-8.21-11.52-9-12.24a9.52,9.52,0,0,1-5.75,2.18c-4.11,0-7.39-1.46-8.21-4.33-1.64,1.44-2.46,2.87-4.93,2.87Z"/><path id="Path-5" data-name="Path" class="cls-1" d="M1080.22,87.34c.18,0,.26.14.35.16a.52.52,0,0,0,.53-.43c.06-.4,0-.62,0-.82a2.62,2.62,0,0,1,.91-1.09c.91.14,1.41,1,2,1.13a.37.37,0,0,0,.12-.19,2,2,0,0,1-1.36-2c.22-1.41,1.81-2.08,2.37-3.23l1.25.2a3.21,3.21,0,0,0-1,1s0,.1,0,.13a13.88,13.88,0,0,1,1.24-1.09l.15,0-.11-.05a1.19,1.19,0,0,0,.22-.21c0-.09.08-.19,0-.23s-.2.13-.45.32a6.11,6.11,0,0,0-1.41-.42,3.54,3.54,0,0,1-.47,0c-.45-.07-.45-.69-.37-1.19.22-1.41,1.24-.22,1.39-1.12,0-.26-.9-.3-1.25-1,.08,0,.16-.15.19-.25s0-.13-.13-.17a.17.17,0,0,0-.18,0h0l1.09-.44c.09,0,.11-.09.11-.09a.72.72,0,0,0-.45-.69c-.27,0-.5.23-.59.21-.45-.07-.47-.59-.51-.9a1.19,1.19,0,0,0,.88-.89c0-.1,0-.2-.15-.23a1.78,1.78,0,0,0-.58.11c-.63-.1-1.13-.49-1-1.19,0-.3,1.2-1.15,1.2-1.15H1083a.59.59,0,0,0-.29-.41.61.61,0,0,0-.64.38.14.14,0,0,1,0,0,10.26,10.26,0,0,1-1.23-.95c.14-.91.87-1.41.94-1.81a.21.21,0,0,0-.15-.23c-.63-.1-.87,1.4-1.6,1.29a.53.53,0,0,1-.47-.59,1.26,1.26,0,0,1,.11-.23l0,0c.2,0,.2,0,.24-.12.11-.28-.65-.62-.74-.65a.4.4,0,0,1,0,.21c-.2.14-.49.44-.83.39-.81-.13-.7-.83-.58-1.63-.14.29-.37.56-.64.52-.45-.07-.64-.62-1-.68s-.34,1-1.88.73c-.36-.06-.34-.78-.31-1-1.12,0-.83,1.72-2.28,1.49-.18,0-.42-.27-.6-.3s-.37.23-.54.55l-.06,0,0,.07c-.22.42-.46.9-1,.82-.18,0-.33-.26-.5-.39a.85.85,0,0,1-.28.16.82.82,0,0,0-.26-.42c-.17-.08-.25-.11-.37-.06a.71.71,0,0,0,0,.55c-.25,0-.48.14-.68.58-.21-.1-.31-.12-.42.16a.33.33,0,0,0,.15.39l.08,0c0,.17-.08.35-.11.57a7,7,0,0,1-1.4-.43,7.66,7.66,0,0,0,.7-.6c0-.09.07-.19,0-.23s-1.32.86-1.54,1.42c0,0,0,.1,0,.13.13-.14.3-.29.46-.44,0,.48.62.79,1,1.16a10.1,10.1,0,0,1-2,2c-.09,0-.17-.13-.26-.14a.33.33,0,0,0-.41.24,3.65,3.65,0,0,0,.44,1.31c-.3.16-1.09,1.58-1.81,1.46l-1.54-.24c.35.16,1.51.44,1.48.65a4.79,4.79,0,0,1-.17.49.55.55,0,0,0,.12.43,1.22,1.22,0,0,1,.67-.1.79.79,0,0,1,.63.47.28.28,0,0,0-.08.11.1.1,0,0,0,0,.13s.05,0,.09,0a1.44,1.44,0,0,1,0,.15c-.14.9-.84,1.21-1,2.11a4.68,4.68,0,0,1,0,.51c-.06.4-.5.23-.58.73,0,.3.28.56.27.66l0,.1a5.42,5.42,0,0,1,1.38.11c.61.82.88,3.23,1.6,4,.36.06.53-.43.8-.38.78.33.92.66.85,1.06,0,.2-.15.39-.19.59s0,.32.31.36c.41-.25.46-.55,1-.46,1.45.23.4,1.61,1,1.71.35.06.65-.52,1.27-.7a.48.48,0,0,0-.24.27c-.11.28.11.49.36.6a.59.59,0,0,0,.72-.34c.11-.28.06-.42,0-.45a1.76,1.76,0,0,0-.38-.12h.17c1.54.24.33,1.39,1.15,1.52.56.09.29-1,1-1.13a.35.35,0,0,0,.22.21c.07,0,.16-.05.2-.18.58.15,1,.76,1.25.8s.66-.62.72-1c.45.07.63.72,1,.78a.29.29,0,0,0,.23-.28c0-.3-.12-.43-.05-.83a2.23,2.23,0,0,1,1.82-.95c.09,0,.24.24.28.56a.62.62,0,0,0,.37.57c.2-.07.3-.16.32-.26.06-.4-.23-.86-.19-1.16a1,1,0,0,1,.85-.69Z"/><path id="Path-Copy" class="cls-1" d="M1356.5,143c-.06,0-.07-.1-.1-.12a.22.22,0,0,0-.27.08c-.09.14-.11.24-.16.31a1.13,1.13,0,0,1-.53.27c-.31-.2-.34-.63-.53-.76a.16.16,0,0,0-.08.05.81.81,0,0,1,.16,1c-.33.51-1,.51-1.45.87l-.43-.28a1.37,1.37,0,0,0,.53-.24s0,0,0-.06a5.84,5.84,0,0,1-.65.22l-.05,0,0,0-.12,0s-.06.06,0,.09l.22-.05a2.36,2.36,0,0,0,.45.39,1.38,1.38,0,0,1,.18.06c.16.1,0,.34-.07.52-.33.51-.5-.12-.71.21-.06.09.28.26.3.57,0,0-.08,0-.11.06s0,.06,0,.09a.07.07,0,0,0,.07,0h-.49s-.06,0-.06,0a.3.3,0,0,0,0,.34c.09.06.23,0,.26,0s.07.3,0,.43a.5.5,0,0,0-.49.2s0,.07,0,.11a.7.7,0,0,0,.23,0,.43.43,0,0,1,.17.63c-.07.11-.65.25-.65.25l.48.21h0a.19.19,0,0,0,.34.16h0a4.09,4.09,0,0,1,.29.57c-.21.33-.57.4-.67.55a.09.09,0,0,0,0,.11c.22.14.57-.4.82-.24a.22.22,0,0,1,.07.3.56.56,0,0,1-.08.07v0c-.08,0-.08,0-.11,0s.13.34.16.37a.18.18,0,0,1,0-.08c.1,0,.26-.09.38,0,.28.18.11.44-.07.73.1-.09.24-.16.33-.1s.13.34.26.42.3-.32.83,0c.12.08,0,.36-.06.43.42.17.61-.53,1.11-.21.06,0,.11.17.17.21s.18,0,.29-.12l0,0v0c.15-.13.33-.28.51-.16s.08.15.12.23h.13a.35.35,0,0,0,0,.2c0,.06.07.08.13.08a.31.31,0,0,0,.09-.22.34.34,0,0,0,.35-.11c.06.07.1.1.18,0a.14.14,0,0,0,0-.18l0,0,.14-.2a2.71,2.71,0,0,1,.45.39,3.23,3.23,0,0,0-.37.12s-.06.06,0,.09a2.25,2.25,0,0,0,.82-.3s0,0,0-.06l-.25.1c.1-.18-.09-.41-.17-.61a4.29,4.29,0,0,1,1.08-.43s0,.08.07.1a.13.13,0,0,0,.2,0,1.58,1.58,0,0,0,.06-.58c.14,0,.68-.44.93-.27l.53.34c-.1-.12-.48-.42-.43-.49a2.14,2.14,0,0,1,.15-.16.24.24,0,0,0,0-.19.48.48,0,0,1-.27-.07.32.32,0,0,1-.15-.29l0,0a0,0,0,0,0,0-.06h0l0-.06c.21-.33.52-.33.74-.66a2.08,2.08,0,0,1,.09-.2c.09-.15.23,0,.34-.19s0-.26,0-.3l0,0a2.09,2.09,0,0,1-.49-.27c-.08-.42.24-1.39.1-1.79-.12-.08-.27.08-.37,0-.23-.25-.23-.4-.13-.55s.13-.13.17-.2,0-.13-.05-.19-.27.14-.45,0c-.5-.32.14-.69-.08-.83s-.33.1-.6.06a.21.21,0,0,0,.14-.07c.09-.09,0-.21,0-.29a.24.24,0,0,0-.33,0c-.09.09-.1.15-.07.18l.12.11-.06,0c-.53-.34.12-.59-.16-.77s-.28.34-.56.28a.14.14,0,0,0,0-.12s-.07,0-.11,0c-.19-.15-.23-.46-.32-.51s-.35.13-.45.28c-.16-.1-.11-.38-.23-.46a.13.13,0,0,0-.13.07c-.07.11,0,.18-.13.33a.91.91,0,0,1-.84.07s0-.13,0-.26a.26.26,0,0,0,0-.28c-.09,0-.14,0-.16,0s-.06.37-.14.48a.44.44,0,0,1-.44.13Z"/><path id="Path-Copy-2" data-name="Path-Copy" class="cls-1" d="M1193.41,149c-.06,0-.07-.1-.1-.12a.22.22,0,0,0-.27.08c-.09.14-.11.24-.16.31a1.13,1.13,0,0,1-.53.27c-.31-.2-.34-.63-.53-.76a.16.16,0,0,0-.08.05.81.81,0,0,1,.16,1c-.33.51-1,.51-1.45.87l-.43-.28a1.37,1.37,0,0,0,.53-.24s0,0,0-.06a5.83,5.83,0,0,1-.65.22l-.05,0,0,0-.12,0s-.06.06,0,.09l.22-.05a2.36,2.36,0,0,0,.45.39,1.38,1.38,0,0,1,.18.06c.16.1,0,.34-.07.52-.33.51-.5-.12-.71.21-.06.09.28.26.3.57,0,0-.08,0-.11.06s0,.06,0,.09a.07.07,0,0,0,.07,0h-.49s-.06,0-.06,0a.3.3,0,0,0,0,.34c.09.06.23,0,.26,0s.07.3,0,.43a.5.5,0,0,0-.49.2s0,.07,0,.11a.7.7,0,0,0,.23,0,.43.43,0,0,1,.17.63c-.07.11-.65.25-.65.25l.48.21h0a.19.19,0,0,0,.34.16h0a4.09,4.09,0,0,1,.29.57c-.21.33-.57.4-.67.55a.09.09,0,0,0,0,.11c.22.14.57-.4.82-.24a.22.22,0,0,1,.07.3.56.56,0,0,1-.08.07v0c-.08,0-.08,0-.11,0s.13.34.16.37a.18.18,0,0,1,0-.08c.1,0,.26-.09.38,0,.28.18.11.44-.07.73.1-.09.24-.16.33-.1s.13.34.26.42.3-.32.83,0c.12.08,0,.36-.06.43.42.17.61-.53,1.11-.21.06,0,.11.17.17.21s.18,0,.29-.12l0,0v0c.15-.13.33-.28.51-.16s.08.15.12.23h.13a.35.35,0,0,0,0,.2c0,.06.07.08.13.08a.31.31,0,0,0,.09-.22.34.34,0,0,0,.35-.11c.06.07.1.1.18,0a.14.14,0,0,0,0-.18l0,0,.14-.2a2.71,2.71,0,0,1,.45.39,3.23,3.23,0,0,0-.37.12s-.06.06,0,.09a2.25,2.25,0,0,0,.82-.3s0,0,0-.06l-.25.1c.1-.18-.09-.41-.17-.61a4.29,4.29,0,0,1,1.08-.43s0,.08.07.1a.13.13,0,0,0,.2,0,1.58,1.58,0,0,0,.06-.58c.14,0,.68-.44.93-.27l.53.34c-.1-.12-.48-.42-.43-.49a2.13,2.13,0,0,1,.15-.16.24.24,0,0,0,0-.19.48.48,0,0,1-.27-.07.32.32,0,0,1-.15-.29l0,0a0,0,0,0,0,0-.06h0l0-.06c.21-.33.52-.33.74-.66a2.08,2.08,0,0,1,.09-.2c.09-.15.23,0,.34-.19s0-.26,0-.3l0,0a2.09,2.09,0,0,1-.49-.27c-.08-.42.24-1.39.1-1.79-.12-.08-.27.08-.37,0-.23-.25-.23-.4-.13-.55s.13-.13.17-.2,0-.13-.05-.19-.27.14-.45,0c-.5-.32.14-.69-.08-.83s-.33.1-.6.06a.21.21,0,0,0,.14-.07c.09-.09,0-.21,0-.29a.24.24,0,0,0-.33,0c-.09.09-.1.15-.07.18l.12.11-.06,0c-.53-.34.12-.59-.16-.77s-.28.34-.56.28a.14.14,0,0,0,0-.12s-.07,0-.11,0c-.19-.15-.23-.46-.32-.51s-.35.13-.45.28c-.16-.1-.11-.38-.23-.46a.13.13,0,0,0-.13.07c-.07.11,0,.18-.13.33a.91.91,0,0,1-.84.07s0-.13,0-.26a.26.26,0,0,0,0-.28c-.09,0-.14,0-.16,0s-.06.37-.14.48a.44.44,0,0,1-.44.13Z"/><path id="Path-Copy-3" data-name="Path-Copy" class="cls-1" d="M475.76,208.53a.6.6,0,0,0-.18.76c.21.42.41.59.52.8a3.09,3.09,0,0,1-.08,1.64c-.91.46-2-.06-2.52.22a.44.44,0,0,0,0,.26,2.23,2.23,0,0,1,2.55,1c.76,1.49-.21,3.18.07,4.64l-1.25.64a3.77,3.77,0,0,0,.17-1.59s0-.12-.13-.09a16.07,16.07,0,0,1-.37,1.85l-.15.08.13,0a1.39,1.39,0,0,0-.06.35c0,.11.06.23.16.21s.09-.26.19-.6a6.48,6.48,0,0,0,1.55-.54c.09,0,.22-.25.4-.34.46-.23.87.36,1.14.89.76,1.49-1,1-.48,2,.14.27,1-.31,1.77.08-.1,0,0,.25,0,.36s.13.09.23.07a.19.19,0,0,0,.14-.15s-.66,1.16-.66,1.16,0,.15,0,.15a.82.82,0,0,0,.87.36c.27-.14.29-.55.38-.59.46-.23.82.25,1.07.52A1.38,1.38,0,0,0,481,224c.05.11.11.21.29.12a1.91,1.91,0,0,0,.44-.49,1.17,1.17,0,0,1,1.72.46,5.76,5.76,0,0,1-.3,1.89l1.17-.86a.72.72,0,0,0,.54.2c.2,0,.41-.45.32-.79a9.77,9.77,0,0,1,1.74.07c.49,1,.17,1.92.39,2.34a.24.24,0,0,0,.29.12c.64-.32-.17-1.91.55-2.28a.6.6,0,0,1,.82.25,1.53,1.53,0,0,1,.06.29c-.23.17-.23.17-.19.28.09.34,1,.16,1.1.14a.49.49,0,0,1-.16-.18c.08-.27.14-.74.48-.91.82-.42,1.2.33,1.63,1.17-.07-.37,0-.77.22-.91.45-.23,1,.16,1.36,0s-.36-1.15,1.19-1.94c.36-.18.83.51.94.72,1-.76-.43-2.19,1-2.93.18-.09.56,0,.74-.11s.18-.47.11-.87c-.1-.59-.21-1.21.3-1.47.18-.09.47,0,.71,0a1,1,0,0,1,.15-.34,1,1,0,0,0,.52.23c.2,0,.3-.06.37-.19a.87.87,0,0,0-.38-.52.93.93,0,0,0,.22-1c.26,0,.36-.1.27-.43a.39.39,0,0,0-.4-.28l-.1,0c-.08-.18-.17-.38-.29-.61a7.45,7.45,0,0,1,1.55-.52,8.85,8.85,0,0,0-.22,1c0,.11.06.23.17.21a6.18,6.18,0,0,0,.41-2.37s0-.11-.13-.09c0,.22-.06.47-.11.73-.29-.49-1.1-.34-1.7-.43a11.79,11.79,0,0,1,.45-3.16c.09,0,.23,0,.33,0a.37.37,0,0,0,.2-.5,4.35,4.35,0,0,0-1.29-.95c.17-.35-.1-2.22.63-2.59l1.54-.79c-.42.08-1.65.58-1.76.36a5.87,5.87,0,0,1-.18-.58.66.66,0,0,0-.4-.33,1.31,1.31,0,0,1-.53.54.87.87,0,0,1-.89,0,.33.33,0,0,0,0-.16.11.11,0,0,0-.13-.09s0,0-.05.09l-.12-.13c-.49-1-.06-1.7-.55-2.66a5.72,5.72,0,0,1-.36-.48c-.22-.42.29-.55,0-1.08-.16-.32-.63-.35-.69-.45l-.05-.11a5.75,5.75,0,0,1-1.31.8c-1.1-.37-3-2.49-4.12-2.71-.36.18-.19.76-.46.9-.92.21-1.27,0-1.49-.44-.11-.22-.13-.47-.23-.68s-.25-.27-.53-.14c-.2.51,0,.82-.58,1.1-1.45.74-1.45-1.27-2.08-.94-.36.18-.22.92-.67,1.51a.57.57,0,0,0,0-.42c-.09-.34-.43-.39-.73-.33a.66.66,0,0,0-.41.81c.1.34.23.43.33.41a1.86,1.86,0,0,0,.42-.14l-.16.1c-1.54.79-1.24-1.1-2.06-.68-.56.29.42,1.14-.1,1.72a.39.39,0,0,0-.34-.06c-.07,0-.11.15-.06.31-.62.24-1.41-.07-1.67.06s-.17,1,0,1.44c-.45.23-1.05-.27-1.42-.08a.35.35,0,0,0,0,.41c.16.32.4.33.61.75a2.51,2.51,0,0,1-1,2.11c-.09,0-.38-.07-.63-.35a.72.72,0,0,0-.72-.29c-.13.2-.16.35-.11.46.22.42.79.66,1,1a1.2,1.2,0,0,1-.29,1.22C476,208.54,475.85,208.48,475.76,208.53Z"/><path id="Path-Copy-4" data-name="Path-Copy" class="cls-1" d="M552.44,282.58c-.15.14-.31.12-.38.18a.6.6,0,0,0,0,.78c.32.35.55.46.71.64a3.09,3.09,0,0,1,.35,1.61c-.76.68-1.93.45-2.38.86a.44.44,0,0,0,.08.25,2.23,2.23,0,0,1,2.72.27c1.12,1.24.62,3.12,1.27,4.46l-1,.94a3.77,3.77,0,0,0-.25-1.58s-.06-.1-.15-.06a16.07,16.07,0,0,1,.13,1.89l-.12.11.12-.06a1.39,1.39,0,0,0,0,.35c.06.1.12.21.21.16s0-.27,0-.63a6.48,6.48,0,0,0,1.36-.92c.08-.07.15-.29.3-.43.38-.34.93.12,1.33.56,1.12,1.24-.67,1.24.05,2,.2.23.89-.56,1.73-.38-.09,0,0,.25.09.35s.15.06.24,0a.19.19,0,0,0,.09-.18h0l-.36,1.28c-.08.07,0,.16,0,.16a.82.82,0,0,0,.93.12c.23-.2.14-.6.22-.67.38-.34.86,0,1.17.23a1.38,1.38,0,0,0,.19,1.43c.08.09.16.17.31,0a1.91,1.91,0,0,0,.3-.58,1.17,1.17,0,0,1,1.78,0,5.76,5.76,0,0,1,.2,1.9l.9-1.13h0a.52.52,0,0,0,.67-.79h0a11.25,11.25,0,0,1,1.71-.37c.72.8.66,1.81,1,2.16a.24.24,0,0,0,.31,0c.53-.48-.66-1.8-.05-2.35a.6.6,0,0,1,.85,0,1.53,1.53,0,0,1,.14.27l-.05,0c-.12.19-.12.19-.06.3.18.3,1-.11,1.1-.16a.49.49,0,0,1-.2-.13c0-.28-.06-.75.23-1,.68-.61,1.24,0,1.87.71-.16-.33-.25-.74,0-.94.38-.34,1-.1,1.31-.38s-.64-1,.64-2.18c.3-.27.94.28,1.09.45.75-1-1-2,.23-3.09.15-.14.54-.16.69-.3s0-.5-.12-.87l.07,0h-.09c-.23-.5-.5-1.07-.07-1.46.15-.14.46-.1.69-.14a1,1,0,0,1,.06-.36,1,1,0,0,0,.56.08c.19-.09.28-.14.31-.29a.87.87,0,0,0-.5-.4.93.93,0,0,0-.05-1c.24-.11.32-.18.15-.48a.39.39,0,0,0-.46-.16l-.09,0c-.12-.16-.26-.32-.43-.52a7.45,7.45,0,0,1,1.36-.9,8.85,8.85,0,0,0,.06,1.06c.06.1.12.2.21.16a6.18,6.18,0,0,0-.22-2.39s-.06-.1-.15-.06c0,.22.06.47.08.73-.41-.4-1.15,0-1.75,0a11.79,11.79,0,0,1-.39-3.17c.08-.07.23-.05.31-.12a.37.37,0,0,0,.06-.54,4.35,4.35,0,0,0-1.49-.58c.07-.38-.67-2.12-.06-2.66l1.29-1.16c-.38.18-1.45,1-1.61.81a5.86,5.86,0,0,1-.32-.51.66.66,0,0,0-.47-.22,1.31,1.31,0,0,1-.37.65.87.87,0,0,1-.86.2.33.33,0,0,0,0-.15.11.11,0,0,0-.15-.06s0,.05,0,.1l-.15-.1c-.72-.8-.5-1.63-1.22-2.43a5.73,5.73,0,0,1-.47-.37c-.32-.35.14-.61-.26-1-.24-.26-.7-.17-.78-.26l-.08-.09a5.75,5.75,0,0,1-1.06,1.11c-1.16-.07-3.53-1.63-4.68-1.55-.3.27,0,.78-.21,1-.84.44-1.23.31-1.55,0-.16-.18-.24-.42-.4-.6s-.32-.2-.54,0c-.06.54.17.81-.28,1.21-1.21,1.09-1.73-.85-2.26-.37-.3.27,0,.95-.25,1.63a.57.57,0,0,0-.08-.41c-.18-.3-.51-.27-.79-.13a.66.66,0,0,0-.19.89c.18.31.33.36.43.31a1.87,1.87,0,0,0,.37-.24s-.07.1-.12.14c-1.29,1.16-1.49-.74-2.17-.13-.47.42.7,1,.35,1.69a.39.39,0,0,0-.34,0c-.06.06-.06.18,0,.31-.54.39-1.38.3-1.59.49s.1,1,.42,1.38c-.38.34-1.08,0-1.39.29a.35.35,0,0,0,.09.4c.24.26.47.21.79.57a2.51,2.51,0,0,1-.41,2.29c-.08.07-.39,0-.7-.17a.72.72,0,0,0-.77-.1c-.07.22-.07.38,0,.47.32.35.94.44,1.18.7a1.2,1.2,0,0,1,0,1.25Z"/><path class="cls-2" d="M1015.05,653.79c3.35,10,11.16,15.63,20.11,15.63,6.7,0,16.75-2.24,21.23-13.39l2.24-14.52c7.82-1.1,15.63,0,23.46-1.1a11.21,11.21,0,0,1,1.11,3.34,3.87,3.87,0,0,0-2.22-1.12,11.27,11.27,0,0,1,1.11,3.35c0,1.11-1.11,1.11-2.24,1.11-2.24,0-4.47-1.11-6.71-1.11-1.11,0-3.34,0-4.45,1.11a12.26,12.26,0,0,0,7.26,2.23c2.24,0,3.34-.55,5-.55,2.78,0,4.46.55,4.46,2.79,0,14.52-8.93,8.93-19,20.09,8.93-2.23,13.4-8.93,20.11-8.93,6.15,0,4.48,10.05,4.48,14.51,2.21,0,3.34-1.1,4.45-1.1,5.58,0,15.64,13.39,17.88,15.63,2.24-1.12,3.36-2.24,4.47-2.24,14.53,0,8.94,8.93,12.29,17.86,1.11-1.11,1.11-2.23,1.11-4.47a12.21,12.21,0,0,0-1.11-5.58c1.11-1.11,3.35-1.11,4.47-1.11,3.35,0,5.58,1.11,6.69,4.46,1.13,0,1.13-1.12,1.13-2.24s-1.13-2.23-1.13-3.35c0-2.23,3.36-2.23,4.47-2.23s2.24,0,2.24,1.12l3.35,29c2.24,0,2.24-2.24,2.24-4.46-1.11-6.69-3.34-15.63-3.34-23.45,0-3.34,2.23-6.69,6.71-7.81,4.46,14.52,6.69,30.14,8.93,30.14,0-7.25-3.34-15.07-3.34-22.33,0-4.46,2.24-7.81,2.24-11.16,0-2.24-1.13-4.47-1.13-5.58,0-5.59,3.35-11.18,6.71-15.64l5.58,2.22c2.24-2.22,3.35-4.46,6.71-4.46,2.21,0,7.32,1.45,11.52,2.45a79.85,79.85,0,0,1,1,10.52,21.38,21.38,0,0,1-.79,7,2.09,2.09,0,0,0,2.36,2.36s1.57,0,1.57-3.14l-1.19-16.15a13.94,13.94,0,0,0,2.3.27,15.85,15.85,0,0,0,7.4-2c7,2.35,21.47,5.59,26.76,20.25,3.14-2.34,13.33-7.83,13.33-7.83,3.91,0,11,3.92,17.25,3.92a13,13,0,0,0,1.8-1.67,3,3,0,0,0,3.17,2.19,4.09,4.09,0,0,0,4.31-4.34,4.75,4.75,0,0,0-3.31-4.18c5.47-10.48,9.43-25.69,18.31-25.69,0-3.92-3.92-2.35-3.92-4.7s2.35-4.7,2.35-7.84-1.57-6.26-1.57-9.4c0-10.52,13-5.92,14-22.82a15.61,15.61,0,0,1,4.58-3.81c.45.49.93,1,1.42,1.49,1.72,3.82,3.57,7.51,5.26,11.35-9,4.89-14.32,16.4-14.32,29.45,0,2.35,3.13,3.92,5.49,3.92,1.57,0,3.13-1.57,4.7-1.57s6.27,9.4,8.62,11.75c-3.92,6.27-15.69,9.4-15.69,15.66,0,.79,1.57,4.71,4.71,4.71,3.92,0,7.83-5.48,7.83-10.19,9.42-7,9.42-9.39,9.42-11,1.57.78,3.12,1.57,3.12,3.13,0,.78-2.35,1.57-2.35,3.14,0,3.91,8.63,4.69,8.63,8.62,0,8.6-7.06,5.48-7.06,12.53a4.2,4.2,0,0,0,3.92,3.92s6.28-1.57,6.28-4.71c0-2.35-.79-3.92-.79-5.48,0-9.4,20.39-18,29.8-18,1.57,0,2.35.78,3.92.78,11,0,14.91-15.66,14.91-25.85,0-3.91-8.62-10.19-11.76-14.88,0-1.57.78-2.36.78-3.93,0-3.12-.78-5.48-.78-7.83a11,11,0,0,1,4.71-1.57c8.61,0,10.19,14.11,22.73,21.16.79,0,2.36-.79,2.36-1.57,0-42.31,40-19.59,40-32.12,0-7.83-3.14-13.32-3.92-21.15,6.21-17.81,19.28-20.32,19.57-28.7,3.83-4.22,7.82-10.67,7.82-18.79,0-11.26-6.07-24.24-16.48-24.24-2.6,0-5.19.86-7.79.86-1.75-.86-2.6-3.47-5.19-3.47a13.86,13.86,0,0,0-5.31,1.39c-4.11-8.92-8-17.15-8.31-17.15-2.16,0-4.72,1.84-8.39,3,3.69-7.8,14.43-1.73,14.43-11,0-5.58-12.3-4.46-12.3-17.86,0-7.23,6.34-7.54,9.91-10.45,2.79,1.25,5,3.39,5,8.1s-3.14,8.61-3.14,12.54c0,1.56,11.76,14.88,18,16.45,0,3.14.79,6.26,1.57,6.26a11.13,11.13,0,0,1,4.71-1.55c9.4,0,19.6,7.83,22.74,7.83.35,0,2.91-3.92,7.17-8.26,2.11,7.34,7.33,13.75,17.83,13.75a20.89,20.89,0,0,0,12.22-3.7c2.51.8,4.86,1.48,5.3,2.38a15.1,15.1,0,0,0,14.31-9.75c4.4-.68,9-4.93,9-8.52,0-7.06-3.93-10.19-11-11.76a25.38,25.38,0,0,0-3.4,1.11,17.91,17.91,0,0,0-9-2.26,6.35,6.35,0,0,0-1.15.11,19.66,19.66,0,0,0-5.41-5.58,40.22,40.22,0,0,1-4.76-10.67c.74-.59.76-2.24.76-3a9.4,9.4,0,0,0-1.32.12c.68-4.69,9.43-11.48,11.69-19l5.5-.78c2.34-18.81,5.48-36.83,5.48-54.84,0-4.18-.09-8.16-.34-11.9,5.8-.12,9.8-3.3,9.8-8.72,0-6.36-5.08-7.63-9.84-7.79,0,0,0,0,0-.05,0-4.32,2.6-8.66,2.6-13,0-3.46-6.06-6.94-6.06-12.13l.88-.86c0-3.47-5.22-6.05-5.22-9.53a3,3,0,0,1,.87-1.73c0-.86,0-.86-.87-.86,0-.87.87,0,.87-.87,0-6.94-24.26-4.33-24.26-16.46-3.47,0-6.07,3.47-9.53,3.47a2.75,2.75,0,0,1-2.59-2.59c0-10.39,22.54-6.94,24.25-22.53,0-1.72,0-2.59-.87-2.59-4.32,0-13,14.73-19.92,14.73-5.18,0-5.19-16.37-21.57-16.44,0-.14,0-.27,0-.41,3.22-1.37,4.14-3.21,5.52-3.21,1.84,0,3.69.92,4.61.92.46,0,2.3-7.35,2.3-6.89,0-2.76-1.84-5.06-1.84-7.81,0-1.84,4.6-6.43,4.6-6.43,2.75.46,7.36,13.33,13.8,16.08,2.71,1.08,5.26,2.16,7.74,3.15-.13.39-.26.78-.4,1.14.87,0,.87,0,.87.86a11.64,11.64,0,0,0,2.54-.86,42.48,42.48,0,0,0,15,3.06c13.8,0,23-11.49,23-11.49a2.67,2.67,0,0,0,1.83.46V247.6a.45.45,0,0,1,.46-.46c.55,0,.75.16.84.29.81-1.45,3.16-4.29,9.27-10.4h-.45c0-.92,3.68-4.14,3.68-8.27v-3.22a1.58,1.58,0,0,1,.91.46c3.22-6.44,3.69-15.62,3.69-19.3,0,0,0-.47-.92-.47.46-.91.46-1.83.92-2.29-2.77-.47-.47-9.66-2.77-10.11a70.91,70.91,0,0,0,1.84-10.58c-.92,0-3.68-10.11-4.14-11.49a12.65,12.65,0,0,1-.46-4.13c0-3.22.92-5.52.92-8.74,0,0-.92-.46-.92-.91,0,.45,2.75-7.82,2.75-8.27v-6c0-4.13,6.9-9.65,6.9-9.65,2.3,0,4.6,2.76,6.44,2.76,2.3,0,7.36-3.67,10.12-5.05,1.84-.93,2.76-4.6,4.14-5.52,0-12-.92-12.87-10.58-17.92a1,1,0,0,1-.92.91c-.92,0-2.76-1.37-4.6-1.83,0,1.16-.65,1-1.39.94-.18,1-11,5.1-11,13.3,0,3.67,5.53,9.19,5.53,11.49,0,.46-12,13.33-15.19,13.33-11-2.3-12.87-12.87-18.39-14.26,0-.45.46-.45.46-.91,0,0-5.52-5.52-6.9-5.52h.46c-4.6-.46-3.68-2.76-6.9-2.76-12,0-12.42,6.44-16.1,9.65,0,.46-9.2,9.19-9.2,11.49v.92a1.7,1.7,0,0,0-1.38-.92c-.55,0-1.44.69-2.84,2.68a19.61,19.61,0,0,0,.35-3.38c0-.86-1.72-.86-1.72-1.73.85,0,1.72,0,1.72-.88s-1.72-2.59-3.47-2.59c-3.47,0-6.07,13.87-6.95,19.93,0,1.72.88,2.59,1.75,2.59a3.64,3.64,0,0,0,2.26-1,5.7,5.7,0,0,1-3.53,3.19c-.92-1.84-2.77-5.05-5.06-6v.47c-.92,0,.46-3.68-1.38-3.68-.92,0-3.22,2.76-3.22,3.22-6.45,0-8.74-5.51-12-5.51s-8.29,0-8.29,4.14c0,1.37,1.84,1.84,3.69,1.84,2.75,0,5.52-.47,7.36-.47,6,0,10.58,3.22,10.58,10.58,0,4.59-6,4.59-6,10.57,4.6,2.76,10.58,8.73,10.58,29-2.76-.46-6-10.58-6-13.33,0-9.2-8.28-4.14-11-8.74-11-8.27-.92-14.24-18.86-14.24-1.38,0-6.9-5.06-7.36-5.06h-4.61c-3.22,0-5.52,2.3-9.19,2.75-6,0-6.45-6-11.5-6s-5.52,9.18-10.59,9.18c-4.59,0-5-3.22-8.74-3.22-2.76,0-3.22,1.84-3.22,4.15,0,2.75,1.38,2.29,1.38,3.67,0,2.3-4.6,6.43-5.52,6.89-.46.46-.46.46-.92.46-1.37,0-1.37-1.37-3.22-1.37-2.3,0-6,.91-6,3.67,0,1.84.47,3.22.47,4.6,0,6-11.5,3.22-11.5,6,0,6.43,8.74,3.22,8.74,8.28,0,5.52-9.2,9.65-9.2,9.19,0,1.84,4.14,4.6,4.14,7.35,0,10.58-12.88,5.52-13.8,10.58,1.38.45.92,1.38,4.13,1.38,2.31,0,4.15-.93,6.45-.93,3.22,0,5.06,2.77,5.06,6.44a57,57,0,0,1-.92,6,31.31,31.31,0,0,1,1.62,4.32h-.17c-1.72,0-3.47.86-5.19.86-3.47,0,.84-8.66-4.35-8.66,0,4.33,1.75,8.66,1.75,13.85,0,2.6-.87,3.45-1.75,3.45a8.63,8.63,0,0,0-2.59-.86c-2.6,0-6.07,1.73-8.66,1.73a6.69,6.69,0,0,1-4.34-1.73c-2.6,0-23.39,29.44-35.52,29.44-1.75,0-3.47-1.72-4.35-2.59.88.87.88.87.88,1.72a10.13,10.13,0,0,1-8.13-3.82c2.12-19.89,0-39.74,3.28-56.31-5.13,0-4.61,37.69-5.35,53.34-1.94-3.33-3.4-7.29-5.41-10.51-4.34-12.13-14.76-10.4-25.14-12.13-5.19,0-7.82-6.06-17.35-6.06a4.45,4.45,0,0,0-3.44,1.72c-3.47,0-6.06-.86-9.53-.86-12.13,0-20.83,19.92-26.89,21.65l.87-.86c-6.94,0-5.19,12.13-13,13.84a11.31,11.31,0,0,1-6-1.58c-.16-.17-.31-.35-.47-.5l-.15.16a8.51,8.51,0,0,0-4.62-1.53c-17.35,0-27.73,19.91-31.2,19.91a15.26,15.26,0,0,1-2.28-.2,4.58,4.58,0,0,1-.09-.8c0-3.68,2.31-6.43,2.31-10.11,0-2.76-.46-5.51-.46-8.73,4.15-2.29,12.88-19.76,12.88-22.06-3.22-3.22-10.12-8.73-10.12-14.24,0-4.6,3.22-13.79,4.15-20.23-1.38-.92-9.21-6.43-9.21-6.43a1.61,1.61,0,0,0-.92.47s-2.31-1.84-3.22-2.77c0,0-2.31-11-7.37-11-1.38,0-2.76.46-3.67.46-10.12,0-4.15-12.87-10.12-12.87-1.38,0-2.3,1.84-3.22,1.84-2.76,0-7.82-2.3-10.12-5.06a140.88,140.88,0,0,1-18.4-18.38c0-3.68,1.84-6.9,3.68-10.58-.91-.46-.46,0-.91-.91-5.06,1.38-2.31,6.89-9.66,6.89-2.31,0-4.6-.45-6.9-.45h.93c0-.92-12.89-4.6-25.3-4.6v-.92c-6-.91-9.66-4.13-9.66-6.43a20.29,20.29,0,0,0,.45-2.3c0-1.84-3.22-1.84-6.44-2.76-1.38,1.38-5.51,3.68-10.57,3.68a8.91,8.91,0,0,0,.46-3.68c0-1.84-.93-2.3-3.22-2.3q.67,6.21,1.38,12.41c0,2.75-2.77,6.9-10.12,14.24h.46c0,1.39-7.83,6.9-7.83,9.2,0,0,0,.05,0,.08-2.78.81-6.93,8.65-7.37,8.65a1.12,1.12,0,0,1-.54-.17c-.38,1.28-3.14,2.47-3.14,2.47-.92,0-7.82,7.81-21.62,7.81-8.28,0-12,12.42-15.63,12.42-12.88,0-16.56-12.42-23-13.33l-.93.91c.93.93,1.84,3.68,2.31,3.68s.91-.47,1.38-.47c1.37,3.22,5.52,6,8.74,7.82,0,0,14.72,5.06,14.72,11.49,0,.92-1.38,13.33-13.34,13.33-10.59,0-6-10.57-15.18-10.57-4.6,0-5.53,1.38-5.53,6.43,1.85.92,3.69,1.84,4.15,4.14,0,3.22-2.75,2.76-5.06,2.76-.91-2.3-4.6-.46-6.44-3.68-1.38-.47-3.69-1.84-5.53-1.84-1.38,0-2.75,2.3-2.75,2.76,0,10.11,13.81,2.76,13.81,14.71,0,.92-.46,2.29.91,2.29,0,.46-.91,3.22-1.38,3.22a.46.46,0,0,0-.47.47c0,6-11,.91-11,12.4,0,9.66,8.28,8.74,8.75,15.63,6,8.73,10.57,11.49,10.57,13.79,0,1.83-.47,3.22-.47,4.59v3.68c0,.92-6,3.68-6,6.89,0,4.59,8.75.47,8.75,6.9,0,4.59-7.84,6-7.84,11,0,.93,1.85,2.3,3.69,2.3,1.38,0,4.6-2.3,6.9-2.3a1.8,1.8,0,0,1,.56.09,11.24,11.24,0,0,0-.38,2.91,8.14,8.14,0,0,0,2.66,6.1c-.06.79-.09,1.59-.09,2.38,1.84.46,2.3,5.06,4.61,5.06,9.19,0,.45,12.42,16.1,15.63,3.67.46,3.67,2.75,6.44,4.59-.47,1.84,0,5.06-1.84,5.52.47,3.22,1.84,3.67,3.69,3.67,2.29,0,5.06-.91,6.9-.91h7.35c2.76,0,5.52-1.84,8.74-1.84.58.88,2.29,1.58,4.06,2.91-.47.35-.91.7-1.4,1-1.75.85-6.06,15.59-6.06,21.64,0,11.26,13.85,18.2,25.13,18.2,13,0,15.6-7.81,22.51-11.28,2.6,2.61,6.94,3.47,10.41,3.47,12.13,0,26-6.06,29.45-6.06,2.63,0,6.94,1.75,10.41,2.59,4.34,0,11.26-.85,11.26-3.45a20.75,20.75,0,0,0,6.94,1.73c3.47,0,9.53-1.73,9.53-5.2,0-.86-.87-1.73-1.72-2.6,1.72,0,6.07-7.79,6.91-8.66a17.19,17.19,0,0,0,4.11-1.38c7.76,7.23,14.44,13.93,14.44,15.32,0,1.12-3.37,2.24-5.6,3.35-4.46,0-6.69-3.35-11.17-3.35-5.58,0-5.58,3.35-5.58,6.71s13.4,3.34,20.11,8.92c0,2.14-.06,4.48-.21,6.91a7.94,7.94,0,0,0-1.34-.11c0,2,.48,2.91,1.08,3.28-.84,8.09-3,16.53-8.47,21.19-14.53,0-23.46,12.27-33.51,12.27-5.58,0-11.16-2.24-14.53-2.24a3.93,3.93,0,0,0-2.23,1.12c0,3.35,10.05,4.47,13.42,4.47,1.11,0,3.35-1.12,4.45-1.12a17.15,17.15,0,0,0,11.19,4.46c3.35,0,6.69-1.11,10.06-1.11,10.59,0,13.7,8.29,14.36,18.45A12.74,12.74,0,0,0,1127,489c0,1.72-.87,3.47-.87,4.33a3.78,3.78,0,0,0,.1.83c-7.47.07-19.54.66-19.54,5.57,0,5.58,26.8,4.47,26.8,12.28a10,10,0,0,1-.17,1.73,24.16,24.16,0,0,0-4.82,1.44c-2.35.78-3.13,2.35-3.13,3.92a2.6,2.6,0,0,0,.29,1.16c-5.4,1.37-12,1.78-14.52,7.37,0,2.24,2.24,4.47,2.24,6.71,10.05,0,11.18-8.94,20.11-8.94,6.71,0,7.82,8.94,7.82,15.63-1.11,0-1.11,1.12-1.11,2.22,0,2.24,1.11,4.47,1.11,5.59-4.45,8.93-23.46,4.46-23.46,15.63,0,5.58,4.47,8.92,4.47,15.63,0,3.34-6.71,1.11-6.71,6.69,0,3.35-13.4,15.64-19,15.64-2.24,0-8.95-3.37-10.06-3.37-2.24,0-4.47,2.24-6.71,2.24,0,7.81,6.71,12.28,6.71,20.09,0,11.17-11.18,17.86-25.7,17.86-8.95,0-11.18-12.28-26.81-12.28-21.24,5.59-16.77,17.86-19,26.8"/><path class="cls-3" d="M-118.7-106.47l-1.56-.83c-.84,1.56-.94,5.52-1.77,7.08s-7.1-1.76-10.43,4.49c-.83,1.56-1.67,3.13-.11,4s5.54.94,7.09,1.77c1.48,4.81-2,15-4.46,19.69-5.85,11,9.89,15.35,7.4,20-.84,1.56-2.4.73-5.74,7,3.12,1.66,7.1,1.76,10.22,3.42,0,0,11.56,12.19,8.22,18.46-.83,1.55-4,3.85-4,3.85l-.12,4c1.59.85,15.12-2,26.08,3.88C-83.22-7.2-92.31,6-89.18,7.69-87.61,8.53-81,0-76.34,2.47c1.58.84,3.85,4.07,4.57,6.46,7.22-2.18,5.12-13.32,14.5-8.33,1.56.84,2.2,7.21,6.89,9.7l5-9.39c3.12,1.67,5.42,4.9,7,5.73,7.83,4.17,8.26-11.67,16.9-9.07C-15.27.92-16.93,4.06-9.1,8.23c1.67-3.13.92-5.55,1.75-7.11C-5.68-2-3.25-2.75,2.26-1.81,3.71,3,1.11,11.64-2.23,17.91c-3.12-1.67-5.63,3-7.29,6.14,6.9,9.68,13.35,5.11,5.84,19.2l.84-1.57c3.13,1.66.93,24.59,7.2,27.93,1.56.83,1.67-3.12,4.8-1.45,17.2,9.18,7.29,24,15.11,28.15,4.69,2.5,8-3.76,11.15-2.08,7.83,4.18,12.41,10.64,21.8,15.65.77-1.45,5.58-4,8.79-3.09l-.76-.69,1.56.83c-.23-.12-.54,0-.8-.14,3,2.8,13.31,14.37,3.94,31.94,2.39-.73,3.94.1,4.77-1.46s-2.9-9.59,1.26-17.39c9.18-17.22,30.33-7.95,30.33-7.95,1.58.85,1.58.85.75,2.41,1.54.82,3.95.1,3.95.1.1-4,1.06-9.47,1.9-11,14,3.15,23-7.72,37.91-2.21-2,5.15-3.52,9.31-4,10.52a420.75,420.75,0,0,0,39.06,43.94c7.23-16.37,18-20.9,35.12-16.41-.35.67,4.75,17.47,6.12,18.2,11.65,6.21,14.37-18.71,36.29-7,0,0,8.41,10.63,7.67,12,6.52,2.59,10.63,4.78,15-1.69,1.46-2.74,2.23-5.86,3.33-7.91C292,148,320.28,128,338.08,137.46c4.12,2.2,3.6,8.08,7.7,10.27,3.44,1.83,7.68-1.18,8.42-2.56,4-7.53-4.12-15.38-.82-21.56,14.55.73,10.91-5.59,21.85.24-1.45,2.73,5.39,6.38,6.78,7.11s5.24-1.6,6.69-4.33c3.3-6.17-4.93-10.56-.54-18.76,4.74-8.9,11.86-2.46,19-9.23-1.36-.73-1-1.41-.63-2.09s1.77-1.69,2.14-2.38c.74-1.38-2.55-8.39-.72-11.82,2.74-5.13,12.56-8.72,22.07-11.69-2.06,4.07-1.7,8.47,5.69,12.41a6.4,6.4,0,0,0,3.12.81c-1.17,2.76-.27,3.28.59,3.75a4.48,4.48,0,0,0,3.72.65c1.07-2,1.13-4.48-.72-5.69a14.47,14.47,0,0,0,4.18-5.13c-.68-.37-6.79-5.4-6.06-6.78l-3.85-2.05c6.76-2.07,12.33-3.94,13.44-6,3.52-1.61,8.9,4.76,10.35,2A39.28,39.28,0,0,1,468,70.38c1.08-2,4.83.84,5.5,1.19,1.19-5.52-2.58-6.67-6.7-8.85-.73,1.37-14.84-3.52-17.58-5-8.92-4.75-14.47-17.41-10.46-24.93.7.37,12-7.67,20.24-3.29,2.73,1.45,30.12,2.87,33.7-.5-5.85-2.24-13.2,0-19.37-3.29a86.62,86.62,0,0,1-11.58-7.94c-.74,1.37-5.58.54-9.68-1.65C449.3,14.68,441.85,7.21,447-2.39L452.07-12c1.82-3.42.22-8.66,4.61-16.9,4.15.46,9,1.29,13.15,1.75A104.8,104.8,0,0,0,487-28.81a2.86,2.86,0,0,0,.42.31c1,.51,1.91,1,3.31-1.19,4.06-1.16,7.48-2.85,8.8-5.33,1.84-3.45-3.42-1.82-1.58-5.27-12.34-6.56-24.07,3.9-39.83-4.51,0,0-9.37-13.8-2.07-27.49,4.39-8.22,12.67-5.56,16.68-13.09,2.2-4.12.44-4.16-4-7.41-1.1,2.06-14.33,3.78-17.82,3.71a7,7,0,0,1-3.78-1.14c-5.46-2.91-6-21.69-4.93-23.73,1.06-.33,27.49-15.26,41.41-16.62,2.2-4.12,3.07-10.69-3.11-14,.7.37-15,3.42-18.67,10.27-2.42-.42-16,15.22-31.83,8.54.73-1.36-.27-2.78-1.63-3.5-.71-.39-2.43-.42-3.12-.78-2.74-1.46-6.7-8.86-5.6-10.91.37-.69,1.77-1.69,2.5-3.06a2.47,2.47,0,0,0-1-3.16c1.46-2.73,4-4.07,5-6.1s.17-6.95-3.24-8.77c-7.54-4-13.75,7.61-20.6,4-2.75-1.46-3-6-1.46-10.46,1.46-2.74,4.8-10.63,8.21-8.81,1.46-2.75,1.24-7.26,2.7-10,4.75-8.91,17.54-6.48,25.21-20.86l-6.85-3.66c-1.82,3.43-3.84.59-6.4,5.39-1.82,3.43-3.71,8.59-4.07,9.27-4.78-2.54-13.86,12.83-18,10.64-8.41,15.75-27.39,11.78-46.29,4.33,0-1.72-1-3.14-1.29-4.18.37-.7,1.8-1.72,2.52-3.07a2.47,2.47,0,0,0-.94-3.13,62.47,62.47,0,0,0,6.83-9.56c-4.8-2.56,6.41-31.78,1.6-34.34-2.2,4.12-4.7,7.18-6.9,11.29a26.61,26.61,0,0,0-3,7.21c-3.42-1.83-9.67,11.55-10.77,13.61-.69-.37-24.92,23.65-37.25,17.07-6.18-3.29-7-13.38-13.09-16.65-6.33,1.91-9.57,6.35-14.54,10.73-.68-.36-12.55,2.09-13.28,3.44-3-2.49-7.12-6.41-10.54-8.24-4.12-2.18-10.18,4.25-17.44,3,.27,2.77,1.2,7.67-.26,10.4-6.22,11.65-17-2.88-30.1,8.6-1.1,2.05-.92,8.3-2,10.37-.36.67-5.24,1.59-6.61.86-2.75-1.47-4.73-4.3-7.5-5.76-4.09-2.18-5.83-2.22-7.29.52-2.2,4.11,4.14,13.63-1.33,23.91-1.23-.67-1.35-.72-1.9.31-15.84,29-26,64.16-65.37,84.31,5.11,1.76,10.41,5.63,15.66,9.46a17.5,17.5,0,0,1-8.12-2.07c-14.08-7.5-6.9-9.67-19.42-16.37-6.46,4.57-12.92,9.17-20.74,5-1.56-.84-2.31-3.24-2.19-7.21-2.42.74-5.53-.91-8.66-2.59a1.75,1.75,0,0,0-.74-2.42L68.48-77c-1.67,3.11,2.89,9.58.4,14.25,0,0-35.33,17.31-41.6,14-4.69-2.5-1.14-16.68,1.36-21.36,1.67-3.13,15.75,4.38,18.25-.31.84-1.57.08-4,.08-4-4.4-2.35-11-.68-15.66-2.55.41.37.66.57.66.57l-1.58-.83a7.73,7.73,0,0,0,.92.26c-2.64-2.39-12.56-12.33-7.48-21.84,1.67-3.14,4.92-5.42,9-9.28-6.25-3.33-11.88-.33-16.58-2.84-.63-6.33-8.14-22.39-8.14-22.39,4.07-3.86,7.42-10.12,9.91-14.81-6.25-3.34-15.54,17.82-18.66,16.16-7.82-4.18-5.22-12.8-8.34-14.46-4.71-2.51-4.91,5.39-17.42-1.29-4.69-2.5.2-7.9-2.93-9.56-9.4-5-17.73,10.61-24,7.28-7.8-4.16-.16-24.18-8.76-28.78a197,197,0,0,0-2.29,26.9c-14.4,4.4-31.08,5.53-32.75,8.66-.83,1.56-1.67,3.12,1.48,4.8-9,9.27-25,16.78-28.18,15.1a1.73,1.73,0,0,1-.72-2.39c-1.67,3.13,3,5.63,6.15,7.3C-114.52-114.29-116.19-111.17-118.7-106.47Z"/></svg>