<svg id="Layer_1" data-name="Layer 1" xmlns="http://www.w3.org/2000/svg" xmlns:xlink="http://www.w3.org/1999/xlink" viewBox="0 0 1719.99 959.8"><defs><style>.cls-1{fill:#2793e0;}.cls-2{fill:#ffb700;}.cls-3{fill:url(#linear-gradient);}.cls-4{fill:url(#linear-gradient-2);}</style><linearGradient id="linear-gradient" x1="910.1" y1="415.25" x2="1586.5" y2="415.25" gradientUnits="userSpaceOnUse"><stop offset="0" stop-color="#0055b8"/><stop offset="1" stop-color="#052750"/></linearGradient><linearGradient id="linear-gradient-2" x1="324.77" y1="594.89" x2="79.24" y2="169.6" gradientTransform="translate(0 -430)" xlink:href="#linear-gradient"/></defs><title>splatter-very-strong-blue</title><path id="Path" class="cls-1" d="M567.8,14c3.1.6,4.6-3,6.3-3.5,1.2,1.8,1.8,2.8,3.4,3.1,2.3.5,3.4-.9,5.2-2.1.1,3.2,2.9,5.4,6.7,6.2a8.44,8.44,0,0,0,5.8-1.2c.6.9-.4,13.5,5.7,14.8,1.5.3,2.5-.3,4,0-.8,3.8-4,4-4.7,7-.8,3.8,2.7,6.2,1.8,10.8s-6.3,3.5-7.4,8.9c-.8,3.8,2.1,5.2,1.8,6.8-.2.8-.2.8-.9.6-1.5-.3-2.6-2.9-5.7-3.6-.8-.2-6,2-7.1,7.3-2.3-.5-3.5-2.3-5.8-2.8-3.8-.8-2.6,1-5.4,2.9a7.21,7.21,0,0,0-4.9-3.4,9.77,9.77,0,0,0-4.8-.2c-1.2-1.9-1.5-4.3-3.8-4.8-.8-.2-1.7.5-2.5.3s-8.2-18.5-10.2-20.5c.6-3.1,3.6-5.7,4.2-8.7.5-2.3-.7-4.2-1-6.6C561.8,24,553.2,11,567.8,14" transform="translate(133.49 236.7)"/><path id="Path-2" class="cls-1" d="M776.3,64.3c.8.2,1.2-.8,1.7-.9.3.5.5.7.9.8.6.1.9-.2,1.4-.6,0,.9.8,1.4,1.8,1.6a2,2,0,0,0,1.5-.3c.2.2-.1,3.6,1.5,3.9.4.1.7-.1,1.1,0-.2,1-1.1,1-1.2,1.9s.7,1.6.5,2.8-1.7.9-2,2.4c-.2,1,.6,1.4.5,1.8,0,.2,0,.2-.2.2-.4-.1-.7-.8-1.5-.9a2.59,2.59,0,0,0-1.9,2c-.6-.1-.9-.6-1.5-.7-1-.2-.7.3-1.4.8a2,2,0,0,0-1.3-.9,2.85,2.85,0,0,0-1.3,0c-.3-.5-.4-1.2-1-1.3-.2,0-.5.1-.7.1s-2.2-4.9-2.7-5.4c.2-.8,1-1.5,1.1-2.3a6.15,6.15,0,0,0-.3-1.8c3.4-.4,1.2-3.9,5-3.2" transform="translate(133.49 236.7)"/><path id="Path-3" class="cls-2" d="M95.3,246.9c.7-.7,1.4-.7,2.9-.7.2-1.1-1.6-3.4-.2-4.9,6.2-6.9-4.3-7.2-1.2-14.9-1.6-.8-3.1-.8-4.4-2-1.7-1.5-2.4-4.2-4.1-5.7-1.8.3-15.4-2.6-15.7-2.2v.1c-.6-3.6-1-7.4-1.2-7.8s-.7-.9-1.1-.6c0,0,.2,6.6,1.6,10-1,.8-2.5.1-3.9.1a5.22,5.22,0,0,1-1.4,2.5,2.2,2.2,0,0,0,.1-.8,3.1,3.1,0,0,0-2.3-.6c-.8.5-.2,1.4.2,1.9a2.18,2.18,0,0,0,.8.5,5.42,5.42,0,0,1-2.5.6c.3,2.2,1.8,2.3.2,4.1-1,1.1-2.5,1.1-3.5,2.2,3,2.7,2.7,6.4,2.4,6.8-1.3,1.5-3.2,1-3.9,1.8-.3.4-.3.4.1.7.9.8,2.6-.3,4.7,1.6,3,2.7.7,5.2,3.2,7.5s5,1.2,7.2,3.1c1.7,1.5.8,3.4,2.9,5.3.7-.7.6-1.5,1.2-2.2,2.6-2.9,10.1,2.5,10.9,2.5a4.89,4.89,0,0,1,1-3.7c1.7-1.8,3.8-2.5,5.8-1.3-.2-1.8-.8-2.9.2-3.9Z" transform="translate(133.49 236.7)"/><path id="Path-4" class="cls-1" d="M870.8,185.8c-1.7,0-2.5-.7-4.1-2.1-1.7.7-2.5,4.3-5.8,4.3-15.6,0-4.1,10-17.2,13.7.8,2.2,2.5,3.6,2.5,5.8,0,2.9-2.5,5.7-2.5,8.6,2.5,1.4,14,16.5,14.8,16.5h.1c-3.7,3.6-8.1,7.1-8.3,7.7s-.4,1.4.4,1.6c0,0,8-5.7,10.7-9.9,2.1.3,2.9,2.2,4.4,3.6a10.78,10.78,0,0,1,4.7-.7l-1.2.6c-.2.7,1,2.4,1.8,2.6,1.6.3,2-1.1,2.2-1.8a1.13,1.13,0,0,0-.3-1.1,8,8,0,0,1,3.5,1.9c2.5-2.1.8-3.6,4.9-3.6,2.5,0,4.1,1.4,6.6,1.4,0-5,4.9-7.9,5.8-7.9,3.3,0,4.9,2.1,6.6,2.1.8,0,.8,0,.8-.7,0-1.5-3.3-2.2-3.3-5.8,0-5,5.7-5,5.7-9.4s-4.1-5.7-4.1-9.3c0-2.9,3.3-3.6,3.3-7.2-1.6,0-2.5.7-4.1.7-6.6,0-8.2-11.5-9-12.2a9.86,9.86,0,0,1-5.8,2.2c-4.1,0-7.4-1.5-8.2-4.3-1.6,1.3-2.5,2.7-4.9,2.7Z" transform="translate(133.49 236.7)"/><path id="Path-5" class="cls-1" d="M1080.2,87.3c.2,0,.3.1.3.2a.46.46,0,0,0,.5-.4,2.08,2.08,0,0,0,0-.8,3.13,3.13,0,0,1,.9-1.1c.9.1,1.4,1,2,1.1.1,0,.1-.1.1-.2a2,2,0,0,1-1.4-2c.2-1.4,1.8-2.1,2.4-3.2l1.2.2a4.74,4.74,0,0,0-1,1v.1a12,12,0,0,1,1.2-1.1h.2l-.1-.1c.1-.1.2-.1.2-.2s.1-.2,0-.2-.2.1-.4.3a7.37,7.37,0,0,0-1.4-.4h-.5c-.4-.1-.4-.7-.4-1.2.2-1.4,1.2-.2,1.4-1.1,0-.3-.9-.3-1.2-1,.1,0,.2-.2.2-.2a.31.31,0,0,0-.1-.2h-.2l1.1-.4a.1.1,0,0,0,.1-.1.84.84,0,0,0-.4-.7c-.3,0-.5.2-.6.2-.4-.1-.5-.6-.5-.9a1.35,1.35,0,0,0,.9-.9c0-.1,0-.2-.2-.2a1.27,1.27,0,0,0-.6.1,1.06,1.06,0,0,1-1-1.2c0-.3,1.2-1.2,1.2-1.2h-1.2c0-.2-.1-.3-.3-.4a.55.55,0,0,0-.6.4h0l-1.2-.9c.1-.9.9-1.4.9-1.8,0-.1,0-.2-.2-.2-.6-.1-.9,1.4-1.6,1.3a.56.56,0,0,1-.5-.6h0a.35.35,0,0,1,.1-.2h0c.2,0,.2,0,.2-.1.1-.3-.7-.6-.7-.7v.2c-.2.1-.5.4-.8.4-.8-.1-.7-.8-.6-1.6-.1.3-.4.6-.6.5-.4-.1-.6-.6-1-.7s-.3,1-1.9.7c-.4-.1-.3-.8-.3-1-1.1,0-.8,1.7-2.3,1.5-.2,0-.4-.3-.6-.3s-.4.2-.5.6h-.1v.1c-.2.4-.5.9-1,.8-.2,0-.3-.3-.5-.4-.1.1-.2.1-.3.2,0-.2-.1-.3-.3-.4a.6.6,0,0,0-.4-.1.64.64,0,0,0,0,.6c-.2,0-.5.1-.7.6-.2-.1-.3-.1-.4.2a.4.4,0,0,0,.2.4h.1c0,.2-.1.3-.1.6a7.37,7.37,0,0,1-1.4-.4c.2-.2.5-.4.7-.6,0-.1.1-.2,0-.2a4.67,4.67,0,0,0-1.5,1.4v.1a2.18,2.18,0,0,1,.5-.4c0,.5.6.8,1,1.2a9.48,9.48,0,0,1-2,2c-.1,0-.2-.1-.3-.1s-.4.1-.4.2h0a5,5,0,0,0,.4,1.3c-.3.2-1.1,1.6-1.8,1.5l-1.5-.2c.3.2,1.5.4,1.5.7s-.1.3-.2.5,0,.3.1.4a1.48,1.48,0,0,1,.7-.1.63.63,0,0,1,.6.5l-.1.1v.1h.1v.2c-.1.9-.8,1.2-1,2.1V82c-.1.4-.5.2-.6.7,0,.3.3.6.3.7V83a6.6,6.6,0,0,1,1.4.1c.6.8.9,3.2,1.6,4,.4.1.5-.4.8-.4.8.3.9.7.8,1.1,0,.2-.2.4-.2.6s0,.3.3.4c.4-.2.5-.6,1-.5,1.4.2.4,1.6,1,1.7.3.1.7-.5,1.3-.7-.1.1-.2.2-.2.3-.1.3.1.5.4.6a.61.61,0,0,0,.7-.3c.1-.3.1-.4,0-.4s-.2-.1-.4-.1h.2c1.5.2.3,1.4,1.2,1.5.6.1.3-1,1-1.1a.2.2,0,1,0,.4,0c.6.2,1,.8,1.2.8s.7-.6.7-1c.4.1.6.7,1,.8.1,0,.2-.1.2-.3s-.1-.4-.1-.8a2.14,2.14,0,0,1,1.8-.9q.15,0,.3.6a.62.62,0,0,0,.4.6q.3-.15.3-.3c.1-.4-.2-.9-.2-1.2a1.12,1.12,0,0,1,.8-.7Z" transform="translate(133.49 236.7)"/><path id="Path-Copy" class="cls-2" d="M1356.5,143a.1.1,0,0,1-.1-.1.37.37,0,0,0-.3.1c-.1.1-.1.2-.2.3a2.19,2.19,0,0,1-.5.3c-.3-.2-.3-.6-.5-.8a.1.1,0,0,0-.1.1,1,1,0,0,1,.2,1c-.3.5-1,.5-1.4.9l-.4-.3a.76.76,0,0,0,.5-.2v-.1a1.45,1.45,0,0,1-.7.2h-.2s-.1.1,0,.1l.2-.1.4.4c.1,0,.1,0,.2.1s0,.3-.1.5c-.3.5-.5-.1-.7.2-.1.1.3.3.3.6a.1.1,0,0,0-.1.1v.1h-.5a.19.19,0,0,0,0,.3c.1.1.2,0,.3,0s.1.3,0,.4-.4,0-.5.2v.1h.2a.48.48,0,0,1,.2.6v.1a2.54,2.54,0,0,1-.7.2l.5.2h0c0,.1,0,.2.1.2s.2,0,.2-.1h0l.3.6c-.2.3-.6.4-.7.6v.1c.2.1.6-.4.8-.2a.37.37,0,0,1,.1.3.1.1,0,0,0-.1.1h-.1a1.42,1.42,0,0,0,.2.4v-.1c.1,0,.3-.1.4,0,.3.2.1.4-.1.7.1-.1.2-.2.3-.1s.1.3.3.4.3-.3.8,0c.1.1,0,.4-.1.4.4.2.6-.5,1.1-.2.1,0,.1.2.2.2a.37.37,0,0,0,.3-.1h0c.2-.1.3-.3.5-.2s.1.1.1.2h.1v.2a.1.1,0,0,0,.1.1c.1-.1.1-.1.1-.2s.3,0,.3-.1c.1.1.1.1.2,0v-.2h0l.1-.2a.78.78,0,0,1,.4.4c-.1,0-.2.1-.4.1,0,0-.1.1,0,.1a1.14,1.14,0,0,0,.8-.3v-.1l-.2.1c.1-.2-.1-.4-.2-.6a3.58,3.58,0,0,1,1.1-.4.1.1,0,0,0,.1.1c0,.1.1.1.2,0h0a1.27,1.27,0,0,0,.1-.6c.1,0,.7-.4.9-.3l.5.3c-.1-.1-.5-.4-.4-.5s.1-.1.2-.2v-.2a.37.37,0,0,1-.3-.1c-.1-.1-.2-.2-.2-.3h0m.4.1h0c.2-.4.5-.4.7-.7,0-.1.1-.1.1-.2s.2,0,.3-.2,0-.3,0-.3h0c-.2-.1-.3-.2-.5-.3-.1-.4.2-1.4.1-1.8-.1-.1-.3.1-.4,0a.47.47,0,0,1-.1-.6c.1-.2.1-.1.2-.2s0-.1-.1-.2-.3.1-.4,0c-.5-.3.1-.7-.1-.8s-.3.1-.6.1c.1,0,.1,0,.1-.1s0-.2,0-.3a.19.19,0,0,0-.3,0c-.1.1-.1.1-.1.2l.1.1h-.1c-.5-.3.1-.6-.2-.8s-.3.3-.6.3V143h-.1c-.2-.1-.2-.5-.3-.5a.54.54,0,0,0-.4.3c-.2-.1-.1-.4-.2-.5s-.1,0-.1.1,0,.2-.1.3a.8.8,0,0,1-.8.1v-.3a.19.19,0,0,0,0-.3h-.2c-.1,0-.1.4-.1.5s-.3.2-.4.1Z" transform="translate(133.49 236.7)"/><path id="Path-Copy-2" class="cls-2" d="M1193.4,149a.1.1,0,0,1-.1-.1.37.37,0,0,0-.3.1c-.1.1-.1.2-.2.3a2.19,2.19,0,0,1-.5.3c-.3-.2-.3-.6-.5-.8a.1.1,0,0,0-.1.1,1,1,0,0,1,.2,1c-.3.5-1,.5-1.4.9l-.4-.3a.76.76,0,0,0,.5-.2v-.1a1.45,1.45,0,0,1-.7.2h-.2s-.1.1,0,.1l.2-.1.4.4c.1,0,.1,0,.2.1s0,.3-.1.5c-.3.5-.5-.1-.7.2-.1.1.3.3.3.6a.1.1,0,0,0-.1.1v.1h-.5a.19.19,0,0,0,0,.3c.1.1.2,0,.3,0s.1.3,0,.4-.4,0-.5.2v.1h.2a.48.48,0,0,1,.2.6v.1a2.54,2.54,0,0,1-.7.2l.5.2h0c0,.1,0,.2.1.2s.2,0,.2-.1h0l.3.6c-.2.3-.6.4-.7.6v.1c.2.1.6-.4.8-.2a.37.37,0,0,1,.1.3.1.1,0,0,0-.1.1h-.1a1.42,1.42,0,0,0,.2.4v-.1c.1,0,.3-.1.4,0,.3.2.1.4-.1.7.1-.1.2-.2.3-.1s.1.3.3.4.3-.3.8,0c.1.1,0,.4-.1.4.4.2.6-.5,1.1-.2.1,0,.1.2.2.2a.37.37,0,0,0,.3-.1h0c.2-.1.3-.3.5-.2s.1.1.1.2h.1v.2a.1.1,0,0,0,.1.1c.1-.1.1-.1.1-.2s.3,0,.3-.1c.1.1.1.1.2,0v-.2h0l.1-.2a.78.78,0,0,1,.4.4c-.1,0-.2.1-.4.1,0,0-.1.1,0,.1a1.14,1.14,0,0,0,.8-.3v-.1l-.2.1c.1-.2-.1-.4-.2-.6a3.58,3.58,0,0,1,1.1-.4.1.1,0,0,0,.1.1c0,.1.1.1.2,0h0a1.27,1.27,0,0,0,.1-.6c.1,0,.7-.4.9-.3l.5.3c-.1-.1-.5-.4-.4-.5s.1-.1.2-.2v-.2a.37.37,0,0,1-.3-.1c-.1-.1-.2-.2-.2-.3h0m.4.1h0c.2-.4.5-.4.7-.7,0-.1.1-.1.1-.2s.2,0,.3-.2,0-.3,0-.3h0c-.2-.1-.3-.2-.5-.3-.1-.4.2-1.4.1-1.8-.1-.1-.3.1-.4,0a.47.47,0,0,1-.1-.6c.1-.2.1-.1.2-.2s0-.1-.1-.2-.3.1-.4,0c-.5-.3.1-.7-.1-.8s-.3.1-.6.1c.1,0,.1,0,.1-.1s0-.2,0-.3a.19.19,0,0,0-.3,0c-.1.1-.1.1-.1.2l.1.1h-.1c-.5-.3.1-.6-.2-.8s-.3.3-.6.3V149h-.1c-.2-.1-.2-.5-.3-.5a.54.54,0,0,0-.4.3c-.2-.1-.1-.4-.2-.5s-.1,0-.1.1,0,.2-.1.3a.8.8,0,0,1-.8.1v-.3a.19.19,0,0,0,0-.3h-.2c-.1,0-.1.4-.1.5s-.3.2-.4.1Z" transform="translate(133.49 236.7)"/><path id="Path-Copy-3" class="cls-1" d="M475.8,208.5a.78.78,0,0,0-.2.8c.2.4.4.6.5.8a2.92,2.92,0,0,1-.1,1.6c-.9.5-2-.1-2.5.2v.3a2.1,2.1,0,0,1,2.5,1c.8,1.5-.2,3.2.1,4.6l-1.2.6a4.4,4.4,0,0,0,.2-1.6.1.1,0,0,0-.1-.1,16.25,16.25,0,0,1-.4,1.9l-.1.1h.1c0,.1-.1.2-.1.4a.22.22,0,0,0,.2.2c.1,0,.1-.3.2-.6a6.61,6.61,0,0,0,1.5-.5c.1,0,.2-.2.4-.3.5-.2.9.4,1.1.9.8,1.5-1,1-.5,2,.1.3,1-.3,1.8.1-.1,0,0,.2,0,.4s.1.1.2.1a.1.1,0,0,0,.1-.1l-.7,1.2v.1a1,1,0,0,0,.9.4c.3-.1.3-.6.4-.6.5-.2.8.2,1.1.5a1.26,1.26,0,0,0-.2,1.3c0,.1.1.2.3.1a1,1,0,0,0,.4-.5,1.13,1.13,0,0,1,1.6.3c0,.1.1.1.1.2a6.28,6.28,0,0,1-.3,1.9l1.2-.9a.76.76,0,0,0,.5.2c.2,0,.4-.4.3-.8a9.15,9.15,0,0,1,1.7.1c.5,1,.2,1.9.4,2.3.1.1.2.2.3.1.6-.3-.2-1.9.5-2.3a.52.52,0,0,1,.8.2h0a.37.37,0,0,0,.1.3c-.2.2-.2.2-.2.3.1.3,1,.2,1.1.1-.1,0-.1-.1-.2-.2.1-.3.1-.7.5-.9.8-.4,1.2.3,1.6,1.2-.1-.4,0-.8.2-.9.5-.2,1,.2,1.4,0s-.4-1.1,1.2-1.9c.4-.2.8.5.9.7,1-.8-.4-2.2,1-2.9.2-.1.6,0,.7-.1a1.17,1.17,0,0,0,.1-.9c-.1-.6-.2-1.2.3-1.5.2-.1.5,0,.7,0,0-.1.1-.2.1-.3a.76.76,0,0,0,.5.2.52.52,0,0,0,.4-.2,1,1,0,0,0-.4-.5.8.8,0,0,0,.2-1c.3,0,.4-.1.3-.4s-.2-.3-.4-.3h-.1l-.3-.6a8.8,8.8,0,0,1,1.5-.5,3.55,3.55,0,0,0-.2,1,.22.22,0,0,0,.2.2,6.72,6.72,0,0,0,.4-2.4.1.1,0,0,0-.1-.1c0,.2-.1.5-.1.7-.3-.5-1.1-.3-1.7-.4a11.85,11.85,0,0,1,.5-3.2h.3a.37.37,0,0,0,.2-.5h0a3.81,3.81,0,0,0-1.3-.9c.2-.4-.1-2.2.6-2.6l1.5-.8c-.4.1-1.6.6-1.8.4s-.1-.4-.2-.6-.2-.3-.4-.3a1.21,1.21,0,0,1-.5.5.75.75,0,0,1-.9,0v-.2a.1.1,0,0,0-.1-.1h0v.1l-.1-.1c-.5-1-.1-1.7-.5-2.7a1.76,1.76,0,0,0-.4-.5c-.2-.4.3-.6,0-1.1a1,1,0,0,0-.7-.4v-.1a5.67,5.67,0,0,1-1.3.8c-1.1-.4-3-2.5-4.1-2.7-.4.2-.2.8-.5.9-.9.2-1.3,0-1.5-.4-.1-.2-.1-.5-.2-.7s-.2-.3-.5-.1c-.2.5,0,.8-.6,1.1-1.5.7-1.5-1.3-2.1-.9-.4.2-.2.9-.7,1.5a.3.3,0,0,0,0-.4.52.52,0,0,0-.7-.3.68.68,0,0,0-.4.8c.1.3.2.4.3.4s.3-.1.4-.1l-.2.1c-1.5.8-1.2-1.1-2.1-.7-.6.3.4,1.1-.1,1.7a.37.37,0,0,0-.3-.1c-.1,0-.1.1-.1.3-.6.2-1.4-.1-1.7.1s-.2,1,0,1.4c-.5.2-1-.3-1.4-.1a.3.3,0,0,0,0,.4c.2.3.4.3.6.8a2.51,2.51,0,0,1-1,2.1.87.87,0,0,1-.6-.4.91.91,0,0,0-.7-.3c-.1.2-.2.4-.1.5.2.4.8.7,1,1a1.31,1.31,0,0,1-.3,1.2C476,208.5,475.9,208.5,475.8,208.5Z" transform="translate(133.49 236.7)"/><path id="Path-Copy-4" class="cls-1" d="M552.4,282.6c-.2.1-.3.1-.4.2a.61.61,0,0,0,0,.8,1.69,1.69,0,0,0,.7.6,2.32,2.32,0,0,1,.3,1.6c-.8.7-1.9.5-2.4.9,0,.1,0,.2.1.2a2.25,2.25,0,0,1,2.7.3c1.1,1.2.6,3.1,1.3,4.5l-1,.9a8.75,8.75,0,0,0-.2-1.6.35.35,0,0,0-.2-.1,12.1,12.1,0,0,1,.1,1.9l-.1.1.1-.1v.4c.1.1.1.2.2.2s0-.3,0-.6a11,11,0,0,0,1.4-.9c.1-.1.2-.3.3-.4.4-.3.9.1,1.3.6,1.1,1.2-.7,1.2,0,2,.2.2.9-.6,1.7-.4-.1,0,0,.2.1.4s.2.1.2,0,.1-.1.1-.2h0l-.4,1.3a.14.14,0,0,0,0,.2.76.76,0,0,0,.9.1c.2-.2.1-.6.2-.7.4-.3.9,0,1.2.2a1.4,1.4,0,0,0,.2,1.4c.1.1.2.2.3,0l.3-.6a1.12,1.12,0,0,1,1.6-.1l.1.1a6.15,6.15,0,0,1,.2,1.9l.9-1.1h0a.48.48,0,0,0,.7-.1.62.62,0,0,0-.1-.7h0a10.46,10.46,0,0,1,1.7-.4c.7.8.7,1.8,1,2.2a.19.19,0,0,0,.3,0c.5-.5-.7-1.8,0-2.4a.61.61,0,0,1,.8,0h0a.37.37,0,0,1,.1.3h0c-.1.2-.1.2-.1.3.2.3,1-.1,1.1-.2-.1,0-.1-.1-.2-.1,0-.3-.1-.8.2-1,.7-.6,1.2,0,1.9.7a.75.75,0,0,1,0-.9c.4-.3,1-.1,1.3-.4s-.6-1,.6-2.2c.3-.3.9.3,1.1.5.8-1-1-2,.2-3.1.2-.1.5-.2.7-.3s0-.5-.1-.9h0c-.2-.5-.5-1.1-.1-1.5a1.7,1.7,0,0,1,.7-.1.76.76,0,0,1,.1-.4,1.27,1.27,0,0,0,.6.1c.2-.1.3-.1.3-.3a1,1,0,0,0-.5-.4.91.91,0,0,0,0-1c.2-.1.3-.2.2-.5s-.3-.2-.5-.2h-.1c-.1-.2-.3-.3-.4-.5a6.71,6.71,0,0,1,1.4-.9,4.1,4.1,0,0,0,.1,1.1c.1.1.1.2.2.2a6.52,6.52,0,0,0-.2-2.4.35.35,0,0,0-.2-.1c0,.2.1.5.1.7-.4-.4-1.2,0-1.8,0a11.24,11.24,0,0,1-.4-3.2c.1-.1.2,0,.3-.1a.35.35,0,0,0,.1-.5h0a4.71,4.71,0,0,0-1.5-.6c.1-.4-.7-2.1-.1-2.7l1.3-1.2c-.4.2-1.5,1-1.6.8s-.2-.3-.3-.5a.76.76,0,0,0-.5-.2c-.1.2-.2.5-.4.6a1,1,0,0,1-.9.2v-.1a.1.1,0,0,0-.1-.1h0v.1l-.2-.1c-.7-.8-.5-1.6-1.2-2.4a1.76,1.76,0,0,1-.5-.4c-.3-.4.1-.6-.3-1-.2-.3-.7-.2-.8-.3l-.1-.1A5.73,5.73,0,0,1,567,271c-1.2-.1-3.5-1.6-4.7-1.5-.3.3,0,.8-.2,1-.8.4-1.2.3-1.5,0s-.2-.4-.4-.6-.3-.2-.5,0c-.1.5.2.8-.3,1.2-1.2,1.1-1.7-.9-2.3-.4-.3.3,0,1-.2,1.6a.6.6,0,0,0-.1-.4.52.52,0,0,0-.8-.1.65.65,0,0,0-.2.9c.2.3.3.4.4.3s.3-.1.4-.2l-.1.1c-1.3,1.2-1.5-.7-2.2-.1-.5.4.7,1,.3,1.7a.21.21,0,0,0-.3.3c-.5.4-1.4.3-1.6.5s.1,1,.4,1.4c-.4.3-1.1,0-1.4.3-.1.1,0,.3.1.4.2.3.5.2.8.6a2.7,2.7,0,0,1-.4,2.3c-.1.1-.4,0-.7-.2a.75.75,0,0,0-.8-.1.45.45,0,0,0,0,.5c.3.4.9.4,1.2.7a1.27,1.27,0,0,1,0,1.2Z" transform="translate(133.49 236.7)"/><path class="cls-3" d="M1015,653.8c3.3,10,11.2,15.6,20.1,15.6,6.7,0,16.8-2.2,21.2-13.4l2.2-14.5c7.8-1.1,15.6,0,23.5-1.1a12.81,12.81,0,0,1,1.1,3.3,3.86,3.86,0,0,0-2.2-1.1,14.22,14.22,0,0,1,1.1,3.3c0,1.1-1.1,1.1-2.2,1.1-2.2,0-4.5-1.1-6.7-1.1-1.1,0-3.3,0-4.4,1.1a11.87,11.87,0,0,0,7.3,2.2c2.2,0,3.3-.5,5-.5,2.8,0,4.5.5,4.5,2.8,0,14.5-8.9,8.9-19,20.1,8.9-2.2,13.4-8.9,20.1-8.9,6.2,0,4.5,10,4.5,14.5,2.2,0,3.3-1.1,4.4-1.1,5.6,0,15.6,13.4,17.9,15.6,2.2-1.1,3.4-2.2,4.5-2.2,14.5,0,8.9,8.9,12.3,17.9,1.1-1.1,1.1-2.2,1.1-4.5a12.2,12.2,0,0,0-1.1-5.6c1.1-1.1,3.3-1.1,4.5-1.1,3.3,0,5.6,1.1,6.7,4.5,1.1,0,1.1-1.1,1.1-2.2s-1.1-2.2-1.1-3.3c0-2.2,3.4-2.2,4.5-2.2s2.2,0,2.2,1.1l3.3,29c2.2,0,2.2-2.2,2.2-4.5-1.1-6.7-3.3-15.6-3.3-23.5,0-3.3,2.2-6.7,6.7-7.8,4.5,14.5,6.7,30.1,8.9,30.1,0-7.2-3.3-15.1-3.3-22.3,0-4.5,2.2-7.8,2.2-11.2,0-2.2-1.1-4.5-1.1-5.6,0-5.6,3.3-11.2,6.7-15.6l5.6,2.2c2.2-2.2,3.3-4.5,6.7-4.5,2.2,0,7.3,1.5,11.5,2.5a74.59,74.59,0,0,1,1,10.5,20.68,20.68,0,0,1-.8,7,2.12,2.12,0,0,0,1.8,2.4h.6s1.6,0,1.6-3.1l-1.2-16.2a18.1,18.1,0,0,0,2.3.3,16.07,16.07,0,0,0,7.4-2c7,2.3,21.5,5.6,26.8,20.2,3.1-2.3,13.3-7.8,13.3-7.8,3.9,0,11,3.9,17.2,3.9a9.76,9.76,0,0,0,1.8-1.7,3.05,3.05,0,0,0,3.2,2.2,4.06,4.06,0,0,0,4.3-3.9v-.5a4.85,4.85,0,0,0-3.3-4.2c5.5-10.5,9.4-25.7,18.3-25.7,0-3.9-3.9-2.3-3.9-4.7s2.3-4.7,2.3-7.8-1.6-6.3-1.6-9.4c0-10.5,13-5.9,14-22.8a15.34,15.34,0,0,1,4.6-3.8,19.2,19.2,0,0,0,1.4,1.5c1.7,3.8,3.6,7.5,5.3,11.3-9,4.9-14.3,16.4-14.3,29.5,0,2.3,3.1,3.9,5.5,3.9,1.6,0,3.1-1.6,4.7-1.6s6.3,9.4,8.6,11.8c-3.9,6.3-15.7,9.4-15.7,15.7,0,.8,1.6,4.7,4.7,4.7,3.9,0,7.8-5.5,7.8-10.2,9.4-7,9.4-9.4,9.4-11,1.6.8,3.1,1.6,3.1,3.1,0,.8-2.3,1.6-2.3,3.1,0,3.9,8.6,4.7,8.6,8.6,0,8.6-7.1,5.5-7.1,12.5a4.12,4.12,0,0,0,3.9,3.9s6.3-1.6,6.3-4.7c0-2.3-.8-3.9-.8-5.5,0-9.4,20.4-18,29.8-18,1.6,0,2.3.8,3.9.8,11,0,14.9-15.7,14.9-25.8,0-3.9-8.6-10.2-11.8-14.9,0-1.6.8-2.4.8-3.9,0-3.1-.8-5.5-.8-7.8a11,11,0,0,1,4.7-1.6c8.6,0,10.2,14.1,22.7,21.2.8,0,2.4-.8,2.4-1.6,0-42.3,40-19.6,40-32.1,0-7.8-3.1-13.3-3.9-21.2,6.2-17.8,19.3-20.3,19.6-28.7,3.8-4.2,7.8-10.7,7.8-18.8,0-11.3-6.1-24.2-16.5-24.2-2.6,0-5.2.9-7.8.9-1.8-.9-2.6-3.5-5.2-3.5a13.9,13.9,0,0,0-5.3,1.4c-4.1-8.9-8-17.1-8.3-17.1-2.2,0-4.7,1.8-8.4,3,3.7-7.8,14.4-1.7,14.4-11,0-5.6-12.3-4.5-12.3-17.9,0-7.2,6.3-7.5,9.9-10.5,2.8,1.2,5,3.4,5,8.1s-3.1,8.6-3.1,12.5c0,1.6,11.8,14.9,18,16.5,0,3.1.8,6.3,1.6,6.3a9.67,9.67,0,0,1,4.7-1.5c9.4,0,19.6,7.8,22.7,7.8.3,0,2.9-3.9,7.2-8.3,2.1,7.3,7.3,13.8,17.8,13.8a20.43,20.43,0,0,0,12.2-3.7c2.5.8,4.9,1.5,5.3,2.4a15,15,0,0,0,14.3-9.8c4.4-.7,9-4.9,9-8.5,0-7.1-3.9-10.2-11-11.8a33.82,33.82,0,0,0-3.4,1.1,18.82,18.82,0,0,0-9-2.3,4.87,4.87,0,0,0-1.2.1,20.57,20.57,0,0,0-5.4-5.6,41.25,41.25,0,0,1-4.8-10.7c.7-.6.8-2.2.8-3a5.7,5.7,0,0,0-1.3.1c.7-4.7,9.4-11.5,11.7-19l5.5-.8c2.3-18.8,5.5-36.8,5.5-54.8,0-4.2-.1-8.2-.3-11.9,5.8-.1,9.8-3.3,9.8-8.7,0-6.4-5.1-7.6-9.8-7.8h0c0-4.3,2.6-8.7,2.6-13,0-3.5-6.1-6.9-6.1-12.1l.9-.9c0-3.5-5.2-6-5.2-9.5a2.59,2.59,0,0,1,.9-1.7c0-.9,0-.9-.9-.9,0-.9.9,0,.9-.9,0-6.9-24.3-4.3-24.3-16.5-3.5,0-6.1,3.5-9.5,3.5a2.8,2.8,0,0,1-2.6-2.6c0-10.4,22.5-6.9,24.2-22.5,0-1.7,0-2.6-.9-2.6-4.3,0-13,14.7-19.9,14.7-5.2,0-5.2-16.4-21.6-16.4v-.4c3.2-1.4,4.1-3.2,5.5-3.2,1.8,0,3.7.9,4.6.9.5,0,2.3-7.4,2.3-6.9,0-2.8-1.8-5.1-1.8-7.8,0-1.8,4.6-6.4,4.6-6.4,2.8.5,7.4,13.3,13.8,16.1,2.7,1.1,5.3,2.2,7.7,3.1-.1.4-.3.8-.4,1.1.9,0,.9,0,.9.9a10.64,10.64,0,0,0,2.5-.9,43.23,43.23,0,0,0,15,3.1c13.8,0,23-11.5,23-11.5a2.9,2.9,0,0,0,1.8.5v-1.3c0-.2.2-.5.4-.5h0c.6,0,.8.2.8.3.8-1.4,3.2-4.3,9.3-10.4h-.4c0-.9,3.7-4.1,3.7-8.3v-3.2a1.19,1.19,0,0,1,.9.5c3.2-6.4,3.7-15.6,3.7-19.3,0,0,0-.5-.9-.5.5-.9.5-1.8.9-2.3-2.8-.5-.5-9.7-2.8-10.1a63.46,63.46,0,0,0,1.8-10.6c-.9,0-3.7-10.1-4.1-11.5a14,14,0,0,1-.5-4.1c0-3.2.9-5.5.9-8.7,0,0-.9-.5-.9-.9,0,.4,2.8-7.8,2.8-8.3v-6c0-4.1,6.9-9.6,6.9-9.6,2.3,0,4.6,2.8,6.4,2.8,2.3,0,7.4-3.7,10.1-5.1,1.8-.9,2.8-4.6,4.1-5.5,0-12-.9-12.9-10.6-17.9a.9.9,0,0,1-.9.9c-.9,0-2.8-1.4-4.6-1.8,0,1.2-.7,1-1.4.9-.2,1-11,5.1-11,13.3,0,3.7,5.5,9.2,5.5,11.5,0,.5-12,13.3-15.2,13.3-11-2.3-12.9-12.9-18.4-14.3,0-.4.5-.4.5-.9,0,0-5.5-5.5-6.9-5.5h.5c-4.6-.5-3.7-2.8-6.9-2.8-12,0-12.4,6.4-16.1,9.6,0,.5-9.2,9.2-9.2,11.5v.9a1.69,1.69,0,0,0-1.4-.9c-.6,0-1.4.7-2.8,2.7a18.7,18.7,0,0,0,.3-3.4c0-.9-1.7-.9-1.7-1.7.8,0,1.7,0,1.7-.9s-1.7-2.6-3.5-2.6c-3.5,0-6.1,13.9-6.9,19.9,0,1.7.9,2.6,1.8,2.6a4.3,4.3,0,0,0,2.3-1,5.82,5.82,0,0,1-3.5,3.2c-.9-1.8-2.8-5.1-5.1-6v.5c-.9,0,.5-3.7-1.4-3.7-.9,0-3.2,2.8-3.2,3.2-6.4,0-8.7-5.5-12-5.5s-8.3,0-8.3,4.1c0,1.4,1.8,1.8,3.7,1.8,2.8,0,5.5-.5,7.4-.5,6,0,10.6,3.2,10.6,10.6,0,4.6-6,4.6-6,10.6,4.6,2.8,10.6,8.7,10.6,29-2.8-.5-6-10.6-6-13.3,0-9.2-8.3-4.1-11-8.7-11-8.3-.9-14.2-18.9-14.2-1.4,0-6.9-5.1-7.4-5.1h-4.6c-3.2,0-5.5,2.3-9.2,2.8-6,0-6.4-6-11.5-6s-5.5,9.2-10.6,9.2c-4.6,0-5-3.2-8.7-3.2-2.8,0-3.2,1.8-3.2,4.1,0,2.8,1.4,2.3,1.4,3.7,0,2.3-4.6,6.4-5.5,6.9-.5.5-.5.5-.9.5-1.4,0-1.4-1.4-3.2-1.4-2.3,0-6,.9-6,3.7,0,1.8.5,3.2.5,4.6,0,6-11.5,3.2-11.5,6,0,6.4,8.7,3.2,8.7,8.3,0,5.5-9.2,9.6-9.2,9.2,0,1.8,4.1,4.6,4.1,7.4,0,10.6-12.9,5.5-13.8,10.6,1.4.4.9,1.4,4.1,1.4,2.3,0,4.2-.9,6.4-.9,3.2,0,5.1,2.8,5.1,6.4q-.3,3-.9,6a31.6,31.6,0,0,1,1.6,4.3h-.2c-1.7,0-3.5.9-5.2.9-3.5,0,.8-8.7-4.3-8.7,0,4.3,1.8,8.7,1.8,13.9,0,2.6-.9,3.5-1.8,3.5a11.42,11.42,0,0,0-2.6-.9c-2.6,0-6.1,1.7-8.7,1.7a6.82,6.82,0,0,1-4.3-1.7c-2.6,0-23.4,29.4-35.5,29.4-1.8,0-3.5-1.7-4.3-2.6.9.9.9.9.9,1.7a9.73,9.73,0,0,1-8.1-3.8c2.1-19.9,0-39.7,3.3-56.3-5.1,0-4.6,37.7-5.3,53.3-1.9-3.3-3.4-7.3-5.4-10.5-4.3-12.1-14.8-10.4-25.1-12.1-5.2,0-7.8-6.1-17.3-6.1a4.52,4.52,0,0,0-3.4,1.7c-3.5,0-6.1-.9-9.5-.9-12.1,0-20.8,19.9-26.9,21.7l.9-.9c-6.9,0-5.2,12.1-13,13.8a11.49,11.49,0,0,1-6-1.6c-.2-.2-.3-.4-.5-.5l-.2.2a8.67,8.67,0,0,0-4.6-1.5c-17.3,0-27.7,19.9-31.2,19.9a17.85,17.85,0,0,1-2.3-.2,2.2,2.2,0,0,1-.1-.8c0-3.7,2.3-6.4,2.3-10.1,0-2.8-.5-5.5-.5-8.7,4.2-2.3,12.9-19.8,12.9-22.1-3.2-3.2-10.1-8.7-10.1-14.2,0-4.6,3.2-13.8,4.2-20.2-1.4-.9-9.2-6.4-9.2-6.4a1.62,1.62,0,0,0-.9.5,35.63,35.63,0,0,1-3.2-2.8s-2.3-11-7.4-11c-1.4,0-2.8.5-3.7.5-10.1,0-4.2-12.9-10.1-12.9-1.4,0-2.3,1.8-3.2,1.8-2.8,0-7.8-2.3-10.1-5.1a139.09,139.09,0,0,1-18.4-18.4c0-3.7,1.8-6.9,3.7-10.6-.9-.5-.5,0-.9-.9-5.1,1.4-2.3,6.9-9.7,6.9-2.3,0-4.6-.4-6.9-.4h.9c0-.9-12.9-4.6-25.3-4.6v-.9c-6-.9-9.7-4.1-9.7-6.4a18.46,18.46,0,0,0,.4-2.3c0-1.8-3.2-1.8-6.4-2.8-1.4,1.4-5.5,3.7-10.6,3.7a9.23,9.23,0,0,0,.5-3.7c0-1.8-.9-2.3-3.2-2.3.4,4.1.9,8.3,1.4,12.4,0,2.8-2.8,6.9-10.1,14.2h.5c0,1.4-7.8,6.9-7.8,9.2v.1c-2.8.8-6.9,8.6-7.4,8.6a.76.76,0,0,1-.5-.2c-.4,1.3-3.1,2.5-3.1,2.5-.9,0-7.8,7.8-21.6,7.8-8.3,0-12,12.4-15.6,12.4-12.9,0-16.6-12.4-23-13.3l-.9.9c.9.9,1.8,3.7,2.3,3.7s.9-.5,1.4-.5c1.4,3.2,5.5,6,8.7,7.8,0,0,14.7,5.1,14.7,11.5,0,.9-1.4,13.3-13.3,13.3-10.6,0-6-10.6-15.2-10.6-4.6,0-5.5,1.4-5.5,6.4,1.8.9,3.7,1.8,4.2,4.1,0,3.2-2.8,2.8-5.1,2.8-.9-2.3-4.6-.5-6.4-3.7-1.4-.5-3.7-1.8-5.5-1.8-1.4,0-2.8,2.3-2.8,2.8,0,10.1,13.8,2.8,13.8,14.7,0,.9-.5,2.3.9,2.3,0,.5-.9,3.2-1.4,3.2a.46.46,0,0,0-.5.4h0c0,6-11,.9-11,12.4,0,9.7,8.3,8.7,8.8,15.6,6,8.7,10.6,11.5,10.6,13.8,0,1.8-.5,3.2-.5,4.6v3.7c0,.9-6,3.7-6,6.9,0,4.6,8.8.5,8.8,6.9,0,4.6-7.8,6-7.8,11,0,.9,1.8,2.3,3.7,2.3,1.4,0,4.6-2.3,6.9-2.3a1.27,1.27,0,0,1,.6.1,9.25,9.25,0,0,0-.4,2.9,8,8,0,0,0,2.7,6.1,19.27,19.27,0,0,0-.1,2.4c1.8.5,2.3,5.1,4.6,5.1,9.2,0,.5,12.4,16.1,15.6,3.7.5,3.7,2.8,6.4,4.6-.5,1.8,0,5.1-1.8,5.5.5,3.2,1.8,3.7,3.7,3.7,2.3,0,5.1-.9,6.9-.9h7.3c2.8,0,5.5-1.8,8.7-1.8.6.9,2.3,1.6,4.1,2.9a12.13,12.13,0,0,1-1.4,1c-1.8.9-6.1,15.6-6.1,21.6,0,11.3,13.8,18.2,25.1,18.2,13,0,15.6-7.8,22.5-11.3,2.6,2.6,6.9,3.5,10.4,3.5,12.1,0,26-6.1,29.4-6.1,2.6,0,6.9,1.8,10.4,2.6,4.3,0,11.3-.9,11.3-3.5a18.44,18.44,0,0,0,6.9,1.7c3.5,0,9.5-1.7,9.5-5.2,0-.9-.9-1.7-1.7-2.6,1.7,0,6.1-7.8,6.9-8.7a15.3,15.3,0,0,0,4.1-1.4c7.8,7.2,14.4,13.9,14.4,15.3,0,1.1-3.4,2.2-5.6,3.4-4.5,0-6.7-3.4-11.2-3.4-5.6,0-5.6,3.4-5.6,6.7s13.4,3.3,20.1,8.9c0,2.1-.1,4.5-.2,6.9a5.7,5.7,0,0,0-1.3-.1c0,2,.5,2.9,1.1,3.3-.8,8.1-3,16.5-8.5,21.2-14.5,0-23.5,12.3-33.5,12.3-5.6,0-11.2-2.2-14.5-2.2a3.86,3.86,0,0,0-2.2,1.1c0,3.4,10.1,4.5,13.4,4.5,1.1,0,3.3-1.1,4.4-1.1a17.2,17.2,0,0,0,11.2,4.5c3.3,0,6.7-1.1,10.1-1.1,10.6,0,13.7,8.3,14.4,18.5a9.7,9.7,0,0,0-1.7-.1c0,1.7-.9,3.5-.9,4.3a2,2,0,0,0,.1.8c-7.5.1-19.5.7-19.5,5.6,0,5.6,26.8,4.5,26.8,12.3a8.81,8.81,0,0,1-.2,1.7,24.28,24.28,0,0,0-4.8,1.4c-2.3.8-3.1,2.3-3.1,3.9a2.66,2.66,0,0,0,.3,1.2c-5.4,1.4-12,1.8-14.5,7.4,0,2.2,2.2,4.5,2.2,6.7,10.1,0,11.2-8.9,20.1-8.9,6.7,0,7.8,8.9,7.8,15.6-1.1,0-1.1,1.1-1.1,2.2,0,2.2,1.1,4.5,1.1,5.6-4.4,8.9-23.5,4.5-23.5,15.6,0,5.6,4.5,8.9,4.5,15.6,0,3.3-6.7,1.1-6.7,6.7,0,3.3-13.4,15.6-19,15.6-2.2,0-8.9-3.4-10.1-3.4-2.2,0-4.5,2.2-6.7,2.2,0,7.8,6.7,12.3,6.7,20.1,0,11.2-11.2,17.9-25.7,17.9-8.9,0-11.2-12.3-26.8-12.3-21.5,5.9-17,18.1-19.3,27.1" transform="translate(133.49 236.7)"/><path class="cls-4" d="M-118.7-106.5l-1.6-.8c-.8,1.6-.9,5.5-1.8,7.1s-7.1-1.8-10.4,4.5c-.8,1.6-1.7,3.1-.1,4s5.5.9,7.1,1.8c1.5,4.8-2,15-4.5,19.7-5.9,11,9.9,15.3,7.4,20-.8,1.6-2.4.7-5.7,7,3.1,1.7,7.1,1.8,10.2,3.4,0,0,11.6,12.2,8.2,18.5-.8,1.5-4,3.9-4,3.9l-.1,4c1.6.9,15.1-2,26.1,3.9C-83.2-7-92.3,6.2-89.2,7.9c1.6.6,8.2-7.9,12.9-5.4,1.6.8,3.8,4.1,4.6,6.5C-64.5,6.8-66.6-4.3-57.2.7c1.6.8,2.2,7.2,6.9,9.7l5-9.4c3.1,1.7,5.4,4.9,7,5.7C-30.5,10.9-30-5-21.4-2.4-15.2.9-16.9,4.1-9,8.3c1.7-3.1.9-5.6,1.8-7.1,1.5-3.2,4-4,9.5-3C3.7,3,1.1,11.6-2.2,17.9c-3.1-1.7-5.6,3-7.3,6.1,6.9,9.7,13.4,5.1,5.8,19.2l.8-1.6C.2,43.3-2,66.2,4.3,69.5c1.6.8,1.7-3.1,4.8-1.4,17.2,9.2,7.3,24,15.1,28.2,4.7,2.5,8-3.8,11.1-2.1,7.8,4.2,12.4,10.6,21.8,15.7.8-1.4,5.6-4,8.8-3.1l-.8-.7,1.6.8c-.2-.1-.5,0-.8-.1,3,2.8,13.3,14.4,3.9,31.9,2.4-.7,3.9.1,4.8-1.5s-2.9-9.6,1.3-17.4c9.2-17.2,30.3-7.9,30.3-7.9,1.6.8,1.6.8.8,2.4,1.5.8,3.9.1,3.9.1.1-4,1.1-9.5,1.9-11,14,3.2,23-7.7,37.9-2.2-2,5.2-3.5,9.3-4,10.5a417.1,417.1,0,0,0,39.1,43.9c7.2-16.4,18-20.9,35.1-16.4-.4.7,4.8,17.5,6.1,18.2,11.6,6.2,14.4-18.7,36.3-7,0,0,8.4,10.6,7.7,12,6.5,2.6,10.6,4.8,15-1.7,1.5-2.7,2.2-5.9,3.3-7.9,2.6-4.9,30.9-24.9,48.7-15.4,4.1,2.2,3.6,8.1,7.7,10.3,3.4,1.8,7.7-1.2,8.4-2.6,4-7.5-4.1-15.4-.8-21.6,14.5.7,10.9-5.6,21.9.2-1.5,2.7,5.4,6.4,6.8,7.1s5.2-1.6,6.7-4.3c3.3-6.2-4.9-10.6-.5-18.8,4.7-8.9,11.9-2.5,19-9.2-1.4-.7-1-1.4-.6-2.1s1.8-1.7,2.1-2.4c.7-1.4-2.5-8.4-.7-11.8,2.7-5.1,12.6-8.7,22.1-11.7-2.1,4.1-1.7,8.5,5.7,12.4a6.81,6.81,0,0,0,3.1.8c-1.2,2.8-.3,3.3.6,3.8a4.44,4.44,0,0,0,3.7.7c1.1-2,1.1-4.5-.7-5.7a14.75,14.75,0,0,0,4.2-5.1c-.7-.4-6.8-5.4-6.1-6.8l-3.9-2.1c6.8-2.1,12.3-3.9,13.4-6,3.5-1.6,8.9,4.8,10.4,2a38.06,38.06,0,0,1,7.5,5.7c1.1-2,4.8.8,5.5,1.2,1.2-5.5-2.6-6.7-6.7-8.8-.7,1.4-14.8-3.5-17.6-5-8.9-4.8-14.5-17.4-10.5-24.9.7.4,12-7.7,20.2-3.3,2.7,1.5,30.1,2.9,33.7-.5-5.9-2.2-13.2,0-19.4-3.3a91.19,91.19,0,0,1-11.6-7.9c-.7,1.4-5.6.5-9.7-1.6-2.8-1.4-10.2-8.9-5.1-18.5l5.1-9.6c1.8-3.4.2-8.7,4.6-16.9,4.1.5,9,1.3,13.1,1.8a99.27,99.27,0,0,0,17.2-1.7c.1.1.3.2.4.3,1,.5,1.9,1,3.3-1.2,4.1-1.2,7.5-2.9,8.8-5.3,1.8-3.5-3.4-1.8-1.6-5.3-12.3-6.6-24.1,3.9-39.8-4.5,0,0-9.4-13.8-2.1-27.5,4.4-8.2,12.7-5.6,16.7-13.1,2.2-4.1.4-4.2-4-7.4-1.1,2.1-14.3,3.8-17.8,3.7a7.3,7.3,0,0,1-3.8-1.1c-5.5-2.9-6-21.7-4.9-23.7,1.1-.3,27.5-15.3,41.4-16.6,2.2-4.1,3.1-10.7-3.1-14,.7.4-15,3.4-18.7,10.3-2.4-.4-16,15.2-31.8,8.5.7-1.4-.3-2.8-1.6-3.5-.7-.4-2.4-.4-3.1-.8-2.7-1.5-6.7-8.9-5.6-10.9.4-.7,1.8-1.7,2.5-3.1a2.55,2.55,0,0,0-1-3.2c1.5-2.7,4-4.1,5-6.1s.2-6.9-3.2-8.8c-7.5-4-13.8,7.6-20.6,4-2.8-1.5-3-6-1.5-10.5,1.5-2.7,4.8-10.6,8.2-8.8,1.5-2.8,1.2-7.3,2.7-10,4.8-8.9,17.5-6.5,25.2-20.9l-6.9-3.7c-1.8,3.4-3.8.6-6.4,5.4-1.8,3.4-3.7,8.6-4.1,9.3-4.8-2.5-13.9,12.8-18,10.6-8.4,15.8-27.4,11.8-46.3,4.3,0-1.7-1-3.1-1.3-4.2.4-.7,1.8-1.7,2.5-3.1a2.49,2.49,0,0,0-.9-3.1,57.64,57.64,0,0,0,6.8-9.6c-4.8-2.6,6.4-31.8,1.6-34.3-2.2,4.1-4.7,7.2-6.9,11.3a26.77,26.77,0,0,0-3,7.2c-3.4-1.8-9.7,11.6-10.8,13.6-.7-.4-24.9,23.6-37.2,17.1-6.2-3.3-7-13.4-13.1-16.6-6.3,1.9-9.6,6.4-14.5,10.7-.7-.4-12.5,2.1-13.3,3.4-3-2.5-7.1-6.4-10.5-8.2-4.1-2.2-10.2,4.2-17.4,3,.3,2.8,1.2,7.7-.3,10.4-6.2,11.6-17-2.9-30.1,8.6-1.1,2.1-.9,8.3-2,10.4-.4.7-5.2,1.6-6.6.9-2.8-1.5-4.7-4.3-7.5-5.8-4.1-2.2-5.8-2.2-7.3.5-2.2,4.1,4.1,13.6-1.3,23.9-1.2-.7-1.4-.7-1.9.3-15.8,29-26,64.2-65.4,84.3,5.1,1.8,10.4,5.6,15.7,9.5a16.58,16.58,0,0,1-8.1-2.1c-14.1-7.5-6.9-9.7-19.4-16.4-6.5,4.6-12.9,9.2-20.7,5-1.6-.8-2.3-3.2-2.2-7.2-2.4.7-5.5-.9-8.7-2.6a1.73,1.73,0,0,0-.7-2.4h-.1l-2,.9c-1.7,3.1,2.9,9.6.4,14.2,0,0-35.3,17.3-41.6,14-4.7-2.5-1.1-16.7,1.4-21.4,1.7-3.1,15.8,4.4,18.2-.3a6.55,6.55,0,0,0,.1-4c-4.4-2.3-11-.7-15.7-2.6a5.17,5.17,0,0,0,.7.6l-1.6-.8.9.3c-2.6-2.4-12.6-12.3-7.5-21.8,1.7-3.1,4.9-5.4,9-9.3-6.2-3.3-11.9-.3-16.6-2.8-.6-6.3-8.1-22.4-8.1-22.4,4.1-3.9,7.4-10.1,9.9-14.8-6.2-3.3-15.5,17.8-18.7,16.2-7.8-4.2-5.2-12.8-8.3-14.5-4.7-2.5-4.9,5.4-17.4-1.3-4.7-2.5.2-7.9-2.9-9.6-9.4-5-17.7,10.6-24,7.3-7.8-4.2-.2-24.2-8.8-28.8a202,202,0,0,0-2.3,26.9c-14.4,4.4-31.1,5.5-32.8,8.7-.8,1.6-1.7,3.1,1.5,4.8-9,9.3-25,16.8-28.2,15.1a1.71,1.71,0,0,1-.8-2.3v-.1c-1.7,3.1,3,5.6,6.2,7.3C-114.5-114.3-116.2-111.2-118.7-106.5Z" transform="translate(133.49 236.7)"/></svg>