<svg width="975" height="118" viewBox="0 0 975 118" fill="none" xmlns="http://www.w3.org/2000/svg">
<path fill-rule="evenodd" clip-rule="evenodd" d="M478.122 0.404626C477.851 -0.0810177 477.996 -0.114291 478.914 0.223395C480.233 0.707623 480.358 1 479.247 1C478.811 1 478.305 0.731692 478.122 0.404626ZM481.63 1.00867C480.752 0.807055 480.776 0.772201 481.801 0.768672C482.46 0.766466 483 0.874555 483 1.00867C483 1.30559 482.923 1.30559 481.63 1.00867ZM454.037 0.968958C454.172 0.88778 454.52 0.878957 454.811 0.949546C455.133 1.02719 455.037 1.08499 454.567 1.0969C454.142 1.10749 453.903 1.04969 454.037 0.968958ZM460.496 1.51087C461.02 1.23581 461.933 1.00577 462.525 1.00022C463.696 0.987882 464.442 1.50471 463.709 1.81863C463.457 1.92655 463.166 1.83898 463.063 1.62312C462.922 1.32894 462.614 1.32832 461.826 1.62004C460.317 2.18065 459.367 2.10171 460.496 1.50964V1.51087ZM458.059 1.5C458.214 1.22486 458.413 1 458.499 1C458.586 1 458.785 1.22486 458.94 1.5C459.095 1.77514 458.897 2 458.499 2C458.102 2 457.904 1.77514 458.059 1.5ZM455.036 2.86058C454.89 2.77857 455.204 2.67218 455.733 2.62371C456.374 2.56549 456.596 2.4466 456.399 2.26796C456.238 2.12072 456.309 2 456.558 2C457.22 2 457.113 2.54964 456.404 2.79747C455.683 3.04867 455.392 3.06208 455.036 2.86058ZM476.954 2C477.098 1.88838 476.893 1.79706 476.5 1.79706C476.107 1.79706 475.902 1.88838 476.046 2C476.189 2.11162 476.394 2.20294 476.5 2.20294C476.606 2.20294 476.811 2.11162 476.954 2ZM461.882 2.49228C462.452 1.94697 462.418 1.88484 461.635 2.03888C460.856 2.19241 460.821 2.13028 461.382 1.59165L462.035 0.966235L462.585 1.59832C463.215 2.32334 464.356 2.42861 464.822 1.80474C464.997 1.57111 464.941 1.37958 464.697 1.37958C464.454 1.37958 464.254 1.18651 464.254 0.950831C464.254 0.602696 464.753 0.55597 466.925 0.70385C468.749 0.828111 469.594 0.784465 469.594 0.565726C469.594 0.388064 470.469 0.245832 471.561 0.245832C472.849 0.245832 473.398 0.353148 473.152 0.55751C472.884 0.779331 473.111 0.777277 473.935 0.551349C474.898 0.286396 475.04 0.305908 474.772 0.664313C474.594 0.902051 474.226 1.09614 473.955 1.09614C473.684 1.09614 473.462 1.224 473.462 1.37958C473.462 1.97059 474.46 1.62913 475.119 0.812706C475.887 -0.139273 475.907 -0.144408 477.292 0.235562C477.991 0.427601 478.207 0.726956 478.016 1.2394C477.866 1.64145 477.961 1.9331 478.227 1.88741C478.492 1.84222 478.834 1.92951 478.986 2.08201C479.149 2.24581 477.837 2.3788 475.771 2.40704C472.58 2.4512 472.229 2.39677 471.678 1.77547C471.083 1.1059 469.042 0.812193 469.042 1.39653C469.042 1.56135 469.288 1.61886 469.588 1.52335C469.896 1.42579 469.997 1.53414 469.818 1.77239C469.634 2.01886 469.14 2.12309 468.63 2.02245C468.061 1.91051 467.892 1.9634 468.145 2.17392C468.59 2.5426 466.753 2.81525 464.623 2.69664C463.863 2.65402 462.788 2.7331 462.233 2.87173C461.329 3.09715 461.293 3.05761 461.882 2.49228ZM493.947 1.41078C493.819 1.08613 493.552 0.918801 493.354 1.03893C492.784 1.3836 492.932 2 493.585 2C493.945 2 494.087 1.76903 493.947 1.41078ZM649.703 3.78897C649.704 3.6583 648.795 3.55169 647.683 3.55169C646.573 3.55169 645.486 3.6583 645.269 3.78897C645.005 3.94716 644.87 3.94716 644.864 3.78897C644.852 3.49151 641.626 3.42101 641.626 3.71848C641.626 3.83798 641.406 3.87581 641.136 3.8023C640.624 3.66259 635.888 3.43863 630.856 3.31569C629.227 3.27572 627.895 3.2194 627.895 3.18974C627.895 3.03112 620.811 3.02854 620.358 3.18759C619.548 3.4713 614.164 3.66904 614.164 3.41499C614.164 3.29463 613.801 3.19576 613.357 3.19576C612.913 3.19576 612.549 3.2985 612.549 3.42488C612.549 3.56759 608.756 3.61144 602.453 3.54137C596.9 3.47947 591.772 3.43004 591.058 3.43133C590.343 3.43391 588.951 3.33547 587.962 3.21511C586.881 3.084 586.165 3.08314 586.165 3.21339C586.165 3.42875 584.281 3.39393 583.77 3.16868C583.623 3.10377 581.173 3.08873 578.325 3.13515C574.893 3.19103 572.892 3.12569 572.387 2.94128C571.794 2.7242 571.625 2.73495 571.618 2.98857C571.612 3.19447 571.464 3.22284 571.214 3.06637C570.977 2.91764 567.913 2.80673 563.55 2.78868C559.551 2.77278 547.436 2.69798 536.626 2.62361C525.817 2.54882 511.945 2.47359 505.8 2.4564C499.655 2.4392 494.627 2.35796 494.626 2.27628C494.625 2.19418 493.292 2.12755 491.664 2.12755C490.036 2.12755 488.703 2.2075 488.703 2.30551C488.704 2.40352 488.447 2.48348 488.133 2.48348C487.82 2.48348 487.713 2.37687 487.896 2.24619C488.08 2.11551 487.85 2.00891 487.39 2.00891C486.928 2.00891 486.549 1.9023 486.549 1.77162C486.549 1.64094 486.294 1.53434 485.98 1.53434C485.667 1.53434 485.559 1.64137 485.742 1.77162C485.939 1.91176 485.346 2.00762 484.293 2.00547C482.945 2.00246 482.708 1.94572 483.319 1.77162C483.916 1.60183 483.941 1.54079 483.415 1.53821C482.868 1.5352 482.889 1.45266 483.511 1.17841C483.956 0.982823 484.821 0.822483 485.435 0.822483C486.048 0.822483 486.549 0.70857 486.549 0.569294C486.549 0.418841 487.016 0.381013 487.694 0.476013C488.464 0.583479 488.719 0.54995 488.47 0.373276C488.268 0.228842 488.245 0.110629 488.42 0.110629C488.596 0.110629 488.923 0.330289 489.148 0.598524L489.557 1.08685L490.977 0.594226C491.951 0.257213 492.515 0.186285 492.772 0.368977C493.037 0.558117 493.277 0.542212 493.598 0.313525C493.965 0.0521675 497.659 -0.00672382 513.319 0.000583863C523.917 0.00574223 536.949 0.0783892 542.28 0.161783C547.611 0.246036 556.455 0.376285 561.934 0.451941C581.717 0.725334 586.813 0.824633 587.257 0.945425C588.248 1.21538 592.586 1.45438 593.244 1.27556C593.648 1.16509 594.12 1.20463 594.361 1.36884C594.674 1.58076 594.914 1.56271 595.31 1.29705C595.602 1.10104 595.845 1.04773 595.85 1.17841C595.856 1.328 599.185 1.40538 604.877 1.38732C613.871 1.35852 629.24 1.74153 629.242 1.99429C629.242 2.0678 631.12 2.11551 633.414 2.1009C637.348 2.07597 646.408 2.40051 648.013 2.62447C648.606 2.70701 648.617 2.79556 648.072 3.08529C647.522 3.37716 647.536 3.42445 648.146 3.33977C648.558 3.28216 649.571 3.16997 650.398 3.08959C651.324 3.00017 651.781 2.83339 651.589 2.65456C651.418 2.49551 651.56 2.53248 651.905 2.73667C652.414 3.03671 653.105 3.07368 655.523 2.92925C657.224 2.82737 658.92 2.84628 659.457 2.97309C659.976 3.0956 661.083 3.21038 661.917 3.228C663.314 3.25766 663.33 3.26884 662.135 3.36814C661.129 3.45153 661.007 3.52418 661.596 3.68839C662.428 3.92051 661.729 3.94931 654.145 3.99789C651.499 4.01465 649.703 3.9304 649.703 3.78897ZM689 4.61702C689 4.42618 689.198 4.25721 689.441 4.24212C689.684 4.22628 690.731 4.13576 691.766 4.03996C694.095 3.82423 694.925 4.53857 692.684 4.8305C690.469 5.11865 689 5.03417 689 4.61702ZM679.806 4.81282C680.088 4.58177 678.008 4.3108 677.587 4.52338C676.999 4.8198 674.573 4.87569 674.573 4.59275C674.573 4.41809 673.02 4.37567 670.342 4.47797C667.059 4.60323 665.682 4.53885 664.2 4.19004C663.149 3.94252 662.703 3.79731 663.209 3.86667C663.715 3.93603 664.207 3.88513 664.301 3.75339C664.395 3.62165 664.841 3.47394 665.292 3.42454C665.742 3.37563 666.29 3.21096 666.512 3.05975C666.731 2.90805 666.916 3.05526 666.921 3.38761C666.929 3.95799 667.012 3.96947 668.43 3.5952C669.777 3.2404 670.01 3.24938 670.688 3.68054C671.407 4.13814 671.428 4.13814 671.114 3.68054C670.86 3.30826 671.087 3.19848 672.106 3.19848C672.832 3.19848 673.678 3.41555 673.983 3.68054C674.292 3.94801 674.547 4.00939 674.557 3.81826C674.574 3.45747 676.21 3.32124 676.21 3.68054C676.21 3.79431 678.067 3.88014 680.338 3.87116C682.609 3.86268 684.588 3.9555 684.738 4.07776C684.888 4.20002 685.537 4.30032 686.179 4.30032C687.115 4.30032 687.212 4.36919 686.666 4.64465C685.983 4.98947 679.392 5.15215 679.805 4.81381L679.806 4.81282ZM469.291 5.0063C468.951 4.86468 468.905 4.76851 469.174 4.76674C469.422 4.76454 469.728 4.87218 469.857 5.0063C470.146 5.30895 470.016 5.30895 469.291 5.0063ZM491.04 5.00044C491.04 4.86632 491.15 4.75647 491.284 4.75647C491.418 4.75647 491.681 4.86632 491.868 5.00044C492.056 5.13412 491.947 5.24353 491.625 5.24353C491.304 5.24353 491.04 5.13412 491.04 5.00044ZM447.327 4.52649C446.482 4.1764 446.865 4.15196 453.498 4.13554C457.388 4.12593 461.11 4.07545 461.768 4.02298C462.425 3.97051 463.089 4.01096 463.242 4.11311C463.395 4.21525 464.259 4.27774 465.163 4.2521C467.604 4.1824 467.616 4.50406 465.175 4.60019C464.021 4.64546 463.191 4.6058 463.332 4.51247C463.772 4.21886 462.946 4.32781 462.104 4.6743C461.191 5.05083 458.924 5.11852 458.424 4.78445C458.203 4.63704 457.737 4.64065 457.038 4.79447C455.851 5.05643 454.732 4.87858 455.278 4.51447C455.517 4.35505 455.385 4.33983 454.884 4.46921C454.47 4.57656 452.803 4.71716 451.18 4.78165C448.856 4.87418 448.036 4.8197 447.327 4.52649ZM517.044 4.9532C516.867 4.83187 517.241 4.78952 517.876 4.85967C519.224 5.00879 519.394 5.17423 518.199 5.17423C517.742 5.17423 517.223 5.07452 517.044 4.9532ZM514.513 4.99627C515.758 4.70862 516.471 4.70862 515.644 4.99627C515.271 5.12642 514.66 5.22657 514.287 5.21907C513.839 5.21025 513.916 5.13436 514.513 4.99627ZM524.362 5.76158C523.614 5.66351 523 5.44043 523 5.26751C523 4.76147 525.631 5.0362 525.891 5.56919C526.021 5.83569 526.037 6.02807 525.926 5.99663C525.814 5.96594 525.112 5.86039 524.362 5.76158ZM339.234 7.00245C339.609 6.86083 340.3 6.79288 340.767 6.85156C341.252 6.91245 340.959 7.02274 340.083 7.10921C339.005 7.2151 338.752 7.18289 339.234 7.00245ZM337.056 6.59054C337.056 5.90652 337.387 5.80568 337.861 6.34584C338.035 6.5447 337.926 6.81831 337.617 6.95299C337.309 7.08697 337.056 6.92479 337.056 6.59054ZM346.549 7.94443C345.681 7.66689 345.889 7.2686 346.844 7.37707C347.453 7.44656 347.843 7.35122 347.901 7.11902C347.95 6.91691 348.03 6.59319 348.08 6.4004C348.129 6.20761 348.612 6.03642 349.155 6.02032C349.696 6.00422 350.321 5.96948 350.543 5.94278C350.764 5.91609 351.671 5.80931 352.558 5.70592C354.53 5.475 355.601 5.13051 355.208 4.8534C355.045 4.73942 355.391 4.64578 355.975 4.64578C356.559 4.64578 357.159 4.77756 357.309 4.93857C357.498 5.14153 357.717 5.15424 358.026 4.97967C358.814 4.5335 360.46 4.39452 361.328 4.70044C362.025 4.94577 362.09 4.93984 361.709 4.66485C361.36 4.41231 361.475 4.37036 362.187 4.48901C362.704 4.57544 363.453 4.64578 363.852 4.64578C364.251 4.64578 364.723 4.84578 364.901 5.08984C365.11 5.375 365.57 5.49449 366.192 5.42373C367.564 5.26738 367.422 4.689 366.038 4.79959C364.946 4.8873 364.944 4.88433 365.993 4.66697C366.584 4.54494 367.887 4.43731 368.888 4.42841C369.888 4.41909 372.186 4.30893 373.993 4.18266C378.679 3.85555 390.455 3.28226 395.821 3.1204C398.334 3.04455 401.478 2.94074 402.808 2.88989C405.61 2.78227 411.142 2.61109 418.393 2.4077C421.201 2.32889 425.07 2.20644 426.992 2.13567C431.609 1.96534 438.879 1.95263 439.89 2.11322C440.333 2.18356 441.723 2.32211 442.98 2.42084C444.236 2.51956 445.264 2.67803 445.264 2.77252C445.264 2.86701 444.666 3.20514 443.935 3.52293C442.854 3.99368 442.104 4.09707 439.903 4.07842C438.294 4.06444 437.272 4.1513 437.379 4.2924C437.479 4.42248 439.423 4.53773 441.698 4.54833C445.272 4.56485 447.653 4.86781 446.841 5.20212C446.478 5.3517 439.352 5.49957 439.354 5.3572C439.354 5.28771 437.722 5.26399 435.726 5.30381C433.73 5.34449 430.71 5.28178 429.014 5.16441C427.318 5.04747 425.816 5.0017 425.676 5.06272C425.536 5.12373 424.384 5.19577 423.116 5.22289C421.848 5.25 420.143 5.35381 419.326 5.45296C418.443 5.56059 417.565 5.53389 417.159 5.38729C416.783 5.2517 414.138 5.11653 411.279 5.08687C407.742 5.05001 406.194 4.95213 406.43 4.78095C406.62 4.64239 406.366 4.67375 405.863 4.85086C405.235 5.07246 404.269 5.12585 402.765 5.0212C401.329 4.9212 400.695 4.95128 400.918 5.10848C401.3 5.37627 401.229 5.38136 396.358 5.43856C394.437 5.46101 392.321 5.56228 391.656 5.66313C390.991 5.7644 390.447 5.76101 390.447 5.65592C390.447 5.55084 389.842 5.46483 389.103 5.46483C388.363 5.46483 387.759 5.54364 387.759 5.64025C387.759 5.73686 387.382 5.81567 386.922 5.81567C386.46 5.81567 386.21 5.72669 386.364 5.61821C386.738 5.35551 381.216 5.74109 380.816 6.00592C380.082 6.49023 370.025 6.98132 370.025 6.5326C370.025 6.39574 369.769 6.28345 369.455 6.28345C369.143 6.28345 369.025 6.38133 369.195 6.50124C369.682 6.84361 368.446 7.05462 367.645 6.76564C367.108 6.57158 366.857 6.58344 366.655 6.81183C366.481 7.00928 365.597 7.09953 364.174 7.06479C362.958 7.03513 361.963 7.10928 361.963 7.22961C361.963 7.61647 359.202 7.36224 358.665 6.92623C358.38 6.69403 357.914 6.56734 357.628 6.64404C357.342 6.72115 357.231 6.87072 357.383 6.97708C357.534 7.08343 357.303 7.22919 356.871 7.30165C356.44 7.37368 355.941 7.33046 355.762 7.20546C355.566 7.06648 354.878 7.11436 353.999 7.32749C352.346 7.72833 347.204 8.15417 346.549 7.94485V7.94443ZM333.04 8.00044C333.04 7.86632 333.15 7.75647 333.284 7.75647C333.418 7.75647 333.681 7.86632 333.868 8.00044C334.056 8.13412 333.947 8.24353 333.625 8.24353C333.304 8.24353 333.04 8.13412 333.04 8.00044ZM224.037 14.9688C224.172 14.888 224.52 14.8792 224.811 14.9498C225.133 15.0274 225.038 15.0852 224.567 15.0967C224.142 15.1073 223.903 15.0499 224.037 14.9688ZM854.107 16.6166C853.917 16.3824 853.984 16.3158 854.272 16.452C854.538 16.5778 854.88 16.5248 855.033 16.3343C855.447 15.8216 856 15.9159 856 16.4989C856 17.0985 854.567 17.1873 854.107 16.6166ZM847.957 16.4114C847.397 16.0876 846.83 15.8868 846.694 15.9652C846.558 16.0437 845.285 16.1538 843.863 16.2106C841.401 16.309 838.349 15.6759 839.122 15.2281C839.742 14.8692 843.407 14.9532 844.207 15.3443C845.027 15.7449 846.52 15.7583 847.19 15.371C847.753 15.045 850.46 15.1162 850.835 15.4667C851.345 15.9446 850.587 17 849.735 17C849.316 17 848.517 16.7352 847.957 16.4114ZM859.365 17.6969C859.176 17.53 858.791 17.4711 858.511 17.5651C858.229 17.6596 858 17.6024 858 17.4387C858 16.8611 858.885 16.852 859.54 17.4225C859.904 17.7401 860.091 18 859.956 18C859.82 18 859.554 17.8633 859.365 17.6969ZM830 18C830 17.8826 829.61 17.7869 829.133 17.7869C828.657 17.7869 828.158 17.8826 828.026 18C827.893 18.1169 828.284 18.2131 828.892 18.2131C829.501 18.2131 830 18.1169 830 18ZM852.96 19.7789C850.65 19.5624 845.042 19.4074 834.566 19.2695C830.978 19.2224 827.524 19.0678 826.888 18.9258C826.198 18.7708 823.782 18.6922 820.867 18.7295C818.19 18.7638 816 18.7687 816 18.7405C816 18.662 819.14 18 819.512 18C819.692 18 819.69 18.1019 819.507 18.2258C819.312 18.3576 819.861 18.4517 820.824 18.4517C821.732 18.4517 822.475 18.3502 822.475 18.2258C822.475 18.1019 822.732 18 823.047 18C823.36 18 823.436 18.1272 823.212 18.2823C822.913 18.4914 823.009 18.5053 823.585 18.3359C824.013 18.2103 824.849 18.1191 825.443 18.1334C826.036 18.1473 827.811 18.1743 829.387 18.1927C830.961 18.2107 832.138 18.3023 832.001 18.3952C831.862 18.4885 833.244 18.5499 835.071 18.5319C836.897 18.5134 838.817 18.5932 839.337 18.709C839.966 18.8493 840.28 18.8375 840.28 18.6722C840.28 18.5364 840.574 18.5012 840.933 18.594C841.292 18.6869 843.659 18.7904 846.194 18.8244C848.728 18.8579 850.802 18.898 850.802 18.9127C850.802 18.9275 852.016 18.9725 853.5 19.0126C854.984 19.0531 856.258 19.1083 856.333 19.1357C856.46 19.1828 857.015 19.2511 857.951 19.3354C858.381 19.3734 855.848 20.0296 855.388 19.999C855.24 19.9891 854.147 19.8897 852.961 19.7784L852.96 19.7789ZM866.209 20.0014C865.726 19.873 866.087 19.802 867.229 19.802C868.203 19.802 869 19.8933 869 20.0049C869 20.2643 867.192 20.2617 866.209 20.0014ZM870.017 20.1601C870.628 19.8747 873.971 19.651 874.645 19.8504C875.034 19.9651 875.115 20.0714 874.829 20.0869C872.019 20.2373 869.779 20.2713 870.017 20.1601ZM108.531 23.5542C109.579 22.8989 110 22.8312 110 23.3169C110 23.5022 109.463 23.7608 108.805 23.8922C107.806 24.0905 107.763 24.0358 108.531 23.5542ZM97.0746 25C96.8658 24.8659 97.1103 24.7565 97.6195 24.7565C98.1276 24.7565 98.7149 24.8659 98.9249 25C99.1348 25.1341 98.8891 25.2435 98.3811 25.2435C97.8719 25.2435 97.2845 25.1341 97.0746 25ZM116.461 34.9127C115.816 34.6926 115.84 34.5444 116.581 34.2057C117.62 33.7297 118.446 34.1454 117.732 34.7837C117.477 35.0108 116.917 35.0679 116.461 34.9127ZM109.499 36.7728C109.654 36.6474 109.271 36.327 108.652 36.0602C107.542 35.5827 107.579 35.5621 110.933 34.7647C114.975 33.8043 115.346 33.7828 115.346 34.5085C115.346 34.8495 114.976 35.0636 114.382 35.0661C113.6 35.0697 113.565 35.1173 114.197 35.3184C114.626 35.4548 115.432 35.5225 115.988 35.4689C116.545 35.4147 117 35.4975 117 35.6529C117 35.8079 116.193 35.9127 115.208 35.8861C114.223 35.8585 112.922 35.851 112.316 35.8686C111.397 35.8957 111.351 35.9458 112.04 36.1695C112.746 36.3992 112.726 36.4388 111.902 36.4423C111.371 36.4448 110.938 36.5712 110.938 36.7237C110.938 36.8756 110.551 37 110.079 37C109.606 37 109.345 36.8977 109.499 36.7728ZM94.2808 39.5674C94.2568 39.1418 94.3868 38.9034 94.5708 39.0372C94.7538 39.1718 94.7738 39.5199 94.6138 39.8109C94.4378 40.1334 94.3068 40.0376 94.2808 39.5674ZM105.037 42.9689C105.172 42.8877 105.52 42.8794 105.811 42.9495C106.133 43.0271 106.038 43.0849 105.567 43.0969C105.142 43.107 104.903 43.0496 105.037 42.9689ZM111.276 42.4074L110 41.8128L113.255 41.5638C115.046 41.427 117.794 41.3067 119.365 41.2971C120.935 41.2875 122.22 41.1836 122.221 41.0662C122.221 40.8222 125.462 41.3079 125.967 41.6279C126.15 41.7442 125.546 41.7567 124.623 41.6557C123.59 41.5428 122.336 41.6579 121.36 41.9547C120.487 42.2208 118.489 42.4511 116.919 42.4681C115.348 42.4846 114.062 42.6117 114.062 42.7501C114.062 43.1995 112.583 43.0173 111.276 42.4074ZM90 45.9803C90 45.8748 90.45 45.7883 91.0004 45.7883C91.5491 45.7883 92 45.8911 92 46.0169C92 46.1426 91.5491 46.2286 91.0004 46.2088C90.45 46.1885 90 46.0857 90 45.9803ZM973.444 65.0002C972.987 64.8701 972.862 64.7637 973.167 64.7637C973.473 64.7637 974.098 64.8701 974.555 65.0002C975.014 65.1299 975.138 65.2363 974.833 65.2363C974.528 65.2363 973.902 65.1299 973.444 65.0002ZM35.1413 96.4219C35.1413 96.0914 35.3523 95.9187 35.6103 96.0376C35.8683 96.1572 35.9363 96.4279 35.7623 96.6388C35.3153 97.1794 35.1413 97.1181 35.1413 96.4219ZM31.0697 96.6484C31.0697 96.4488 31.3157 96.1785 31.6157 96.0489C31.9287 95.9131 32.0217 96.0685 31.8327 96.4124C31.4657 97.0818 31.0697 97.2051 31.0697 96.6484ZM27.1046 102.664C26.6407 102.231 27.8209 101.801 28.6577 102.099C29.3603 102.349 28.8987 103 28.0198 103C27.7151 103 27.3036 102.849 27.1046 102.664ZM246.064 103.643C246.242 103.409 246.808 103.208 247.322 103.196C247.836 103.184 249.408 103.116 250.816 103.045C252.662 102.954 253.137 102.998 252.522 103.206C251.819 103.444 251.81 103.495 252.475 103.499C252.918 103.502 253.121 103.583 252.926 103.681C252.731 103.778 251.034 103.905 249.155 103.963C246.309 104.051 245.793 103.997 246.064 103.643ZM241.041 104.023C240.859 103.917 241.302 103.814 242.023 103.794C242.744 103.775 243.158 103.862 242.944 103.987C242.468 104.267 241.487 104.285 241.041 104.023ZM909.439 105.781C908.668 105.396 908.95 105 909.995 105C910.548 105 911 105.226 911 105.502C911 106.025 910.207 106.166 909.439 105.781ZM650.624 106.762C649.6 106.405 649.915 105.813 650.999 106.058C651.549 106.182 652 106.457 652 106.667C652 107.079 651.61 107.106 650.624 106.762ZM649.238 106.738C649 106.499 648.955 106.212 649.138 106.1C649.631 105.794 650.17 106.244 649.903 106.74C649.716 107.087 649.586 107.087 649.238 106.738V106.738ZM657.04 107C657.04 106.866 657.151 106.757 657.284 106.757C657.418 106.757 657.681 106.866 657.868 107C658.057 107.134 657.947 107.243 657.625 107.243C657.304 107.243 657.04 107.134 657.04 107ZM191.162 107.644C190.619 106.908 191.447 106.8 193.535 107.335C194.623 107.613 195.243 107.863 194.91 107.888C192.365 108.088 191.445 108.028 191.162 107.644ZM725 108.014C725 107.737 726.565 107.708 726.965 107.978C727.121 108.085 726.743 108.188 726.125 108.207C725.506 108.226 725 108.14 725 108.014ZM735 108C735 107.866 735.362 107.756 735.803 107.756C736.245 107.756 736.76 107.866 736.95 108C737.139 108.134 736.777 108.244 736.147 108.244C735.516 108.244 735 108.134 735 108ZM127 109.779C127 109.65 127.422 109.392 127.939 109.204C128.668 108.938 129.04 108.933 129.608 109.182C130.176 109.431 130.136 109.558 129.43 109.753C128.282 110.071 127 110.084 127 109.779ZM415.254 110.99C415.523 110.824 415.844 110.749 415.966 110.824C416.089 110.899 415.868 111.036 415.477 111.127C414.911 111.259 414.865 111.231 415.254 110.99ZM409 111.096C409 111.036 409.225 110.92 409.5 110.838C409.775 110.755 410 110.803 410 110.945C410 111.087 409.775 111.203 409.5 111.203C409.225 111.203 409 111.155 409 111.096ZM83.3528 112.568C82.794 112.169 82.8527 112.114 83.864 112.083C84.4915 112.064 85.3472 112.032 85.7649 112.012C87.1134 111.947 87.3681 112.152 86.4776 112.591C85.3536 113.144 84.148 113.136 83.3528 112.568ZM72.4548 114.864C71.6151 114.631 72.019 114 73.0069 114C73.7257 114 74.3566 114.801 73.7667 114.965C73.5055 115.038 72.9145 114.992 72.4548 114.864ZM79.2227 115.55C78.9116 115.344 78.8696 115.17 79.1288 115.165C79.3879 115.161 79.1454 115.009 78.5899 114.83C77.1659 114.37 78.4275 113.975 81.2198 114.008C82.678 114.025 83.0292 114.097 82.2995 114.228C81.2707 114.415 80.5039 115.179 81.3548 115.171C82.9402 115.154 84.0854 114.762 83.838 114.319C83.5974 113.887 83.661 113.891 84.3397 114.349C85.262 114.972 89.3717 115.086 89.7257 114.499C89.9067 114.201 90.1267 114.203 90.7928 114.509C91.8442 114.991 92.4642 116.164 91.5713 115.981C91.2241 115.909 91.0177 115.669 91.1136 115.446C91.2358 115.163 90.9884 115.193 90.2901 115.545C89.492 115.946 88.334 116.035 84.5392 115.986C81.522 115.948 79.5816 115.789 79.2227 115.55ZM334.922 10.6322C335.071 10.4298 335 10.1628 334.764 10.0401C334.53 9.9181 334.217 10.0839 334.069 10.4097C333.777 11.0513 334.482 11.235 334.922 10.6329V10.6322ZM829.811 14.9498C829.52 14.8792 829.171 14.888 829.038 14.9688C828.903 15.0499 829.141 15.1073 829.567 15.0967C830.038 15.0852 830.133 15.0274 829.811 14.9498ZM125.919 23.5C125.919 23.2246 125.821 23 125.702 23C125.583 23 125.342 23.2246 125.167 23.5C124.992 23.7754 125.09 24 125.384 24C125.678 24 125.919 23.7754 125.919 23.5ZM120 23.1702C120 22.7779 119.305 23.122 119.106 23.6125C118.911 24.0929 118.965 24.1145 119.436 23.7444C119.747 23.5016 120 23.2431 120 23.1702ZM106 24C106 23.8659 105.775 23.7565 105.5 23.7565C105.225 23.7565 105 23.8659 105 24C105 24.1341 105.225 24.2435 105.5 24.2435C105.775 24.2435 106 24.1341 106 24ZM166.812 24.9497C166.52 24.8795 166.172 24.8879 166.037 24.9687C165.903 25.0498 166.142 25.1072 166.567 25.0966C167.037 25.0851 167.133 25.0273 166.812 24.9497ZM803.812 24.9495C803.52 24.8793 803.172 24.8877 803.037 24.9689C802.903 25.0496 803.142 25.1074 803.567 25.0968C804.037 25.0849 804.133 25.0271 803.812 24.9495ZM802 25C802 24.8884 801.551 24.7971 801 24.7971C800.451 24.7971 800 24.8884 800 25C800 25.1116 800.451 25.2029 801 25.2029C801.551 25.2029 802 25.1116 802 25ZM156.683 24.6378L158 24.6044L156.772 24.2044C155.385 23.7524 153 24.1005 153 24.7556C153 24.9936 153.529 25.0712 154.184 24.9285C154.835 24.7866 155.961 24.6556 156.683 24.6378ZM806 26.0307C806 25.9301 805.259 25.8246 804.356 25.7964C803.415 25.7664 802.85 25.8445 803.035 25.9791C803.412 26.2535 806.002 26.2989 806 26.0307ZM155.767 27.8516C155.299 27.7929 154.61 27.8609 154.233 28.0025C153.752 28.1834 154.006 28.2147 155.082 28.1093C155.959 28.0228 156.252 27.9125 155.767 27.8516ZM133.979 35.745C134.717 35.651 137.012 35.482 139.079 35.3698C141.146 35.2572 143.683 35.0488 144.716 34.9065C145.75 34.7642 146.596 34.6569 146.596 34.6684C146.596 34.762 150.272 34.2383 152.099 33.8845C154.868 33.3476 155.042 32.9352 152.501 32.9352C151.188 32.9352 150.622 32.8244 150.622 32.5681C150.622 32.1917 153.024 32.0427 157.013 32.1722C158.75 32.2289 163.709 31.8068 164.843 31.5057C165.691 31.2814 162.982 31.0278 159.447 31.0012C157.148 30.9839 155.189 31.1564 152.77 31.5891C150.886 31.9256 148.847 32.2023 148.238 32.2045C147.357 32.2076 147.291 32.2542 147.911 32.4333C148.34 32.557 148.884 32.604 149.12 32.5375C149.355 32.471 149.548 32.5211 149.548 32.6483C149.548 32.8674 148.373 33.0221 144.272 33.3431C143.29 33.4198 142.356 33.638 142.196 33.8273C141.959 34.1089 141.753 34.1146 141.063 33.8592C140.357 33.5981 140.272 33.6101 140.536 33.9328C140.768 34.2153 140.542 34.3079 139.698 34.2778C139.062 34.2552 137.741 34.3368 136.761 34.4591C135.525 34.613 134.743 34.5917 134.211 34.3904C133.779 34.2264 133.442 34.2051 133.442 34.3408C133.442 34.6108 129.351 35.3831 127.921 35.3831C127.414 35.3831 127 35.5339 127 35.7179C127 35.9671 127.72 36.0349 129.818 35.9844C131.368 35.9467 133.241 35.839 133.979 35.745ZM103 37.9044C103 37.8453 102.775 37.7972 102.5 37.7972C102.226 37.7972 102 37.9132 102 38.0548C102 38.1969 102.226 38.245 102.5 38.1625C102.775 38.0795 103 37.9635 103 37.9044ZM101 38.0087C101 37.8746 100.46 37.7665 99.8013 37.7687C98.7763 37.7718 98.7515 37.8066 99.6301 38.0087C100.923 38.3056 101 38.3056 101 38.0087ZM184.811 38.9498C184.519 38.8792 184.171 38.888 184.037 38.9688C183.903 39.0499 184.141 39.1073 184.567 39.0967C185.037 39.0852 185.133 39.0274 184.811 38.9498ZM111.965 39C112.078 38.8884 111.908 38.7971 111.586 38.7971C111.264 38.7971 111 38.8884 111 39C111 39.1116 111.17 39.2029 111.379 39.2029C111.587 39.2029 111.85 39.1116 111.965 39ZM924 41.809C924 41.6854 921.528 41.45 918.505 41.2862C911.698 40.9164 910.476 40.9088 911.172 41.2412C911.464 41.3809 914.408 41.5997 917.714 41.7275C921.021 41.8559 923.788 41.9771 923.863 41.997C923.939 42.0173 924 41.9326 924 41.809ZM143.311 43.0047C144.304 42.8176 144.264 42.7933 142.927 42.7779C142.103 42.7686 141.277 42.8705 141.087 43.0047C140.676 43.2954 141.767 43.2954 143.311 43.0047ZM928 45.8533C928 45.7644 926.037 45.5804 923.638 45.4448C921.239 45.3091 918.704 45.1331 918.004 45.0539C917.214 44.9642 916.854 44.9876 917.055 45.1154C917.232 45.2288 919.47 45.4406 922.028 45.5861C924.585 45.7316 926.916 45.8804 927.206 45.9166C927.497 45.9532 927.795 45.9901 927.868 45.9992C927.941 46.0082 928 45.9426 928 45.8533ZM952.715 47.9687C952.046 47.9109 950.953 47.9109 950.285 47.9687C949.617 48.027 950.164 48.0746 951.501 48.0746C952.837 48.0746 953.382 48.027 952.715 47.9687ZM960.81 49.9638C960.364 49.8963 959.636 49.8963 959.19 49.9638C958.745 50.0317 959.11 50.0869 960.001 50.0869C960.89 50.0869 961.255 50.0317 960.81 49.9638ZM956 55.0004C956 54.8663 955.775 54.7565 955.5 54.7565C955.226 54.7565 955 54.8663 955 55.0004C955 55.1341 955.226 55.2435 955.5 55.2435C955.775 55.2435 956 55.1341 956 55.0004ZM59.6728 84.0037C60.3557 83.8281 60.0032 83.7668 58.2959 83.7637C57.0332 83.7615 56 83.8696 56 84.0037C56 84.3139 58.4655 84.3139 59.6728 84.0037ZM63.963 84.6242C63.3164 83.9324 61 83.7565 61 84.3988C61 84.759 61.6653 85 62.6581 85C63.5699 85 64.1567 84.8311 63.963 84.6242ZM54 84.4246C54 83.9138 52.4384 83.8571 50.3877 84.2913C48.1561 84.7647 48.6858 85.098 51.4746 84.9739C53.1683 84.899 54 84.7182 54 84.4246ZM57.811 84.9495C57.52 84.8794 57.1713 84.8877 57.0375 84.9689C56.903 85.0497 57.142 85.107 57.5675 85.0969C58.0376 85.0849 58.1334 85.0276 57.811 84.9495ZM919 95.0087C919 94.8746 918.46 94.7665 917.801 94.7687C916.777 94.7718 916.752 94.8066 917.629 95.0087C918.922 95.3056 919 95.3056 919 95.0087ZM44.1959 98.8726C44.6384 98.7978 45 98.5546 45 98.3326C45 97.989 44.6798 97.9467 42.8407 98.0484C40.5075 98.1773 38.9839 98.5599 40.8046 98.5599C41.4027 98.5599 42.0338 98.6612 42.2058 98.7844C42.5674 99.0426 43.0633 99.0649 44.1959 98.8726ZM37.2104 99.0012C38.1927 98.8446 38.2405 98.8048 37.454 98.7991C36.9163 98.7951 36.0359 98.886 35.4983 99.0012C34.2521 99.2676 35.5382 99.2676 37.2104 99.0012ZM30.811 98.9496C30.5193 98.8795 30.1713 98.8879 30.0375 98.969C29.903 99.0498 30.142 99.1076 30.5675 99.0965C31.0376 99.0851 31.1334 99.0273 30.811 98.9496ZM860.971 103.007C861.168 102.856 860.35 102.774 858.824 102.792C856.636 102.818 856.533 102.842 857.897 103.007C860.139 103.278 860.618 103.278 860.971 103.007ZM439.985 105.947C440.131 105.882 439.165 105.81 437.84 105.788C436.516 105.765 435.263 105.869 435.057 106.019C434.794 106.211 435.431 106.258 437.202 106.178C438.588 106.117 439.84 106.012 439.985 105.947ZM89.1178 105.661C90.3224 105.636 90.315 105.615 88.9621 105.233C87.3677 104.783 86 105.007 86 105.718C86 105.977 86.4153 106.076 86.9248 105.937C87.4334 105.8 88.4207 105.676 89.1178 105.661ZM431.827 105.859C432.461 105.795 431.296 105.752 429.241 105.763C424.335 105.789 422.393 106.013 425.504 106.194C426.769 106.267 428.45 106.248 429.241 106.151C430.031 106.053 431.195 105.922 431.827 105.859ZM413.277 106.546C415.148 106.27 415.404 106.163 414.483 106.047C413.02 105.862 395.575 106.252 386.226 106.678C383.686 106.793 403.305 107.075 407.336 106.981C409.296 106.936 411.969 106.739 413.277 106.546ZM108 106.364C108 105.923 107.278 105.881 105.94 106.246C104.427 106.657 104.834 107.17 106.493 106.945C107.322 106.833 108 106.572 108 106.364ZM133.953 108C134.156 107.862 133.68 107.756 132.859 107.756C132.06 107.756 131.244 107.866 131.046 108C130.844 108.138 131.32 108.244 132.141 108.244C132.94 108.244 133.755 108.134 133.953 108ZM95 108.911C95 108.858 94.5495 108.815 94 108.815C93.4505 108.815 93 108.921 93 109.051C93 109.181 93.4505 109.223 94 109.147C94.5495 109.069 95 108.964 95 108.911ZM344.593 111.381C346.794 110.944 346.739 110.938 342.062 111.09C331.354 111.438 328 111.613 328 111.828C328 112.235 342.226 111.851 344.593 111.381ZM255 115.223C255 114.954 254.744 114.934 253.862 115.134C253.181 115.288 252.858 115.542 253.059 115.764C253.319 116.051 253.579 116.071 254.198 115.853C254.64 115.698 255 115.414 255 115.223ZM254.27 117.376C254.27 117.032 254.036 116.818 253.749 116.898C253.462 116.978 252.868 116.655 252.431 116.18C251.969 115.679 251.257 115.316 250.734 115.316C250.022 115.316 249.965 115.244 250.46 114.974C250.942 114.711 250.926 114.607 250.392 114.526C249.845 114.442 249.868 114.324 250.504 113.974C251.119 113.635 251.151 113.504 250.638 113.426C250.268 113.369 249.966 113.216 249.966 113.085C249.966 112.954 250.205 112.914 250.498 112.996C250.803 113.082 250.893 112.983 250.71 112.766C250.533 112.558 250.666 112.388 251.003 112.388C251.451 112.388 251.461 112.255 251.042 111.9C250.579 111.508 250.633 111.412 251.313 111.412C251.998 111.412 252.031 111.349 251.486 111.085C250.79 110.746 249.437 111.049 249.613 111.504C249.659 111.621 249.413 111.764 249.066 111.822C248.652 111.892 248.543 111.743 248.747 111.388C248.919 111.09 248.839 110.906 248.571 110.977C248.302 111.048 247.598 111.026 247.006 110.927C246.153 110.785 246.403 110.711 248.216 110.57C249.643 110.46 250.504 110.263 250.504 110.048C250.504 109.859 250.974 109.703 251.55 109.703C252.125 109.703 252.926 109.489 253.331 109.227C254.058 108.757 256.798 108.116 257.686 108.208C257.938 108.234 259.511 108.098 261.185 107.907C262.857 107.716 265.739 107.482 267.589 107.387C269.44 107.292 271.088 107.116 271.254 106.995C271.419 106.874 272.085 106.773 272.733 106.77C273.381 106.766 275.364 106.44 277.14 106.043C278.916 105.646 280.779 105.319 281.279 105.317C281.779 105.314 282.338 105.201 282.522 105.067C282.704 104.933 282.581 104.823 282.247 104.823C281.501 104.823 281.77 103.732 282.522 103.708C282.817 103.698 284.121 103.553 285.418 103.384C286.716 103.216 288.369 103.145 289.091 103.228C289.813 103.31 291.173 103.27 292.114 103.138C293.052 103.007 295.173 102.779 296.824 102.633C301.357 102.23 303.777 101.894 303.777 101.668C303.777 101.432 276.172 101.597 269.338 101.872C265.736 102.018 264.363 101.978 262.881 101.685C261.844 101.481 260.876 101.298 260.727 101.279C260.579 101.259 259.751 101.111 258.886 100.949C258.021 100.787 256.932 100.722 256.465 100.804C255.998 100.887 248.835 100.994 240.548 101.042C232.261 101.09 224.392 101.239 223.06 101.372C221.728 101.506 217.737 101.743 214.191 101.899C210.645 102.055 207.279 102.295 206.713 102.432C206.146 102.569 204.501 102.63 203.055 102.567C201.609 102.504 200.296 102.549 200.137 102.665C199.978 102.783 199.621 102.815 199.346 102.738C199.071 102.661 198.845 102.714 198.845 102.856C198.845 102.998 198.664 103.093 198.441 103.066C197.547 102.959 192.926 103.403 192.926 103.596C192.926 103.835 188.861 104.23 187.324 104.142C186.759 104.109 185.841 104.304 185.285 104.575C184.729 104.845 183.86 105.08 183.353 105.096C182.846 105.112 180.98 105.148 179.204 105.177C177.428 105.206 175.007 105.356 173.823 105.512C172.639 105.667 170.755 105.855 169.637 105.931C168.519 106.006 167.736 106.164 167.896 106.282C168.397 106.649 167.202 106.746 157.852 107.09C157.356 107.109 156.993 107.228 157.045 107.355C157.099 107.482 156.657 107.651 156.065 107.73C155.473 107.809 154.377 108.062 153.63 108.292C152.652 108.594 150.615 108.756 146.365 108.869C143.118 108.955 139.9 109.014 139.216 109C138.532 108.986 137.229 109.149 136.319 109.362C135.381 109.582 134.523 109.653 134.335 109.526C133.871 109.213 131.977 108.914 132.392 109.218C132.83 109.539 132.305 109.523 130.873 109.171C127.981 108.46 114.291 109 112.863 109.881C112.421 110.154 112.372 110.338 112.729 110.392C113.035 110.438 113.285 110.574 113.285 110.692C113.285 110.811 112.947 110.849 112.533 110.777C112.119 110.705 111.619 110.764 111.425 110.907C110.902 111.29 114.127 111.234 115.868 110.83C116.667 110.645 118.411 110.413 119.743 110.314C121.075 110.215 122.588 110.098 123.106 110.055C123.624 110.011 124.048 110.12 124.048 110.295C124.048 110.521 124.716 110.591 126.334 110.533C128.102 110.471 128.406 110.51 127.669 110.703C127.144 110.841 126.836 111.043 126.985 111.151C127.304 111.386 124.295 111.621 118.471 111.818C115.201 111.929 114.133 111.885 113.771 111.626C113.43 111.382 113.299 111.374 113.294 111.595C113.281 112.044 110.047 111.971 108.888 111.496C108.346 111.274 107.904 111.196 107.904 111.323C107.904 111.463 106.157 111.488 103.465 111.386C101.023 111.294 97.2096 111.158 94.9892 111.084C92.7699 111.01 90.1577 110.822 89.1859 110.666C88.2141 110.51 86.8154 110.434 86.0795 110.498C85.3427 110.562 84.5863 110.502 84.4001 110.365C84.1916 110.212 84.3319 110.192 84.7656 110.314C85.2033 110.437 85.3388 110.415 85.1243 110.258C84.7189 109.96 82.1525 109.691 79.1153 109.627C77.3239 109.589 76.9525 109.494 76.9047 109.057C76.8521 108.588 77.2235 108.513 80.4019 108.346C82.3582 108.243 84.5639 108.183 85.3037 108.211L86.6488 108.264L85.2208 107.913C82.7451 107.303 80.3308 107.045 75.6172 106.888C73.1015 106.805 69.4697 106.557 67.5457 106.338C63.1216 105.833 47.7682 105.795 47.0985 106.286C46.8685 106.455 46.3948 106.514 46.0468 106.416C45.1482 106.164 35.2453 106.08 35.5825 106.327C35.8973 106.558 35.8164 106.562 28.7772 106.659C23.8092 106.727 21.7116 106.81 14.2727 107.235C10.8808 107.429 8.89729 107.318 6.95862 106.826C6.1467 106.62 6.32215 106.503 8.27641 105.943C9.85444 105.492 11.7804 105.226 14.6889 105.059C19.6521 104.775 24.3872 104.416 27.7996 104.067C29.8396 103.858 30.247 103.729 30.0336 103.358C29.8805 103.091 29.4604 102.959 29.0179 103.035C28.6027 103.108 28.2635 103.046 28.2635 102.897C28.2635 102.748 28.6875 102.625 29.2051 102.623C30.0102 102.62 30.0297 102.585 29.3396 102.382C28.8288 102.233 28.7733 102.145 29.1885 102.142C29.5501 102.14 29.7051 101.974 29.5336 101.771C29.3172 101.516 29.8542 101.277 31.2987 100.985L33.3758 100.567L28.1183 100.419C25.2264 100.339 21.4124 100.284 19.6433 100.297C17.8733 100.311 16.4249 100.308 16.4249 100.291C16.4249 100.274 16.9093 100.008 17.5009 99.6985C18.0935 99.3887 18.578 99.2097 18.578 99.3003C18.578 99.3909 19.1228 99.3034 19.7895 99.1053C20.4562 98.9078 22.7965 98.6191 24.9905 98.4649C27.1845 98.3102 29.939 98.0303 31.1106 97.8429C32.2832 97.6551 34.1195 97.4982 35.1926 97.4933C38.1889 97.48 45.7379 96.5898 43.5545 96.5071C43.2836 96.4965 42.5769 96.4382 41.9853 96.3763C41.3936 96.3144 40.6139 96.2349 40.2523 96.1986C39.0212 96.0762 38.9423 95.8384 40.0788 95.6753C40.7026 95.5855 41.8459 95.2456 42.6198 94.9207C43.3927 94.5958 44.5663 94.3293 45.2271 94.3293C45.887 94.3293 46.7038 94.1786 47.041 93.9938C47.5459 93.7184 47.1024 93.63 44.5517 93.4983C42.844 93.4099 40.7211 93.2848 39.8332 93.2198C37.72 93.0651 29.3152 93.0877 28.7382 93.2494C27.9594 93.4678 21.8062 93.5704 21.8062 93.3652C21.8062 93.2574 22.1697 93.0324 22.6132 92.8653C23.0577 92.6982 23.4212 92.4467 23.4212 92.3066C23.4212 92.1669 23.2614 92.1241 23.0664 92.2125C22.8715 92.3009 22.3871 92.2509 21.9904 92.1011C21.5908 91.9508 21.2681 91.9335 21.2681 92.0626C21.2681 92.1908 20.9055 92.2956 20.4611 92.2956C19.1686 92.2956 19.5234 92.0348 21.2993 91.6781C23.2965 91.2771 23.0099 91.1092 19.7905 90.7909C16.8537 90.501 16.2933 90.0466 18.3996 89.6616C20.579 89.2633 30.8172 88.7461 36.6703 88.7391C39.414 88.7355 42.3011 88.6595 43.0857 88.5702L44.5136 88.408L42.9804 87.8387C42.1373 87.5257 41.0379 87.2662 40.5379 87.2614C39.262 87.2494 38.8741 86.8614 39.5583 86.281C40.2805 85.6688 44.962 84.5681 46.8422 84.5681C47.6356 84.5681 48.0937 84.4629 47.9046 84.3241C47.7214 84.1902 47.1278 84.0806 46.5849 84.0806C45.6735 84.0806 44.6599 83.471 44.8597 83.0432C45.0624 82.6082 36.525 83.0944 35.8106 83.5586C35.2648 83.9131 21.5235 84.8391 20.1735 84.6128L18.8869 84.3966L20.1375 84.0934C20.8256 83.9263 25.2965 83.494 30.0726 83.1329C38.8127 82.4725 40.9394 82.0057 35.2131 82.0057C33.4538 82.0057 31.8338 81.8665 31.3075 81.6694C30.5609 81.3904 29.5258 81.3825 25.1659 81.6238C17.1491 82.0681 12.491 82.3726 11.3984 82.5251C10.6742 82.6259 10.4568 82.5534 10.5903 82.2568C10.7872 81.8245 12.452 81.3171 15.0613 80.8945C17.3079 80.5303 15.9112 80.2098 13.0398 80.4299C11.7941 80.5254 9.68485 80.6806 8.35341 80.7752L5.93227 80.9471L7.94989 80.0697C9.06007 79.5874 9.96751 79.1538 9.96751 79.1061C9.96751 79.0575 8.46648 78.9417 6.63113 78.8475C2.29178 78.6247 -0.0299438 78.0731 0.000271722 77.2717C0.0158669 76.8491 3.49651 76.2824 6.73639 76.175C8.06978 76.1304 11.0972 75.92 13.4657 75.7065C15.8332 75.4934 19.4659 75.2698 21.5381 75.2092C23.6094 75.1491 26.7576 74.9833 28.5335 74.8423C39.5593 73.9645 42.0418 73.7483 42.5165 73.6246C42.8089 73.5485 41.9609 73.3664 40.6334 73.2197C39.2971 73.0725 38.2191 72.8099 38.2191 72.6327C38.2191 72.222 43.6423 71.3305 48.5645 70.9313C50.9583 70.7373 52.7303 70.4486 53.3112 70.1578C53.8298 69.8979 55.631 69.5695 57.4137 69.4103C61.4568 69.0501 61.3476 68.7075 56.9537 67.9711C56.0121 67.8138 55.3503 67.5574 55.4838 67.4022C55.788 67.0486 58.2822 66.5102 59.6127 66.5102C60.1634 66.5102 60.4636 66.4002 60.2813 66.2658C60.0981 66.1314 58.1467 66.0218 55.9449 66.0218C52.3161 66.0218 50.8589 65.7725 52.6134 65.4511C54.1807 65.1647 46.3276 65.3199 42.4483 65.6523C37.6177 66.0664 34.9899 65.8932 34.9899 65.1603C34.9899 64.8226 36.3954 64.3792 40.2718 63.4939C43.924 62.6602 45.3353 62.2239 44.846 62.0807C43.9162 61.8084 44.8333 61.53 48.4426 60.9894C53.5374 60.2265 57.5785 58.9472 57.0482 58.2661C56.6847 57.8006 58.6711 57.5469 66.8741 57.0099C70.9513 56.7429 75.0353 56.3552 75.9486 56.1488C76.8618 55.9419 78.7956 55.7085 80.245 55.6299C84.2432 55.4124 91.8946 54.5345 93.0915 54.1562C93.6753 53.9714 94.8859 53.8123 95.7817 53.803C96.6774 53.7937 97.8948 53.6916 98.4874 53.5762C99.3442 53.4092 99.1249 53.3592 97.4114 53.3305C92.8244 53.254 90.3906 53.0489 89.7824 52.6878C89.3672 52.4411 88.719 52.3655 87.8993 52.4676C86.8232 52.6016 86.7813 52.5857 87.6001 52.3532C88.1235 52.2042 88.9715 52.114 89.4832 52.1525C89.9959 52.1905 90.7415 52.1291 91.1392 52.0163C91.5681 51.8943 92.4053 51.9421 93.1909 52.1326C94.2251 52.3837 94.7426 52.3912 95.536 52.1662C96.1803 51.9836 96.6735 51.966 96.8792 52.1171C97.0585 52.2484 98.5829 52.3598 100.267 52.3647C101.952 52.3695 103.936 52.5304 104.676 52.7223C106.288 53.14 106.828 53.1705 106.828 52.8442C106.828 52.7099 106.451 52.5998 105.989 52.5998C105.528 52.5998 105.283 52.5026 105.445 52.3837C105.607 52.2648 105.232 52.1074 104.612 52.034C103.993 51.9602 103.591 51.7556 103.72 51.5792C103.957 51.253 106.368 51.062 113.823 50.7787C120.559 50.5223 122.434 50.3844 122.434 50.1448C122.434 50.0188 122.07 49.9159 121.626 49.9159C121.177 49.9159 120.819 49.6988 120.819 49.4279C120.819 49.0698 121.177 48.9399 122.164 48.9399C123.713 48.9399 123.976 48.5637 122.547 48.3944C122.018 48.3317 119.293 48.3387 116.493 48.4103C108.338 48.619 105.074 48.5496 103.369 48.131C102.502 47.9184 101.638 47.788 101.449 47.841C101.258 47.8941 101.203 47.6284 101.326 47.2505C101.593 46.4261 100.835 46.2979 95.3109 46.2285C92.0037 46.1874 91.7474 46.1507 92.8966 45.8802C94.7865 45.436 101.722 44.7981 105.858 44.6885C107.971 44.6324 109.968 44.4321 110.686 44.2041C112.215 43.7183 113.136 43.7121 114.169 44.1806C114.634 44.3919 115.93 44.5449 117.225 44.5418C121.213 44.5325 136.094 43.846 138.114 43.5782C140.001 43.328 140.058 43.2877 139.66 42.4872C139.409 41.9829 139.466 41.5568 139.804 41.4038C140.187 41.2297 140.17 41.0476 139.75 40.8177C138.465 40.1154 140.1 39.9699 147.953 40.0884C154.055 40.1803 155.958 40.1299 157.196 39.8435C158.506 39.5407 164.412 39.123 168.441 39.0479C169.034 39.0368 170.729 38.9299 172.209 38.8101L174.899 38.5917L172.478 38.414C171.146 38.3163 167.15 38.2925 163.598 38.361C160.047 38.4295 154.962 38.4706 152.298 38.4529C149.635 38.4352 144.429 38.5992 140.729 38.818C133.409 39.2508 125.86 39.5531 122.61 39.5443C121.477 39.5412 120.398 39.6344 120.211 39.7516C120.025 39.8691 119.118 39.9788 118.194 39.996C117.27 40.0132 116.513 40.118 116.513 40.2294C116.513 40.3403 115.97 40.3616 115.303 40.2767C114.355 40.156 114.268 40.1781 114.899 40.3788C115.595 40.5994 115.577 40.6352 114.765 40.6387C114.247 40.6409 113.823 40.7647 113.823 40.9145C113.823 41.0816 113.312 41.0343 112.497 40.7925C111.024 40.3549 110.378 40.286 110.826 40.6148C110.988 40.7337 110.639 40.888 110.05 40.9578C109.438 41.0303 108.98 40.964 108.98 40.8027C108.98 40.6392 108.13 40.5202 106.962 40.5202C105.68 40.5202 104.991 40.6272 105.071 40.8137C105.157 41.0158 104.577 41.071 103.211 40.9919C100.971 40.8619 98.7603 40.293 98.7477 39.8435C98.7418 39.6517 98.5527 39.6755 98.2184 39.9103C97.8129 40.1945 97.695 40.1224 97.6882 39.5893C97.6774 38.7093 98.5644 37.9578 99.6142 37.9578C100.064 37.9578 100.284 37.8482 100.102 37.7143C99.9183 37.5799 100.207 37.4615 100.743 37.4513C102.516 37.4173 103.642 37.2696 104.84 36.9134C105.916 36.5938 108.442 36.7167 108.442 37.0884C108.442 37.1556 108.118 37.1543 107.722 37.0849C107.325 37.0159 106.658 37.1503 106.241 37.3837C105.587 37.7488 105.588 37.7788 106.247 37.5985C106.835 37.438 106.923 37.4928 106.633 37.8372C106.406 38.105 106.532 38.3645 106.945 38.4834C107.974 38.78 108.842 38.7243 107.905 38.422C107.298 38.2257 107.61 38.1939 109.164 38.292C110.308 38.3641 111.671 38.2978 112.215 38.1439C112.96 37.9327 113.39 37.9371 113.987 38.1616C114.622 38.4008 114.855 38.3742 115.192 38.025C115.422 37.7868 115.571 37.5092 115.524 37.4089C115.476 37.3081 115.781 37.2259 116.201 37.2259C116.62 37.2259 117.055 37.0999 117.168 36.9465C117.281 36.7931 118.084 36.6331 118.952 36.5911C119.82 36.5491 120.801 36.3471 121.132 36.142C121.462 35.9369 121.929 35.8498 122.17 35.9484C122.409 36.047 122.453 35.9356 122.267 35.7004C121.851 35.1749 122.881 35.1258 123.325 35.6501C123.606 35.9833 123.759 35.9789 124.652 35.612C125.606 35.2204 125.663 35.2235 125.671 35.6624C125.678 36.0523 125.763 36.0682 126.2 35.7614C126.978 35.216 126.867 35.0971 125.427 34.9331C124.514 34.8292 124.141 34.6277 124.201 34.2701C124.295 33.6999 126.17 33.2737 128.33 33.3316C130.342 33.3851 132.12 33.0709 132.12 32.6615C132.12 32.3981 132.654 32.3207 134.138 32.3698C136.307 32.4414 139.955 32.1669 141.268 31.8332C141.92 31.667 141.868 31.6241 140.999 31.6091C140.407 31.5985 138.711 31.5384 137.232 31.4756C132.656 31.2807 126.569 31.2873 124.373 31.4884C122.867 31.6268 122.383 31.6033 122.653 31.4058C122.884 31.2356 122.739 31.1808 122.273 31.2621C121.829 31.339 121.116 31.1158 120.548 30.7228C119.855 30.2428 119.763 30.024 120.227 29.9537C120.664 29.8879 120.557 29.742 119.906 29.5104C119.022 29.1957 119.079 29.1766 120.551 29.2925C121.439 29.3623 121.863 29.3548 121.492 29.2757C120.13 28.9844 120.88 28.6847 122.972 28.6847C124.33 28.6847 125.127 28.7969 125.133 28.9897C125.138 29.2142 125.262 29.2071 125.603 28.9636C125.894 28.7554 126.192 28.7249 126.405 28.8809C126.765 29.1457 127.451 29.1254 129.133 28.7987C129.709 28.6869 130.977 28.5879 131.95 28.579C134.18 28.5583 134.904 27.9527 132.698 27.9527C131.826 27.9527 131.025 27.794 130.848 27.5863C130.64 27.3396 130.875 27.2203 131.572 27.2203C132.14 27.2203 132.798 27.0832 133.035 26.9153C133.652 26.4781 135.845 25.9596 136.409 26.1179C136.672 26.1917 137.041 26.1404 137.226 26.0043C137.412 25.8677 138.233 25.7563 139.049 25.7563C139.866 25.7563 141.849 25.5781 143.457 25.3598C145.994 25.0159 146.222 24.9368 145.185 24.7604C144.529 24.6486 140.036 24.5725 135.201 24.5907C130.366 24.6088 126.094 24.535 125.707 24.4267C125.306 24.3144 124.845 24.3458 124.636 24.4996C124.203 24.817 107.475 25.0574 107.06 24.7525C106.914 24.645 106.418 24.6225 105.958 24.7029C105.393 24.8011 105.319 24.9027 105.728 25.0172C106.061 25.1105 105.597 25.187 104.697 25.187C103.798 25.187 103.062 25.0818 103.062 24.9536C103.062 24.8254 102.692 24.8594 102.241 25.0292C101.79 25.1989 101.249 25.2595 101.038 25.164C100.829 25.0689 101.257 24.783 101.993 24.5292L103.331 24.0678L101.986 24.1849C100.806 24.2874 100.773 24.2733 101.717 24.07C103.268 23.7358 105.819 23.7703 107.313 24.146C108.77 24.5124 110.595 24.3913 110.595 23.929C110.595 23.7159 111.658 23.62 114.092 23.6142C116.287 23.6085 117.59 23.7049 117.59 23.8733C117.59 24.0209 117.894 23.9612 118.263 23.7416C118.749 23.4525 120.206 23.2978 123.51 23.1846C126.025 23.0989 129.612 22.8734 131.48 22.6842C133.348 22.4946 135.649 22.3293 136.592 22.3165C137.536 22.3032 139.518 22.1432 140.998 21.9598C143.521 21.6473 143.237 21.6349 136.425 21.7595C132.429 21.8329 128.797 21.8948 128.353 21.8966C127.909 21.8988 122.339 22.1582 115.976 22.4729C109.613 22.7877 102.676 23.0785 100.561 23.1196C98.4445 23.1603 96.8246 23.2761 96.9591 23.3769C97.0946 23.4777 96.1618 23.5603 94.8869 23.5608C93.612 23.5608 90.3896 23.7208 87.7258 23.9153C83.1574 24.249 72.4133 24.5929 73.8725 24.3586C74.2438 24.2989 74.4115 24.15 74.2438 24.0271C74.0771 23.9042 74.62 23.7986 75.4515 23.7919C76.2829 23.7858 77.8102 23.5723 78.8463 23.3172C79.8824 23.0626 81.2148 22.7519 81.8055 22.6268C83.752 22.2152 115.489 19.8341 122.972 19.5384C125.191 19.4508 131.609 19.1613 137.232 18.8952C142.855 18.6296 150.277 18.3056 153.725 18.1752C157.173 18.0452 161.159 17.7791 162.583 17.5851C164.454 17.3296 165.276 17.3075 165.544 17.5037C165.884 17.7535 171.545 17.685 178.398 17.349C179.433 17.2982 182.702 17.1881 185.662 17.1042C190.972 16.9534 199.063 16.4473 203.592 15.9823C204.871 15.851 206.144 15.8073 206.421 15.8846C206.698 15.9624 210.447 15.7838 214.752 15.4881C221.123 15.0505 222.809 15.0059 223.812 15.249C224.82 15.4939 226.109 15.4528 230.912 15.0236C238.908 14.3088 249.341 13.3801 254.54 12.9195C256.908 12.71 260.347 12.3829 262.184 12.1924C264.021 12.0023 266.321 11.8472 267.297 11.8476C268.272 11.8476 270.159 11.6907 271.491 11.4976C273.736 11.1718 278.33 10.8098 290.593 9.99424C296.894 9.57476 298.163 9.4784 304.584 8.92764C307.544 8.67392 312.387 8.28494 315.346 8.06349C318.307 7.84203 321.455 7.60644 322.342 7.53969C328.625 7.06894 329.822 7.07778 331.071 7.60378C331.746 7.88756 332.297 8.24471 332.297 8.39677C332.297 8.54927 332.479 8.6611 332.701 8.64519C332.923 8.62927 333.658 8.62927 334.334 8.64519C335.363 8.66906 335.476 8.74862 335.026 9.13008C334.367 9.68836 334.894 9.98937 335.879 9.61808C336.99 9.20037 336.737 9.57608 335.46 10.2418C334.791 10.591 333.446 10.9044 332.209 10.999C330.402 11.1377 330.195 11.2138 330.774 11.5298C331.642 12.0046 330.908 12.0337 365.391 10.1419C367.759 10.0119 371.997 9.85279 374.808 9.7887C377.62 9.72416 382.705 9.55575 386.108 9.41475C389.512 9.2733 393.992 9.11417 396.063 9.06113C398.135 9.00809 400.788 8.85073 401.958 8.71149C403.129 8.57269 407.772 8.45202 412.276 8.44362C416.78 8.43567 420.787 8.37997 421.18 8.3203C422.148 8.17267 434.757 7.87297 437.758 7.92602C439.085 7.94989 440.54 8.12095 440.993 8.3066C442.007 8.72298 444.59 8.76453 456.601 8.55899C462.122 8.4644 467.193 8.24914 468.858 8.03873C471.031 7.76468 474.633 7.68954 484.194 7.71915C491.068 7.74081 502.502 7.67539 509.605 7.57417C524 7.36907 523.231 7.36642 538.125 7.65992C547.768 7.84955 553.333 7.8575 561.802 7.69351C563.283 7.66478 564.068 7.59096 563.551 7.52952C563.033 7.46808 562.609 7.30321 562.609 7.16309C562.609 6.99468 564.12 6.95622 567.049 7.04993C569.491 7.12817 576.815 7.30365 583.326 7.43935C589.838 7.57549 598.191 7.7996 601.891 7.93707C616.755 8.49048 622.422 8.68541 630.142 8.90863C649.448 9.46779 659.625 9.69057 670.231 9.78604C675.115 9.83025 681.169 9.94119 683.684 10.0327C686.2 10.1237 689.953 10.1887 692.024 10.1768C694.097 10.1649 698.213 10.263 701.173 10.3947C704.132 10.5269 713.717 10.6833 722.473 10.7426C731.229 10.8014 739.461 10.957 740.769 11.0878C742.076 11.2186 745.048 11.3853 747.374 11.4578C749.698 11.5307 752.362 11.6465 753.293 11.7155C756.474 11.9515 761.441 12.112 768.706 12.2136C775.103 12.3029 781.318 12.5173 790.5 12.9655C791.979 13.0376 794.038 13.1277 795.073 13.1649C796.109 13.2024 798.773 13.3032 800.992 13.3894C803.213 13.476 806.965 13.6135 809.333 13.6957C811.7 13.7775 813.758 13.8787 813.906 13.9198C814.055 13.9614 815.553 14.0613 817.237 14.1426C818.92 14.2235 820.651 14.3521 821.086 14.4273C821.519 14.5029 824.016 14.5974 826.635 14.6372C833.827 14.7473 833.817 14.7464 833.817 15.1407C833.817 15.3423 834.075 15.5067 834.388 15.5067C834.7 15.5067 834.782 15.3785 834.569 15.2211C834.303 15.0267 834.478 14.9882 835.119 15.0991C835.635 15.1893 836.592 15.2631 837.245 15.2631C838.046 15.2631 838.458 15.4214 838.512 15.7511C838.609 16.3342 838.318 16.362 837.239 15.8727C836.113 15.3621 834.852 15.4006 835.23 15.9341C835.417 16.1967 835.358 16.2559 835.079 16.0884C834.77 15.9023 833.254 15.8674 830.319 15.9788C825.27 16.1702 821.457 16.1176 814.445 15.7595C811.633 15.6159 808.002 15.4395 806.374 15.367C804.746 15.295 803.132 15.1937 802.786 15.1429C802.441 15.0916 802.017 15.2163 801.844 15.4196C801.612 15.6937 801.103 15.7471 799.875 15.6247C797.947 15.4329 796.709 15.3599 791.576 15.1358C789.504 15.0452 787.664 14.9307 787.487 14.8817C787.11 14.7765 779.912 14.7588 770.051 14.8397C763.794 14.891 759.383 14.7513 756.092 14.3977C754.237 14.1983 741.262 14.1126 741.262 14.2991C741.262 14.3954 742.897 14.5532 744.895 14.65C746.892 14.7473 749.011 14.8697 749.604 14.9228C753.755 15.2941 764.875 15.7105 773.818 15.8294C775.889 15.8568 777.841 15.9536 778.154 16.0446C778.674 16.1954 795.152 16.7784 796.036 16.6767C796.247 16.6528 798.235 16.7099 800.455 16.8036C803.886 16.949 812.65 17.2407 814.849 17.2836C815.645 17.2991 815.738 17.6138 815.008 17.8185C814.484 17.9652 810.428 17.9992 806.757 17.8874C805.637 17.8529 804.522 17.6805 804.282 17.5037C803.957 17.265 803.032 17.2253 800.67 17.3481C798.923 17.4392 797.332 17.5572 797.135 17.6107C796.937 17.6642 796.408 17.5409 795.958 17.3375C795.509 17.1338 795.015 17.0613 794.857 17.1762C794.554 17.3994 783.692 17.3044 780.544 17.0511C779.508 16.968 777.683 16.877 776.488 16.8491C775.291 16.8217 773.777 16.6692 773.124 16.5105C772.173 16.2798 771.935 16.2869 771.935 16.5476C771.935 16.7395 771.216 16.8999 770.186 16.9375C765.932 17.0931 759.975 17.0785 755.254 16.9004C751.857 16.7726 750.407 16.7885 750.933 16.9481C753.054 17.5926 749.074 17.91 742.876 17.5913C737.383 17.3088 736.4 17.2938 734.025 17.4573C732.8 17.5413 731.082 17.5236 730.207 17.4171C727.903 17.1373 715.924 16.6414 710.589 16.6051C708.074 16.5883 704.442 16.499 702.518 16.4071C700.594 16.3156 696.72 16.1843 693.909 16.1154C691.096 16.0464 684.437 15.8285 679.11 15.6313C673.783 15.4338 665.86 15.1986 661.502 15.1084C654.401 14.9612 653.543 14.9864 653.235 15.3507C652.942 15.6972 652.007 15.7555 646.898 15.7467C643.602 15.7414 639.815 15.8254 638.483 15.9346L636.061 16.1321L640.098 16.4044C642.317 16.5538 644.981 16.6732 646.016 16.6696C647.052 16.6657 651.289 16.8332 655.432 17.0409C659.577 17.2487 667.447 17.5413 672.922 17.6912C678.397 17.8414 683.415 18.0165 684.074 18.0806C684.733 18.1451 690.181 18.3042 696.182 18.4351C706.966 18.6698 714.523 18.8616 720.276 19.046C721.904 19.0981 727.488 19.2519 732.685 19.3881C737.882 19.5242 742.483 19.6842 742.909 19.7439C743.335 19.804 744.169 19.9357 744.76 20.037C745.351 20.1386 746.767 20.2522 747.906 20.2894C749.043 20.3269 750.255 20.5316 750.597 20.7442C751.093 21.0514 752.496 21.1442 757.408 21.1942C760.811 21.2291 763.836 21.3246 764.132 21.4072C764.428 21.4899 766.486 21.6216 768.706 21.7007C779.317 22.0773 789.925 22.3828 794.805 22.4531C797.764 22.4955 804.06 22.7222 808.795 22.9565C813.531 23.1908 819.585 23.4189 822.248 23.4635C840.684 23.772 855.407 24.1601 863.145 24.5421C865.808 24.6738 870.477 24.8515 873.52 24.9381C876.563 25.0243 879.18 25.1887 879.336 25.3037C879.493 25.4186 878.819 25.5211 877.839 25.5322C876.86 25.5428 875.375 25.5742 874.54 25.602C873.705 25.6294 872.915 25.5746 872.788 25.48C872.659 25.3859 871.658 25.4208 870.564 25.5574C869.455 25.6966 867.02 25.7351 865.053 25.6453C863.116 25.5569 852.812 25.4411 842.159 25.3885C831.503 25.3364 818.79 25.2223 813.907 25.1357C805.203 24.981 802.736 25.0756 808.447 25.3448C810.031 25.4195 811.443 25.5335 811.586 25.5985C811.971 25.7726 810.003 26.2032 808.371 26.3026C806.469 26.418 805.868 26.727 807.495 26.7535C808.21 26.7654 811.943 26.8768 815.79 27.0023C819.638 27.127 827.206 27.2945 832.607 27.3741C841.485 27.504 842.427 27.5588 842.427 27.9456C842.427 28.4822 844.594 28.6091 857.649 28.8376C862.914 28.9296 867.347 29.0975 867.502 29.2107C867.656 29.3243 868.844 29.4167 870.14 29.4167C874.561 29.4167 873.322 30.0903 867.891 30.6397C866.359 30.7944 864.301 30.901 863.317 30.8762C856.764 30.7118 858.483 31.1923 865.835 31.5799C868.795 31.7364 872.911 31.9172 874.983 31.9822C877.055 32.0471 880.808 32.2098 883.324 32.3437C885.84 32.4772 890.925 32.6593 894.625 32.7477C899.18 32.8569 901.525 33.0121 901.889 33.2287C902.187 33.4055 904.107 33.619 906.193 33.7074C908.266 33.7944 910.202 34 910.499 34.164C910.795 34.328 912.805 34.5362 914.967 34.6268C917.128 34.7169 919.439 34.9525 920.102 35.1497C920.863 35.3756 923.19 35.5479 926.397 35.6156C933.31 35.7614 938.728 36.0364 939.028 36.2565C939.344 36.4881 934.632 36.8192 933.909 36.6163C933.612 36.5328 933.368 36.569 933.368 36.6959C933.368 36.8232 934.216 36.9995 935.251 37.0875C937.297 37.2617 937.684 37.5653 936.193 37.827C934.435 38.1364 936.895 38.6262 942.428 39.0678C947.074 39.4386 950.011 39.8974 947.87 39.9173C945.859 39.9368 948.964 40.3669 952.197 40.5167C954.116 40.606 955.968 40.7846 956.312 40.9141C956.655 41.0436 958.469 41.2611 960.342 41.3981C965.543 41.7778 965.486 42.0832 960.181 42.2724C958.197 42.3427 956.385 42.5522 955.84 42.7732C955.075 43.084 954.141 43.1211 950.728 42.9766C943.789 42.6826 942.416 42.7396 941.375 43.366C940.864 43.6723 940.552 43.9998 940.681 44.0935C940.809 44.1877 942.546 44.3411 944.54 44.4352C946.535 44.5294 948.409 44.692 948.705 44.7972C949.001 44.9029 950.393 45.0669 951.798 45.1615C955.656 45.4223 954.866 45.7666 950.408 45.7666C948.239 45.7666 946.279 45.8493 946.055 45.9496C945.831 46.0504 943.574 46.1326 941.04 46.1326C937.835 46.1326 936.36 46.2259 936.2 46.438C936.041 46.6471 936.618 46.7435 938.032 46.7444C939.166 46.7448 940.942 46.8465 941.978 46.9698C943.013 47.0927 945.911 47.2628 948.416 47.3477C950.922 47.4326 953.244 47.605 953.578 47.7305C953.911 47.856 954.326 47.8949 954.498 47.8167C954.67 47.7385 955.375 47.7659 956.063 47.8773C957.029 48.0337 956.455 48.1155 953.548 48.2353C950.115 48.3772 946.202 48.733 944.13 49.0924C942.817 49.32 944.86 49.5706 950.991 49.9331C954.025 50.1121 956.507 50.3243 956.507 50.4039C956.507 50.4834 958.081 50.5033 960.005 50.4476C962.816 50.3663 963.503 50.4167 963.503 50.7031C963.503 51.1456 961.8 51.8691 960.769 51.8638C960.137 51.8608 960.145 51.8192 960.811 51.6234C961.499 51.4223 961.476 51.3865 960.66 51.3834C960.133 51.3812 959.557 51.55 959.381 51.7582C959.108 52.0809 958.135 52.118 952.806 52.0093C946.129 51.8731 944.487 52.0349 945.717 52.7068C947.778 53.8326 956.18 55.0402 961.957 55.0402C965.446 55.0402 967.269 55.3359 967.269 55.9026C967.269 56.1864 966.408 56.2589 963.099 56.2544C960.805 56.2514 957.959 56.1329 956.775 55.9914C955.592 55.85 950.014 55.6847 944.381 55.6241C934.419 55.5163 934.135 55.5269 934.056 56.0038C933.978 56.4732 934.635 56.8114 935.789 56.8963C936.085 56.9175 938.407 57.1133 940.948 57.3303C949.265 58.0411 956.65 58.4738 964.208 58.694C971.211 58.8977 973.599 59.1775 972.876 59.7084C972.71 59.8295 972.344 59.8636 972.061 59.7844C971.779 59.7053 971.614 59.7862 971.695 59.9635C971.777 60.142 971.425 60.2715 970.907 60.253C970.393 60.2349 970.088 60.3051 970.23 60.4095C970.372 60.5138 969.667 60.6694 968.662 60.7547C966.49 60.9394 965.975 61.3792 967.087 62.0993C967.68 62.483 967.742 62.7119 967.32 62.9431C966.627 63.3219 967.081 63.5814 968.435 63.5814C968.977 63.5814 969.422 63.6269 969.422 63.6831C969.422 63.7392 969.582 63.9752 969.779 64.2077C970.107 64.5954 969.745 64.6162 965.34 64.4677C962.701 64.3788 959.635 64.2409 958.525 64.1609C956.918 64.0455 956.507 64.0937 956.507 64.3965C956.507 64.606 956.117 64.8761 955.639 64.9972C954.408 65.3101 955.147 66.7158 956.692 66.9987C957.797 67.2007 957.801 67.2122 956.775 67.2435C955.7 67.2758 955.7 67.2758 956.775 67.4858C957.826 67.69 956.36 67.778 950.857 67.8385C948.561 67.8641 946.822 68.1926 946.822 68.6001C946.822 68.818 946.263 68.9511 945.341 68.9533C944.527 68.9555 943.311 69.0236 942.638 69.1053C941.491 69.2446 941.473 69.2742 942.369 69.5823C942.894 69.7626 943.985 69.9142 944.795 69.9182C945.605 69.9226 947.865 70.3103 949.818 70.7802C951.787 71.254 954.151 71.6341 955.127 71.6341C958.388 71.6341 963.475 71.9449 963.225 72.1288C963.087 72.2291 963.387 72.2959 963.89 72.2777C964.394 72.2592 964.893 72.4338 964.998 72.6645C965.243 73.2016 962.066 74.1276 960.427 73.9967C959.771 73.9442 959.147 74.0215 959.039 74.1678C958.786 74.513 952.506 74.6107 949.993 74.3084C948.927 74.1797 943.417 74.0449 937.751 74.0087C928.172 73.9472 925.346 74.0719 928.928 74.3977C929.742 74.4719 931.498 74.6443 932.83 74.7809C934.161 74.9175 936.28 75.0342 937.539 75.0399C938.796 75.0461 939.825 75.1606 939.825 75.295C939.825 75.4289 940.205 75.5385 940.667 75.5385C941.131 75.5385 942.008 75.6596 942.615 75.8068C943.707 76.072 943.705 76.0782 942.445 76.3633C940.237 76.8619 940.922 77.3331 944.632 77.868C946.535 78.1425 948.206 78.527 948.344 78.722C948.483 78.9173 948.811 79.141 949.072 79.2188C949.896 79.4637 948.909 80.2164 947.979 80.0542C947.508 79.9729 947.272 79.9729 947.453 80.0551C947.634 80.1378 947.172 80.4821 946.426 80.8202C945.444 81.2649 944.433 81.4466 942.767 81.4758C941.501 81.4979 940.562 81.588 940.682 81.6756C940.802 81.7635 938.581 81.7812 935.749 81.7158C931.632 81.6203 930.417 81.6702 929.696 81.966C928.694 82.377 923.409 82.5463 920.653 82.2559C919.6 82.1454 918.832 82.1795 918.603 82.3474C918.401 82.4951 917.666 82.6157 916.968 82.6157C915.35 82.6157 913.996 82.8496 913.996 83.1298C913.996 83.25 914.347 83.3477 914.777 83.3477C915.205 83.3477 915.762 83.5144 916.013 83.7177C916.296 83.9475 918.399 84.2583 921.557 84.5368C927.773 85.0853 932.35 85.9238 931.918 86.4352C931.751 86.6315 931.27 86.7327 930.849 86.6593C930.428 86.586 930.219 86.6249 930.383 86.7464C930.549 86.8675 930.05 87.3091 929.274 87.7277C928.235 88.2869 927.577 88.4464 926.782 88.332C926.182 88.2453 925.834 88.2754 926.002 88.3983C926.169 88.5207 925.463 88.6312 924.434 88.6449C923.404 88.6582 920.863 88.8575 918.785 89.0887L915.008 89.5086L916.21 90.0885C916.871 90.4077 917.636 90.6689 917.909 90.6689C918.184 90.6689 919.239 90.8475 920.254 91.0663C922.024 91.4478 922.067 91.4867 921.283 92.0299C920.768 92.3866 920.666 92.6518 921.006 92.7473C921.304 92.8304 921.392 93.013 921.202 93.1522C920.979 93.3153 920.69 93.2879 920.387 93.074C920.081 92.8596 919.774 92.8304 919.512 92.9922C919.29 93.1292 918.382 93.4002 917.494 93.5942L915.879 93.9474L917.583 94.0301C919.427 94.1198 920.412 94.7461 919.076 94.9791C918.625 95.0578 918.121 95.0608 917.957 94.9866C917.793 94.9123 916.854 95.0573 915.869 95.3084C914.884 95.559 913.158 95.8428 912.032 95.9387C910.908 96.0342 909.661 96.2601 909.263 96.4408C908.319 96.8692 907.95 96.8599 902.95 96.2795C898.461 95.7592 897.197 95.8079 895.356 96.5708C894.317 97.0013 893.898 97.023 891.087 96.7869C887.399 96.4775 880.451 96.4382 880.846 96.7286C880.998 96.8404 882.889 97.0681 885.048 97.2352C890.548 97.6604 891.168 97.7519 890.265 98.0052C888.7 98.4441 895.711 99.4797 902.562 99.8223C904.413 99.9147 906.044 100.076 906.187 100.181C906.331 100.287 905.94 100.666 905.319 101.024C904.277 101.624 904.258 101.707 905.058 102.108C905.534 102.348 905.924 102.603 905.924 102.676C905.924 102.978 896.813 102.544 893.817 102.1C889.509 101.461 880.788 100.995 879.981 101.36C879.556 101.553 879.552 101.719 879.968 101.947C880.531 102.255 881.394 102.386 888.57 103.258C890.809 103.53 891.934 103.789 891.934 104.034C891.934 104.343 891.299 104.376 887.94 104.238C885.383 104.133 883.825 104.164 883.604 104.326C883.415 104.465 883.556 104.579 883.919 104.579C884.282 104.579 884.454 104.635 884.301 104.705C883.94 104.869 876.319 104.143 875.561 103.873C874.965 103.661 867.107 103.112 865.432 103.166C864.913 103.182 864.49 103.333 864.49 103.501C864.49 103.669 864.364 103.954 864.211 104.136C863.947 104.449 870.518 105.08 881.844 105.831C883.544 105.943 885.813 106.202 886.886 106.405C887.959 106.609 889.593 106.775 890.519 106.776C892.956 106.778 896.457 107.262 895.892 107.518C895.629 107.637 892.353 107.765 888.609 107.803C884.865 107.841 881.843 107.892 881.891 107.914C881.941 107.937 883.179 108.169 884.641 108.429C887.188 108.883 887.248 108.916 886.084 109.198C885.173 109.419 884.199 109.428 882.187 109.232C878.912 108.913 878.48 108.909 878.48 109.196C878.48 109.319 879.205 109.493 880.089 109.581C883.03 109.874 882.393 110.191 878.864 110.191C876.809 110.191 874.733 110.346 873.723 110.574C872.704 110.805 871.558 110.89 870.839 110.786C869.305 110.565 844.04 110.481 844.335 110.697C844.962 111.157 837.902 111.155 831.879 110.693C819.68 109.759 809.302 109.229 802.608 109.196C798.908 109.178 793.338 109.013 790.23 108.828C787.123 108.644 781.586 108.379 777.927 108.241C774.268 108.103 771.121 107.948 770.933 107.895C770.744 107.844 768.773 107.732 766.553 107.646C764.333 107.561 761.67 107.444 760.634 107.387C758.477 107.269 748.66 107.021 741.53 106.904C736.374 106.82 728.538 106.595 723.235 106.38C721.46 106.308 714.558 106.202 707.899 106.145C701.24 106.088 693.37 105.951 690.41 105.841C687.451 105.731 679.266 105.652 672.221 105.665C661.567 105.685 659.327 105.75 658.902 106.049C658.471 106.354 658.319 106.357 657.909 106.068C657.586 105.841 656.894 105.776 655.836 105.872C654.959 105.951 653.98 105.896 653.656 105.749C653.332 105.602 652.267 105.459 651.29 105.43C650.314 105.402 649.03 105.314 648.438 105.234C645.213 104.801 641.853 104.675 640.499 104.937C639.413 105.147 636.701 104.899 637.075 104.624C637.213 104.523 634.62 104.41 631.313 104.374C622.406 104.277 621.482 104.232 620.474 103.853C619.654 103.545 619.572 103.559 619.735 103.981C619.859 104.304 619.657 104.429 619.11 104.37C618.667 104.322 617.758 104.281 617.093 104.278C616.427 104.276 615.881 104.189 615.881 104.086C615.881 103.983 615.492 103.831 615.016 103.748C614.385 103.638 614.236 103.701 614.471 103.978C614.693 104.241 614.586 104.3 614.128 104.168C613.761 104.062 611.161 103.941 608.349 103.899C602.435 103.81 603.314 103.812 575.524 103.856C563.833 103.875 552.771 103.811 550.941 103.714C549.111 103.617 547.207 103.608 546.71 103.695C545.794 103.854 528.215 104.169 522.814 104.122C518.59 104.086 513.8 105.212 516.464 105.615C516.862 105.675 516.587 105.848 515.792 106.038C515.053 106.215 514.313 106.452 514.149 106.566C513.556 106.975 508.985 107.204 507.688 106.888C506.871 106.69 504.705 106.619 501.297 106.679C498.463 106.728 489.15 106.827 480.604 106.897C472.058 106.968 464.478 107.093 463.759 107.175C463.04 107.256 459.985 107.34 456.971 107.361C453.955 107.381 451.005 107.521 450.413 107.673C449.353 107.942 444.363 108.385 443.528 108.283C442.498 108.158 440.586 108.19 438.843 108.361C437.807 108.462 436.476 108.527 435.883 108.504C435.292 108.482 434.323 108.445 433.731 108.421C433.139 108.397 430.355 108.507 427.543 108.665C424.732 108.822 421.384 108.949 420.104 108.946C418.825 108.943 417.493 109.045 417.145 109.172C416.797 109.298 415.725 109.479 414.763 109.572C413.332 109.711 413.014 109.667 413.014 109.329C413.014 108.963 412.568 108.935 409.113 109.089C406.967 109.184 401.337 109.286 396.602 109.317C391.866 109.349 386.687 109.503 385.094 109.66C383.499 109.818 382.077 109.947 381.933 109.947C381.79 109.947 381.973 110.112 382.341 110.313C382.71 110.514 383.83 110.679 384.829 110.679C385.829 110.679 386.646 110.725 386.646 110.781C386.646 110.837 386.794 111.057 386.973 111.269C387.421 111.799 385.906 111.773 384.71 111.23C384.032 110.923 383.712 110.89 383.55 111.11C383.427 111.277 383.104 111.352 382.833 111.276C382.562 111.2 382.341 111.227 382.341 111.336C382.341 111.444 381.796 111.546 381.131 111.563C380.465 111.58 376.772 111.718 372.925 111.87C369.077 112.021 361.329 112.189 355.705 112.243C350.082 112.297 344.876 112.401 344.136 112.475C341.628 112.724 327.845 113.302 320.459 113.468C306.772 113.775 296.396 114.663 294.256 115.709C293.587 116.037 292.408 116.302 291.561 116.314C284.598 116.417 274.928 116.746 270.683 117.024C268.907 117.141 265.793 117.303 263.761 117.386C261.729 117.468 258.851 117.64 257.365 117.767C255.878 117.896 254.574 118 254.467 118C254.359 118 254.271 117.719 254.271 117.376L254.27 117.376Z" fill="rgba(39, 147, 224, .25)"/>
</svg>
