<svg id="Icons" xmlns="http://www.w3.org/2000/svg" viewBox="0 0 58 58"><defs><style>.cls-1{fill:#fff;}</style></defs><title>Brain Building Icons</title><path id="Anywhere" class="cls-1" d="M36.22,23.94a5,5,0,0,0-7,0l-.21.28L28.79,24a5,5,0,0,0-7,0,5,5,0,0,0,0,7L29,38.17,36.22,31A5,5,0,0,0,36.22,23.94ZM19.1,56.32a1,1,0,0,1-.78-.52l-2.2-4.25a1,1,0,0,1,0-.78l0-.13a.76.76,0,0,1,.59-.45l4.68-1.1.22,0a.84.84,0,0,1,.84.69.9.9,0,0,1-.11.66.87.87,0,0,1-.56.4l-2.16.49.61.25A23.5,23.5,0,0,0,29,53.22,23.71,23.71,0,0,0,41.9,9.61.91.91,0,0,1,41.47,9a.83.83,0,0,1,.14-.63A.88.88,0,0,1,42.37,8a.75.75,0,0,1,.46.15A25.58,25.58,0,0,1,29,55.15a25.92,25.92,0,0,1-9.61-1.91l-.51-.2,1,2a.77.77,0,0,1,.06.63.87.87,0,0,1-.45.54A1.14,1.14,0,0,1,19.1,56.32Zm-5.84-7a1.22,1.22,0,0,1-.57-.24A25.51,25.51,0,0,1,35.41,4.83L36,5,34.6,3.07a.85.85,0,0,1-.14-.66.9.9,0,0,1,.36-.57,1.06,1.06,0,0,1,.54-.16,1.12,1.12,0,0,1,.78.35l2.8,3.89a1,1,0,0,1,.1.79v.12a.79.79,0,0,1-.49.56L34.08,9.11a.66.66,0,0,1-.34.06.85.85,0,0,1-.83-.55.92.92,0,0,1,.49-1.19l2-.78-.6-.16A23.08,23.08,0,0,0,29,5.8a23.77,23.77,0,0,0-15.18,42,.79.79,0,0,1,.32.55.84.84,0,0,1-.21.67A.79.79,0,0,1,13.26,49.37ZM17.8,48a.9.9,0,0,1-.51-.1,1,1,0,0,1-.42-.6.79.79,0,0,1,.13-.63l1.18-1.86a.9.9,0,0,1,.75-.44.87.87,0,0,1,.47.15.9.9,0,0,1,.42.6.78.78,0,0,1-.13.63l-1.17,1.86A1,1,0,0,1,17.8,48Zm-7.29-7.77a1,1,0,0,1-.86-.52.94.94,0,0,1,.4-1.22l2-1a.87.87,0,0,1,.42-.1.9.9,0,0,1,.81.49,1,1,0,0,1,.06.71.88.88,0,0,1-.45.53l-2,1A.84.84,0,0,1,10.51,40.23ZM8.11,29.85a.89.89,0,1,1,0-1.78l2.19.06a.88.88,0,0,1,.9.9.87.87,0,0,1-.89.89ZM13,20.72a.75.75,0,0,1-.47-.11l-1.93-1.17a.91.91,0,0,1-.28-1.23,1,1,0,0,1,.77-.42.88.88,0,0,1,.46.14l1.93,1.17a.89.89,0,0,1,.27,1.23.72.72,0,0,1-.63.4Zm6.84-6.6a.92.92,0,0,1-.79-.46l-1.09-1.92a.88.88,0,0,1,.32-1.22,1,1,0,0,1,.49-.12.8.8,0,0,1,.75.44l1.1,1.93A1,1,0,0,1,20.24,14,1.36,1.36,0,0,1,19.79,14.12ZM29,51.3a.88.88,0,0,1-.89-.9V48.2a.89.89,0,0,1,1.78,0v2.2A.88.88,0,0,1,29,51.3Zm9.21-37.18a1.19,1.19,0,0,1-.46-.12.92.92,0,0,1-.32-1.24l1.1-1.91a.89.89,0,0,1,.77-.45,1,1,0,0,1,.47.12.91.91,0,0,1,.32,1.23L39,13.67A.9.9,0,0,1,38.21,14.12Zm6.87,6.73a.88.88,0,0,1-.78-.45.84.84,0,0,1,.27-1.23L46.5,18a.71.71,0,0,1,.42-.14,1,1,0,0,1,.81.49.85.85,0,0,1-.28,1.23l-1.92,1.16A1,1,0,0,1,45.08,20.85Zm2.61,9.07A.87.87,0,0,1,46.8,29a.93.93,0,0,1,.89-.9l2.21-.06a.93.93,0,0,1,.89.89.8.8,0,0,1-.18.61,1,1,0,0,1-.72.28Zm-.2,10.38a1,1,0,0,1-.39-.12l-2-1a.93.93,0,0,1-.39-1.24,1,1,0,0,1,.82-.49.86.86,0,0,1,.41.1l1.92,1.09a1,1,0,0,1,.4,1.25A.9.9,0,0,1,47.49,40.3ZM40.2,48a.8.8,0,0,1-.71-.38l-1.17-1.86a.75.75,0,0,1-.12-.65,1.1,1.1,0,0,1,.4-.59,1,1,0,0,1,.43-.1,1,1,0,0,1,.8.4L41,46.66a.92.92,0,0,1-.29,1.24l-.13,0A1.43,1.43,0,0,1,40.2,48ZM23.15,29.66a3,3,0,0,1,0-4.35,3,3,0,0,1,2.14-.92,2.79,2.79,0,0,1,2.15.93L29,26.87l1.57-1.56a3,3,0,0,1,2.15-.87,3.21,3.21,0,0,1,2.2.86,3,3,0,0,1-.07,4.3L29,35.51Z"/></svg>