<svg id="Icons" xmlns="http://www.w3.org/2000/svg" viewBox="0 0 58 58"><defs><style>.cls-1{fill:#fff;}</style></defs><title>Brain Building Icons</title><path id="Appointment" class="cls-1" d="M49.9,11.58H42.68V8.22a2.22,2.22,0,1,0-4.43,0v3.36H19.79V8.22a2.22,2.22,0,1,0-4.43,0v3.36H8.1A2.12,2.12,0,0,0,6,13.68v4.89H52V13.68A2.12,2.12,0,0,0,49.9,11.58ZM7.28,17.29V13.68a.84.84,0,0,1,.82-.82h8.54V8.22a.94.94,0,1,1,1.87,0v4.64h21V8.22a.94.94,0,1,1,1.88,0v4.64h8.5a.84.84,0,0,1,.82.82v3.61ZM6,49.9A2.13,2.13,0,0,0,8.1,52H49.9A2.13,2.13,0,0,0,52,49.9V20.56H6Zm1.47.63V22H50.53v28.5ZM29,27.66a8.64,8.64,0,1,0,8.63,8.64A8.62,8.62,0,0,0,29,27.66Zm0,15.57a6.93,6.93,0,1,1,6.93-6.93A6.94,6.94,0,0,1,29,43.23Zm-1.18-3.84a.85.85,0,0,1-.62-.26L25,37a.82.82,0,0,1-.26-.58.66.66,0,0,1,.24-.55.9.9,0,0,1,.64-.28.8.8,0,0,1,.61.26l1.57,1.56,3.89-3.89a.89.89,0,0,1,.61-.26.8.8,0,0,1,.62.26.79.79,0,0,1,.26.57,1,1,0,0,1-.27.6l-4.5,4.49A.89.89,0,0,1,27.82,39.39Z"/></svg>