<svg id="Icons" xmlns="http://www.w3.org/2000/svg" viewBox="0 0 58 58"><defs><style>.cls-1{fill:#fff;}</style></defs><title>Brain Building Icons</title><path id="At_the_Park" data-name="At the Park" class="cls-1" d="M53,49.94a.94.94,0,0,1-.95-.88L48.66,10H44.34v29.6H45.5a.92.92,0,0,1,1,1v2.39a.91.91,0,0,1-1,1H31.33a.91.91,0,0,1-.95-1V40.53a.92.92,0,0,1,.95-1h1V10H25.09v29.6h1.16a.92.92,0,0,1,1,1v2.39a.92.92,0,0,1-1,1H12.08a.91.91,0,0,1-.95-1V40.53a.92.92,0,0,1,.95-1H13V10H9.35L5.91,49.08a1,1,0,0,1-1,.86,1.07,1.07,0,0,1-.88-1l3.52-40a1,1,0,0,1,1-.86h41a.94.94,0,0,1,.95.88L54,48.9a.92.92,0,0,1-.2.73.88.88,0,0,1-.69.31ZM23.26,39.67V10.06H15V39.67Zm2.26,2.6.15-.15v-.79l-.15-.15H13l-.15.15v.79l.15.15Zm19.18,0,.15-.15v-.79l-.15-.15H32.13l-.15.15v.79l.15.15Zm-2.2-2.6V10.06H34.26V39.67Z"/></svg>