<svg id="Icons" xmlns="http://www.w3.org/2000/svg" viewBox="0 0 58 58"><defs><style>.cls-1{fill:#fff;}</style></defs><title>Brain Building Icons</title><path id="At_the_Store" data-name="At the Store" class="cls-1" d="M37.69,57.37A5,5,0,0,1,34.1,49H23.34a4.95,4.95,0,1,1-7.16,0,6.94,6.94,0,0,1-6.35-6.17l-3-27.15a3.93,3.93,0,0,0-3.9-3.49.9.9,0,1,1,0-1.79,5.71,5.71,0,0,1,5.68,5.08L9,18.83h1.23l7-11a.92.92,0,0,1,.58-.4l.18,0a.9.9,0,0,1,.5.16l8.25,5.61V5.53a.9.9,0,0,1,.9-.9h10.1a.9.9,0,0,1,.89.9v4.9a9.39,9.39,0,0,1,8.4,8.4H48.1a.92.92,0,0,1,.67.29.94.94,0,0,1,.23.68L47.06,41.41a.89.89,0,0,1-.89.81H11.56l0,.39a5.17,5.17,0,0,0,5.14,4.61H45.21a.9.9,0,0,1,0,1.79H41.28a5,5,0,0,1-3.59,8.36ZM19.75,49a3.41,3.41,0,1,0,3.4,3.41A3.41,3.41,0,0,0,19.75,49Zm17.94,0a3.41,3.41,0,1,0,3.4,3.41A3.41,3.41,0,0,0,37.69,49ZM19.37,20.38v9.49h8.35V20.38Zm0,10.8v9.49h8.35V31.18ZM29,40.67h8.35V31.18H29Zm8.35-10.8V20.38H29v9.49Zm-9.16-15.3,6.62,4.5H37V6.18H28.23v8.35S28.22,14.55,28.22,14.57Zm-16.36,4.5H32.52L18.11,9.27Zm-3,1.31,1.06,9.49h8.12V20.38Zm2.27,20.29h6.91V31.18h-8Zm35.27-9.49H38.68v9.49h6.89Zm1-10.8H38.68v9.49h7.86ZM38.33,12v7.11h7.11A7.8,7.8,0,0,0,38.33,12Z"/></svg>