<?xml version="1.0" encoding="utf-8"?>
<!-- Generator: Adobe Illustrator 17.0.0, SVG Export Plug-In . SVG Version: 6.00 Build 0)  -->
<!DOCTYPE svg PUBLIC "-//W3C//DTD SVG 1.1//EN" "http://www.w3.org/Graphics/SVG/1.1/DTD/svg11.dtd">
<svg version="1.1" id="Layer_1" xmlns="http://www.w3.org/2000/svg" xmlns:xlink="http://www.w3.org/1999/xlink" x="0px" y="0px"
	 width="50px" height="50px" viewBox="0 0 50 50" enable-background="new 0 0 50 50" xml:space="preserve">
<g>
	<path d="M33.624,21.834v-2.516h1.034c0.257,0,0.499-0.102,0.68-0.282c0.181-0.183,0.281-0.423,0.281-0.679v-3.162
		c0-1.233-0.999-2.228-2.229-2.228h-1.318l-0.001-0.663c0-2.068-1.482-3.785-3.441-4.158c-0.199-0.18-0.762-0.806-0.893-2.699
		c0.424-0.567,0.675-1.273,0.675-2.031c0-1.887-1.529-3.414-3.411-3.416c-1.886,0.002-3.412,1.529-3.412,3.416
		c0,0.761,0.253,1.468,0.676,2.035c-0.083,1.264-0.38,1.97-0.614,2.349c-0.114,0.184-0.211,0.284-0.275,0.346
		c-1.964,0.371-3.445,2.09-3.447,4.159l0.001,0.663H16.61c-1.23,0-2.23,0.995-2.23,2.228v3.162c0,0.251,0.104,0.501,0.282,0.679
		c0.178,0.179,0.428,0.282,0.682,0.282h1.032v2.515c-1.85,0.653-3.183,2.398-3.183,4.473l-0.002,18.936
		C13.193,47.87,15.324,50,17.954,50h14.093c2.629,0,4.76-2.13,4.762-4.759V26.306C36.807,24.231,35.474,22.486,33.624,21.834z
		 M25.001,1.925c0.82,0.002,1.486,0.665,1.486,1.491c0,0.403-0.157,0.762-0.419,1.027c-0.182,0.187-0.28,0.44-0.272,0.703
		c0.024,1.258,0.252,2.207,0.548,2.919h-2.686c0.295-0.712,0.524-1.661,0.548-2.919c0.006-0.263-0.091-0.511-0.27-0.698
		c-0.265-0.271-0.424-0.632-0.424-1.032C23.513,2.59,24.179,1.927,25.001,1.925z M19.851,12.305
		c0.004-1.279,1.038-2.313,2.318-2.316h5.664c1.278,0.003,2.312,1.037,2.314,2.316l0.001,0.663H19.851V12.305z M16.304,17.395
		v-2.199c0-0.17,0.137-0.306,0.307-0.306H33.39c0.17,0,0.306,0.136,0.306,0.306v2.199H16.304z M31.7,19.318v2.228l-13.399-0.002
		v-2.226H31.7z M34.885,45.241c-0.002,1.564-1.271,2.833-2.838,2.837l-14.093-0.002c-1.568-0.002-2.836-1.271-2.839-2.835V26.306
		c0.003-1.567,1.27-2.836,2.839-2.838h14.093c1.564,0.002,2.836,1.271,2.838,2.838V45.241z"/>
	<g>
		<path d="M17.891,44.985c-0.487,0-0.881-0.394-0.881-0.881V26.409c0-0.487,0.395-0.881,0.881-0.881
			c0.487,0,0.881,0.394,0.881,0.881v17.695C18.772,44.591,18.377,44.985,17.891,44.985z"/>
		<path d="M23.343,27.785c0,0.487-0.394,0.881-0.881,0.881h-3.745c-0.487,0-0.881-0.395-0.881-0.881s0.394-0.881,0.881-0.881h3.745
			C22.949,26.904,23.343,27.299,23.343,27.785z"/>
		<path d="M23.343,32.686c0,0.487-0.394,0.881-0.881,0.881h-3.745c-0.487,0-0.881-0.395-0.881-0.881
			c0-0.487,0.394-0.881,0.881-0.881h3.745C22.949,31.805,23.343,32.2,23.343,32.686z"/>
		<path d="M23.343,37.587c0,0.487-0.394,0.881-0.881,0.881h-3.745c-0.487,0-0.881-0.395-0.881-0.881
			c0-0.487,0.394-0.881,0.881-0.881h3.745C22.949,36.706,23.343,37.101,23.343,37.587z"/>
		<path d="M23.343,42.378c0,0.487-0.394,0.881-0.881,0.881h-3.745c-0.487,0-0.881-0.395-0.881-0.881
			c0-0.487,0.394-0.881,0.881-0.881h3.745C22.949,41.497,23.343,41.892,23.343,42.378z"/>
	</g>
</g>
</svg>
