<svg id="Icons" xmlns="http://www.w3.org/2000/svg" viewBox="0 0 58 58"><defs><style>.cls-1{fill:#fff;}</style></defs><title>Brain Building Icons</title><path id="Bathtime" class="cls-1" d="M46.73,56.25a.9.9,0,0,1-.79-.47l-2.13-3.86H14.2l-2.12,3.86a.9.9,0,0,1-.79.47,1,1,0,0,1-.44-.11.93.93,0,0,1-.43-.54.9.9,0,0,1,.08-.68l1.78-3.24A6,6,0,0,1,8,46.84L5.48,36.32H5.34a2.6,2.6,0,0,1-2.59-2.59V31.79A2.59,2.59,0,0,1,5.34,29.2H7.21V10.37a6.62,6.62,0,0,1,13.2-.7,6.75,6.75,0,0,1,5.93,6.73.9.9,0,0,1-.9.9H13.66a.9.9,0,0,1-.9-.9A6.76,6.76,0,0,1,18.6,9.68,4.82,4.82,0,0,0,9,10.37V29.2H52.66a2.59,2.59,0,0,1,2.59,2.59v1.94a2.6,2.6,0,0,1-2.59,2.59h0L50.17,46.9a6,6,0,0,1-4.41,4.81l1.76,3.21a.89.89,0,0,1-.36,1.22A.92.92,0,0,1,46.73,56.25ZM19.55,11.16a5.25,5.25,0,0,0-5.2,4.59h10.4A5.25,5.25,0,0,0,19.55,11.16ZM51.11,36.07H7L9.47,46.55a4.51,4.51,0,0,0,4.46,3.82H44.19a4.5,4.5,0,0,0,4.46-3.78Zm2.59-4.28a1,1,0,0,0-1-1H5.34a1,1,0,0,0-1,1v1.94a1,1,0,0,0,1,1H52.66a1,1,0,0,0,1-1ZM17.36,21.29V19.41a.9.9,0,0,0-1.8,0v1.88a.9.9,0,0,0,1.8,0Zm0,5.15V24.56a.9.9,0,1,0-1.8,0v1.88a.9.9,0,1,0,1.8,0Zm3.09-5.15V19.41a.9.9,0,0,0-1.8,0v1.88a.9.9,0,1,0,1.8,0Zm0,5.15V24.56a.9.9,0,1,0-1.8,0v1.88a.9.9,0,0,0,1.8,0Zm3.09-5.15V19.41a.9.9,0,0,0-1.8,0v1.88a.9.9,0,0,0,1.8,0Zm0,5.15V24.56a.9.9,0,0,0-1.8,0v1.88a.9.9,0,0,0,1.8,0Z"/></svg>