<svg id="Icons" xmlns="http://www.w3.org/2000/svg" viewBox="0 0 58 58"><defs><style>.cls-1{fill:#fff;}</style></defs><title>Brain Building Icons</title><path id="Bedtime" class="cls-1" d="M16,32.81l4.14.57-3,2.78a1.5,1.5,0,0,0-.45,1.36l.8,4-3.82-1.9a1.46,1.46,0,0,0-1.35,0L8.48,41.5l.71-4a1.52,1.52,0,0,0-.45-1.37l-3-2.78,4.14-.57A1.49,1.49,0,0,0,11,32l1.92-3.72L14.85,32a1.51,1.51,0,0,0,1.17.83Zm20.38,4.24c-5.26,3.15-5.26,9.46-1,13.67,0,.05,1,.74,1,.79-5.19.26-8.54-1.79-9.28-6.74a2.69,2.69,0,0,1,0-.4A7.61,7.61,0,0,1,34.51,37ZM51,29a4.69,4.69,0,1,1-4.69-4.69A4.69,4.69,0,0,1,51,29ZM37.76,52.2a1,1,0,0,0,.57-.89,1,1,0,0,0-.57-.9,6.71,6.71,0,0,1-3.11-8.95,6.79,6.79,0,0,1,3.11-3.11,1,1,0,0,0,.57-.89,1,1,0,0,0-.57-.9A8.73,8.73,0,0,0,34,35.69a11.81,11.81,0,0,0-2.07.19L31.6,36V14.29h14V23l-.23,0a6.7,6.7,0,0,0-4,2.64,5.83,5.83,0,0,0-1,4.59,6.14,6.14,0,0,0,6,4.9A6.51,6.51,0,0,0,47.54,35a6.14,6.14,0,0,0,4.77-7.23A6.51,6.51,0,0,0,47.22,23L47,23V14.29h7c1,0,1-.51,1-.68s0-.68-1-.68H5.27c-1,0-1,.51-1,.68s0,.68,1,.68h7V26.2L9.53,30.93l-5.68.79A1,1,0,0,0,3,32.84a1,1,0,0,0,.31.59l4.09,3.84-1,5.41a1,1,0,0,0,.8,1.16h.18a.88.88,0,0,0,.45-.11L13,41.11l5.1,2.63a.91.91,0,0,0,.45.11,1,1,0,0,0,.59-.2,1,1,0,0,0,.39-1l-1-5.41,4.09-3.84a1,1,0,0,0-.53-1.71l-5.68-.79-2.76-4.73V14.29H30.24V36.77l-.14.08a9.14,9.14,0,0,0-4.22,5.27,8.22,8.22,0,0,0,.69,6.59A8.7,8.7,0,0,0,34,53.07,8.43,8.43,0,0,0,37.76,52.2Z"/></svg>