<?xml version="1.0" encoding="utf-8"?>
<!-- Generator: Adobe Illustrator 22.0.1, SVG Export Plug-In . SVG Version: 6.00 Build 0)  -->
<svg version="1.1" xmlns="http://www.w3.org/2000/svg" xmlns:xlink="http://www.w3.org/1999/xlink" x="0px" y="0px"
	 viewBox="0 0 85.8 95" style="enable-background:new 0 0 85.8 95;" xml:space="preserve">
<g id="Layer_2">
</g>
<g id="Layer_1">
	<g>
		<g>
			<path d="M74.6,7.9h-6.1V5.6C68.5,2.5,66,0,62.9,0s-5.6,2.5-5.6,5.6v2.3H28.6V5.6C28.6,2.5,26.1,0,23,0c-3.1,0-5.6,2.5-5.6,5.6
				v2.3h-6.2C5,7.9,0,12.9,0,19.1v64.7C0,90,5,95,11.2,95h63.4c6.2,0,11.2-5,11.2-11.2V19.1C85.8,12.9,80.8,7.9,74.6,7.9z
				 M78.3,83.8c0,2-1.7,3.7-3.7,3.7H11.2c-2,0-3.7-1.7-3.7-3.7V28.7h70.8V83.8z"/>
			<path d="M19.6,47.9H28c1,0,1.8-0.8,1.8-1.8v-5.6c0-1-0.8-1.8-1.8-1.8h-8.4c-1,0-1.8,0.8-1.8,1.8v5.6
				C17.8,47.1,18.6,47.9,19.6,47.9z"/>
			<path d="M38.7,47.9h8.4c1,0,1.8-0.8,1.8-1.8v-5.6c0-1-0.8-1.8-1.8-1.8h-8.4c-1,0-1.8,0.8-1.8,1.8v5.6
				C36.9,47.1,37.7,47.9,38.7,47.9z"/>
			<path d="M57.8,47.9h8.4c1,0,1.8-0.8,1.8-1.8v-5.6c0-1-0.8-1.8-1.8-1.8h-8.4c-1,0-1.8,0.8-1.8,1.8v5.6
				C56,47.1,56.8,47.9,57.8,47.9z"/>
			<path d="M19.6,62.5H28c1,0,1.8-0.8,1.8-1.8v-5.6c0-1-0.8-1.8-1.8-1.8h-8.4c-1,0-1.8,0.8-1.8,1.8v5.6
				C17.8,61.7,18.6,62.5,19.6,62.5z"/>
			<path d="M38.7,62.5h8.4c1,0,1.8-0.8,1.8-1.8v-5.6c0-1-0.8-1.8-1.8-1.8h-8.4c-1,0-1.8,0.8-1.8,1.8v5.6
				C36.9,61.7,37.7,62.5,38.7,62.5z"/>
			<path d="M57.8,62.5h8.4c1,0,1.8-0.8,1.8-1.8v-5.6c0-1-0.8-1.8-1.8-1.8h-8.4c-1,0-1.8,0.8-1.8,1.8v5.6
				C56,61.7,56.8,62.5,57.8,62.5z"/>
			<path d="M19.6,77.2H28c1,0,1.8-0.8,1.8-1.8v-5.6c0-1-0.8-1.8-1.8-1.8h-8.4c-1,0-1.8,0.8-1.8,1.8v5.6
				C17.8,76.4,18.6,77.2,19.6,77.2z"/>
			<path d="M38.7,77.2h8.4c1,0,1.8-0.8,1.8-1.8v-5.6c0-1-0.8-1.8-1.8-1.8h-8.4c-1,0-1.8,0.8-1.8,1.8v5.6
				C36.9,76.4,37.7,77.2,38.7,77.2z"/>
			<path d="M57.8,77.2h8.4c1,0,1.8-0.8,1.8-1.8v-5.6c0-1-0.8-1.8-1.8-1.8h-8.4c-1,0-1.8,0.8-1.8,1.8v5.6
				C56,76.4,56.8,77.2,57.8,77.2z"/>
		</g>
	</g>
</g>
</svg>
