<svg id="Layer_1" data-name="Layer 1" xmlns="http://www.w3.org/2000/svg" viewBox="0 0 46 46.15"><defs></defs><title>GNY_Icon_Date</title><path class="cls-1" d="M38.63,29.12Z" transform="translate(-27 -26.85)"/><path class="cls-1" d="M70.9,32.58H63.68V29.22a2.22,2.22,0,0,0-4.43-.3,1.5,1.5,0,0,0,0,.3v3.36H40.79V29.22a2.22,2.22,0,0,0-4.43-.3,1.5,1.5,0,0,0,0,.3v3.36H29.1a2.11,2.11,0,0,0-2.1,2.1v4.89H73V34.68A2.11,2.11,0,0,0,70.9,32.58ZM29.28,37.29V34.86H70.71v2.43ZM27,70.9A2.14,2.14,0,0,0,29.1,73H70.9A2.14,2.14,0,0,0,73,70.9V41.56H27ZM30.47,45H69.53V69.5l-39.06,0ZM50,66.94a9.64,9.64,0,1,1,9.65-9.64A9.65,9.65,0,0,1,50,66.94Zm7-9.64A6.93,6.93,0,1,0,50,64.23,6.93,6.93,0,0,0,56.93,57.3ZM48.8,61a1.45,1.45,0,0,1-1-.44l-2.19-2.12a1.42,1.42,0,0,1-.44-1,1.25,1.25,0,0,1,.42-1,1.54,1.54,0,0,1,1-.45,1.42,1.42,0,0,1,1.06.45l1.13,1.12,3.47-3.46a1.45,1.45,0,0,1,1-.44,1.41,1.41,0,0,1,1.07.46,1.34,1.34,0,0,1,.42,1v.08a1.63,1.63,0,0,1-.43.94l-4.52,4.5a1.51,1.51,0,0,1-1,.39Z" transform="translate(-27 -26.85)"/></svg>