<svg xmlns="http://www.w3.org/2000/svg" xmlns:xlink="http://www.w3.org/1999/xlink" width="100" height="100" viewBox="0 0 100 100"><g transform="translate(50 50) scale(0.69 0.69) rotate(0) translate(-50 -50)" style="fill:#ffffff"><svg fill="#ffffff" xmlns:x="http://ns.adobe.com/Extensibility/1.0/" xmlns:i="http://ns.adobe.com/AdobeIllustrator/10.0/" xmlns:graph="http://ns.adobe.com/Graphs/1.0/" xmlns="http://www.w3.org/2000/svg" xmlns:xlink="http://www.w3.org/1999/xlink" version="1.1" x="0px" y="0px" viewBox="0 0 100 100" style="enable-background:new 0 0 100 100;" xml:space="preserve"><g><g i:extraneous="self"><path d="M97.5,70.9c0,1.4-0.5,2.9-1.6,4c-2.2,2.2-5.7,2.2-7.9,0L50,37L12.1,74.9c-2.2,2.2-5.7,2.2-7.9,0C2,72.7,2,69.2,4.1,67    L46,25.1c1.1-1.1,2.5-1.6,4-1.6c1.5,0,2.9,0.6,4,1.6L95.9,67C97,68.1,97.5,69.5,97.5,70.9z"></path></g></g></svg></g></svg>