<svg xmlns="http://www.w3.org/2000/svg" xmlns:xlink="http://www.w3.org/1999/xlink" width="100" height="100" viewBox="0 0 100 100"><g transform="translate(50 50) scale(0.69 0.69) rotate(0) translate(-50 -50)" style="fill:#ffffff"><svg fill="#ffffff" xmlns:x="http://ns.adobe.com/Extensibility/1.0/" xmlns:i="http://ns.adobe.com/AdobeIllustrator/10.0/" xmlns:graph="http://ns.adobe.com/Graphs/1.0/" xmlns="http://www.w3.org/2000/svg" xmlns:xlink="http://www.w3.org/1999/xlink" version="1.1" x="0px" y="0px" viewBox="0 0 100 100" style="enable-background:new 0 0 100 100;" xml:space="preserve"><g><g i:extraneous="self"><path d="M2.5,29.1c0-1.4,0.5-2.9,1.6-4c2.2-2.2,5.7-2.2,7.9,0L50,63l37.9-37.9c2.2-2.2,5.7-2.2,7.9,0c2.2,2.2,2.2,5.7,0,7.9    L54,74.9c-1.1,1.1-2.5,1.6-4,1.6c-1.5,0-2.9-0.6-4-1.6L4.1,33C3,31.9,2.5,30.5,2.5,29.1z"></path></g></g></svg></g></svg>