<?xml version="1.0" encoding="utf-8"?>
<!-- Generator: Adobe Illustrator 17.0.0, SVG Export Plug-In . SVG Version: 6.00 Build 0)  -->
<!DOCTYPE svg PUBLIC "-//W3C//DTD SVG 1.1//EN" "http://www.w3.org/Graphics/SVG/1.1/DTD/svg11.dtd">
<svg version="1.1" id="Layer_1" xmlns="http://www.w3.org/2000/svg" xmlns:xlink="http://www.w3.org/1999/xlink" x="0px" y="0px"
	 width="50px" height="50px" viewBox="0 0 50 50" enable-background="new 0 0 50 50" xml:space="preserve">
<g>
	<g>
		<g>
			<path d="M25.428,21.732c-5.038,0-9.137-4.099-9.137-9.137s4.099-9.137,9.137-9.137s9.137,4.099,9.137,9.137
				S30.466,21.732,25.428,21.732z M25.428,4.665c-4.373,0-7.93,3.557-7.93,7.93s3.557,7.93,7.93,7.93s7.93-3.557,7.93-7.93
				S29.801,4.665,25.428,4.665z"/>
		</g>
		<g>
			<path d="M23.053,15.472l0.261-0.368c0.19-0.261,0.416-0.285,0.689-0.107c0.356,0.249,0.962,0.594,1.698,0.594
				c0.641,0,1.235-0.333,1.235-1.021c0-1.425-4.014-1.283-4.014-3.836c0-1.223,0.914-2.173,2.233-2.387V7.716
				c0-0.321,0.143-0.487,0.475-0.487h0.083c0.309,0,0.463,0.143,0.463,0.416v0.677c0.819,0.059,1.401,0.368,1.722,0.594
				c0.261,0.154,0.285,0.404,0.143,0.665l-0.202,0.404c-0.154,0.285-0.38,0.321-0.677,0.154c-0.309-0.19-0.82-0.439-1.425-0.439
				c-0.713,0-1.283,0.416-1.283,1.009c0,1.413,4.014,1.164,4.014,3.824c0,1.211-0.843,2.245-2.292,2.435v0.594
				c0,0.321-0.154,0.499-0.463,0.499H25.63c-0.332,0-0.475-0.154-0.475-0.416v-0.677c-0.974-0.107-1.663-0.534-2.019-0.808
				C22.887,15.982,22.875,15.721,23.053,15.472z"/>
		</g>
	</g>
	<g>
		<path d="M8.834,30.795c2.409-0.955,4.819-1.911,7.228-2.866c1.119-0.444,2.247-0.895,3.431-1.133
			c1.247-0.251,2.492-0.091,3.747-0.005c1.267,0.086,2.515-0.028,3.77-0.209c1.183-0.171,2.38-0.462,3.58-0.462
			c0.732,0,1.89,0.186,1.9,1.128c0.008,0.848-0.832,1.289-1.555,1.405c-2.312,0.372-4.575,1.032-6.895,1.346
			c-0.662,0.09-0.624,1.175,0,1.299c2.338,0.464,4.702,0.781,7.067,1.075c2.166,0.27,4.363,0.674,6.538,0.274
			c0.941-0.173,1.871-0.512,2.775-0.817c0.994-0.336,1.976-0.704,2.974-1.025c0.818-0.263,1.647-0.523,2.487-0.704
			c0.371-0.08,0.743-0.142,1.122-0.15c0.144-0.003,0.364,0.005,0.443,0.019c0.154,0.027,0.295,0.077,0.352,0.112
			c0.079,0.048,0.103,0.07,0.163,0.193c0.08,0.163,0.156,0.331,0.176,0.514c0.042,0.369-0.22,0.652-0.489,0.867
			c-0.818,0.656-1.86,1.035-2.788,1.501c-1.965,0.987-3.941,1.925-5.954,2.811c-1.926,0.848-4.03,2.052-6.202,1.888
			c-1.272-0.096-2.543-0.314-3.808-0.478c-1.286-0.166-2.571-0.333-3.857-0.499c-1.286-0.166-2.571-0.333-3.857-0.499
			c-1.247-0.161-2.533-0.428-3.794-0.419c-1.233,0.009-2.334,0.499-3.429,1.015c-1.068,0.503-2.108,1.068-3.112,1.691
			c-0.502,0.311-0.994,0.638-1.478,0.977c0.33,0.134,0.66,0.268,0.99,0.403c-1.371-3.375-1.875-7.025-1.467-10.646
			c0.049-0.436-0.47-0.766-0.853-0.65c-2.234,0.677-4.524,1.163-6.844,1.427c-0.348,0.04-0.693,0.277-0.674,0.674
			c0.185,3.888,0.63,7.764,1.334,11.592c0.175,0.954,0.365,1.906,0.575,2.853c0.086,0.389,0.199,0.773,0.536,1.021
			c0.429,0.316,0.922,0.236,1.408,0.131c1.94-0.42,3.884-0.828,5.818-1.275c0.446-0.103,0.889-0.291,1.119-0.714
			c0.238-0.436,0.175-0.946,0.019-1.396c-0.345-0.998-0.597-2.03-0.972-3.017c-0.129-0.34-0.454-0.573-0.829-0.471
			c-0.326,0.089-0.601,0.487-0.471,0.829c0.286,0.753,0.47,1.536,0.717,2.302c0.066,0.205,0.141,0.406,0.215,0.608
			c0.05,0.137,0.072,0.319,0.137,0.446c0.009,0.017-0.004,0.06-0.008,0.081c0.026-0.157,0.085-0.065,0.025-0.051
			c-0.201,0.045-0.4,0.103-0.603,0.148c-1.697,0.372-3.394,0.744-5.091,1.116c-0.193,0.042-0.387,0.094-0.582,0.128
			c0.085-0.015-0.175,0.037-0.173,0.025c0.042,0.032,0.085,0.065,0.127,0.097c-0.004-0.008-0.008-0.016-0.013-0.024
			c0.038-0.105-0.107-0.454-0.129-0.554c-0.046-0.213-0.092-0.427-0.136-0.641c-0.178-0.855-0.343-1.712-0.495-2.572
			c-0.289-1.637-0.531-3.281-0.72-4.932c-0.218-1.904-0.371-3.814-0.462-5.728c-0.225,0.225-0.449,0.449-0.674,0.674
			c2.442-0.278,4.85-0.763,7.202-1.475c-0.284-0.217-0.569-0.433-0.853-0.65c-0.419,3.72,0.106,7.536,1.515,11.004
			c0.149,0.367,0.596,0.678,0.99,0.403c1.005-0.703,2.049-1.35,3.13-1.931c1.037-0.557,2.14-1.169,3.289-1.456
			c1.205-0.302,2.543,0.028,3.75,0.184c1.335,0.173,2.67,0.345,4.005,0.518c2.662,0.344,5.323,0.715,7.989,1.032
			c2.406,0.286,4.57-0.784,6.711-1.73c2.068-0.913,4.135-1.824,6.145-2.86c0.986-0.508,2.034-0.928,2.964-1.537
			c0.9-0.589,1.617-1.417,1.411-2.559c-0.16-0.892-0.729-1.621-1.64-1.796c-0.863-0.165-1.766,0.002-2.608,0.207
			c-1.959,0.476-3.829,1.239-5.744,1.855c-0.832,0.267-1.732,0.583-2.574,0.673c-1.169,0.124-2.299,0.041-3.463-0.098
			c-2.427-0.291-4.855-0.58-7.266-0.987c-0.585-0.099-1.169-0.205-1.751-0.321c0,0.433,0,0.866,0,1.299
			c2.252-0.305,4.433-0.998,6.683-1.316c1.056-0.15,2.035-0.659,2.507-1.665c0.476-1.015,0.23-2.209-0.674-2.894
			c-0.995-0.755-2.359-0.709-3.533-0.554c-1.351,0.177-2.688,0.456-4.048,0.565c-1.388,0.111-2.742-0.099-4.126-0.127
			c-1.354-0.028-2.667,0.275-3.936,0.725c-1.456,0.516-2.883,1.121-4.319,1.691c-1.491,0.591-2.983,1.183-4.474,1.774
			c-0.338,0.134-0.574,0.451-0.471,0.829C8.093,30.646,8.494,30.93,8.834,30.795L8.834,30.795z"/>
	</g>
</g>
</svg>
