<?xml version="1.0" encoding="UTF-8" standalone="no"?>
<svg width="43px" height="33px" viewBox="0 0 43 33" version="1.1" xmlns="http://www.w3.org/2000/svg" xmlns:xlink="http://www.w3.org/1999/xlink">
    <!-- Generator: Sketch 43.2 (39069) - http://www.bohemiancoding.com/sketch -->
    <title></title>
    <desc>Created with Sketch.</desc>
    <defs></defs>
    <g id="Page-1" stroke="none" stroke-width="1" fill="none" fill-rule="evenodd">
        <path d="M41.1126687,7.00396074 C41.1126687,7.69407462 40.8711325,8.28066262 40.3880528,8.76374233 L18.1319914,31.0198037 C17.6489117,31.5028834 17.0623237,31.7444196 16.3722098,31.7444196 C15.6820959,31.7444196 15.0955079,31.5028834 14.6124282,31.0198037 L1.72461595,18.1319914 C1.24153624,17.6489117 1,17.0623237 1,16.3722098 C1,15.6820959 1.24153624,15.0955079 1.72461595,14.6124282 L5.24417914,11.092865 C5.72725886,10.6097853 6.31384686,10.3682491 7.00396074,10.3682491 C7.69407462,10.3682491 8.28066262,10.6097853 8.76374233,11.092865 L16.3722098,18.7272117 L33.3489264,1.72461595 C33.8320061,1.24153624 34.4185941,1 35.108708,1 C35.7988219,1 36.3854099,1.24153624 36.8684896,1.72461595 L40.3880528,5.24417914 C40.8711325,5.72725886 41.1126687,6.31384686 41.1126687,7.00396074 Z" id="" stroke="#FFFFFF" stroke-width="2"></path>
    </g>
</svg>