<?xml version="1.0" encoding="utf-8"?>
<!-- Generator: Adobe Illustrator 17.0.2, SVG Export Plug-In . SVG Version: 6.00 Build 0)  -->
<!DOCTYPE svg PUBLIC "-//W3C//DTD SVG 1.1//EN" "http://www.w3.org/Graphics/SVG/1.1/DTD/svg11.dtd">
<svg version="1.1" id="Layer_1" xmlns="http://www.w3.org/2000/svg" xmlns:xlink="http://www.w3.org/1999/xlink" x="0px" y="0px"
	 width="50px" height="50px" viewBox="129.5 -150.5 50 50" enable-background="new 129.5 -150.5 50 50" xml:space="preserve">
<g>
	<path d="M135.038-127.961l-4.453,3.02c-1.111,0.827-1.086,2.287-1.085,2.331l0.011,14.576c0,0.98,1.28,2.446,2.541,2.469l0,0
		l12.934,0.555l0.009,0c0.043,0.002,0.086,0.003,0.129,0.003c1.22,0,2.339-0.693,2.771-1.09l0.002,0.003l3.922-3.371l0.006,0.006
		c0.02-0.021,0.035-0.038,0.054-0.058l0.011-0.009l-0.001-0.001c0.745-0.775,0.891-1.149,0.925-2.319l-0.001-12.076h3.372
		l0.01,11.966c0.033,1.17,0.169,1.654,0.914,2.429l-0.001,0.001l0.011,0.009c0.019,0.02,0.034,0.037,0.054,0.058l0.006-0.006
		l3.912,3.362c0.347,0.342,1.156,0.992,2.428,1.128l0.004-0.04c-0.004,0.04,0.05,0.01,0.075,0.015l0.002,0.028l0.108-0.006
		c0.005,0,0.009,0.003,0.014,0.003c0.008,0,0.016-0.004,0.024-0.005l13.138-0.589l0,0c1.403-0.171,2.604-1.483,2.604-2.463
		l0.011-14.557c0.001-0.057,0.026-1.609-1.106-2.451l-4.432-2.944c-0.502-0.302-0.933-0.433-1.765-0.44l0-0.003l-0.043,0.001
		c-0.022,0-0.036-0.002-0.059-0.002v0.004l-7.267,0.238v-12.938c0-0.357-0.097-0.688-0.254-0.983l-1.218-2.925
		c-0.448-0.994-1.268-0.994-1.709-0.994l-14.073,0.022c-0.863,0-1.432,0.351-1.685,1.02l-1.175,2.68
		c-0.229,0.337-0.363,0.743-0.363,1.18v12.944l-7.446-0.244v-0.004c-0.022,0-0.037,0.002-0.059,0.002l-0.043-0.001l0,0.003
		C135.971-128.418,135.539-128.263,135.038-127.961z M151.834-111.873c-0.027,0.943-0.095,1.093-0.616,1.632l-3.946,3.391
		l-0.001-0.001c-0.005,0.005-0.014,0.012-0.02,0.018c0.078-0.241,0.123-0.519,0.147-0.819l0,0l0.023-0.322
		c0-0.021,0.004-0.038,0.004-0.059h-0.005l-0.187-14.067c0-0.349-0.055-0.656-0.153-0.926l1.757-0.895h2.996L151.834-111.873z
		 M157.176-111.956l-0.01-11.966h2.996l1.757,0.895c-0.098,0.268-0.153,0.574-0.153,0.919l-0.187,14.074h-0.005
		c0,0.016,0.005-0.016,0.005,0l0.03,0.381l0,0c0.03,0.302,0.089,0.593,0.188,0.864c-0.019-0.019-0.052-0.046-0.068-0.062
		l-0.001,0.001l-3.946-3.391C157.261-110.781,157.204-111.013,157.176-111.956z M173.418-127.145l3.58,2.427l-13.259,0.522
		c0.646-0.361,1.09-1.043,1.09-1.834v-1.176l7.352-0.241C172.925-127.442,173.117-127.327,173.418-127.145z M163.848-126.03
		c0,0.622-0.506,1.128-1.128,1.128h-16.261c-0.622,0-1.128-0.506-1.128-1.128v-15.095c0-0.622,0.506-1.128,1.128-1.128h16.261
		c0.43,0,0.793,0.251,0.983,0.606l0.015,0.036l0.007-0.003c0.073,0.15,0.123,0.312,0.123,0.489V-126.03z M147.574-145.025
		l14.073-0.022c0.445,0,0.643,0.038,0.808,0.404l0.601,1.443c-0.11-0.018-0.221-0.034-0.337-0.034h-16.261
		c-0.096,0-0.188,0.016-0.281,0.028l0.618-1.41C146.871-144.814,146.999-145.025,147.574-145.025z M135.582-127.17l-0.011-0.017
		c0.297-0.179,0.51-0.255,1.249-0.261l7.531,0.247v1.17c0,0.803,0.456,1.494,1.118,1.85c-0.057-0.004-0.11-0.014-0.169-0.014h-0.001
		l-13.408-0.523L135.582-127.17z M132.059-106.45c-0.665-0.027-1.567-1.262-1.568-1.584c0-0.322-0.01-13.924-0.01-13.924l0.01,0
		c-0.056-1.582,0.277-1.696,1.181-1.791l13.608,0.535c0.683,0,0.974,0.333,0.974,1.12l0.188,14.114
		c-0.024,0.954-0.679,1.97-1.464,1.989l0,0L132.059-106.45L132.059-106.45z M146.497-123.83c-0.052-0.039-0.108-0.073-0.164-0.105
		c0.043,0.003,0.083,0.013,0.126,0.013h0.22L146.497-123.83z M162.647-123.922c-0.049,0.029-0.097,0.06-0.142,0.094l-0.184-0.094
		H162.647z M176.854-106.472L176.854-106.472l-12.981,0.5l0,0c-0.224,0.041-0.442-0.212-0.641-0.378
		c-0.402-0.335-0.654-0.683-0.674-1.577l0.189-14.175c0-0.78,0.291-1.113,0.993-1.114l13.521-0.537
		c0.972,0.097,1.305,0.212,1.248,1.793l0.01,0l-0.01,13.924C178.509-108.034,177.718-106.662,176.854-106.472z"/>
	<g>
		<g>
			<path d="M158.483-128.967c-0.32,0-0.587-0.191-0.732-0.525l-0.886-1.953h-4.69l-0.887,1.98c-0.13,0.314-0.393,0.497-0.72,0.497
				c-0.393,0-0.714-0.32-0.714-0.714c0-0.135,0.03-0.261,0.091-0.383l3.699-8.091c0.181-0.398,0.476-0.6,0.875-0.6
				c0.451,0,0.758,0.216,0.918,0.609l3.699,8.075c0.058,0.136,0.087,0.256,0.087,0.362
				C159.224-129.299,158.892-128.967,158.483-128.967z M152.799-132.874h3.441l-1.721-3.826L152.799-132.874z"/>
		</g>
	</g>
	<g>
		<g>
			<path d="M139.146-110.295c-0.088,0-0.178-0.002-0.269-0.005l-3.61-0.143c-0.416-0.017-0.753-0.366-0.75-0.778l0.065-7.933
				c0.004-0.405,0.34-0.735,0.748-0.735l3.468,0.137c1.099,0.044,1.993,0.376,2.586,0.961c0.442,0.462,0.663,1.01,0.659,1.631
				c-0.008,0.892-0.394,1.574-1.125,2.015c1.075,0.493,1.615,1.254,1.607,2.267C142.512-111.276,141.217-110.295,139.146-110.295z
				 M136.048-111.812l2.883,0.114c0.06,0.002,0.12,0.004,0.178,0.004l0,0c0.557,0,1.855-0.124,1.864-1.269
				c0.009-1.155-1.388-1.379-2.222-1.411l-2.681-0.106L136.048-111.812z M136.082-115.867l2.51,0.099
				c0.053,0.002,0.105,0.003,0.156,0.003h0.001c0.52,0,1.73-0.124,1.74-1.274c0.006-0.802-0.654-1.273-1.81-1.319l-2.575-0.102
				L136.082-115.867z"/>
		</g>
	</g>
	<g>
		<g>
			<path d="M171.604-110.168l-0.063,0c-2.781-0.025-4.92-2.137-4.975-4.911c-0.028-1.351,0.448-2.581,1.338-3.488
				c0.885-0.902,2.108-1.399,3.445-1.399c1.762,0.015,2.769,0.642,3.53,1.254c0.115,0.097,0.303,0.299,0.31,0.599
				c0.004,0.189-0.07,0.371-0.209,0.513c-0.146,0.148-0.346,0.234-0.551,0.234c-0.242-0.002-0.423-0.119-0.483-0.157
				c-0.818-0.699-1.594-1.006-2.547-1.015c-0.001,0-0.001,0-0.001,0c-0.919,0-1.734,0.333-2.327,0.937
				c-0.621,0.634-0.954,1.512-0.934,2.471c0.039,1.977,1.539,3.518,3.413,3.534c0.001,0,0.001,0,0.001,0
				c1.025,0,1.778-0.301,2.561-1.006c0.128-0.125,0.308-0.201,0.486-0.201c0.4,0.003,0.753,0.346,0.762,0.733
				c0.004,0.211-0.091,0.417-0.253,0.552C174.068-110.586,172.985-110.168,171.604-110.168z"/>
		</g>
	</g>
</g>
</svg>
