<?xml version="1.0" encoding="utf-8"?>
<!-- Generator: Adobe Illustrator 19.2.0, SVG Export Plug-In . SVG Version: 6.00 Build 0)  -->
<svg version="1.1" id="Layer_1" xmlns="http://www.w3.org/2000/svg" xmlns:xlink="http://www.w3.org/1999/xlink" x="0px" y="0px"
	 viewBox="0 0 49.8 35.7" style="enable-background:new 0 0 49.8 35.7;" xml:space="preserve">
<style type="text/css">
	.st0{fill:#FFFFFF;}
</style>
<g>
	<g>
		<path class="st0" d="M13.5,16.4c-2.9,0-5.2-2.3-5.2-5.2c0-2.9,2.3-5.2,5.2-5.2c2.9,0,5.2,2.3,5.2,5.2
			C18.7,14.1,16.3,16.4,13.5,16.4z M13.5,8.1c-1.7,0-3.2,1.4-3.2,3.2c0,1.7,1.4,3.2,3.2,3.2c1.7,0,3.2-1.4,3.2-3.2
			C16.6,9.5,15.2,8.1,13.5,8.1z"/>
		<path class="st0" d="M20,29.4H6.9c-0.6,0-1-0.5-1-1v-5.7c0-3.5,2.9-6.4,6.4-6.4h2.3c3.5,0,6.4,2.9,6.4,6.4v5.7
			C21.1,29,20.6,29.4,20,29.4z M7.9,27.4H19v-4.7c0-2.4-2-4.4-4.4-4.4h-2.3c-2.4,0-4.4,2-4.4,4.4V27.4z"/>
	</g>
	<path class="st0" d="M48.2,35.3H1.3c-0.6,0-1-0.5-1-1V1.6c0-0.6,0.5-1,1-1h46.9c0.6,0,1,0.5,1,1v32.7
		C49.2,34.8,48.8,35.3,48.2,35.3z M2.4,33.2h44.9V2.6H2.4V33.2z"/>
	<path class="st0" d="M41.4,12.2H26.3c-0.6,0-1-0.5-1-1c0-0.6,0.5-1,1-1h15.1c0.6,0,1,0.5,1,1C42.4,11.8,42,12.2,41.4,12.2z"/>
	<path class="st0" d="M41.4,18.9H26.3c-0.6,0-1-0.5-1-1s0.5-1,1-1h15.1c0.6,0,1,0.5,1,1S42,18.9,41.4,18.9z"/>
	<path class="st0" d="M41.4,25.6H26.3c-0.6,0-1-0.5-1-1c0-0.6,0.5-1,1-1h15.1c0.6,0,1,0.5,1,1C42.4,25.2,42,25.6,41.4,25.6z"/>
</g>
</svg>
