<svg id="Icons" xmlns="http://www.w3.org/2000/svg" viewBox="0 0 58 58"><defs><style>.cls-1{fill:#fff;}</style></defs><title>Brain Building Icons</title><path id="Cleaning_Up" data-name="Cleaning Up" class="cls-1" d="M24.14,56.86l8.12-13.7a11.91,11.91,0,0,0,1.48-4A11.18,11.18,0,0,0,32.69,32l.28-.28L54.85,9.84A3.47,3.47,0,0,0,55.07,5a3.39,3.39,0,0,0-4.87.14L28.31,27l-.28.28a10.8,10.8,0,0,0-7.14-1.05,12.94,12.94,0,0,0-4,1.48L3.1,35.82a2.2,2.2,0,0,0-.42,3.46L20.75,57.35a2.2,2.2,0,0,0,1.84.64A2.87,2.87,0,0,0,24.14,56.86Zm6.73-26.3a7.69,7.69,0,0,0-.74-.88A4.6,4.6,0,0,0,29.3,29l-.56-.33L51.44,6.08a2.13,2.13,0,0,1,1.49-.64A1.53,1.53,0,0,1,54,5.86a1.79,1.79,0,0,1-.21,2.59L31.23,31ZM20.82,28a9.57,9.57,0,0,1,8.48,2.61,9.41,9.41,0,0,1,2.62,8.49,9.8,9.8,0,0,1-1.39,3.59l-.25.49L16.74,29.67l.48-.25A9.22,9.22,0,0,1,20.82,28Zm-2.43,24.8,3.5-5.64a1.3,1.3,0,0,0-.4-1.69c-.56-.32-1-.16-1.36.41l-3.21,5.43-7.7-7.79,5-3.4a1.13,1.13,0,0,0,.6-1.49,1.11,1.11,0,0,0-1.57-.3L7.88,42.12l-4.45-4.5,12-7.24L29.53,44.63,22.37,56.79Z"/></svg>