<?xml version="1.0" encoding="utf-8"?>
<!-- Generator: Adobe Illustrator 22.0.1, SVG Export Plug-In . SVG Version: 6.00 Build 0)  -->
<svg version="1.1" id="Layer_1" xmlns="http://www.w3.org/2000/svg" xmlns:xlink="http://www.w3.org/1999/xlink" x="0px" y="0px"
	 viewBox="0 0 64 64" style="enable-background:new 0 0 64 64;" xml:space="preserve">
<style type="text/css">
	.st0{stroke:#000000;stroke-miterlimit:10;}
</style>
<title>7.5</title>
<desc>Created with Sketch.</desc>
<g>
	<g>
		<path class="st0" d="M32,43c6.1,0,11-4.9,11-11s-4.9-11-11-11s-11,4.9-11,11S25.9,43,32,43z M47.8,29.5h13.7
			c1.4,0,2.5,1.1,2.5,2.5l0,0c0,1.4-1.1,2.5-2.5,2.5H47.8c-0.4,2.6-1.4,4.9-2.9,6.9l9.7,9.7c1,1,1,2.5,0,3.5l0,0c-1,1-2.6,1-3.5,0
			l-9.7-9.7c-2,1.5-4.4,2.5-6.9,2.9v13.7c0,1.4-1.1,2.5-2.5,2.5l0,0c-1.4,0-2.5-1.1-2.5-2.5V47.8c-2.6-0.4-4.9-1.4-6.9-2.9l-9.7,9.7
			c-1,1-2.5,1-3.5,0l0,0c-1-1-1-2.6,0-3.5l9.7-9.7c-1.5-2-2.5-4.4-2.9-6.9H2.5C1.1,34.5,0,33.4,0,32l0,0c0-1.4,1.1-2.5,2.5-2.5h13.7
			c0.4-2.6,1.4-4.9,2.9-6.9l-9.7-9.7c-1-1-1-2.5,0-3.5l0,0c1-1,2.6-1,3.5,0l9.7,9.7c2-1.5,4.4-2.5,6.9-2.9V2.5C29.5,1.1,30.6,0,32,0
			l0,0c1.4,0,2.5,1.1,2.5,2.5v13.7c2.6,0.4,4.9,1.4,6.9,2.9l9.7-9.7c1-1,2.5-1,3.5,0l0,0c1,1,1,2.6,0,3.5l-9.7,9.7
			C46.4,24.6,47.4,26.9,47.8,29.5z"/>
	</g>
</g>
</svg>
