<svg id="Icons" xmlns="http://www.w3.org/2000/svg" viewBox="0 0 58 58"><defs><style>.cls-1{fill:#fff;}</style></defs><title>Brain Building Icons</title><path id="Diaper" class="cls-1" d="M51.2,14.93H6.8A3.66,3.66,0,0,0,3,18.73v9.51c0,.23.3,22.83,26,22.83s26-22.6,26-22.83V18.73A3.66,3.66,0,0,0,51.2,14.93Zm2.53,3.8v8.9q-1.09,0-2.1.15a6.69,6.69,0,0,1-1.29-2.07h.86a.64.64,0,0,0,.63-.64V18.73a.63.63,0,0,0-.63-.63H48.77c-.06-.8-.08-1.45-.1-1.9h2.52A2.44,2.44,0,0,1,53.73,18.73Zm-13.44,5.6c0-.1,0-.21,0-.31A1.83,1.83,0,0,0,40,23a1.81,1.81,0,0,0,.34-1.06,1.78,1.78,0,0,0-.34-1,1.83,1.83,0,0,0,.34-1.06,3,3,0,0,0,0-.31H50.45v4.85ZM6.8,16.2H9.33c0,.45,0,1.1-.11,1.9H6.8a.63.63,0,0,0-.63.63v6.34a.64.64,0,0,0,.63.64h.86a6.69,6.69,0,0,1-1.29,2.07q-1-.12-2.1-.15v-8.9A2.43,2.43,0,0,1,6.8,16.2Zm.75,8.13V19.48H17.71a3,3,0,0,0,0,.31A1.83,1.83,0,0,0,18,20.85a1.78,1.78,0,0,0-.34,1A1.83,1.83,0,0,0,18,23,1.83,1.83,0,0,0,17.69,24a1.62,1.62,0,0,0,0,.31ZM21.84,49C6.39,45.77,4.61,32.06,4.41,29,19.08,29.52,21.46,44.23,21.84,49Zm7.16.7a35.85,35.85,0,0,1-5.65-.42C23.06,44.8,21.07,30.57,8,27.93A10.6,10.6,0,0,0,9.1,25.82H19.49a.75.75,0,0,0,.74-.75.74.74,0,0,0-.74-.74.32.32,0,0,1,0-.63.74.74,0,0,0,.74-.74.75.75,0,0,0-.74-.75.31.31,0,0,1,0-.62.75.75,0,0,0,0-1.49.31.31,0,0,1,0-.62.75.75,0,0,0,.74-.75.74.74,0,0,0-.74-.74H10.62c.05-.69.07-1.27.08-1.68H47.29c0,.41,0,1,.09,1.68H38.51a.74.74,0,0,0-.74.74.75.75,0,0,0,.74.75.31.31,0,0,1,0,.62.75.75,0,0,0,0,1.49.31.31,0,0,1,.31.31.32.32,0,0,1-.31.32.74.74,0,0,0,0,1.48.32.32,0,0,1,0,.63.74.74,0,0,0-.74.74.75.75,0,0,0,.74.75H48.9A10.88,10.88,0,0,0,50,27.93c-13.06,2.64-15,16.88-15.33,21.35A38,38,0,0,1,29,49.69ZM36.16,49c.38-4.77,2.75-19.48,17.42-20a24.54,24.54,0,0,1-3,10C47.52,44.28,42.67,47.65,36.16,49Z"/></svg>