<?xml version="1.0" encoding="UTF-8" standalone="no"?>
<svg width="50px" height="49px" viewBox="0 0 50 49" version="1.1" xmlns="http://www.w3.org/2000/svg" xmlns:xlink="http://www.w3.org/1999/xlink">
    <!-- Generator: Sketch 39.1 (31720) - http://www.bohemiancoding.com/sketch -->
    <title>duck</title>
    <desc>Created with Sketch.</desc>
    <defs></defs>
    <g id="S2-Search-Results-(READY)" stroke="none" stroke-width="1" fill="none" fill-rule="evenodd">
        <g id="03-Search-results---Final-alt" transform="translate(-1245.000000, -557.000000)" fill="#FFFFFF">
            <g id="Results" transform="translate(520.000000, 460.000000)">
                <g id="Age-card" transform="translate(40.000000, 40.000000)">
                    <g id="program-icon" transform="translate(660.000000, 33.000000)">
                        <g id="duck" transform="translate(26.000000, 25.000000)">
                            <path d="M40.173913,19.6173913 C39.7565217,19.3565217 39.6521739,19.1478261 39.6521739,19.1478261 C39.6521739,19.0956522 39.7565217,18.9391304 40.173913,18.7826087 C44.8695652,16.4869565 47.5304348,13.7217391 47.5304348,11.1652174 C47.5304348,9.75652174 46.9565217,8.08695652 44.2956522,8.08695652 C43.7217391,8.08695652 43.0434783,8.13913043 42.2086957,8.29565217 C41.2695652,8.45217391 40.2782609,7.87826087 39.8086957,6.88695652 C37.8782609,2.97391304 33.9130435,0.469565217 29.6347826,0.469565217 L29.4782609,0.469565217 C23.2695652,0.52173913 18.3130435,5.63478261 18.3652174,11.8434783 C18.4173913,14.7130435 19.5130435,17.4782609 21.5478261,19.5130435 C21.9130435,19.8782609 22.0173913,20.1391304 21.9652174,20.2434783 C21.9652174,20.2956522 21.8086957,20.4521739 21.4434783,20.5043478 C19.1478261,21.0782609 16.9565217,21.2347826 14.7130435,21.026087 C9.91304348,20.5043478 8.29565217,18 7.35652174,16.5391304 C6.88695652,15.7565217 6.46956522,15.1304348 5.73913043,15.1304348 C5.47826087,15.1304348 5.2173913,15.2347826 4.95652174,15.4434783 C-0.260869565,19.5652174 -1.56521739,29.1130435 2.13913043,36.3130435 C5.84347826,43.5130435 14.2434783,47.426087 25.8782609,47.426087 C27.9652174,47.426087 30.1043478,47.3217391 32.2434783,47.0608696 C40.8521739,46.0695652 47.0608696,39.7043478 46.9565217,31.9304348 C46.8521739,26.9217391 44.3478261,22.3304348 40.173913,19.6173913 L40.173913,19.6173913 Z M39.4956522,17.426087 C39.3391304,17.5304348 39.1826087,17.5826087 39.026087,17.6869565 C38.7652174,16.9565217 38.6608696,16.226087 38.5565217,15.5478261 C41.6869565,15.1826087 44.2956522,13.4086957 45.8086957,12.1565217 C45.1826087,13.826087 42.9391304,15.7565217 39.4956522,17.426087 L39.4956522,17.426087 Z M42.4173913,9.65217391 C43.2,9.49565217 43.773913,9.44347826 44.2956522,9.44347826 C45.1826087,9.44347826 45.6521739,9.65217391 45.8608696,10.1217391 C44.973913,11.0086957 42.1565217,13.5652174 38.5565217,14.0347826 C38.6608696,11.8434783 39.3913043,10.0173913 39.8608696,9.02608696 C40.5913043,9.6 41.5304348,9.80869565 42.4173913,9.65217391 L42.4173913,9.65217391 Z M32.0869565,45.6 C30,45.8608696 27.9130435,45.9652174 25.8782609,45.9652174 C19.5130435,45.9652174 8.08695652,44.6086957 3.44347826,35.6347826 C0.104347826,29.1130435 1.14782609,20.5043478 5.79130435,16.7478261 C5.89565217,16.9043478 6.05217391,17.1652174 6.20869565,17.373913 C7.2,18.9913043 9.07826087,21.9652174 14.6086957,22.5391304 C17.0086957,22.8 19.3565217,22.5913043 21.8608696,22.0173913 C23.0086957,21.7565217 23.3217391,21.0782609 23.426087,20.7130435 C23.6347826,20.0347826 23.373913,19.2521739 22.6434783,18.573913 C20.8695652,16.8 19.9304348,14.4 19.8782609,11.8956522 C19.826087,6.46956522 24.1565217,2.03478261 29.5304348,1.93043478 L29.6347826,1.93043478 C33.3391304,1.93043478 36.8347826,4.12173913 38.4521739,7.46086957 C38.5565217,7.66956522 38.6608696,7.82608696 38.7652174,7.9826087 C37.9826087,9.49565217 35.7391304,14.4521739 38.2434783,19.4608696 C38.3478261,19.8782609 38.6608696,20.3478261 39.3391304,20.7652174 C43.0956522,23.2173913 45.3913043,27.3913043 45.4434783,31.8782609 C45.5478261,39.0782609 40.0695652,44.6608696 32.0869565,45.6 L32.0869565,45.6 Z" id="Shape" stroke="#FFFFFF"></path>
                            <ellipse id="Oval" cx="34.1217391" cy="8.8173913" rx="1.46086957" ry="1.46086957"></ellipse>
                        </g>
                    </g>
                </g>
            </g>
        </g>
    </g>
</svg>