<?xml version="1.0" encoding="utf-8"?>
<!-- Generator: Adobe Illustrator 17.0.0, SVG Export Plug-In . SVG Version: 6.00 Build 0)  -->
<!DOCTYPE svg PUBLIC "-//W3C//DTD SVG 1.1//EN" "http://www.w3.org/Graphics/SVG/1.1/DTD/svg11.dtd">
<svg version="1.1" id="Layer_1" xmlns="http://www.w3.org/2000/svg" xmlns:xlink="http://www.w3.org/1999/xlink" x="0px" y="0px"
	 width="50px" height="50px" viewBox="0 0 50 50" enable-background="new 0 0 50 50" xml:space="preserve">
<g>
	<path d="M47.683,12.891v-0.554c0-0.163-0.103-0.309-0.257-0.363l-0.019-0.007c-0.534-0.185-1.106-0.347-1.716-0.482l-0.015-1.063
		c-0.002-0.162-0.106-0.305-0.259-0.358l-0.019-0.006c-0.517-0.18-1.073-0.327-1.662-0.439l-0.017-1.215
		c-0.002-0.162-0.106-0.305-0.259-0.358l-0.019-0.006c-1.083-0.378-2.297-0.57-3.604-0.57c-5.783,0-12.066,3.669-14.307,5.109
		c-0.189,0.121-0.348,0.226-0.477,0.312h-0.109c-0.129-0.086-0.288-0.192-0.477-0.312c-2.241-1.44-8.525-5.109-14.307-5.109
		c-1.307,0-2.52,0.192-3.604,0.57L6.539,8.045C6.386,8.098,6.283,8.242,6.281,8.403L6.263,9.619
		c-0.59,0.112-1.146,0.259-1.662,0.439l-0.019,0.006c-0.153,0.053-0.256,0.196-0.259,0.358l-0.015,1.063
		c-0.609,0.135-1.182,0.297-1.716,0.482l-0.019,0.007c-0.154,0.054-0.257,0.2-0.257,0.363v0.554H0.553
		c-0.261,0-0.472,0.211-0.472,0.472v28.695c0,0.261,0.211,0.472,0.472,0.472h23.916h1.062h23.916c0.261,0,0.472-0.211,0.472-0.472
		V13.363c0-0.261-0.211-0.472-0.472-0.472H47.683z M46.413,12.437c0.202,0.059,0.34,0.244,0.34,0.454l0,0v1.041l0,25.265
		c0,0.233-0.204,0.412-0.435,0.381c-0.863-0.114-2.271-0.241-4.244-0.241c-2.642,0-6.674,0.239-12.05,1.229
		c5.917-1.942,10.098-2.403,12.734-2.403c1.799,0,2.695,0.226,2.702,0.227l0.132,0.035c0.246,0.065,0.486-0.123,0.482-0.377
		l-0.347-24.114l-0.015-1.041l-0.009-0.643C45.946,12.307,46.183,12.37,46.413,12.437z M44.408,10.533
		c0.203,0.056,0.344,0.239,0.347,0.45l0.004,0.32l0.011,0.749l0.012,0.84l0.016,1.041l0.334,23.21
		c0.003,0.231-0.195,0.413-0.425,0.388c-0.482-0.052-1.13-0.096-1.948-0.096c-2.67,0-6.862,0.454-12.738,2.346
		c5.951-2.806,10.013-3.292,12.111-3.292c0.916,0,1.394,0.097,1.397,0.098l0.122,0.026c0.242,0.052,0.47-0.134,0.466-0.381
		l-0.318-22.298l-0.015-1.041l-0.015-0.997l-0.011-0.739l-0.011-0.781C43.974,10.421,44.194,10.474,44.408,10.533z M39.838,8.198
		c0.955,0,1.852,0.112,2.672,0.335c0.167,0.045,0.284,0.194,0.286,0.367l0.008,0.574l0.011,0.739l0.012,0.842l0.011,0.734
		l0.016,1.102l0.015,1.041l0.306,21.452c0.003,0.222-0.181,0.401-0.403,0.389c-0.188-0.009-0.401-0.015-0.64-0.015
		c-2.646,0-8.26,0.727-16.6,5.49V13.932v-0.275v-0.056v-0.07c0.204-0.136,0.546-0.36,1-0.64c0.189-0.117,0.396-0.243,0.62-0.376
		c0.489-0.29,1.06-0.615,1.696-0.954C31.74,10.017,35.97,8.198,39.838,8.198z M7.203,8.9c0.002-0.173,0.119-0.322,0.286-0.367
		c0.82-0.223,1.717-0.335,2.672-0.335c3.869,0,8.102,1.82,10.996,3.364c0.636,0.338,1.206,0.663,1.694,0.954
		c0.224,0.132,0.43,0.258,0.617,0.375c0.454,0.28,0.795,0.504,1,0.64v0.07v0.056v0.275v27.316c-8.34-4.764-13.954-5.49-16.6-5.49
		c-0.434,0-0.785,0.02-1.05,0.044l0.313-21.87l0.015-1.041l0.016-1.102l0.011-0.734l0.012-0.842l0.011-0.739L7.203,8.9z
		 M5.529,10.551c0.233-0.066,0.475-0.125,0.724-0.177l-0.011,0.781l-0.011,0.739l-0.015,0.997l-0.015,1.041L5.884,36.23l0,0
		c-0.003,0.246,0.223,0.431,0.463,0.381l0.122-0.026c0.005-0.001,0.482-0.098,1.4-0.098c2.098,0,6.16,0.486,12.111,3.292
		c-5.876-1.892-10.067-2.346-12.738-2.346c-0.819,0-1.467,0.044-1.948,0.096c-0.23,0.025-0.428-0.157-0.425-0.388l0.334-23.209
		l0.016-1.041l0.012-0.84l0.011-0.749l0.005-0.386C5.249,10.745,5.364,10.597,5.529,10.551z M3.524,12.456
		c0.25-0.074,0.507-0.144,0.773-0.208l-0.009,0.643l-0.015,1.041L3.926,38.041l0,0.007c-0.003,0.253,0.235,0.439,0.48,0.376
		l0.131-0.034c0.009-0.002,0.906-0.228,2.705-0.228c2.636,0,6.817,0.461,12.734,2.403c-5.376-0.989-9.408-1.229-12.05-1.229
		c-1.973,0-3.381,0.128-4.244,0.241c-0.231,0.03-0.435-0.148-0.435-0.381V13.932v-1.041v-0.066
		C3.246,12.654,3.36,12.504,3.524,12.456z M1.409,41.017V14.405c0-0.261,0.211-0.472,0.472-0.472h0.436v26.173
		c0,0.248,0.231,0.431,0.473,0.374l0.125-0.029c0.017-0.004,1.682-0.384,5.011-0.384c2.771,0,7.105,0.27,12.962,1.423H1.881
		C1.62,41.489,1.409,41.278,1.409,41.017z M48.119,41.489H29.112c5.857-1.154,10.191-1.423,12.962-1.423
		c3.327,0,4.994,0.381,5.01,0.384l0.126,0.03c0.242,0.057,0.473-0.126,0.473-0.374V13.932h0.436c0.261,0,0.472,0.211,0.472,0.472
		v26.612C48.591,41.278,48.38,41.489,48.119,41.489z"/>
</g>
</svg>
