<?xml version="1.0" encoding="utf-8"?>
<!-- Generator: Adobe Illustrator 17.0.0, SVG Export Plug-In . SVG Version: 6.00 Build 0)  -->
<!DOCTYPE svg PUBLIC "-//W3C//DTD SVG 1.1//EN" "http://www.w3.org/Graphics/SVG/1.1/DTD/svg11.dtd">
<svg version="1.1" id="Layer_1" xmlns="http://www.w3.org/2000/svg" xmlns:xlink="http://www.w3.org/1999/xlink" x="0px" y="0px"
	 width="50px" height="50px" viewBox="0 0 50 50" enable-background="new 0 0 50 50" xml:space="preserve">
<g>
	<path d="M49.327,13.776c-0.389-0.069-0.771,0.152-0.906,0.523c-1.53,4.207-6.698,7.761-11.286,7.761h-8.512v-1.198h0.468
		c0.449,0,0.814-0.364,0.814-0.814s-0.364-0.814-0.814-0.814h-2.564c-0.449,0-0.814,0.364-0.814,0.814s0.364,0.814,0.814,0.814
		h0.468v1.198h-3.002v-1.198h0.468c0.449,0,0.814-0.364,0.814-0.814s-0.364-0.814-0.814-0.814h-2.564
		c-0.449,0-0.814,0.364-0.814,0.814s0.364,0.814,0.814,0.814h0.468v1.198h-3.002v-1.198h0.468c0.449,0,0.814-0.364,0.814-0.814
		s-0.364-0.814-0.814-0.814h-2.564c-0.449,0-0.814,0.364-0.814,0.814s0.364,0.814,0.814,0.814h0.468v1.198H1.628v-0.45
		c0-0.449-0.364-0.814-0.814-0.814C0.364,20.796,0,21.161,0,21.61v4.903c0,0.449,0.364,0.814,0.814,0.814
		c0.449,0,0.814-0.365,0.814-0.814v-0.45h5.077c-1.233,1.063-2.019,2.632-2.019,4.384c0,3.192,2.597,5.789,5.79,5.789H36.19
		c3.192,0,5.79-2.597,5.79-5.789c0-1.444-0.535-2.764-1.413-3.779c3.481,1.187,6.702,3.985,7.855,7.156
		c0.135,0.371,0.517,0.592,0.906,0.523C49.716,34.279,50,33.942,50,33.547v-18.97C50,14.182,49.716,13.844,49.327,13.776z
		 M22.178,26.692v7.51h-2.583v-7.51H22.178z M24.213,26.692h2.583v7.51h-2.583V26.692z M6.72,30.447
		c0-2.071,1.685-3.755,3.755-3.755h7.085v7.51h-7.085C8.405,34.202,6.72,32.518,6.72,30.447z M36.19,34.202h-7.36v-7.51h7.36
		c2.071,0,3.755,1.684,3.755,3.755C39.945,32.518,38.26,34.202,36.19,34.202z M48.372,30.441c-2.555-3.479-7.022-6.005-11.237-6.005
		H1.628v-0.749h35.508c4.214,0,8.682-2.526,11.237-6.005C48.372,21.176,48.372,26.947,48.372,30.441z"/>
</g>
</svg>
