<?xml version="1.0" encoding="utf-8"?>
<!-- Generator: Adobe Illustrator 17.0.0, SVG Export Plug-In . SVG Version: 6.00 Build 0)  -->
<!DOCTYPE svg PUBLIC "-//W3C//DTD SVG 1.1//EN" "http://www.w3.org/Graphics/SVG/1.1/DTD/svg11.dtd">
<svg version="1.1" id="Layer_1" xmlns="http://www.w3.org/2000/svg" xmlns:xlink="http://www.w3.org/1999/xlink" x="0px" y="0px"
	 width="50px" height="50px" viewBox="0 0 50 50" enable-background="new 0 0 50 50" xml:space="preserve">
<g>
	<g>
		<path d="M48.09,21.183L26.418,0.629c-0.899-0.852-2.318-0.85-3.23,0.006L1.368,21.111C0.857,21.59,0.551,22.259,0.549,22.9
			c-0.001,0.546,0.271,1.28,0.663,1.651l2.824,0.005L4,27.699v20.216C4,49.294,5.434,50,6.703,50h34.942
			C43.04,50,44,49.174,44,47.915V27.533v-3.237l3.917-0.094c0.483-0.254,0.781-0.647,0.862-1.23
			C48.873,22.292,48.593,21.661,48.09,21.183z M41.928,22L42,28.572V48L6.094,48.031L6.078,22.772l-3.832,0.006L24.331,1.927
			c0.22-0.207,0.45-0.208,0.669,0.009L46.566,22C46.552,22,41.928,22,41.928,22z"/>
		<path d="M46.994,22.706C47.062,22.819,46.98,22.629,46.994,22.706L46.994,22.706z"/>
	</g>
	<g>
		<path d="M30.338,19.65c-2.547,0-4.841,1.284-6.176,3.336c-1.335-2.052-3.629-3.336-6.176-3.336c-4.067,0-7.376,3.309-7.376,7.376
			c0,8.082,12.557,15.662,13.092,15.981l0.461,0.275l0.461-0.275c0.535-0.319,13.092-7.899,13.092-15.981
			C37.714,22.959,34.405,19.65,30.338,19.65z M24.161,41.173c-0.981-0.626-3.379-2.226-5.746-4.358
			c-2.74-2.468-6.007-6.169-6.007-9.79c0-3.075,2.502-5.577,5.577-5.577c2.446,0,4.583,1.566,5.319,3.898l0.858,2.72l0.858-2.72
			c0.735-2.331,2.872-3.898,5.318-3.898c3.075,0,5.577,2.502,5.577,5.577C35.915,33.294,26.388,39.751,24.161,41.173z"/>
	</g>
</g>
</svg>
