<?xml version="1.0" encoding="utf-8"?>
<!-- Generator: Adobe Illustrator 17.0.0, SVG Export Plug-In . SVG Version: 6.00 Build 0)  -->
<!DOCTYPE svg PUBLIC "-//W3C//DTD SVG 1.1//EN" "http://www.w3.org/Graphics/SVG/1.1/DTD/svg11.dtd">
<svg version="1.1" id="Layer_1" xmlns="http://www.w3.org/2000/svg" xmlns:xlink="http://www.w3.org/1999/xlink" x="0px" y="0px"
	 width="50px" height="50px" viewBox="0 0 50 50" enable-background="new 0 0 50 50" xml:space="preserve">
<g>
	<path d="M47.615,27.095c-0.061-3.396-0.611-7.081-2.597-9.931c-1.447-2.077-3.58-3.492-6.047-4.052
		c-2.292-0.521-4.663-0.306-6.962,0.081c-0.459,0.077,2.542-0.851,4.562-3.09c3.383-3.75,3.53-6.599,3.521-6.875
		c-0.018-0.533-0.494-0.77-0.926-1.081c-1.449-1.045-3.836-1.69-6.157-1.69c-2.438,0-4.317,0.819-5.875,1.958
		c-1.802,1.318-3.312,4.042-3.646,5.312c-0.381-0.428-1.702-2.912-2.116-3.308c-1.061-1.014-2.674,0.594-1.61,1.61
		c1.655,1.582,3.09,3.458,3.908,5.594c0.45,1.174,0.706,2.387,0.761,3.611c-2.115-1.039-4.419-1.811-6.7-2.275
		c-2.262-0.46-4.612-0.603-6.877-0.079c-2.455,0.568-4.522,2.052-5.931,4.127c-2.097,3.088-2.534,7.128-2.541,10.76
		c0.015,4.671,1.455,9.283,4.148,13.105c2.646,3.755,6.45,6.757,10.8,8.283c2.515,0.883,5.436,0.009,7.586-1.54
		c0.586,0.5,1.268,0.912,1.943,1.218c0.998,0.453,2.05,0.701,3.149,0.711c1.224,0.01,2.378-0.359,3.497-0.817
		c4.242-1.738,7.846-4.71,10.392-8.521C46.478,36.341,47.698,31.722,47.615,27.095z M26.466,6.185
		c0.433-0.654,1.536-2.078,3.036-2.844c1.057-0.539,2.464-1.01,4.089-0.919c1.311,0.073,3.562,0.805,4.103,1.305
		c-0.396,1.813-1.342,3.53-3.75,5.75c-1.333,1.229-5.169,3.104-6.562,3.104c-1.294,0-1.628-1.072-2-2.354
		C25.011,8.944,25.612,7.477,26.466,6.185z M45.085,31.063c-0.717,4.336-2.796,8.247-5.906,11.293
		c-1.546,1.515-3.255,2.702-5.223,3.686c-0.98,0.49-1.929,0.913-3.043,1.145c-0.926,0.192-1.77,0.077-2.686-0.239
		c-0.086-0.03-0.17-0.063-0.255-0.096c0.129,0.05-0.13-0.061-0.15-0.071c-0.204-0.096-0.402-0.207-0.596-0.322
		c-0.152-0.09-0.299-0.188-0.444-0.289c-0.034-0.024-0.068-0.049-0.102-0.074c-0.036-0.028-0.13-0.099-0.158-0.122
		c-0.254-0.209-0.505-0.436-0.716-0.689c-0.411-0.493-1.183-0.388-1.61,0c-0.072,0.066-0.148,0.127-0.224,0.189
		c-0.013,0.011-0.024,0.019-0.034,0.027c-0.013,0.009-0.031,0.022-0.057,0.042c-0.146,0.108-0.295,0.211-0.446,0.311
		c-0.792,0.528-1.45,0.846-2.263,1.097c-0.997,0.308-1.94,0.366-2.958,0.095c-1.047-0.279-1.995-0.787-2.975-1.324
		c-3.83-2.1-6.821-5.379-8.694-9.341c-1.25-2.644-1.879-5.662-1.889-8.614c0.002-1.071,0.048-2.14,0.158-3.205
		c0.012-0.117,0.026-0.234,0.039-0.351c0.001-0.006,0.023-0.178,0.028-0.22c0.028-0.199,0.059-0.397,0.092-0.595
		c0.075-0.45,0.168-0.896,0.275-1.34c0.176-0.733,0.405-1.453,0.689-2.152c-0.011,0.034,0.133-0.296,0.162-0.357
		c0.071-0.15,0.146-0.298,0.223-0.444c0.159-0.303,0.335-0.597,0.523-0.883c0.083-0.126,0.17-0.25,0.259-0.372
		c0.011-0.016,0.034-0.045,0.054-0.072c0.028-0.035,0.055-0.07,0.084-0.104c0.194-0.238,0.404-0.464,0.622-0.681
		c0.194-0.192,0.4-0.373,0.613-0.545c0.001-0.001,0.001-0.001,0.002-0.002c0.046-0.035,0.093-0.069,0.14-0.103
		c0.125-0.09,0.253-0.175,0.383-0.257c0.22-0.14,0.447-0.267,0.679-0.385c0.115-0.059,0.232-0.114,0.349-0.167
		c0.01-0.005,0.024-0.011,0.039-0.017c0.054-0.022,0.109-0.044,0.163-0.065c0.498-0.192,1.015-0.335,1.537-0.442
		c0.126-0.026,0.252-0.048,0.379-0.07c0.058-0.01,0.116-0.019,0.174-0.027c0.267-0.033,0.535-0.056,0.803-0.072
		c0.539-0.032,1.08-0.026,1.619,0.003c0.259,0.014,0.518,0.036,0.776,0.062c0.129,0.013,0.257,0.028,0.386,0.044
		c0.006,0.001,0.013,0.002,0.021,0.003c0.063,0.009,0.125,0.018,0.188,0.027c0.525,0.079,1.046,0.181,1.564,0.298
		c0.97,0.22,1.925,0.504,2.865,0.831c0.415,0.145,0.827,0.299,1.235,0.462c0.165,0.066,0.33,0.133,0.494,0.202
		c0.019,0.008,0.038,0.016,0.057,0.024c0.092,0.039,0.183,0.08,0.275,0.12c0.487,0.215,0.97,0.443,1.444,0.686
		c0.072,0.037,0.143,0.074,0.213,0.109c-0.015,0.083-0.029,0.167-0.046,0.25c-0.124,0.608,0.167,1.228,0.795,1.401
		c0.568,0.156,1.276-0.187,1.401-0.795c0.085-0.419,0.15-0.839,0.198-1.26c0.175-0.079,0.351-0.156,0.528-0.232
		c0.011-0.005,0.022-0.009,0.033-0.014c0.08-0.033,0.16-0.066,0.241-0.099c0.186-0.076,0.374-0.149,0.561-0.221
		c1.825-0.7,3.72-1.24,5.655-1.526c0.024-0.004,0.048-0.007,0.072-0.01c0.028-0.004,0.057-0.008,0.077-0.01
		c0.13-0.016,0.26-0.03,0.39-0.044c0.283-0.029,0.566-0.051,0.85-0.067c0.547-0.031,1.095-0.032,1.642-0.004
		c0.262,0.013,0.523,0.036,0.784,0.065c0.031,0.003,0.061,0.007,0.092,0.011c0.022,0.003,0.044,0.006,0.059,0.008
		c0.151,0.022,0.301,0.049,0.45,0.078c0.533,0.101,1.057,0.246,1.567,0.431c0.075,0.027,0.15,0.056,0.224,0.086
		c-0.016-0.005,0.225,0.099,0.285,0.127c0.258,0.122,0.508,0.258,0.753,0.405c0.229,0.137,0.45,0.288,0.665,0.446
		c0.048,0.038,0.096,0.078,0.143,0.117c0.124,0.103,0.244,0.211,0.361,0.321c0.208,0.193,0.403,0.4,0.59,0.613
		c0.075,0.085,0.147,0.173,0.219,0.262c-0.053-0.062,0.193,0.26,0.24,0.328c0.385,0.553,0.705,1.15,0.98,1.764
		c0.007,0.015,0.023,0.053,0.038,0.089c0.028,0.069,0.055,0.137,0.082,0.206c0.066,0.169,0.127,0.341,0.186,0.513
		c0.136,0.393,0.251,0.794,0.354,1.197c0.103,0.401,0.188,0.807,0.263,1.214c0.04,0.215,0.074,0.431,0.107,0.647
		c0.001,0.008,0.021,0.153,0.029,0.204c0.017,0.133,0.033,0.266,0.048,0.399C45.42,26.739,45.419,29.04,45.085,31.063z
		 M12.974,18.359c-2.431,1.344-3.591,3.887-3.767,6.574c-0.041,0.62,0.549,1.139,1.139,1.139c0.651,0,1.098-0.52,1.139-1.139
		c0.127-1.938,0.94-3.667,2.639-4.607C15.409,19.615,14.26,17.648,12.974,18.359z"/>
	<path d="M32.224,5.186c0.547-0.32,0.963-0.412,1.636-0.253c0.603,0.142,1.186-0.235,1.244-0.63c0.07-0.473-0.408-0.819-1.009-0.961
		c-1.2-0.283-2.416-0.031-3.298,0.485c-0.453,0.265-0.573,0.737-0.166,1.125C31.001,5.304,31.769,5.451,32.224,5.186z"/>
</g>
</svg>
