<svg id="Icons" xmlns="http://www.w3.org/2000/svg" viewBox="0 0 58 58"><defs><style>.cls-1{fill:#fff;}</style></defs><title>Brain Building Icons</title><path id="Getting_Dressed" data-name="Getting Dressed" class="cls-1" d="M54.35,25.31c.23-1.32.55-3.12-2-7.53-3.49-6-11.75-11.27-13.77-12a4.77,4.77,0,0,1-1.49-.93A2.62,2.62,0,0,0,35.28,4a4,4,0,0,0-1.47.34,13.93,13.93,0,0,1-4.75.89h-.12a13.93,13.93,0,0,1-4.75-.89A4,4,0,0,0,22.72,4a2.62,2.62,0,0,0-1.8.82,4.77,4.77,0,0,1-1.49.93c-2,.76-10.28,6-13.77,12-2.55,4.41-2.24,6.21-2,7.53a3.18,3.18,0,0,1,.07,1.17c-.32,1.81.08,2.28,1.75,3.06a5.57,5.57,0,0,0,2.38.62,3.55,3.55,0,0,0,2.91-1.59,9.3,9.3,0,0,1,1.9-1.83,13.25,13.25,0,0,0,1.48-1.3,48.06,48.06,0,0,0-.65,9.11c.14,6.39.53,9.93,2.57,15.33a29.58,29.58,0,0,1,1.19,4.06c.31,1.38.53,2.31,1.41,2.62a2,2,0,0,0,.79.92,3.69,3.69,0,0,0,2.07.52,8.61,8.61,0,0,0,1.09-.08c1.92-.28,3.16-.86,3.67-1.72a1.74,1.74,0,0,0,.15-1.47,4.8,4.8,0,0,0-.09-3.43c-1.16-4-.79-8.66.84-10.53a2.32,2.32,0,0,1,3.64,0c1.63,1.87,2,6.5.84,10.53a4.82,4.82,0,0,0-.1,3.43,1.79,1.79,0,0,0,.16,1.47c.51.86,1.74,1.44,3.67,1.72a8.61,8.61,0,0,0,1.09.08,3.69,3.69,0,0,0,2.07-.52,2.06,2.06,0,0,0,.79-.92c.88-.31,1.1-1.24,1.41-2.62a29.58,29.58,0,0,1,1.19-4.06c2-5.4,2.43-8.94,2.57-15.33a47.06,47.06,0,0,0-.66-9.11,13.31,13.31,0,0,0,1.49,1.3,9.3,9.3,0,0,1,1.9,1.83,3.54,3.54,0,0,0,2.91,1.59,5.61,5.61,0,0,0,2.38-.62c1.67-.78,2.07-1.25,1.75-3.06A3.18,3.18,0,0,1,54.35,25.31ZM7.77,28.91a4.39,4.39,0,0,1-1.85-.51c-1.15-.54-1.33-.7-1.22-1.51a16.8,16.8,0,0,1,4.41,1.54A2.12,2.12,0,0,1,7.77,28.91ZM10,27.45a16.89,16.89,0,0,0-5-1.77c0-.22-.06-.44-.09-.66-.2-1.12-.47-2.65,1.8-6.56,2.65-4.58,9.63-9.41,12.54-10.94,0,6.85-5.18,15.74-5.22,15.83a7.63,7.63,0,0,1-2.26,2.45A10.58,10.58,0,0,0,10,27.45ZM22.41,56.71c-1.66.23-2.41-.16-2.74-.51a6.87,6.87,0,0,0,1-.16,18.22,18.22,0,0,1,2-.27,6.87,6.87,0,0,0,2.84-.67.91.91,0,0,1-.11.3C25.05,56,24,56.48,22.41,56.71Zm15.66-.3a3.72,3.72,0,0,1-2.48.3c-1.59-.23-2.62-.68-3-1.3a1.1,1.1,0,0,1-.12-.31,7,7,0,0,0,2.84.67,17.9,17.9,0,0,1,2,.27,6.87,6.87,0,0,0,1,.16A1.18,1.18,0,0,1,38.07,56.41Zm.35-1.18a5.54,5.54,0,0,1-1-.14,19.31,19.31,0,0,0-2.11-.29c-1.34-.14-1.92-.25-2.32-.77s-.35-1.43.06-2.85c1.05-3.65,1.05-8.82-1-11.2a4.59,4.59,0,0,0-3-1.6A4.59,4.59,0,0,0,26,40c-2.07,2.38-2.07,7.55-1,11.2.41,1.42.43,2.38.06,2.85s-1,.63-2.29.76a19.94,19.94,0,0,0-2.14.3,5.54,5.54,0,0,1-1,.14c-.55,0-.66-.06-1.08-1.91a29.9,29.9,0,0,0-1.2-4.1c-1.92-5.1-2.32-8.3-2.47-14.76a43,43,0,0,1,1-10.48c.49-1,4.91-10.19,4.63-17.06a16.33,16.33,0,0,0,1.83-1.11,4.68,4.68,0,0,1,1.59.31A14.48,14.48,0,0,0,29,6.79,17.46,17.46,0,0,0,34.89,6a3.41,3.41,0,0,1,.84-.21,17.92,17.92,0,0,0,1.83,1.12C37.28,13.8,41.7,23,42.21,24a43.75,43.75,0,0,1,1,10.43c-.15,6.46-.55,9.66-2.47,14.76a29.9,29.9,0,0,0-1.2,4.1C39.07,55.17,39,55.23,38.42,55.23ZM48,27.45a10.58,10.58,0,0,0-1.77-1.65,9.21,9.21,0,0,1-2.62-2.63c-.18-.36-4.86-8.8-4.86-15.65,2.91,1.53,9.89,6.36,12.54,10.94,2.27,3.9,2,5.44,1.8,6.56q-.06.33-.09.66A16.8,16.8,0,0,0,48,27.45Zm2.25,1.46a2.12,2.12,0,0,1-1.34-.48,16.44,16.44,0,0,1,4.41-1.54c.11.81-.07,1-1.22,1.51A4.43,4.43,0,0,1,50.23,28.91Z"/></svg>