<?xml version="1.0" encoding="utf-8"?>
<!-- Generator: Adobe Illustrator 17.0.0, SVG Export Plug-In . SVG Version: 6.00 Build 0)  -->
<!DOCTYPE svg PUBLIC "-//W3C//DTD SVG 1.1//EN" "http://www.w3.org/Graphics/SVG/1.1/DTD/svg11.dtd">
<svg version="1.1" id="Layer_1" xmlns="http://www.w3.org/2000/svg" xmlns:xlink="http://www.w3.org/1999/xlink" x="0px" y="0px"
	 width="50px" height="50px" viewBox="0 0 50 50" enable-background="new 0 0 50 50" xml:space="preserve">
<g>
	<g>
		<path d="M38.688,49.967H11.311c-2.707,0-4.909-2.201-4.909-4.907V19.741c-0.01-4.847,1.914-8.715,5.562-11.184
			C15.176,6.375,19.562,5.267,25,5.266l0,0c5.437,0.002,9.824,1.109,13.037,3.292c3.649,2.47,5.571,6.337,5.56,11.185L43.597,45.06
			C43.597,47.766,41.395,49.967,38.688,49.967z M24.987,6.841c-5.04,0-9.236,1.043-12.136,3.019
			c-3.269,2.236-4.863,5.468-4.874,9.882V45.06c0.004,1.833,1.5,3.328,3.336,3.333h27.376c1.835-0.005,3.331-1.5,3.335-3.334V19.741
			c-0.011-4.413-1.605-7.645-4.874-9.882c-2.898-1.975-7.095-3.018-12.135-3.018c-0.005,0-0.009,0-0.014,0l0,0
			C24.996,6.841,24.991,6.841,24.987,6.841z"/>
	</g>
	<g>
		<g>
			<path d="M38.982,20.532c-0.434,0-0.787-0.354-0.787-0.79c-0.013-3.096-1.029-5.23-3.197-6.718
				c-2.261-1.541-5.711-2.355-9.977-2.355c-0.014,0-0.026,0-0.042,0c-4.269,0-7.718,0.815-9.977,2.357
				c-2.171,1.487-3.188,3.621-3.199,6.717c0,0.435-0.353,0.789-0.786,0.789c-0.436,0-0.79-0.354-0.79-0.79
				c-0.01-3.574,1.298-6.272,3.889-8.019C16.646,10.006,20.41,9.097,25,9.093c4.589,0.004,8.352,0.913,10.884,2.631
				c2.59,1.747,3.898,4.446,3.887,8.019C39.772,20.178,39.418,20.532,38.982,20.532z"/>
		</g>
	</g>
	<g>
		<g>
			<path d="M34.716,44.376h-19.43c-1.73-0.003-3.14-1.413-3.142-3.143l-0.001-7.359c0.003-1.732,1.414-3.141,3.144-3.142h19.428
				c1.729,0.001,3.14,1.41,3.142,3.141v7.36C37.854,42.963,36.445,44.373,34.716,44.376z M13.718,33.874v7.359
				c0.001,0.862,0.704,1.565,1.569,1.567h19.427c0.862-0.002,1.564-0.705,1.566-1.568v-7.358c-0.002-0.863-0.704-1.566-1.567-1.568
				H15.286C14.422,32.307,13.719,33.011,13.718,33.874z"/>
		</g>
	</g>
	<g>
		<g>
			<path d="M32.948,35.985H17.051c-0.434,0-0.788-0.353-0.788-0.787s0.354-0.788,0.788-0.788h15.897
				c0.435,0,0.789,0.354,0.789,0.788S33.383,35.985,32.948,35.985z"/>
		</g>
	</g>
	<g>
		<g>
			<path d="M27.319,18.189h-4.637c-0.658,0-1.267-0.162-1.761-0.469c-0.587-0.363-0.926-0.912-0.928-1.506
				c0.002-0.597,0.34-1.147,0.928-1.511c0.493-0.305,1.102-0.467,1.76-0.468h4.638c0.66,0.001,1.269,0.163,1.761,0.468
				c0.586,0.364,0.925,0.914,0.929,1.508c-0.005,0.598-0.344,1.147-0.929,1.51C28.588,18.026,27.979,18.189,27.319,18.189z"/>
		</g>
	</g>
	<g>
		<g>
			<g>
				<path d="M20.886,3.358c0.004,0.175-0.092,0.331-0.244,0.401c-0.309,0.132-0.658,0.543-0.933,1.05
					c-0.279,0.503-0.493,1.078-0.631,1.488c-0.046,0.138-0.16,0.243-0.297,0.273c-0.465,0.106-0.918,0.229-1.36,0.365
					c-0.037,0.013-0.076,0.018-0.115,0.018c-0.098,0-0.193-0.038-0.269-0.108c-0.105-0.096-0.154-0.244-0.131-0.388
					c0.133-0.791,0.478-1.791,0.968-2.668c0.496-0.866,1.112-1.643,1.964-1.843c0.182-0.039,0.363-0.075,0.542-0.108
					c0.117-0.023,0.237,0.008,0.328,0.086c0.092,0.079,0.147,0.193,0.15,0.318L20.886,3.358z"/>
			</g>
			<g>
				<path d="M29.381,2.165c0.004-0.125,0.059-0.239,0.15-0.318c0.091-0.078,0.21-0.109,0.328-0.086
					c0.18,0.033,0.361,0.069,0.542,0.108c0.852,0.199,1.468,0.977,1.964,1.843c0.49,0.877,0.835,1.877,0.968,2.668
					c0.024,0.144-0.026,0.291-0.131,0.388c-0.076,0.07-0.171,0.108-0.269,0.108c-0.039,0-0.078-0.005-0.115-0.018
					c-0.442-0.136-0.895-0.259-1.36-0.365c-0.137-0.03-0.251-0.135-0.297-0.273c-0.137-0.41-0.351-0.985-0.631-1.488
					c-0.275-0.507-0.625-0.918-0.933-1.05c-0.152-0.069-0.248-0.226-0.244-0.401L29.381,2.165z"/>
			</g>
		</g>
		<g>
			<g>
				<g>
					<path d="M29.106,4.235c-0.17,0-0.306-0.044-0.415-0.089c-0.184-0.088-0.688-0.209-1.384-0.279c-1.267-0.138-3.193-0.14-4.49,0
						c-0.699,0.07-1.196,0.19-1.379,0.277c-0.112,0.045-0.231,0.088-0.401,0.092c-0.001,0-0.002,0-0.003,0
						c-0.214,0-0.476-0.095-0.635-0.307c-0.156-0.2-0.183-0.408-0.189-0.546l-0.039-1.557c0.026-0.499,0.295-0.88,0.738-1.056
						c2.863-0.983,5.447-0.98,8.294-0.004l0.009,0.004c0.432,0.17,0.69,0.52,0.732,0.986l0.004,0.009l0.001,0.091l-0.038,1.523
						c-0.005,0.14-0.03,0.346-0.189,0.552C29.565,4.142,29.298,4.235,29.106,4.235z"/>
				</g>
			</g>
		</g>
	</g>
</g>
</svg>
