<?xml version="1.0" encoding="utf-8"?>
<!-- Generator: Adobe Illustrator 17.0.0, SVG Export Plug-In . SVG Version: 6.00 Build 0)  -->
<!DOCTYPE svg PUBLIC "-//W3C//DTD SVG 1.1//EN" "http://www.w3.org/Graphics/SVG/1.1/DTD/svg11.dtd">
<svg version="1.1" id="Layer_1" xmlns="http://www.w3.org/2000/svg" xmlns:xlink="http://www.w3.org/1999/xlink" x="0px" y="0px"
	 width="50px" height="50px" viewBox="0 0 50 50" enable-background="new 0 0 50 50" xml:space="preserve">
<g>
	<g>
		<path d="M27.588,49.828c-2.452,0-4.757-0.955-6.49-2.688c-1.734-1.733-2.688-4.038-2.688-6.49V28.358
			c0-0.405,0.328-0.733,0.733-0.733s0.733,0.328,0.733,0.733V40.65c0,2.06,0.802,3.997,2.259,5.454
			c1.457,1.457,3.394,2.259,5.454,2.259s3.997-0.802,5.454-2.259c1.457-1.457,2.259-3.394,2.259-5.454V23.032
			c0-0.405,0.328-0.733,0.733-0.733c0.405,0,0.733,0.328,0.733,0.733V40.65c0,2.452-0.955,4.757-2.688,6.49
			C32.345,48.874,30.04,49.828,27.588,49.828z"/>
	</g>
	<g>
		<path d="M36.034,23.022c-2.207,0-4.002-1.795-4.002-4.002c0-2.207,1.795-4.002,4.002-4.002c2.207,0,4.002,1.795,4.002,4.002
			C40.036,21.227,38.241,23.022,36.034,23.022z M36.034,16.483c-1.399,0-2.537,1.138-2.537,2.537c0,1.399,1.138,2.537,2.537,2.537
			c1.399,0,2.537-1.138,2.537-2.537C38.571,17.621,37.433,16.483,36.034,16.483z"/>
	</g>
	<g>
		<path d="M36.034,20.796c-0.98,0-1.777-0.797-1.777-1.777c0-0.98,0.797-1.777,1.777-1.777c0.98,0,1.777,0.797,1.777,1.777
			C37.811,19.999,37.014,20.796,36.034,20.796z M36.034,18.708c-0.172,0-0.311,0.14-0.311,0.311c0,0.172,0.14,0.311,0.311,0.311
			c0.172,0,0.311-0.14,0.311-0.311C36.345,18.848,36.206,18.708,36.034,18.708z"/>
	</g>
	<g>
		<g>
			<path d="M19.142,25.514c-2.432,0-4.723-0.821-6.451-2.312c-1.759-1.518-2.728-3.545-2.728-5.707c0-0.405,0.328-0.733,0.733-0.733
				c0.405,0,0.733,0.328,0.733,0.733c0,1.73,0.788,3.363,2.22,4.598c1.462,1.262,3.413,1.956,5.494,1.956s4.031-0.695,5.493-1.956
				c1.431-1.235,2.22-2.868,2.22-4.598c0-0.405,0.328-0.733,0.733-0.733c0.405,0,0.733,0.328,0.733,0.733
				c0,2.163-0.969,4.19-2.728,5.707C23.865,24.693,21.574,25.514,19.142,25.514z"/>
		</g>
		<g>
			<path d="M19.142,29.09c-2.452,0-4.757-0.955-6.49-2.688c-1.734-1.734-2.688-4.038-2.688-6.49V2.541
				c0-0.405,0.328-0.733,0.733-0.733h2.837c0.405,0,0.733,0.328,0.733,0.733s-0.328,0.733-0.733,0.733h-2.104v16.638
				c0,2.06,0.802,3.997,2.259,5.454c1.457,1.457,3.394,2.259,5.454,2.259s3.997-0.802,5.454-2.259
				c1.457-1.457,2.259-3.394,2.259-5.454V3.273h-2.061c-0.405,0-0.733-0.328-0.733-0.733s0.328-0.733,0.733-0.733h2.794
				c0.405,0,0.733,0.328,0.733,0.733v17.371c0,2.452-0.955,4.757-2.688,6.49C23.899,28.136,21.594,29.09,19.142,29.09z"/>
		</g>
		<g>
			<path d="M24.724,4.91c-0.405,0-0.733-0.328-0.733-0.733V0.904c0-0.405,0.328-0.733,0.733-0.733c0.405,0,0.733,0.328,0.733,0.733
				v3.273C25.456,4.582,25.128,4.91,24.724,4.91z"/>
		</g>
		<g>
			<path d="M13.744,4.91c-0.405,0-0.733-0.328-0.733-0.733V0.904c0-0.405,0.328-0.733,0.733-0.733c0.405,0,0.733,0.328,0.733,0.733
				v3.273C14.477,4.582,14.149,4.91,13.744,4.91z"/>
		</g>
	</g>
</g>
</svg>
