<?xml version="1.0" encoding="utf-8"?>
<!-- Generator: Adobe Illustrator 17.0.0, SVG Export Plug-In . SVG Version: 6.00 Build 0)  -->
<!DOCTYPE svg PUBLIC "-//W3C//DTD SVG 1.1//EN" "http://www.w3.org/Graphics/SVG/1.1/DTD/svg11.dtd">
<svg version="1.1" id="Layer_1" xmlns="http://www.w3.org/2000/svg" xmlns:xlink="http://www.w3.org/1999/xlink" x="0px" y="0px"
	 width="50px" height="50px" viewBox="0 0 50 50" enable-background="new 0 0 50 50" xml:space="preserve">
<g>
	<g>
		<path d="M39.393,49.821H10.608c-0.306,0-0.555-0.248-0.555-0.555V31.131c0-0.306,0.248-0.555,0.555-0.555h28.785
			c0.306,0,0.555,0.248,0.555,0.555v18.136C39.947,49.573,39.699,49.821,39.393,49.821z M11.162,48.712h27.676V31.685H11.162V48.712
			z"/>
	</g>
	<g>
		<path d="M42.339,31.685H7.661c-0.306,0-0.555-0.248-0.555-0.555v-2.157c0-0.306,0.248-0.555,0.555-0.555h34.679
			c0.306,0,0.555,0.248,0.555,0.555v2.157C42.894,31.437,42.646,31.685,42.339,31.685z M8.215,30.576h33.57v-1.048H8.215V30.576z"/>
	</g>
	<g>
		<path d="M39.393,29.528H10.608c-0.306,0-0.555-0.248-0.555-0.555V10.838c0-0.306,0.248-0.555,0.555-0.555h28.785
			c0.306,0,0.555,0.248,0.555,0.555v18.136C39.947,29.28,39.699,29.528,39.393,29.528z M11.162,28.419h27.676V11.392H11.162V28.419z
			"/>
	</g>
	<g>
		<path d="M42.339,11.392H7.661c-0.306,0-0.555-0.248-0.555-0.555V8.681c0-0.306,0.248-0.555,0.555-0.555h34.679
			c0.306,0,0.555,0.248,0.555,0.555v2.157C42.894,11.144,42.646,11.392,42.339,11.392z M8.215,10.283h33.57V9.236H8.215V10.283z"/>
	</g>
	<g>
		<path d="M23.855,3.445H13.072c-0.306,0-0.555-0.248-0.555-0.555V0.733c0-0.306,0.248-0.555,0.555-0.555h10.782
			c0.306,0,0.555,0.248,0.555,0.555V2.89C24.409,3.196,24.161,3.445,23.855,3.445z M13.627,2.336H23.3V1.288h-9.673V2.336z"/>
	</g>
	<g>
		<g>
			<path d="M21.904,25.883c-0.306,0-0.555-0.248-0.555-0.555V14.741h-6.542v10.587c0,0.306-0.248,0.555-0.555,0.555
				c-0.306,0-0.555-0.248-0.555-0.555V14.186c0-0.306,0.248-0.555,0.555-0.555h7.651c0.306,0,0.555,0.248,0.555,0.555v11.142
				C22.458,25.634,22.21,25.883,21.904,25.883z"/>
		</g>
		<g>
			<path d="M23.598,25.883H12.559c-0.306,0-0.555-0.248-0.555-0.555c0-0.306,0.248-0.555,0.555-0.555h11.039
				c0.306,0,0.555,0.248,0.555,0.555C24.153,25.634,23.904,25.883,23.598,25.883z"/>
		</g>
		<g>
			<path d="M21.904,20.312h-7.651c-0.306,0-0.555-0.248-0.555-0.555c0-0.306,0.248-0.555,0.555-0.555h7.651
				c0.306,0,0.555,0.248,0.555,0.555C22.458,20.063,22.21,20.312,21.904,20.312z"/>
		</g>
	</g>
	<g>
		<g>
			<path d="M35.747,25.883c-0.306,0-0.555-0.248-0.555-0.555V14.741h-6.542v10.587c0,0.306-0.248,0.555-0.555,0.555
				c-0.306,0-0.555-0.248-0.555-0.555V14.186c0-0.306,0.248-0.555,0.555-0.555h7.651c0.306,0,0.555,0.248,0.555,0.555v11.142
				C36.302,25.634,36.053,25.883,35.747,25.883z"/>
		</g>
		<g>
			<path d="M37.441,25.883H26.402c-0.306,0-0.555-0.248-0.555-0.555c0-0.306,0.248-0.555,0.555-0.555h11.039
				c0.306,0,0.555,0.248,0.555,0.555C37.996,25.634,37.747,25.883,37.441,25.883z"/>
		</g>
		<g>
			<path d="M35.747,20.312h-7.651c-0.306,0-0.555-0.248-0.555-0.555c0-0.306,0.248-0.555,0.555-0.555h7.651
				c0.306,0,0.555,0.248,0.555,0.555C36.302,20.063,36.053,20.312,35.747,20.312z"/>
		</g>
	</g>
	<g>
		<g>
			<path d="M21.904,45.959c-0.306,0-0.555-0.248-0.555-0.555V34.817h-6.542v10.587c0,0.306-0.248,0.555-0.555,0.555
				c-0.306,0-0.555-0.248-0.555-0.555V34.263c0-0.306,0.248-0.555,0.555-0.555h7.651c0.306,0,0.555,0.248,0.555,0.555v11.142
				C22.458,45.711,22.21,45.959,21.904,45.959z"/>
		</g>
		<g>
			<path d="M23.598,45.959H12.559c-0.306,0-0.555-0.248-0.555-0.555c0-0.306,0.248-0.555,0.555-0.555h11.039
				c0.306,0,0.555,0.248,0.555,0.555C24.153,45.711,23.904,45.959,23.598,45.959z"/>
		</g>
		<g>
			<path d="M21.904,40.388h-7.651c-0.306,0-0.555-0.248-0.555-0.555c0-0.306,0.248-0.555,0.555-0.555h7.651
				c0.306,0,0.555,0.248,0.555,0.555C22.458,40.14,22.21,40.388,21.904,40.388z"/>
		</g>
	</g>
	<g>
		<g>
			<path d="M35.747,45.959c-0.306,0-0.555-0.248-0.555-0.555V34.817h-6.542v10.587c0,0.306-0.248,0.555-0.555,0.555
				c-0.306,0-0.555-0.248-0.555-0.555V34.263c0-0.306,0.248-0.555,0.555-0.555h7.651c0.306,0,0.555,0.248,0.555,0.555v11.142
				C36.302,45.711,36.053,45.959,35.747,45.959z"/>
		</g>
		<g>
			<path d="M37.441,45.959H26.402c-0.306,0-0.555-0.248-0.555-0.555c0-0.306,0.248-0.555,0.555-0.555h11.039
				c0.306,0,0.555,0.248,0.555,0.555C37.996,45.711,37.747,45.959,37.441,45.959z"/>
		</g>
		<g>
			<path d="M35.747,40.388h-7.651c-0.306,0-0.555-0.248-0.555-0.555c0-0.306,0.248-0.555,0.555-0.555h7.651
				c0.306,0,0.555,0.248,0.555,0.555C36.302,40.14,36.053,40.388,35.747,40.388z"/>
		</g>
	</g>
	<g>
		<path d="M21.596,9.236h-6.264c-0.306,0-0.555-0.248-0.555-0.555V2.89c0-0.306,0.248-0.555,0.555-0.555h6.264
			c0.306,0,0.555,0.248,0.555,0.555v5.791C22.15,8.987,21.902,9.236,21.596,9.236z M15.886,8.127h5.155V3.445h-5.155V8.127z"/>
	</g>
</g>
</svg>
