<svg id="Icons" xmlns="http://www.w3.org/2000/svg" viewBox="0 0 58 58"><defs><style>.cls-1{fill:#fff;}</style></defs><title>Brain Building Icons</title><path id="Laundry" class="cls-1" d="M15.13,53.4a.82.82,0,0,1-.59-.25.78.78,0,0,1-.23-.6L15,29.66l-3.09,3.09a.83.83,0,0,1-.58.24.84.84,0,0,1-.58-.24L4.3,26.33a.82.82,0,0,1,0-1.16l2.06-2.06L6.44,23l9.2-9.21a.83.83,0,0,1,.58-.24h.92l-.29-1.35C11.42,12,6.42,11.51,2,10.9a.82.82,0,0,1-.54-.32A.78.78,0,0,1,1.26,10a.83.83,0,0,1,.82-.71h.1c4.27.59,9.08,1,14.3,1.31l-.21-1a.82.82,0,0,1,.8-1H19.7a.82.82,0,0,1,.82.82v1.33c2.78.1,5.63.15,8.48.15s5.71-.05,8.48-.15V9.42a.82.82,0,0,1,.82-.82h2.63a.82.82,0,0,1,.8,1l-.21,1c5.22-.28,10-.72,14.3-1.31h.11a.82.82,0,0,1,.81.71.83.83,0,0,1-.7.93c-4.45.61-9.46,1.06-14.89,1.34l-.29,1.35h.92a.78.78,0,0,1,.58.24L53.7,25.17a.78.78,0,0,1,.24.58.8.8,0,0,1-.24.58l-6.41,6.41a.8.8,0,0,1-.58.24h0a.78.78,0,0,1-.58-.24L43,29.66l.65,22.76a.51.51,0,0,1,0,.16.83.83,0,0,1-.83.82ZM35.36,30.55l3-1a.82.82,0,0,0,.56-.78V24.08a.82.82,0,0,0-.82-.82h-6a.81.81,0,0,0-.82.82v4.68a.82.82,0,0,0,.55.78l3,1a.75.75,0,0,0,.26.05A.86.86,0,0,0,35.36,30.55Zm-2.67-5.9H37.5v3.7l-2.41.82-2.4-.82ZM38.87,10v3.85h.51L40.22,10Zm-18.6,3.85H37.73v-1.7c-2.86.1-5.79.15-8.73.15s-5.86,0-8.73-.15Zm2,1.14c.69,1.07,3.26,2.08,6.71,2.08s6-1,6.71-2.08Zm-4.51-5,.84,3.85h.51V10ZM12.53,30.12,7,24.49,5.69,25.75l5.6,5.61ZM42.16,51.89l0-1.39H15.88l0,1.39Zm8.89-27.41-5.58,5.64,1.24,1.23,5.6-5.6ZM37,15c-.55,1.87-3.78,3.22-8,3.22S21.6,16.85,21.05,15h-4.6l-8.69,8.7,5.58,5.63,2.1-2.1a.58.58,0,0,1,.63-.12.57.57,0,0,1,.34.54L15.8,49.24H42.2l-.61-21.61a.57.57,0,0,1,.34-.54.58.58,0,0,1,.63.12l2.1,2.1,5.58-5.63L41.54,15Z"/></svg>