<?xml version="1.0" encoding="UTF-8" standalone="no"?>
<svg width="51px" height="51px" viewBox="0 0 51 51" version="1.1" xmlns="http://www.w3.org/2000/svg" xmlns:xlink="http://www.w3.org/1999/xlink">
    <!-- Generator: Sketch 39.1 (31720) - http://www.bohemiancoding.com/sketch -->
    <title>light bulb</title>
    <desc>Created with Sketch.</desc>
    <defs>
        <path d="M20.1775708,36.447399 C21.4934737,36.8981476 18.6397059,40.7142857 24.375,40.7142857 C30.1102941,40.7142857 27.3978411,36.8730192 28.7694362,36.3781208 C33.7328557,34.5872213 37.2794118,29.849122 37.2794118,24.2857143 C37.2794118,17.1849104 31.5019098,11.4285714 24.375,11.4285714 C17.2480902,11.4285714 11.4705882,17.1849104 11.4705882,24.2857143 C11.4705882,29.9224551 15.1112572,34.7119868 20.1775708,36.447399 Z" id="path-1"></path>
        <mask id="mask-2" maskContentUnits="userSpaceOnUse" maskUnits="objectBoundingBox" x="0" y="0" width="25.8088235" height="29.2857143" fill="white">
            <use xlink:href="#path-1"></use>
        </mask>
    </defs>
    <g id="S1-Age-Landing-(READY)" stroke="none" stroke-width="1" fill="none" fill-rule="evenodd">
        <g id="03-Age-landing-desktop---S3-R2---1-default" transform="translate(-914.000000, -2137.000000)" stroke="#FFFFFF">
            <g id="Tip" transform="translate(520.000000, 2118.000000)">
                <g id="light-bulb" transform="translate(395.000000, 19.000000)">
                    <use id="Oval-55" mask="url(#mask-2)" stroke-width="4" xlink:href="#path-1"></use>
                    <rect id="Rectangle-256" fill="#FFFFFF" x="20.0735294" y="42.8571429" width="8.60294118" height="1.42857143" rx="0.714285714"></rect>
                    <rect id="Rectangle-256" fill="#FFFFFF" x="20.0735294" y="45.7142857" width="8.60294118" height="1.42857143" rx="0.714285714"></rect>
                    <rect id="Rectangle-256" fill="#FFFFFF" x="21.5073529" y="48.5714286" width="5.73529412" height="1.42857143" rx="0.714285714"></rect>
                    <rect id="Rectangle-256" fill="#FFFFFF" x="40.1470588" y="24.2857143" width="8.60294118" height="1.42857143" rx="0.714285714"></rect>
                    <rect id="Rectangle-256" fill="#FFFFFF" x="0" y="24.2857143" width="8.60294118" height="1.42857143" rx="0.714285714"></rect>
                    <rect id="Rectangle-256" fill="#FFFFFF" transform="translate(24.375000, 5.000000) rotate(-90.000000) translate(-24.375000, -5.000000) " x="20.0735294" y="4.28571429" width="8.60294118" height="1.42857143" rx="0.714285714"></rect>
                    <rect id="Rectangle-256" fill="#FFFFFF" transform="translate(38.713235, 10.627706) rotate(-45.000000) translate(-38.713235, -10.627706) " x="34.4117647" y="9.91341991" width="8.60294118" height="1.42857143" rx="0.714285714"></rect>
                    <rect id="Rectangle-256" fill="#FFFFFF" transform="translate(10.036765, 10.627706) scale(-1, 1) rotate(-45.000000) translate(-10.036765, -10.627706) " x="5.73529412" y="9.91341991" width="8.60294118" height="1.42857143" rx="0.714285714"></rect>
                </g>
            </g>
        </g>
    </g>
</svg>