<svg id="Icons" xmlns="http://www.w3.org/2000/svg" viewBox="0 0 58 58"><defs><style>.cls-1{fill:#fff;}</style></defs><title>Brain Building Icons</title><path id="Mealtime" class="cls-1" d="M28.24,52A28.27,28.27,0,0,1,.07,24.52a2.4,2.4,0,0,1-.07-.6c0-5.44,14.36-8.68,28.24-8.68a85.33,85.33,0,0,1,15.09,1.3,45.79,45.79,0,0,1,11.05-6.35A2.59,2.59,0,0,1,55.3,10a2.7,2.7,0,0,1,1.14,5.14c-1.6.75-3.95,1.88-6.19,3.21,4.08,1.51,6.23,3.43,6.23,5.55a2.67,2.67,0,0,1-.08.65A28.25,28.25,0,0,1,28.24,52ZM54.51,27.25a17.08,17.08,0,0,1-4.8,2.41L48.59,30A73.19,73.19,0,0,1,28.24,32.6,73.19,73.19,0,0,1,7.89,30l-1.12-.36A17.08,17.08,0,0,1,2,27.25a26.5,26.5,0,0,0,52.54,0Zm-38-3.57a64.88,64.88,0,0,1,11.71-1c.76,0,1.52,0,2.28,0a10.71,10.71,0,0,1,4.65-2.56,11.65,11.65,0,0,1,3.22-.46h.2a2.24,2.24,0,0,0,1.12-.38l1.82-1.39a85.51,85.51,0,0,0-13.29-1c-15.42,0-26.16,3.52-26.53,6.88,0,0,0,.06,0,.1a1.61,1.61,0,0,0,.06.39C2.09,25.58,4,26.88,7,28,8.44,25.66,13,24.36,16.53,23.68Zm31.62,5c-.72-1.1-2.87-2.19-6.09-3a10.39,10.39,0,0,1-4.67,2.65,12.19,12.19,0,0,1-3.2.46,6.71,6.71,0,0,1-3.3-.74,2.73,2.73,0,0,1-1.16-3.88l-1.49,0c-10.66,0-18.42,2.27-19.9,4.56a70.53,70.53,0,0,0,19.9,2.45A70.66,70.66,0,0,0,48.15,28.68ZM55,23.73c-.17-1.58-2.54-3.21-6.59-4.49a22.88,22.88,0,0,0-5.26,4.58l0,.1a3.79,3.79,0,0,1-.29.66c3.27.9,5.69,2.14,6.5,3.71,3.28-1.16,5.26-2.55,5.62-3.92a1.76,1.76,0,0,0,.07-.45h0A1.23,1.23,0,0,0,55,23.73Zm-6.83-5.79a65.17,65.17,0,0,1,7.65-4.11,1.2,1.2,0,0,0,.71-1,1.24,1.24,0,0,0-1.61-1.26A43.14,43.14,0,0,0,45,17.13l-.63.46-.63.47-1.82,1.39-1.33,1a3.61,3.61,0,0,1-2.05.67h-.18a10.26,10.26,0,0,0-2.8.41A10.39,10.39,0,0,0,32.38,23a6,6,0,0,0-1,.9l-.22.26A2.12,2.12,0,0,0,30.61,26a1.7,1.7,0,0,0,.88,1,7.93,7.93,0,0,0,5.56.16,9.74,9.74,0,0,0,3.58-1.81,5.35,5.35,0,0,0,1-1c.08-.12.15-.24.21-.35a2.48,2.48,0,0,0,.19-.51.64.64,0,0,1,.12-.25,23.1,23.1,0,0,1,4.78-4.37l.63-.43C47.74,18.22,48,18.07,48.17,17.94Z"/><path class="cls-1" d="M41.17,23.42a1.63,1.63,0,0,1-.09.19l-.06.13a3.38,3.38,0,0,1-1,1.1,6.87,6.87,0,0,1-3,1.21H37a.57.57,0,0,1-.1-1.14,6.85,6.85,0,0,0,1.36-.38,4.14,4.14,0,0,0,1.47-.93.81.81,0,0,0,.09-.1,1.73,1.73,0,0,0,.29-.46.57.57,0,1,1,1.08.37Z"/></svg>