<?xml version="1.0" encoding="utf-8"?>
<!-- Generator: Adobe Illustrator 17.0.2, SVG Export Plug-In . SVG Version: 6.00 Build 0)  -->
<!DOCTYPE svg PUBLIC "-//W3C//DTD SVG 1.1//EN" "http://www.w3.org/Graphics/SVG/1.1/DTD/svg11.dtd">
<svg version="1.1" id="Layer_1" xmlns="http://www.w3.org/2000/svg" xmlns:xlink="http://www.w3.org/1999/xlink" x="0px" y="0px"
	 width="392.626px" height="130.909px" viewBox="441.01 310 392.626 130.909" enable-background="new 441.01 310 392.626 130.909"
	 xml:space="preserve">
<polygon fill="#FFFFFF" points="809.091,310 727.273,310 702.727,334.545 702.727,416.364 727.273,440.909 809.091,440.909 
	833.636,416.364 833.636,391.818 825.455,383.636 784.545,383.636 784.545,391.818 751.818,391.818 751.818,359.091 
	784.545,359.091 784.545,367.172 825.455,367.172 833.636,359.091 833.636,334.545 "/>
<polygon fill="#FFFFFF" points="563.737,310 531.01,310 522.828,318.182 522.828,350.909 481.919,310 449.192,310 441.01,318.182 
	441.01,432.727 449.192,440.909 481.919,440.909 490.101,432.727 490.101,400 531.01,440.909 531.01,440.909 563.737,440.909 
	571.919,432.727 571.919,318.182 "/>
<polygon fill="#FFFFFF" points="621.01,440.909 653.636,440.909 661.818,432.727 661.818,408.182 702.727,367.273 702.727,318.182 
	694.545,310 661.818,310 653.636,318.182 653.636,334.545 637.273,350.909 621.01,334.545 621.01,334.545 621.01,318.182 
	612.828,310 580.101,310 571.919,318.182 571.919,367.273 612.828,408.182 612.828,432.727 "/>
</svg>
