<svg id="Icons" xmlns="http://www.w3.org/2000/svg" viewBox="0 0 58 58"><defs><style>.cls-1{fill:#fff;}</style></defs><title>Brain Building Icons</title><path id="Playtime" class="cls-1" d="M10.51,54a6.51,6.51,0,0,1,0-13,6.64,6.64,0,0,1,2.19.38L26.33,27.75a15.18,15.18,0,1,1,4.08,4L16.7,45.47a6.66,6.66,0,0,1,.32,2A6.52,6.52,0,0,1,10.51,54ZM25.89,14.36l3.49,3.51a.19.19,0,0,0,0-.08l2.42-10.5A13.86,13.86,0,0,0,25.89,14.36Zm13.4,13.48a.57.57,0,0,1,0-.13L42,15.8l-11.9,2.74h-.09Zm12.42-3.7-8.37-8.43L40.74,27l10.81-2.49C51.61,24.4,51.66,24.27,51.71,24.14ZM33.26,6.54,30.83,17.1l11.3-2.6L33.94,6.26Zm5.57-1.18a14,14,0,0,0-3.56.47l16.88,17a14.08,14.08,0,0,0,.49-3.64A13.83,13.83,0,0,0,38.83,5.36ZM50.84,26,40.05,28.45l-.14,0,3.65,3.67A13.89,13.89,0,0,0,50.84,26Zm-8.62,6.58L25.47,15.7A13.78,13.78,0,0,0,38.83,33,13.07,13.07,0,0,0,42.22,32.55ZM29.39,30.88a15.24,15.24,0,0,1-2.14-2.11L13.9,42.08A6.38,6.38,0,0,1,16,44.24ZM10.51,52.64a5.15,5.15,0,1,0-5.15-5.15A5.16,5.16,0,0,0,10.51,52.64Z"/></svg>