<?xml version="1.0" encoding="utf-8"?>
<!-- Generator: Adobe Illustrator 17.0.0, SVG Export Plug-In . SVG Version: 6.00 Build 0)  -->
<!DOCTYPE svg PUBLIC "-//W3C//DTD SVG 1.1//EN" "http://www.w3.org/Graphics/SVG/1.1/DTD/svg11.dtd">
<svg version="1.1" id="Layer_1" xmlns="http://www.w3.org/2000/svg" xmlns:xlink="http://www.w3.org/1999/xlink" x="0px" y="0px"
	 width="50px" height="50px" viewBox="0 0 50 50" enable-background="new 0 0 50 50" xml:space="preserve">
<path d="M48.659,17.276C45.335,6.987,35.849,0,25.04,0h-0.142C14.069,0,4.55,6.97,1.211,17.272L1.037,17.92l0.007,0.006
	c-3.019,10.122,0.647,20.996,9.249,27.232c4.28,3.109,9.345,4.752,14.647,4.752c5.077,0,9.935-1.506,14.093-4.365l0.018,0.024
	l0.544-0.403C48.373,38.805,52.016,27.591,48.659,17.276z M5.74,19.516l9.989,3.358l3.086,9.472l-6.135,8.332l-7.823-3.415
	c-1.941-3.157-3.106-6.728-3.399-10.425L5.74,19.516z M12.241,5.091c0.337-0.215,0.68-0.42,1.028-0.618
	c0.092-0.052,0.185-0.103,0.278-0.154c0.748-0.413,1.518-0.79,2.311-1.12l8.365,1.827l0.006,10.446l-8.267,5.985l-9.765-3.282
	l0.838-8.552c1.474-1.726,3.187-3.22,5.078-4.447C12.156,5.148,12.198,5.119,12.241,5.091z M20.043,34h9.79l6.225,7.988
	l-5.607,6.085c-1.788,0.426-3.632,0.537-5.512,0.537c-1.872,0-3.711-0.283-5.491-0.707l-5.629-5.887L20.043,34z M34.002,3.189
	c0.351,0.146,0.695,0.305,1.038,0.468c0.097,0.046,0.195,0.089,0.291,0.136c0.35,0.172,0.694,0.353,1.034,0.541
	c0.088,0.048,0.174,0.099,0.261,0.148c1.533,0.875,2.965,1.917,4.264,3.113c0.015,0.014,0.03,0.028,0.045,0.042
	c0.665,0.615,1.295,1.268,1.888,1.96l0.853,8.578l-9.759,3.28l-8.273-6.01L25.637,5.028L34.002,3.189z M31.062,32.346l3.088-9.473
	l9.987-3.357l4.294,7.318c-0.288,3.683-1.44,7.243-3.366,10.393l-7.869,3.451L31.062,32.346z"/>
</svg>
