<?xml version="1.0" encoding="utf-8"?>
<!-- Generator: Adobe Illustrator 17.0.2, SVG Export Plug-In . SVG Version: 6.00 Build 0)  -->
<!DOCTYPE svg PUBLIC "-//W3C//DTD SVG 1.1//EN" "http://www.w3.org/Graphics/SVG/1.1/DTD/svg11.dtd">
<svg version="1.1" id="Layer_1" xmlns="http://www.w3.org/2000/svg" xmlns:xlink="http://www.w3.org/1999/xlink" x="0px" y="0px"
	 width="50px" height="50px" viewBox="59.5 149.5 50 50" enable-background="new 59.5 149.5 50 50" xml:space="preserve">
<path d="M101.607,177.685c-1.458,0-2.818,0.418-3.978,1.13c-1.523-1.849-3.304-3.759-5.154-5.224
	c0.746-0.229,1.561-0.703,2.292-1.63c0.916-1.163,1.206-2.095,1.276-2.742h2.007c1.463,0,2.653-1.189,2.653-2.652
	c0-1.511-0.818-3.274-3.125-3.274c-1.578,0-2.006,0.469-2.402,1.081c-0.278,0.431-0.743,1.151-5.473,1.151
	c-1.479,0-1.864,0.916-1.961,1.31c-0.138,0.547-0.024,1.09,0.317,1.527c0.412,0.529,1.127,0.857,1.865,0.857h4.642
	c-0.075,0.399-0.299,1.017-0.947,1.838c-1.245,1.58-2.833,1.255-3.098,1.187c-0.556-0.323-1.111-0.595-1.662-0.796
	c-2.049-0.746-4.097-1.267-6.078-1.771c-1.994-0.508-3.877-0.987-5.266-1.597c-1.479-0.649-2.991-1.737-2.991-4.884
	c0-5.685,10.411-5.955,10.518-5.957c0.402-0.009,0.723-0.344,0.714-0.747c-0.009-0.394-0.337-0.714-0.748-0.714
	c-0.302,0.008-3.026,0.099-5.812,0.957c-4.011,1.237-6.131,3.471-6.131,6.461c0,1.628,0.358,2.828,0.891,3.736l-0.529,2.528
	c-0.563-0.082-1.135-0.138-1.72-0.138c-6.592,0-11.955,5.361-11.955,11.951s5.363,11.951,11.955,11.951
	c6.588,0,11.948-5.361,11.948-11.951c0-5.497-3.735-10.127-8.796-11.515l0.295-1.41c0.583,0.488,1.21,0.822,1.776,1.07
	c1.495,0.658,3.438,1.152,5.502,1.677c1.949,0.497,3.964,1.011,5.929,1.727c2.733,0.995,5.712,4,8.091,6.885
	c-1.522,1.398-2.483,3.397-2.483,5.622c0,4.214,3.428,7.642,7.641,7.642c4.214,0,7.643-3.428,7.643-7.642
	S105.821,177.685,101.607,177.685z M89.211,167.463c-0.064-0.083-0.081-0.166-0.054-0.276c0.019-0.07,0.052-0.202,0.545-0.202
	c5.108,0,6.056-0.824,6.699-1.819c0.189-0.292,0.269-0.413,1.176-0.413c1.12,0,1.664,0.593,1.664,1.813
	c0,0.657-0.535,1.191-1.192,1.191h-8.125C89.64,167.757,89.347,167.636,89.211,167.463z M71.553,181.987
	c0.049,0.01,0.098,0.015,0.149,0.015c0.343,0,0.644-0.244,0.715-0.581l2.141-10.235c4.399,1.247,7.634,5.291,7.634,10.085
	c0,5.784-4.704,10.49-10.487,10.49c-5.786,0-10.494-4.706-10.494-10.49s4.708-10.49,10.494-10.49c0.483,0,0.955,0.044,1.421,0.108
	l-2.14,10.232C70.904,181.516,71.157,181.903,71.553,181.987z M97.365,180.844c0.182,0.232,0.358,0.461,0.53,0.687
	c-0.987,0.965-1.605,2.307-1.605,3.794c0,2.934,2.386,5.32,5.317,5.32c2.934,0,5.32-2.387,5.32-5.32c0-2.931-2.387-5.314-5.32-5.314
	c-0.913,0-1.76,0.253-2.512,0.66c-0.176-0.232-0.359-0.468-0.546-0.707c0.903-0.517,1.945-0.817,3.058-0.817
	c3.408,0,6.182,2.772,6.182,6.181s-2.773,6.181-6.182,6.181c-3.407,0-6.18-2.772-6.18-6.181
	C95.428,183.561,96.175,181.971,97.365,180.844z M100.986,185.953c0.134,0.218,0.366,0.348,0.622,0.348
	c0.137,0,0.271-0.038,0.384-0.108c0.341-0.212,0.448-0.662,0.238-1.005c-0.097-0.158-0.944-1.519-2.261-3.338
	c0.499-0.236,1.05-0.378,1.638-0.378c2.128,0,3.859,1.729,3.859,3.854c0,2.128-1.731,3.859-3.859,3.859
	c-2.126,0-3.856-1.731-3.856-3.859c0-1.006,0.397-1.915,1.03-2.602C100.115,184.559,100.962,185.915,100.986,185.953z"/>
<g>
	<g>
		<g>
			<path d="M71.702,188.398c-0.265,0-0.48-0.215-0.48-0.48v-4.49c0-0.265,0.215-0.48,0.48-0.48c0.265,0,0.48,0.215,0.48,0.48v4.49
				C72.182,188.182,71.967,188.398,71.702,188.398z"/>
		</g>
	</g>
	<g>
		<g>
			<path d="M75.972,186.843c-0.137,0-0.273-0.058-0.368-0.172l-2.885-3.44c-0.171-0.203-0.144-0.506,0.059-0.677
				c0.203-0.171,0.506-0.144,0.677,0.059l2.885,3.44c0.171,0.203,0.144,0.506-0.059,0.677
				C76.19,186.806,76.081,186.843,75.972,186.843z"/>
		</g>
	</g>
	<g>
		<g>
			<path d="M78.244,182.909c-0.028,0-0.056-0.002-0.084-0.007l-4.42-0.782c-0.261-0.046-0.436-0.296-0.389-0.557
				c0.047-0.261,0.295-0.434,0.557-0.389l4.42,0.781c0.261,0.046,0.436,0.296,0.389,0.557
				C78.675,182.745,78.473,182.909,78.244,182.909z"/>
		</g>
	</g>
	<g>
		<g>
			<path d="M73.567,180.677c-0.166,0-0.328-0.086-0.417-0.24c-0.133-0.23-0.053-0.524,0.176-0.656l3.889-2.243
				c0.229-0.133,0.523-0.054,0.656,0.176c0.133,0.23,0.053,0.524-0.176,0.656l-3.889,2.243
				C73.731,180.656,73.648,180.677,73.567,180.677z"/>
		</g>
	</g>
	<g>
		<g>
			<path d="M70.963,179.73c-0.196,0-0.38-0.121-0.452-0.316l-1.533-4.217c-0.091-0.249,0.038-0.525,0.287-0.616
				c0.25-0.09,0.525,0.038,0.616,0.287l1.533,4.217c0.09,0.249-0.038,0.525-0.288,0.616C71.073,179.721,71.017,179.73,70.963,179.73
				z"/>
		</g>
	</g>
	<g>
		<g>
			<path d="M69.834,180.68c-0.082,0-0.164-0.021-0.24-0.065l-3.887-2.247c-0.229-0.133-0.308-0.427-0.176-0.656
				c0.133-0.23,0.427-0.308,0.657-0.175l3.887,2.247c0.23,0.133,0.308,0.427,0.175,0.656C70.162,180.594,70,180.68,69.834,180.68z"
				/>
		</g>
	</g>
	<g>
		<g>
			<path d="M65.159,182.909c-0.229,0-0.432-0.164-0.473-0.397c-0.046-0.261,0.129-0.51,0.39-0.556l4.422-0.778
				c0.263-0.046,0.511,0.129,0.557,0.39c0.046,0.261-0.129,0.51-0.39,0.556l-4.422,0.778
				C65.215,182.906,65.186,182.909,65.159,182.909z"/>
		</g>
	</g>
	<g>
		<g>
			<path d="M67.432,186.843c-0.109,0-0.219-0.037-0.309-0.113c-0.203-0.171-0.229-0.474-0.059-0.677l2.888-3.436
				c0.17-0.203,0.474-0.229,0.677-0.059c0.203,0.171,0.229,0.474,0.059,0.677l-2.888,3.436
				C67.704,186.785,67.568,186.843,67.432,186.843z"/>
		</g>
	</g>
</g>
</svg>
