<?xml version="1.0" encoding="utf-8"?>
<!-- Generator: Adobe Illustrator 22.0.1, SVG Export Plug-In . SVG Version: 6.00 Build 0)  -->
<svg version="1.1" id="Layer_1" xmlns="http://www.w3.org/2000/svg" xmlns:xlink="http://www.w3.org/1999/xlink" x="0px" y="0px"
	 viewBox="0 0 63.2 80" style="enable-background:new 0 0 63.2 80;" xml:space="preserve">
<g>
	<path d="M11.1,49C7.2,40.3,9,30.5,15.6,23.9c6.6-6.6,16.5-8.4,25.1-4.6c0.1,0,0.2,0.1,0.2,0.1l-4.2,3.3c-1.8,1.4-2.1,3.9-0.7,5.7
		c0.8,1,2,1.6,3.2,1.6c0.9,0,1.8-0.3,2.5-0.9l10.7-8.4c1.2-1,1.8-2.5,1.5-4L51.2,3.2c-0.5-2.2-2.6-3.6-4.8-3.2
		c-2.2,0.5-3.6,2.6-3.2,4.8l1.3,6.2c0,0-0.1,0-0.1-0.1C32.3,5.7,18.5,8.2,9.2,17.5c-9.3,9.3-11.8,23.1-6.4,35.2
		c0.7,1.7,2.4,2.7,4.1,2.7c0.6,0,1.2-0.1,1.8-0.4C11.1,53.9,12.1,51.3,11.1,49z"/>
	<path d="M60.4,27c-1-2.3-3.7-3.3-6-2.3c-2.3,1-3.3,3.7-2.3,6c3.8,8.7,2.1,18.5-4.6,25.1c-6.5,6.5-16.1,8.3-24.6,4.8l4.2-3.3
		c1.8-1.4,2.1-3.9,0.7-5.7c-1.4-1.8-3.9-2.1-5.7-0.7l-10.7,8.4c-1.2,1-1.8,2.5-1.5,4l2.8,13.4c0.4,1.9,2.1,3.2,4,3.2
		c0.3,0,0.6,0,0.8-0.1c2.2-0.5,3.6-2.6,3.2-4.8l-1.3-6.2c4,1.7,8.2,2.5,12.4,2.5c8.2,0,16.1-3.2,22.2-9.2
		C63.3,52.9,65.8,39.1,60.4,27z"/>
</g>
</svg>
