<svg height='100px' width='100px'  fill="#000000" xmlns="http://www.w3.org/2000/svg" viewBox="0 0 64 64" x="0px" y="0px"><title>message-sms-text</title><g data-name="Outline Icon"><path d="M49,18H29a5.006,5.006,0,0,0-5,5V35a5.006,5.006,0,0,0,5,5h3.32l2.832,4.53a1,1,0,0,0,1.7,0L39.68,40H49a5.006,5.006,0,0,0,5-5V23A5.006,5.006,0,0,0,49,18Zm3,17a3,3,0,0,1-3,3H39.125a1,1,0,0,0-.848.47L36,42.113,33.723,38.47a1,1,0,0,0-.848-.47H29a3,3,0,0,1-3-3V23a3,3,0,0,1,3-3H49a3,3,0,0,1,3,3Z"></path><path d="M47,25H31a1,1,0,0,0,0,2H47a1,1,0,0,0,0-2Z"></path><path d="M47,30H31a1,1,0,0,0,0,2H47a1,1,0,0,0,0-2Z"></path><path d="M43,43a1,1,0,0,0-1,1v5H12V13H42v2a1,1,0,0,0,2,0V8a6.006,6.006,0,0,0-6-6H16a6.006,6.006,0,0,0-6,6V56a6.006,6.006,0,0,0,6,6H38a6.006,6.006,0,0,0,6-6V44A1,1,0,0,0,43,43ZM16,4H38a4,4,0,0,1,4,4v3H12V8A4,4,0,0,1,16,4ZM38,60H16a4,4,0,0,1-4-4V51H42v5A4,4,0,0,1,38,60Z"></path><path d="M23.5,8.5h7a1,1,0,0,0,0-2h-7a1,1,0,0,0,0,2Z"></path><path d="M27,52a3.5,3.5,0,1,0,3.5,3.5A3.5,3.5,0,0,0,27,52Zm0,5a1.5,1.5,0,1,1,1.5-1.5A1.5,1.5,0,0,1,27,57Z"></path></g></svg>