<?xml version="1.0" encoding="utf-8"?>
<!-- Generator: Adobe Illustrator 17.0.2, SVG Export Plug-In . SVG Version: 6.00 Build 0)  -->
<!DOCTYPE svg PUBLIC "-//W3C//DTD SVG 1.1//EN" "http://www.w3.org/Graphics/SVG/1.1/DTD/svg11.dtd">
<svg version="1.1" id="Layer_1" xmlns="http://www.w3.org/2000/svg" xmlns:xlink="http://www.w3.org/1999/xlink" x="0px" y="0px"
	 width="50px" height="50px" viewBox="199.5 -150.5 50 50" enable-background="new 199.5 -150.5 50 50" xml:space="preserve">
<g>
	<path d="M249.201-138.746c0.418-0.714,0.397-1.586-0.057-2.277c-0.449-0.683-1.235-1.059-2.066-0.956l-8.068,0.994
		c-0.947,0.117-1.883-0.244-2.506-0.947l-5.393-6.082c-0.538-0.608-1.398-0.865-2.183-0.651c-0.797,0.218-1.39,0.858-1.549,1.67
		l-1.548,7.981c-0.181,0.93-0.807,1.711-1.676,2.09l-7.452,3.249c-0.758,0.33-1.253,1.049-1.292,1.875
		c-0.04,0.826,0.386,1.588,1.109,1.989l7.112,3.939c0.829,0.459,1.378,1.296,1.47,2.239l0.787,8.092
		c0.081,0.823,0.611,1.516,1.384,1.808c0.246,0.093,0.501,0.14,0.761,0.14c0.192,0,0.384-0.026,0.57-0.077
		c0.336-0.092,0.649-0.266,0.904-0.503l5.942-5.547c0.341-0.317,0.757-0.55,1.206-0.672c0.447-0.122,0.928-0.134,1.379-0.034
		l7.938,1.751c0.338,0.075,0.699,0.066,1.033-0.026c0.442-0.12,0.828-0.374,1.115-0.732c0.517-0.645,0.622-1.511,0.272-2.261
		l-3.438-7.366c-0.401-0.858-0.354-1.859,0.126-2.675L249.201-138.746z M246.651-120.005l-0.272-0.506l-7.939-1.751
		c-0.747-0.165-1.542-0.145-2.278,0.056c-0.74,0.202-1.429,0.586-1.992,1.111l-5.941,5.545c-0.034,0.031-0.074,0.054-0.192,0.076
		c-0.033,0-0.066-0.006-0.097-0.018c-0.101-0.038-0.168-0.125-0.179-0.233l-0.787-8.091c-0.151-1.558-1.06-2.942-2.429-3.701
		l-7.112-3.939c-0.095-0.052-0.148-0.148-0.143-0.256c0.006-0.108,0.068-0.199,0.167-0.242l7.452-3.249
		c1.436-0.625,2.47-1.917,2.768-3.454l1.549-7.981c0.021-0.106,0.096-0.186,0.199-0.215c0.026-0.007,0.051-0.01,0.077-0.01
		c0.078,0,0.152,0.033,0.205,0.094l5.393,6.083c1.031,1.162,2.582,1.76,4.141,1.565l8.104-0.996c0.095,0,0.179,0.046,0.231,0.126
		c0.059,0.091,0.063,0.2,0.007,0.294l-4.119,7.008c-0.793,1.35-0.872,3.003-0.209,4.422l3.438,7.366
		c0.045,0.099,0.032,0.208-0.035,0.292c-0.038,0.047-0.087,0.079-0.145,0.095L246.651-120.005L246.651-120.005z"/>
	<path d="M245.49-110.707c0.187-0.318,0.178-0.707-0.025-1.015c-0.179-0.272-0.479-0.434-0.803-0.434l-2.79,0.336
		c-0.229,0.027-0.461-0.059-0.613-0.232l-1.784-2.014c-0.241-0.27-0.627-0.382-0.973-0.289c-0.355,0.097-0.62,0.382-0.691,0.744
		l-0.512,2.641c-0.044,0.228-0.198,0.42-0.411,0.512l-2.465,1.076c-0.34,0.148-0.561,0.468-0.576,0.836
		c-0.018,0.368,0.172,0.708,0.494,0.887l2.354,1.304c0.203,0.113,0.337,0.317,0.36,0.548l0.261,2.679
		c0.036,0.367,0.273,0.676,0.617,0.805c0.11,0.041,0.224,0.062,0.34,0.062c0.087,0,0.172-0.012,0.252-0.034
		c0.15-0.04,0.289-0.118,0.403-0.225l1.967-1.836c0.084-0.078,0.187-0.135,0.296-0.165c0.11-0.029,0.228-0.031,0.339-0.008
		l2.625,0.579c0.151,0.033,0.308,0.031,0.463-0.011c0.197-0.054,0.369-0.167,0.497-0.327c0.229-0.288,0.275-0.674,0.12-1.007
		l-1.138-2.439c-0.099-0.209-0.087-0.454,0.031-0.655L245.49-110.707z M243.083-107.259l1.005,2.153l-2.32-0.512
		c-0.286-0.064-0.59-0.056-0.873,0.022c-0.284,0.078-0.548,0.225-0.762,0.425l-1.736,1.643l-0.232-2.387
		c-0.059-0.597-0.407-1.127-0.931-1.417l-2.079-1.151l2.179-0.95c0.55-0.24,0.947-0.735,1.06-1.323l0.453-2.332l1.576,1.778
		c0.394,0.445,0.985,0.673,1.586,0.599l2.358-0.291l-1.204,2.049C242.86-108.436,242.83-107.803,243.083-107.259z"/>
	<g>
		<path d="M203.295-103.066c3.801-6.668,8.998-12.169,15.274-16.565c0.995-0.697,0.047-2.345-0.959-1.64
			c-6.541,4.582-11.993,10.295-15.955,17.247C201.047-102.959,202.688-102.002,203.295-103.066L203.295-103.066z"/>
	</g>
	<g>
		<path d="M216.302-104.847c0.39-4.232,2.017-8.037,4.595-11.394c0.746-0.972-0.905-1.916-1.64-0.959
			c-2.793,3.638-4.433,7.786-4.854,12.353C214.29-103.627,216.191-103.638,216.302-104.847L216.302-104.847z"/>
	</g>
	<g>
		<path d="M201.062-112.035c3.736-4.791,8.559-8.365,14.274-10.45c1.141-0.416,0.649-2.253-0.505-1.832
			c-6.02,2.196-11.167,5.879-15.112,10.938C198.975-112.424,200.309-111.069,201.062-112.035L201.062-112.035z"/>
	</g>
</g>
</svg>
