<?xml version="1.0" encoding="UTF-8"?>
<svg width="56px" height="56px" viewBox="0 0 56 56" version="1.1" xmlns="http://www.w3.org/2000/svg" xmlns:xlink="http://www.w3.org/1999/xlink">
    <!-- Generator: Sketch 48.2 (47327) - http://www.bohemiancoding.com/sketch -->
    <title>summer-guides</title>
    <desc>Created with Sketch.</desc>
    <defs></defs>
    <g id="SUN" stroke="none" stroke-width="1" fill="none" fill-rule="evenodd" transform="translate(-12.000000, -12.000000)">
        <g id="summer-guides" transform="translate(12.000000, 12.000000)">
            <circle id="Oval-2" stroke="#FFFFFF" stroke-width="2" cx="28.5" cy="27.5" r="13.5"></circle>
            <rect id="Rectangle" fill="#FFFFFF" x="27" y="0" width="2" height="9"></rect>
            <rect id="Rectangle-Copy" fill="#FFFFFF" x="27" y="47" width="2" height="9"></rect>
            <rect id="Rectangle-Copy-2" fill="#FFFFFF" transform="translate(4.500000, 28.000000) rotate(-90.000000) translate(-4.500000, -28.000000) " x="3.5" y="23.5" width="2" height="9"></rect>
            <rect id="Rectangle-Copy-3" fill="#FFFFFF" transform="translate(51.500000, 28.000000) rotate(-90.000000) translate(-51.500000, -28.000000) " x="50.5" y="23.5" width="2" height="9"></rect>
            <rect id="Rectangle-Copy-2" fill="#FFFFFF" transform="translate(11.106602, 11.106602) rotate(-45.000000) translate(-11.106602, -11.106602) " x="10.1066017" y="6.29898987" width="2" height="9.61522369"></rect>
            <rect id="Rectangle-Copy-3" fill="#FFFFFF" transform="translate(43.889087, 43.889087) rotate(-45.000000) translate(-43.889087, -43.889087) " x="42.8890873" y="39.3890873" width="2" height="9"></rect>
            <rect id="Rectangle-Copy-4" fill="#FFFFFF" transform="translate(11.237721, 43.770619) rotate(-135.000000) translate(-11.237721, -43.770619) " x="10.2377215" y="38.9630074" width="2" height="9.61522369"></rect>
            <rect id="Rectangle-Copy-5" fill="#FFFFFF" transform="translate(44.020207, 11.988134) rotate(-135.000000) translate(-44.020207, -11.988134) " x="43.020207" y="7.48813364" width="2" height="9"></rect>
        </g>
    </g>
</svg>