<?xml version="1.0" encoding="utf-8"?>
<!-- Generator: Adobe Illustrator 17.0.0, SVG Export Plug-In . SVG Version: 6.00 Build 0)  -->
<!DOCTYPE svg PUBLIC "-//W3C//DTD SVG 1.1//EN" "http://www.w3.org/Graphics/SVG/1.1/DTD/svg11.dtd">
<svg version="1.1" id="Layer_1" xmlns="http://www.w3.org/2000/svg" xmlns:xlink="http://www.w3.org/1999/xlink" x="0px" y="0px"
	 width="50px" height="50px" viewBox="0 0 50 50" enable-background="new 0 0 50 50" xml:space="preserve">
<g>
	<g>
		<path d="M13.521,34.861l0.016-11.471l10.639-3.547c0.215,0.096,0.465,0.154,0.734,0.154c0.783,0,1.416-0.462,1.416-1.03
			c0-0.568-0.634-1.03-1.416-1.03c-0.616,0-1.135,0.289-1.329,0.687l-10.929,3.644c-0.274,0.091-0.459,0.348-0.46,0.637
			l-0.017,11.958"/>
		<path d="M12.176,33.202c-0.289,0.124-0.549,0.326-0.74,0.605c-0.479,0.703-0.357,1.633,0.242,2.197
			c-0.062,0.34-0.103,0.688-0.137,1.042c-0.037,0.389-0.068,0.789-0.142,1.197c-0.075,0.41-0.161,0.835-0.418,1.26
			c-0.185,0.21,0.839,0.649,1.864,0.65c1.025,0.001,2.05-0.438,1.867-0.647c-0.258-0.427-0.343-0.855-0.415-1.263
			c-0.071-0.407-0.101-0.808-0.137-1.196c-0.031-0.358-0.068-0.71-0.131-1.052c0.084-0.08,0.161-0.168,0.228-0.266
			c0.531-0.78,0.329-1.841-0.451-2.372c-0.092-0.063-0.188-0.114-0.287-0.156"/>
	</g>
	<g>
		<path d="M49.238,18.475L25.271,10.86c-0.148-0.047-0.308-0.047-0.456-0.001L0.99,18.333c-0.315,0.098-0.53,0.389-0.531,0.719
			c-0.001,0.33,0.026,0.623,0.339,0.725L8,22.171v7.415c0,0.315,0.38,0.598,0.675,0.709l3.087,1.128l-0.394-1.618L9,29.062v-6.4
			l3,0.428V22.75c0-0.322-0.096-0.609,0.208-0.715l0.378-0.185l-8.727-2.782l21.256-6.69l21.409,6.814l-21.616,6.742l-8.878-2.849
			L14,23.731v0.318l10.571,3.401c0.076,0.024,0.194,0.037,0.274,0.037c0.076,0,0.573-0.011,0.646-0.035L41,22.742v6.305
			l-15.558,5.725L14.35,30.669l-0.102,1.618l10.577,4.004c0.086,0.033,0.152,0.049,0.242,0.049c0.091,0,0.169-0.016,0.255-0.049
			l16.051-6.011C41.668,30.168,42,29.886,42,29.571v-7.302l7.377-2.348c0.316-0.098,0.46-0.39,0.461-0.721
			S49.554,18.575,49.238,18.475z"/>
	</g>
</g>
</svg>
