<?xml version="1.0" encoding="utf-8"?>
<!-- Generator: Adobe Illustrator 17.0.0, SVG Export Plug-In . SVG Version: 6.00 Build 0)  -->
<!DOCTYPE svg PUBLIC "-//W3C//DTD SVG 1.1//EN" "http://www.w3.org/Graphics/SVG/1.1/DTD/svg11.dtd">
<svg version="1.1" id="Layer_1" xmlns="http://www.w3.org/2000/svg" xmlns:xlink="http://www.w3.org/1999/xlink" x="0px" y="0px"
	 width="50px" height="50px" viewBox="0 0 50 50" enable-background="new 0 0 50 50" xml:space="preserve">
<path d="M17.037,7.746c-0.968,0.181-1.601,1.109-1.422,2.071c0.182,0.968,1.109,1.605,2.07,1.425c0.97-0.18,1.607-1.108,1.423-2.074
	C18.93,8.201,18.001,7.565,17.037,7.746z M42.056,31.41c-0.004,0.002-1.302,0.644-3.297,1.3c-1.997,0.656-4.662,1.305-7.276,1.303
	c-4.145-0.062-7.928-1.428-9.662-6.985c-0.127-0.416-0.521-0.695-0.956-0.678c-0.435,0.019-0.804,0.33-0.896,0.757
	c-0.01,0.042-0.393,1.839-0.393,4.194c-0.005,3.41,0.809,8.349,5.433,10.178c1.241,0.48,2.483,0.69,3.689,0.69
	c8.26-0.115,14.47-9.318,14.564-9.35c0.252-0.358,0.228-0.841-0.054-1.174C42.921,31.315,42.446,31.216,42.056,31.41z
	 M28.698,40.254c-0.986,0-1.982-0.169-3-0.56c-3.401-1.269-4.207-5.165-4.209-8.394c0-0.119,0-0.236,0.003-0.352
	c2.405,3.772,6.343,5.025,9.991,4.976c2.895-0.007,5.713-0.692,7.826-1.382C36.872,37.068,32.837,40.301,28.698,40.254z
	 M48.539,19.993c-0.067-0.372-0.353-0.67-0.721-0.757c-0.366-0.086-0.755,0.053-0.982,0.356c-0.002,0-0.234,0.311-0.721,0.824
	c-1.466,1.552-5.03,4.619-9.736,4.601c-0.574,0-1.166-0.045-1.772-0.14c-2.983-0.466-4.886-2.027-5.888-3.185
	c3.022-2.163,4.999-5.701,4.999-9.706c0-6.597-5.347-11.944-11.945-11.944c-4.769,0-8.874,2.804-10.787,6.847l-0.013-0.006V6.882
	c0,0-0.004,0.012-0.053,0.095c-0.376,0.585-2.28,3.466-8.242,3.721c-0.472,0.01-0.952,0.263-1.226,0.637
	c-0.28,0.371-0.386,0.809-0.386,1.246c0,0.24,0.032,0.495,0.103,0.76c0.695,2.413,4.193,5.412,9.36,5.479h0.037
	c0.44,0,0.896-0.034,1.356-0.086c0.441,0.642,0.943,1.239,1.498,1.781c-4.116,3.414-6.027,7.943-6.021,12.366
	c-0.002,6.653,4.258,13.091,11.372,15.467c2.951,0.983,5.808,1.438,8.505,1.438h0.006c8.402,0.001,15.216-4.409,18.496-10.586
	c2.589-4.889,3.154-10.172,3.156-13.949C48.934,22.136,48.547,20.032,48.539,19.993z M10.529,16.906
	c-4.328,0.068-7.304-2.893-7.508-4.047c-0.029-0.108-0.039-0.19-0.042-0.258c3.195-0.154,5.428-1.052,6.945-2.038
	C9.868,11.03,9.83,11.504,9.83,11.986c0,1.751,0.387,3.408,1.064,4.906C10.773,16.896,10.648,16.906,10.529,16.906z M44.088,38.302
	c-2.946,5.542-9.085,9.567-16.812,9.569c-2.482,0-5.133-0.417-7.9-1.341c-6.327-2.111-10.06-7.807-10.064-13.65
	c0.008-4.162,1.876-8.39,6.167-11.546c0.241-0.176,0.385-0.455,0.391-0.751c0.006-0.298-0.127-0.582-0.358-0.768
	c-2.3-1.842-3.772-4.658-3.772-7.829c0.011-5.54,4.491-10.021,10.03-10.03c5.543,0.009,10.021,4.491,10.033,10.03
	c0,3.686-1.991,6.892-4.954,8.639c-0.224,0.131-0.387,0.354-0.447,0.605c-0.058,0.254-0.012,0.525,0.129,0.742
	c0.922,1.414,3.371,4.093,7.773,4.794c0.707,0.112,1.4,0.164,2.071,0.162c4.974-0.029,8.628-2.768,10.522-4.591
	c0.067,0.79,0.122,1.78,0.122,2.913C47.024,28.839,46.467,33.828,44.088,38.302z"/>
</svg>
