<svg xmlns="http://www.w3.org/2000/svg" viewBox="0 0 400 400"><defs><style>.cls-1{fill:#fff;}</style></defs><title>Artboard 1 copy 7</title><g id="topics_v2"><path class="cls-1" d="M387,274.86V65.7a26,26,0,0,0-26-26H38.84a26,26,0,0,0-26,26V274.86a26,26,0,0,0,26,26H68.33l38,68.05,52-68.2,202.61.15A26,26,0,0,0,387,274.86ZM24.75,271.6V69.19A16.48,16.48,0,0,1,41.23,52.71H356.69a16.48,16.48,0,0,1,16.48,16.48V271.6a16.48,16.48,0,0,1-16.48,16.48H151.27L107,347.43l-30.5-59.35H41.23A16.48,16.48,0,0,1,24.75,271.6ZM312.49,169.77c0-3-2.2-5.5-4.91-5.5H92.25c-2.72,0-4.92,2.47-4.92,5.5s2.2,5.51,4.92,5.51H307.58C310.29,175.28,312.49,172.81,312.49,169.77Zm-5.92-31H91.25a5.23,5.23,0,0,1-4.92-5.5c0-3,2.2-5.51,4.92-5.51H306.57c2.72,0,4.92,2.47,4.92,5.51A5.23,5.23,0,0,1,306.57,138.74Zm-39.42,67.57c0-3-2.2-5.5-4.91-5.5h-170a5.53,5.53,0,0,0,0,11h170C265,211.81,267.15,209.35,267.15,206.31Z"/></g></svg>