<?xml version="1.0" encoding="utf-8"?>
<!-- Generator: Adobe Illustrator 17.0.0, SVG Export Plug-In . SVG Version: 6.00 Build 0)  -->
<!DOCTYPE svg PUBLIC "-//W3C//DTD SVG 1.1//EN" "http://www.w3.org/Graphics/SVG/1.1/DTD/svg11.dtd">
<svg version="1.1" id="Layer_1" xmlns="http://www.w3.org/2000/svg" xmlns:xlink="http://www.w3.org/1999/xlink" x="0px" y="0px"
	 width="50px" height="50px" viewBox="0 0 50 50" enable-background="new 0 0 50 50" xml:space="preserve">
<g>
	<path d="M49.104,3.008c-0.995-1.086-2.486-0.913-3.806-0.913H3.411C2.694,2.095,2,2.192,1.384,2.607C0.377,3.286,0,4.377,0,5.537
		v29.052c0,1.71,1.399,3.122,3.109,3.122h16.48c-0.22,1.271-0.441,2.543-0.661,3.814c-0.352,0.182-0.705,0.364-1.056,0.546
		c-0.183,0.094-0.365,0.189-0.548,0.283c0.546-0.283,0.004-0.005-0.166,0.074c-0.183,0.085-0.357,0.188-0.524,0.303
		c-0.527,0.364-0.917,0.834-0.979,1.492c-0.024,0.26-0.007,0.528-0.007,0.789c0,0.975,0.033,1.935,0.966,2.526
		c0.731,0.464,1.611,0.369,2.437,0.369h11.888c0.565,0,1.136,0.022,1.701-0.007c1.275-0.065,2.093-1.084,2.093-2.307
		c0-0.693,0.124-1.53-0.257-2.146c-0.319-0.516-0.862-0.843-1.409-1.087c-0.003-0.001-0.004-0.003-0.006-0.003
		c-0.664-0.29-1.328-0.579-1.992-0.868c-0.218-1.259-0.436-2.518-0.655-3.777h16.526c1.679,0,2.942-1.37,3.055-2.982
		C49.998,34.686,50,34.642,50,34.596V5.627C50,4.649,49.795,3.762,49.104,3.008z M2.314,5.269h45.301v25.786H2.314V5.269z
		 M31.954,44.246c0.043,0.019,0.087,0.035,0.131,0.05c0.042,0.022,0.086,0.043,0.13,0.061c-0.419-0.17-0.085-0.033,0.032,0.027
		c0.079,0.04,0.156,0.085,0.232,0.13c0.008,0.005,0.034,0.025,0.063,0.047v1.127c-0.045,0.009-0.099,0.031-0.037,0.031H17.877
		c0.043,0-0.001-0.016-0.042-0.024l-0.001-0.001l-0.001-1.138c0.048-0.031,0.095-0.06,0.143-0.089
		c0.123-0.073,0.253-0.135,0.382-0.194c-0.532,0.237,0.3-0.149,0.412-0.207c0.55-0.284,1.101-0.569,1.651-0.853
		c0.533-0.276,0.559-0.788,0.647-1.293c0.223-1.287,0.446-2.574,0.669-3.861h6.523c0.215,1.245,0.432,2.491,0.648,3.737
		c0.041,0.237,0.082,0.475,0.123,0.713c0.082,0.466,0.45,0.659,0.826,0.823C30.557,43.637,31.255,43.942,31.954,44.246z
		 M47.812,34.596c-0.017,0.525-0.393,0.927-0.877,0.927H3.065c-0.043,0-0.085-0.003-0.131-0.004
		c0.169,0.006-0.182-0.052-0.182-0.052c0.074,0.04,0.053,0.03-0.065-0.031c-0.069-0.038-0.135-0.08-0.199-0.126
		c0.107,0.072-0.031-0.059-0.095-0.118c0.01-0.002-0.064-0.111-0.102-0.166c0.005-0.013-0.083-0.227-0.082-0.223
		c-0.012-0.043-0.02-0.069-0.026-0.086c0.004-0.008,0.007-0.039,0.005-0.12c0-0.022,0-0.042,0-0.063v-2.486h7.136
		c5.623,0,11.246,0,16.869,0c5.454,0,10.909,0,16.364,0h5.256V34.596z"/>
</g>
</svg>
