<?xml version="1.0" encoding="utf-8"?>
<!-- Generator: Adobe Illustrator 17.0.0, SVG Export Plug-In . SVG Version: 6.00 Build 0)  -->
<!DOCTYPE svg PUBLIC "-//W3C//DTD SVG 1.1//EN" "http://www.w3.org/Graphics/SVG/1.1/DTD/svg11.dtd">
<svg version="1.1" id="Layer_1" xmlns="http://www.w3.org/2000/svg" xmlns:xlink="http://www.w3.org/1999/xlink" x="0px" y="0px"
	 width="50px" height="50px" viewBox="0 0 50 50" enable-background="new 0 0 50 50" xml:space="preserve">
<g>
	<path d="M44.431,37.422h4.256V5.148H1.313v32.274h35.095l1.682,1.313H0V3.834h50v34.901h-6.908L44.431,37.422z"/>
	<path d="M45.037,30.631L45.015,9.674c0-0.055-0.048-0.103-0.103-0.103H5.597c-0.055,0-0.103,0.048-0.103,0.103v24.362
		c0,0.055,0.048,0.103,0.103,0.103h29.341l-0.106,1.313H5.597c-0.781,0-1.416-0.636-1.416-1.416V9.674
		c0-0.781,0.636-1.416,1.416-1.416h39.314c0.781,0,1.416,0.636,1.416,1.416v22.214L45.037,30.631z"/>
	<path d="M39.184,16.919H10.41c-0.363,0-0.657-0.294-0.657-0.657c0-0.363,0.294-0.657,0.657-0.657h28.774
		c0.363,0,0.657,0.294,0.657,0.657C39.841,16.625,39.547,16.919,39.184,16.919z"/>
	<path d="M39.184,20.921H10.41c-0.363,0-0.657-0.294-0.657-0.657c0-0.363,0.294-0.657,0.657-0.657h28.774
		c0.363,0,0.657,0.294,0.657,0.657C39.841,20.627,39.547,20.921,39.184,20.921z"/>
	<path d="M33.126,24.924H10.41c-0.363,0-0.657-0.294-0.657-0.657c0-0.363,0.294-0.657,0.657-0.657h22.716
		c0.363,0,0.657,0.294,0.657,0.657C33.783,24.63,33.489,24.924,33.126,24.924z"/>
	<g>
		<path d="M40.435,39.814c-0.326,0-0.652-0.102-0.93-0.305l-0.601-0.44c-0.143-0.105-0.355-0.169-0.499-0.161l-0.744,0.003
			c-0.002,0-0.003,0-0.005,0c-0.687,0-1.29-0.439-1.501-1.094l-0.227-0.709c-0.055-0.172-0.163-0.319-0.309-0.425l-0.603-0.435
			c-0.56-0.403-0.79-1.114-0.574-1.77l0.231-0.706c0.056-0.172,0.056-0.354,0-0.526l-0.231-0.707
			c-0.216-0.655,0.015-1.367,0.574-1.77l0.603-0.435c0.146-0.106,0.253-0.253,0.309-0.426l0.227-0.707
			c0.211-0.655,0.814-1.095,1.501-1.095c0.002,0,0.003,0,0.005,0l0.744,0.003c0.002,0,0.003,0,0.003,0
			c0.177,0,0.353-0.057,0.497-0.162l0.599-0.439c0.544-0.399,1.317-0.398,1.862-0.001l0.602,0.44
			c0.145,0.106,0.317,0.161,0.496,0.161c0.001,0,0.002,0,0.003,0l0.743-0.003c0.666-0.029,1.296,0.438,1.506,1.095l0.227,0.708
			c0.055,0.169,0.165,0.32,0.31,0.425l0.603,0.435c0.56,0.404,0.79,1.115,0.574,1.77l-0.232,0.706c-0.055,0.172-0.055,0.354,0,0.526
			l0.232,0.706c0.216,0.654-0.015,1.366-0.574,1.77l-0.603,0.435c-0.145,0.105-0.255,0.256-0.31,0.426l-0.227,0.707
			c-0.21,0.655-0.812,1.095-1.501,1.095c-0.002,0-0.003,0-0.005,0l-0.743-0.003c-0.002,0-0.003,0-0.003,0
			c-0.179,0-0.351,0.055-0.497,0.162l-0.599,0.439C41.089,39.712,40.762,39.814,40.435,39.814z M38.408,38.172
			c0.332,0,0.662,0.108,0.931,0.304l0.601,0.44c0.294,0.216,0.695,0.217,0.994-0.001l0.599-0.439c0.273-0.2,0.595-0.305,0.931-0.305
			c0.002,0,0.003,0,0.005,0l0.743,0.003c0.002,0,0.003,0,0.003,0c0.368,0,0.689-0.234,0.801-0.583l0.227-0.708
			c0.102-0.319,0.308-0.602,0.579-0.797l0.603-0.435c0.299-0.216,0.422-0.596,0.306-0.945L45.5,34c-0.105-0.322-0.105-0.662,0-0.984
			l0.232-0.706c0.115-0.35-0.008-0.73-0.306-0.945l-0.603-0.435c-0.271-0.195-0.477-0.478-0.579-0.796l-0.227-0.709
			c-0.112-0.349-0.433-0.583-0.801-0.583c-0.001,0-0.003,0-0.003,0l-0.743,0.003c-0.002,0-0.003,0-0.005,0
			c-0.336,0-0.658-0.105-0.93-0.304l-0.601-0.44c-0.29-0.21-0.704-0.212-0.994,0.001l-0.599,0.439
			c-0.27,0.196-0.6,0.305-0.932,0.305c-0.001,0-0.003,0-0.004,0l-0.744-0.003c-0.002,0-0.003,0-0.003,0
			c-0.367,0-0.689,0.234-0.801,0.584l-0.227,0.707c-0.104,0.324-0.305,0.599-0.579,0.797l-0.603,0.435
			c-0.299,0.215-0.422,0.595-0.306,0.945l0.231,0.707c0.107,0.322,0.107,0.662,0,0.985l-0.231,0.706
			c-0.115,0.351,0.008,0.73,0.306,0.945l0.603,0.435c0.274,0.198,0.474,0.473,0.579,0.796l0.227,0.709
			c0.113,0.349,0.434,0.583,0.801,0.583c0.001,0,0.002,0,0.003,0l0.744-0.003C38.404,38.172,38.406,38.172,38.408,38.172z"/>
	</g>
	<g>
		<path d="M38.956,46.166c-0.109,0-0.218-0.032-0.312-0.095l-1.405-0.937l-2.521,0.962c-0.21,0.079-0.447,0.024-0.597-0.133
			c-0.15-0.155-0.195-0.396-0.109-0.598l2.605-6.149l0.372,0.307c0.032,0.02,0.368,0.215,1.195,0.16
			c0.452-0.016,0.876,0.155,1.223,0.474l0.073,0.072c0.09,0.068,0.227,0.154,0.369,0.224l0.233,0.113l-0.579,5.11
			c-0.02,0.19-0.142,0.359-0.317,0.44C39.114,46.149,39.036,46.166,38.956,46.166z M38.773,45.592c0,0.001,0,0.002,0,0.003V45.592z
			 M39.052,45.459l0.003,0.002C39.054,45.46,39.053,45.459,39.052,45.459z M37.331,44.312l1.475,0.984l0.489-4.311
			c-0.108-0.066-0.211-0.137-0.311-0.217l-0.067-0.064c-0.213-0.195-0.461-0.317-0.696-0.288c-0.588,0.042-0.998-0.024-1.269-0.11
			l-2.097,4.951L37.331,44.312z M41.916,46.166c-0.08,0-0.16-0.018-0.235-0.053c-0.17-0.078-0.292-0.247-0.312-0.44l-0.579-5.091
			l0.22-0.118c0.139-0.074,0.268-0.172,0.396-0.268c0.241-0.179,0.514-0.382,0.858-0.473c0.241-0.031,0.441-0.028,0.639-0.031
			c0.397-0.001,0.736,0.002,0.997-0.18l0.371-0.259l2.59,6.111c0.084,0.204,0.04,0.445-0.111,0.601
			c-0.153,0.156-0.392,0.208-0.594,0.132l-2.522-0.962l-1.409,0.938C42.132,46.134,42.025,46.166,41.916,46.166z M42.099,45.59
			v0.002C42.099,45.592,42.099,45.591,42.099,45.59z M41.816,45.461C41.816,45.461,41.815,45.461,41.816,45.461L41.816,45.461z
			 M41.575,40.98l0.49,4.316l1.476-0.984l2.475,0.945l-2.094-4.943c-0.341,0.114-0.696,0.108-1.022,0.113
			c-0.172-0.001-0.34-0.002-0.502,0.017c-0.154,0.044-0.347,0.189-0.553,0.341C41.757,40.852,41.667,40.918,41.575,40.98z"/>
	</g>
	<path d="M40.436,30.295c1.856,0,3.368,1.511,3.368,3.368s-1.511,3.368-3.368,3.368s-3.368-1.512-3.368-3.368
		C37.068,31.807,38.579,30.295,40.436,30.295z"/>
</g>
</svg>
