<?xml version="1.0" encoding="UTF-8" standalone="no"?>
<svg width="404px" height="359px" viewBox="0 0 404 359" version="1.1" xmlns="http://www.w3.org/2000/svg" xmlns:xlink="http://www.w3.org/1999/xlink">
    <!-- Generator: Sketch 39.1 (31720) - http://www.bohemiancoding.com/sketch -->
    <title>Path Copy 3</title>
    <desc>Created with Sketch.</desc>
    <defs>
        <linearGradient x1="110.046024%" y1="0%" x2="29.3176532%" y2="73.1181293%" id="linearGradient-1">
            <stop stop-color="#FF9030" stop-opacity="0.3" offset="0%"></stop>
            <stop stop-color="#FF9030" offset="100%"></stop>
        </linearGradient>
    </defs>
    <g id="1-Age-Landing-(READY)" stroke="none" stroke-width="1" fill="none" fill-rule="evenodd">
        <g id="Age-landing-desktop-" transform="translate(-899.000000, -121.000000)" fill="url(#linearGradient-1)">
            <g id="Hero" transform="translate(0.000000, 60.000000)">
                <g id="bg">
                    <path d="M1025.96558,66.8437851 C1026.03468,68.1322657 1024.70511,68.8474658 1024.65656,69.8969239 C1024.59868,71.3123852 1026.08696,70.3899078 1025.53236,72.0780041 C1025.14581,73.2488408 1023.33074,74.0835521 1022.91431,76.0050688 C1021.69306,81.6276993 1021.99744,92.1073415 1025.96558,95.6366579 C1026.39134,96.0157326 1028.93656,95.8439352 1029.45755,96.0736208 C1031.95048,97.1790998 1037.50776,100.865275 1039.49276,101.30784 C1040.83353,101.608485 1042.52349,100.783111 1043.85492,100.872744 C1047.48508,101.117369 1051.1227,102.26393 1055.19729,101.744803 C1058.56975,101.317177 1062.90763,98.7626238 1065.2325,99.1267596 C1065.29412,99.1379638 1066.49484,100.355485 1066.10456,100.435781 C1067.34262,100.18182 1073.78876,95.832731 1075.70094,95.2015622 C1076.08375,95.0745815 1076.81575,96.1651216 1077.44879,96.0736208 C1077.97725,95.9989263 1077.91376,95.0745815 1078.75594,94.7645993 C1080.94636,93.9597657 1085.49899,94.6320165 1086.17311,94.3276363 C1089.59972,92.7758575 1091.18511,80.83407 1092.71822,79.060075 C1095.31198,76.0461508 1099.47434,73.6876711 1103.62175,72.0780041 C1104.52742,71.7288072 1108.63189,68.8063838 1111.03892,69.8969239 C1111.93525,70.3002744 1112.75689,74.5317193 1112.78677,74.2590843 C1112.50666,77.1908445 1109.19396,79.5885388 1109.29293,82.9852724 C1109.40124,86.5257929 1112.01928,92.0774637 1112.34794,94.7645993 C1112.48052,95.8159247 1111.89604,98.3686102 1112.34794,99.1267596 C1113.79141,101.54126 1118.09755,100.596374 1120.20207,102.183633 C1124.14594,105.152741 1123.30749,111.897656 1125.43629,115.70521 C1126.17576,117.031038 1128.04686,116.952608 1128.92639,118.323253 C1130.7396,121.154176 1129.3036,122.653668 1131.10934,124.429531 C1132.74141,126.03733 1134.80111,126.900052 1136.34355,127.049441 C1138.20718,127.228708 1138.64415,125.706807 1140.70571,125.303457 C1143.02685,124.849687 1144.91849,125.889809 1147.25082,124.866494 C1150.80815,123.307245 1154.08724,119.034718 1158.59319,117.451194 C1159.83312,117.014231 1160.96847,117.533358 1162.08329,117.014231 C1163.0898,116.547391 1164.40069,114.752855 1165.57339,114.398056 C1167.09903,113.93495 1169.18674,114.857427 1170.80761,114.398056 C1174.92888,113.234688 1177.91666,108.635373 1181.27791,107.852948 C1182.91372,107.472006 1184.85952,108.618567 1186.51213,108.288043 C1188.10873,107.972459 1189.63623,105.886614 1191.31126,105.671868 C1192.54932,105.511274 1194.41295,107.038777 1196.11225,106.980889 C1199.61355,106.861378 1203.68814,104.222794 1207.88971,104.364713 C1210.76171,104.458081 1212.11182,103.994975 1213.99598,103.92775 C1215.99967,103.853056 1220.21244,106.075218 1223.15914,105.671868 C1226.10957,105.270384 1232.21771,100.799917 1235.37543,99.1267596 C1241.11757,96.0885597 1246.912,91.5863471 1253.2629,89.5303803 C1253.76709,89.3660523 1255.25537,89.8366278 1255.00888,89.9654759 C1257.68668,88.5892292 1258.93034,84.9553405 1261.98722,85.6051829 C1261.61748,85.5248863 1269.01597,91.5583367 1269.40438,92.1465561 C1270.73955,94.1595736 1272.00749,100.112727 1271.1485,103.053824 C1270.00194,106.992093 1263.83778,113.415823 1258.93408,116.142173 C1257.49808,116.939537 1255.53735,116.650096 1254.13496,117.451194 C1252.43192,118.424091 1250.94363,120.984246 1248.90074,122.685413 C1247.57864,123.78529 1245.19776,124.057925 1244.10161,124.866494 C1242.77765,125.844992 1242.50689,127.934571 1241.91867,128.356595 C1240.54989,129.346298 1238.78336,128.687119 1237.55651,129.230521 C1235.93003,129.949456 1235.65926,131.97928 1234.50337,133.155719 C1233.62944,134.044584 1232.76298,133.215474 1232.32229,134.027777 C1230.82279,136.79521 1232.02724,140.083636 1231.44836,142.753965 C1231.41475,142.910824 1229.77334,142.593372 1229.70424,142.753965 C1227.93585,146.828552 1230.59498,149.943314 1231.44836,154.096329 C1231.6463,155.052419 1230.57443,154.972123 1230.5763,156.279277 C1230.58751,160.028942 1233.98984,166.288343 1231.44836,170.239684 C1229.30089,173.584131 1222.35804,172.876401 1219.23394,172.85586 C1214.98755,172.827849 1211.7925,173.983747 1207.45274,174.164881 C1203.69001,174.323607 1198.41657,173.722316 1196.98431,174.164881 C1193.53902,175.233013 1185.17697,181.550303 1184.76802,183.763128 C1183.92957,188.310157 1187.21613,190.565932 1191.31126,190.308236 C1201.17093,189.686404 1208.84766,191.3745 1216.6159,190.308236 C1218.90342,189.992652 1220.86415,189.794711 1223.5961,189.43431 C1225.70622,189.15794 1228.46805,188.709773 1230.5763,188.127156 C1232.08887,187.706999 1233.11031,185.964749 1234.50337,185.509113 C1237.59572,184.500736 1237.9748,185.70892 1239.30436,185.509113 C1239.2278,185.518449 1243.12872,183.367247 1245.84573,183.328032 C1247.75418,183.300022 1256.56066,182.399953 1257.62506,183.763128 C1261.09088,188.196248 1254.45614,188.000175 1251.51878,188.127156 C1249.38625,188.216789 1247.96145,189.716282 1245.84573,189.871273 C1243.77296,190.024397 1241.74127,188.368046 1239.73945,188.127156 C1231.64257,187.148657 1221.09383,195.557394 1217.48795,202.522658 C1213.51794,210.193786 1222.35243,216.884549 1230.13934,219.973167 C1231.94881,220.690235 1234.25874,222.946009 1236.24748,223.026306 C1239.05973,223.140215 1247.98199,218.313081 1246.28083,225.207386 C1246.37233,224.846985 1243.77856,227.420212 1242.35376,227.827297 C1238.58542,228.902898 1236.16532,226.807716 1233.19435,227.827297 C1230.6678,228.693753 1230.6678,230.637678 1229.70424,231.317398 C1228.84152,231.924292 1228.44004,229.823508 1227.95826,231.317398 C1227.51569,232.69738 1229.83122,236.615108 1229.70424,238.732698 C1229.49697,242.245208 1227.8985,242.790478 1224.90512,245.275938 C1224.62502,245.509359 1224.09655,246.980841 1224.03306,247.021923 C1223.05456,247.636285 1221.40942,247.012586 1220.54296,247.895849 C1220.15268,248.29173 1221.26376,249.072288 1220.97806,249.639966 C1219.7624,252.071273 1214.82509,253.419509 1216.1808,257.492228 C1217.39645,261.142923 1225.56617,257.509034 1229.26915,259.673308 C1229.98061,260.091598 1229.25981,261.284843 1230.13934,262.293219 C1231.05808,263.340809 1232.95719,262.903847 1233.19435,263.16341 C1234.14483,264.21847 1232.84702,266.588154 1236.24748,267.090475 C1237.8198,267.322028 1239.88884,265.89723 1241.48357,266.216549 C1243.10444,266.543337 1251.2088,271.734607 1251.95388,271.889598 C1252.36096,271.971762 1252.33108,270.806527 1252.82407,271.017539 C1255.96684,272.356439 1257.99666,275.562701 1262.86114,275.814795 C1264.80133,275.9175 1266.65002,277.670954 1268.53419,277.997743 C1270.20548,278.287184 1272.16435,277.276941 1273.76655,277.558913 C1277.59837,278.242368 1286.18451,281.541998 1289.9099,281.92294 C1292.75016,282.214249 1300.47918,280.509346 1302.56129,283.231962 C1304.0197,285.136672 1301.46514,290.59871 1300.3802,291.086091 C1300.66404,290.957243 1294.20483,290.398902 1292.09098,289.775203 C1288.70172,288.778031 1287.34228,287.091802 1283.80362,286.722064 C1281.58893,286.492378 1278.13804,285.060111 1275.51253,284.540984 C1273.03641,284.051734 1271.80208,284.671699 1269.40438,284.540984 C1266.16824,284.365451 1261.81729,281.390742 1257.18996,281.050882 C1252.28627,280.690481 1249.94086,280.406642 1245.40877,280.178823 C1241.94481,280.005158 1241.81223,276.660711 1239.30436,276.251758 C1236.5612,275.807326 1232.3615,279.74933 1230.5763,280.613919 C1229.90032,280.944442 1229.55112,279.810953 1229.70424,279.74186 C1229.00025,280.064914 1229.76213,280.929503 1228.83032,281.485977 C1226.81357,282.694161 1221.59989,281.568141 1218.36188,281.485977 C1215.63366,281.418752 1208.18288,276.038879 1207.01765,280.613919 C1206.16987,283.950897 1210.4704,282.720304 1211.37981,283.668925 C1212.0726,284.38786 1210.91857,285.119866 1211.37981,286.285101 C1211.98483,287.808869 1216.84745,291.616423 1219.66903,292.395113 C1222.01631,293.039353 1224.96114,291.874119 1227.08807,291.95815 C1229.34384,292.045916 1232.16543,293.49499 1234.93846,293.702267 C1237.23532,293.874065 1239.30623,292.790994 1241.04661,292.830209 C1242.61146,292.867556 1241.49104,293.93382 1242.35376,294.13923 C1244.51804,294.64902 1248.82418,293.274641 1251.95388,293.267172 C1255.02942,293.257835 1258.38507,294.436141 1261.55212,294.576193 C1263.21781,294.64902 1279.65808,294.072005 1272.02243,298.064428 C1269.69756,299.280081 1270.57522,298.428563 1269.40438,298.501391 C1265.64912,298.734811 1257.74457,297.000031 1251.51878,297.192369 C1245.92229,297.366034 1238.24743,295.40717 1231.44836,295.448252 C1228.73695,295.463191 1226.93681,296.934673 1223.5961,296.32031 C1218.67933,295.414639 1214.27982,296.626558 1208.76363,295.885215 C1207.64882,295.733958 1203.83566,294.126159 1202.65736,294.576193 C1200.33062,295.457589 1200.26526,300.561092 1198.72842,301.991492 C1198.33068,302.36123 1197.60987,301.294966 1197.42127,301.556397 C1197.19158,301.868246 1197.70511,303.15486 1197.42127,303.737477 C1197.2252,304.137093 1195.68275,304.279012 1195.23832,305.044631 C1194.22995,306.796218 1193.45312,314.30862 1193.93117,315.516804 C1194.80696,317.733364 1203.04763,319.748249 1205.27353,319.878964 C1210.293,320.174008 1216.19761,322.612784 1222.72591,323.804162 C1226.94241,324.575383 1230.90496,322.741632 1234.93846,323.369066 C1237.38844,323.750008 1241.77675,326.239203 1241.91867,327.294263 C1242.51996,331.783404 1237.02057,329.945919 1236.24748,329.914174 C1231.68552,329.714366 1225.89669,329.473476 1222.72591,327.731226 C1220.69982,326.620145 1217.44127,326.508103 1214.43481,327.294263 C1210.93538,328.211139 1201.28858,328.338119 1202.22039,331.223195 C1202.58826,332.364154 1211.44703,333.512583 1212.6907,333.839371 C1218.73909,335.422895 1224.98542,339.839209 1231.88532,342.565559 C1233.706,343.284494 1236.59108,343.056676 1237.99347,343.872714 C1239.34357,344.660741 1238.4267,344.389973 1240.61338,344.74664 C1242.58531,345.067826 1243.68893,346.899709 1245.40877,347.362815 C1246.85037,347.751227 1248.60383,347.801646 1250.20789,348.671837 C1252.25079,349.779183 1262.18329,350.847315 1260.68006,354.344886 C1260.84252,353.969546 1260.4149,355.192669 1257.62506,354.779982 C1251.25548,353.836963 1239.43507,345.850251 1231.88532,343.437618 C1227.46714,342.024024 1220.53923,341.463815 1217.92305,339.947516 C1215.96419,338.808425 1217.89504,338.998896 1215.74384,339.07359 C1212.15103,339.202438 1207.13716,334.799196 1203.09058,332.967313 C1200.59392,331.835691 1198.45766,332.100856 1193.93117,330.786232 C1190.25806,329.718101 1185.10974,326.403531 1183.0239,326.859168 C1178.82046,327.77791 1177.83823,329.934715 1173.42752,332.093387 C1169.36414,334.080261 1165.04679,333.990628 1163.82927,336.89251 C1163.34376,338.050275 1163.93011,342.793378 1164.69946,344.309677 C1165.93379,346.739116 1167.53412,345.476779 1169.50232,346.490757 C1170.81695,347.170477 1171.8496,349.711958 1173.86448,350.417822 C1178.53849,352.057366 1183.47954,350.201207 1185.20498,353.035865 C1185.63821,353.745463 1185.75025,356.800469 1184.33105,357.398025 C1182.59254,358.130031 1179.47404,354.779982 1178.65987,354.344886 C1174.80563,352.272113 1168.85808,348.557928 1171.24457,356.089003 C1171.78611,357.797641 1170.82068,357.941428 1172.11663,359.142142 C1173.96719,360.856382 1181.11359,358.886313 1179.09497,365.250287 C1179.4535,364.126135 1176.1352,367.849657 1176.91575,367.431367 C1174.15206,368.912186 1167.92627,364.062644 1166.44545,363.941266 C1165.46322,363.862836 1165.70971,364.966448 1164.26437,365.250287 C1161.97872,365.700322 1156.78371,364.075716 1154.66612,365.250287 C1153.49529,365.90013 1155.12736,366.531298 1154.66612,367.431367 C1154.36361,368.023321 1151.0397,369.485467 1149.4319,371.795395 C1148.10608,373.698238 1148.27787,376.155688 1147.68592,377.031481 C1147.61496,377.134186 1145.92126,377.565547 1145.93993,377.466577 C1145.07161,381.683083 1150.64195,386.532625 1146.3769,388.371978 C1146.10053,388.491489 1144.74669,387.656778 1144.63091,387.936882 C1144.65519,387.880861 1146.57484,399.592963 1143.75885,398.407188 C1143.94746,398.485617 1141.57217,393.116948 1141.57964,391.426984 C1141.59085,388.960197 1142.12118,387.630635 1138.52463,386.627861 C1136.28567,386.004161 1129.38389,386.310409 1128.05246,387.936882 C1126.03198,390.407404 1126.45587,397.798427 1128.92639,399.279246 C1129.88248,399.850659 1131.18963,398.799334 1131.54443,398.844151 C1134.48553,399.217623 1144.26678,402.268895 1138.52463,407.133376 C1137.16146,408.285539 1127.5408,408.10067 1125.43629,406.25945 C1123.97974,404.982173 1125.43442,405.551719 1122.81824,405.822487 C1120.29544,406.083918 1119.3935,404.380882 1116.7101,403.641407 C1115.35066,403.266067 1114.48794,404.265106 1113.65696,404.07837 C1112.48239,403.813204 1113.35818,402.610622 1111.91097,401.897289 C1111.41799,401.654532 1110.85591,403.267934 1110.16872,402.769348 C1108.86157,401.82633 1108.07728,399.107449 1106.24353,397.970225 C1101.33796,394.935759 1098.77034,391.074052 1092.28125,391.426984 C1089.17396,391.595047 1083.9995,389.643652 1080.93889,390.991888 C1078.68872,391.979724 1074.46101,396.498742 1073.95869,399.279246 C1073.94748,399.337134 1074.46287,404.362209 1074.39191,404.07837 C1074.616,404.982173 1076.0576,408.44053 1077.44879,410.623477 C1078.61776,412.460963 1083.62416,417.153646 1079.19104,419.784761 C1078.84184,419.992039 1072.74677,419.926681 1071.33878,418.910835 C1069.97,417.924867 1070.13619,414.515062 1069.1577,412.367595 C1065.55929,404.48172 1055.2365,402.442559 1048.65405,397.970225 C1048.1704,397.641569 1046.93234,398.326891 1046.47297,397.970225 C1045.89222,397.52019 1045.92956,395.725654 1045.16395,394.917086 C1044.99588,394.739686 1043.17707,394.605236 1042.98473,394.48199 C1039.38632,392.177664 1036.61889,385.124633 1031.63863,384.446781 C1023.03196,383.272209 1025.95438,393.341031 1025.53236,398.407188 C1025.39604,400.044865 1024.86384,401.762839 1024.65656,401.897289 C1018.95924,405.622679 1015.7399,390.022727 1012.00891,389.245904 C1009.93054,388.812676 1007.70838,392.093633 1005.4638,391.86208 C1003.93817,391.707089 1002.80094,389.173077 1001.53674,387.936882 C999.196934,385.653097 991.219558,374.52548 988.448391,373.539512 C982.467227,371.410718 976.321735,376.801796 971.871809,377.466577 C968.844813,377.916612 963.074661,377.369474 959.216688,375.720592 C956.97772,374.764503 957.050547,374.15014 953.984337,373.539512 C947.947152,372.33693 941.133143,365.959885 940.022062,359.142142 C939.756897,357.510067 939.222831,353.876178 940.459025,352.598902 C940.60468,352.449513 941.685883,352.774434 941.768047,352.598902 C942.455237,351.118083 943.310489,347.185416 944.387957,345.618698 C945.327241,344.249921 948.427064,342.025891 944.387957,340.382612 C942.289041,339.531094 939.736356,340.841983 937.840982,340.382612 C932.001738,338.967151 927.818844,331.760996 929.553624,325.987109 C929.736626,325.372747 931.456467,321.436345 932.1698,320.315927 C932.866327,319.22352 934.126797,319.953659 934.352748,318.569943 C935.092224,314.015444 930.619889,308.859654 927.80764,308.5366 C923.30356,308.015606 917.832186,317.421514 916.465276,310.280718 C915.750076,306.549726 920.788222,303.085767 922.136458,302.428455 C930.378999,298.398686 927.019613,290.96658 919.95351,286.285101 C917.929289,284.944334 917.173007,282.320689 916.028313,281.92294 C914.104929,281.254424 911.651214,283.245034 909.920168,281.92294 C908.508441,280.845472 909.852943,278.360011 907.302125,277.558913 C907.427238,277.598127 896.062466,280.165752 899.888693,276.688721 C901.515166,275.20977 906.304953,275.501078 908.174183,274.944604 C910.420621,274.272353 912.484058,272.703768 913.845365,272.324694 C915.858383,271.766352 918.145903,273.196752 919.081452,271.452635 C919.630457,270.434922 918.125362,265.747841 916.900372,264.472432 C912.993848,260.409049 918.795745,254.922736 914.717424,249.639966 C913.735191,248.366424 909.683013,246.680195 907.739088,246.586827 C904.762511,246.439305 901.623473,245.479481 902.501134,240.478682 C902.725218,239.216345 905.464639,237.390064 905.993103,235.242596 C906.364709,233.741236 905.608426,232.602144 905.993103,231.752494 C906.398321,230.859894 908.071478,230.271675 908.174183,229.571414 C908.3964,228.075656 906.586925,225.196182 906.430066,223.900232 C906.10141,221.222433 907.190083,218.78179 905.559875,216.483065 C903.139772,213.08073 898.730928,211.992057 899.0129,208.19384 C899.166024,206.173353 902.811116,202.957754 905.122912,202.957754 C907.238635,202.959621 907.63825,205.430143 909.049977,205.577665 C909.916433,205.667298 909.531756,204.007212 909.920168,203.83168 C910.958422,203.362972 912.741754,204.257439 913.845365,203.83168 C915.103968,203.346166 917.060965,198.360306 915.593217,195.544322 C914.881752,194.17928 912.962103,194.913153 911.227322,193.361375 C909.376765,191.705024 905.167729,185.400805 907.302125,181.146952 C907.938896,179.875278 911.05179,178.883708 912.975174,178.527042 C914.190828,178.304825 920.041276,180.093759 922.136458,178.964005 C923.61541,178.168508 922.198081,175.076154 923.878708,172.420764 C924.629388,171.240591 926.541568,171.535634 926.500486,169.802721 C926.451934,167.942827 918.030126,160.538732 916.465276,157.151335 C915.783688,155.677986 909.046242,150.660381 907.302125,146.68103 C904.043576,139.239588 909.68488,141.661558 911.227322,144.062987 C911.520498,144.516756 911.613866,147.304729 913.412137,147.990052 C916.472745,149.159021 921.753648,149.364431 924.317538,150.606228 C925.088759,150.981568 925.538794,152.333538 925.62656,152.352212 C929.495736,153.173852 935.521717,150.727606 936.094998,145.807104 C936.408715,143.129305 934.25191,139.670949 936.968924,137.082783 C940.365657,133.852245 945.831429,137.551492 947.876192,137.082783 C950.856503,136.399329 950.722053,133.075422 952.236485,129.665617 C953.590323,126.631152 957.067353,124.36604 957.474439,121.813355 C957.937545,118.90587 954.768629,115.69774 955.728454,113.961093 C956.150478,113.197341 958.480947,113.18427 958.781593,112.652071 C959.384751,111.582072 957.917004,108.9771 959.655519,107.852948 C961.033633,106.962215 965.702041,108.284309 967.070818,109.598932 C967.41628,109.929456 966.439649,110.814586 966.635722,111.343049 C966.891551,112.037709 972.969818,118.22615 971.432978,117.451194 C974.295646,118.898401 984.110507,115.193552 984.086231,115.268247 C984.237487,114.818212 979.302047,111.804288 984.086231,110.034028 C985.94239,109.346838 984.803299,111.720257 984.956422,111.778145 C987.581935,112.803327 995.239991,100.783111 995.863691,97.8196054 C996.647983,94.1054201 991.67893,83.1533351 995.863691,82.5483094 C996.894475,82.4007877 998.535887,84.3465801 998.916829,84.294294 C999.516253,84.2102626 998.954177,82.8097402 999.353792,82.5483094 C1004.18466,79.455956 1003.13707,86.176596 1005.02684,90.8375345 C1005.82234,92.8076027 1008.53748,96.5031144 1008.95204,96.9456794 C1009.63363,97.6739511 1012.9594,99.7541936 1013.75116,99.5637226 C1015.19277,99.2201278 1016.38041,89.8160869 1016.8043,86.4753741 C1017.09001,84.2550793 1017.52137,80.0852574 1017.67823,76.0050688 C1017.90418,70.2050388 1014.29643,62.5880645 1020.2944,61.1726032 C1023.74342,60.3584328 1025.7415,62.4536143 1025.96558,66.8437851 Z" id="Path-Copy-3" transform="translate(1101.000000, 240.439937) scale(-1, 1) translate(-1101.000000, -240.439937) "></path>
                </g>
            </g>
        </g>
    </g>
</svg>