<?xml version="1.0" encoding="UTF-8" standalone="no"?>
<svg width="1440px" height="480px" viewBox="0 0 1440 480" version="1.1" xmlns="http://www.w3.org/2000/svg" xmlns:xlink="http://www.w3.org/1999/xlink">
    <!-- Generator: Sketch 39.1 (31720) - http://www.bohemiancoding.com/sketch -->
    <title>bg</title>
    <desc>Created with Sketch.</desc>
    <defs>
        <linearGradient x1="40.9455963%" y1="74.9983786%" x2="28.1733206%" y2="26.5058842%" id="linearGradient-1">
            <stop stop-color="#2793E0" offset="0%"></stop>
            <stop stop-color="#0055B8" offset="100%"></stop>
        </linearGradient>
        <linearGradient x1="32.1691379%" y1="35.5608526%" x2="54.6902115%" y2="98.7206179%" id="linearGradient-2">
            <stop stop-color="#01A4FF" offset="0%"></stop>
            <stop stop-color="#0055B8" offset="100%"></stop>
        </linearGradient>
    </defs>
    <g id="Illustrations-(READY)" stroke="none" stroke-width="1" fill="none" fill-rule="evenodd">
        <g id="Program-Detail-hero">
            <g id="Global">
                <g id="bg">
                    <path d="M590.737577,-15.1622418 C592.115904,-13.0842881 592.801198,-12.0294366 594.528022,-11.6748528 C597.126399,-11.137135 598.349574,-12.6775346 600.439703,-14.0627687 C600.583499,-10.4218795 603.68091,-7.95759261 608.015651,-7.06265664 C609.742638,-6.70494702 612.521024,-7.03861917 614.613951,-8.43026867 C615.296283,-7.3721275 614.154181,6.83947975 621.0873,8.27213352 C622.814287,8.62984314 623.85598,7.93270121 625.589546,8.2963348 C624.691648,12.6343659 621.056028,12.7590786 620.338302,16.2288456 C619.44024,20.5637509 623.413982,23.1827119 622.343488,28.3541319 C621.265909,33.5698046 615.210432,32.3168314 613.954497,38.3755979 C613.064502,42.6850054 616.34143,44.268525 615.978452,46.0145945 C615.803549,46.8637762 615.803549,46.8637762 614.935285,46.6836042 C613.211259,46.3226049 612.01294,43.3732614 608.552878,42.6612955 C607.687576,42.4778339 601.779348,44.8718377 600.523085,50.9243527 C597.927834,50.386471 596.559212,48.3142776 593.960671,47.773434 C589.632345,46.8812962 591.007219,48.953162 587.871124,51.0138212 C586.495922,48.9357038 584.951742,47.7001888 582.353528,47.1655968 C580.626378,46.8047614 578.890013,46.4475432 576.980056,46.9645131 C575.609632,44.8579358 575.286156,42.0946882 572.684489,41.5540084 C571.822477,41.3735088 570.774532,42.0709784 569.90923,41.8875168 C569.044419,41.7134326 560.692057,21.0348036 558.453697,18.7543059 C559.168461,15.2878286 562.483076,12.3872012 563.198004,8.9238497 C563.733087,6.3350139 562.359537,4.22860042 562.029319,1.45630301 C576.78095,-0.0157653006 567.166402,-14.6353 583.609299,-11.2280022 C587.066399,-10.5127468 588.82762,-14.6452718 590.737577,-15.1622418 Z" id="Path" fill="#2793E1"></path>
                    <path d="M828.647065,145.461672 C829.563834,145.651346 830.030882,144.555465 830.537373,144.418373 C830.902884,144.969414 831.084613,145.249144 831.54254,145.343174 C832.231589,145.485768 832.555956,145.077278 833.110226,144.709936 C833.148358,145.675443 833.969743,146.328933 835.119249,146.566257 C835.577219,146.661116 836.314004,146.572631 836.869016,146.203587 C837.04996,146.48419 836.747092,150.252887 838.585647,150.632804 C839.043617,150.727663 839.319858,150.542792 839.779573,150.639222 C839.541464,151.7896 838.577354,151.822672 838.387024,152.7428 C838.148872,153.89235 839.202647,154.586857 838.918769,155.958238 C838.633012,157.341353 837.027193,157.009084 836.694139,158.615774 C836.458126,159.758562 837.327116,160.178487 837.23086,160.641517 C837.184479,160.866707 837.184479,160.866707 836.954228,160.818928 C836.497044,160.723197 836.179268,159.941077 835.261714,159.752275 C835.032249,159.703623 833.465479,160.338476 833.132337,161.943509 C832.444117,161.800871 832.08118,161.251357 831.392087,161.107934 C830.244283,160.871353 830.608878,161.42078 829.777234,161.967234 C829.412552,161.41615 829.00306,161.088511 828.314054,160.946745 C827.85604,160.851057 827.395583,160.756329 826.889093,160.893421 C826.525677,160.334789 826.439897,159.602019 825.749975,159.458639 C825.521383,159.410774 825.243484,159.595732 825.01402,159.547081 C824.784685,159.500916 822.569769,154.017266 821.97619,153.412513 C822.165735,152.493257 823.044719,151.724056 823.234307,150.805629 C823.376203,150.11911 823.011959,149.560522 822.92439,148.825352 C826.836293,148.434982 824.286664,144.558109 828.647065,145.461672" id="Path" fill="#2793E1"></path>
                    <path d="M60.9506658,351.241675 C61.6942328,350.41586 62.5437562,350.441151 64.2312608,350.473301 C64.4982702,349.218392 62.4717257,346.64602 63.9548621,344.99883 C70.9867673,337.189109 59.0897226,336.912083 62.6175778,328.150091 C60.8017638,327.270827 59.0935393,327.220021 57.6535066,325.92341 C55.7369162,324.197704 54.9408563,321.23794 53.0190859,319.507571 C50.9350803,319.874112 35.6750501,316.561001 35.3072643,316.969469 C35.2872759,316.991668 35.2828275,317.027859 35.2628391,317.050059 C34.5371712,313.012083 34.167126,308.683319 33.8816659,308.281581 C33.4954217,307.773017 33.1119929,307.25091 32.6394253,307.556992 C32.6394253,307.556992 32.8297144,314.939657 34.3975312,318.875693 C33.2784122,319.733171 31.6219952,318.989389 30.0474377,318.946386 C29.8048651,320.142904 29.1259924,320.938537 28.4224021,321.719953 C28.4843403,321.421989 28.5267408,321.114473 28.5655945,320.779646 C28.1793502,320.271082 26.4805326,319.834816 26.007965,320.140898 C25.0616475,320.743959 25.8221429,321.774406 26.2055717,322.296513 C26.4010585,322.569003 26.7487375,322.745385 27.0822289,322.81252 C26.2770122,323.269289 25.3864405,323.456259 24.2811253,323.433794 C24.6006276,325.964464 26.2984921,326.005941 24.4515676,328.057159 C23.3402148,329.291441 21.6423502,329.249963 20.5269997,330.488686 C23.8888028,333.515667 23.5918652,337.710161 23.216084,338.127509 C21.7329477,339.774699 19.5625232,339.299686 18.8189562,340.125501 C18.443175,340.542848 18.443175,340.542848 18.9041927,340.957951 C19.8780278,341.834796 21.844084,340.630468 24.232052,342.780604 C27.5886752,345.802921 25.006179,348.671074 27.8966045,351.273625 C30.7663101,353.857519 33.5795252,352.660275 35.9882131,354.829067 C37.9151634,356.564101 36.8890471,358.630833 39.297735,360.799625 C40.0333066,359.98269 39.9221703,359.126921 40.6657373,358.301106 C43.6280123,355.011166 52.059843,361.115934 52.9133641,361.136785 C52.6842783,359.443229 53.3127113,357.766085 54.0522806,356.94471 C55.9072005,354.884612 58.3601743,354.118708 60.6445505,355.435946 C60.4206446,353.747054 59.8393129,352.475958 60.9506658,351.241675 L60.9506658,351.241675" id="Path" fill="#2793E1"></path>
                    <path d="M935.097676,282.375909 C933.239293,282.375909 932.320093,281.56245 930.471702,279.961772 C928.61332,280.766484 927.684128,284.816288 923.977355,284.816288 C906.402651,284.816288 919.371364,296.143492 904.534277,300.21079 C905.47346,302.642421 907.321851,304.278087 907.321851,306.709719 C907.321851,309.946063 904.534277,313.17366 904.534277,316.418751 C907.321851,318.054417 920.280572,335.067091 921.199772,335.067091 C921.249729,335.067091 921.299685,335.04085 921.349642,335.04085 C917.143303,339.108148 912.177625,343.087977 911.997781,343.691511 C911.797955,344.47873 911.578147,345.274696 912.487355,345.45838 C912.487355,345.45838 921.449555,339.081907 924.586824,334.31486 C926.904807,334.638494 927.833998,336.807719 929.542511,338.312182 C931.30098,337.53371 933.049458,337.498723 934.807928,337.498723 C934.368311,337.691154 933.938684,337.909826 933.479085,338.154738 C933.279258,338.941957 934.638076,340.892511 935.547284,341.076195 C937.35571,341.452311 937.785336,339.877873 938.005145,339.081907 C938.125041,338.670804 937.955189,338.198473 937.665441,337.831104 C939.134162,338.198473 940.363093,338.871982 941.572041,339.921607 C944.359614,337.498723 942.511223,335.880551 947.127206,335.880551 C949.904788,335.880551 951.753179,337.498723 954.540753,337.498723 C954.540753,331.822 960.085927,328.576909 961.025109,328.576909 C964.731883,328.576909 966.570283,330.999794 968.428665,330.999794 C969.367848,330.999794 969.367848,330.999794 969.367848,330.221322 C969.367848,328.576909 965.671065,327.754703 965.671065,323.722393 C965.671065,318.054417 972.125448,318.054417 972.125448,313.17366 C972.125448,308.327891 967.489483,306.709719 967.489483,302.642421 C967.489483,299.388583 971.206248,298.610112 971.206248,294.542814 C969.367848,294.542814 968.428665,295.36502 966.570283,295.36502 C959.166727,295.36502 957.318335,282.375909 956.389144,281.56245 C954.540753,283.198116 951.753179,284.020322 949.904788,284.020322 C945.268823,284.020322 941.572041,282.375909 940.652841,279.139565 C938.804449,280.766484 937.875258,282.375909 935.097676,282.375909 L935.097676,282.375909" id="Path" fill="#2793E1"></path>
                    <path d="M379.563398,396.236344 C377.705016,396.236344 376.785816,395.422885 374.937425,393.822206 C373.079042,394.626919 372.149851,398.676723 368.443077,398.676723 C350.868374,398.676723 363.837086,410.003927 349,414.071225 C349.939183,416.502856 351.787574,418.138522 351.787574,420.570153 C351.787574,423.806498 349,427.034095 349,430.279186 C351.787574,431.914852 364.746295,448.927526 365.665495,448.927526 C365.715451,448.927526 365.765408,448.901285 365.815364,448.901285 C361.609025,452.968583 356.643347,456.948411 356.463504,457.551946 C356.263678,458.339165 356.043869,459.13513 356.953078,459.318815 C356.953078,459.318815 365.915277,452.942342 369.052547,448.175294 C371.370529,448.498929 372.29972,450.668154 374.008233,452.172617 C375.766703,451.394145 377.515181,451.359157 379.273651,451.359157 C378.834033,451.551589 378.404407,451.770261 377.944807,452.015173 C377.744981,452.802392 379.103798,454.752945 380.013007,454.93663 C381.821433,455.312745 382.251059,453.738308 382.470868,452.942342 C382.590763,452.531239 382.420911,452.058907 382.131163,451.691539 C383.599885,452.058907 384.828815,452.732417 386.037763,453.782042 C388.825337,451.359157 386.976946,449.740985 391.592928,449.740985 C394.370511,449.740985 396.218902,451.359157 399.006476,451.359157 C399.006476,445.682435 404.551649,442.437344 405.490832,442.437344 C409.197605,442.437344 411.036005,444.860228 412.894388,444.860228 C413.83357,444.860228 413.83357,444.860228 413.83357,444.081756 C413.83357,442.437344 410.136788,441.615137 410.136788,437.582828 C410.136788,431.914852 416.59117,431.914852 416.59117,427.034095 C416.59117,422.188326 411.955205,420.570153 411.955205,416.502856 C411.955205,413.249018 415.67197,412.470546 415.67197,408.403249 C413.83357,408.403249 412.894388,409.225455 411.036005,409.225455 C403.632449,409.225455 401.784058,396.236344 400.854867,395.422885 C399.006476,397.058551 396.218902,397.880757 394.370511,397.880757 C389.734546,397.880757 386.037763,396.236344 385.118563,393 C383.270172,394.626919 382.340981,396.236344 379.563398,396.236344 L379.563398,396.236344" id="Path" fill="#2793E1"></path>
                    <path d="M1305.82764,-34.6740799 C1302.83075,-33.3763708 1301.3323,-26.845509 1295.35462,-26.845509 C1267.01301,-26.845509 1287.92683,-8.57884345 1264,-2.01977051 C1265.51456,1.90156772 1268.49534,4.53930243 1268.49534,8.46064066 C1268.49534,13.6796879 1264,18.8846297 1264,24.1177825 C1268.49534,26.7555172 1289.39305,54.1907793 1290.87539,54.1907793 C1284.33378,60.7075356 1276.32594,67.1255532 1276.03592,68.098835 C1275.71367,69.368333 1275.3592,70.6519365 1276.82542,70.9481527 C1276.82542,70.9481527 1291.2782,60.665219 1296.33747,52.9777034 C1300.07554,53.4996082 1301.57398,56.9977804 1304.32919,59.4239321 C1307.16497,58.1685397 1309.98463,58.1121175 1312.8204,58.1121175 C1312.11146,58.4224393 1311.41863,58.7750776 1310.67746,59.1700325 C1310.35521,60.4395305 1312.54649,63.5850644 1314.01271,63.8812806 C1316.92905,64.4878185 1317.62188,61.9488226 1317.97635,60.665219 C1318.1697,60.002259 1317.89579,59.2405602 1317.42853,58.6481278 C1319.79704,59.2405602 1321.77886,60.3266862 1323.72846,62.0193502 C1328.2238,58.1121175 1325.24302,55.5025939 1332.68692,55.5025939 C1337.16615,55.5025939 1340.14693,58.1121175 1344.64228,58.1121175 C1344.64228,48.9576265 1353.58463,43.7244737 1355.09919,43.7244737 C1361.07687,43.7244737 1364.04154,47.6317064 1367.03843,47.6317064 C1368.55299,47.6317064 1368.55299,47.6317064 1368.55299,46.3763139 C1368.55299,43.7244737 1362.59143,42.3985535 1362.59143,35.8959027 C1362.59143,26.7555172 1373,26.7555172 1373,18.8846297 C1373,11.0701643 1365.52387,8.46064066 1365.52387,1.90156772 C1365.52387,-3.34569063 1371.51766,-4.60108309 1371.51766,-11.160156 C1368.55299,-11.160156 1367.03843,-9.83423591 1364.04154,-9.83423591 C1352.10229,-9.83423591 1349.12151,-30.7809527 1347.62306,-32.0927673 C1344.64228,-29.4550326 1340.14693,-28.1291125 1337.16615,-28.1291125 C1329.69002,-28.1291125 1323.72846,-30.7809527 1322.24612,-36 C1319.26534,-33.3763708 1317.76689,-30.7809527 1313.28766,-30.7809527 C1310.29076,-30.7809527 1308.80843,-32.0927673 1305.82764,-34.6740799 Z" id="Path" fill="#2793E1"></path>
                    <path d="M1171.22793,171.389301 C1171.43402,171.421942 1171.51739,171.551734 1171.61879,171.567792 C1171.92627,171.616493 1172.18251,171.311081 1172.21912,171.079947 C1172.2902,170.63113 1172.22613,170.386558 1172.26197,170.160315 C1172.55683,169.625341 1172.83037,169.203576 1173.29289,168.929583 C1174.31562,169.091567 1174.88625,170.11087 1175.499,170.207922 C1175.499,170.207922 1175.61841,170.110248 1175.63642,169.996515 C1174.75293,169.625919 1173.9422,168.803012 1174.10413,167.78064 C1174.35554,166.193274 1176.14998,165.43448 1176.77443,164.138115 L1178.17848,164.360495 C1177.74601,164.694407 1177.23498,165.146252 1177.09901,165.498293 C1177.09901,165.498293 1177.05804,165.607137 1177.15316,165.648528 C1177.5498,165.219934 1178.17852,164.724048 1178.54658,164.418795 L1178.71299,164.445153 C1178.67564,164.424194 1178.62889,164.405507 1178.58914,164.385422 C1178.73336,164.266606 1178.83209,164.178194 1178.84245,164.148493 C1178.88503,164.043667 1178.9271,163.934997 1178.82977,163.893257 C1178.82977,163.893257 1178.60442,164.039337 1178.31836,164.254782 C1177.80393,164.029138 1177.20849,163.85836 1176.72468,163.781732 C1176.62329,163.765673 1176.4012,163.848337 1176.19731,163.816044 C1175.68595,163.735052 1175.69264,163.036597 1175.78212,162.471602 C1176.03373,160.883012 1177.18199,162.22823 1177.34372,161.207081 C1177.38963,160.917246 1176.32938,160.870918 1175.93842,160.12954 C1176.03302,160.167088 1176.11359,159.95796 1176.15618,159.853134 C1176.10073,159.703947 1176.10073,159.703947 1176.00651,159.663953 C1175.94459,159.634087 1175.86552,159.655412 1175.8074,159.701366 C1175.80617,159.694902 1175.80455,159.690884 1175.80532,159.685992 L1177.03474,159.184959 C1177.13723,159.201193 1177.15544,159.086237 1177.15544,159.086237 C1177.20929,158.746262 1176.85517,158.342925 1176.64908,158.310284 C1176.3427,158.261758 1176.08627,158.568393 1175.98487,158.552334 C1175.47351,158.471342 1175.45979,157.887493 1175.41205,157.532682 C1175.85656,157.372421 1176.31928,157.097205 1176.40935,156.528541 C1176.42717,156.416031 1176.44479,156.304744 1176.23981,156.272278 C1176.13731,156.256044 1175.81441,156.31898 1175.5916,156.399023 C1174.87635,156.285739 1174.31816,155.851333 1174.44386,155.057649 C1174.49771,154.717674 1175.7999,153.76433 1175.7999,153.76433 L1174.33505,153.761732 C1174.33175,153.761209 1174.32805,153.763131 1174.32566,153.764005 C1174.29611,153.572537 1174.14734,153.36344 1174.00385,153.299344 C1173.8116,153.214989 1173.40321,153.411058 1173.27818,153.72973 C1173.2776,153.733399 1173.28084,153.741434 1173.27988,153.747549 C1172.79203,153.439617 1172.19484,152.958921 1171.88793,152.678392 C1172.04986,151.656021 1172.87352,151.091975 1172.94538,150.638267 C1172.96358,150.523311 1172.87833,150.398237 1172.77694,150.382178 C1172.06279,150.269068 1171.79414,151.965276 1170.97639,151.835758 C1170.66891,151.787058 1170.39837,151.512289 1170.45202,151.173537 C1170.46461,151.094046 1170.52459,151.022062 1170.57255,150.911819 C1170.59032,150.920901 1170.60517,150.927013 1170.62643,150.935396 C1170.85706,150.913003 1170.85706,150.913003 1170.89783,150.805382 C1171.02066,150.486362 1170.16516,150.110171 1170.06803,150.067208 C1170.10478,150.163288 1170.10327,150.237012 1170.0956,150.299731 C1169.86921,150.459438 1169.54155,150.794908 1169.16134,150.734688 C1168.2433,150.589285 1168.36901,149.795602 1168.51215,148.891855 C1168.35471,149.215422 1168.09717,149.521882 1167.79079,149.473357 C1167.28053,149.392539 1167.06402,148.776573 1166.65515,148.711814 C1166.34877,148.663288 1166.27191,149.811957 1164.53613,149.537037 C1164.12836,149.472453 1164.15047,148.662361 1164.18592,148.438565 C1162.92606,148.468434 1163.25027,150.380142 1161.61699,150.121456 C1161.4131,150.089163 1161.14165,149.812998 1160.93887,149.78088 C1160.67878,149.739686 1160.51652,150.043687 1160.33531,150.396084 L1160.26567,150.364996 L1160.31492,150.439237 C1160.0724,150.914806 1159.7942,151.458688 1159.22112,151.36792 C1159.01503,151.335279 1158.84769,151.079365 1158.66111,150.930719 C1158.55447,151.019132 1158.44644,151.073479 1158.34042,151.108084 C1158.25944,150.884652 1158.14412,150.678346 1158.0479,150.63678 C1157.85695,150.551377 1157.76422,150.509112 1157.62522,150.573595 C1157.53579,150.810153 1157.55951,151.016995 1157.63625,151.195879 C1157.35254,151.232429 1157.0899,151.350039 1156.86852,151.849014 C1156.63127,151.734966 1156.51665,151.716813 1156.39738,152.027622 C1156.3546,152.133671 1156.36967,152.388034 1156.56302,152.472563 C1156.59343,152.487408 1156.62533,152.499983 1156.65613,152.512382 C1156.61288,152.699842 1156.57023,152.904947 1156.5313,153.150756 C1156.02544,153.070637 1155.43913,152.863695 1154.95148,152.66862 C1155.36029,152.327199 1155.72169,152.049725 1155.74479,151.98945 C1155.78427,151.882878 1155.82614,151.775431 1155.72992,151.733865 C1155.72992,151.733865 1154.24481,152.70086 1153.99915,153.338901 C1153.99915,153.338901 1153.95948,153.446697 1154.0535,153.487914 C1154.20191,153.328392 1154.38609,153.156985 1154.5741,152.989946 C1154.52265,153.535893 1155.27389,153.885543 1155.72006,154.299699 C1155.06666,155.122628 1154.19169,156.032065 1153.48964,156.498785 C1153.38714,156.482552 1153.30208,156.356255 1153.19959,156.340021 C1152.9957,156.307729 1152.77328,156.385326 1152.73687,156.615238 C1152.7677,157.083956 1153.06926,157.82622 1153.23784,158.088598 C1152.89452,158.26614 1152.01383,159.867917 1151.19608,159.738399 L1149.46031,159.463479 C1149.84987,159.643019 1151.16025,159.964642 1151.12422,160.192107 C1151.08858,160.417127 1150.94968,160.630805 1150.93205,160.742092 C1150.89602,160.969557 1150.98108,161.095855 1151.06427,161.226869 C1151.28636,161.144206 1151.50988,161.066783 1151.81626,161.115308 C1152.11603,161.162787 1152.39312,161.332035 1152.52594,161.648924 C1152.49167,161.679851 1152.46045,161.720036 1152.44052,161.774546 C1152.39735,161.883041 1152.49468,161.924781 1152.49468,161.924781 C1152.51906,161.934911 1152.5547,161.916737 1152.59247,161.885111 C1152.59976,161.938918 1152.60796,161.994122 1152.60988,162.053346 C1152.44853,163.072048 1151.66032,163.412297 1151.49839,164.434669 C1151.48077,164.545956 1151.54743,164.788432 1151.51159,165.014674 C1151.43973,165.468382 1150.94768,165.272609 1150.85761,165.841273 C1150.80396,166.180025 1151.17551,166.473298 1151.15788,166.584585 L1151.13967,166.69954 C1151.56675,166.649344 1152.07922,166.730511 1152.69088,166.827387 C1153.382,167.749191 1153.683,170.470816 1154.49483,171.293898 C1154.9026,171.358482 1155.0942,170.812166 1155.40057,170.860692 C1156.28426,171.230065 1156.4356,171.601284 1156.36374,172.054992 C1156.32732,172.284904 1156.18919,172.49369 1156.15355,172.71871 C1156.11733,172.947398 1156.20181,173.077364 1156.50709,173.125715 C1156.97129,172.848228 1157.02495,172.509475 1157.6355,172.606177 C1159.26989,172.865039 1158.08262,174.419513 1158.79787,174.532797 C1159.19682,174.595985 1159.52499,173.943433 1160.23408,173.7461 C1160.11906,173.801845 1160.02176,173.895498 1159.95943,174.053611 C1159.83569,174.371234 1160.08028,174.603029 1160.36856,174.730172 C1160.65373,174.855569 1161.06282,174.66212 1161.18475,174.341702 C1161.30777,174.021459 1161.25323,173.873669 1161.1572,173.83088 C1161.03147,173.775867 1160.88216,173.727145 1160.72845,173.699039 C1160.79094,173.703922 1160.84966,173.696926 1160.91799,173.707748 C1162.65267,173.982494 1161.29553,175.275638 1162.21577,175.42139 C1162.84726,175.521408 1162.54552,174.295223 1163.31512,174.143828 C1163.37483,174.266111 1163.46176,174.366378 1163.56205,174.382262 C1163.6458,174.395528 1163.74053,174.325285 1163.79138,174.175385 C1164.44269,174.349998 1164.91134,175.035986 1165.20118,175.081893 C1165.40507,175.114185 1165.93965,174.385261 1166.01131,173.932776 C1166.52158,174.013594 1166.71897,174.743118 1167.12894,174.808052 C1167.35084,174.726611 1167.36904,174.611655 1167.38706,174.497923 C1167.44071,174.15917 1167.25445,174.015591 1167.32631,173.561883 C1167.34433,173.44815 1168.35743,172.329928 1169.37906,172.491738 C1169.48156,172.507971 1169.6498,172.765283 1169.69676,173.124986 C1169.66132,173.348783 1169.91404,173.736061 1170.11903,173.768528 C1170.33963,173.688135 1170.45975,173.593082 1170.47796,173.478126 C1170.54963,173.025641 1170.21501,172.5063 1170.26886,172.166325 C1170.34053,171.71384 1171.02514,171.357183 1171.22793,171.389301 L1171.22793,171.389301" id="Path" fill="#2793E1"></path>
                    <path d="M748.823933,210.852588 C748.753099,210.806587 748.74494,210.742856 748.710091,210.720225 C748.604408,210.651594 748.455499,210.728306 748.401257,210.811831 C748.295929,210.974022 748.276731,211.079049 748.223637,211.160807 C748.020015,211.320111 747.84422,211.439053 747.62419,211.470207 C747.27267,211.241928 747.239877,210.755051 747.029268,210.61828 C747.029268,210.61828 746.967729,210.636749 746.941038,210.677849 C747.204144,210.964321 747.360682,211.414064 747.120753,211.783523 C746.748231,212.357156 745.948079,212.360288 745.48812,212.760901 L745.005538,212.447508 C745.224938,212.3883 745.494262,212.296167 745.606681,212.181936 C745.606681,212.181936 745.64104,212.146443 745.612975,212.115024 C745.390244,212.216679 745.069448,212.306801 744.879021,212.365347 L744.821823,212.328203 C744.832016,212.342362 744.8461,212.357163 744.857337,212.371372 C744.78286,212.394005 744.73063,212.412237 744.721561,212.422055 C744.687306,212.45573 744.652569,212.490976 744.681391,212.522888 C744.681391,212.522888 744.79081,212.502839 744.934976,212.465773 C745.086443,212.636393 745.277651,212.798892 745.443941,212.906882 C745.47879,212.929513 745.575844,212.933479 745.645921,212.978988 C745.821681,213.093127 745.696386,213.362359 745.563793,213.566533 C745.190985,214.140608 745.000872,213.434073 744.76123,213.803089 C744.693212,213.907828 745.07901,214.097422 745.093914,214.447647 C745.065368,214.417799 744.99866,214.48569 744.964405,214.519364 C744.958777,214.586081 744.958777,214.586081 744.986749,214.616813 C745.004506,214.638397 745.037634,214.642946 745.067308,214.634571 C745.06663,214.637272 745.066527,214.63909 745.065379,214.640858 L744.520485,214.635714 C744.485257,214.612836 744.45828,214.654378 744.45828,214.654378 C744.378494,214.777237 744.43915,214.99067 744.509984,215.03667 C744.615288,215.105055 744.764484,215.027901 744.799333,215.050532 C744.975093,215.164672 744.877533,215.392854 744.832884,215.537901 C744.639544,215.527955 744.419227,215.55955 744.285774,215.765051 C744.25937,215.805709 744.233253,215.845925 744.303709,215.891679 C744.338937,215.914556 744.469979,215.94248 744.566838,215.947576 C744.812674,216.107224 744.943693,216.365723 744.757433,216.65254 C744.677647,216.775398 744.026186,216.933524 744.026186,216.933524 L744.57,217.1717 C744.571137,217.172438 744.572847,217.172292 744.573892,217.172342 C744.551205,217.251228 744.569715,217.356239 744.61176,217.404278 C744.66836,217.468051 744.854572,217.45829 744.957061,217.355202 C744.957922,217.353876 744.958129,217.350241 744.959564,217.348031 C745.086683,217.546193 745.224049,217.82892 745.288759,217.987181 C745.048829,218.35664 744.643618,218.441578 744.537142,218.605537 C744.510165,218.647079 744.51985,218.709288 744.554699,218.731919 C744.800156,218.891321 745.198221,218.278356 745.479285,218.460881 C745.584968,218.529513 745.637178,218.679656 745.55768,218.802073 C745.539025,218.830798 745.504082,218.848947 745.466877,218.883847 C745.461873,218.877455 745.457431,218.872686 745.451003,218.865998 C745.361376,218.837325 745.361376,218.837325 745.327305,218.872375 C745.225573,218.975955 745.477292,219.260059 745.505827,219.292413 C745.509066,219.249278 745.52259,219.22099 745.536469,219.197959 C745.648666,219.172803 745.829394,219.096021 745.960078,219.180888 C746.275612,219.385798 746.089351,219.672614 745.877261,219.999205 C745.992652,219.89947 746.142227,219.822562 746.247532,219.890948 C746.422913,220.004841 746.39505,220.278285 746.535583,220.369548 C746.640887,220.437933 746.871418,220.005823 747.468017,220.393259 C747.60817,220.484275 747.457516,220.794215 747.404995,220.875089 C747.878354,221.067511 748.094027,220.275153 748.655398,220.639711 C748.725475,220.68522 748.777777,220.836051 748.847474,220.881313 C748.936869,220.939367 749.050608,220.847983 749.179901,220.74094 L749.200309,220.764246 L749.195065,220.72754 C749.368795,220.582753 749.567791,220.417303 749.764763,220.545218 C749.835598,220.591219 749.852775,220.717355 749.895966,220.805094 C749.951134,220.788142 750.000827,220.784599 750.046306,220.788373 C750.037107,220.887955 750.043679,220.98647 750.072122,221.018136 C750.128056,221.082106 750.155076,221.113475 750.218061,221.111025 C750.292885,221.033953 750.320438,220.95006 750.323381,220.868405 C750.435219,220.900193 750.553487,220.897201 750.723475,220.739932 C750.791576,220.822484 750.83097,220.848067 750.929935,220.747089 C750.964477,220.712972 751.003603,220.61209 750.946625,220.54807 C750.937935,220.537401 750.928294,220.52737 750.919031,220.517584 C750.968061,220.452036 751.019972,220.379563 751.077659,220.290734 C751.251524,220.403643 751.432986,220.578663 751.579874,220.733114 C751.367946,220.799061 751.184878,220.847934 751.165695,220.867521 C751.13229,220.902375 751.09784,220.93718 751.126283,220.968845 C751.126283,220.968845 751.848109,220.835052 752.051573,220.627893 C752.051573,220.627893 752.085265,220.592597 752.05758,220.561423 C751.97439,220.599133 751.875818,220.63565 751.776592,220.669857 C751.891702,220.466896 751.674052,220.209942 751.581096,219.977418 C751.968567,219.764721 752.453575,219.554418 752.796489,219.487457 C752.831717,219.510334 752.841115,219.572985 752.876343,219.595862 C752.94642,219.641371 753.042705,219.647351 753.09666,219.564267 C753.167621,219.377873 753.186085,219.041778 753.169585,218.91294 C753.328363,218.899813 753.937231,218.422489 754.218295,218.605014 L754.814893,218.99245 C754.701718,218.859891 754.271389,218.523256 754.324771,218.441056 C754.377578,218.359739 754.466761,218.299533 754.492878,218.259316 C754.546259,218.177116 754.536861,218.114465 754.52899,218.050292 C754.431936,218.046325 754.335272,218.040099 754.229967,217.971714 C754.126936,217.904804 754.05374,217.794439 754.060107,217.650292 C754.078279,217.643871 754.096944,217.633374 754.113934,217.615504 C754.14905,217.580504 754.120228,217.548592 754.120228,217.548592 C754.11295,217.540725 754.096512,217.541988 754.076917,217.548112 C754.083668,217.526107 754.090327,217.503414 754.100028,217.480183 C754.339096,217.11205 754.691787,217.107986 754.931716,216.738528 C754.957833,216.698311 754.9757,216.593676 755.028794,216.511918 C755.13527,216.34796 755.283673,216.503395 755.417127,216.297895 C755.496625,216.175479 755.41014,216.00182 755.436257,215.961604 L755.463234,215.920062 C755.295724,215.870341 755.119586,215.755956 754.909356,215.619431 C754.814644,215.150777 755.181351,214.048725 755.024434,213.598736 C754.88428,213.50772 754.717034,213.688133 754.61173,213.619748 C754.348337,213.333717 754.35738,213.165546 754.463855,213.001588 C754.517811,212.918504 754.605846,212.860065 754.658653,212.778749 C754.712322,212.696107 754.703785,212.63213 754.598859,212.56399 C754.377589,212.596224 754.298091,212.71864 754.08824,212.582361 C753.52649,212.217557 754.24095,211.808176 753.995113,211.648528 C753.85799,211.559479 753.621319,211.758895 753.323155,211.720459 C753.375694,211.717508 753.428315,211.697016 753.479272,211.645915 C753.581096,211.543023 753.530974,211.413713 753.446219,211.317832 C753.362312,211.223131 753.176295,211.231763 753.074655,211.33603 C752.972637,211.440051 752.966917,211.506079 752.995073,211.538187 C753.032113,211.579834 753.079026,211.622866 753.131196,211.65863 C753.108835,211.646622 753.085786,211.639822 753.062301,211.624571 C752.466081,211.237381 753.197706,210.956643 752.881415,210.75124 C752.664366,210.610288 752.560879,211.133697 752.248311,211.067685 C752.247625,211.010692 752.232958,210.957813 752.198488,210.935428 C752.169699,210.916733 752.122153,210.928581 752.0769,210.978361 C751.865605,210.80533 751.812096,210.463964 751.712474,210.399269 C751.642397,210.35376 751.315604,210.549314 751.209415,210.712831 C751.034034,210.598937 751.088966,210.284639 750.948055,210.19313 C750.851288,210.188722 750.82431,210.230264 750.797619,210.271364 C750.718121,210.39378 750.762081,210.479505 750.655605,210.643463 C750.628915,210.684563 750.055872,210.953305 749.704731,210.725271 C749.669503,210.702394 749.652234,210.57557 749.698031,210.428754 C749.750551,210.34788 749.724745,210.157078 749.65429,210.111324 C749.558188,210.10672 749.496844,210.124059 749.469866,210.165601 C749.363677,210.329117 749.396689,210.584288 749.316904,210.707146 C749.210715,210.870663 748.893631,210.89785 748.823933,210.852588 L748.823933,210.852588" id="Path-Copy" fill="#2793E1"></path>
                    <path d="M489.841308,307.999535 C489.532827,308.156714 489.510793,308.616407 489.635018,308.860213 C489.876238,309.333634 490.099765,309.523594 490.221361,309.76224 C490.320683,310.465575 490.362195,311.047252 490.134059,311.613584 C489.108,312.136387 487.904487,311.545575 487.289736,311.858806 C487.289736,311.858806 487.249141,312.030604 487.310268,312.150571 C488.353333,311.918081 489.638484,312.163445 490.187967,313.241866 C491.041111,314.916256 489.949367,316.824424 490.270713,318.469177 L488.862094,319.186904 C489.022613,318.583531 489.173375,317.816142 489.056009,317.39173 C489.056009,317.39173 489.018758,317.261221 488.905445,317.284834 C488.841349,317.954445 488.615095,318.841543 488.492802,319.375068 L488.325846,319.460136 C488.373537,319.455335 488.428102,319.442157 488.477348,319.434939 C488.428891,319.64324 488.40052,319.79256 488.411423,319.827626 C488.444491,319.955392 488.480635,320.086464 488.596159,320.061724 C488.596159,320.061724 488.698769,319.773835 488.808619,319.379889 C489.422665,319.253877 490.071981,319.022152 490.557369,318.774834 C490.65909,318.723005 490.801855,318.497524 491.006403,318.393302 C491.519432,318.1319 491.987914,318.799878 492.291575,319.395847 C493.145377,321.071528 491.203096,320.553284 491.751922,321.630415 C491.907696,321.936139 492.888796,321.278632 493.742589,321.724285 C493.632354,321.751205 493.702254,322.003192 493.735321,322.130957 C493.886333,322.235999 493.886333,322.235999 493.997882,322.211659 C494.073633,322.19906 494.129966,322.126485 494.150801,322.044375 C494.156299,322.049698 493.402331,323.347044 493.402331,323.347044 C493.299504,323.399437 493.361288,323.520695 493.361288,323.520695 C493.544011,323.879309 494.135173,324.028187 494.341932,323.922838 C494.649308,323.766223 494.670685,323.30524 494.772406,323.25341 C495.285435,322.992009 495.694344,323.537602 495.978131,323.843096 C495.688868,324.28946 495.461388,324.857082 495.767022,325.456922 C495.827491,325.575599 495.887303,325.692987 496.092957,325.588201 C496.195784,325.535808 496.442242,325.262368 496.587426,325.038905 C497.305004,324.67328 498.100057,324.716646 498.526629,325.553842 C498.709352,325.912455 498.190658,327.679753 498.190658,327.679753 L499.504426,326.713003 C499.667834,326.866974 499.943123,326.967189 500.115184,326.93314 C500.344678,326.886077 500.577257,326.429598 500.472767,326.044122 C501.105273,325.998073 501.966691,326.05962 502.432149,326.123059 C502.981632,327.20148 502.62708,328.282315 502.870929,328.760897 C502.932713,328.882154 503.094038,328.944569 503.195759,328.89274 C503.912231,328.527679 503.000589,326.738481 503.820994,326.320464 C504.129475,326.163285 504.558446,326.245315 504.740511,326.602639 C504.783234,326.686487 504.778414,326.794561 504.810345,326.931029 C504.554721,327.118147 504.554721,327.118147 504.591314,327.247365 C504.698016,327.631714 505.719803,327.423064 505.835985,327.399614 C505.7378,327.33265 505.68907,327.261612 505.653337,327.19695 C505.747611,326.895434 505.81319,326.359934 506.194645,326.165573 C507.115665,325.69629 507.542237,326.533485 508.027964,327.486778 C507.949174,327.075208 507.971657,326.613662 508.279032,326.457046 C508.790956,326.196208 509.403307,326.638142 509.813509,326.429133 C510.120885,326.272518 509.40942,325.130392 511.150845,324.243092 C511.559941,324.034647 512.090446,324.818885 512.210728,325.054951 C513.318842,324.192987 511.729799,322.591328 513.368397,321.756421 C513.572945,321.652198 514.003679,321.734955 514.207122,321.631296 C514.468059,321.498342 514.406868,321.102178 514.329785,320.647491 C514.212889,319.980733 514.09259,319.279962 514.667537,318.987012 C514.874296,318.881663 515.19802,319.014069 515.466116,319.031831 C515.501569,318.877277 515.561403,318.754172 515.632859,318.651144 C515.857165,318.809833 516.100599,318.929529 516.215017,318.905352 C516.444063,318.860142 516.555822,318.838946 516.636516,318.685714 C516.555921,318.401803 516.394159,318.220995 516.203914,318.101821 C516.433185,317.879385 516.588535,317.593871 516.447849,316.973357 C516.737824,316.924725 516.852813,316.866135 516.748501,316.491942 C516.714776,316.362887 516.528486,316.131206 516.297886,316.178833 C516.260564,316.184851 516.22345,316.194012 516.187442,316.20261 C516.098832,315.995903 515.997704,315.772826 515.865591,315.513541 C516.373092,315.254956 517.03881,315.06362 517.608094,314.926293 C517.473873,315.521143 517.338673,316.023872 517.358926,316.096421 C517.395968,316.223787 517.431455,316.353569 517.545874,316.329392 C517.545874,316.329392 518.219127,314.428096 518.005723,313.659398 C518.005723,313.659398 517.968024,313.530743 517.855817,313.553793 C517.831262,313.803536 517.782738,314.08824 517.72782,314.371328 C517.403028,313.818622 516.492644,313.983509 515.811683,313.88526 C515.83788,312.671129 516.003763,311.228211 516.315509,310.3203 C516.418336,310.267907 516.580318,310.331612 516.683145,310.279219 C516.887693,310.174997 517.034192,309.954113 516.910625,309.711597 C516.564605,309.286698 515.790272,308.78106 515.46105,308.64333 C515.647935,308.247505 515.348623,306.143059 516.169028,305.725042 L517.910453,304.837742 C517.439572,304.924929 516.047432,305.486396 515.925179,305.246461 C515.80424,305.009105 515.783499,304.714196 515.723687,304.596808 C515.601433,304.356873 515.439451,304.293168 515.275946,304.223739 C515.133182,304.44922 514.985577,304.670667 514.678202,304.827283 C514.37746,304.980518 514.014309,305.003065 513.680073,304.789896 C513.68976,304.737839 513.690422,304.679006 513.671244,304.614033 C513.636205,304.482398 513.520681,304.507138 513.520681,304.507138 C513.491964,304.513646 513.472388,304.554493 513.460042,304.60953 C513.416957,304.563238 513.37211,304.516219 513.330161,304.461224 C512.78265,303.386673 513.257484,302.541904 512.708001,301.463483 C512.648189,301.346095 512.423766,301.159843 512.302169,300.921197 C512.05832,300.442615 512.632028,300.303035 512.326394,299.703196 C512.144329,299.345872 511.612321,299.313091 511.552509,299.195704 L511.490725,299.074446 C511.142307,299.404712 510.628172,299.666677 510.014527,299.979345 C508.769313,299.560893 506.650871,297.174433 505.364614,296.929632 C504.955518,297.138077 505.155038,297.783859 504.847663,297.940475 C503.805255,298.174256 503.417536,297.921718 503.173686,297.443137 C503.050118,297.200621 503.032007,296.910872 502.911068,296.673516 C502.788157,296.432291 502.624203,296.364716 502.317934,296.520768 C502.090663,297.091533 502.272729,297.448857 501.660189,297.760961 C500.020486,298.596432 500.027892,296.33408 499.310315,296.699705 C498.910063,296.903643 499.059425,297.74072 498.558372,298.397363 C498.623526,298.268298 498.647056,298.114944 498.595468,297.923496 C498.490529,297.539874 498.113998,297.481495 497.769428,297.551445 C497.428832,297.620996 497.193833,298.075458 497.302298,298.460534 C497.409657,298.846173 497.558906,298.950488 497.673981,298.927602 C497.823959,298.896681 497.990793,298.844172 498.147558,298.769171 C498.088269,298.805879 498.040425,298.851381 497.971874,298.886309 C496.231555,299.773046 496.568631,297.646571 495.6454,298.116981 C495.011853,298.43979 496.11508,299.405051 495.528626,300.058087 C495.392075,299.981424 495.246107,299.943682 495.145491,299.994948 C495.061461,300.037764 495.024336,300.167172 495.080617,300.34323 C494.378647,300.608283 493.4929,300.266654 493.20211,300.414819 C492.997562,300.519042 493.013932,301.565245 493.257124,302.042537 C492.7452,302.303375 492.072828,301.74091 491.66152,301.950482 C491.518098,302.174672 491.579882,302.29593 491.641009,302.415898 C491.823074,302.773222 492.087435,302.786387 492.331284,303.264969 C492.392411,303.384936 492.244639,305.117603 491.219687,305.639843 C491.11686,305.692236 490.791373,305.559103 490.504957,305.248449 C490.384675,305.012383 489.895234,304.811675 489.68958,304.916461 C489.546607,305.138798 489.503592,305.308579 489.565376,305.429836 C489.808568,305.907128 490.461066,306.179118 490.643789,306.537731 C490.886981,307.015023 490.51608,307.806835 490.312637,307.910495 C490.105878,308.015844 489.94303,307.947706 489.841308,307.999535" id="Path-Copy" fill="#2793E1"></path>
                    <path d="M576.28649,391.476583 C576.114042,391.631856 575.939107,391.608187 575.854266,391.684578 C575.596978,391.916242 575.694671,392.365975 575.877765,392.569321 C576.233297,392.964179 576.498371,393.089812 576.67759,393.288855 C576.955565,393.942518 577.146212,394.493631 577.072426,395.099712 C576.216641,395.870265 574.901223,395.611076 574.38849,396.072743 C574.38849,396.072743 574.393743,396.249193 574.483836,396.349253 C575.431187,395.854719 576.736052,395.759101 577.545928,396.658559 C578.803366,398.055086 578.242693,400.180799 578.978783,401.686338 L577.803922,402.744186 C577.802807,402.119827 577.749817,401.339566 577.526604,400.959992 C577.526604,400.959992 577.456845,400.843571 577.353504,400.895708 C577.4649,401.559091 577.475953,402.474521 577.495914,403.021519 L577.356664,403.1469 C577.401488,403.129918 577.450782,403.103067 577.496482,403.083349 C577.503588,403.297094 577.514831,403.448669 577.534439,403.479719 C577.599447,403.594572 577.668284,403.711823 577.773469,403.658026 C577.773469,403.658026 577.798071,403.353389 577.802217,402.944436 C578.362726,402.663791 578.929942,402.271906 579.33478,401.907388 C579.419621,401.830997 579.499162,401.57625 579.669766,401.422637 C580.097659,401.037361 580.723062,401.561326 581.170625,402.058395 C582.429032,403.455998 580.418802,403.458112 581.227709,404.356494 C581.457303,404.611484 582.234796,403.722453 583.174841,403.931943 C583.075329,403.986476 583.208066,404.211786 583.273075,404.326639 C583.446128,404.389017 583.446128,404.389017 583.547577,404.336635 C583.617486,404.30486 583.653116,404.220178 583.651989,404.135473 C583.658677,404.139192 583.663428,404.140759 583.667303,404.145063 L583.266178,405.587473 C583.180415,405.664695 583.271477,405.76583 583.271477,405.76583 C583.54079,406.064932 584.150341,406.055734 584.322789,405.900461 C584.579156,405.669627 584.480494,405.218819 584.565334,405.142428 C584.993227,404.757152 585.529412,405.178321 585.882597,405.399956 C585.718718,405.905978 585.645901,406.513135 586.09637,407.013431 C586.185495,407.112415 586.273651,407.210322 586.445177,407.055879 C586.53094,406.978658 586.698228,406.650747 586.780629,406.397321 C587.379125,405.858433 588.158312,405.694546 588.787031,406.39281 C589.056343,406.691912 589.012734,408.533238 589.012734,408.533238 L590.031523,407.259401 C590.03429,407.25691 590.035119,407.252267 590.035994,407.249531 C590.229214,407.365833 590.52106,407.391383 590.678446,407.313962 C590.887939,407.209105 590.994448,406.707984 590.793749,406.362687 C590.790843,406.359459 590.781342,406.356325 590.776498,406.350945 C591.392785,406.154502 592.24078,405.991001 592.706798,405.931809 C593.516674,406.831267 593.453943,407.967038 593.81335,408.366199 C593.904412,408.467335 594.076394,408.485869 594.161235,408.409478 C594.758809,407.87142 593.415151,406.379137 594.099411,405.763028 C594.356699,405.531364 594.792285,405.499573 595.060629,405.797599 C595.123598,405.867533 595.146913,405.973171 595.213076,406.096726 C595.192555,406.105462 595.176739,406.113859 595.15442,406.126162 C595.014593,406.343627 595.014593,406.343627 595.083383,406.458972 C595.285926,406.802608 596.218894,406.33661 596.325047,406.283889 C596.212877,406.244619 596.147421,406.188613 596.09617,406.135403 C596.109194,405.819761 596.03394,405.285534 596.352093,404.999068 C597.12027,404.307398 597.74899,405.005661 598.464896,405.800756 C598.282269,405.423603 598.184529,404.971964 598.440895,404.741131 C598.867866,404.356685 599.573733,404.625072 599.915862,404.317017 C600.172229,404.086184 599.189403,403.167115 600.64184,401.859335 C600.983047,401.552111 601.698451,402.172322 601.875733,402.369213 C602.722996,401.249819 600.773559,400.11401 602.140233,398.883451 C602.310836,398.729839 602.748313,398.698294 602.917994,398.545512 C603.135629,398.349552 602.973988,397.982725 602.78185,397.563482 L602.858214,397.525894 L602.757073,397.513709 C602.496368,396.949698 602.198795,396.30394 602.67833,395.872165 C602.850778,395.716892 603.197741,395.761001 603.461298,395.70877 C603.455542,395.550306 603.481475,395.41591 603.52383,395.297898 C603.781565,395.393125 604.047684,395.445737 604.151946,395.392771 C604.361486,395.28982 604.463951,395.24042 604.502236,395.071524 C604.350906,394.818147 604.147859,394.685367 603.933252,394.619493 C604.09714,394.345296 604.1733,394.029303 603.876808,393.466345 C604.144314,393.344319 604.240221,393.257964 604.042615,392.92352 C603.976638,392.80759 603.736732,392.63202 603.526317,392.737707 C603.491823,392.75318 603.458345,392.771634 603.425789,392.789259 C603.286699,392.612529 603.13128,392.423228 602.936561,392.206971 C603.359843,391.825846 603.953355,391.468729 604.467699,391.18874 C604.492009,391.798059 604.491532,392.318651 604.529872,392.383486 C604.598616,392.496925 604.666485,392.613099 604.770747,392.560133 C604.770747,392.560133 604.928968,390.549372 604.523882,389.862099 C604.523882,389.862099 604.454169,389.747585 604.351751,389.798891 C604.392671,390.04648 604.419488,390.334042 604.43971,390.621697 C603.982934,390.171887 603.146246,390.56678 602.46306,390.648124 C602.174123,389.468583 601.9609,388.031898 602.027039,387.074238 C602.112802,386.997016 602.285752,387.016627 602.371515,386.939405 C602.542119,386.785793 602.626457,386.534519 602.444332,386.332248 C602.000132,386.011384 601.121314,385.723387 600.767663,385.675559 C600.845733,385.244852 600.011949,383.289581 600.696209,382.673472 L602.148646,381.365691 C601.716376,381.571781 600.51699,382.474429 600.336802,382.27431 C600.158552,382.076343 600.06219,381.796852 599.974034,381.698944 C599.793846,381.498826 599.620895,381.479215 599.444992,381.454471 C599.365451,381.709218 599.28019,381.961323 599.023824,382.192157 C598.77299,382.418008 598.428048,382.533778 598.050029,382.414379 C598.045912,382.361589 598.031325,382.304588 597.995985,382.246793 C597.92807,382.128712 597.822885,382.182509 597.822885,382.182509 C597.796831,382.196227 597.788494,382.240749 597.790814,382.297106 C597.737215,382.263543 597.681726,382.229734 597.626973,382.18747 C596.820004,381.29124 597.060016,380.352359 596.25014,379.452902 C596.161984,379.354994 595.897002,379.233173 595.717783,379.03413 C595.358377,378.634969 595.87641,378.351658 595.425941,377.851361 C595.157597,377.553335 594.635233,377.659365 594.547077,377.561458 L594.456014,377.460322 C594.204947,377.869513 593.776132,378.255619 593.264321,378.716456 C591.953234,378.634548 589.289315,376.877697 587.983527,376.974146 C587.642319,377.28137 588.002182,377.853508 587.745815,378.084342 C586.799434,378.579952 586.359564,378.436368 586.000158,378.037207 C585.818032,377.834936 585.725545,377.559748 585.547295,377.361781 C585.366139,377.160587 585.190282,377.137749 584.934837,377.367752 C584.863036,377.977891 585.13138,378.275917 584.620491,378.735924 C583.252895,379.967313 582.674509,377.780132 582.076013,378.319021 C581.742183,378.619603 582.103106,379.389499 581.789079,380.15345 C581.818607,380.01192 581.801645,379.857701 581.702265,379.686129 C581.501613,379.342738 581.122802,379.383802 580.808077,379.54055 C580.497088,379.695883 580.38772,380.195683 580.592154,380.539565 C580.795665,380.884277 580.966827,380.946409 581.072058,380.894518 C581.208923,380.825834 581.356481,380.731935 581.488493,380.618916 C581.440726,380.669718 581.406288,380.726052 581.349113,380.777533 C579.897598,382.084483 579.672817,379.943224 578.902795,380.636555 C578.374385,381.112338 579.689848,381.759172 579.292396,382.541742 C579.140655,382.503034 578.989893,382.504357 578.905974,382.579918 C578.835888,382.643023 578.833522,382.77763 578.933452,382.933122 C578.324002,383.370828 577.380017,383.270087 577.137483,383.488466 C576.966879,383.642078 577.253469,384.648396 577.611906,385.046482 C577.184936,385.430928 576.389897,385.061651 576.046846,385.370536 C575.966336,385.624208 576.057398,385.725343 576.147492,385.825402 C576.415836,386.123428 576.674596,386.067724 577.034002,386.466885 C577.124096,386.566944 577.429807,388.278818 576.574944,389.04854 C576.489181,389.125761 576.140327,389.081407 575.783268,388.855468 C575.605986,388.658577 575.081276,388.591385 574.90975,388.745827 C574.829193,388.997592 574.831587,389.172721 574.922649,389.273856 C575.281087,389.671942 575.981748,389.765785 576.25106,390.064887 C576.609498,390.462972 576.456171,391.323801 576.28649,391.476583 L576.28649,391.476583" id="Path-Copy" fill="#2793E1"></path>
                    <path d="M1003.898,85.5062665 C1003.72555,85.6615394 1003.55062,85.6378711 1003.46578,85.714262 C1003.20849,85.9459259 1003.30618,86.3956581 1003.48928,86.5990044 C1003.84481,86.9938622 1004.10988,87.1194961 1004.2891,87.3185388 C1004.56708,87.9722021 1004.75772,88.523315 1004.68394,89.129396 C1003.82815,89.8999483 1002.51273,89.6407596 1002,90.1024268 C1002,90.1024268 1002.00525,90.2788771 1002.09535,90.3789364 C1003.0427,89.8844025 1004.34756,89.7887844 1005.15744,90.6882423 C1006.41488,92.0847691 1005.8542,94.2104822 1006.59029,95.7160211 L1005.41543,96.7738699 C1005.41432,96.1495108 1005.36133,95.3692496 1005.13811,94.9896755 C1005.13811,94.9896755 1005.06835,94.873255 1004.96501,94.9253913 C1005.07641,95.5887746 1005.08746,96.5042042 1005.10742,97.0512024 L1004.96817,97.1765832 C1005.013,97.1596019 1005.06229,97.1327503 1005.10799,97.1130325 C1005.1151,97.3267773 1005.12634,97.4783528 1005.14595,97.5094021 C1005.21096,97.6242555 1005.27979,97.7415064 1005.38498,97.6877094 C1005.38498,97.6877094 1005.40958,97.3830727 1005.41373,96.9741191 C1005.97424,96.6934744 1006.54145,96.3015893 1006.94629,95.9370715 C1007.03113,95.8606806 1007.11067,95.6059331 1007.28128,95.4523208 C1007.70917,95.0670447 1008.33457,95.5910096 1008.78214,96.0880784 C1010.04054,97.4856811 1008.03031,97.4877954 1008.83922,98.3861774 C1009.06881,98.6411673 1009.84631,97.7521363 1010.78635,97.9616262 C1010.68684,98.0161598 1010.81958,98.2414694 1010.88459,98.3563229 C1011.05764,98.4187008 1011.05764,98.4187008 1011.15909,98.366319 C1011.229,98.3345437 1011.26463,98.2498616 1011.2635,98.1651566 C1011.27019,98.1688755 1011.27494,98.1704425 1011.27881,98.1747461 L1010.87769,99.6171569 C1010.79193,99.6943782 1010.88299,99.7955135 1010.88299,99.7955135 C1011.1523,100.094615 1011.76185,100.085417 1011.9343,99.9301442 C1012.19067,99.6993106 1012.092,99.2485025 1012.17684,99.1721116 C1012.60474,98.7868354 1013.14092,99.2080044 1013.49411,99.4296396 C1013.33023,99.9356613 1013.25741,100.542818 1013.70788,101.043115 C1013.79701,101.142098 1013.88516,101.240006 1014.05669,101.085563 C1014.14245,101.008342 1014.30974,100.680431 1014.39214,100.427005 C1014.99064,99.8881166 1015.76982,99.72423 1016.39854,100.422493 C1016.66785,100.721595 1016.62424,102.562922 1016.62424,102.562922 L1017.64303,101.289085 C1017.6458,101.286594 1017.64663,101.281951 1017.6475,101.279214 C1017.84072,101.395516 1018.13257,101.421066 1018.28996,101.343646 C1018.49945,101.238788 1018.60596,100.737667 1018.40526,100.39237 C1018.40235,100.389143 1018.39285,100.386008 1018.38801,100.380629 C1019.0043,100.184186 1019.85229,100.020685 1020.31831,99.9614926 C1021.12818,100.860951 1021.06545,101.996722 1021.42486,102.395883 C1021.51592,102.497018 1021.6879,102.515553 1021.77274,102.439162 C1022.37032,101.901103 1021.02666,100.408821 1021.71092,99.7927112 C1021.96821,99.5610473 1022.4038,99.5292565 1022.67214,99.8272826 C1022.73511,99.8972166 1022.75842,100.002855 1022.82459,100.126409 C1022.80407,100.135145 1022.78825,100.143542 1022.76593,100.155846 C1022.6261,100.373311 1022.6261,100.373311 1022.69489,100.488655 C1022.89744,100.832292 1023.8304,100.366293 1023.93656,100.313572 C1023.82439,100.274302 1023.75893,100.218297 1023.70768,100.165086 C1023.7207,99.849445 1023.64545,99.315218 1023.9636,99.0287519 C1024.73178,98.3370816 1025.3605,99.035345 1026.07641,99.8304399 C1025.89378,99.4532863 1025.79604,99.0016479 1026.05241,98.7708143 C1026.47938,98.3863685 1027.18524,98.6547556 1027.52737,98.3467007 C1027.78374,98.1158671 1026.80091,97.1967989 1028.25335,95.8890188 C1028.59456,95.5817943 1029.30996,96.202006 1029.48724,96.3988969 C1030.33451,95.2795021 1028.38507,94.1436935 1029.75174,92.9131347 C1029.92235,92.7595224 1030.35982,92.7279771 1030.5295,92.5751952 C1030.74714,92.3792358 1030.5855,92.0124083 1030.39336,91.5931654 L1030.46972,91.5555777 L1030.36858,91.5433928 C1030.10788,90.9793813 1029.81031,90.3336238 1030.28984,89.9018488 C1030.46229,89.7465759 1030.80925,89.7906849 1031.07281,89.7384534 C1031.06705,89.5799896 1031.09299,89.4455933 1031.13534,89.3275812 C1031.39308,89.4228089 1031.65919,89.4754208 1031.76346,89.4224542 C1031.973,89.3195031 1032.07546,89.2701035 1032.11375,89.1012075 C1031.96242,88.8478307 1031.75937,88.7150507 1031.54476,88.6491764 C1031.70865,88.3749797 1031.78481,88.0589868 1031.48832,87.4960282 C1031.75582,87.3740025 1031.85173,87.2876475 1031.65413,86.9532031 C1031.58815,86.8372738 1031.34824,86.6617031 1031.13783,86.7673907 C1031.10333,86.7828632 1031.06986,86.8013178 1031.0373,86.8189422 C1030.89821,86.6422126 1030.74279,86.4529114 1030.54807,86.2366541 C1030.97135,85.8555296 1031.56487,85.4984127 1032.07921,85.2184234 C1032.10352,85.8277429 1032.10304,86.3483345 1032.14138,86.4131698 C1032.21013,86.5266081 1032.278,86.642783 1032.38226,86.5898164 C1032.38226,86.5898164 1032.54048,84.5790552 1032.13539,83.8917825 C1032.13539,83.8917825 1032.06568,83.7772683 1031.96326,83.8285742 C1032.00418,84.0761632 1032.031,84.3637251 1032.05122,84.6513806 C1031.59444,84.2015703 1030.75776,84.5964638 1030.07457,84.6778078 C1029.78563,83.498267 1029.57241,82.0615813 1029.63855,81.1039212 C1029.72431,81.0266999 1029.89726,81.0463102 1029.98303,80.9690889 C1030.15363,80.8154766 1030.23797,80.5642024 1030.05584,80.361932 C1029.61164,80.0410679 1028.73282,79.7530705 1028.37917,79.7052426 C1028.45724,79.274536 1027.62346,77.3192649 1028.30772,76.7031552 L1029.76016,75.3953751 C1029.32789,75.6014644 1028.1285,76.5041124 1027.94831,76.3039938 C1027.77006,76.106027 1027.6737,75.8265352 1027.58554,75.7286277 C1027.40536,75.5285091 1027.23241,75.5088988 1027.0565,75.4841546 C1026.97696,75.738902 1026.8917,75.9910066 1026.63533,76.2218402 C1026.3845,76.4476917 1026.03956,76.5634616 1025.66154,76.4440621 C1025.65742,76.3912721 1025.64284,76.3342721 1025.6075,76.276477 C1025.53958,76.1583958 1025.4344,76.2121928 1025.4344,76.2121928 C1025.40834,76.225911 1025.4,76.270433 1025.40232,76.3267899 C1025.34873,76.2932265 1025.29324,76.2594176 1025.23848,76.2171534 C1024.43151,75.3209232 1024.67153,74.382043 1023.86165,73.4825851 C1023.77349,73.3846776 1023.50851,73.2628562 1023.32929,73.0638134 C1022.96989,72.6646521 1023.48792,72.3813415 1023.03745,71.8810449 C1022.76911,71.5830188 1022.24674,71.6890488 1022.15859,71.5911413 L1022.06752,71.490006 C1021.81646,71.8991961 1021.38764,72.2853026 1020.87583,72.7461394 C1019.56474,72.6642314 1016.90083,70.9073806 1015.59504,71.0038291 C1015.25383,71.3110536 1015.61369,71.883192 1015.35733,72.1140255 C1014.41094,72.6096353 1013.97107,72.4660518 1013.61167,72.0668904 C1013.42954,71.86462 1013.33706,71.5894319 1013.15881,71.3914651 C1012.97765,71.1902705 1012.80179,71.1674325 1012.54635,71.3974357 C1012.47455,72.0075748 1012.74289,72.3056009 1012.232,72.7656074 C1010.86441,73.9969965 1010.28602,71.809816 1009.68752,72.3487044 C1009.35369,72.6492862 1009.71462,73.4191827 1009.40059,74.1831336 C1009.43012,74.0416035 1009.41316,73.887385 1009.31378,73.7158124 C1009.11312,73.3724217 1008.73431,73.4134859 1008.41959,73.5702338 C1008.1086,73.7255667 1007.99923,74.2253662 1008.20366,74.5692481 C1008.40718,74.9139603 1008.57834,74.9760927 1008.68357,74.9242021 C1008.82043,74.8555174 1008.96799,74.7616187 1009.1,74.6485993 C1009.05224,74.6994018 1009.0178,74.7557358 1008.96062,74.8072166 C1007.50911,76.1141664 1007.28433,73.9729074 1006.51431,74.6662385 C1005.98589,75.1420213 1007.30136,75.7888558 1006.90391,76.5714256 C1006.75217,76.5327175 1006.6014,76.5340406 1006.51748,76.6096012 C1006.4474,76.6727068 1006.44503,76.8073134 1006.54496,76.9628057 C1005.93551,77.4005113 1004.99153,77.2997708 1004.74899,77.5181494 C1004.57839,77.6717616 1004.86498,78.6780799 1005.22342,79.0761653 C1004.79645,79.4606112 1004.00141,79.0913344 1003.65836,79.4002196 C1003.57785,79.6538912 1003.66891,79.7550264 1003.759,79.8550857 C1004.02735,80.1531119 1004.28611,80.0974071 1004.64551,80.4965685 C1004.73561,80.5966278 1005.04132,82.3085016 1004.18645,83.0782236 C1004.10069,83.1554449 1003.75184,83.1110903 1003.39478,82.8851516 C1003.2175,82.6882606 1002.69279,82.6210681 1002.52126,82.7755107 C1002.4407,83.027276 1002.4431,83.2024048 1002.53416,83.30354 C1002.8926,83.7016255 1003.59326,83.7954686 1003.86257,84.0945706 C1004.22101,84.492656 1004.06768,85.3534845 1003.898,85.5062665 L1003.898,85.5062665" id="Path-Copy" fill="#2793E1"></path>
                    <path d="M1116.7839,237.737492 C1117.44977,239.047711 1116.45594,240.382014 1116.8938,241.495697 C1117.49193,242.99441 1118.54793,241.373962 1118.77729,243.376825 C1118.9345,244.766813 1117.51213,246.440945 1117.98738,248.625399 C1119.37529,255.018642 1124.53425,265.789387 1130.12465,267.70129 C1130.72465,267.906842 1133.18192,266.598571 1133.80763,266.606396 C1136.80459,266.650547 1144.05158,268.020483 1146.23513,267.600161 C1147.7108,267.318043 1149.0128,265.709149 1150.38139,265.21158 C1154.11299,263.855204 1158.26993,263.434128 1162.09063,261.085714 C1165.25389,259.144106 1168.39394,254.560648 1170.8799,253.907888 C1170.94652,253.892202 1172.70741,254.626396 1172.35562,254.883151 C1173.47195,254.069449 1177.88187,246.682899 1179.49534,245.177496 C1179.81806,244.875473 1181.05295,245.68552 1181.64152,245.309377 C1182.13364,244.997129 1181.64207,244.063369 1182.33787,243.367046 C1184.1482,241.557444 1188.99738,240.236716 1189.52826,239.620805 C1192.22464,236.485296 1188.27179,223.354322 1188.97791,220.827839 C1190.16672,216.540314 1193.22266,212.238799 1196.61066,208.723178 C1197.35157,207.957871 1200.08851,203.095167 1202.99294,203.161891 C1204.07322,203.183879 1206.85274,207.222787 1206.7562,206.925806 C1207.8354,210.101094 1205.64449,214.06637 1207.31697,217.557319 C1209.06536,221.19376 1214.24711,225.809395 1215.81973,228.459962 C1216.43899,229.495205 1217.03917,232.411078 1217.84087,232.999519 C1220.39833,234.871642 1224.25255,231.9774 1227.0856,232.695288 C1232.39224,234.034973 1234.68169,241.426262 1238.56768,244.443966 C1239.91903,245.495555 1241.74766,244.583601 1243.25937,245.619678 C1246.3783,247.761081 1245.64177,249.958807 1248.26441,251.005557 C1250.63609,251.954477 1253.08876,251.938252 1254.69537,251.409228 C1256.63595,250.768765 1256.36633,248.991062 1258.23425,247.656448 C1260.33752,246.154179 1262.70489,246.397148 1264.55544,244.297199 C1267.37865,241.095909 1268.66738,235.194473 1272.42485,231.546952 C1273.45825,230.541977 1274.83042,230.578379 1275.70105,229.54342 C1276.48795,228.610937 1276.96307,226.16169 1277.96754,225.272053 C1279.2736,224.113084 1281.78188,224.146614 1283.1846,222.949269 C1286.75333,219.909699 1287.60029,213.797458 1290.588,211.491593 C1292.04194,210.369238 1294.5126,210.698944 1296.00665,209.621599 C1297.45179,208.584661 1298.00784,205.736133 1299.57787,204.769329 C1300.73747,204.052791 1303.30273,204.815393 1304.96964,204.001054 C1308.40409,202.322912 1311.24277,197.768849 1315.49632,196.052015 C1318.40217,194.874674 1319.53327,193.7936 1321.38012,192.887506 C1323.34262,191.920602 1328.57118,192.363636 1331.32134,190.636229 C1334.07608,188.909108 1338.09287,181.546234 1340.465,178.40374 C1344.78061,172.693801 1348.47001,165.437109 1353.84749,160.479198 C1354.27388,160.084445 1355.97532,159.913701 1355.78934,160.157174 C1357.8207,157.536636 1357.37658,153.203067 1360.72452,152.522792 C1360.31879,152.603308 1370.48854,155.5989 1371.14822,156.038676 C1373.4117,157.541053 1377.43379,163.173632 1377.94033,166.615527 C1378.62227,171.222763 1375.45465,180.643192 1371.83025,185.656523 C1370.7684,187.123567 1368.67999,187.692467 1367.65337,189.148481 C1366.4067,190.916696 1366.1095,194.241422 1364.86151,196.918345 C1364.05336,198.649655 1361.8066,199.989941 1361.08869,201.317826 C1360.22244,202.923649 1360.92074,205.218364 1360.52999,205.918584 C1359.62426,207.555956 1357.55811,207.653899 1356.58705,208.763842 C1355.29902,210.233792 1355.96962,212.466321 1355.3626,214.203554 C1354.90338,215.516388 1353.65561,215.038067 1353.59273,216.078972 C1353.3804,219.624377 1356.10454,222.512037 1356.76481,225.547851 C1356.80399,225.726005 1355.02087,226.124051 1355.02642,226.321836 C1355.15172,231.346883 1359.2453,233.408276 1362.02013,237.351477 C1362.66041,238.258609 1361.55485,238.650708 1362.16236,240.010192 C1363.91088,243.907373 1370.20226,248.911476 1369.49991,254.151337 C1368.90908,258.584773 1361.66107,260.929285 1358.5377,262.294287 C1354.29226,264.149551 1351.64324,266.770323 1347.40164,268.884671 C1343.72479,270.719637 1338.19004,272.43408 1336.96753,273.530238 C1334.02844,276.170719 1328.62083,286.455734 1329.23849,288.940029 C1330.50959,294.04405 1334.83056,294.933087 1338.79286,292.847621 C1348.33209,287.825082 1356.76581,286.175134 1364.01453,281.618208 C1366.14833,280.27466 1368.01092,279.198558 1370.56693,277.611145 C1372.54208,276.38713 1375.0872,274.695123 1376.9186,273.153235 C1378.23153,272.044762 1378.44238,269.778373 1379.61976,268.686014 C1382.23475,266.264339 1383.17238,267.353435 1384.40501,266.555483 C1384.33302,266.599175 1387.22443,262.629382 1389.91436,261.382846 C1391.80357,260.506788 1400.16415,255.662071 1401.85666,256.608336 C1407.36515,259.683713 1400.66131,262.423958 1397.79241,263.859613 C1395.70841,264.899242 1394.98305,267.091996 1392.94607,268.192182 C1390.95104,269.271365 1388.15857,268.449256 1386.05171,269.086913 C1377.52799,271.661769 1370.9099,285.093666 1370.5431,293.942365 C1370.1404,303.687225 1382.046,306.729607 1391.23843,306.488245 C1393.37422,306.431485 1396.72175,307.753921 1398.74118,306.954941 C1401.59699,305.825494 1408.25341,296.842632 1409.7522,304.772234 C1409.67641,304.356571 1408.28341,308.185477 1407.0519,309.241398 C1403.79428,312.033013 1400.41134,310.926593 1397.92252,313.306063 C1395.80572,315.328957 1396.70641,317.351936 1396.06094,318.486896 C1395.48224,319.501319 1394.10871,317.493268 1394.32068,319.26171 C1394.51896,320.894208 1398.64212,323.943698 1399.49671,326.203755 C1400.91758,329.951092 1399.577,331.227885 1397.74503,335.142792 C1397.574,335.510007 1397.72906,337.275846 1397.68481,337.346774 C1396.99417,338.420348 1395.06544,338.50135 1394.61107,339.805039 C1394.4055,340.390213 1395.87459,340.70945 1395.85285,341.427002 C1395.76769,344.496653 1391.47126,348.090742 1394.70955,351.727467 C1397.61271,354.987156 1404.07193,347.580022 1408.76556,348.189043 C1409.6685,348.308617 1409.50293,349.870258 1410.84679,350.529334 C1412.24791,351.211818 1413.93833,349.91432 1414.29497,350.079197 C1415.73119,350.755366 1415.53558,353.79735 1419.15765,352.811076 C1420.8321,352.354299 1422.23419,349.953383 1423.97164,349.577998 C1425.73861,349.198783 1436.2217,351.004706 1437.03614,350.835357 C1437.47996,350.740211 1436.91029,349.540848 1437.49943,349.541671 C1441.25225,349.540355 1444.761,351.976234 1449.72633,350.079875 C1451.70775,349.32576 1454.36281,350.330131 1456.39222,349.834073 C1458.19214,349.393619 1459.6765,347.473009 1461.40409,347.055442 C1465.54002,346.066244 1475.62684,345.689801 1479.51652,344.433023 C1482.48244,343.475759 1489.39618,338.271626 1492.73294,340.180987 C1495.06909,341.515959 1495.05367,348.333753 1494.19811,349.322417 C1494.42131,349.06237 1487.72458,351.347719 1485.32868,351.636719 C1481.4885,352.103045 1479.35223,350.951519 1475.65386,352.13709 C1473.34001,352.880875 1469.23682,352.921758 1466.37939,353.54664 C1463.68469,354.136322 1462.74166,355.329254 1460.29127,356.257245 C1456.98441,357.510673 1451.26943,356.34581 1446.4998,358.045592 C1441.4452,359.846643 1438.97597,360.59208 1434.35318,362.366198 C1430.82011,363.722668 1429.13837,360.301047 1426.44924,360.988378 C1423.50916,361.743199 1421.14969,367.70921 1419.77094,369.401175 C1419.25031,370.045121 1418.37708,369.020499 1418.49769,368.880645 C1417.94568,369.529248 1419.10566,370.090897 1418.43474,371.083512 C1416.98439,373.235801 1411.26608,374.377657 1408.00062,375.729079 C1405.2502,376.869819 1395.33117,374.577585 1396.28953,379.855774 C1396.99066,383.704677 1400.70692,380.515595 1402.05288,381.099228 C1403.0765,381.53996 1402.26542,382.813858 1403.26504,383.821796 C1404.5741,385.13904 1411.18494,386.943559 1414.35807,386.501785 C1416.99615,386.130576 1419.39143,383.61113 1421.55032,382.754715 C1423.83936,381.845007 1427.32311,382.100879 1430.18309,381.085999 C1432.55201,380.245509 1434.11431,378.199389 1435.86715,377.467871 C1437.44418,376.812305 1436.82147,378.419138 1437.77653,378.250052 C1440.16992,377.820137 1443.82514,374.478934 1446.94112,373.082297 C1450.00226,371.707748 1453.89286,371.444839 1457.11441,370.185149 C1458.80838,369.521757 1474.92739,361.625597 1469.16661,369.168844 C1467.41262,371.465638 1467.89286,370.190013 1466.75961,370.785383 C1463.12481,372.694767 1454.44239,374.397231 1448.32613,377.360203 C1442.82846,380.024478 1434.27115,381.391818 1427.5134,384.451786 C1424.8178,385.670573 1423.70536,388.000742 1420.09094,388.843899 C1414.77067,390.083306 1410.94711,393.296875 1405.10551,394.973297 C1403.92427,395.31061 1399.37866,395.329586 1398.41274,396.320818 C1396.50201,398.27059 1398.8015,403.610642 1397.93245,405.781214 C1397.70732,406.342497 1396.49485,405.55274 1396.42799,405.908499 C1396.34355,406.334958 1397.45152,407.446008 1397.43856,408.178278 C1397.42829,408.681156 1395.95666,409.513335 1395.86842,410.507315 C1395.67492,412.777619 1398.3814,420.94026 1399.41768,421.985436 C1401.31761,423.903487 1410.46483,422.343357 1412.74399,421.491604 C1417.88371,419.57116 1424.89893,419.488835 1431.95783,417.831606 C1436.51785,416.763035 1439.61776,413.096257 1443.92875,411.959263 C1446.5472,411.268472 1452.07445,411.911503 1452.70475,412.94649 C1455.38404,417.351357 1449.05132,417.879603 1448.26606,418.189639 C1443.62647,420.006165 1437.74501,422.32438 1433.77738,421.918373 C1431.24313,421.661223 1427.94335,422.990667 1425.31101,425.142969 C1422.24786,427.650074 1412.69153,432.063168 1414.95704,434.652062 C1415.85235,435.67617 1425.21419,432.940055 1426.60519,432.728233 C1433.36745,431.692068 1441.63953,433.516053 1449.78003,433.291312 C1451.92784,433.231523 1454.69791,431.714133 1456.4738,431.94102 C1458.18459,432.16196 1457.14527,432.287062 1459.49004,431.687851 C1461.60432,431.147015 1463.55309,432.563648 1465.48187,432.282375 C1467.09871,432.046842 1468.86978,431.321183 1470.87177,431.514928 C1473.42104,431.760734 1483.81588,428.464567 1483.93813,432.77146 C1483.92615,432.308761 1484.06664,433.771392 1481.09474,434.579966 C1474.30911,436.425218 1458.82694,433.359239 1450.18408,434.198835 C1445.12542,434.688406 1437.96065,437.179809 1434.6505,436.762824 C1432.17028,436.446692 1434.18305,435.788056 1432.07351,436.820425 C1428.55218,438.548889 1421.51458,436.191579 1416.63249,436.080943 C1413.61969,436.011243 1411.61329,437.2352 1406.49253,437.875829 C1402.33657,438.394269 1395.66937,437.22957 1393.80148,438.629369 C1390.03751,441.450828 1390.05782,444.131228 1386.66176,448.335024 C1383.53229,452.205902 1379.18757,454.028526 1379.31858,457.588718 C1379.3711,459.009022 1382.15317,463.684809 1383.62255,464.921356 C1385.97848,466.901838 1386.98868,464.877988 1389.42024,465.059775 C1391.04549,465.183749 1393.25231,467.370326 1395.58764,467.210751 C1401.00599,466.842791 1405.07081,462.718466 1408.10399,464.902703 C1408.86458,465.448905 1410.39174,468.578429 1409.25407,469.830081 C1407.86042,471.363355 1403.19995,469.260961 1402.18685,469.169474 C1397.38486,468.722798 1389.7359,467.496906 1395.60398,474.275199 C1396.93541,475.813006 1396.03977,476.391066 1397.8878,477.065508 C1400.52656,478.028241 1406.73673,472.806706 1407.67338,480.325285 C1407.50987,478.996311 1405.92769,484.343818 1406.51188,483.562131 C1404.44336,486.329614 1395.99102,484.045666 1394.45882,484.576493 C1393.44346,484.930759 1394.20049,485.969866 1392.8914,486.906644 C1390.82176,488.389282 1384.89105,489.00399 1383.32462,491.166048 C1382.45872,492.361899 1384.37789,492.294471 1384.33519,493.435827 C1384.30795,494.1861 1381.6724,497.182753 1381.14014,500.300111 C1380.70032,502.868699 1382.01017,505.349848 1381.82594,506.523948 C1381.8028,506.66232 1380.31452,507.862834 1380.28728,507.751552 C1381.37546,512.524866 1389.1745,515.09968 1385.77566,518.906534 C1385.55557,519.15355 1383.81942,518.885685 1383.83381,519.228558 C1383.83205,519.159486 1391.17203,530.496006 1387.81586,530.511654 C1388.04019,530.509576 1383.1852,525.976656 1382.40963,524.214652 C1381.27784,521.642576 1381.1904,520.023599 1377.14103,520.576079 C1374.62042,520.9206 1367.88317,524.302095 1367.30971,526.585559 C1366.44053,530.05318 1370.28755,537.556665 1373.43608,538.001364 C1374.6538,538.171732 1375.46955,536.497578 1375.84395,536.386768 C1378.94845,535.470262 1390.11139,534.305005 1386.64195,541.915495 C1385.81709,543.719449 1376.14232,547.796409 1373.1916,546.814232 C1371.14802,546.131381 1372.86182,546.078549 1370.37968,547.521305 C1367.98627,548.912911 1366.29822,547.54087 1363.28099,547.962132 C1361.7521,548.174805 1361.35509,549.597322 1360.44032,549.771753 C1359.14674,550.017042 1359.46246,548.376905 1357.68949,548.276788 C1357.08564,548.242929 1357.27296,550.171376 1356.35701,549.957467 C1354.6172,549.556173 1352.57573,547.074768 1350.22108,546.705058 C1343.92562,545.724126 1339.57715,542.844806 1333.27287,546.091746 C1330.25363,547.645563 1324.19199,547.911077 1321.7661,550.672345 C1319.981,552.698909 1317.86097,559.27783 1318.6486,562.394324 C1318.66425,562.459538 1321.50625,567.460253 1321.30401,567.196361 C1321.94612,568.037478 1324.98538,570.996737 1327.38344,572.651094 C1329.39995,574.044553 1336.56422,576.70639 1333.36472,581.411785 C1333.1127,581.782455 1327.00733,584.419244 1325.13328,583.986909 C1323.31216,583.568266 1321.89793,579.946041 1319.92764,578.145469 C1312.68723,571.53576 1301.45347,573.994604 1292.82041,572.261481 C1292.18607,572.134087 1291.2696,573.396693 1290.64648,573.229376 C1289.85912,573.018759 1289.06487,571.134671 1287.92713,570.632978 C1287.67742,570.522945 1285.80228,571.19016 1285.55346,571.147255 C1280.89918,570.346081 1274.8729,564.234324 1269.5949,565.738988 C1260.47222,568.336026 1268.0503,577.517438 1269.97699,582.976902 C1270.59991,584.741673 1270.86545,586.765685 1270.72115,586.997586 C1266.76861,593.402773 1256.33183,578.597055 1252.25314,579.444339 C1249.98085,579.915811 1249.28615,584.316322 1246.94166,585.071423 C1245.34921,585.587159 1243.04162,583.454761 1241.20879,582.729308 C1237.81849,581.390981 1224.71146,573.350947 1221.49255,573.55464 C1214.54465,573.993529 1210.91718,582.331025 1206.78986,584.997581 C1203.9813,586.809203 1197.97656,588.80043 1193.36725,588.796541 C1190.69264,588.795154 1190.48057,588.123489 1187.14149,588.848718 C1180.5669,590.276345 1170.82052,586.663809 1166.55418,580.061871 C1165.53369,578.481096 1163.31767,574.936429 1163.958,573.058624 C1164.03396,572.838523 1165.26217,572.696854 1165.26273,572.477721 C1165.26155,570.631728 1164.29186,566.159596 1164.63988,564.051017 C1164.94188,562.209751 1167.00107,558.519671 1162.21382,558.601994 C1159.72725,558.647282 1157.79031,561.144283 1155.68831,561.507338 C1149.21238,562.62559 1141.70434,556.982619 1140.75818,550.204083 C1140.65593,549.483526 1140.54626,544.62383 1140.73813,543.141292 C1140.92622,541.695363 1142.52086,541.895837 1142.10494,540.355579 C1140.73173,535.287705 1133.88521,531.906927 1130.9325,532.818725 C1126.20179,534.275314 1125.10644,546.49176 1120.43543,539.667159 C1117.99388,536.101822 1121.41053,530.261221 1122.44979,528.978873 C1128.79817,521.12744 1122.00625,514.883883 1112.79422,513.147738 C1110.15541,512.650733 1108.18598,510.256005 1106.86075,510.350061 C1104.63393,510.507897 1103.11057,513.668341 1100.77263,513.060666 C1098.86631,512.565861 1099.0548,509.382675 1096.14117,509.680972 C1096.28404,509.66626 1086.1462,517.381636 1088.34885,512.065243 C1089.28474,509.804369 1094.1938,507.981965 1095.79907,506.573355 C1097.72666,504.876866 1099.05655,502.328802 1100.23776,501.330205 C1101.98548,499.855843 1104.92825,500.329283 1105.05262,498.09907 C1105.12829,496.796338 1101.45644,492.58656 1099.64452,491.802897 C1093.8681,489.307862 1097.10897,481.023734 1090.59633,477.335961 C1089.02724,476.446512 1084.20706,476.48994 1082.22625,477.255428 C1079.19108,478.422819 1075.61761,478.816969 1074.17535,473.223323 C1073.81382,471.810209 1075.69808,468.693987 1075.22981,466.224672 C1074.90457,464.497349 1073.62298,463.647549 1073.61273,462.592638 C1073.60304,461.483916 1074.99817,460.12928 1074.77608,459.354964 C1074.30453,457.699765 1071.16683,455.50618 1070.41003,454.227136 C1068.84173,451.586286 1068.796,448.563269 1066.10606,446.894498 C1062.11747,444.427765 1057.21866,445.251327 1055.73986,441.173517 C1054.95632,439.002911 1057.09956,434.038964 1059.40378,433.01306 C1061.51343,432.076112 1063.05641,434.469765 1064.53186,433.996806 C1065.43701,433.705578 1064.28442,432.148689 1064.59023,431.793653 C1065.40791,430.845139 1067.59983,430.984594 1068.50256,430.051773 C1069.53208,428.987985 1069.17253,422.93091 1066.40485,420.651749 C1065.06325,419.54692 1063.48992,421.162519 1061.04184,420.317476 C1058.4299,419.414985 1051.3137,414.722232 1051.47014,409.348207 C1051.51561,407.742239 1054.15887,405.328938 1055.9107,404.104229 C1057.0194,403.333507 1063.67955,402.598944 1065.2444,400.493469 C1066.34992,399.009309 1063.50445,396.420165 1063.94923,392.910977 C1064.15063,391.349681 1066.19325,390.808157 1065.34938,389.023002 C1064.43923,387.109017 1052.61446,383.141155 1049.48524,380.310434 C1048.12324,379.079635 1039.08305,376.847848 1035.50088,373.480653 C1028.80513,367.182631 1035.55012,367.19966 1038.20018,369.014261 C1038.70264,369.356381 1040.08746,372.216299 1042.19737,372.131475 C1045.78957,371.98978 1051.14833,369.860043 1054.27918,370.014565 C1055.22179,370.062925 1056.29676,371.270166 1056.39289,371.250651 C1060.63008,370.388684 1065.50287,365.168813 1063.79443,359.793804 C1062.8664,356.867889 1059.11429,354.226013 1060.62321,350.326868 C1062.51198,345.457588 1069.67383,346.881733 1071.49472,345.486561 C1074.14859,343.452743 1072.4745,340.053327 1072.40408,335.832797 C1072.34751,332.074137 1074.76363,328.173912 1073.98663,325.336764 C1073.10108,322.105528 1068.45612,320.173199 1068.60815,317.939986 C1068.67491,316.957894 1070.99169,315.910101 1071.04476,315.222842 C1071.15017,313.841666 1068.48026,311.782099 1069.69222,309.840731 C1070.65311,308.302211 1075.91878,307.606375 1077.89218,308.36704 C1078.38965,308.557699 1077.82634,309.912224 1078.26662,310.375168 C1078.84347,310.984548 1087.76913,314.72731 1085.87827,314.60284 C1089.40209,314.838538 1097.46819,306.627493 1097.4786,306.715998 C1097.42084,306.180539 1091.10513,305.234242 1095.0534,301.268918 C1096.58508,299.730076 1096.54941,302.705509 1096.72885,302.6978 C1099.82076,302.599552 1101.88432,286.692099 1101.13288,283.331298 C1100.19369,279.118023 1090.16645,269.925659 1094.05716,267.438961 C1095.01621,266.82801 1097.55379,268.124525 1097.90926,267.901062 C1098.46778,267.547608 1097.25864,266.339562 1097.53582,265.890163 C1100.91805,260.528262 1102.9878,267.9871 1107.03095,271.998964 C1108.73664,273.696133 1113.15515,276.337033 1113.7734,276.613629 C1114.79018,277.06905 1119.0689,277.758016 1119.76982,277.208439 C1121.04749,276.211132 1117.87402,265.897616 1116.74866,262.232936 C1116.00469,259.79556 1114.50261,255.264739 1112.76846,250.949012 C1110.30631,244.812841 1103.18119,238.487111 1108.50366,234.352374 C1111.56414,231.974525 1114.52644,233.268227 1116.7839,237.737492" id="Path" fill="url(#linearGradient-1)"></path>
                    <path d="M-38.4951238,-111.307622 C-40.8293476,-117.019288 -32.2390357,-116.373452 -30.5448317,-119.093506 C-30.1438274,-119.732596 -31.3407451,-123.177327 -30.8282723,-124.852295 C-29.4824266,-129.261278 -25.2769442,-133.464823 -25.2047463,-136.889626 C-25.1564074,-139.251568 -26.3539853,-140.772583 -26.4845515,-143.458637 C-26.7282958,-148.407463 -30.5010232,-156.829494 -28.2251732,-160.66461 C-27.0180633,-162.700307 -19.04539,-166.271237 -15.5146742,-166.175061 C-13.2571207,-166.115618 -7.43004035,-162.188286 -1.79823658,-163.762349 C-0.607705589,-164.090128 0.486456726,-165.990706 1.90399993,-166.2936 C7.79918668,-167.556307 13.2072197,-163.373113 16.7187334,-169.305349 C21.5464341,-177.469025 3.8353908,-185.635955 6.01417947,-193.776936 C6.85832333,-196.938482 7.75060809,-194.88349 6.06194629,-196.896868 C4.40527227,-198.884342 2.80512154,-204.163894 1.90598776,-205.006979 C-0.68783527,-207.428688 -4.65679382,-209.002508 -5.01696977,-213.768311 C-5.0805603,-214.570568 -3.70662594,-215.774519 -4.081514,-216.964133 C-4.80204765,-219.248661 -9.02842001,-221.267658 -5.58480796,-225.293428 C1.8369042,-233.987564 14.808972,-212.874245 17.7182613,-207.214318 C19.5228369,-203.700242 29.5552125,-189.526122 37.7087308,-187.076398 C39.7815036,-186.453026 40.7772081,-189.038678 42.7900927,-189.278818 C46.1636732,-189.681887 53.2914787,-185.982955 57.3414905,-183.815936 C66.2517954,-179.052328 74.1500269,-169.842798 83.6343507,-163.315742 C89.0659078,-159.580189 97.2111931,-160.525709 101.27486,-161.671955 C102.315149,-161.962452 101.401004,-162.878567 102.821308,-163.58166 C103.972463,-164.144234 119.798769,-164.071013 119.182491,-168.503114 C118.84853,-170.907474 122.47925,-168.833118 125.923939,-171.735255 C127.571465,-173.120092 131.543205,-175.020522 135.094563,-176.946863 C139.091255,-179.117924 146.450597,-181.552105 150.074009,-182.202645 C153.155082,-182.754655 154.688372,-180.819749 156.378532,-181.838644 C158.001534,-182.81385 158.080012,-186.490584 161.67333,-189.39749 C166.473575,-193.271588 174.848022,-193.662918 176.044394,-195.933892 C178.649111,-200.885858 163.510352,-214.697236 157.488389,-218.863544 C155.552617,-220.201138 152.972222,-220.437468 150.848872,-221.866087 C146.83575,-224.571377 143.756851,-230.165743 140.661779,-231.698121 C135.906668,-234.053972 128.457897,-230.048649 123.63013,-232.057519 C116.266271,-235.129204 117.550998,-243.696582 125.379484,-246.444129 C127.06266,-247.035808 130.102757,-245.378858 131.296982,-245.602191 C133.096959,-245.936959 138.410799,-247.754977 139.421342,-248.505816 C143.32071,-251.398233 143.912873,-259.302222 149.631007,-263.149972 C149.930365,-263.353956 151.642861,-261.906331 152.011937,-262.013277 C153.235808,-262.364786 153.853117,-264.736057 154.329129,-264.874771 C157.155392,-265.700758 162.054588,-264.756808 164.447394,-266.163764 C174.244943,-271.922824 165.680869,-288.381059 178.009506,-293.101646 C179.938155,-293.839489 183.250886,-292.370963 185.589222,-293.287702 C187.786325,-294.156482 189.766571,-297.125121 192.102917,-298.283581 C195.692828,-300.056956 199.008144,-298.944809 202.273213,-302.689052 C204.095386,-304.777916 206.666108,-310.525082 210.944349,-308.308519 C212.527223,-307.490042 212.085236,-303.617308 213.000338,-302.693655 C215.481869,-300.17688 224.147716,-300.021112 226.603617,-301.157158 C229.468247,-302.479638 231.937583,-307.774579 235.55406,-308.133135 C235.542701,-308.132188 240.543268,-306.450077 240.695374,-306.33705 C244.339251,-303.646696 245.87664,-295.651645 249.45131,-293.717369 C250.630391,-293.080459 252.810005,-294.102055 253.488541,-293.610079 C257.548175,-290.643924 263.056763,-281.509492 265.342465,-277.686971 C272.05178,-266.464212 275.788826,-252.852939 271.533017,-239.491617 C270.20272,-235.30677 271.12292,-228.284963 269.398291,-224.629112 C267.099019,-219.757837 261.302126,-215.354993 258.578112,-211.267303 C257.707031,-209.960512 258.276375,-207.811942 257.366657,-206.719056 C257.551203,-206.938231 255.102981,-207.956946 254.987859,-207.854025 C254.21913,-207.157622 254.99637,-203.914085 253.503016,-201.947857 C250.596873,-198.119252 225.356884,-188.852351 224.495552,-187.513994 C223.009057,-185.207412 225.743514,-184.812507 226.274366,-180.540893 C227.084522,-174.02416 219.362007,-165.830627 227.460639,-160.618446 C229.450295,-159.338672 235.546741,-162.602762 236.481565,-156.475439 C237.127405,-152.232454 230.826993,-148.585678 229.197952,-143.408387 C226.580621,-135.074678 237.364648,-122.138352 247.366453,-120.004568 C250.510747,-119.335274 267.721079,-121.215359 271.041883,-116.639174 C273.852855,-112.763296 270.731955,-111.228995 268.729781,-106.654842 C268.369984,-105.826821 268.82366,-103.112463 268.017336,-101.702506 C267.704251,-101.154547 265.645402,-99.9201755 265.590292,-99.7213116 C263.56537,-92.7644937 267.968498,-85.6310994 275.561817,-84.5345783 C280.865259,-83.7671661 286.300763,-90.3835271 292.144834,-87.6937061 C295.752726,-86.0402726 302.255157,-77.9238398 300.127895,-74.1239632 C299.641531,-73.2530146 295.894428,-70.8189684 294.386598,-70.0819158 C286.144498,-66.0561821 281.721818,-66.773202 279.415072,-57.7111506 C278.535138,-54.2437872 275.831669,-49.3312064 276.445864,-45.895046 C277.159525,-41.9015047 281.480646,-38.1114941 282.435977,-33.9323966 C284.017114,-26.9942448 279.244677,-16.8581843 291.473222,-15.5556535 C294.055094,-15.2775459 299.84588,-16.7296316 302.413783,-20.916683 C303.57423,-22.8075488 302.885455,-26.6050842 305.333091,-29.6145825 C305.962073,-30.38695 311.543106,-33.2500154 311.576009,-33.2470439 C322.170525,-32.4425609 319.096568,-18.1512488 321.723256,-13.1800945 C324.410217,-8.09587765 334.306615,-4.30581574 337.280592,0.205950413 C337.991653,1.28564662 336.751177,2.12421644 337.61441,2.8503036 C345.21265,9.22981788 350.954961,4.03539361 360.839077,2.69544518 C362.495773,2.46784995 366.954924,4.05985779 369.40876,3.31443055 C376.333775,1.21166406 384.085437,-3.18078156 388.160926,6.64638173 C391.702586,15.1924249 378.385774,21.6085813 377.187262,29.3631215 C376.784942,31.9659793 379.724629,40.7888436 380.135552,42.0211643 C380.522236,43.1831297 382.80223,48.0155732 383.185295,48.4407542 C387.317446,53.0178839 402.041461,53.9029205 402.167693,60.6537845 C402.223949,63.688862 398.612664,66.4391823 397.593739,70.3790469 C396.634146,74.093031 395.974061,81.657945 397.724652,85.5003057 C400.9431,92.5705456 420.494001,101.003147 415.394143,108.500035 C415.158887,108.847237 412.24787,110.000263 412.079411,110.557119 C411.42699,112.697049 414.210258,111.758464 413.684157,112.647961 C411.531136,116.305234 405.46388,118.081292 404.687601,122.741828 C404.33244,124.87222 408.985858,130.375354 406.250847,135.069628 C403.77486,139.317585 394.094286,143.571772 393.39065,149.934694 C392.653095,156.58804 402.626139,160.348859 398.55468,165.969696 C394.80779,171.133038 386.30316,167.228883 381.307941,170.968767 C378.746373,172.884988 376.168571,177.446169 375.959457,181.646133 C375.748513,185.891961 379.630618,187.987266 379.953533,191.992424 C380.51259,198.867201 374.668353,197.773462 373.549211,197.864833 C371.040911,198.075793 369.479025,196.17184 365.524649,194.532048 C361.737223,192.95643 354.843402,191.763516 352.035008,193.875535 C344.527663,199.514187 352.987866,215.65158 341.562008,216.994322 C339.055009,217.290881 338.678667,214.703402 336.30327,214.318568 C325.858776,212.631172 320.451885,218.885176 313.424607,224.236217 C305.652327,230.154073 298.663637,214.575888 291.127476,214.08027 C289.369956,213.96582 283.449565,215.316335 281.619726,216.65161 C278.309981,219.064441 274.418459,229.70418 270.304324,229.609014 C265.139295,229.494776 264.504537,219.386557 262.432768,216.917528 C258.354904,212.059705 254.626101,213.176136 250.535689,211.23342 C249.831337,210.899774 247.892028,208.027354 247.434393,207.934078 C243.028261,207.030931 224.728147,219.134399 220.509623,210.621915 C219.416184,208.414177 223.345388,204.159378 218.894345,201.410593 C216.231544,199.771716 214.214353,200.836914 210.544364,202.552207 C206.426386,204.476253 202.78979,203.289938 201.809011,204.169716 C200.527085,205.329811 203.878576,204.52671 203.802916,205.784348 C203.37665,212.990753 182.302041,209.570484 186.263859,197.902108 C186.715514,196.576944 188.231514,196.100143 188.968077,194.562677 C191.351223,189.583467 191.142618,181.626229 191.990492,179.624282 C193.468253,176.133757 196.81159,174.739 195.902378,171.73692 C195.681712,170.993466 193.336899,169.101437 193.299613,168.837898 C193.02805,166.71403 193.480477,160.286338 194.115165,157.645067 C194.310969,156.836427 196.036282,156.079344 196.046986,155.259467 C196.145583,148.666994 190.594332,137.086783 181.588642,136.43938 C176.128326,136.048824 169.842649,139.223932 163.621538,139.275803 C158.001821,139.317548 150.929707,136.871021 144.984664,136.821794 C134.557762,136.734714 133.13202,140.017109 126.642241,147.250822 C123.306362,150.96478 116.705942,152.112945 110.105815,147.29583 C108.996074,146.481725 110.189081,145.374752 109.274641,144.245345 C107.99842,142.677555 104.211257,142.83702 101.750743,141.314607 C93.8075592,136.407541 93.2406374,131.038065 85.0339837,129.36033 C82.2974025,128.797997 78.1905745,130.568744 75.3043985,130.169344 C74.6188365,130.074113 73.9931423,128.596856 73.3104937,128.554711 C67.8291973,128.224947 61.3041163,132.000916 54.7860824,126.986498 C54.616438,126.855886 53.6163343,124.192785 53.0634332,124.012218 C52.403033,123.798708 45.5305468,123.316343 43.1108378,123.064716 C34.4588673,122.159279 23.1258329,123.705696 17.5483956,111.843879 C15.1449416,106.732224 17.6485834,102.114372 16.258538,98.1581581 C14.0137864,91.7648019 5.17637364,81.8488471 -2.73604542,78.8266908 C-8.60577341,76.5827837 -18.4870467,81.1851014 -25.8449418,79.8632603 C-34.281185,78.3513163 -35.0471101,62.7192168 -34.6708825,56.1283643 C-34.5553184,54.1150771 -32.9936886,53.2592636 -33.4620387,51.5746215 C-33.7905319,50.3887599 -36.5687561,49.6641958 -37.5592208,47.4688265 C-38.6627008,45.0162305 -36.6741768,41.8716772 -37.5676193,40.3500739 C-38.4221559,38.8937942 -40.5195008,39.6742664 -41.8288169,38.4787306 C-44.1855861,36.3267661 -43.6547475,32.0085659 -44.8286603,28.9409355 C-45.4289324,27.3625193 -47.4819756,26.4575237 -48.040286,24.757524 C-49.8742247,19.173673 -48.3161698,14.0099173 -54.1997232,7.91983923 C-57.3039828,4.70264241 -61.947434,5.39629675 -63.7779564,-0.627805191 C-65.700253,-6.95280586 -63.5699767,-16.2896508 -67.4592755,-22.5707012 C-68.2612882,-23.8694663 -70.7054635,-24.8713766 -71.0595809,-26.2741333 C-72.6105928,-32.4777097 -64.6361694,-33.5784997 -60.6247732,-39.1600476 C-58.711088,-41.8241141 -56.2378857,-49.6353742 -56.3841591,-51.5258938 C-56.4778489,-52.7008514 -60.5153883,-57.1506389 -60.8189461,-58.2757264 C-61.892926,-62.3344674 -59.8512464,-58.6858784 -63.4217113,-61.1747482 C-64.9476456,-62.237953 -69.9824837,-68.8615893 -69.1862029,-71.3753867 C-68.7756789,-72.662839 -66.447435,-73.6892049 -66.0949594,-75.1927545 C-65.4977918,-77.752809 -65.4603378,-82.6869801 -65.17121,-85.5032439 C-65.0770281,-86.3738843 -66.5151264,-87.5891606 -66.3867984,-88.0702962 C-66.2059722,-88.7557919 -63.6465433,-89.6490567 -63.5705969,-90.5277004 C-63.4508844,-91.9356657 -65.4578663,-91.3627095 -65.6764853,-93.0243594 C-65.947486,-95.0835174 -62.241307,-105.224036 -60.6634738,-106.344037 C-58.6609766,-107.766078 -51.9587014,-104.736388 -48.2762622,-107.378361 C-45.2934721,-109.518247 -41.7025021,-110.695566 -41.1494423,-111.086397 C-40.7968975,-111.33862 -41.795777,-115.001746 -38.4951238,-111.307622" id="Path" fill="url(#linearGradient-2)"></path>
                </g>
            </g>
        </g>
    </g>
</svg>