<?xml version="1.0" encoding="UTF-8" standalone="no"?>
<svg width="289px" height="272px" viewBox="0 0 289 272" version="1.1" xmlns="http://www.w3.org/2000/svg" xmlns:xlink="http://www.w3.org/1999/xlink">
    <!-- Generator: Sketch 39.1 (31720) - http://www.bohemiancoding.com/sketch -->
    <title>Path Copy 3</title>
    <desc>Created with Sketch.</desc>
    <defs>
        <linearGradient x1="110.046024%" y1="0%" x2="29.3176532%" y2="73.1181293%" id="linearGradient-1">
            <stop stop-color="#FF9030" stop-opacity="0.3" offset="0%"></stop>
            <stop stop-color="#FF9030" offset="100%"></stop>
        </linearGradient>
    </defs>
    <g id="1-Age-Landing-(READY)" stroke="none" stroke-width="1" fill="none" fill-rule="evenodd">
        <g id="Age-landing-desktop-" transform="translate(-1151.000000, -268.000000)" fill="url(#linearGradient-1)">
            <g id="Hero" transform="translate(0.000000, 60.000000)">
                <g id="bg">
                    <path d="M1277.96558,213.843785 C1278.03468,215.132266 1276.70511,215.847466 1276.65656,216.896924 C1276.59868,218.312385 1278.08696,217.389908 1277.53236,219.078004 C1277.14581,220.248841 1275.33074,221.083552 1274.91431,223.005069 C1273.69306,228.627699 1273.99744,239.107341 1277.96558,242.636658 C1278.39134,243.015733 1280.93656,242.843935 1281.45755,243.073621 C1283.95048,244.1791 1289.50776,247.865275 1291.49276,248.30784 C1292.83353,248.608485 1294.52349,247.783111 1295.85492,247.872744 C1299.48508,248.117369 1303.1227,249.26393 1307.19729,248.744803 C1310.56975,248.317177 1314.90763,245.762624 1317.2325,246.12676 C1317.29412,246.137964 1318.49484,247.355485 1318.10456,247.435781 C1319.34262,247.18182 1325.78876,242.832731 1327.70094,242.201562 C1328.08375,242.074582 1328.81575,243.165122 1329.44879,243.073621 C1329.97725,242.998926 1329.91376,242.074582 1330.75594,241.764599 C1332.94636,240.959766 1337.49899,241.632016 1338.17311,241.327636 C1341.59972,239.775857 1343.18511,227.83407 1344.71822,226.060075 C1347.31198,223.046151 1351.47434,220.687671 1355.62175,219.078004 C1356.52742,218.728807 1360.63189,215.806384 1363.03892,216.896924 C1363.93525,217.300274 1364.75689,221.531719 1364.78677,221.259084 C1364.50666,224.190844 1361.19396,226.588539 1361.29293,229.985272 C1361.40124,233.525793 1364.01928,239.077464 1364.34794,241.764599 C1364.48052,242.815925 1363.89604,245.36861 1364.34794,246.12676 C1365.79141,248.54126 1370.09755,247.596374 1372.20207,249.183633 C1376.14594,252.152741 1375.30749,258.897656 1377.43629,262.70521 C1378.17576,264.031038 1380.04686,263.952608 1380.92639,265.323253 C1382.7396,268.154176 1381.3036,269.653668 1383.10934,271.429531 C1384.74141,273.03733 1386.80111,273.900052 1388.34355,274.049441 C1390.20718,274.228708 1390.64415,272.706807 1392.70571,272.303457 C1395.02685,271.849687 1396.91849,272.889809 1399.25082,271.866494 C1402.80815,270.307245 1406.08724,266.034718 1410.59319,264.451194 C1411.83312,264.014231 1412.96847,264.533358 1414.08329,264.014231 C1415.0898,263.547391 1416.40069,261.752855 1417.57339,261.398056 C1419.09903,260.93495 1421.18674,261.857427 1422.80761,261.398056 C1426.92888,260.234688 1429.91666,255.635373 1433.27791,254.852948 C1434.91372,254.472006 1436.85952,255.618567 1438.51213,255.288043 C1440.10873,254.972459 1441.63623,252.886614 1443.31126,252.671868 C1444.54932,252.511274 1446.41295,254.038777 1448.11225,253.980889 C1451.61355,253.861378 1455.68814,251.222794 1459.88971,251.364713 C1462.76171,251.458081 1464.11182,250.994975 1465.99598,250.92775 C1467.99967,250.853056 1472.21244,253.075218 1475.15914,252.671868 C1478.10957,252.270384 1484.21771,247.799917 1487.37543,246.12676 C1493.11757,243.08856 1498.912,238.586347 1505.2629,236.53038 C1505.76709,236.366052 1507.25537,236.836628 1507.00888,236.965476 C1509.68668,235.589229 1510.93034,231.955341 1513.98722,232.605183 C1513.61748,232.524886 1521.01597,238.558337 1521.40438,239.146556 C1522.73955,241.159574 1524.00749,247.112727 1523.1485,250.053824 C1522.00194,253.992093 1515.83778,260.415823 1510.93408,263.142173 C1509.49808,263.939537 1507.53735,263.650096 1506.13496,264.451194 C1504.43192,265.424091 1502.94363,267.984246 1500.90074,269.685413 C1499.57864,270.78529 1497.19776,271.057925 1496.10161,271.866494 C1494.77765,272.844992 1494.50689,274.934571 1493.91867,275.356595 C1492.54989,276.346298 1490.78336,275.687119 1489.55651,276.230521 C1487.93003,276.949456 1487.65926,278.97928 1486.50337,280.155719 C1485.62944,281.044584 1484.76298,280.215474 1484.32229,281.027777 C1482.82279,283.79521 1484.02724,287.083636 1483.44836,289.753965 C1483.41475,289.910824 1481.77334,289.593372 1481.70424,289.753965 C1479.93585,293.828552 1482.59498,296.943314 1483.44836,301.096329 C1483.6463,302.052419 1482.57443,301.972123 1482.5763,303.279277 C1482.58751,307.028942 1485.98984,313.288343 1483.44836,317.239684 C1481.30089,320.584131 1474.35804,319.876401 1471.23394,319.85586 C1466.98755,319.827849 1463.7925,320.983747 1459.45274,321.164881 C1455.69001,321.323607 1450.41657,320.722316 1448.98431,321.164881 C1445.53902,322.233013 1437.17697,328.550303 1436.76802,330.763128 C1435.92957,335.310157 1439.21613,337.565932 1443.31126,337.308236 C1453.17093,336.686404 1460.84766,338.3745 1468.6159,337.308236 C1470.90342,336.992652 1472.86415,336.794711 1475.5961,336.43431 C1477.70622,336.15794 1480.46805,335.709773 1482.5763,335.127156 C1484.08887,334.706999 1485.11031,332.964749 1486.50337,332.509113 C1489.59572,331.500736 1489.9748,332.70892 1491.30436,332.509113 C1491.2278,332.518449 1495.12872,330.367247 1497.84573,330.328032 C1499.75418,330.300022 1508.56066,329.399953 1509.62506,330.763128 C1513.09088,335.196248 1506.45614,335.000175 1503.51878,335.127156 C1501.38625,335.216789 1499.96145,336.716282 1497.84573,336.871273 C1495.77296,337.024397 1493.74127,335.368046 1491.73945,335.127156 C1483.64257,334.148657 1473.09383,342.557394 1469.48795,349.522658 C1465.51794,357.193786 1474.35243,363.884549 1482.13934,366.973167 C1483.94881,367.690235 1486.25874,369.946009 1488.24748,370.026306 C1491.05973,370.140215 1499.98199,365.313081 1498.28083,372.207386 C1498.37233,371.846985 1495.77856,374.420212 1494.35376,374.827297 C1490.58542,375.902898 1488.16532,373.807716 1485.19435,374.827297 C1482.6678,375.693753 1482.6678,377.637678 1481.70424,378.317398 C1480.84152,378.924292 1480.44004,376.823508 1479.95826,378.317398 C1479.51569,379.69738 1481.83122,383.615108 1481.70424,385.732698 C1481.49697,389.245208 1479.8985,389.790478 1476.90512,392.275938 C1476.62502,392.509359 1476.09655,393.980841 1476.03306,394.021923 C1475.05456,394.636285 1473.40942,394.012586 1472.54296,394.895849 C1472.15268,395.29173 1473.26376,396.072288 1472.97806,396.639966 C1471.7624,399.071273 1466.82509,400.419509 1468.1808,404.492228 C1469.39645,408.142923 1477.56617,404.509034 1481.26915,406.673308 C1481.98061,407.091598 1481.25981,408.284843 1482.13934,409.293219 C1483.05808,410.340809 1484.95719,409.903847 1485.19435,410.16341 C1486.14483,411.21847 1484.84702,413.588154 1488.24748,414.090475 C1489.8198,414.322028 1491.88884,412.89723 1493.48357,413.216549 C1495.10444,413.543337 1503.2088,418.734607 1503.95388,418.889598 C1504.36096,418.971762 1504.33108,417.806527 1504.82407,418.017539 C1507.96684,419.356439 1509.99666,422.562701 1514.86114,422.814795 C1516.80133,422.9175 1518.65002,424.670954 1520.53419,424.997743 C1522.20548,425.287184 1524.16435,424.276941 1525.76655,424.558913 C1529.59837,425.242368 1538.18451,428.541998 1541.9099,428.92294 C1544.75016,429.214249 1552.47918,427.509346 1554.56129,430.231962 C1556.0197,432.136672 1553.46514,437.59871 1552.3802,438.086091 C1552.66404,437.957243 1546.20483,437.398902 1544.09098,436.775203 C1540.70172,435.778031 1539.34228,434.091802 1535.80362,433.722064 C1533.58893,433.492378 1530.13804,432.060111 1527.51253,431.540984 C1525.03641,431.051734 1523.80208,431.671699 1521.40438,431.540984 C1518.16824,431.365451 1513.81729,428.390742 1509.18996,428.050882 C1504.28627,427.690481 1501.94086,427.406642 1497.40877,427.178823 C1493.94481,427.005158 1493.81223,423.660711 1491.30436,423.251758 C1488.5612,422.807326 1484.3615,426.74933 1482.5763,427.613919 C1481.90032,427.944442 1481.55112,426.810953 1481.70424,426.74186 C1481.00025,427.064914 1481.76213,427.929503 1480.83032,428.485977 C1478.81357,429.694161 1473.59989,428.568141 1470.36188,428.485977 C1467.63366,428.418752 1460.18288,423.038879 1459.01765,427.613919 C1458.16987,430.950897 1462.4704,429.720304 1463.37981,430.668925 C1464.0726,431.38786 1462.91857,432.119866 1463.37981,433.285101 C1463.98483,434.808869 1468.84745,438.616423 1471.66903,439.395113 C1474.01631,440.039353 1476.96114,438.874119 1479.08807,438.95815 C1481.34384,439.045916 1484.16543,440.49499 1486.93846,440.702267 C1489.23532,440.874065 1491.30623,439.790994 1493.04661,439.830209 C1494.61146,439.867556 1493.49104,440.93382 1494.35376,441.13923 C1496.51804,441.64902 1500.82418,440.274641 1503.95388,440.267172 C1507.02942,440.257835 1510.38507,441.436141 1513.55212,441.576193 C1515.21781,441.64902 1531.65808,441.072005 1524.02243,445.064428 C1521.69756,446.280081 1522.57522,445.428563 1521.40438,445.501391 C1517.64912,445.734811 1509.74457,444.000031 1503.51878,444.192369 C1497.92229,444.366034 1490.24743,442.40717 1483.44836,442.448252 C1480.73695,442.463191 1478.93681,443.934673 1475.5961,443.32031 C1470.67933,442.414639 1466.27982,443.626558 1460.76363,442.885215 C1459.64882,442.733958 1455.83566,441.126159 1454.65736,441.576193 C1452.33062,442.457589 1452.26526,447.561092 1450.72842,448.991492 C1450.33068,449.36123 1449.60987,448.294966 1449.42127,448.556397 C1449.19158,448.868246 1449.70511,450.15486 1449.42127,450.737477 C1449.2252,451.137093 1447.68275,451.279012 1447.23832,452.044631 C1446.22995,453.796218 1445.45312,461.30862 1445.93117,462.516804 C1446.80696,464.733364 1455.04763,466.748249 1457.27353,466.878964 C1462.293,467.174008 1468.19761,469.612784 1474.72591,470.804162 C1478.94241,471.575383 1482.90496,469.741632 1486.93846,470.369066 C1489.38844,470.750008 1493.77675,473.239203 1493.91867,474.294263 C1494.51996,478.783404 1489.02057,476.945919 1488.24748,476.914174 C1483.68552,476.714366 1477.89669,476.473476 1474.72591,474.731226 C1472.69982,473.620145 1469.44127,473.508103 1466.43481,474.294263 C1462.93538,475.211139 1453.28858,475.338119 1454.22039,478.223195 C1454.58826,479.364154 1463.44703,480.512583 1464.6907,480.839371 C1470.73909,482.422895 1476.98542,486.839209 1483.88532,489.565559 C1485.706,490.284494 1488.59108,490.056676 1489.99347,490.872714 C1491.34357,491.660741 1490.4267,491.389973 1492.61338,491.74664 C1494.58531,492.067826 1495.68893,493.899709 1497.40877,494.362815 C1498.85037,494.751227 1500.60383,494.801646 1502.20789,495.671837 C1504.25079,496.779183 1514.18329,497.847315 1512.68006,501.344886 C1512.84252,500.969546 1512.4149,502.192669 1509.62506,501.779982 C1503.25548,500.836963 1491.43507,492.850251 1483.88532,490.437618 C1479.46714,489.024024 1472.53923,488.463815 1469.92305,486.947516 C1467.96419,485.808425 1469.89504,485.998896 1467.74384,486.07359 C1464.15103,486.202438 1459.13716,481.799196 1455.09058,479.967313 C1452.59392,478.835691 1450.45766,479.100856 1445.93117,477.786232 C1442.25806,476.718101 1437.10974,473.403531 1435.0239,473.859168 C1430.82046,474.77791 1429.83823,476.934715 1425.42752,479.093387 C1421.36414,481.080261 1417.04679,480.990628 1415.82927,483.89251 C1415.34376,485.050275 1415.93011,489.793378 1416.69946,491.309677 C1417.93379,493.739116 1419.53412,492.476779 1421.50232,493.490757 C1422.81695,494.170477 1423.8496,496.711958 1425.86448,497.417822 C1430.53849,499.057366 1435.47954,497.201207 1437.20498,500.035865 C1437.63821,500.745463 1437.75025,503.800469 1436.33105,504.398025 C1434.59254,505.130031 1431.47404,501.779982 1430.65987,501.344886 C1426.80563,499.272113 1420.85808,495.557928 1423.24457,503.089003 C1423.78611,504.797641 1422.82068,504.941428 1424.11663,506.142142 C1425.96719,507.856382 1433.11359,505.886313 1431.09497,512.250287 C1431.4535,511.126135 1428.1352,514.849657 1428.91575,514.431367 C1426.15206,515.912186 1419.92627,511.062644 1418.44545,510.941266 C1417.46322,510.862836 1417.70971,511.966448 1416.26437,512.250287 C1413.97872,512.700322 1408.78371,511.075716 1406.66612,512.250287 C1405.49529,512.90013 1407.12736,513.531298 1406.66612,514.431367 C1406.36361,515.023321 1403.0397,516.485467 1401.4319,518.795395 C1400.10608,520.698238 1400.27787,523.155688 1399.68592,524.031481 C1399.61496,524.134186 1397.92126,524.565547 1397.93993,524.466577 C1397.07161,528.683083 1402.64195,533.532625 1398.3769,535.371978 C1398.10053,535.491489 1396.74669,534.656778 1396.63091,534.936882 C1396.65519,534.880861 1398.57484,546.592963 1395.75885,545.407188 C1395.94746,545.485617 1393.57217,540.116948 1393.57964,538.426984 C1393.59085,535.960197 1394.12118,534.630635 1390.52463,533.627861 C1388.28567,533.004161 1381.38389,533.310409 1380.05246,534.936882 C1378.03198,537.407404 1378.45587,544.798427 1380.92639,546.279246 C1381.88248,546.850659 1383.18963,545.799334 1383.54443,545.844151 C1386.48553,546.217623 1396.26678,549.268895 1390.52463,554.133376 C1389.16146,555.285539 1379.5408,555.10067 1377.43629,553.25945 C1375.97974,551.982173 1377.43442,552.551719 1374.81824,552.822487 C1372.29544,553.083918 1371.3935,551.380882 1368.7101,550.641407 C1367.35066,550.266067 1366.48794,551.265106 1365.65696,551.07837 C1364.48239,550.813204 1365.35818,549.610622 1363.91097,548.897289 C1363.41799,548.654532 1362.85591,550.267934 1362.16872,549.769348 C1360.86157,548.82633 1360.07728,546.107449 1358.24353,544.970225 C1353.33796,541.935759 1350.77034,538.074052 1344.28125,538.426984 C1341.17396,538.595047 1335.9995,536.643652 1332.93889,537.991888 C1330.68872,538.979724 1326.46101,543.498742 1325.95869,546.279246 C1325.94748,546.337134 1326.46287,551.362209 1326.39191,551.07837 C1326.616,551.982173 1328.0576,555.44053 1329.44879,557.623477 C1330.61776,559.460963 1335.62416,564.153646 1331.19104,566.784761 C1330.84184,566.992039 1324.74677,566.926681 1323.33878,565.910835 C1321.97,564.924867 1322.13619,561.515062 1321.1577,559.367595 C1317.55929,551.48172 1307.2365,549.442559 1300.65405,544.970225 C1300.1704,544.641569 1298.93234,545.326891 1298.47297,544.970225 C1297.89222,544.52019 1297.92956,542.725654 1297.16395,541.917086 C1296.99588,541.739686 1295.17707,541.605236 1294.98473,541.48199 C1291.38632,539.177664 1288.61889,532.124633 1283.63863,531.446781 C1275.03196,530.272209 1277.95438,540.341031 1277.53236,545.407188 C1277.39604,547.044865 1276.86384,548.762839 1276.65656,548.897289 C1270.95924,552.622679 1267.7399,537.022727 1264.00891,536.245904 C1261.93054,535.812676 1259.70838,539.093633 1257.4638,538.86208 C1255.93817,538.707089 1254.80094,536.173077 1253.53674,534.936882 C1251.19693,532.653097 1243.21956,521.52548 1240.44839,520.539512 C1234.46723,518.410718 1228.32174,523.801796 1223.87181,524.466577 C1220.84481,524.916612 1215.07466,524.369474 1211.21669,522.720592 C1208.97772,521.764503 1209.05055,521.15014 1205.98434,520.539512 C1199.94715,519.33693 1193.13314,512.959885 1192.02206,506.142142 C1191.7569,504.510067 1191.22283,500.876178 1192.45903,499.598902 C1192.60468,499.449513 1193.68588,499.774434 1193.76805,499.598902 C1194.45524,498.118083 1195.31049,494.185416 1196.38796,492.618698 C1197.32724,491.249921 1200.42706,489.025891 1196.38796,487.382612 C1194.28904,486.531094 1191.73636,487.841983 1189.84098,487.382612 C1184.00174,485.967151 1179.81884,478.760996 1181.55362,472.987109 C1181.73663,472.372747 1183.45647,468.436345 1184.1698,467.315927 C1184.86633,466.22352 1186.1268,466.953659 1186.35275,465.569943 C1187.09222,461.015444 1182.61989,455.859654 1179.80764,455.5366 C1175.30356,455.015606 1169.83219,464.421514 1168.46528,457.280718 C1167.75008,453.549726 1172.78822,450.085767 1174.13646,449.428455 C1182.379,445.398686 1179.01961,437.96658 1171.95351,433.285101 C1169.92929,431.944334 1169.17301,429.320689 1168.02831,428.92294 C1166.10493,428.254424 1163.65121,430.245034 1161.92017,428.92294 C1160.50844,427.845472 1161.85294,425.360011 1159.30212,424.558913 C1159.42724,424.598127 1148.06247,427.165752 1151.88869,423.688721 C1153.51517,422.20977 1158.30495,422.501078 1160.17418,421.944604 C1162.42062,421.272353 1164.48406,419.703768 1165.84537,419.324694 C1167.85838,418.766352 1170.1459,420.196752 1171.08145,418.452635 C1171.63046,417.434922 1170.12536,412.747841 1168.90037,411.472432 C1164.99385,407.409049 1170.79575,401.922736 1166.71742,396.639966 C1165.73519,395.366424 1161.68301,393.680195 1159.73909,393.586827 C1156.76251,393.439305 1153.62347,392.479481 1154.50113,387.478682 C1154.72522,386.216345 1157.46464,384.390064 1157.9931,382.242596 C1158.36471,380.741236 1157.60843,379.602144 1157.9931,378.752494 C1158.39832,377.859894 1160.07148,377.271675 1160.17418,376.571414 C1160.3964,375.075656 1158.58692,372.196182 1158.43007,370.900232 C1158.10141,368.222433 1159.19008,365.78179 1157.55988,363.483065 C1155.13977,360.08073 1150.73093,358.992057 1151.0129,355.19384 C1151.16602,353.173353 1154.81112,349.957754 1157.12291,349.957754 C1159.23863,349.959621 1159.63825,352.430143 1161.04998,352.577665 C1161.91643,352.667298 1161.53176,351.007212 1161.92017,350.83168 C1162.95842,350.362972 1164.74175,351.257439 1165.84537,350.83168 C1167.10397,350.346166 1169.06096,345.360306 1167.59322,342.544322 C1166.88175,341.17928 1164.9621,341.913153 1163.22732,340.361375 C1161.37677,338.705024 1157.16773,332.400805 1159.30212,328.146952 C1159.9389,326.875278 1163.05179,325.883708 1164.97517,325.527042 C1166.19083,325.304825 1172.04128,327.093759 1174.13646,325.964005 C1175.61541,325.168508 1174.19808,322.076154 1175.87871,319.420764 C1176.62939,318.240591 1178.54157,318.535634 1178.50049,316.802721 C1178.45193,314.942827 1170.03013,307.538732 1168.46528,304.151335 C1167.78369,302.677986 1161.04624,297.660381 1159.30212,293.68103 C1156.04358,286.239588 1161.68488,288.661558 1163.22732,291.062987 C1163.5205,291.516756 1163.61387,294.304729 1165.41214,294.990052 C1168.47275,296.159021 1173.75365,296.364431 1176.31754,297.606228 C1177.08876,297.981568 1177.53879,299.333538 1177.62656,299.352212 C1181.49574,300.173852 1187.52172,297.727606 1188.095,292.807104 C1188.40871,290.129305 1186.25191,286.670949 1188.96892,284.082783 C1192.36566,280.852245 1197.83143,284.551492 1199.87619,284.082783 C1202.8565,283.399329 1202.72205,280.075422 1204.23648,276.665617 C1205.59032,273.631152 1209.06735,271.36604 1209.47444,268.813355 C1209.93754,265.90587 1206.76863,262.69774 1207.72845,260.961093 C1208.15048,260.197341 1210.48095,260.18427 1210.78159,259.652071 C1211.38475,258.582072 1209.917,255.9771 1211.65552,254.852948 C1213.03363,253.962215 1217.70204,255.284309 1219.07082,256.598932 C1219.41628,256.929456 1218.43965,257.814586 1218.63572,258.343049 C1218.89155,259.037709 1224.96982,265.22615 1223.43298,264.451194 C1226.29565,265.898401 1236.11051,262.193552 1236.08623,262.268247 C1236.23749,261.818212 1231.30205,258.804288 1236.08623,257.034028 C1237.94239,256.346838 1236.8033,258.720257 1236.95642,258.778145 C1239.58193,259.803327 1247.23999,247.783111 1247.86369,244.819605 C1248.64798,241.10542 1243.67893,230.153335 1247.86369,229.548309 C1248.89448,229.400788 1250.53589,231.34658 1250.91683,231.294294 C1251.51625,231.210263 1250.95418,229.80974 1251.35379,229.548309 C1256.18466,226.455956 1255.13707,233.176596 1257.02684,237.837535 C1257.82234,239.807603 1260.53748,243.503114 1260.95204,243.945679 C1261.63363,244.673951 1264.9594,246.754194 1265.75116,246.563723 C1267.19277,246.220128 1268.38041,236.816087 1268.8043,233.475374 C1269.09001,231.255079 1269.52137,227.085257 1269.67823,223.005069 C1269.90418,217.205039 1266.29643,209.588064 1272.2944,208.172603 C1275.74342,207.358433 1277.7415,209.453614 1277.96558,213.843785 Z" id="Path-Copy-3" transform="translate(1353.000000, 387.439937) scale(-1, 1) translate(-1353.000000, -387.439937) "></path>
                </g>
            </g>
        </g>
    </g>
</svg>