<?xml version="1.0" encoding="UTF-8" standalone="no"?>
<svg width="1385px" height="360px" viewBox="0 0 1385 360" version="1.1" xmlns="http://www.w3.org/2000/svg" xmlns:xlink="http://www.w3.org/1999/xlink">
    <!-- Generator: Sketch 39.1 (31720) - http://www.bohemiancoding.com/sketch -->
    <title>bg</title>
    <desc>Created with Sketch.</desc>
    <defs>
        <linearGradient x1="39.6162536%" y1="59.5084423%" x2="39.616254%" y2="19.6593469%" id="linearGradient-1">
            <stop stop-color="#2793E0" offset="0%"></stop>
            <stop stop-color="#0055B8" offset="100%"></stop>
        </linearGradient>
        <linearGradient x1="50%" y1="72.9440324%" x2="84.9113857%" y2="15.6941428%" id="linearGradient-2">
            <stop stop-color="#01A4FF" offset="0%"></stop>
            <stop stop-color="#0055B8" offset="100%"></stop>
        </linearGradient>
    </defs>
    <g id="Illustrations-(READY)" stroke="none" stroke-width="1" fill="none" fill-rule="evenodd">
        <g id="Program-Landing" transform="translate(-3.000000, 0.000000)">
            <g id="bg">
                <path d="M604.828831,33.7254414 C604.034685,36.7548559 607.613893,38.5069738 607.983198,40.2229941 C606.07836,41.3475705 605.112057,41.9056936 604.717762,43.4190125 C604.120764,45.6959327 605.428605,46.8510532 606.558735,48.7669982 C603.326619,48.7253472 600.999717,51.3549124 600.005647,55.1534817 C599.608575,56.6668006 599.775179,59.1436454 600.910862,61.0623672 C599.941783,61.6177136 587.404838,59.946121 585.813771,66.0216104 C585.416698,67.5349293 585.985928,68.4901251 585.583302,70.0089975 C581.781956,69.0121507 581.840267,65.7855882 578.799746,64.9886661 C575.001176,63.9918194 572.496564,67.3905393 567.964938,66.202098 C563.394437,65.0053265 564.78558,59.6989918 559.476468,58.3050724 C555.700113,57.3165558 554.145143,60.1460457 552.615164,59.7434195 C551.870999,59.5490483 551.870999,59.5490483 552.070924,58.7882238 C552.470774,57.2776816 555.139213,56.3530299 555.930582,53.3208386 C556.133283,52.5627908 554.286756,47.2175818 548.983198,45.8236624 C549.580196,43.5495189 551.47948,42.4332727 552.079254,40.1563525 C553.070548,36.3633367 551.171263,37.4851364 549.49134,34.6112189 C551.396178,33.4894192 552.562406,32.1788017 553.156626,29.9018815 C553.556476,28.3885626 553.953548,26.8669135 553.584243,25.1508932 C555.514072,24.0346469 557.977033,23.8763732 558.576807,21.5966763 C558.776732,20.8414052 558.207502,19.880656 558.410203,19.1226082 C558.604574,18.3645603 577.311417,11.925319 579.435617,10.0482482 C582.473362,10.8423936 584.889119,13.9134591 587.924087,14.7076044 C590.192677,15.301825 592.122506,14.1828021 594.593797,14.0189749 C595.213008,27.1556936 608.61074,19.3169794 604.828831,33.7254414" id="Path" fill="#459BFF" transform="translate(578.483198, 40.028623) rotate(-93.000000) translate(-578.483198, -40.028623) "></path>
                <path d="M788.335306,69.5568022 C788.124711,70.3601557 789.073861,70.8247901 789.171795,71.279852 C788.666661,71.5780722 788.410413,71.7260777 788.305852,72.1273863 C788.147537,72.7311901 788.494356,73.0375101 788.794049,73.5455889 C787.936942,73.5345437 787.319884,74.2318634 787.056273,75.2391849 C786.950975,75.6404935 786.995156,76.2973142 787.296321,76.8061293 C787.039337,76.9533986 783.714734,76.5101182 783.292808,78.1212434 C783.18751,78.5225521 783.338461,78.7758551 783.231691,79.1786364 C782.223633,78.9142882 782.239097,78.058654 781.432798,77.8473227 C780.425476,77.5829745 779.761292,78.4842621 778.559575,78.1691059 C777.347549,77.8517408 777.716459,76.4445834 776.308565,76.0749377 C775.307134,75.8127985 774.894781,76.5631351 774.489054,76.456365 C774.291713,76.4048207 774.291713,76.4048207 774.34473,76.2030619 C774.450764,75.8024896 775.158393,75.5572864 775.368251,74.7531965 C775.422004,74.552174 774.932334,73.1347078 773.525913,72.765062 C773.684228,72.1619946 774.187888,71.8659835 774.346939,71.2621797 C774.609815,70.2563309 774.106154,70.5538148 773.660665,69.7916966 C774.165798,69.4942127 774.475063,69.1466574 774.632641,68.5428536 C774.738675,68.141545 774.843973,67.7380273 774.746039,67.2829655 C775.257799,66.9869543 775.910938,66.9449826 776.069989,66.3404425 C776.123006,66.1401563 775.972055,65.8853806 776.025808,65.6843581 C776.077352,65.4833356 781.038116,63.7757491 781.601421,63.2779791 C782.406983,63.4885741 783.047605,64.3029729 783.852431,64.5135678 C784.454026,64.6711459 784.965786,64.3743984 785.621134,64.330954 C785.785339,67.8146073 789.338209,65.7359023 788.335306,69.5568022" id="Path" fill="#459BFF" transform="translate(781.348854, 71.228308) rotate(-93.000000) translate(-781.348854, -71.228308) "></path>
                <path d="M60.2624158,235.722417 C60.2624158,236.708211 59.6873544,237.195808 58.5557822,238.176302 C59.12466,239.162097 61.9875997,239.654994 61.9875997,241.621283 C61.9875997,250.943929 69.995174,244.064568 72.8704806,251.935023 C74.5894811,251.436826 75.7457872,250.456331 77.4647877,250.456331 C79.752666,250.456331 82.034361,251.935023 84.3284228,251.935023 C85.4847289,250.456331 97.5115489,243.582271 97.5115489,243.094674 C97.5115489,243.068174 97.4929986,243.041674 97.4929986,243.015174 C100.368305,245.246462 103.181777,247.880546 103.608436,247.975946 C104.164947,248.081945 104.727641,248.198544 104.857494,247.716247 C104.857494,247.716247 100.349755,242.962175 96.9797718,241.297984 C97.2085596,240.068391 98.7420565,239.575494 99.8056107,238.6692 C99.2552832,237.736405 99.2305494,236.80891 99.2305494,235.876116 C99.3665854,236.109314 99.5211718,236.337213 99.6943085,236.581012 C100.25082,236.687011 101.62973,235.966215 101.759583,235.483918 C102.025471,234.524624 100.912449,234.296725 100.349755,234.180126 C100.059132,234.116526 99.7252258,234.206625 99.4655207,234.360324 C99.7252258,233.581229 100.201352,232.929333 100.943366,232.288036 C99.2305494,230.809345 98.0866102,231.789839 98.0866102,229.341253 C98.0866102,227.867862 99.2305494,226.887368 99.2305494,225.408676 C95.2174871,225.408676 92.9234253,222.467193 92.9234253,221.968996 C92.9234253,220.002707 94.6362423,219.027513 94.6362423,218.041719 C94.6362423,217.543522 94.6362423,217.543522 94.0859148,217.543522 C92.9234253,217.543522 92.3421805,219.50451 89.4916077,219.50451 C85.4847289,219.50451 85.4847289,216.08073 82.034361,216.08073 C78.6087269,216.08073 77.4647877,218.539916 74.5894811,218.539916 C72.2892358,218.539916 71.7389083,216.568327 68.8636017,216.568327 C68.8636017,217.543522 69.4448465,218.041719 69.4448465,219.027513 C69.4448465,222.95479 60.2624158,223.935285 59.6873544,224.428182 C60.8436605,225.408676 61.4249053,226.887368 61.4249053,227.867862 C61.4249053,230.327048 60.2624158,232.288036 57.9745374,232.775634 C59.12466,233.756128 60.2624158,234.249025 60.2624158,235.722417 L60.2624158,235.722417 Z" id="Path" fill="#459BFF" transform="translate(81.416015, 234.007877) rotate(-138.000000) translate(-81.416015, -234.007877) "></path>
                <path d="M850.069591,215.209119 C850.069591,216.857707 849.347964,217.673138 847.927988,219.312862 C848.641856,220.961451 852.234474,221.785745 852.234474,225.074058 C852.234474,240.664739 862.282941,229.160075 865.891078,242.322191 C868.048201,241.489033 869.499215,239.849308 871.656338,239.849308 C874.527328,239.849308 877.39056,242.322191 880.26931,242.322191 C881.720324,239.849308 896.812424,228.353508 896.812424,227.538077 C896.812424,227.49376 896.789145,227.449443 896.789145,227.405126 C900.397282,231.136608 903.927825,235.541707 904.463226,235.701248 C905.161575,235.878515 905.867684,236.073509 906.030632,235.266942 C906.030632,235.266942 900.374004,227.316492 896.145112,224.533392 C896.432211,222.477088 898.356551,221.652794 899.691174,220.137157 C899.000584,218.577202 898.969546,217.026111 898.969546,215.466157 C899.140254,215.856145 899.33424,216.23727 899.551504,216.644986 C900.249853,216.822253 901.980207,215.616834 902.143155,214.810267 C902.476811,213.205995 901.080113,212.82487 900.374004,212.629876 C900.009311,212.523515 899.590301,212.674193 899.264405,212.931231 C899.590301,211.628314 900.187778,210.538119 901.11891,209.46565 C898.969546,206.992768 897.534051,208.632492 897.534051,204.537612 C897.534051,202.073593 898.969546,200.433868 898.969546,197.960986 C893.933674,197.960986 891.054923,193.041811 891.054923,192.208654 C891.054923,188.920341 893.204287,187.289479 893.204287,185.640891 C893.204287,184.807734 893.204287,184.807734 892.513697,184.807734 C891.054923,184.807734 890.325537,188.087183 886.748437,188.087183 C881.720324,188.087183 881.720324,182.361441 877.39056,182.361441 C873.091833,182.361441 871.656338,186.474049 868.048201,186.474049 C865.161691,186.474049 864.471102,183.176872 860.862965,183.176872 C860.862965,184.807734 861.592351,185.640891 861.592351,187.289479 C861.592351,193.857242 850.069591,195.496967 849.347964,196.321261 C850.798978,197.960986 851.528365,200.433868 851.528365,202.073593 C851.528365,206.1862 850.069591,209.46565 847.198601,210.281081 C848.641856,211.920806 850.069591,212.7451 850.069591,215.209119 L850.069591,215.209119 Z" id="Path" fill="#459BFF" transform="translate(876.614616, 212.341816) rotate(90.000000) translate(-876.614616, -212.341816) "></path>
                <path d="M1069.65529,86.497229 C1069.65529,86.6823314 1069.55314,86.7733979 1069.55314,86.8644643 C1069.55314,87.1406332 1069.85629,87.3227661 1070.06389,87.3227661 C1070.467,87.3227661 1070.6724,87.2326895 1070.87561,87.2326895 C1071.38526,87.4168021 1071.79277,87.5979452 1072.09703,87.9651805 C1072.09703,88.8837638 1071.28311,89.5251883 1071.28311,90.0755464 C1071.28311,90.0755464 1071.38526,90.1666129 1071.48742,90.1666129 C1071.68952,89.3410757 1072.29803,88.5165284 1073.21629,88.5165284 C1074.64201,88.5165284 1075.55588,89.9834901 1076.7784,90.3507255 L1076.7784,91.6117978 C1076.42581,91.2792073 1075.95899,90.8941546 1075.63167,90.823875 C1075.63167,90.823875 1075.53062,90.8030881 1075.50755,90.8921749 C1075.93812,91.180222 1076.45986,91.6622803 1076.7784,91.9424086 L1076.7784,92.0918763 C1076.79158,92.0562416 1076.80146,92.0126881 1076.81355,91.9750737 C1076.93767,92.0849474 1077.02883,92.1591863 1077.05629,92.1641356 C1077.15405,92.1869022 1077.2551,92.2086789 1077.27817,92.1176125 C1077.27817,92.1176125 1077.1189,91.9404289 1076.89043,91.7196917 C1077.01675,91.2376335 1077.08375,90.6922246 1077.08375,90.2576793 C1077.08375,90.1666129 1076.9805,89.9834901 1076.9805,89.8003674 C1076.9805,89.3410757 1077.59341,89.2500093 1078.10087,89.2500093 C1079.52769,89.2500093 1078.50837,90.4427818 1079.42554,90.4427818 C1079.68586,90.4427818 1079.57931,89.507371 1080.17464,89.0619373 C1080.15487,89.1500342 1080.34929,89.191608 1080.44705,89.2143746 C1080.57007,89.1450849 1080.57007,89.1450849 1080.59204,89.056988 C1080.60961,88.9985867 1080.57995,88.9322666 1080.53162,88.8877232 C1080.53712,88.8857435 1080.54041,88.8837638 1080.5448,88.8837638 L1081.15442,89.8914338 C1081.15442,89.9834901 1081.25766,89.9834901 1081.25766,89.9834901 C1081.56302,89.9834901 1081.86728,89.6172446 1081.86728,89.4321422 C1081.86728,89.1569631 1081.56302,88.9748302 1081.56302,88.8837638 C1081.56302,88.4244721 1082.07268,88.331426 1082.37693,88.2403595 C1082.57904,88.6075949 1082.88439,88.9748302 1083.39515,88.9748302 C1083.4962,88.9748302 1083.59615,88.9748302 1083.59615,88.7907176 C1083.59615,88.6986613 1083.4962,88.4244721 1083.39515,88.2403595 C1083.39515,87.5979452 1083.6983,87.0485769 1084.41116,87.0485769 C1084.71652,87.0485769 1085.73254,88.0572368 1085.73254,88.0572368 L1085.53153,86.7733979 C1085.53153,86.7704283 1085.52933,86.7674588 1085.52824,86.7654791 C1085.6919,86.7130169 1085.85446,86.5536506 1085.89071,86.4190306 C1085.93794,86.2388774 1085.70947,85.9082666 1085.4129,85.8429364 C1085.40961,85.8429364 1085.40302,85.8468958 1085.39753,85.8468958 C1085.59963,85.3767157 1085.93794,84.7867635 1086.14114,84.4789194 C1087.0594,84.4789194 1087.66791,85.1223236 1088.07542,85.1223236 C1088.17867,85.1223236 1088.27643,85.0302673 1088.27643,84.9392009 C1088.27643,84.2977763 1086.75295,84.2977763 1086.75295,83.5633056 C1086.75295,83.2871367 1086.95615,83.0119577 1087.26041,83.0119577 C1087.33181,83.0119577 1087.4032,83.0545213 1087.50645,83.0812474 C1087.50096,83.0980749 1087.49766,83.1119328 1087.49327,83.1317299 C1087.54489,83.3306902 1087.54489,83.3306902 1087.64485,83.3514772 C1087.94142,83.4148277 1088.15231,82.613047 1088.17647,82.5219806 C1088.09739,82.5675138 1088.03258,82.5764225 1087.97656,82.5784022 C1087.80521,82.4022084 1087.46581,82.1616742 1087.46581,81.8201751 C1087.46581,80.9956278 1088.17867,80.9956278 1088.99039,80.9956278 C1088.68503,80.9025816 1088.38078,80.7194589 1088.38078,80.4442798 C1088.38078,79.985978 1088.89043,79.710799 1088.89043,79.3435636 C1088.89043,79.0683846 1087.87332,79.1604409 1087.87332,77.6014229 C1087.87332,77.2351774 1088.58618,77.1421313 1088.78718,77.1421313 C1088.58618,76.0424049 1086.95615,76.5917732 1086.95615,75.1248115 C1086.95615,74.9416888 1087.16045,74.6655199 1087.16045,74.483387 C1087.16045,74.2497817 1086.87158,74.1498066 1086.53766,74.039933 L1086.55524,73.9746027 L1086.49702,74.0280547 C1086.04668,73.8815565 1085.53153,73.7132816 1085.53153,73.1985582 C1085.53153,73.0134557 1085.73254,72.8313228 1085.83689,72.6472102 C1085.74462,72.5660423 1085.68201,72.4789353 1085.63698,72.3908384 C1085.82151,72.2888836 1085.98627,72.1592129 1086.00933,72.0691363 C1086.05766,71.8899729 1086.08183,71.8028659 1086.00604,71.6900227 C1085.78636,71.6444895 1085.60842,71.6939821 1085.46233,71.7860384 C1085.39094,71.5425347 1085.25144,71.3287265 1084.78352,71.204005 C1084.85052,70.9802983 1084.85052,70.8773537 1084.56165,70.8159828 C1084.46279,70.7932162 1084.24201,70.841719 1084.19478,71.022862 C1084.18599,71.0515677 1084.1794,71.0812633 1084.17281,71.109969 C1084.00256,71.0980908 1083.81693,71.0891821 1083.59615,71.0891821 C1083.59615,70.6348397 1083.69611,70.0924005 1083.79936,69.6380581 C1084.15524,69.9488718 1084.44851,70.2270204 1084.50453,70.2388987 C1084.60338,70.2586957 1084.70334,70.2804725 1084.72641,70.1903959 C1084.72641,70.1903959 1083.67304,69.0233596 1083.07991,68.8966584 C1083.07991,68.8966584 1082.97995,68.8768614 1082.95689,68.9649583 C1083.11725,69.0728522 1083.293,69.2104417 1083.46544,69.3519907 C1082.97995,69.3826761 1082.77785,70.0894309 1082.47689,70.5378342 C1081.66517,70.0795324 1080.74691,69.4390977 1080.24055,68.8887396 C1080.24055,68.7966833 1080.3394,68.704627 1080.3394,68.6125707 C1080.3394,68.429448 1080.24055,68.2453354 1080.03405,68.2453354 C1079.62764,68.3373917 1079.01913,68.704627 1078.81263,68.8887396 C1078.60943,68.6125707 1077.08375,68.0632025 1077.08375,67.3287318 L1077.08375,65.7697138 C1076.9805,66.1359593 1076.88055,67.3287318 1076.67625,67.3287318 C1076.47414,67.3287318 1076.26764,67.2366755 1076.16769,67.2366755 C1075.96339,67.2366755 1075.86453,67.3287318 1075.76128,67.4197982 C1075.86453,67.602921 1075.96339,67.7880234 1075.96339,68.0632025 C1075.96339,68.3324424 1075.85355,68.5987128 1075.59432,68.7590689 C1075.56247,68.7333327 1075.52293,68.711556 1075.4724,68.7016575 C1075.37135,68.6788908 1075.34828,68.7699573 1075.34828,68.7699573 C1075.34279,68.7927239 1075.36366,68.8214296 1075.39661,68.8501354 C1075.35048,68.8639933 1075.30325,68.8788411 1075.25162,68.8887396 C1074.33666,68.8887396 1073.92915,68.2453354 1073.01089,68.2453354 C1072.91094,68.2453354 1072.70774,68.3373917 1072.50453,68.3373917 C1072.09703,68.3373917 1072.20028,67.8790899 1071.68952,67.8790899 C1071.38526,67.8790899 1071.17986,68.2453354 1071.07991,68.2453354 L1070.97666,68.2453354 C1071.07991,68.6125707 1071.07991,69.0728522 1071.07991,69.6222205 C1070.36815,70.3557013 1068.02526,70.9971258 1067.41675,71.822663 C1067.41675,72.1889085 1067.92202,72.2809648 1067.92202,72.5561438 C1067.72101,73.3816809 1067.41675,73.5657935 1067.00925,73.5657935 C1066.80275,73.5657935 1066.60064,73.4737372 1066.39854,73.4737372 C1066.19314,73.4737372 1066.09099,73.5657935 1066.09099,73.8399827 C1066.39854,74.2082079 1066.70279,74.2082079 1066.70279,74.7565863 C1066.70279,76.2245378 1065.17602,75.3999906 1065.17602,76.0424049 C1065.17602,76.4007316 1065.79332,76.5977123 1066.06462,77.1916239 C1065.99982,77.0985778 1065.90426,77.0263185 1065.75707,76.9936534 C1065.4616,76.9293129 1065.29245,77.1757863 1065.22106,77.446016 C1065.15076,77.7132763 1065.37703,78.0448769 1065.67469,78.1072376 C1065.97236,78.1705882 1066.09428,78.1022884 1066.11845,78.0122118 C1066.1492,77.8944193 1066.17117,77.7568298 1066.17446,77.6182504 C1066.17886,77.6736822 1066.19314,77.7241647 1066.19314,77.7855355 C1066.19314,79.3435636 1064.87176,78.3339139 1064.87176,79.1604409 C1064.87176,79.7276265 1065.90426,79.2930812 1066.14371,79.9463839 C1066.04485,80.0156736 1065.96906,80.1057502 1065.96906,80.1958268 C1065.96906,80.2710556 1066.04376,80.3443047 1066.18215,80.3680612 C1066.11954,80.9629626 1065.58353,81.4687773 1065.58353,81.7291086 C1065.58353,81.9122314 1066.29639,82.2794667 1066.70279,82.2794667 C1066.70279,82.7377685 1066.09099,83.0119577 1066.09099,83.3801829 C1066.19314,83.5633056 1066.29639,83.5633056 1066.39854,83.5633056 C1066.70279,83.5633056 1066.80275,83.3801829 1067.21025,83.3801829 C1067.3124,83.3801829 1068.43277,84.1126739 1068.43277,85.0302673 C1068.43277,85.1223236 1068.23067,85.3054463 1067.92202,85.3965128 C1067.72101,85.3965128 1067.41675,85.6716918 1067.41675,85.8558044 C1067.51781,86.0379373 1067.61776,86.1299936 1067.72101,86.1299936 C1068.12742,86.1299936 1068.53602,85.764738 1068.84137,85.764738 C1069.24778,85.764738 1069.65529,86.3150961 1069.65529,86.497229 L1069.65529,86.497229 Z" id="Path" fill="#459BFF" transform="translate(1076.931075, 78.976900) rotate(-81.000000) translate(-1076.931075, -78.976900) "></path>
                <path d="M1357.27469,150.259958 C1357.27469,150.334883 1357.23122,150.371745 1357.23122,150.408606 C1357.23122,150.520393 1357.36024,150.594117 1357.44859,150.594117 C1357.62015,150.594117 1357.70756,150.557656 1357.79404,150.557656 C1358.01094,150.63218 1358.18437,150.705503 1358.31386,150.854152 C1358.31386,151.225974 1357.96747,151.485608 1357.96747,151.708381 C1357.96747,151.708381 1358.01094,151.745243 1358.05442,151.745243 C1358.14043,151.411084 1358.3994,151.077325 1358.7902,151.077325 C1359.39696,151.077325 1359.78589,151.671119 1360.30618,151.819768 L1360.30618,152.330222 C1360.15612,152.195596 1359.95745,152.039736 1359.81815,152.011288 C1359.81815,152.011288 1359.77514,152.002874 1359.76532,152.038934 C1359.94857,152.155529 1360.17061,152.350656 1360.30618,152.464046 L1360.30618,152.524547 C1360.31179,152.510123 1360.31599,152.492493 1360.32113,152.477268 C1360.37396,152.521742 1360.41276,152.551792 1360.42444,152.553796 C1360.46605,152.563011 1360.50905,152.571826 1360.51887,152.534964 C1360.51887,152.534964 1360.45109,152.463244 1360.35386,152.373895 C1360.40762,152.178768 1360.43613,151.957999 1360.43613,151.782105 C1360.43613,151.745243 1360.39219,151.671119 1360.39219,151.596995 C1360.39219,151.411084 1360.65303,151.374222 1360.869,151.374222 C1361.47623,151.374222 1361.04243,151.85703 1361.43276,151.85703 C1361.54354,151.85703 1361.4982,151.478396 1361.75156,151.298095 C1361.74315,151.333754 1361.82589,151.350583 1361.86749,151.359798 C1361.91985,151.331751 1361.91985,151.331751 1361.9292,151.296091 C1361.93668,151.272452 1361.92406,151.245607 1361.90349,151.227577 C1361.90583,151.226775 1361.90723,151.225974 1361.9091,151.225974 L1362.16854,151.633857 C1362.16854,151.671119 1362.21248,151.671119 1362.21248,151.671119 C1362.34243,151.671119 1362.47192,151.522871 1362.47192,151.447945 C1362.47192,151.336559 1362.34243,151.262836 1362.34243,151.225974 C1362.34243,151.040063 1362.55934,151.0024 1362.68882,150.965538 C1362.77484,151.114187 1362.90479,151.262836 1363.12216,151.262836 C1363.16517,151.262836 1363.2077,151.262836 1363.2077,151.188311 C1363.2077,151.151049 1363.16517,151.040063 1363.12216,150.965538 C1363.12216,150.705503 1363.25118,150.483131 1363.55456,150.483131 C1363.68451,150.483131 1364.11692,150.891414 1364.11692,150.891414 L1364.03137,150.371745 C1364.03137,150.370543 1364.03044,150.369341 1364.02997,150.368539 C1364.09962,150.347304 1364.1688,150.282796 1364.18423,150.228305 C1364.20433,150.155383 1364.1071,150.021559 1363.98088,149.995115 C1363.97948,149.995115 1363.97668,149.996717 1363.97434,149.996717 C1364.06035,149.806399 1364.20433,149.567599 1364.29081,149.442991 C1364.68161,149.442991 1364.94058,149.703426 1365.11401,149.703426 C1365.15795,149.703426 1365.19955,149.666164 1365.19955,149.629302 C1365.19955,149.369668 1364.55119,149.369668 1364.55119,149.072371 C1364.55119,148.960584 1364.63767,148.849197 1364.76715,148.849197 C1364.79754,148.849197 1364.82792,148.866426 1364.87186,148.877244 C1364.86953,148.884055 1364.86813,148.889665 1364.86626,148.897678 C1364.88823,148.978213 1364.88823,148.978213 1364.93076,148.986627 C1365.05698,149.01227 1365.14673,148.687727 1365.15702,148.650865 C1365.12336,148.669296 1365.09578,148.672902 1365.07194,148.673704 C1364.99901,148.602384 1364.85457,148.505021 1364.85457,148.36679 C1364.85457,148.033032 1365.15795,148.033032 1365.5034,148.033032 C1365.37345,147.995369 1365.24396,147.921244 1365.24396,147.809858 C1365.24396,147.624348 1365.46087,147.512961 1365.46087,147.364313 C1365.46087,147.252926 1365.028,147.290189 1365.028,146.659133 C1365.028,146.510885 1365.33138,146.473222 1365.41692,146.473222 C1365.33138,146.028077 1364.63767,146.250449 1364.63767,145.656655 C1364.63767,145.582531 1364.72461,145.470744 1364.72461,145.397021 C1364.72461,145.302463 1364.60167,145.261995 1364.45956,145.217521 L1364.46704,145.191076 L1364.44227,145.212713 C1364.25061,145.153413 1364.03137,145.085299 1364.03137,144.876951 C1364.03137,144.802025 1364.11692,144.728302 1364.16132,144.653777 C1364.12206,144.620922 1364.09541,144.585663 1364.07625,144.550004 C1364.15478,144.508735 1364.2249,144.456247 1364.23472,144.419786 C1364.25528,144.347264 1364.26557,144.312005 1364.23331,144.266329 C1364.13982,144.247898 1364.06409,144.267932 1364.00192,144.305194 C1363.97154,144.206629 1363.91217,144.120084 1363.71303,144.0696 C1363.74154,143.979048 1363.74154,143.937379 1363.6186,143.912537 C1363.57653,143.903322 1363.48257,143.922954 1363.46247,143.996277 C1363.45873,144.007897 1363.45593,144.019917 1363.45312,144.031536 C1363.38067,144.026728 1363.30166,144.023122 1363.2077,144.023122 C1363.2077,143.839214 1363.25024,143.619647 1363.29418,143.435739 C1363.44564,143.56155 1363.57045,143.674138 1363.59429,143.678946 C1363.63637,143.68696 1363.67891,143.695774 1363.68872,143.659313 C1363.68872,143.659313 1363.24043,143.186923 1362.988,143.135637 C1362.988,143.135637 1362.94546,143.127624 1362.93564,143.163283 C1363.00389,143.206956 1363.07869,143.26265 1363.15208,143.319946 C1362.94546,143.332366 1362.85945,143.618445 1362.73136,143.799949 C1362.38591,143.614438 1361.99511,143.355204 1361.77961,143.132432 C1361.77961,143.095169 1361.82168,143.057907 1361.82168,143.020645 C1361.82168,142.946521 1361.77961,142.871996 1361.69173,142.871996 C1361.51877,142.909258 1361.2598,143.057907 1361.17191,143.132432 C1361.08543,143.020645 1360.43613,142.798273 1360.43613,142.500975 L1360.43613,141.869919 C1360.39219,142.018167 1360.34965,142.500975 1360.2627,142.500975 C1360.17669,142.500975 1360.08881,142.463713 1360.04627,142.463713 C1359.95932,142.463713 1359.91725,142.500975 1359.87331,142.537837 C1359.91725,142.611961 1359.95932,142.686886 1359.95932,142.798273 C1359.95932,142.907255 1359.91257,143.015035 1359.80225,143.079944 C1359.7887,143.069526 1359.77187,143.060712 1359.75037,143.056705 C1359.70736,143.04749 1359.69754,143.084351 1359.69754,143.084351 C1359.6952,143.093567 1359.70409,143.105186 1359.71811,143.116806 C1359.69848,143.122415 1359.67838,143.128425 1359.65641,143.132432 C1359.26701,143.132432 1359.09358,142.871996 1358.70279,142.871996 C1358.66025,142.871996 1358.57377,142.909258 1358.48729,142.909258 C1358.31386,142.909258 1358.3578,142.723748 1358.14043,142.723748 C1358.01094,142.723748 1357.92353,142.871996 1357.88099,142.871996 L1357.83705,142.871996 C1357.88099,143.020645 1357.88099,143.206956 1357.88099,143.429329 C1357.57808,143.726225 1356.58098,143.98586 1356.32201,144.320019 C1356.32201,144.468267 1356.53704,144.505529 1356.53704,144.616916 C1356.4515,144.951075 1356.32201,145.025599 1356.14858,145.025599 C1356.0607,145.025599 1355.97469,144.988337 1355.88867,144.988337 C1355.80126,144.988337 1355.75778,145.025599 1355.75778,145.136585 C1355.88867,145.285635 1356.01816,145.285635 1356.01816,145.507606 C1356.01816,146.1018 1355.36839,145.768042 1355.36839,146.028077 C1355.36839,146.173119 1355.6311,146.252853 1355.74656,146.493255 C1355.71898,146.455592 1355.67832,146.426343 1355.61568,146.413121 C1355.48993,146.387077 1355.41794,146.486844 1355.38755,146.596227 C1355.35764,146.704408 1355.45393,146.838633 1355.58062,146.863875 C1355.7073,146.889518 1355.75919,146.861872 1355.76947,146.825411 C1355.78256,146.777731 1355.79191,146.722038 1355.79331,146.665944 C1355.79518,146.688382 1355.80126,146.708816 1355.80126,146.733657 C1355.80126,147.364313 1355.2389,146.955629 1355.2389,147.290189 C1355.2389,147.519773 1355.67832,147.343878 1355.78022,147.608321 C1355.73815,147.636368 1355.7059,147.672829 1355.7059,147.70929 C1355.7059,147.739741 1355.73768,147.76939 1355.79658,147.779007 C1355.76994,148.019809 1355.54182,148.224552 1355.54182,148.329928 C1355.54182,148.404052 1355.8452,148.552701 1356.01816,148.552701 C1356.01816,148.738211 1355.75778,148.849197 1355.75778,148.998247 C1355.80126,149.072371 1355.8452,149.072371 1355.88867,149.072371 C1356.01816,149.072371 1356.0607,148.998247 1356.23413,148.998247 C1356.2776,148.998247 1356.75441,149.294743 1356.75441,149.666164 C1356.75441,149.703426 1356.6684,149.777551 1356.53704,149.814412 C1356.4515,149.814412 1356.32201,149.925799 1356.32201,150.000323 C1356.36501,150.074047 1356.40755,150.111309 1356.4515,150.111309 C1356.62446,150.111309 1356.79835,149.963462 1356.9283,149.963462 C1357.10127,149.963462 1357.27469,150.186234 1357.27469,150.259958 L1357.27469,150.259958 Z" id="Path-Copy" fill="#459BFF" transform="translate(1360.371153, 147.215895) rotate(123.000000) translate(-1360.371153, -147.215895) "></path>
                <path d="M1194.18228,156.259958 C1194.18228,156.334883 1194.1388,156.371745 1194.1388,156.408606 C1194.1388,156.520393 1194.26782,156.594117 1194.35617,156.594117 C1194.52773,156.594117 1194.61515,156.557656 1194.70163,156.557656 C1194.91853,156.63218 1195.09196,156.705503 1195.22144,156.854152 C1195.22144,157.225974 1194.87505,157.485608 1194.87505,157.708381 C1194.87505,157.708381 1194.91853,157.745243 1194.962,157.745243 C1195.04801,157.411084 1195.30699,157.077325 1195.69778,157.077325 C1196.30455,157.077325 1196.69348,157.671119 1197.21376,157.819768 L1197.21376,158.330222 C1197.06371,158.195596 1196.86503,158.039736 1196.72573,158.011288 C1196.72573,158.011288 1196.68272,158.002874 1196.67291,158.038934 C1196.85615,158.155529 1197.0782,158.350656 1197.21376,158.464046 L1197.21376,158.524547 C1197.21937,158.510123 1197.22358,158.492493 1197.22872,158.477268 C1197.28154,158.521742 1197.32034,158.551792 1197.33203,158.553796 C1197.37363,158.563011 1197.41664,158.571826 1197.42645,158.534964 C1197.42645,158.534964 1197.35867,158.463244 1197.26144,158.373895 C1197.3152,158.178768 1197.34371,157.957999 1197.34371,157.782105 C1197.34371,157.745243 1197.29977,157.671119 1197.29977,157.596995 C1197.29977,157.411084 1197.56062,157.374222 1197.77658,157.374222 C1198.38381,157.374222 1197.95001,157.85703 1198.34034,157.85703 C1198.45113,157.85703 1198.40578,157.478396 1198.65915,157.298095 C1198.65073,157.333754 1198.73347,157.350583 1198.77508,157.359798 C1198.82743,157.331751 1198.82743,157.331751 1198.83678,157.296091 C1198.84426,157.272452 1198.83164,157.245607 1198.81107,157.227577 C1198.81341,157.226775 1198.81481,157.225974 1198.81668,157.225974 L1199.07612,157.633857 C1199.07612,157.671119 1199.12006,157.671119 1199.12006,157.671119 C1199.25002,157.671119 1199.37951,157.522871 1199.37951,157.447945 C1199.37951,157.336559 1199.25002,157.262836 1199.25002,157.225974 C1199.25002,157.040063 1199.46692,157.0024 1199.59641,156.965538 C1199.68242,157.114187 1199.81237,157.262836 1200.02974,157.262836 C1200.07275,157.262836 1200.11529,157.262836 1200.11529,157.188311 C1200.11529,157.151049 1200.07275,157.040063 1200.02974,156.965538 C1200.02974,156.705503 1200.15876,156.483131 1200.46214,156.483131 C1200.5921,156.483131 1201.0245,156.891414 1201.0245,156.891414 L1200.93895,156.371745 C1200.93895,156.370543 1200.93802,156.369341 1200.93755,156.368539 C1201.0072,156.347304 1201.07639,156.282796 1201.09181,156.228305 C1201.11191,156.155383 1201.01468,156.021559 1200.88847,155.995115 C1200.88707,155.995115 1200.88426,155.996717 1200.88192,155.996717 C1200.96794,155.806399 1201.11191,155.567599 1201.1984,155.442991 C1201.58919,155.442991 1201.84817,155.703426 1202.02159,155.703426 C1202.06553,155.703426 1202.10714,155.666164 1202.10714,155.629302 C1202.10714,155.369668 1201.45877,155.369668 1201.45877,155.072371 C1201.45877,154.960584 1201.54525,154.849197 1201.67474,154.849197 C1201.70512,154.849197 1201.73551,154.866426 1201.77945,154.877244 C1201.77711,154.884055 1201.77571,154.889665 1201.77384,154.897678 C1201.79581,154.978213 1201.79581,154.978213 1201.83835,154.986627 C1201.96456,155.01227 1202.05432,154.687727 1202.0646,154.650865 C1202.03094,154.669296 1202.00336,154.672902 1201.97952,154.673704 C1201.9066,154.602384 1201.76215,154.505021 1201.76215,154.36679 C1201.76215,154.033032 1202.06553,154.033032 1202.41099,154.033032 C1202.28103,153.995369 1202.15155,153.921244 1202.15155,153.809858 C1202.15155,153.624348 1202.36845,153.512961 1202.36845,153.364313 C1202.36845,153.252926 1201.93558,153.290189 1201.93558,152.659133 C1201.93558,152.510885 1202.23896,152.473222 1202.32451,152.473222 C1202.23896,152.028077 1201.54525,152.250449 1201.54525,151.656655 C1201.54525,151.582531 1201.6322,151.470744 1201.6322,151.397021 C1201.6322,151.302463 1201.50926,151.261995 1201.36715,151.217521 L1201.37463,151.191076 L1201.34985,151.212713 C1201.15819,151.153413 1200.93895,151.085299 1200.93895,150.876951 C1200.93895,150.802025 1201.0245,150.728302 1201.06891,150.653777 C1201.02964,150.620922 1201.003,150.585663 1200.98383,150.550004 C1201.06236,150.508735 1201.13248,150.456247 1201.1423,150.419786 C1201.16287,150.347264 1201.17315,150.312005 1201.1409,150.266329 C1201.04741,150.247898 1200.97168,150.267932 1200.9095,150.305194 C1200.87912,150.206629 1200.81975,150.120084 1200.62061,150.0696 C1200.64913,149.979048 1200.64913,149.937379 1200.52619,149.912537 C1200.48412,149.903322 1200.39016,149.922954 1200.37005,149.996277 C1200.36631,150.007897 1200.36351,150.019917 1200.36071,150.031536 C1200.28825,150.026728 1200.20925,150.023122 1200.11529,150.023122 C1200.11529,149.839214 1200.15783,149.619647 1200.20177,149.435739 C1200.35323,149.56155 1200.47804,149.674138 1200.50188,149.678946 C1200.54395,149.68696 1200.58649,149.695774 1200.59631,149.659313 C1200.59631,149.659313 1200.14801,149.186923 1199.89558,149.135637 C1199.89558,149.135637 1199.85304,149.127624 1199.84323,149.163283 C1199.91148,149.206956 1199.98627,149.26265 1200.05966,149.319946 C1199.85304,149.332366 1199.76703,149.618445 1199.63895,149.799949 C1199.29349,149.614438 1198.9027,149.355204 1198.6872,149.132432 C1198.6872,149.095169 1198.72927,149.057907 1198.72927,149.020645 C1198.72927,148.946521 1198.6872,148.871996 1198.59931,148.871996 C1198.42635,148.909258 1198.16738,149.057907 1198.0795,149.132432 C1197.99302,149.020645 1197.34371,148.798273 1197.34371,148.500975 L1197.34371,147.869919 C1197.29977,148.018167 1197.25723,148.500975 1197.17029,148.500975 C1197.08427,148.500975 1196.99639,148.463713 1196.95385,148.463713 C1196.8669,148.463713 1196.82483,148.500975 1196.78089,148.537837 C1196.82483,148.611961 1196.8669,148.686886 1196.8669,148.798273 C1196.8669,148.907255 1196.82016,149.015035 1196.70984,149.079944 C1196.69628,149.069526 1196.67945,149.060712 1196.65795,149.056705 C1196.61494,149.04749 1196.60513,149.084351 1196.60513,149.084351 C1196.60279,149.093567 1196.61167,149.105186 1196.62569,149.116806 C1196.60606,149.122415 1196.58596,149.128425 1196.56399,149.132432 C1196.17459,149.132432 1196.00117,148.871996 1195.61037,148.871996 C1195.56783,148.871996 1195.48135,148.909258 1195.39487,148.909258 C1195.22144,148.909258 1195.26538,148.723748 1195.04801,148.723748 C1194.91853,148.723748 1194.83111,148.871996 1194.78857,148.871996 L1194.74463,148.871996 C1194.78857,149.020645 1194.78857,149.206956 1194.78857,149.429329 C1194.48566,149.726225 1193.48857,149.98586 1193.22959,150.320019 C1193.22959,150.468267 1193.44462,150.505529 1193.44462,150.616916 C1193.35908,150.951075 1193.22959,151.025599 1193.05616,151.025599 C1192.96828,151.025599 1192.88227,150.988337 1192.79626,150.988337 C1192.70884,150.988337 1192.66537,151.025599 1192.66537,151.136585 C1192.79626,151.285635 1192.92574,151.285635 1192.92574,151.507606 C1192.92574,152.1018 1192.27597,151.768042 1192.27597,152.028077 C1192.27597,152.173119 1192.53869,152.252853 1192.65415,152.493255 C1192.62657,152.455592 1192.5859,152.426343 1192.52326,152.413121 C1192.39751,152.387077 1192.32552,152.486844 1192.29514,152.596227 C1192.26522,152.704408 1192.36152,152.838633 1192.4882,152.863875 C1192.61488,152.889518 1192.66677,152.861872 1192.67705,152.825411 C1192.69014,152.777731 1192.69949,152.722038 1192.70089,152.665944 C1192.70276,152.688382 1192.70884,152.708816 1192.70884,152.733657 C1192.70884,153.364313 1192.14649,152.955629 1192.14649,153.290189 C1192.14649,153.519773 1192.5859,153.343878 1192.68781,153.608321 C1192.64573,153.636368 1192.61348,153.672829 1192.61348,153.70929 C1192.61348,153.739741 1192.64527,153.76939 1192.70417,153.779007 C1192.67752,154.019809 1192.4494,154.224552 1192.4494,154.329928 C1192.4494,154.404052 1192.75278,154.552701 1192.92574,154.552701 C1192.92574,154.738211 1192.66537,154.849197 1192.66537,154.998247 C1192.70884,155.072371 1192.75278,155.072371 1192.79626,155.072371 C1192.92574,155.072371 1192.96828,154.998247 1193.14171,154.998247 C1193.18518,154.998247 1193.66199,155.294743 1193.66199,155.666164 C1193.66199,155.703426 1193.57598,155.777551 1193.44462,155.814412 C1193.35908,155.814412 1193.22959,155.925799 1193.22959,156.000323 C1193.2726,156.074047 1193.31514,156.111309 1193.35908,156.111309 C1193.53204,156.111309 1193.70593,155.963462 1193.83589,155.963462 C1194.00885,155.963462 1194.18228,156.186234 1194.18228,156.259958 L1194.18228,156.259958 Z" id="Path-Copy" fill="#459BFF" transform="translate(1197.278737, 153.215895) rotate(123.000000) translate(-1197.278737, -153.215895) "></path>
                <path d="M481.861739,221.003879 C481.861739,221.31101 482.216215,221.513563 482.458954,221.513563 C482.930305,221.513563 483.170476,221.413388 483.408077,221.413388 C484.004009,221.618142 484.480497,221.819594 484.836258,222.228002 C484.836258,223.249572 483.884566,223.96291 483.884566,224.574972 C483.884566,224.574972 484.004009,224.676248 484.123452,224.676248 C484.359769,223.758156 485.071291,222.841164 486.144995,222.841164 C487.812061,222.841164 488.880627,224.472595 490.310092,224.881003 L490.310092,226.283461 C489.897821,225.913582 489.351978,225.485359 488.969247,225.4072 C488.969247,225.4072 488.851088,225.384082 488.824117,225.483157 C489.327576,225.803499 489.937635,226.339603 490.310092,226.651138 L490.310092,226.817363 C490.325504,226.777733 490.337063,226.729297 490.351191,226.687465 C490.49632,226.809657 490.60292,226.89222 490.635029,226.897724 C490.749334,226.923043 490.867493,226.947261 490.894464,226.845985 C490.894464,226.845985 490.708236,226.648936 490.441094,226.403451 C490.588793,225.867347 490.667137,225.260789 490.667137,224.777525 C490.667137,224.676248 490.54641,224.472595 490.54641,224.268941 C490.54641,223.758156 491.263068,223.65688 491.856431,223.65688 C493.524782,223.65688 492.332919,224.98338 493.405339,224.98338 C493.709726,224.98338 493.585145,223.943095 494.281255,223.447722 C494.258137,223.545696 494.485464,223.591931 494.59977,223.61725 C494.743615,223.540192 494.743615,223.540192 494.769302,223.442218 C494.789851,223.377269 494.755174,223.303513 494.698664,223.253976 C494.705085,223.251774 495.426881,224.370218 495.426881,224.370218 C495.426881,224.472595 495.547609,224.472595 495.547609,224.472595 C495.904654,224.472595 496.260414,224.065288 496.260414,223.859432 C496.260414,223.553402 495.904654,223.350849 495.904654,223.249572 C495.904654,222.738787 496.500585,222.635309 496.856346,222.534033 C497.092663,222.942441 497.449708,223.350849 498.046924,223.350849 C498.165083,223.350849 498.281957,223.350849 498.281957,223.146094 C498.281957,223.043717 498.165083,222.738787 498.046924,222.534033 C498.046924,221.819594 498.4014,221.208633 499.234934,221.208633 C499.591979,221.208633 500.779988,222.330379 500.779988,222.330379 L500.544955,220.902602 C500.732468,220.835452 500.922549,220.658218 500.964932,220.508505 C501.020159,220.308154 500.753017,219.940477 500.406247,219.867822 C500.624584,219.349331 501.020159,218.693236 501.257761,218.350878 C502.331464,218.350878 503.042986,219.066417 503.519474,219.066417 C503.640201,219.066417 503.754507,218.96404 503.754507,218.862764 C503.754507,218.149426 501.973135,218.149426 501.973135,217.33261 C501.973135,217.025478 502.210737,216.719447 502.566498,216.719447 C502.649979,216.719447 502.733461,216.766783 502.854189,216.796505 C502.89914,217.073915 502.89914,217.073915 503.016015,217.097032 C503.362785,217.167485 503.609377,216.275813 503.637633,216.174536 C503.545161,216.225175 503.469385,216.235082 503.403884,216.237284 C503.203528,216.041336 502.806668,215.773834 502.806668,215.394048 C502.806668,214.477056 503.640201,214.477056 504.589325,214.477056 C504.23228,214.373578 503.876519,214.169924 503.876519,213.863894 C503.876519,213.354209 504.47245,213.048178 504.47245,212.63977 C504.47245,212.33374 503.283156,212.436117 503.283156,210.702309 C503.283156,210.295002 504.11669,210.191524 504.351723,210.191524 C504.11669,208.968501 502.210737,209.579462 502.210737,207.948032 C502.210737,207.744378 502.449623,207.437247 502.449623,207.234694 C502.449623,206.974898 502.111843,206.863714 501.721405,206.741522 C501.147308,206.565389 500.544955,206.378248 500.544955,205.805816 C500.544955,205.599961 500.779988,205.397408 500.902,205.192654 C500.794116,205.102386 500.720909,205.005513 500.668251,204.907539 C500.884019,204.794153 501.076669,204.649944 501.103641,204.549769 C501.160151,204.350519 501.188407,204.253645 501.099788,204.128151 C500.842921,204.077513 500.634858,204.132554 500.464042,204.234931 C500.38056,203.964127 500.21745,203.726348 499.670323,203.587643 C499.748667,203.338856 499.748667,203.224369 499.410887,203.156118 C499.295297,203.130799 499.037146,203.184739 498.98192,203.386191 C498.971645,203.418115 498.963939,203.45114 498.956233,203.483064 C498.757161,203.469854 498.540109,203.459947 498.281957,203.459947 C498.281957,202.954666 498.398832,202.351411 498.519559,201.84613 C498.935684,202.19179 499.278601,202.501124 499.344102,202.514334 C499.459692,202.53635 499.576567,202.560569 499.603538,202.460393 C499.603538,202.460393 498.371861,201.162514 497.67832,201.021608 C497.67832,201.021608 497.561445,200.999591 497.534474,201.097565 C497.721987,201.217556 497.927481,201.370571 498.129121,201.52799 C497.561445,201.562115 497.325128,202.348108 496.97322,202.846784 C496.024097,202.3371 494.950393,201.624863 494.358315,201.012801 C494.358315,200.910424 494.473905,200.808047 494.473905,200.70567 C494.473905,200.502016 494.358315,200.297262 494.11686,200.297262 C493.641656,200.399639 492.930135,200.808047 492.68868,201.012801 C492.451078,200.70567 490.667137,200.094709 490.667137,199.277893 L490.667137,197.544085 C490.54641,197.951392 490.429535,199.277893 490.190649,199.277893 C489.954331,199.277893 489.712876,199.175515 489.596002,199.175515 C489.357116,199.175515 489.241526,199.277893 489.120798,199.379169 C489.241526,199.582823 489.357116,199.788678 489.357116,200.094709 C489.357116,200.394135 489.228682,200.690258 488.925579,200.868592 C488.888333,200.839971 488.842097,200.815753 488.783018,200.804744 C488.664859,200.779425 488.637888,200.880702 488.637888,200.880702 C488.631467,200.906021 488.655869,200.937945 488.694399,200.969869 C488.640457,200.98528 488.585231,201.001793 488.524867,201.012801 C487.455016,201.012801 486.978528,200.297262 485.904824,200.297262 C485.78795,200.297262 485.550348,200.399639 485.312746,200.399639 C484.836258,200.399639 484.956985,199.889954 484.359769,199.889954 C484.004009,199.889954 483.763838,200.297262 483.646964,200.297262 L483.526236,200.297262 C483.646964,200.70567 483.646964,201.217556 483.646964,201.828516 C482.814715,202.644232 480.075229,203.35757 479.363708,204.275662 C479.363708,204.682969 479.954502,204.785346 479.954502,205.091377 C479.719468,206.00947 479.363708,206.214224 478.887219,206.214224 C478.645765,206.214224 478.409447,206.111847 478.173129,206.111847 C477.932959,206.111847 477.813516,206.214224 477.813516,206.519154 C478.173129,206.928663 478.52889,206.928663 478.52889,207.538523 C478.52889,209.171054 476.743665,208.254063 476.743665,208.968501 C476.743665,209.367002 477.465461,209.586067 477.782692,210.246565 C477.706916,210.143087 477.595179,210.062727 477.423078,210.026399 C477.077592,209.954845 476.879804,210.228952 476.796323,210.529479 C476.714125,210.826703 476.978698,211.195481 477.326753,211.264833 C477.674808,211.335287 477.817369,211.259329 477.845624,211.159154 C477.881585,211.028155 477.907272,210.875139 477.911125,210.721023 C477.916262,210.78267 477.932959,210.838812 477.932959,210.907064 C477.932959,212.63977 476.387904,211.516923 476.387904,212.436117 C476.387904,213.066892 477.595179,212.583628 477.875164,213.310176 C477.759574,213.387234 477.670955,213.48741 477.670955,213.587585 C477.670955,213.671248 477.758289,213.75271 477.920115,213.77913 C477.846908,214.440729 477.220153,215.003253 477.220153,215.292771 C477.220153,215.496425 478.053686,215.904833 478.52889,215.904833 C478.52889,216.414517 477.813516,216.719447 477.813516,217.128956 C477.932959,217.33261 478.053686,217.33261 478.173129,217.33261 C478.52889,217.33261 478.645765,217.128956 479.122253,217.128956 C479.241696,217.128956 480.551717,217.943571 480.551717,218.96404 C480.551717,219.066417 480.3154,219.270071 479.954502,219.371347 C479.719468,219.371347 479.363708,219.677378 479.363708,219.882133 C479.481866,220.084685 479.598741,220.187063 479.719468,220.187063 C480.194672,220.187063 480.672445,219.780856 481.02949,219.780856 C481.504693,219.780856 481.981182,220.392918 481.981182,220.595471 C481.981182,220.801326 481.861739,220.902602 481.861739,221.003879 Z" id="Path-Copy" fill="#459BFF" transform="translate(490.488614, 212.231998) rotate(63.000000) translate(-490.488614, -212.231998) "></path>
                <path d="M558.84303,291.670475 C558.84303,291.87633 558.723587,291.977606 558.723587,292.078883 C558.723587,292.386014 559.078064,292.588567 559.320803,292.588567 C559.792154,292.588567 560.032324,292.488392 560.269926,292.488392 C560.865857,292.693146 561.342346,292.894598 561.698106,293.303006 C561.698106,294.324576 560.746414,295.037914 560.746414,295.649976 C560.746414,295.649976 560.865857,295.751252 560.9853,295.751252 C561.221618,294.83316 561.933139,293.916168 563.006843,293.916168 C564.67391,293.916168 565.742476,295.547599 567.171941,295.956007 L567.171941,297.358465 C566.759669,296.988586 566.213827,296.560363 565.831095,296.482204 C565.831095,296.482204 565.712936,296.459086 565.685965,296.558161 C566.189425,296.878503 566.799484,297.414607 567.171941,297.726142 L567.171941,297.892367 C567.187353,297.852737 567.198912,297.804301 567.213039,297.762469 C567.358169,297.884662 567.464769,297.967224 567.496877,297.972728 C567.611183,297.998047 567.729342,298.022265 567.756313,297.920989 C567.756313,297.920989 567.570084,297.72394 567.302943,297.478455 C567.450641,296.942351 567.528986,296.335793 567.528986,295.852529 C567.528986,295.751252 567.408258,295.547599 567.408258,295.343945 C567.408258,294.83316 568.124917,294.731884 568.71828,294.731884 C570.38663,294.731884 569.194768,296.058384 570.267187,296.058384 C570.571574,296.058384 570.446994,295.0181 571.143103,294.522726 C571.119985,294.6207 571.347313,294.666935 571.461618,294.692254 C571.605464,294.615196 571.605464,294.615196 571.631151,294.517222 C571.6517,294.452273 571.617023,294.378517 571.560512,294.32898 C571.566934,294.326778 571.570787,294.324576 571.575924,294.324576 L572.28873,295.445222 C572.28873,295.547599 572.409457,295.547599 572.409457,295.547599 C572.766502,295.547599 573.122263,295.140292 573.122263,294.934436 C573.122263,294.628406 572.766502,294.425853 572.766502,294.324576 C572.766502,293.813791 573.362434,293.710313 573.718194,293.609037 C573.954512,294.017445 574.311557,294.425853 574.908773,294.425853 C575.026931,294.425853 575.143806,294.425853 575.143806,294.221098 C575.143806,294.118721 575.026931,293.813791 574.908773,293.609037 C574.908773,292.894598 575.263249,292.283637 576.096782,292.283637 C576.453827,292.283637 577.641837,293.405383 577.641837,293.405383 L577.406804,291.977606 C577.406804,291.974304 577.404235,291.971001 577.402951,291.9688 C577.594316,291.910456 577.784398,291.733222 577.826781,291.583509 C577.882007,291.383158 577.614866,291.015481 577.268095,290.942826 C577.264242,290.942826 577.256536,290.947229 577.250115,290.947229 C577.486432,290.424335 577.882007,289.76824 578.119609,289.425882 C579.193313,289.425882 579.904834,290.141422 580.381323,290.141422 C580.50205,290.141422 580.616356,290.039044 580.616356,289.937768 C580.616356,289.22443 578.834984,289.22443 578.834984,288.407614 C578.834984,288.100482 579.072586,287.794451 579.428346,287.794451 C579.511828,287.794451 579.59531,287.841787 579.716037,287.87151 C579.709616,287.890224 579.705763,287.905635 579.700625,287.927652 C579.760989,288.148919 579.760989,288.148919 579.877863,288.172036 C580.224634,288.242489 580.471226,287.350817 580.499481,287.24954 C580.407009,287.300179 580.331234,287.310086 580.265733,287.312288 C580.065376,287.11634 579.668517,286.848838 579.668517,286.469052 C579.668517,285.55206 580.50205,285.55206 581.451173,285.55206 C581.094128,285.448582 580.738368,285.244929 580.738368,284.938898 C580.738368,284.429213 581.334299,284.123182 581.334299,283.714774 C581.334299,283.408744 580.145005,283.511121 580.145005,281.777313 C580.145005,281.370006 580.978538,281.266528 581.213571,281.266528 C580.978538,280.043506 579.072586,280.654466 579.072586,279.023036 C579.072586,278.819382 579.311472,278.512251 579.311472,278.309698 C579.311472,278.049902 578.973692,277.938718 578.583254,277.816526 L578.603803,277.743871 L578.535734,277.803316 C578.009156,277.640393 577.406804,277.453252 577.406804,276.88082 C577.406804,276.674965 577.641837,276.472412 577.763849,276.267658 C577.655964,276.17739 577.582757,276.080517 577.5301,275.982543 C577.745868,275.869157 577.938518,275.724948 577.965489,275.624773 C578.022,275.425523 578.050255,275.32865 577.961636,275.203155 C577.704769,275.152517 577.496707,275.207558 577.32589,275.309935 C577.242409,275.039131 577.079298,274.801352 576.532172,274.662647 C576.610516,274.41386 576.610516,274.299373 576.272736,274.231122 C576.157146,274.205803 575.898995,274.259743 575.843768,274.461195 C575.833494,274.493119 575.825788,274.526144 575.818082,274.558068 C575.61901,274.544858 575.401957,274.534951 575.143806,274.534951 C575.143806,274.02967 575.26068,273.426415 575.381408,272.921134 C575.797532,273.266795 576.14045,273.576128 576.205951,273.589338 C576.321541,273.611354 576.438415,273.635573 576.465386,273.535397 C576.465386,273.535397 575.233709,272.237518 574.540169,272.096612 C574.540169,272.096612 574.423294,272.074595 574.396323,272.172569 C574.583836,272.29256 574.789329,272.445575 574.99097,272.602994 C574.423294,272.63712 574.186977,273.423112 573.835069,273.921789 C572.885946,273.412104 571.812242,272.699867 571.220163,272.087805 C571.220163,271.985428 571.335754,271.883051 571.335754,271.780674 C571.335754,271.57702 571.220163,271.372266 570.978709,271.372266 C570.503505,271.474643 569.791983,271.883051 569.550528,272.087805 C569.312926,271.780674 567.528986,271.169713 567.528986,270.352897 L567.528986,268.619089 C567.408258,269.026396 567.291384,270.352897 567.052497,270.352897 C566.81618,270.352897 566.574725,270.25052 566.457851,270.25052 C566.218964,270.25052 566.103374,270.352897 565.982647,270.454173 C566.103374,270.657827 566.218964,270.863682 566.218964,271.169713 C566.218964,271.469139 566.090531,271.765262 565.787428,271.943597 C565.750182,271.914975 565.703946,271.890757 565.644867,271.879748 C565.526708,271.854429 565.499737,271.955706 565.499737,271.955706 C565.493315,271.981025 565.517718,272.012949 565.556248,272.044873 C565.502306,272.060285 565.447079,272.076797 565.386715,272.087805 C564.316865,272.087805 563.840376,271.372266 562.766673,271.372266 C562.649798,271.372266 562.412196,271.474643 562.174594,271.474643 C561.698106,271.474643 561.818834,270.964958 561.221618,270.964958 C560.865857,270.964958 560.625687,271.372266 560.508812,271.372266 L560.388085,271.372266 C560.508812,271.780674 560.508812,272.29256 560.508812,272.903521 C559.676563,273.719236 556.937078,274.432574 556.225556,275.350666 C556.225556,275.757973 556.81635,275.860351 556.81635,276.166381 C556.581317,277.084474 556.225556,277.289228 555.749068,277.289228 C555.507613,277.289228 555.271296,277.186851 555.034978,277.186851 C554.794807,277.186851 554.675364,277.289228 554.675364,277.594158 C555.034978,278.003667 555.390739,278.003667 555.390739,278.613527 C555.390739,280.246058 553.605513,279.329067 553.605513,280.043506 C553.605513,280.442006 554.32731,280.661071 554.64454,281.321569 C554.568764,281.218091 554.457027,281.137731 554.284927,281.101403 C553.939441,281.029849 553.741653,281.303956 553.658171,281.604483 C553.575974,281.901707 553.840547,282.270485 554.188601,282.339837 C554.536656,282.410291 554.679217,282.334333 554.707473,282.234158 C554.743434,282.103159 554.769121,281.950144 554.772974,281.796027 C554.778111,281.857674 554.794807,281.913816 554.794807,281.982068 C554.794807,283.714774 553.249753,282.591928 553.249753,283.511121 C553.249753,284.141897 554.457027,283.658632 554.737012,284.38518 C554.621422,284.462238 554.532803,284.562414 554.532803,284.662589 C554.532803,284.746252 554.620138,284.827714 554.781964,284.854134 C554.708757,285.515733 554.082002,286.078257 554.082002,286.367775 C554.082002,286.571429 554.915535,286.979837 555.390739,286.979837 C555.390739,287.489521 554.675364,287.794451 554.675364,288.20396 C554.794807,288.407614 554.915535,288.407614 555.034978,288.407614 C555.390739,288.407614 555.507613,288.20396 555.984101,288.20396 C556.103544,288.20396 557.413566,289.018575 557.413566,290.039044 C557.413566,290.141422 557.177248,290.345075 556.81635,290.446351 C556.581317,290.446351 556.225556,290.752382 556.225556,290.957137 C556.343715,291.159689 556.460589,291.262067 556.581317,291.262067 C557.056521,291.262067 557.534293,290.85586 557.891338,290.85586 C558.366542,290.85586 558.84303,291.467922 558.84303,291.670475 L558.84303,291.670475 Z" id="Path-Copy" fill="#459BFF" transform="translate(567.350463, 283.307002) rotate(48.000000) translate(-567.350463, -283.307002) "></path>
                <path d="M1117.73932,83.7499977 C1117.8062,85.0520747 1116.51934,85.7748218 1116.47235,86.8353541 C1116.41632,88.2657517 1117.8568,87.3335401 1117.32001,89.0394497 C1116.94588,90.2226414 1115.18911,91.0661608 1114.78607,93.0079539 C1113.60404,98.689916 1113.89864,109.280142 1117.73932,112.846701 C1118.15141,113.229776 1120.61487,113.056166 1121.11912,113.288275 C1123.53198,114.405419 1128.91074,118.130492 1130.83199,118.577727 C1132.12968,118.881545 1133.76536,118.047461 1135.05403,118.13804 C1138.56757,118.385246 1142.08835,119.543906 1146.03205,119.019301 C1149.29618,118.587162 1153.49472,116.005653 1155.74491,116.373631 C1155.80456,116.384954 1156.9667,117.615322 1156.58896,117.696466 C1157.78725,117.439825 1164.02633,113.044843 1165.87708,112.407014 C1166.2476,112.278694 1166.95609,113.380741 1167.56879,113.288275 C1168.08028,113.212792 1168.01883,112.278694 1168.83396,111.96544 C1170.95402,111.152114 1175.36041,111.831458 1176.01287,111.523866 C1179.32941,109.955713 1180.86388,97.8879121 1182.34774,96.0951974 C1184.85819,93.0494694 1188.88684,90.6661024 1192.90103,89.0394497 C1193.77761,88.6865679 1197.75023,85.7333063 1200.07994,86.8353541 C1200.94749,87.2429608 1201.74273,91.5190572 1201.77165,91.2435452 C1201.50055,94.2062422 1198.29425,96.6292376 1198.39004,100.061815 C1198.49487,103.639696 1201.02882,109.249949 1201.34692,111.96544 C1201.47524,113.02786 1200.90953,115.607482 1201.34692,116.373631 C1202.74402,118.81361 1206.91184,117.858754 1208.94876,119.462762 C1212.76595,122.4632 1211.95443,129.27929 1214.01484,133.127022 C1214.73057,134.46684 1216.54156,134.387584 1217.39284,135.772692 C1219.1478,138.633487 1217.75793,140.148803 1219.50567,141.943404 C1221.08532,143.56817 1223.07886,144.439995 1224.57175,144.590961 C1226.37552,144.772119 1226.79844,143.234159 1228.79379,142.826552 C1231.04036,142.367995 1232.87124,143.419092 1235.12866,142.384978 C1238.57172,140.809276 1241.74548,136.491665 1246.10669,134.891431 C1247.30679,134.449857 1248.40567,134.974462 1249.48468,134.449857 C1250.45886,133.97809 1251.72764,132.164617 1252.86267,131.806074 C1254.3393,131.338082 1256.35995,132.270293 1257.92876,131.806074 C1261.91765,130.630431 1264.80945,125.982582 1268.06274,125.191901 C1269.646,124.806939 1271.52929,125.965599 1273.12882,125.631588 C1274.67413,125.312673 1276.15257,123.204818 1277.77379,122.987805 C1278.97208,122.825517 1280.77585,124.369139 1282.42057,124.31064 C1285.8094,124.189868 1289.75311,121.52344 1293.81971,121.666857 C1296.59946,121.761211 1297.9062,121.293218 1299.72984,121.225283 C1301.66916,121.149801 1305.74661,123.395412 1308.59866,122.987805 C1311.45432,122.582085 1317.36626,118.064444 1320.42254,116.373631 C1325.98023,113.303372 1331.58853,108.75365 1337.73543,106.675988 C1338.22342,106.509926 1339.66391,106.985467 1339.42533,107.115675 C1342.01711,105.724906 1343.22083,102.052671 1346.17951,102.709371 C1345.82165,102.628227 1352.98249,108.725344 1353.35842,109.319771 C1354.6507,111.35403 1355.87791,117.370003 1355.04652,120.342136 C1353.93679,124.321962 1347.97062,130.813477 1343.22444,133.568596 C1341.83457,134.374374 1339.93682,134.081879 1338.57948,134.891431 C1336.93115,135.874593 1335.49067,138.461764 1333.51339,140.180883 C1332.23377,141.292366 1329.92936,141.567878 1328.86842,142.384978 C1327.58699,143.373802 1327.32492,145.485431 1326.7556,145.911909 C1325.43079,146.912055 1323.72101,146.24592 1322.53356,146.795056 C1320.95933,147.521578 1320.69726,149.572821 1319.57849,150.761674 C1318.73264,151.659918 1317.89401,150.82206 1317.46747,151.642934 C1316.01615,154.439569 1317.18191,157.762696 1316.62162,160.461204 C1316.58908,160.619718 1315.0004,160.298916 1314.93352,160.461204 C1313.22194,164.578786 1315.79565,167.726416 1316.62162,171.923256 C1316.8132,172.889434 1315.77576,172.808291 1315.77757,174.129238 C1315.78842,177.918471 1319.08146,184.243923 1316.62162,188.236959 C1314.54313,191.616698 1307.82329,190.9015 1304.79954,190.880742 C1300.68956,190.852436 1297.59714,192.020531 1293.39678,192.203577 C1289.75491,192.363977 1284.65087,191.756341 1283.26461,192.203577 C1279.93,193.28298 1271.83655,199.666931 1271.44073,201.903107 C1270.62922,206.498118 1273.81021,208.777696 1277.77379,208.517281 C1287.31676,207.888887 1294.7469,209.594796 1302.2656,208.517281 C1304.47964,208.198366 1306.37739,207.998337 1309.02158,207.634133 C1311.06392,207.354847 1313.73704,206.90195 1315.77757,206.313185 C1317.24155,205.888595 1318.23019,204.12796 1319.57849,203.667515 C1322.57151,202.648499 1322.93841,203.869432 1324.22527,203.667515 C1324.15116,203.676951 1327.92678,201.503048 1330.55652,201.46342 C1332.40366,201.435114 1340.92726,200.525547 1341.95747,201.903107 C1345.31197,206.383006 1338.89035,206.184864 1336.04734,206.313185 C1333.98331,206.403764 1332.60428,207.91908 1330.55652,208.075707 C1328.55033,208.230446 1326.5839,206.556617 1324.64639,206.313185 C1316.80959,205.324361 1306.5997,213.821829 1303.10964,220.860593 C1299.26715,228.612669 1307.81787,235.374034 1315.35464,238.495245 C1317.106,239.219879 1319.34172,241.499457 1321.26658,241.580601 C1323.9885,241.695712 1332.62416,236.817641 1330.97764,243.784697 C1331.0662,243.420492 1328.55575,246.020872 1327.17672,246.432253 C1323.52942,247.519204 1321.18706,245.401914 1318.31152,246.432253 C1315.86613,247.307853 1315.86613,249.272291 1314.93352,249.959183 C1314.09852,250.572481 1313.70993,248.449529 1313.24362,249.959183 C1312.81528,251.353727 1315.05643,255.312796 1314.93352,257.452731 C1314.73291,261.002306 1313.18579,261.55333 1310.28856,264.065018 C1310.01745,264.300901 1309.50596,265.787911 1309.44451,265.829426 C1308.49744,266.450272 1306.90514,265.819991 1306.06652,266.712574 C1305.68878,267.112633 1306.76417,267.901427 1306.48764,268.475096 C1305.31103,270.932059 1300.53232,272.294522 1301.84448,276.410217 C1303.02108,280.099435 1310.92837,276.427201 1314.51241,278.614313 C1315.20102,279.037016 1314.50337,280.242853 1315.35464,281.261869 C1316.24388,282.320515 1318.08198,281.878941 1318.31152,282.141243 C1319.23147,283.207437 1317.97535,285.602126 1321.26658,286.109747 C1322.7884,286.343744 1324.79098,284.903911 1326.33448,285.2266 C1327.90328,285.556836 1335.74731,290.802886 1336.46846,290.959512 C1336.86247,291.042543 1336.83355,289.865013 1337.3107,290.078252 C1340.35252,291.431279 1342.31714,294.671375 1347.02536,294.92613 C1348.90323,295.029918 1350.69254,296.801875 1352.51619,297.132112 C1354.13379,297.424608 1356.02973,296.403704 1357.58046,296.688651 C1361.28921,297.379318 1369.59954,300.713768 1373.20526,301.098729 C1375.95429,301.393112 1383.43504,299.670219 1385.45026,302.421564 C1386.86183,304.346374 1384.38933,309.866048 1383.33924,310.358573 C1383.61397,310.228365 1377.36224,309.664132 1375.31628,309.033851 C1372.03589,308.026157 1370.72012,306.322134 1367.29513,305.948495 C1365.15158,305.716385 1361.81154,304.269004 1359.27036,303.744399 C1356.87378,303.249987 1355.6791,303.876494 1353.35842,303.744399 C1350.22624,303.567015 1346.01504,300.560915 1341.53635,300.217469 C1336.79017,299.853264 1334.5201,299.56643 1330.13359,299.336208 C1326.7809,299.16071 1326.65258,295.780971 1324.22527,295.367704 C1321.57022,294.918581 1317.50543,298.902182 1315.77757,299.775895 C1315.1233,300.109906 1314.78532,298.964455 1314.93352,298.894634 C1314.25214,299.221097 1314.98955,300.094809 1314.08767,300.657156 C1312.1357,301.878089 1307.0895,300.740187 1303.9555,300.657156 C1301.31492,300.589221 1294.10347,295.152578 1292.97566,299.775895 C1292.15511,303.148085 1296.31751,301.904508 1297.1977,302.863138 C1297.86824,303.589659 1296.75128,304.32939 1297.1977,305.506921 C1297.7833,307.046768 1302.48971,310.8945 1305.22066,311.681407 C1307.49254,312.332446 1310.34278,311.154915 1312.40139,311.239834 C1314.5847,311.328526 1317.31565,312.792891 1319.99961,313.002355 C1322.22269,313.175965 1324.22707,312.081466 1325.91155,312.121094 C1327.42614,312.158836 1326.34171,313.236352 1327.17672,313.443929 C1329.27147,313.959099 1333.43929,312.570217 1336.46846,312.562668 C1339.44521,312.553233 1342.69307,313.743973 1345.75839,313.885503 C1347.37057,313.959099 1363.28275,313.375995 1355.89237,317.410546 C1353.64218,318.639028 1354.49165,317.778525 1353.35842,317.85212 C1349.72378,318.088004 1342.07314,316.334917 1336.04734,316.529285 C1330.63062,316.704783 1323.20229,314.725248 1316.62162,314.766764 C1313.9973,314.78186 1312.25499,316.26887 1309.02158,315.648025 C1304.26275,314.732797 1300.00457,315.957504 1294.66556,315.208338 C1293.58656,315.055485 1289.89589,313.43072 1288.75543,313.885503 C1286.50344,314.776199 1286.44018,319.933556 1284.9527,321.379051 C1284.56773,321.75269 1283.87008,320.675174 1283.68754,320.939364 C1283.46523,321.254504 1283.96226,322.554694 1283.68754,323.143459 C1283.49776,323.547292 1282.00487,323.690709 1281.57471,324.464407 C1280.59873,326.234477 1279.84686,333.826152 1280.30955,335.047085 C1281.15721,337.287035 1289.13317,339.323181 1291.28757,339.455276 C1296.14581,339.753433 1301.86074,342.217944 1308.17935,343.421893 C1312.26041,344.201252 1316.09567,342.348151 1319.99961,342.982206 C1322.37089,343.367168 1326.61824,345.88263 1326.7556,346.948824 C1327.33757,351.485335 1322.01484,349.62846 1321.26658,349.59638 C1316.85115,349.394464 1311.24828,349.151032 1308.17935,347.390397 C1306.21834,346.267592 1303.06446,346.154368 1300.15458,346.948824 C1296.76755,347.875374 1287.43062,348.003695 1288.33251,350.919215 C1288.68856,352.072213 1297.26277,353.23276 1298.46649,353.562997 C1304.32059,355.163231 1310.36628,359.626147 1317.04454,362.381267 C1318.80674,363.107788 1321.59914,362.877566 1322.95648,363.702214 C1324.26322,364.498557 1323.3758,364.224932 1325.49224,364.585362 C1327.40083,364.909938 1328.46899,366.761152 1330.13359,367.229145 C1331.52889,367.621655 1333.22602,367.672606 1334.77856,368.551979 C1336.75583,369.671011 1346.36929,370.750414 1344.91435,374.284892 C1345.07159,373.905592 1344.6577,375.141621 1341.95747,374.724579 C1335.7925,373.77161 1324.35178,365.700619 1317.04454,363.262527 C1312.76828,361.834017 1306.0629,361.267896 1303.53076,359.735597 C1301.63482,358.584486 1303.50365,358.776966 1301.42155,358.852449 C1297.94415,358.982657 1293.09134,354.53295 1289.17474,352.681736 C1286.75828,351.538173 1284.69063,351.806137 1280.30955,350.477641 C1276.75443,349.398238 1271.77148,346.048692 1269.75264,346.509137 C1265.68423,347.437574 1264.73354,349.617138 1260.46451,351.798589 C1256.53165,353.806429 1252.35299,353.71585 1251.17458,356.648354 C1250.70466,357.818336 1251.27218,362.611489 1252.01682,364.143788 C1253.2115,366.598864 1254.76042,365.323206 1256.6654,366.347884 C1257.93779,367.034777 1258.93728,369.603076 1260.88744,370.316388 C1265.41131,371.973234 1270.19364,370.097488 1271.86366,372.962058 C1272.28297,373.679143 1272.39141,376.766387 1271.0178,377.370249 C1269.33513,378.109979 1266.31681,374.724579 1265.52879,374.284892 C1261.79836,372.190247 1256.04185,368.436868 1258.35168,376.047414 C1258.87583,377.774081 1257.94141,377.919385 1259.19573,379.13277 C1260.98684,380.865099 1267.90369,378.874242 1265.94991,385.30537 C1266.29693,384.169355 1263.08521,387.932169 1263.8407,387.509466 C1261.16578,389.005911 1255.13997,384.105195 1253.70672,383.982535 C1252.75604,383.903278 1252.99461,385.018536 1251.5957,385.30537 C1249.38347,385.760154 1244.35533,384.118404 1242.30576,385.30537 C1241.17254,385.96207 1242.75219,386.599899 1242.30576,387.509466 C1242.01297,388.107666 1238.79583,389.585241 1237.23968,391.919544 C1235.95644,393.842466 1236.12272,396.325848 1235.54978,397.210883 C1235.4811,397.314672 1233.8418,397.750584 1233.85988,397.65057 C1233.01945,401.91157 1238.41086,406.812285 1234.2828,408.671048 C1234.01531,408.79182 1232.70496,407.9483 1232.5929,408.231361 C1232.6164,408.174749 1234.47439,420.01044 1231.74886,418.812152 C1231.9314,418.891408 1229.63242,413.466088 1229.63965,411.758291 C1229.65049,409.265474 1230.16379,407.921881 1226.68277,406.908526 C1224.51572,406.278245 1217.83565,406.587724 1216.54698,408.231361 C1214.5914,410.727952 1215.00167,418.196967 1217.39284,419.693412 C1218.31822,420.270855 1219.58338,419.208436 1219.92678,419.253726 C1222.77341,419.631139 1232.24047,422.714608 1226.68277,427.630421 C1225.36338,428.794742 1216.05176,428.607922 1214.01484,426.747273 C1212.60509,425.456518 1214.01304,426.032074 1211.4809,426.305699 C1209.03913,426.569889 1208.16616,424.848883 1205.56896,424.101604 C1204.25319,423.722303 1203.41818,424.731884 1202.61389,424.543177 C1201.47705,424.275214 1202.32471,423.059942 1200.92399,422.339082 C1200.44684,422.093763 1199.90282,423.72419 1199.23771,423.220343 C1197.97254,422.267373 1197.21344,419.519802 1195.43859,418.370578 C1190.69061,415.304092 1188.20546,411.401635 1181.92481,411.758291 C1178.91733,411.928127 1173.90908,409.956141 1170.94679,411.318604 C1168.76889,412.316863 1164.67698,416.883568 1164.1908,419.693412 C1164.17995,419.751912 1164.67879,424.830012 1164.61011,424.543177 C1164.827,425.456518 1166.22229,428.951369 1167.56879,431.157351 C1168.70021,433.014226 1173.5458,437.756428 1169.25508,440.415307 C1168.9171,440.624772 1163.01781,440.558725 1161.65504,439.53216 C1160.33024,438.535788 1160.49109,435.090001 1159.54402,432.919873 C1156.0612,424.950784 1146.07001,422.890106 1139.69899,418.370578 C1139.23088,418.038454 1138.03259,418.731008 1137.58797,418.370578 C1137.02588,417.915794 1137.06202,416.102322 1136.321,415.285221 C1136.15833,415.10595 1134.39795,414.970081 1134.21179,414.845534 C1130.72896,412.516892 1128.05043,405.389436 1123.23014,404.70443 C1114.89993,403.517465 1117.72848,413.692536 1117.32001,418.812152 C1117.18807,420.46711 1116.67297,422.203213 1116.47235,422.339082 C1110.95803,426.103783 1107.84211,410.339216 1104.23097,409.554195 C1102.21935,409.116396 1100.06857,412.431974 1097.8961,412.197978 C1096.41947,412.041351 1095.31877,409.4806 1094.09518,408.231361 C1091.83053,405.923476 1084.1094,394.678437 1081.42725,393.682065 C1075.63821,391.530808 1069.69013,396.978773 1065.38314,397.65057 C1062.45338,398.105353 1056.86857,397.552442 1053.13452,395.886161 C1050.96748,394.919982 1051.03796,394.299137 1048.07025,393.682065 C1042.22699,392.466794 1035.63186,386.022456 1034.55646,379.13277 C1034.29982,377.483473 1033.78291,373.811238 1034.97939,372.520484 C1035.12037,372.369518 1036.16684,372.697868 1036.24637,372.520484 C1036.91148,371.024039 1037.73926,367.049873 1038.78212,365.466623 C1039.69123,364.083402 1042.69148,361.835904 1038.78212,360.175284 C1036.75062,359.314781 1034.27994,360.639503 1032.44544,360.175284 C1026.79377,358.744886 1022.74524,351.46269 1024.42429,345.627876 C1024.60142,345.00703 1026.26601,341.029091 1026.95643,339.89685 C1027.63058,338.792915 1028.85057,339.530759 1029.06926,338.132441 C1029.78498,333.529882 1025.45631,328.319687 1022.73439,327.993224 C1018.37499,327.466732 1013.07937,336.971894 1011.75637,329.755746 C1011.06414,325.985384 1015.94045,322.484872 1017.24538,321.820624 C1025.22315,317.748331 1021.97168,310.2378 1015.13255,305.506921 C1013.17335,304.152006 1012.44136,301.500675 1011.33344,301.098729 C1009.47184,300.423159 1007.09694,302.434774 1005.4215,301.098729 C1004.05512,300.009891 1005.35643,297.498203 1002.88755,296.688651 C1003.00865,296.72828 992.008931,299.322998 995.712253,295.809278 C997.286481,294.31472 1001.92241,294.609102 1003.7316,294.046756 C1005.90588,293.367411 1007.90303,291.782274 1009.22061,291.399199 C1011.16897,290.834966 1013.38301,292.28046 1014.2885,290.517939 C1014.81987,289.489486 1013.36313,284.752945 1012.17748,283.464078 C1008.39645,279.357818 1014.01198,273.813612 1010.06466,268.475096 C1009.11398,267.188115 1005.19196,265.484093 1003.31048,265.389739 C1000.42951,265.240661 997.391309,264.270708 998.240777,259.21714 C998.457663,257.941482 1001.10909,256.095929 1001.62058,253.925801 C1001.98025,252.408598 1001.24826,251.257486 1001.62058,250.39887 C1002.01278,249.496852 1003.63219,248.902425 1003.7316,248.194775 C1003.94668,246.683233 1002.19532,243.773374 1002.04351,242.463749 C1001.72541,239.757693 1002.77911,237.291295 1001.20127,234.968314 C998.858901,231.530076 994.591677,230.429915 994.864591,226.591619 C995.012797,224.549811 998.540802,221.30028 1000.77834,221.30028 C1002.8261,221.302167 1003.21288,223.798758 1004.57926,223.947837 C1005.41788,224.038416 1005.04556,222.360812 1005.4215,222.183428 C1006.4264,221.709774 1008.15245,222.613679 1009.22061,222.183428 C1010.43879,221.69279 1012.33292,216.654318 1010.91232,213.80862 C1010.22371,212.429173 1008.36572,213.17079 1006.68666,211.602637 C1004.89555,209.928807 1000.82172,203.558065 1002.88755,199.259324 C1003.50387,197.974231 1006.51677,196.972198 1008.37837,196.611768 C1009.55498,196.387207 1015.2175,198.195018 1017.24538,197.053342 C1018.67682,196.249451 1017.30502,193.124466 1018.93166,190.441055 C1019.65823,189.248428 1021.50899,189.546585 1021.46923,187.795385 C1021.42223,185.915866 1013.27095,178.433641 1011.75637,175.010499 C1011.09667,173.521602 1004.57564,168.45105 1002.88755,164.429708 C999.733673,156.909742 1005.19377,159.357269 1006.68666,161.784039 C1006.97042,162.242596 1007.06079,165.059989 1008.8013,165.752543 C1011.76359,166.933847 1016.87487,167.141425 1019.3564,168.396325 C1020.10285,168.775626 1020.53843,170.141863 1020.62337,170.160734 C1024.36826,170.991044 1030.20068,168.518985 1030.75554,163.54656 C1031.05918,160.840504 1028.97166,157.345654 1031.6014,154.730178 C1034.88902,151.46555 1040.17922,155.203832 1042.15831,154.730178 C1045.04288,154.039511 1044.91275,150.68053 1046.37854,147.234743 C1047.68889,144.168258 1051.05423,141.879244 1051.44824,139.299622 C1051.89647,136.361457 1048.82935,133.119474 1049.75834,131.3645 C1050.16681,130.59269 1052.42242,130.57948 1052.7134,130.041666 C1053.29719,128.960376 1051.87659,126.327916 1053.55926,125.191901 C1054.89311,124.291769 1059.41156,125.627813 1060.73636,126.956309 C1061.07073,127.29032 1060.12547,128.184791 1060.31525,128.718831 C1060.56286,129.42082 1066.44588,135.674564 1064.9584,134.891431 C1067.72912,136.353909 1077.22871,132.609965 1077.20521,132.685448 C1077.35161,132.230665 1072.5747,129.184937 1077.20521,127.395996 C1079.00175,126.701555 1077.89925,129.100019 1078.04745,129.158518 C1080.58863,130.194518 1088.00069,118.047461 1088.60436,115.052684 C1089.36346,111.299305 1084.55402,100.231651 1088.60436,99.6202406 C1089.60203,99.4711622 1091.19072,101.437487 1091.55942,101.384649 C1092.13959,101.299731 1091.59557,99.8844301 1091.98235,99.6202406 C1096.65804,96.4952558 1095.6441,103.286814 1097.47317,107.996936 C1098.24312,109.987793 1100.87105,113.722301 1101.27228,114.169536 C1101.93198,114.905492 1105.15092,117.007686 1105.91725,116.815205 C1107.31255,116.467985 1108.46204,106.96471 1108.87232,103.588745 C1109.14885,101.345021 1109.56635,97.1311978 1109.71817,93.0079539 C1109.93686,87.1467203 1106.44501,79.4493695 1112.25031,78.0189718 C1115.58854,77.1962101 1117.52244,79.3135006 1117.73932,83.7499977 Z" id="Path" fill="url(#linearGradient-1)" transform="translate(1190.363497, 259.177985) rotate(-24.000000) translate(-1190.363497, -259.177985) "></path>
                <path d="M324.741912,193.378554 C322.107355,198.176484 317.756838,191.893654 314.935763,192.244188 C314.271295,192.324518 312.564662,195.0728 311.123816,195.654588 C307.332851,197.188173 302.087051,196.635596 299.68564,198.497806 C298.030299,199.783097 297.65027,201.457869 295.871361,203.047442 C292.59565,205.978293 288.895613,213.281079 284.98108,213.85313 C282.903744,214.157413 275.990945,210.65451 274.086137,208.166694 C272.86678,206.577121 272.321217,200.367319 268.091936,197.36344 C267.201316,196.725664 265.280187,197.032381 264.279988,196.224206 C260.11832,192.864924 259.983095,186.801178 253.932939,187.692118 C245.609604,188.92142 249.866862,205.69105 243.037996,208.733877 C240.387118,209.916929 241.305716,208.154523 240.860406,210.442729 C240.415096,212.694422 237.668628,216.745033 237.589358,217.835583 C237.367869,220.97578 238.49863,224.590659 235.4141,227.499602 C234.896514,227.991323 233.29946,227.716251 232.688616,228.638837 C231.515888,230.410979 232.483446,234.451854 227.785541,234.325272 C217.648324,234.062372 224.962135,213.332198 227.239978,208.166694 C228.655178,204.960772 232.826172,190.131248 229.963131,183.142483 C229.235713,181.365471 226.897252,182.122527 225.607951,180.868882 C223.446682,178.768114 222.017493,171.789085 221.25044,167.787159 C219.560127,158.984868 221.499907,148.398263 220.704877,138.215746 C220.24791,132.385689 215.048739,127.298081 211.989855,125.136457 C211.208814,124.581445 211.087577,125.723114 209.809934,125.136457 C208.779425,124.656907 199.994459,113.705163 197.282963,116.604369 C195.811808,118.176902 195.214953,114.515772 191.291094,113.761151 C189.416595,113.398446 185.889086,111.72124 182.578403,110.348316 C178.850388,108.804994 173.063688,105.09031 170.592334,102.955463 C168.491682,101.139503 168.969633,99.0022214 167.323617,98.4058272 C165.745215,97.8313414 163.166612,99.8298704 159.15649,98.9754445 C153.805774,97.8289071 148.860733,92.2739216 146.627188,92.7169572 C141.759086,93.6857935 140.688943,111.833216 141.178551,118.310786 C141.33709,120.39208 142.614734,122.302976 142.81524,124.564405 C143.190606,128.841403 141.052652,134.087238 141.724114,137.076511 C142.754622,141.669963 149.674415,144.569169 150.984699,149.019 C152.978103,155.81059 146.354407,159.707844 140.089756,155.84467 C138.742168,155.014587 138.187279,151.993668 137.366603,151.295035 C136.130926,150.240999 131.910971,147.592522 130.82917,147.315016 C126.658177,146.241507 120.878471,150.245868 115.033484,148.451817 C114.72573,148.359315 114.767697,146.370523 114.487921,146.175782 C113.562329,145.528268 111.582913,146.426511 111.221536,146.175782 C109.074255,144.688448 106.989924,140.783892 104.684104,139.919729 C95.2439954,136.380312 88.6785854,151.472736 78.5413686,145.608599 C76.9559713,144.690882 76.1189748,141.587198 74.181526,140.486912 C72.3559876,139.457219 69.2038448,139.749331 67.1008619,138.785363 C63.8741121,137.300463 62.7899801,134.393955 58.3858397,134.233293 C55.9284738,134.143226 50.5311286,135.57944 49.6708174,131.39251 C49.3514065,129.844319 52.2680712,127.986977 52.3939704,126.84044 C52.7436904,123.724585 48.0131447,117.663273 45.8588695,116.604369 C43.34788,115.367764 38.3189065,116.621409 36.0527209,114.328334 C36.0597153,114.335637 34.4276887,109.949097 34.4206943,109.781133 C34.2411714,105.767035 38.8947787,100.243695 38.2326422,96.6994096 C38.0134843,95.5309639 36.0923558,94.5986417 36.0527209,93.8561918 C35.8312316,89.4014926 39.0533185,80.5042655 40.4125635,76.7944504 C44.4040343,65.9035629 51.7015249,55.7283483 63.288914,51.2030555 C66.916676,49.7838808 71.2438781,45.2293769 74.7270892,44.3773852 C79.3690392,43.2430192 85.6406844,44.7814727 89.9795438,44.3773852 C91.3667664,44.2483693 92.5301683,42.6563621 93.7914917,42.6734019 C93.5373619,42.6685334 94.2018298,44.9250941 94.3370549,44.9470025 C95.2463269,45.0881897 97.0485506,42.7415613 99.2377977,42.6734019 C103.499719,42.5395175 123.979322,54.7668148 125.382864,54.6134563 C127.802927,54.3505561 126.548598,52.2449196 129.197144,49.4942037 C133.237575,45.2975362 143.197601,46.0472889 142.269677,37.5541492 C142.041193,35.4679868 136.387387,33.0872787 140.089756,29.0220614 C142.654369,26.2080547 148.685873,28.5157349 153.164621,26.7484608 C160.371184,23.9003745 163.269197,9.24368381 159.15649,1.15706591 C157.862526,-1.38430347 146.958256,-12.1997289 148.259215,-17.04391 C149.361999,-21.1456413 152.16209,-19.8506139 156.433337,-21.0239282 C157.205052,-21.2381432 158.82309,-23.0662739 160.245285,-23.2975287 C160.797842,-23.3875964 162.798241,-22.6573179 162.966106,-22.7303457 C168.892694,-25.2181613 171.352392,-32.2361383 167.869181,-38.0832353 C165.437461,-42.1679267 157.841543,-42.2214804 156.433337,-47.7521234 C155.559037,-51.1625242 157.524463,-60.1765959 161.331748,-60.8314123 C162.203717,-60.9823366 165.973698,-59.7579029 167.323617,-59.1298633 C174.700378,-55.6951198 176.67513,-52.2457708 184.21043,-55.7145939 C187.092123,-57.0437009 191.988203,-57.9224694 194.014247,-60.2642293 C196.369029,-62.9857341 196.569535,-68.0806442 198.917322,-71.072352 C202.817865,-76.0358119 212.470137,-78.4043487 206.541217,-87.5620418 C205.291551,-89.49728 201.057608,-92.6788603 196.7374,-92.1116772 C194.785963,-91.8560798 192.552418,-89.2611566 189.111173,-89.2684594 C188.227547,-89.2708937 183.137955,-91.5201516 183.121635,-91.5444942 C177.761593,-99.2976183 189.330331,-105.156887 191.291094,-109.743036 C193.296156,-114.433859 190.384154,-123.372468 191.834326,-127.941578 C192.181714,-129.034561 193.452364,-128.647513 193.471016,-129.647995 C193.627224,-138.447852 186.840324,-139.506756 180.398482,-145.572936 C179.316682,-146.588023 177.924796,-150.551002 176.040971,-151.826555 C170.725227,-155.426828 163.36945,-158.318731 167.869181,-166.614696 C171.783713,-173.827414 183.641552,-168.228611 189.656736,-171.731514 C191.675786,-172.907263 196.11723,-179.859515 196.7374,-180.830785 C197.322598,-181.746067 199.381283,-186.015763 199.460553,-186.517221 C200.309207,-191.921282 192.6993,-202.566309 197.282963,-206.42218 C199.34398,-208.155374 203.256181,-207.201144 206.541217,-208.698215 C209.637405,-210.110087 215.221268,-213.878324 216.892929,-217.230303 C219.970465,-223.396288 214.869216,-241.582658 222.884798,-242.25208 C223.255502,-242.283726 225.675564,-240.920539 226.153515,-241.11528 C227.993042,-241.860164 225.792137,-243.254996 226.699078,-243.388881 C230.42243,-243.946326 235.034071,-240.755009 238.680485,-242.821698 C240.347483,-243.766191 241.543526,-250.046587 246.306712,-250.781734 C250.617594,-251.446287 258.954918,-247.147381 263.734425,-250.214551 C268.733089,-253.420474 265.758138,-262.395597 271.906216,-262.726657 C277.557691,-263.026071 279.614044,-254.98327 284.98108,-253.627386 C287.732211,-252.931187 292.315874,-253.700414 295.328129,-255.900986 C298.373025,-258.125902 297.65027,-261.972036 300.231203,-264.43064 C304.658659,-268.654084 307.167317,-264.014381 307.855099,-263.29384 C309.400862,-261.682358 308.960214,-259.542642 310.037352,-255.900986 C311.065529,-252.410255 314.091773,-246.991588 317.115685,-246.234533 C325.194217,-244.206793 331.596424,-259.048487 338.900909,-251.920968 C340.504958,-250.358172 338.931218,-248.654189 339.992035,-246.801716 C344.659631,-238.65911 351.989762,-238.422986 359.602001,-236.565645 C368.020927,-234.511128 361.182735,-220.996106 365.048307,-215.523885 C365.950585,-214.248332 370.186859,-210.920696 372.128971,-210.404632 C375.64016,-209.469876 385.147881,-212.726918 387.379094,-209.837449 C390.183849,-206.212833 383.569478,-200.132047 383.023915,-197.325343 C381.95144,-191.802003 384.802824,-189.854594 385.747068,-185.950038 C385.91027,-185.278181 385.012656,-182.337593 385.203836,-181.97002 C387.041032,-178.428169 405.601837,-172.5689 402.088317,-164.908278 C401.176714,-162.92192 396.049819,-163.255414 396.63968,-158.652225 C396.996394,-155.901509 398.856904,-155.105506 402.088317,-153.532972 C405.713748,-151.768133 406.92611,-148.598724 408.080186,-148.41372 C409.59564,-148.177596 407.170914,-150.039807 408.080186,-150.689755 C413.286351,-154.419044 422.693819,-137.980473 412.437697,-134.197631 C411.271964,-133.7692 410.096905,-134.548164 408.625749,-134.197631 C403.862563,-133.06083 398.493196,-128.474681 396.63968,-127.941578 C393.408267,-127.01169 390.580198,-128.537972 389.018115,-126.23516 C388.62876,-125.667977 388.633423,-122.995157 388.472552,-122.822325 C387.159936,-121.449401 382.47602,-118.172885 380.300762,-117.135889 C379.633962,-116.819435 378.148818,-117.586228 377.577609,-117.135889 C372.977625,-113.523445 368.093202,-103.231385 372.674534,-96.6613127 C375.453642,-92.6788603 381.151747,-90.1180168 384.660604,-85.8580585 C387.826736,-82.0070563 390.088258,-75.7656089 393.373295,-71.639535 C399.134349,-64.4024745 402.193233,-65.2520319 410.803339,-64.816299 C415.226131,-64.5899127 419.702547,-60.6804881 420.066256,-53.4409933 C420.124543,-52.2214282 418.695354,-52.4259061 418.427235,-51.1649585 C418.058863,-49.4098557 420.283083,-46.8879604 420.607156,-44.3417225 C421.658648,-36.1260887 418.273358,-32.7375962 421.698283,-26.1431808 C422.83837,-23.9426081 426.35189,-22.0998719 427.687821,-19.8871279 C428.0049,-19.3613273 427.335769,-18.1052482 427.687821,-17.611093 C430.520553,-13.6481147 436.766552,-11.2576696 436.948406,-3.96462105 C436.953069,-3.77474862 435.675425,-1.59851852 435.859611,-1.11653467 C436.0811,-0.542048871 439.585295,4.46522777 440.762685,6.27388434 C444.968651,12.7441524 452.361732,19.69397 447.297786,30.161296 C445.115534,34.6719832 440.534202,35.5239748 438.582764,38.6909495 C435.42829,43.807768 433.525813,55.4362369 435.859611,62.5783612 C437.589559,67.8777492 446.278935,72.1206676 449.475376,77.9312507 C453.142773,84.5913911 442.793393,93.8464547 438.039532,97.2665927 C436.587029,98.310891 435.125199,97.7120626 434.225253,98.9754445 C433.591094,99.8639501 434.642585,102.183802 433.682021,104.092263 C432.607215,106.222242 429.329173,106.606855 428.778947,108.072281 C428.252035,109.474416 429.961001,110.484635 429.867742,112.054733 C429.699876,114.880911 426.426497,116.925691 424.966999,119.447587 C424.213935,120.742614 424.736184,122.663247 423.875873,123.997222 C421.050135,128.378893 416.620349,130.18755 415.706414,137.643694 C415.221469,141.579896 418.29201,144.393902 415.16085,149.019 C411.873482,153.875352 404.247255,157.619247 402.088317,163.807141 C401.640676,165.085128 402.314469,167.329517 401.545085,168.356776 C398.13415,172.889372 392.923322,168.006242 386.835862,168.356776 C383.930855,168.52474 377.164939,171.18052 375.94325,172.336794 C375.185524,173.057336 374.371842,178.325078 373.765661,179.162464 C371.567088,182.168778 372.942653,178.724297 373.220097,182.5753 C373.339002,184.220861 371.583408,191.389762 369.405818,192.244188 C368.289046,192.679921 366.281653,191.647793 365.048307,192.244188 C362.949987,193.261709 359.527394,195.990517 357.424411,197.36344 C356.7716,197.784568 356.736628,199.454471 356.333285,199.634607 C355.759744,199.892638 353.715048,198.626822 353.0669,199.064989 C352.029397,199.768491 353.544851,200.832263 352.521337,201.910641 C351.253019,203.247051 342.19294,206.353169 340.53993,205.89066 C338.44161,205.304003 336.7886,198.991962 332.911371,197.928189 C329.770886,197.06646 326.954474,195.248067 326.37627,195.084971 C326.005567,194.982732 324.037809,197.716408 324.741912,193.378554" id="Path" fill="url(#linearGradient-2)" transform="translate(242.331009, -15.928051) rotate(129.000000) translate(-242.331009, 15.928051) "></path>
            </g>
        </g>
    </g>
</svg>