<?xml version="1.0" encoding="UTF-8" standalone="no"?>
<svg width="1390px" height="360px" viewBox="0 0 1390 360" version="1.1" xmlns="http://www.w3.org/2000/svg" xmlns:xlink="http://www.w3.org/1999/xlink">
    <!-- Generator: Sketch 39.1 (31720) - http://www.bohemiancoding.com/sketch -->
    <title>bg</title>
    <desc>Created with Sketch.</desc>
    <defs>
        <linearGradient x1="58.8935977%" y1="86.7526754%" x2="32.8378333%" y2="20.5276402%" id="linearGradient-1">
            <stop stop-color="#2793E0" offset="0%"></stop>
            <stop stop-color="#0055B8" offset="100%"></stop>
        </linearGradient>
        <linearGradient x1="75.9738079%" y1="34.7244709%" x2="27.5400302%" y2="58.9037797%" id="linearGradient-2">
            <stop stop-color="#469BFF" offset="0%"></stop>
            <stop stop-color="#0055B8" offset="100%"></stop>
        </linearGradient>
    </defs>
    <g id="S2-Search-Results-(READY)" stroke="none" stroke-width="1" fill="none" fill-rule="evenodd">
        <g id="03-Search-results---Final-alt" transform="translate(-50.000000, -60.000000)">
            <g id="Hero" transform="translate(0.000000, 60.000000)">
                <g id="bg">
                    <path d="M576.122231,265.711336 C574.90971,270.336722 580.374535,273.0119 580.938399,275.631963 C578.030044,277.348995 576.554669,278.201152 575.952648,280.511725 C575.041137,283.988184 577.037982,285.751852 578.763493,288.677165 C573.828616,288.613571 570.275844,292.628458 568.758073,298.428209 C568.151813,300.738783 568.406188,304.520492 570.140178,307.450045 C568.660563,308.297962 549.518839,305.745732 547.089557,315.021943 C546.483297,317.332516 547.352411,318.790933 546.737672,321.109986 C540.93368,319.587975 541.022712,314.661578 536.380367,313.444817 C530.580615,311.922806 526.75651,317.112058 519.837508,315.297516 C512.859152,313.470255 514.983184,305.368409 506.877099,303.240137 C501.111264,301.730845 498.737096,306.050982 496.401085,305.436242 C495.264877,305.139471 495.264877,305.139471 495.570127,303.977825 C496.180627,301.671491 500.254868,300.25971 501.463149,295.630083 C501.772639,294.472677 498.953315,286.311477 490.855709,284.183205 C491.76722,280.710986 494.667095,279.006673 495.582846,275.530213 C497.096377,269.738941 494.196502,271.451733 491.631553,267.063763 C494.539908,265.350971 496.320533,263.349887 497.227804,259.873428 C497.838305,257.562855 498.444565,255.239562 497.8807,252.619499 C500.827212,250.915186 504.587723,250.67353 505.503473,247.192831 C505.808723,246.039664 504.939609,244.572768 505.249098,243.415361 C505.545869,242.257955 534.10795,232.426358 537.351232,229.560399 C541.989337,230.77292 545.677775,235.461901 550.311641,236.674422 C553.775382,237.581693 556.721893,235.87314 560.495123,235.623005 C561.44055,255.680479 581.896545,243.712132 576.122231,265.711336" id="Path" fill="#0055B8" transform="translate(535.897054, 275.335193) rotate(-93.000000) translate(-535.897054, -275.335193) "></path>
                    <path d="M778.335306,39.5568022 C778.124711,40.3601557 779.073861,40.8247901 779.171795,41.279852 C778.666661,41.5780722 778.410413,41.7260777 778.305852,42.1273863 C778.147537,42.7311901 778.494356,43.0375101 778.794049,43.5455889 C777.936942,43.5345437 777.319884,44.2318634 777.056273,45.2391849 C776.950975,45.6404935 776.995156,46.2973142 777.296321,46.8061293 C777.039337,46.9533986 773.714734,46.5101182 773.292808,48.1212434 C773.18751,48.5225521 773.338461,48.7758551 773.231691,49.1786364 C772.223633,48.9142882 772.239097,48.058654 771.432798,47.8473227 C770.425476,47.5829745 769.761292,48.4842621 768.559575,48.1691059 C767.347549,47.8517408 767.716459,46.4445834 766.308565,46.0749377 C765.307134,45.8127985 764.894781,46.5631351 764.489054,46.456365 C764.291713,46.4048207 764.291713,46.4048207 764.34473,46.2030619 C764.450764,45.8024896 765.158393,45.5572864 765.368251,44.7531965 C765.422004,44.552174 764.932334,43.1347078 763.525913,42.765062 C763.684228,42.1619946 764.187888,41.8659835 764.346939,41.2621797 C764.609815,40.2563309 764.106154,40.5538148 763.660665,39.7916966 C764.165798,39.4942127 764.475063,39.1466574 764.632641,38.5428536 C764.738675,38.141545 764.843973,37.7380273 764.746039,37.2829655 C765.257799,36.9869543 765.910938,36.9449826 766.069989,36.3404425 C766.123006,36.1401563 765.972055,35.8853806 766.025808,35.6843581 C766.077352,35.4833356 771.038116,33.7757491 771.601421,33.2779791 C772.406983,33.4885741 773.047605,34.3029729 773.852431,34.5135678 C774.454026,34.6711459 774.965786,34.3743984 775.621134,34.330954 C775.785339,37.8146073 779.338209,35.7359023 778.335306,39.5568022" id="Path" fill="#0055B8" transform="translate(771.348854, 41.228308) rotate(-93.000000) translate(-771.348854, -41.228308) "></path>
                    <path d="M50.2624158,235.722417 C50.2624158,236.708211 49.6873544,237.195808 48.5557822,238.176302 C49.12466,239.162097 51.9875997,239.654994 51.9875997,241.621283 C51.9875997,250.943929 59.995174,244.064568 62.8704806,251.935023 C64.5894811,251.436826 65.7457872,250.456331 67.4647877,250.456331 C69.752666,250.456331 72.034361,251.935023 74.3284228,251.935023 C75.4847289,250.456331 87.5115489,243.582271 87.5115489,243.094674 C87.5115489,243.068174 87.4929986,243.041674 87.4929986,243.015174 C90.3683051,245.246462 93.1817772,247.880546 93.6084356,247.975946 C94.1649465,248.081945 94.727641,248.198544 94.8574935,247.716247 C94.8574935,247.716247 90.3497548,242.962175 86.9797718,241.297984 C87.2085596,240.068391 88.7420565,239.575494 89.8056107,238.6692 C89.2552832,237.736405 89.2305494,236.80891 89.2305494,235.876116 C89.3665854,236.109314 89.5211718,236.337213 89.6943085,236.581012 C90.2508195,236.687011 91.62973,235.966215 91.7595825,235.483918 C92.0254711,234.524624 90.9124492,234.296725 90.3497548,234.180126 C90.0591324,234.116526 89.7252258,234.206625 89.4655207,234.360324 C89.7252258,233.581229 90.2013519,232.929333 90.9433665,232.288036 C89.2305494,230.809345 88.0866102,231.789839 88.0866102,229.341253 C88.0866102,227.867862 89.2305494,226.887368 89.2305494,225.408676 C85.2174871,225.408676 82.9234253,222.467193 82.9234253,221.968996 C82.9234253,220.002707 84.6362423,219.027513 84.6362423,218.041719 C84.6362423,217.543522 84.6362423,217.543522 84.0859148,217.543522 C82.9234253,217.543522 82.3421805,219.50451 79.4916077,219.50451 C75.4847289,219.50451 75.4847289,216.08073 72.034361,216.08073 C68.6087269,216.08073 67.4647877,218.539916 64.5894811,218.539916 C62.2892358,218.539916 61.7389083,216.568327 58.8636017,216.568327 C58.8636017,217.543522 59.4448465,218.041719 59.4448465,219.027513 C59.4448465,222.95479 50.2624158,223.935285 49.6873544,224.428182 C50.8436605,225.408676 51.4249053,226.887368 51.4249053,227.867862 C51.4249053,230.327048 50.2624158,232.288036 47.9745374,232.775634 C49.12466,233.756128 50.2624158,234.249025 50.2624158,235.722417 L50.2624158,235.722417 Z" id="Path" fill="#2793E1" transform="translate(71.416015, 234.007877) rotate(-138.000000) translate(-71.416015, -234.007877) "></path>
                    <path d="M840.069591,180.209119 C840.069591,181.857707 839.347964,182.673138 837.927988,184.312862 C838.641856,185.961451 842.234474,186.785745 842.234474,190.074058 C842.234474,205.664739 852.282941,194.160075 855.891078,207.322191 C858.048201,206.489033 859.499215,204.849308 861.656338,204.849308 C864.527328,204.849308 867.39056,207.322191 870.26931,207.322191 C871.720324,204.849308 886.812424,193.353508 886.812424,192.538077 C886.812424,192.49376 886.789145,192.449443 886.789145,192.405126 C890.397282,196.136608 893.927825,200.541707 894.463226,200.701248 C895.161575,200.878515 895.867684,201.073509 896.030632,200.266942 C896.030632,200.266942 890.374004,192.316492 886.145112,189.533392 C886.432211,187.477088 888.356551,186.652794 889.691174,185.137157 C889.000584,183.577202 888.969546,182.026111 888.969546,180.466157 C889.140254,180.856145 889.33424,181.23727 889.551504,181.644986 C890.249853,181.822253 891.980207,180.616834 892.143155,179.810267 C892.476811,178.205995 891.080113,177.82487 890.374004,177.629876 C890.009311,177.523515 889.590301,177.674193 889.264405,177.931231 C889.590301,176.628314 890.187778,175.538119 891.11891,174.46565 C888.969546,171.992768 887.534051,173.632492 887.534051,169.537612 C887.534051,167.073593 888.969546,165.433868 888.969546,162.960986 C883.933674,162.960986 881.054923,158.041811 881.054923,157.208654 C881.054923,153.920341 883.204287,152.289479 883.204287,150.640891 C883.204287,149.807734 883.204287,149.807734 882.513697,149.807734 C881.054923,149.807734 880.325537,153.087183 876.748437,153.087183 C871.720324,153.087183 871.720324,147.361441 867.39056,147.361441 C863.091833,147.361441 861.656338,151.474049 858.048201,151.474049 C855.161691,151.474049 854.471102,148.176872 850.862965,148.176872 C850.862965,149.807734 851.592351,150.640891 851.592351,152.289479 C851.592351,158.857242 840.069591,160.496967 839.347964,161.321261 C840.798978,162.960986 841.528365,165.433868 841.528365,167.073593 C841.528365,171.1862 840.069591,174.46565 837.198601,175.281081 C838.641856,176.920806 840.069591,177.7451 840.069591,180.209119 L840.069591,180.209119 Z" id="Path" fill="#0055B8" transform="translate(866.614616, 177.341816) rotate(90.000000) translate(-866.614616, -177.341816) "></path>
                    <path d="M1421.75745,67.6738262 C1421.75745,68.1273756 1421.50716,68.3505122 1421.50716,68.5736487 C1421.50716,69.2503347 1422.24997,69.6966078 1422.75864,69.6966078 C1423.74637,69.6966078 1424.24965,69.4758967 1424.74756,69.4758967 C1425.99635,69.9270206 1426.99484,70.3708684 1427.74035,71.2706909 C1427.74035,73.5214599 1425.74605,75.0931176 1425.74605,76.4416386 C1425.74605,76.4416386 1425.99635,76.6647752 1426.24665,76.6647752 C1426.74186,74.6419936 1428.23287,72.6216374 1430.48285,72.6216374 C1433.97624,72.6216374 1436.21545,76.2160767 1439.21094,77.1158992 L1439.21094,80.2058558 C1438.34701,79.3909222 1437.20318,78.4474425 1436.40115,78.2752393 C1436.40115,78.2752393 1436.15355,78.2243059 1436.09703,78.4425917 C1437.15204,79.1483824 1438.43044,80.329551 1439.21094,81.0159386 L1439.21094,81.3821736 C1439.24323,81.2948593 1439.26745,81.1881418 1439.29706,81.0959767 C1439.60118,81.3651958 1439.82457,81.5471007 1439.89185,81.5592276 C1440.13138,81.6150118 1440.37899,81.6683705 1440.4355,81.445234 C1440.4355,81.445234 1440.04526,81.0110878 1439.48545,80.4702241 C1439.79496,79.2890555 1439.95913,77.9526614 1439.95913,76.8879118 C1439.95913,76.6647752 1439.70615,76.2160767 1439.70615,75.7673781 C1439.70615,74.6419936 1441.20793,74.418857 1442.45133,74.418857 C1445.94741,74.418857 1443.44983,77.3414612 1445.69712,77.3414612 C1446.33497,77.3414612 1446.07391,75.0494604 1447.53263,73.9580315 C1447.48418,74.1738919 1447.96055,74.2757586 1448.20008,74.3315427 C1448.50152,74.1617649 1448.50152,74.1617649 1448.55534,73.9459045 C1448.59841,73.802806 1448.52574,73.6403044 1448.40732,73.5311615 C1448.42078,73.5263107 1448.42885,73.5214599 1448.43961,73.5214599 L1449.93332,75.9905147 C1449.93332,76.2160767 1450.18631,76.2160767 1450.18631,76.2160767 C1450.93451,76.2160767 1451.68001,75.3186795 1451.68001,74.8651302 C1451.68001,74.1908697 1450.93451,73.7445965 1450.93451,73.5214599 C1450.93451,72.3960754 1452.1833,72.168088 1452.92881,71.9449514 C1453.42402,72.844774 1454.17222,73.7445965 1455.4237,73.7445965 C1455.6713,73.7445965 1455.91622,73.7445965 1455.91622,73.2934725 C1455.91622,73.0679105 1455.6713,72.3960754 1455.4237,71.9449514 C1455.4237,70.3708684 1456.16651,69.0247727 1457.91321,69.0247727 C1458.66141,69.0247727 1461.15092,71.4962529 1461.15092,71.4962529 L1460.6584,68.3505122 C1460.6584,68.343236 1460.65301,68.3359598 1460.65032,68.331109 C1461.05134,68.2025629 1461.44966,67.8120739 1461.53847,67.4822198 C1461.6542,67.0407974 1461.0944,66.2307146 1460.36773,66.0706384 C1460.35966,66.0706384 1460.34351,66.08034 1460.33005,66.08034 C1460.82526,64.9282761 1461.6542,63.4827391 1462.1521,62.7284405 C1464.40208,62.7284405 1465.8931,64.3049489 1466.89159,64.3049489 C1467.14458,64.3049489 1467.38411,64.0793869 1467.38411,63.8562504 C1467.38411,62.2845927 1463.65119,62.2845927 1463.65119,60.4849477 C1463.65119,59.8082617 1464.14909,59.1340012 1464.8946,59.1340012 C1465.06954,59.1340012 1465.24448,59.2382933 1465.49747,59.303779 C1465.48401,59.3450108 1465.47593,59.3789663 1465.46517,59.4274743 C1465.59166,59.9149792 1465.59166,59.9149792 1465.83658,59.9659126 C1466.56324,60.121138 1467.07999,58.1565659 1467.1392,57.9334294 C1466.94542,58.0449976 1466.78663,58.0668262 1466.64937,58.071677 C1466.22952,57.6399562 1465.39789,57.0505846 1465.39789,56.2138224 C1465.39789,54.1934662 1467.14458,54.1934662 1469.1335,54.1934662 C1468.3853,53.9654788 1467.63979,53.5167803 1467.63979,52.8425197 C1467.63979,51.7195606 1468.88858,51.0453001 1468.88858,50.1454776 C1468.88858,49.471217 1466.39638,49.696779 1466.39638,45.8767777 C1466.39638,44.9793806 1468.14307,44.7513932 1468.63559,44.7513932 C1468.14307,42.0567765 1464.14909,43.4028722 1464.14909,39.8084329 C1464.14909,39.3597343 1464.64969,38.6830484 1464.64969,38.2367752 C1464.64969,37.6643814 1463.94186,37.4194162 1463.12368,37.1501971 L1463.16675,36.9901208 L1463.0241,37.1210923 C1461.92065,36.7621335 1460.6584,36.3498159 1460.6584,35.0886091 C1460.6584,34.6350597 1461.15092,34.1887866 1461.4066,33.7376626 C1461.18052,33.53878 1461.02711,33.325345 1460.91677,33.1094846 C1461.36892,32.8596687 1461.77262,32.5419416 1461.82914,32.3212304 C1461.94756,31.8822334 1462.00677,31.6687984 1461.82107,31.3923031 C1461.28279,31.2807348 1460.84679,31.4020047 1460.48884,31.6275667 C1460.3139,31.0309189 1459.9721,30.507033 1458.82558,30.2014329 C1458.98975,29.653293 1458.98975,29.4010517 1458.28192,29.250677 C1458.0397,29.1948929 1457.49874,29.3137373 1457.38301,29.7575851 C1457.36148,29.8279216 1457.34533,29.9006836 1457.32918,29.9710201 C1456.91202,29.9419153 1456.45718,29.9200867 1455.91622,29.9200867 C1455.91622,28.8068292 1456.16113,27.4777113 1456.41412,26.3644538 C1457.28612,27.1260287 1458.00471,27.8075654 1458.14197,27.8366702 C1458.3842,27.8851781 1458.62911,27.9385369 1458.68563,27.7178257 C1458.68563,27.7178257 1456.10461,24.8582819 1454.65128,24.547831 C1454.65128,24.547831 1454.40636,24.4993231 1454.34985,24.7151834 C1454.74278,24.9795518 1455.1734,25.3166821 1455.59595,25.6635139 C1454.40636,25.7387012 1453.91115,27.4704351 1453.17372,28.5691403 C1451.1848,27.4461812 1448.93483,25.8769489 1447.69411,24.5284278 C1447.69411,24.3028658 1447.93633,24.0773039 1447.93633,23.8517419 C1447.93633,23.4030433 1447.69411,22.9519194 1447.18813,22.9519194 C1446.19233,23.1774813 1444.70131,24.0773039 1444.19534,24.5284278 C1443.69744,23.8517419 1439.95913,22.5056462 1439.95913,20.7060012 L1439.95913,16.8859999 C1439.70615,17.783397 1439.46123,20.7060012 1438.96064,20.7060012 C1438.46543,20.7060012 1437.95945,20.4804392 1437.71454,20.4804392 C1437.21394,20.4804392 1436.97172,20.7060012 1436.71873,20.9291377 C1436.97172,21.3778363 1437.21394,21.8313857 1437.21394,22.5056462 C1437.21394,23.1653544 1436.94481,23.8177863 1436.30965,24.2107007 C1436.2316,24.1476404 1436.13471,24.0942816 1436.01091,24.0700277 C1435.7633,24.0142435 1435.70678,24.2373801 1435.70678,24.2373801 C1435.69333,24.2931643 1435.74446,24.3635008 1435.8252,24.4338373 C1435.71216,24.4677929 1435.59644,24.5041738 1435.46994,24.5284278 C1433.22804,24.5284278 1432.22954,22.9519194 1429.97956,22.9519194 C1429.73465,22.9519194 1429.23675,23.1774813 1428.73885,23.1774813 C1427.74035,23.1774813 1427.99334,22.0545222 1426.74186,22.0545222 C1425.99635,22.0545222 1425.49306,22.9519194 1425.24815,22.9519194 L1424.99516,22.9519194 C1425.24815,23.8517419 1425.24815,24.9795518 1425.24815,26.3256475 C1423.50415,28.1228671 1417.76347,29.6945248 1416.27246,31.7173064 C1416.27246,32.6147035 1417.51048,32.8402655 1417.51048,33.514526 C1417.01797,35.5373077 1416.27246,35.9884316 1415.27396,35.9884316 C1414.76799,35.9884316 1414.27278,35.7628696 1413.77757,35.7628696 C1413.27428,35.7628696 1413.02398,35.9884316 1413.02398,36.6602668 C1413.77757,37.5625147 1414.52307,37.5625147 1414.52307,38.906185 C1414.52307,42.5030496 1410.78208,40.4826934 1410.78208,42.0567765 C1410.78208,42.9347704 1412.29463,43.4174245 1412.95939,44.8726631 C1412.8006,44.6446757 1412.56645,44.4676217 1412.20581,44.3875836 C1411.48183,44.2299328 1411.06736,44.8338568 1410.89243,45.4959903 C1410.72018,46.1508477 1411.2746,46.9633559 1412.00396,47.1161559 C1412.73332,47.2713814 1413.03206,47.1040289 1413.09127,46.8833178 C1413.16663,46.5946954 1413.22045,46.2575652 1413.22853,45.9180095 C1413.23929,46.0538318 1413.27428,46.177527 1413.27428,46.3279017 C1413.27428,50.1454776 1410.03657,47.671572 1410.03657,49.696779 C1410.03657,51.0865318 1412.56645,50.0217823 1413.15317,51.6225447 C1412.91095,51.7923226 1412.72524,52.0130337 1412.72524,52.2337449 C1412.72524,52.4180751 1412.90826,52.5975546 1413.24737,52.6557641 C1413.09396,54.1134281 1411.78058,55.3528063 1411.78058,55.9906859 C1411.78058,56.4393844 1413.52727,57.3392069 1414.52307,57.3392069 C1414.52307,58.462166 1413.02398,59.1340012 1413.02398,60.0362491 C1413.27428,60.4849477 1413.52727,60.4849477 1413.77757,60.4849477 C1414.52307,60.4849477 1414.76799,60.0362491 1415.76648,60.0362491 C1416.01678,60.0362491 1418.76197,61.8310433 1418.76197,64.0793869 C1418.76197,64.3049489 1418.26676,64.7536475 1417.51048,64.9767841 C1417.01797,64.9767841 1416.27246,65.6510446 1416.27246,66.1021686 C1416.52006,66.5484417 1416.76498,66.7740037 1417.01797,66.7740037 C1418.01377,66.7740037 1419.01496,65.879032 1419.76315,65.879032 C1420.75896,65.879032 1421.75745,67.2275531 1421.75745,67.6738262 L1421.75745,67.6738262 Z" id="Path" fill="#2793E1" transform="translate(1439.585034, 49.247055) rotate(-81.000000) translate(-1439.585034, -49.247055) "></path>
                    <path d="M1347.27469,120.259958 C1347.27469,120.334883 1347.23122,120.371745 1347.23122,120.408606 C1347.23122,120.520393 1347.36024,120.594117 1347.44859,120.594117 C1347.62015,120.594117 1347.70756,120.557656 1347.79404,120.557656 C1348.01094,120.63218 1348.18437,120.705503 1348.31386,120.854152 C1348.31386,121.225974 1347.96747,121.485608 1347.96747,121.708381 C1347.96747,121.708381 1348.01094,121.745243 1348.05442,121.745243 C1348.14043,121.411084 1348.3994,121.077325 1348.7902,121.077325 C1349.39696,121.077325 1349.78589,121.671119 1350.30618,121.819768 L1350.30618,122.330222 C1350.15612,122.195596 1349.95745,122.039736 1349.81815,122.011288 C1349.81815,122.011288 1349.77514,122.002874 1349.76532,122.038934 C1349.94857,122.155529 1350.17061,122.350656 1350.30618,122.464046 L1350.30618,122.524547 C1350.31179,122.510123 1350.31599,122.492493 1350.32113,122.477268 C1350.37396,122.521742 1350.41276,122.551792 1350.42444,122.553796 C1350.46605,122.563011 1350.50905,122.571826 1350.51887,122.534964 C1350.51887,122.534964 1350.45109,122.463244 1350.35386,122.373895 C1350.40762,122.178768 1350.43613,121.957999 1350.43613,121.782105 C1350.43613,121.745243 1350.39219,121.671119 1350.39219,121.596995 C1350.39219,121.411084 1350.65303,121.374222 1350.869,121.374222 C1351.47623,121.374222 1351.04243,121.85703 1351.43276,121.85703 C1351.54354,121.85703 1351.4982,121.478396 1351.75156,121.298095 C1351.74315,121.333754 1351.82589,121.350583 1351.86749,121.359798 C1351.91985,121.331751 1351.91985,121.331751 1351.9292,121.296091 C1351.93668,121.272452 1351.92406,121.245607 1351.90349,121.227577 C1351.90583,121.226775 1351.90723,121.225974 1351.9091,121.225974 L1352.16854,121.633857 C1352.16854,121.671119 1352.21248,121.671119 1352.21248,121.671119 C1352.34243,121.671119 1352.47192,121.522871 1352.47192,121.447945 C1352.47192,121.336559 1352.34243,121.262836 1352.34243,121.225974 C1352.34243,121.040063 1352.55934,121.0024 1352.68882,120.965538 C1352.77484,121.114187 1352.90479,121.262836 1353.12216,121.262836 C1353.16517,121.262836 1353.2077,121.262836 1353.2077,121.188311 C1353.2077,121.151049 1353.16517,121.040063 1353.12216,120.965538 C1353.12216,120.705503 1353.25118,120.483131 1353.55456,120.483131 C1353.68451,120.483131 1354.11692,120.891414 1354.11692,120.891414 L1354.03137,120.371745 C1354.03137,120.370543 1354.03044,120.369341 1354.02997,120.368539 C1354.09962,120.347304 1354.1688,120.282796 1354.18423,120.228305 C1354.20433,120.155383 1354.1071,120.021559 1353.98088,119.995115 C1353.97948,119.995115 1353.97668,119.996717 1353.97434,119.996717 C1354.06035,119.806399 1354.20433,119.567599 1354.29081,119.442991 C1354.68161,119.442991 1354.94058,119.703426 1355.11401,119.703426 C1355.15795,119.703426 1355.19955,119.666164 1355.19955,119.629302 C1355.19955,119.369668 1354.55119,119.369668 1354.55119,119.072371 C1354.55119,118.960584 1354.63767,118.849197 1354.76715,118.849197 C1354.79754,118.849197 1354.82792,118.866426 1354.87186,118.877244 C1354.86953,118.884055 1354.86813,118.889665 1354.86626,118.897678 C1354.88823,118.978213 1354.88823,118.978213 1354.93076,118.986627 C1355.05698,119.01227 1355.14673,118.687727 1355.15702,118.650865 C1355.12336,118.669296 1355.09578,118.672902 1355.07194,118.673704 C1354.99901,118.602384 1354.85457,118.505021 1354.85457,118.36679 C1354.85457,118.033032 1355.15795,118.033032 1355.5034,118.033032 C1355.37345,117.995369 1355.24396,117.921244 1355.24396,117.809858 C1355.24396,117.624348 1355.46087,117.512961 1355.46087,117.364313 C1355.46087,117.252926 1355.028,117.290189 1355.028,116.659133 C1355.028,116.510885 1355.33138,116.473222 1355.41692,116.473222 C1355.33138,116.028077 1354.63767,116.250449 1354.63767,115.656655 C1354.63767,115.582531 1354.72461,115.470744 1354.72461,115.397021 C1354.72461,115.302463 1354.60167,115.261995 1354.45956,115.217521 L1354.46704,115.191076 L1354.44227,115.212713 C1354.25061,115.153413 1354.03137,115.085299 1354.03137,114.876951 C1354.03137,114.802025 1354.11692,114.728302 1354.16132,114.653777 C1354.12206,114.620922 1354.09541,114.585663 1354.07625,114.550004 C1354.15478,114.508735 1354.2249,114.456247 1354.23472,114.419786 C1354.25528,114.347264 1354.26557,114.312005 1354.23331,114.266329 C1354.13982,114.247898 1354.06409,114.267932 1354.00192,114.305194 C1353.97154,114.206629 1353.91217,114.120084 1353.71303,114.0696 C1353.74154,113.979048 1353.74154,113.937379 1353.6186,113.912537 C1353.57653,113.903322 1353.48257,113.922954 1353.46247,113.996277 C1353.45873,114.007897 1353.45593,114.019917 1353.45312,114.031536 C1353.38067,114.026728 1353.30166,114.023122 1353.2077,114.023122 C1353.2077,113.839214 1353.25024,113.619647 1353.29418,113.435739 C1353.44564,113.56155 1353.57045,113.674138 1353.59429,113.678946 C1353.63637,113.68696 1353.67891,113.695774 1353.68872,113.659313 C1353.68872,113.659313 1353.24043,113.186923 1352.988,113.135637 C1352.988,113.135637 1352.94546,113.127624 1352.93564,113.163283 C1353.00389,113.206956 1353.07869,113.26265 1353.15208,113.319946 C1352.94546,113.332366 1352.85945,113.618445 1352.73136,113.799949 C1352.38591,113.614438 1351.99511,113.355204 1351.77961,113.132432 C1351.77961,113.095169 1351.82168,113.057907 1351.82168,113.020645 C1351.82168,112.946521 1351.77961,112.871996 1351.69173,112.871996 C1351.51877,112.909258 1351.2598,113.057907 1351.17191,113.132432 C1351.08543,113.020645 1350.43613,112.798273 1350.43613,112.500975 L1350.43613,111.869919 C1350.39219,112.018167 1350.34965,112.500975 1350.2627,112.500975 C1350.17669,112.500975 1350.08881,112.463713 1350.04627,112.463713 C1349.95932,112.463713 1349.91725,112.500975 1349.87331,112.537837 C1349.91725,112.611961 1349.95932,112.686886 1349.95932,112.798273 C1349.95932,112.907255 1349.91257,113.015035 1349.80225,113.079944 C1349.7887,113.069526 1349.77187,113.060712 1349.75037,113.056705 C1349.70736,113.04749 1349.69754,113.084351 1349.69754,113.084351 C1349.6952,113.093567 1349.70409,113.105186 1349.71811,113.116806 C1349.69848,113.122415 1349.67838,113.128425 1349.65641,113.132432 C1349.26701,113.132432 1349.09358,112.871996 1348.70279,112.871996 C1348.66025,112.871996 1348.57377,112.909258 1348.48729,112.909258 C1348.31386,112.909258 1348.3578,112.723748 1348.14043,112.723748 C1348.01094,112.723748 1347.92353,112.871996 1347.88099,112.871996 L1347.83705,112.871996 C1347.88099,113.020645 1347.88099,113.206956 1347.88099,113.429329 C1347.57808,113.726225 1346.58098,113.98586 1346.32201,114.320019 C1346.32201,114.468267 1346.53704,114.505529 1346.53704,114.616916 C1346.4515,114.951075 1346.32201,115.025599 1346.14858,115.025599 C1346.0607,115.025599 1345.97469,114.988337 1345.88867,114.988337 C1345.80126,114.988337 1345.75778,115.025599 1345.75778,115.136585 C1345.88867,115.285635 1346.01816,115.285635 1346.01816,115.507606 C1346.01816,116.1018 1345.36839,115.768042 1345.36839,116.028077 C1345.36839,116.173119 1345.6311,116.252853 1345.74656,116.493255 C1345.71898,116.455592 1345.67832,116.426343 1345.61568,116.413121 C1345.48993,116.387077 1345.41794,116.486844 1345.38755,116.596227 C1345.35764,116.704408 1345.45393,116.838633 1345.58062,116.863875 C1345.7073,116.889518 1345.75919,116.861872 1345.76947,116.825411 C1345.78256,116.777731 1345.79191,116.722038 1345.79331,116.665944 C1345.79518,116.688382 1345.80126,116.708816 1345.80126,116.733657 C1345.80126,117.364313 1345.2389,116.955629 1345.2389,117.290189 C1345.2389,117.519773 1345.67832,117.343878 1345.78022,117.608321 C1345.73815,117.636368 1345.7059,117.672829 1345.7059,117.70929 C1345.7059,117.739741 1345.73768,117.76939 1345.79658,117.779007 C1345.76994,118.019809 1345.54182,118.224552 1345.54182,118.329928 C1345.54182,118.404052 1345.8452,118.552701 1346.01816,118.552701 C1346.01816,118.738211 1345.75778,118.849197 1345.75778,118.998247 C1345.80126,119.072371 1345.8452,119.072371 1345.88867,119.072371 C1346.01816,119.072371 1346.0607,118.998247 1346.23413,118.998247 C1346.2776,118.998247 1346.75441,119.294743 1346.75441,119.666164 C1346.75441,119.703426 1346.6684,119.777551 1346.53704,119.814412 C1346.4515,119.814412 1346.32201,119.925799 1346.32201,120.000323 C1346.36501,120.074047 1346.40755,120.111309 1346.4515,120.111309 C1346.62446,120.111309 1346.79835,119.963462 1346.9283,119.963462 C1347.10127,119.963462 1347.27469,120.186234 1347.27469,120.259958 L1347.27469,120.259958 Z" id="Path-Copy" fill="#0055B8" transform="translate(1350.371153, 117.215895) rotate(123.000000) translate(-1350.371153, -117.215895) "></path>
                    <path d="M420.674056,26.4663895 C420.674056,26.5501251 420.62547,26.5913212 420.62547,26.6325173 C420.62547,26.757449 420.769661,26.8398412 420.868399,26.8398412 C421.06013,26.8398412 421.157824,26.7990929 421.254473,26.7990929 C421.49688,26.8823807 421.690701,26.9643251 421.835413,27.1304529 C421.835413,27.5459963 421.448294,27.8361602 421.448294,28.085128 C421.448294,28.085128 421.49688,28.1263241 421.545466,28.1263241 C421.641592,27.7528724 421.931017,27.3798685 422.367767,27.3798685 C423.045878,27.3798685 423.480538,28.0434841 424.062,28.2096119 L424.062,28.7800885 C423.894301,28.6296332 423.672269,28.4554452 423.516586,28.4236526 C423.516586,28.4236526 423.468522,28.4142491 423.457551,28.4545497 C423.662343,28.5848548 423.910496,28.8029255 424.062,28.9296483 L424.062,28.9972637 C424.068269,28.9811434 424.072971,28.961441 424.078718,28.9444252 C424.137752,28.9941292 424.181114,29.027713 424.194174,29.0299519 C424.240671,29.0402509 424.288734,29.0501022 424.299705,29.008906 C424.299705,29.008906 424.223953,28.9287527 424.115288,28.8288969 C424.175367,28.6108262 424.207235,28.3640973 424.207235,28.1675203 C424.207235,28.1263241 424.158127,28.0434841 424.158127,27.9606441 C424.158127,27.7528724 424.449642,27.7116763 424.691003,27.7116763 C425.369637,27.7116763 424.884824,28.2512558 425.321051,28.2512558 C425.444866,28.2512558 425.394191,27.8281001 425.677347,27.6265974 C425.667943,27.6664502 425.760413,27.6852571 425.806909,27.6955561 C425.865421,27.6642112 425.865421,27.6642112 425.875869,27.6243585 C425.884228,27.5979392 425.870123,27.5679377 425.847136,27.5477875 C425.849748,27.5468919 425.851315,27.5459963 425.853405,27.5459963 L426.143352,28.0018402 C426.143352,28.0434841 426.192461,28.0434841 426.192461,28.0434841 C426.337696,28.0434841 426.482408,27.8778041 426.482408,27.7940686 C426.482408,27.6695846 426.337696,27.5871924 426.337696,27.5459963 C426.337696,27.3382246 426.580102,27.2961329 426.724814,27.2549368 C426.820941,27.4210646 426.966176,27.5871924 427.209105,27.5871924 C427.257168,27.5871924 427.304709,27.5871924 427.304709,27.5039046 C427.304709,27.4622607 427.257168,27.3382246 427.209105,27.2549368 C427.209105,26.9643251 427.353295,26.7158051 427.692351,26.7158051 C427.837586,26.7158051 428.320831,27.1720968 428.320831,27.1720968 L428.225227,26.5913212 C428.225227,26.5899779 428.224182,26.5886345 428.22366,26.587739 C428.301501,26.5640064 428.378821,26.4919132 428.396061,26.4310146 C428.418525,26.349518 428.30986,26.1999582 428.168805,26.1704044 C428.167238,26.1704044 428.164103,26.1721956 428.161491,26.1721956 C428.257618,25.9594983 428.418525,25.6926191 428.515174,25.5533583 C428.951924,25.5533583 429.241349,25.8444178 429.43517,25.8444178 C429.484278,25.8444178 429.530774,25.8027739 429.530774,25.7615778 C429.530774,25.4714139 428.806167,25.4714139 428.806167,25.1391583 C428.806167,25.0142266 428.902816,24.8897427 429.047528,24.8897427 C429.081486,24.8897427 429.115444,24.9089974 429.164552,24.9210876 C429.16194,24.9286999 429.160373,24.9349689 429.158283,24.9439246 C429.182837,25.0339291 429.182837,25.0339291 429.230378,25.0433326 C429.371433,25.0719907 429.47174,24.7092858 429.483233,24.6680897 C429.445618,24.6886878 429.414795,24.6927178 429.388151,24.6936134 C429.306652,24.6139079 429.145222,24.5050964 429.145222,24.350611 C429.145222,23.9776071 429.484278,23.9776071 429.870352,23.9776071 C429.725117,23.9355154 429.580405,23.8526754 429.580405,23.7281915 C429.580405,23.5208676 429.822811,23.3963837 429.822811,23.2302559 C429.822811,23.105772 429.339043,23.1474159 429.339043,22.4421564 C429.339043,22.2764764 429.678099,22.2343847 429.773703,22.2343847 C429.678099,21.7368969 428.902816,21.9854169 428.902816,21.3218013 C428.902816,21.2389613 428.999987,21.1140296 428.999987,21.0316374 C428.999987,20.9259604 428.862589,20.8807342 428.703771,20.8310302 L428.71213,20.8014765 L428.684441,20.8256568 C428.470246,20.7593848 428.225227,20.6832616 428.225227,20.450414 C428.225227,20.3666784 428.320831,20.2842862 428.370462,20.2009984 C428.326578,20.1642801 428.2968,20.1248751 428.27538,20.0850224 C428.363148,20.0389006 428.441512,19.980241 428.452483,19.9394926 C428.47547,19.8584438 428.486963,19.8190388 428.450916,19.7679914 C428.34643,19.7473934 428.261797,19.7697826 428.192314,19.8114265 C428.158356,19.7012716 428.092008,19.6045503 427.869454,19.5481296 C427.901322,19.4469304 427.901322,19.4003609 427.763923,19.3725983 C427.716905,19.3622993 427.611897,19.3842407 427.589432,19.4661851 C427.585253,19.4791709 427.582118,19.4926044 427.578984,19.5055901 C427.498008,19.5002167 427.409717,19.4961867 427.304709,19.4961867 C427.304709,19.2906539 427.35225,19.0452684 427.401358,18.8397356 C427.570625,18.9803397 427.710113,19.106167 427.736757,19.1115404 C427.783776,19.120496 427.831316,19.1303473 427.842287,19.089599 C427.842287,19.089599 427.341279,18.5616618 427.059168,18.5043455 C427.059168,18.5043455 427.011627,18.4953898 427.000656,18.5352426 C427.076931,18.584051 427.160519,18.646293 427.24254,18.7103261 C427.011627,18.7242074 426.915501,19.043925 426.772355,19.2467711 C426.386281,19.0394472 425.949532,18.749731 425.708692,18.5007632 C425.708692,18.4591193 425.755711,18.4174754 425.755711,18.3758316 C425.755711,18.2929915 425.708692,18.2097038 425.610476,18.2097038 C425.417178,18.2513477 425.127753,18.4174754 425.029536,18.5007632 C424.932887,18.3758316 424.207235,18.1273115 424.207235,17.7950559 L424.207235,17.0897964 C424.158127,17.2554764 424.110586,17.7950559 424.013414,17.7950559 C423.917288,17.7950559 423.819071,17.753412 423.77153,17.753412 C423.674359,17.753412 423.62734,17.7950559 423.578232,17.8362521 C423.62734,17.9190921 423.674359,18.0028276 423.674359,18.1273115 C423.674359,18.2491087 423.622116,18.3695626 423.498823,18.4421036 C423.483673,18.4304612 423.464865,18.4206099 423.440834,18.4161321 C423.39277,18.4058331 423.381799,18.4470292 423.381799,18.4470292 C423.379187,18.4573282 423.389113,18.4703139 423.404786,18.4832997 C423.382844,18.4895686 423.36038,18.4962854 423.335826,18.5007632 C422.900643,18.5007632 422.706823,18.2097038 422.270073,18.2097038 C422.222532,18.2097038 422.125883,18.2513477 422.029234,18.2513477 C421.835413,18.2513477 421.884521,18.0440237 421.641592,18.0440237 C421.49688,18.0440237 421.399186,18.2097038 421.351645,18.2097038 L421.302537,18.2097038 C421.351645,18.3758316 421.351645,18.584051 421.351645,18.832571 C421.013112,19.1643789 419.898773,19.4545428 419.609348,19.8279945 C419.609348,19.9936745 419.849665,20.0353184 419.849665,20.1598023 C419.754061,20.533254 419.609348,20.6165418 419.415528,20.6165418 C419.317311,20.6165418 419.221185,20.5748979 419.125058,20.5748979 C419.027364,20.5748979 418.978778,20.6165418 418.978778,20.7405779 C419.125058,20.9071535 419.26977,20.9071535 419.26977,21.1552257 C419.26977,21.8192891 418.543596,21.4462852 418.543596,21.7368969 C418.543596,21.8989946 418.8372,21.9881036 418.96624,22.2567739 C418.935417,22.2146822 418.889965,22.181994 418.81996,22.1672171 C418.679427,22.1381112 418.598973,22.2496093 418.565015,22.3718543 C418.53158,22.492756 418.6392,22.6427635 418.780778,22.6709739 C418.922356,22.6996321 418.980345,22.668735 418.991839,22.6279867 C419.006467,22.5747004 419.016915,22.5124584 419.018483,22.4497687 C419.020572,22.4748446 419.027364,22.4976816 419.027364,22.5254442 C419.027364,23.2302559 418.398883,22.7735164 418.398883,23.1474159 C418.398883,23.403996 418.889965,23.2074189 419.003855,23.5029562 C418.956836,23.5343011 418.920789,23.5750494 418.920789,23.6157978 C418.920789,23.6498293 418.956314,23.6829653 419.02214,23.6937121 C418.992361,23.9628302 418.737417,24.1916478 418.737417,24.3094149 C418.737417,24.3922549 419.076472,24.5583827 419.26977,24.5583827 C419.26977,24.7657066 418.978778,24.8897427 418.978778,25.0563183 C419.027364,25.1391583 419.076472,25.1391583 419.125058,25.1391583 C419.26977,25.1391583 419.317311,25.0563183 419.511132,25.0563183 C419.559718,25.0563183 420.092594,25.3876783 420.092594,25.8027739 C420.092594,25.8444178 419.996467,25.9272578 419.849665,25.9684539 C419.754061,25.9684539 419.609348,26.0929378 419.609348,26.1762256 C419.657412,26.2586178 419.704953,26.3002617 419.754061,26.3002617 C419.947359,26.3002617 420.141702,26.1350295 420.286937,26.1350295 C420.480236,26.1350295 420.674056,26.3839973 420.674056,26.4663895 L420.674056,26.4663895 Z" id="Path-Copy" fill="#2793E1" transform="translate(424.134618, 23.064387) rotate(123.000000) translate(-424.134618, -23.064387) "></path>
                    <path d="M471.861739,191.003879 C471.861739,191.31101 472.216215,191.513563 472.458954,191.513563 C472.930305,191.513563 473.170476,191.413388 473.408077,191.413388 C474.004009,191.618142 474.480497,191.819594 474.836258,192.228002 C474.836258,193.249572 473.884566,193.96291 473.884566,194.574972 C473.884566,194.574972 474.004009,194.676248 474.123452,194.676248 C474.359769,193.758156 475.071291,192.841164 476.144995,192.841164 C477.812061,192.841164 478.880627,194.472595 480.310092,194.881003 L480.310092,196.283461 C479.897821,195.913582 479.351978,195.485359 478.969247,195.4072 C478.969247,195.4072 478.851088,195.384082 478.824117,195.483157 C479.327576,195.803499 479.937635,196.339603 480.310092,196.651138 L480.310092,196.817363 C480.325504,196.777733 480.337063,196.729297 480.351191,196.687465 C480.49632,196.809657 480.60292,196.89222 480.635029,196.897724 C480.749334,196.923043 480.867493,196.947261 480.894464,196.845985 C480.894464,196.845985 480.708236,196.648936 480.441094,196.403451 C480.588793,195.867347 480.667137,195.260789 480.667137,194.777525 C480.667137,194.676248 480.54641,194.472595 480.54641,194.268941 C480.54641,193.758156 481.263068,193.65688 481.856431,193.65688 C483.524782,193.65688 482.332919,194.98338 483.405339,194.98338 C483.709726,194.98338 483.585145,193.943095 484.281255,193.447722 C484.258137,193.545696 484.485464,193.591931 484.59977,193.61725 C484.743615,193.540192 484.743615,193.540192 484.769302,193.442218 C484.789851,193.377269 484.755174,193.303513 484.698664,193.253976 C484.705085,193.251774 485.426881,194.370218 485.426881,194.370218 C485.426881,194.472595 485.547609,194.472595 485.547609,194.472595 C485.904654,194.472595 486.260414,194.065288 486.260414,193.859432 C486.260414,193.553402 485.904654,193.350849 485.904654,193.249572 C485.904654,192.738787 486.500585,192.635309 486.856346,192.534033 C487.092663,192.942441 487.449708,193.350849 488.046924,193.350849 C488.165083,193.350849 488.281957,193.350849 488.281957,193.146094 C488.281957,193.043717 488.165083,192.738787 488.046924,192.534033 C488.046924,191.819594 488.4014,191.208633 489.234934,191.208633 C489.591979,191.208633 490.779988,192.330379 490.779988,192.330379 L490.544955,190.902602 C490.732468,190.835452 490.922549,190.658218 490.964932,190.508505 C491.020159,190.308154 490.753017,189.940477 490.406247,189.867822 C490.624584,189.349331 491.020159,188.693236 491.257761,188.350878 C492.331464,188.350878 493.042986,189.066417 493.519474,189.066417 C493.640201,189.066417 493.754507,188.96404 493.754507,188.862764 C493.754507,188.149426 491.973135,188.149426 491.973135,187.33261 C491.973135,187.025478 492.210737,186.719447 492.566498,186.719447 C492.649979,186.719447 492.733461,186.766783 492.854189,186.796505 C492.89914,187.073915 492.89914,187.073915 493.016015,187.097032 C493.362785,187.167485 493.609377,186.275813 493.637633,186.174536 C493.545161,186.225175 493.469385,186.235082 493.403884,186.237284 C493.203528,186.041336 492.806668,185.773834 492.806668,185.394048 C492.806668,184.477056 493.640201,184.477056 494.589325,184.477056 C494.23228,184.373578 493.876519,184.169924 493.876519,183.863894 C493.876519,183.354209 494.47245,183.048178 494.47245,182.63977 C494.47245,182.33374 493.283156,182.436117 493.283156,180.702309 C493.283156,180.295002 494.11669,180.191524 494.351723,180.191524 C494.11669,178.968501 492.210737,179.579462 492.210737,177.948032 C492.210737,177.744378 492.449623,177.437247 492.449623,177.234694 C492.449623,176.974898 492.111843,176.863714 491.721405,176.741522 C491.147308,176.565389 490.544955,176.378248 490.544955,175.805816 C490.544955,175.599961 490.779988,175.397408 490.902,175.192654 C490.794116,175.102386 490.720909,175.005513 490.668251,174.907539 C490.884019,174.794153 491.076669,174.649944 491.103641,174.549769 C491.160151,174.350519 491.188407,174.253645 491.099788,174.128151 C490.842921,174.077513 490.634858,174.132554 490.464042,174.234931 C490.38056,173.964127 490.21745,173.726348 489.670323,173.587643 C489.748667,173.338856 489.748667,173.224369 489.410887,173.156118 C489.295297,173.130799 489.037146,173.184739 488.98192,173.386191 C488.971645,173.418115 488.963939,173.45114 488.956233,173.483064 C488.757161,173.469854 488.540109,173.459947 488.281957,173.459947 C488.281957,172.954666 488.398832,172.351411 488.519559,171.84613 C488.935684,172.19179 489.278601,172.501124 489.344102,172.514334 C489.459692,172.53635 489.576567,172.560569 489.603538,172.460393 C489.603538,172.460393 488.371861,171.162514 487.67832,171.021608 C487.67832,171.021608 487.561445,170.999591 487.534474,171.097565 C487.721987,171.217556 487.927481,171.370571 488.129121,171.52799 C487.561445,171.562115 487.325128,172.348108 486.97322,172.846784 C486.024097,172.3371 484.950393,171.624863 484.358315,171.012801 C484.358315,170.910424 484.473905,170.808047 484.473905,170.70567 C484.473905,170.502016 484.358315,170.297262 484.11686,170.297262 C483.641656,170.399639 482.930135,170.808047 482.68868,171.012801 C482.451078,170.70567 480.667137,170.094709 480.667137,169.277893 L480.667137,167.544085 C480.54641,167.951392 480.429535,169.277893 480.190649,169.277893 C479.954331,169.277893 479.712876,169.175515 479.596002,169.175515 C479.357116,169.175515 479.241526,169.277893 479.120798,169.379169 C479.241526,169.582823 479.357116,169.788678 479.357116,170.094709 C479.357116,170.394135 479.228682,170.690258 478.925579,170.868592 C478.888333,170.839971 478.842097,170.815753 478.783018,170.804744 C478.664859,170.779425 478.637888,170.880702 478.637888,170.880702 C478.631467,170.906021 478.655869,170.937945 478.694399,170.969869 C478.640457,170.98528 478.585231,171.001793 478.524867,171.012801 C477.455016,171.012801 476.978528,170.297262 475.904824,170.297262 C475.78795,170.297262 475.550348,170.399639 475.312746,170.399639 C474.836258,170.399639 474.956985,169.889954 474.359769,169.889954 C474.004009,169.889954 473.763838,170.297262 473.646964,170.297262 L473.526236,170.297262 C473.646964,170.70567 473.646964,171.217556 473.646964,171.828516 C472.814715,172.644232 470.075229,173.35757 469.363708,174.275662 C469.363708,174.682969 469.954502,174.785346 469.954502,175.091377 C469.719468,176.00947 469.363708,176.214224 468.887219,176.214224 C468.645765,176.214224 468.409447,176.111847 468.173129,176.111847 C467.932959,176.111847 467.813516,176.214224 467.813516,176.519154 C468.173129,176.928663 468.52889,176.928663 468.52889,177.538523 C468.52889,179.171054 466.743665,178.254063 466.743665,178.968501 C466.743665,179.367002 467.465461,179.586067 467.782692,180.246565 C467.706916,180.143087 467.595179,180.062727 467.423078,180.026399 C467.077592,179.954845 466.879804,180.228952 466.796323,180.529479 C466.714125,180.826703 466.978698,181.195481 467.326753,181.264833 C467.674808,181.335287 467.817369,181.259329 467.845624,181.159154 C467.881585,181.028155 467.907272,180.875139 467.911125,180.721023 C467.916262,180.78267 467.932959,180.838812 467.932959,180.907064 C467.932959,182.63977 466.387904,181.516923 466.387904,182.436117 C466.387904,183.066892 467.595179,182.583628 467.875164,183.310176 C467.759574,183.387234 467.670955,183.48741 467.670955,183.587585 C467.670955,183.671248 467.758289,183.75271 467.920115,183.77913 C467.846908,184.440729 467.220153,185.003253 467.220153,185.292771 C467.220153,185.496425 468.053686,185.904833 468.52889,185.904833 C468.52889,186.414517 467.813516,186.719447 467.813516,187.128956 C467.932959,187.33261 468.053686,187.33261 468.173129,187.33261 C468.52889,187.33261 468.645765,187.128956 469.122253,187.128956 C469.241696,187.128956 470.551717,187.943571 470.551717,188.96404 C470.551717,189.066417 470.3154,189.270071 469.954502,189.371347 C469.719468,189.371347 469.363708,189.677378 469.363708,189.882133 C469.481866,190.084685 469.598741,190.187063 469.719468,190.187063 C470.194672,190.187063 470.672445,189.780856 471.02949,189.780856 C471.504693,189.780856 471.981182,190.392918 471.981182,190.595471 C471.981182,190.801326 471.861739,190.902602 471.861739,191.003879 Z" id="Path-Copy" fill="#2793E1" transform="translate(480.488614, 182.231998) rotate(63.000000) translate(-480.488614, -182.231998) "></path>
                    <path d="M563.84303,97.6704747 C563.84303,97.87633 563.723587,97.9776064 563.723587,98.0788828 C563.723587,98.3860144 564.078064,98.5885672 564.320803,98.5885672 C564.792154,98.5885672 565.032324,98.4883916 565.269926,98.4883916 C565.865857,98.693146 566.342346,98.894598 566.698106,99.303006 C566.698106,100.324576 565.746414,101.037914 565.746414,101.649976 C565.746414,101.649976 565.865857,101.751252 565.9853,101.751252 C566.221618,100.83316 566.933139,99.9161685 568.006843,99.9161685 C569.67391,99.9161685 570.742476,101.547599 572.171941,101.956007 L572.171941,103.358465 C571.759669,102.988586 571.213827,102.560363 570.831095,102.482204 C570.831095,102.482204 570.712936,102.459086 570.685965,102.558161 C571.189425,102.878503 571.799484,103.414607 572.171941,103.726142 L572.171941,103.892367 C572.187353,103.852737 572.198912,103.804301 572.213039,103.762469 C572.358169,103.884662 572.464769,103.967224 572.496877,103.972728 C572.611183,103.998047 572.729342,104.022265 572.756313,103.920989 C572.756313,103.920989 572.570084,103.72394 572.302943,103.478455 C572.450641,102.942351 572.528986,102.335793 572.528986,101.852529 C572.528986,101.751252 572.408258,101.547599 572.408258,101.343945 C572.408258,100.83316 573.124917,100.731884 573.71828,100.731884 C575.38663,100.731884 574.194768,102.058384 575.267187,102.058384 C575.571574,102.058384 575.446994,101.0181 576.143103,100.522726 C576.119985,100.6207 576.347313,100.666935 576.461618,100.692254 C576.605464,100.615196 576.605464,100.615196 576.631151,100.517222 C576.6517,100.452273 576.617023,100.378517 576.560512,100.32898 C576.566934,100.326778 576.570787,100.324576 576.575924,100.324576 L577.28873,101.445222 C577.28873,101.547599 577.409457,101.547599 577.409457,101.547599 C577.766502,101.547599 578.122263,101.140292 578.122263,100.934436 C578.122263,100.628406 577.766502,100.425853 577.766502,100.324576 C577.766502,99.8137912 578.362434,99.7103132 578.718194,99.6090368 C578.954512,100.017445 579.311557,100.425853 579.908773,100.425853 C580.026931,100.425853 580.143806,100.425853 580.143806,100.221098 C580.143806,100.118721 580.026931,99.8137912 579.908773,99.6090368 C579.908773,98.894598 580.263249,98.2836372 581.096782,98.2836372 C581.453827,98.2836372 582.641837,99.4053832 582.641837,99.4053832 L582.406804,97.9776064 C582.406804,97.9743039 582.404235,97.9710014 582.402951,97.9687997 C582.594316,97.9104557 582.784398,97.7332221 582.826781,97.5835091 C582.882007,97.383158 582.614866,97.0154807 582.268095,96.9428259 C582.264242,96.9428259 582.256536,96.9472293 582.250115,96.9472293 C582.486432,96.4243349 582.882007,95.76824 583.119609,95.4258818 C584.193313,95.4258818 584.904834,96.1414215 585.381323,96.1414215 C585.50205,96.1414215 585.616356,96.0390443 585.616356,95.9377679 C585.616356,95.2244299 583.834984,95.2244299 583.834984,94.4076139 C583.834984,94.1004822 584.072586,93.7944514 584.428346,93.7944514 C584.511828,93.7944514 584.59531,93.8417871 584.716037,93.8715095 C584.709616,93.8902236 584.705763,93.9056353 584.700625,93.9276519 C584.760989,94.1489187 584.760989,94.1489187 584.877863,94.1720362 C585.224634,94.2424893 585.471226,93.3508168 585.499481,93.2495404 C585.407009,93.3001786 585.331234,93.3100861 585.265733,93.3122877 C585.065376,93.11634 584.668517,92.8488382 584.668517,92.4690518 C584.668517,91.5520602 585.50205,91.5520602 586.451173,91.5520602 C586.094128,91.4485821 585.738368,91.2449285 585.738368,90.9388977 C585.738368,90.4292133 586.334299,90.1231825 586.334299,89.7147745 C586.334299,89.4087437 585.145005,89.5111209 585.145005,87.7773132 C585.145005,87.370006 585.978538,87.266528 586.213571,87.266528 C585.978538,86.0435056 584.072586,86.6544664 584.072586,85.0230359 C584.072586,84.8193823 584.311472,84.5122507 584.311472,84.3096979 C584.311472,84.049902 583.973692,83.9387181 583.583254,83.816526 L583.603803,83.7438712 L583.535734,83.803316 C583.009156,83.6403931 582.406804,83.453252 582.406804,82.8808202 C582.406804,82.674965 582.641837,82.4724122 582.763849,82.2676578 C582.655964,82.1773897 582.582757,82.0805166 582.5301,81.9825427 C582.745868,81.8691572 582.938518,81.7249485 582.965489,81.6247729 C583.022,81.4255226 583.050255,81.3286496 582.961636,81.2031549 C582.704769,81.1525167 582.496707,81.2075582 582.32589,81.3099355 C582.242409,81.0391312 582.079298,80.8013519 581.532172,80.6626473 C581.610516,80.4138596 581.610516,80.2993733 581.272736,80.2311218 C581.157146,80.2058027 580.898995,80.2597434 580.843768,80.4611953 C580.833494,80.4931194 580.825788,80.5261443 580.818082,80.5580684 C580.61901,80.5448584 580.401957,80.534951 580.143806,80.534951 C580.143806,80.0296699 580.26068,79.4264149 580.381408,78.9211338 C580.797532,79.2667945 581.14045,79.5761278 581.205951,79.5893378 C581.321541,79.6113544 581.438415,79.6355726 581.465386,79.5353971 C581.465386,79.5353971 580.233709,78.2375182 579.540169,78.0966119 C579.540169,78.0966119 579.423294,78.0745953 579.396323,78.1725692 C579.583836,78.2925597 579.789329,78.4455751 579.99097,78.6029939 C579.423294,78.6371196 579.186977,79.4231124 578.835069,79.9217885 C577.885946,79.4121041 576.812242,78.6998669 576.220163,78.0878053 C576.220163,77.9854281 576.335754,77.8830509 576.335754,77.7806737 C576.335754,77.5770201 576.220163,77.3722656 575.978709,77.3722656 C575.503505,77.4746428 574.791983,77.8830509 574.550528,78.0878053 C574.312926,77.7806737 572.528986,77.1697129 572.528986,76.3528968 L572.528986,74.6190892 C572.408258,75.0263964 572.291384,76.3528968 572.052497,76.3528968 C571.81618,76.3528968 571.574725,76.2505196 571.457851,76.2505196 C571.218964,76.2505196 571.103374,76.3528968 570.982647,76.4541732 C571.103374,76.6578268 571.218964,76.8636821 571.218964,77.1697129 C571.218964,77.4691387 571.090531,77.765262 570.787428,77.9435965 C570.750182,77.9149749 570.703946,77.8907567 570.644867,77.8797484 C570.526708,77.8544293 570.499737,77.9557057 570.499737,77.9557057 C570.493315,77.9810248 570.517718,78.0129488 570.556248,78.0448729 C570.502306,78.0602845 570.447079,78.076797 570.386715,78.0878053 C569.316865,78.0878053 568.840376,77.3722656 567.766673,77.3722656 C567.649798,77.3722656 567.412196,77.4746428 567.174594,77.4746428 C566.698106,77.4746428 566.818834,76.9649584 566.221618,76.9649584 C565.865857,76.9649584 565.625687,77.3722656 565.508812,77.3722656 L565.388085,77.3722656 C565.508812,77.7806737 565.508812,78.2925597 565.508812,78.9035205 C564.676563,79.7192357 561.937078,80.4325737 561.225556,81.3506662 C561.225556,81.7579734 561.81635,81.8603506 561.81635,82.1663814 C561.581317,83.0844738 561.225556,83.2892283 560.749068,83.2892283 C560.507613,83.2892283 560.271296,83.186851 560.034978,83.186851 C559.794807,83.186851 559.675364,83.2892283 559.675364,83.5941582 C560.034978,84.0036671 560.390739,84.0036671 560.390739,84.6135271 C560.390739,86.2460583 558.605513,85.3290667 558.605513,86.0435056 C558.605513,86.4420061 559.32731,86.6610713 559.64454,87.3215695 C559.568764,87.2180914 559.457027,87.1377308 559.284927,87.1014034 C558.939441,87.0298495 558.741653,87.3039562 558.658171,87.6044829 C558.575974,87.901707 558.840547,88.2704852 559.188601,88.3398375 C559.536656,88.4102906 559.679217,88.3343333 559.707473,88.2341578 C559.743434,88.103159 559.769121,87.9501436 559.772974,87.7960273 C559.778111,87.8576738 559.794807,87.9138162 559.794807,87.9820676 C559.794807,89.7147745 558.249753,88.5919276 558.249753,89.5111209 C558.249753,90.1418966 559.457027,89.6586321 559.737012,90.3851801 C559.621422,90.4622382 559.532803,90.5624138 559.532803,90.6625893 C559.532803,90.7462524 559.620138,90.8277139 559.781964,90.8541338 C559.708757,91.5157328 559.082002,92.078257 559.082002,92.3677754 C559.082002,92.571429 559.915535,92.979837 560.390739,92.979837 C560.390739,93.4895214 559.675364,93.7944514 559.675364,94.2039603 C559.794807,94.4076139 559.915535,94.4076139 560.034978,94.4076139 C560.390739,94.4076139 560.507613,94.2039603 560.984101,94.2039603 C561.103544,94.2039603 562.413566,95.0185746 562.413566,96.0390443 C562.413566,96.1414215 562.177248,96.3450751 561.81635,96.4463515 C561.581317,96.4463515 561.225556,96.7523823 561.225556,96.9571367 C561.343715,97.1596895 561.460589,97.2620667 561.581317,97.2620667 C562.056521,97.2620667 562.534293,96.8558603 562.891338,96.8558603 C563.366542,96.8558603 563.84303,97.467922 563.84303,97.6704747 L563.84303,97.6704747 Z" id="Path-Copy" fill="#2793E1" transform="translate(572.350463, 89.307002) rotate(48.000000) translate(-572.350463, -89.307002) "></path>
                    <path d="M384.778635,70.7992081 C382.395795,71.5958223 379.216342,72.3924365 376.831751,72.3924365 C375.245526,72.3924365 374.44541,71.5958223 372.864437,71.5958223 C369.677981,73.9804126 364.914052,75.5683886 359.350008,76.3632521 C356.170555,67.6267575 349.020285,58.8867614 349.020285,54.914195 C349.020285,46.9690623 371.271209,31.0770461 378.421478,25.5165037 C367.295141,31.0770461 354.582579,38.2255646 345.051221,45.3810863 C341.075153,44.584472 332.338658,39.8135407 332.338658,37.432452 C332.338658,31.8701588 339.488927,28.6942066 339.488927,23.9232752 C339.488927,22.3335484 337.899201,19.9507089 336.305972,19.9507089 C333.930136,19.9507089 329.957569,29.4855685 326.774614,31.0770461 C322.007184,31.0770461 310.886099,14.3884157 309.294622,14.3884157 C309.294622,14.3884157 310.886099,10.4193509 310.886099,8.03476063 C310.886099,4.85705771 306.11867,5.65017034 306.11867,-5.4726653 C303.730578,0.882740551 300.559878,13.5935522 293.407858,13.5935522 C287.840312,13.5935522 279.105569,11.2124636 279.105569,7.2381464 C279.105569,5.65017034 279.903934,4.06044347 279.903934,2.46896581 C279.903934,-3.0915766 277.515842,-6.27278113 276.717477,-8.65211902 C278.308954,-22.9526576 276.717477,-37.2584485 279.105569,-49.172646 C275.129501,-49.172646 275.922613,-17.3956168 275.129501,-8.65211902 C272.746661,-6.27278113 271.953549,-3.0915766 271.953549,0.0861263191 C271.953549,1.67760398 272.746661,3.26558004 272.746661,5.65017034 C272.746661,12.0055762 262.42044,12.0055762 258.446123,12.0055762 C242.552356,12.0055762 249.702625,-3.88468923 239.378154,-3.88468923 C238.58154,-3.88468923 238.58154,-3.0915766 238.58154,-2.29671317 C238.58154,2.46896581 240.169516,7.2381464 240.960878,12.8004396 C236.995315,17.5661186 223.482636,21.5421866 221.094545,21.5421866 C218.718708,21.5421866 212.359801,14.3884157 210.775326,14.3884157 C209.980463,14.3884157 209.182098,16.773006 209.182098,17.5661186 C209.182098,20.7473231 211.566688,23.1284118 211.566688,26.3078655 C211.566688,28.6942066 209.182098,32.6597698 206.799258,32.6597698 C203.619805,32.6597698 201.233464,26.3078655 198.062764,26.3078655 C196.467785,26.3078655 194.879809,27.8958416 194.879809,28.6942066 L198.855877,39.0239296 C195.674672,43.7896086 190.908993,46.1671957 185.3467,50.9381271 C182.168997,49.350151 177.405069,44.584472 173.434253,44.584472 C171.835772,44.584472 171.04266,45.3810863 170.249547,46.1671957 C171.835772,55.7090585 181.368881,55.7090585 181.368881,57.2952837 C181.368881,62.0609627 177.405069,67.6267575 174.216861,70.0025938 C168.65982,66.8283925 143.232944,51.7329905 141.646719,51.7329905 C140.846603,51.7329905 139.26563,52.5261032 139.26563,53.3244682 C139.26563,52.5261032 166.278731,76.3632521 166.278731,78.7495932 C166.278731,79.5374534 163.89064,80.3323168 162.304414,81.1306819 C159.126711,81.1306819 157.540486,78.7495932 154.354029,78.7495932 C150.390217,78.7495932 150.390217,81.1306819 150.390217,83.5135214 C150.390217,85.8998624 159.923326,85.8998624 164.685503,89.8689272 C164.685503,97.0226981 163.89064,107.352421 158.333599,112.123352 C147.996873,112.123352 141.646719,120.861598 134.494699,120.861598 C130.520382,120.861598 126.553068,119.264868 124.164976,119.264868 C123.370113,119.264868 122.577,120.068485 122.577,120.068485 C122.577,122.451325 129.725518,123.239185 132.11361,123.239185 C132.908474,123.239185 134.494699,122.451325 135.289562,122.451325 C136.879289,124.03755 140.056992,125.627277 143.232944,125.627277 C145.621036,125.627277 147.996873,124.830663 150.390217,124.830663 C159.126711,124.830663 160.709435,132.774044 160.709435,141.517542 C155.947258,141.517542 144.82092,141.517542 144.82092,145.491859 C144.82092,149.462675 163.89064,148.667811 163.89064,154.233606 C163.89064,162.96835 151.179828,158.202671 147.996873,165.354691 C147.996873,166.933913 149.590101,168.528892 149.590101,170.113367 C149.590101,169.812229 162.712351,164.381246 163.930908,163.829744 C166.219204,165.825656 167.838695,167.832074 168.994223,169.833239 C168.574031,170.314709 168.162593,170.990518 167.926235,171.97972 C167.672369,173.065217 169.059003,174.542892 170.153253,174.805512 C171.91806,181.159167 168.108318,187.31148 161.864963,192.451831 C161.982267,191.459127 161.696887,190.769311 160.089652,190.387637 C158.995401,190.128518 158.18303,191.089708 157.92041,192.197965 C157.797854,192.705697 157.96418,194.311181 158.914865,194.694606 C156.978479,196.044473 154.900279,197.312053 152.701274,198.471083 C155.201417,199.392004 157.465202,198.821243 160.324259,199.054099 C160.061639,199.346483 158.881599,200.038049 158.146263,202.743036 C158.021956,202.650244 157.755835,202.583713 157.223591,202.455905 C156.682594,202.328096 156.553035,202.863841 156.425226,203.418845 C156.164357,204.506092 155.898235,205.610847 156.992486,205.873467 C157.260358,205.936496 157.522978,205.439269 157.738327,204.854501 C157.664793,205.470783 157.607017,206.14134 157.577253,206.897686 C163.797847,208.2423 170.27756,207.633022 176.212774,206.09757 C176.288058,206.677085 176.587445,207.050005 176.969119,207.141047 C178.068622,207.398415 178.746182,206.974721 178.879243,206.419717 C178.991294,205.961007 179.035064,205.605595 179.071831,205.271192 C181.897623,204.376533 184.583351,203.317299 186.985449,202.168773 C187.193794,204.388788 187.514191,206.825903 187.68752,209.178979 C186.421691,208.792052 185.483262,210.311747 185.483262,210.311747 C185.222393,211.398994 185.514777,212.635059 186.062777,212.766369 C186.873398,212.568528 187.423149,212.300656 187.794319,211.840195 C189.172199,211.383236 193.013455,210.113906 196.066851,208.455898 C196.310213,208.699259 196.592091,208.886595 196.816194,208.944371 C197.367696,209.070429 197.621562,207.981431 197.754623,207.429929 C197.996233,207.240842 198.248349,207.079769 198.463697,206.901187 C200.034165,209.48712 205.379359,214.690499 206.653942,217.472521 C207.475067,215.378563 211.00293,211.141626 212.207481,208.137252 C212.221488,211.712387 212.900798,215.122946 214.058077,218.353173 C212.753731,217.677364 211.30757,217.040073 209.714341,216.366015 C209.343172,217.934732 212.023647,219.032484 214.58857,219.780076 C216.920636,225.407149 220.831925,230.41969 225.835712,234.59535 C235.213,229.887447 240.782296,222.656641 248.400029,225.867609 C248.062125,226.303558 247.776744,226.837553 247.706712,227.128185 C247.319785,228.768686 248.16192,230.116802 249.809424,230.508981 C250.898422,230.771601 252.390104,229.386718 253.741722,228.556839 C256.255871,225.004464 260.43153,219.478938 263.675764,219.384395 C265.596392,219.380893 271.953549,227.326026 274.334637,227.326026 C277.515842,227.326026 279.903934,213.023737 288.635176,213.023737 C291.81463,213.8186 292.611244,218.589531 297.378674,218.589531 C299.395596,218.589531 298.584975,212.902931 302.865682,210.914022 C303.18783,211.113613 303.546744,211.239671 304.014207,211.239671 C304.378374,211.239671 304.949135,210.994559 305.323806,210.681165 C306.675424,210.059631 308.247643,208.895349 308.419222,208.165265 C308.550532,207.580498 308.648576,207.156804 308.648576,206.783884 C310.676003,207.002734 312.838242,207.466696 314.060301,207.466696 C316.408124,207.466696 320.032281,203.212251 323.847276,198.31176 C323.780745,198.502597 324.307736,199.399007 324.307736,199.399007 C324.874996,199.399007 325.421245,198.835249 325.421245,198.271491 C325.421245,197.712986 325.421245,197.147478 324.874996,197.147478 C329.665186,190.767561 334.85806,183.627796 337.899201,183.627796 C342.66663,183.627796 347.432309,190.774564 349.820401,190.774564 C348.225422,188.396977 342.66663,184.420909 342.66663,182.036318 C342.66663,170.913483 352.994603,177.270639 352.994603,167.73578 C352.994603,165.354691 352.20149,162.96835 351.406626,161.383876 C353.796469,155.026719 358.556896,151.054153 363.326076,148.667811 L360.932732,136.750112 C360.932732,124.03755 372.064322,131.980932 372.064322,124.03755 C372.064322,120.068485 363.326076,120.861598 363.326076,111.324987 C363.326076,104.171217 372.064322,106.557558 372.064322,100.202152 C372.064322,93.8414936 363.326076,96.2295854 363.326076,94.6398586 C363.326076,93.0466301 364.12094,92.2535175 364.12094,91.4604049 C364.12094,89.0775654 363.326076,88.2844527 363.326076,86.6947259 C363.326076,76.3632521 385.577,78.7495932 385.577,73.9804126 C385.577,73.1837984 384.778635,71.5958223 384.778635,70.7992081 Z" id="Path" fill="url(#linearGradient-1)" transform="translate(254.077000, 92.711352) rotate(176.000000) translate(-254.077000, -92.711352) "></path>
                    <path d="M1053.34681,278.628387 C1053.34681,281.882678 1054.41294,298.149835 1072.86825,302.487457 C1072.86825,302.487457 1075.01342,301.404126 1076.10965,301.404126 C1080.11195,301.404126 1078.62882,303.231172 1080.90726,303.519201 C1082.52365,306.292011 1083.68437,308.862773 1083.68437,310.277121 C1083.68437,311.124011 1082.84177,311.9709 1082.84177,312.809192 L1082.84177,317.869034 C1082.84177,317.869034 1076.09675,322.924578 1076.09675,327.146128 C1076.09675,322.924578 1082.84177,319.567112 1086.21644,319.567112 C1086.21644,317.869034 1084.52266,317.869034 1084.52266,316.192451 C1087.11061,316.192451 1089.35466,316.119369 1091.39235,316.170956 C1091.32787,316.979155 1091.30207,317.843241 1091.30207,318.750315 C1097.79776,325.267495 1093.44294,328.513189 1103.21441,330.67985 C1103.21441,329.927537 1105.81956,329.140833 1107.41017,326.918285 C1108.20117,328.246655 1108.97068,329.695395 1109.81757,331.367679 C1109.81757,321.30388 1114.70975,325.912335 1116.15849,324.377617 C1115.69851,325.405061 1115.14395,326.89679 1115.14395,327.82536 C1115.14395,330.894797 1119.7524,335.503251 1122.83474,335.503251 C1125.91707,335.503251 1127.44319,332.433814 1132.06024,332.433814 C1133.16937,332.433814 1134.84595,332.799223 1136.73318,333.405373 C1134.72988,335.494654 1132.57611,337.884859 1132.57611,341.487364 C1132.57611,347.002893 1135.21136,351.379206 1139.12769,353.992956 C1135.13828,358.953923 1130.34927,367.005822 1130.34927,378.406588 C1130.34927,379.494218 1131.4197,382.739911 1134.68689,382.739911 C1135.74873,382.739911 1135.74873,381.647983 1135.74873,379.494218 L1134.68689,379.494218 C1134.68689,378.449578 1145.69645,373.346746 1146.53474,356.542222 C1146.80988,356.559418 1147.06351,356.641098 1147.33865,356.658294 C1148.39618,356.658294 1149.918,356.572315 1151.5602,356.120927 C1152.46297,356.666891 1153.60219,357.023703 1155.09822,357.023703 C1161.25429,357.023703 1161.25429,350.871932 1164.33232,350.871932 C1176.86371,350.871932 1173.35148,362.685396 1176.95398,368.794177 C1176.86801,370.380483 1175.74598,388.169462 1172.64216,388.169462 C1172.64216,390.327526 1173.72549,392.502785 1173.72549,394.669446 L1172.64216,395.752777 C1172.64216,396.844706 1173.72549,397.928036 1173.72549,399.007068 C1173.72549,400.090399 1172.64216,401.17373 1171.54163,401.17373 C1171.54163,402.252762 1172.64216,404.428021 1172.64216,405.515651 C1172.64216,412.024233 1168.28734,419.611847 1168.28734,426.116131 C1168.28734,430.458052 1170.4411,434.804271 1174.78732,434.804271 C1182.62428,434.804271 1183.47546,424.353569 1184.07731,420.2051 L1183.47546,419.611847 C1183.47546,419.611847 1186.71686,413.103265 1186.71686,406.60328 C1185.66362,406.60328 1185.66362,405.515651 1185.66362,404.428021 C1185.66362,403.340391 1186.71686,401.17373 1187.81738,400.090399 C1187.81738,397.928036 1187.81738,396.844706 1186.71686,394.669446 C1188.89642,394.669446 1189.96685,391.410856 1189.96685,387.081832 C1189.96685,380.396994 1188.99959,373.965792 1187.86467,369.043515 C1190.85243,365.655957 1193.68113,361.632157 1198.14342,361.632157 C1207.35173,361.632157 1211.95159,481.494967 1216.58154,481.494967 C1218.11625,481.494967 1219.64667,479.960248 1219.64667,464.587269 C1219.64667,436.927944 1216.58154,380.078873 1216.58154,376.99224 C1216.58154,372.388084 1216.58154,366.240612 1221.18999,364.701595 C1244.22367,364.701595 1242.69754,376.99224 1253.45777,384.687327 L1259.60524,367.779629 C1267.28743,369.314348 1271.90449,380.078873 1278.03906,380.078873 C1279.31154,380.078873 1281.57708,378.002489 1282.36809,375.573592 C1282.89255,376.515058 1283.24937,377.47372 1283.24937,378.406588 C1282.18753,378.406588 1281.087,380.560353 1281.087,381.647983 C1281.087,383.827541 1281.087,395.752777 1288.67032,395.752777 C1294.3664,395.752777 1295.28208,385.03984 1298.06778,376.10666 C1302.66334,374.941649 1307.52113,372.40528 1313.41067,368.304099 C1313.50095,368.424469 1313.59552,368.527644 1313.703,368.648014 C1313.6772,368.648014 1313.65571,368.643715 1313.63851,368.643715 L1313.63851,369.727045 C1313.89645,369.727045 1314.15439,369.658263 1314.41232,369.585181 C1317.6967,373.849721 1321.22613,379.055727 1321.22613,378.406588 C1321.22613,378.406588 1320.35774,370.724398 1315.62032,369.000526 C1316.1233,368.62222 1316.63057,368.089153 1317.13354,367.483003 C1320.81773,366.657608 1324.93181,365.754833 1329.93146,365.754833 C1330.26678,366.386776 1330.5763,367.156284 1330.94171,367.951587 C1329.81969,369.340142 1329.3855,371.949593 1329.3855,373.742248 C1329.3855,374.154945 1336.12193,384.27463 1336.12193,391.440949 C1336.12193,393.121831 1337.78561,393.968721 1339.47939,395.653902 L1342.86695,395.653902 C1342.86695,387.511725 1340.18871,379.872524 1337.57496,374.520354 C1338.49923,374.782589 1339.50518,374.976041 1340.69169,374.976041 C1342.60901,374.976041 1345.11529,370.234319 1350.05046,366.644712 C1351.19398,368.54054 1353.80343,369.727045 1356.97604,369.727045 C1359.18139,369.727045 1362.42279,366.468455 1362.42279,363.218463 C1362.42279,363.025011 1362.3583,362.878848 1362.33251,362.698292 C1368.34242,362.78857 1368.4069,368.819971 1374.50709,368.819971 C1376.0461,368.819971 1377.58082,368.819971 1377.58082,367.29385 C1376.75543,364.778975 1375.46145,362.711189 1374.4512,360.61761 C1375.12183,360.879844 1375.82256,361.051802 1376.49749,361.051802 C1377.59802,361.051802 1378.68995,359.968471 1378.68995,359.968471 C1377.95053,357.75882 1375.70219,356.073639 1372.98956,355.200956 C1372.98956,355.123575 1372.96807,355.059091 1372.96807,354.98171 C1386.80633,345.786296 1396.01894,345.786296 1396.01894,339.625927 C1396.01894,336.55649 1394.48422,335.013173 1392.9366,331.952334 C1399.09697,327.330982 1397.55796,321.200706 1403.71403,318.118372 C1405.24445,316.575056 1409.8572,316.575056 1409.8572,315.040337 C1408.31818,310.431883 1406.77916,302.728197 1406.77916,296.60222 C1406.77916,288.924328 1408.31818,282.785454 1411.38332,276.625085 C1405.24445,275.086067 1386.80633,247.422443 1386.80633,245.879126 C1386.80633,242.809689 1389.88436,238.201235 1389.88436,233.59278 C1388.34535,233.59278 1385.26731,236.666516 1380.65026,236.666516 C1379.63141,236.666516 1378.67275,236.563342 1377.73558,236.404281 C1377.76568,235.093107 1377.76568,233.781933 1377.79147,232.462161 C1378.52229,232.14404 1379.2703,231.830218 1379.98392,231.494901 C1380.05701,231.727044 1380.14728,231.894702 1380.40952,231.894702 L1381.26071,231.894702 C1381.26071,231.451912 1381.23921,231.13809 1381.21342,230.888752 C1384.53219,229.156283 1387.15884,226.774674 1387.15884,221.787914 C1387.15884,216.2122 1382.72664,214.754862 1377.88175,213.379204 C1377.81296,208.057126 1377.60232,202.808131 1377.18532,197.66231 C1382.32684,199.27011 1387.7392,200.542594 1390.62378,200.542594 C1391.69421,200.542594 1391.69421,197.288303 1392.79474,197.288303 L1392.79474,198.375933 C1399.27753,197.288303 1399.27753,184.271138 1406.86084,184.271138 C1405.99246,183.37696 1405.842,181.713274 1405.8205,179.937815 C1406.89524,179.920619 1413.39952,175.591595 1415.54898,172.345902 C1415.54898,169.09591 1399.27753,168.00828 1393.87807,154.991115 C1393.87807,151.745422 1394.9743,150.662091 1394.9743,148.486832 C1394.9743,144.450135 1393.97695,141.393595 1389.48026,140.976598 C1389.06757,142.846634 1372.4178,151.220952 1364.3788,157.303941 C1359.58119,150.563216 1353.1156,144.71237 1344.40597,140.056627 C1350.61362,132.593682 1362.68932,129.481255 1371.79876,121.893641 C1370.24255,120.358923 1370.24255,120.358923 1368.70353,120.358923 C1365.64269,120.358923 1356.43008,128.036814 1348.73069,128.036814 C1344.12654,128.036814 1339.52238,128.036814 1339.52238,118.824204 C1336.44435,118.824204 1331.82299,120.358923 1328.74926,120.358923 C1324.90171,120.358923 1320.00093,116.06429 1316.69505,111.963109 C1316.74234,111.064633 1316.78103,110.174754 1316.82402,109.276277 C1317.53335,109.370854 1318.25127,109.443935 1319.02937,109.443935 C1319.02937,107.281573 1325.52936,107.281573 1325.52936,100.768692 C1325.52936,97.5229983 1321.22613,92.0934477 1321.22613,91.005818 C1321.22613,83.409606 1341.80511,73.6510314 1341.80511,63.8881578 C1341.80511,64.9757875 1333.11697,53.0462524 1333.11697,45.4629371 C1333.11697,42.2000481 1335.31373,44.3710085 1335.31373,29.1871823 C1335.31373,29.1871823 1335.31373,30.274812 1334.2132,30.274812 C1335.31373,30.274812 1311.45036,4.24908031 1311.45036,-12.0180767 C1313.63851,-14.1890371 1313.63851,-16.3599976 1313.63851,-19.6142888 C1313.63851,-21.7723524 1316.87561,-21.7723524 1316.87561,-22.8599821 C1316.87561,-23.9476118 1315.79228,-27.2062019 1314.68315,-27.2062019 C1313.63851,-27.2062019 1308.19177,-18.530958 1308.19177,-18.530958 C1308.19177,-17.4476273 1308.19177,-16.3599976 1307.10414,-16.3599976 C1305.11373,-16.3599976 1302.23345,-17.9377054 1298.95766,-20.2376338 C1298.99205,-20.3021178 1299.01355,-20.3709007 1299.03074,-20.4310858 C1299.01355,-20.3709007 1298.99205,-20.3021178 1298.95766,-20.2376338 C1289.75795,-26.7333194 1277.4931,-39.131438 1273.49939,-39.131438 C1268.05264,-39.131438 1266.9994,-25.0309425 1257.20644,-25.0309425 C1255.56855,-25.0309425 1253.59534,-25.817647 1251.50176,-26.7935045 C1251.80268,-28.4185006 1253.11815,-27.9413192 1253.11815,-29.4244506 C1253.11815,-31.9608202 1253.11815,-34.4885919 1249.74779,-34.4885919 C1249.74779,-32.6787418 1247.79608,-31.5868131 1246.00342,-29.273988 C1244.28385,-29.9532191 1242.55998,-30.4561941 1240.94788,-30.4561941 C1224.67212,-30.4561941 1227.95221,-14.1890371 1219.27267,-14.1890371 C1208.41786,-14.1890371 1198.65069,-28.2895326 1189.96685,-28.2895326 C1188.89642,-28.2895326 1186.71686,-28.2895326 1186.71686,-26.1185722 C1186.71686,-23.9476118 1205.18937,-9.85141519 1206.23831,8.58670225 C1206.23831,8.58670225 1204.08024,16.1829143 1201.91358,16.1829143 C1200.85175,16.1829143 1199.73832,15.0995836 1197.56306,15.0995836 C1196.50123,15.0995836 1196.50123,16.1829143 1196.50123,16.1829143 C1196.50123,17.0427006 1202.03825,17.2232557 1204.27369,21.1524792 C1193.34151,25.8684071 1181.01218,32.4586692 1168.67424,40.2311374 C1164.70203,37.5142127 1161.06943,32.9444484 1158.70932,32.9444484 C1158.70932,35.485117 1157.02844,34.6296296 1157.02844,36.3191097 C1157.02844,43.7562613 1161.67988,40.9963473 1165.51453,42.2516353 C1162.13557,44.4483893 1158.74801,46.7182252 1155.41634,49.0697407 C1155.06812,48.4807871 1154.78869,48.1282747 1153.64518,48.1282747 C1153.64518,48.8461963 1153.77415,49.491036 1153.959,50.1143811 C1152.19214,51.3653702 1150.46827,52.6206582 1148.75299,53.9017398 C1145.9157,48.5538689 1143.32774,43.5155211 1139.73384,43.5155211 C1138.99872,43.5155211 1137.53708,43.8852293 1136.2431,44.6031508 C1136.07115,44.530069 1135.91638,44.4569872 1135.74873,44.3710085 C1135.74873,44.5988519 1135.67564,44.7708092 1135.64125,44.9814568 C1135.13828,45.3167735 1134.68689,45.6778837 1134.32578,46.1249726 C1132.18921,44.280731 1129.21865,42.1355641 1124.9885,39.693771 C1124.9885,26.2080227 1112.35394,27.0420154 1079.47571,-5.83191419 C1076.93504,-5.83191419 1072.72209,-4.14243408 1072.72209,-0.767772813 C1072.72209,2.35755043 1074.15793,0.444525885 1074.37718,1.49346519 C1074.21812,1.72990642 1074.03326,1.95774979 1073.84841,2.18129423 C1073.53459,2.18129423 1073.13909,2.19419103 1072.72209,2.60688846 C1072.72209,2.80893824 1072.84246,3.04108055 1072.90265,3.26032605 C1073.38842,5.06157838 1075.77863,7.30562065 1079.1017,9.7646095 C1079.19198,10.1300187 1079.26936,10.4696343 1079.35964,10.7533638 C1076.10965,9.670033 1072.86825,6.42004075 1070.6715,6.42004075 L1069.58817,9.670033 C1070.6715,10.7533638 1072.86825,9.670033 1073.93439,10.7533638 L1073.93439,9.670033 C1075.01342,9.670033 1073.93439,10.7533638 1075.01342,11.8409934 C1075.01342,13.5949575 1077.82922,16.7417754 1078.92115,18.465647 C1079.06301,18.4054619 1079.16619,18.3495758 1079.35964,18.3495758 C1093.44294,18.3495758 1086.96015,31.3581427 1101.03055,31.3581427 C1099.97732,34.6124339 1099.97732,37.8624262 1099.97732,42.2000481 C1099.97732,47.6295986 1105.38107,49.7962601 1105.38107,51.9629217 L1104.32354,53.0462524 C1104.32354,58.4801019 1105.38107,59.5591337 1105.38107,59.5591337 C1106.4773,59.5591337 1108.63107,54.1338821 1109.72729,54.1338821 C1111.91115,54.1338821 1112.96439,55.2172128 1115.16544,55.2172128 C1116.22728,55.2172128 1118.40254,50.8795909 1120.5649,50.8795909 C1121.42898,50.8795909 1122.65418,51.0558471 1124.01264,51.2664947 C1127.55926,55.3805722 1131.71633,60.3286425 1134.92763,64.9199014 C1128.90483,70.0657224 1123.29902,75.3577072 1118.35095,80.7012791 C1113.77689,75.559757 1109.40487,65.0359725 1105.91844,65.0359725 C1104.37942,65.0359725 1104.37942,66.57499 1104.37942,68.1097086 C1104.37942,72.7224621 1107.47035,75.7918993 1107.47035,80.4089518 C1107.47035,83.4783889 1107.47035,88.0954414 1102.8533,88.0954414 C1096.70583,86.552125 1095.17111,80.4089518 1092.10167,80.4089518 C1090.55836,80.4089518 1087.49322,80.4089518 1087.49322,83.4783889 C1087.49322,91.1605796 1099.78386,97.3166496 1099.78386,104.985943 C1099.78386,108.063978 1095.17111,109.602996 1093.63639,112.676732 C1087.49322,109.602996 1084.40659,106.533559 1070.58552,106.533559 C1070.58552,118.824204 1079.81103,117.289486 1079.81103,124.975975 C1079.81103,158.774175 1050.59549,157.239457 1050.59549,161.856509 C1050.59549,168.21033 1053.7767,170.892863 1057.46948,173.691468 C1057.84349,173.979496 1058.23469,174.276122 1058.63449,174.572749 C1058.29058,174.534058 1057.96386,174.512564 1057.69732,174.512564 C1057.69732,177.775453 1056.6011,179.942114 1060.93872,181.016847 C1062.44334,181.016847 1063.39771,180.462285 1063.85339,179.387552 C1066.67349,182.792306 1068.83586,187.727479 1069.00781,196.192075 C1068.16522,196.634865 1067.67085,197.008872 1067.67085,197.322694 C1067.67085,197.374282 1067.69234,197.42157 1067.69234,197.468858 C1060.59051,198.883207 1052.76645,200.607078 1052.19899,207.193041 C1051.28332,208.237682 1050.79754,210.408642 1050.79754,211.655332 C1050.79754,214.187403 1050.79754,215.029993 1052.48702,216.719474 C1055.02769,216.719474 1055.87028,215.881182 1055.87028,212.502222 C1055.57795,211.908969 1055.26413,211.001895 1054.9718,210.073325 C1056.63119,211.165254 1058.87093,212.75156 1061.29983,215.055787 C1060.79685,214.806449 1060.28958,214.64309 1059.83819,214.64309 C1057.69732,214.64309 1057.69732,217.893082 1057.69732,221.147373 C1057.69732,223.898689 1058.54851,224.896041 1059.73932,225.270048 C1055.82299,226.6715 1050.79754,228.80377 1050.79754,231.894702 L1055.02769,231.894702 C1061.34712,231.894702 1065.14307,233.571285 1065.14307,237.788537 C1065.14307,239.473718 1060.92152,242.010088 1060.92152,243.69097 C1063.45359,243.69097 1064.29618,246.223041 1064.29618,248.750813 C1061.77271,248.750813 1060.92152,251.69988 1060.92152,253.797758 C1061.57926,253.797758 1062.32297,253.853644 1063.06669,253.939623 C1034.74103,261.95713 972.238864,273.577142 972.238864,277.115163 C972.238864,277.871775 972.238864,277.871775 973.764985,277.871775 C982.728257,277.871775 1030.67424,271.844673 1056.63979,269.16214 C1056.77735,270.301356 1057.69732,272.270267 1057.69732,274.286466 C1057.69732,276.461725 1056.6011,278.628387 1053.34681,278.628387 L1053.34681,278.628387 Z" id="Path" fill="url(#linearGradient-2)" transform="translate(1193.893924, 221.181764) rotate(120.000000) translate(-1193.893924, -221.181764) "></path>
                </g>
            </g>
        </g>
    </g>
</svg>