<?xml version="1.0" encoding="UTF-8" standalone="no"?>
<svg width="157px" height="69px" viewBox="0 0 157 69" version="1.1" xmlns="http://www.w3.org/2000/svg" xmlns:xlink="http://www.w3.org/1999/xlink">
    <!-- Generator: Sketch 39.1 (31720) - http://www.bohemiancoding.com/sketch -->
    <title>DIGI_ChildrensCabinet_logo_WHITE</title>
    <desc>Created with Sketch.</desc>
    <defs></defs>
    <g id="Symbols" stroke="none" stroke-width="1" fill="none" fill-rule="evenodd">
        <g id="Footer" transform="translate(-410.000000, -79.000000)" fill="#FFFFFF">
            <g id="DIGI_ChildrensCabinet_logo_WHITE">
                <g transform="translate(410.000000, 79.000000)">
                    <polyline id="Fill-1" points="135.036632 0.0363157895 105.085184 0.0363157895 96.1024737 9.02084211 96.1024737 38.9713816 105.085184 47.955 135.036632 47.955 144.022066 38.9713816 144.022066 29.9868553 141.026921 26.9880789 126.052105 26.9880789 126.052105 29.9868553 114.072434 29.9868553 114.072434 18.0062763 126.052105 18.0062763 126.052105 20.9641974 141.026921 20.9641974 144.022066 18.0062763 144.022066 9.02084211 135.036632 0.0363157895"></polyline>
                    <polyline id="Fill-2" points="45.1859211 0.0363157895 33.2053421 0.0363157895 30.2111053 3.03055263 30.2111053 15.0111316 15.2353816 0.0363157895 3.25480263 0.0363157895 0.259657895 3.03055263 0.259657895 44.9607632 3.25480263 47.955 15.2353816 47.955 18.2314342 44.9607632 18.2314342 32.982 33.2053421 47.955 45.1859211 47.955 48.1810658 44.9607632 48.1810658 3.03055263 45.1859211 0.0363157895"></polyline>
                    <polyline id="Fill-3" points="66.1501184 47.9568158 78.1316053 47.9568158 81.1249342 44.9607632 81.1249342 35.9762368 96.1024737 21.0005132 96.1024737 3.03055263 93.1073289 0.0363157895 81.1249342 0.0363157895 78.1316053 3.03055263 78.1316053 9.02084211 72.1413158 15.0111316 66.1501184 9.02084211 66.1501184 3.03055263 63.1549737 0.0363157895 51.1753026 0.0363157895 48.1810658 3.03055263 48.1810658 21.0005132 63.1549737 35.9762368 63.1549737 44.9607632 66.1501184 47.9568158"></polyline>
                    <path d="M142.457763,1.24926316 C142.360618,1.19388158 142.204461,1.16755263 141.990197,1.16755263 L141.661539,1.16755263 L141.661539,1.96014474 L142.009263,1.96014474 C142.172684,1.96014474 142.294342,1.94380263 142.376053,1.91111842 C142.526763,1.85119737 142.603026,1.73680263 142.603026,1.56884211 C142.603026,1.40996053 142.554,1.30373684 142.457763,1.24926316 L142.457763,1.24926316 Z M142.041039,0.904263158 C142.3125,0.904263158 142.511329,0.930592105 142.638434,0.98325 C142.863592,1.07767105 142.977079,1.26197368 142.977079,1.53706579 C142.977079,1.73317105 142.906263,1.87661842 142.762816,1.96922368 C142.686553,2.01734211 142.582145,2.05275 142.446868,2.07453947 C142.617553,2.10177632 142.74375,2.1735 142.823645,2.28880263 C142.900816,2.40410526 142.941671,2.51759211 142.941671,2.62744737 L142.941671,2.78723684 C142.941671,2.83807895 142.943487,2.89164474 142.947118,2.94975 C142.95075,3.00785526 142.958013,3.04598684 142.967092,3.06323684 L142.978895,3.09047368 L142.619368,3.09047368 C142.617553,3.08321053 142.615737,3.07594737 142.613921,3.06868421 C142.612105,3.06232895 142.610289,3.05325 142.608474,3.04507895 L142.599395,2.97426316 L142.599395,2.80085526 C142.599395,2.54936842 142.530395,2.38231579 142.394211,2.30151316 C142.3125,2.25430263 142.169053,2.23069737 141.964776,2.23069737 L141.661539,2.23069737 L141.661539,3.09047368 L141.274776,3.09047368 L141.274776,0.904263158 L142.041039,0.904263158 L142.041039,0.904263158 Z M140.868947,0.7935 C140.537566,1.12760526 140.370513,1.53161842 140.370513,2.00644737 C140.370513,2.48309211 140.53575,2.88982895 140.865316,3.22575 C141.198513,3.56257895 141.603434,3.73053947 142.078263,3.73053947 C142.555816,3.73053947 142.959829,3.56257895 143.291211,3.22575 C143.624408,2.88982895 143.791461,2.48309211 143.791461,2.00644737 C143.791461,1.53161842 143.624408,1.12760526 143.291211,0.7935 C142.958013,0.455763158 142.554,0.287802632 142.078263,0.287802632 C141.607066,0.287802632 141.203961,0.455763158 140.868947,0.7935 L140.868947,0.7935 Z M143.490039,3.41640789 C143.101461,3.80680263 142.632079,4.002 142.078263,4.002 C141.527171,4.002 141.058697,3.80680263 140.670118,3.41640789 C140.286079,3.02782895 140.092697,2.55572368 140.092697,2.00281579 C140.092697,1.45535526 140.287895,0.985973684 140.675566,0.597394737 C141.064145,0.209723684 141.530803,0.01725 142.078263,0.01725 C142.632079,0.01725 143.101461,0.209723684 143.490039,0.597394737 C143.880434,0.985065789 144.072908,1.45353947 144.072908,2.00281579 C144.072908,2.55481579 143.880434,3.02601316 143.490039,3.41640789 L143.490039,3.41640789 Z" id="Fill-4"></path>
                    <path d="M2.6114158,56.4027495 C3.65948089,55.3430393 4.9928326,54.8131921 6.61151091,54.8131921 C8.7775121,54.8131921 10.3612312,55.5235366 11.3627156,56.9442471 C11.915861,57.7419411 12.2128084,58.5425344 12.2535664,59.3460509 L9.56354616,59.3460509 C9.38886864,58.728857 9.16470253,58.2630573 8.89104109,57.9486378 C8.40194404,57.3896697 7.67704323,57.1101899 6.71631689,57.1101899 C5.7381228,57.1101899 4.96664202,57.5046641 4.40185138,58.2936242 C3.83706075,59.0825843 3.55466967,60.199048 3.55466967,61.6430488 C3.55466967,63.0870496 3.85307261,64.1685783 4.44988746,64.8876674 C5.0467023,65.6067565 5.80508247,65.9662957 6.72505072,65.9662957 C7.66830931,65.9662957 8.38738763,65.6577034 8.88230725,65.0405095 C9.1559687,64.7086222 9.38304606,64.2107987 9.56354616,63.5470242 L12.227365,63.5470242 C11.9944616,64.9502669 11.3991113,66.0914762 10.4412963,66.9706864 C9.48348124,67.8498965 8.2563901,68.289495 6.75998605,68.289495 C4.90840439,68.289495 3.45278026,67.6956004 2.39307,66.5077933 C1.33335974,65.3141636 0.803512554,63.6780421 0.803512554,61.5993796 C0.803512554,59.3518622 1.40614094,57.6196695 2.6114158,56.4027495 L2.6114158,56.4027495 Z M20.9306286,58.4726677 C21.4109918,58.6764582 21.805466,58.9879617 22.1140629,59.4071878 C22.3760792,59.7623654 22.5361978,60.127727 22.5944237,60.5032837 C22.6526495,60.8788403 22.681762,61.4916581 22.681762,62.3417553 L22.681762,67.9314079 L20.1402168,67.9314079 L20.1402168,62.1408772 C20.1402168,61.6284898 20.0528794,61.2150926 19.8782019,60.900673 C19.6511211,60.4581567 19.2202564,60.2369018 18.5855947,60.2369018 C17.9276428,60.2369018 17.4283637,60.4567011 17.0877425,60.8963061 C16.7471214,61.3359112 16.5768133,61.9632852 16.5768133,62.778447 L16.5768133,67.9314079 L14.096405,67.9314079 L14.096405,55.1014085 L16.5768133,55.1014085 L16.5768133,59.6517351 C16.9378135,59.0985896 17.3555777,58.7128492 17.8301182,58.4945023 C18.3046588,58.2761554 18.8039379,58.1669836 19.3279705,58.1669836 C19.9160514,58.1669836 20.4502655,58.2688773 20.9306286,58.4726677 L20.9306286,58.4726677 Z M27.5639741,57.2761327 L25.0398967,57.2761327 L25.0398967,54.9791349 L27.5639741,54.9791349 L27.5639741,57.2761327 Z M25.0398967,58.4115309 L27.5639741,58.4115309 L27.5639741,67.9314079 L25.0398967,67.9314079 L25.0398967,58.4115309 Z M32.5160569,67.9314079 L30.0269148,67.9314079 L30.0269148,55.0577394 L32.5160569,55.0577394 L32.5160569,67.9314079 Z M39.9922172,58.564373 C40.4405562,58.8176554 40.8044622,59.1684608 41.0839462,59.6167997 L41.0839462,55.075207 L43.6080237,55.075207 L43.6080237,67.9314079 L41.1887522,67.9314079 L41.1887522,66.6125992 C40.8335746,67.1773899 40.4289111,67.5878759 39.9747496,67.8440696 C39.520588,68.1002633 38.9558059,68.2283582 38.2803861,68.2283582 C37.1682726,68.2283582 36.2323063,67.7785703 35.4724591,66.8789811 C34.7126119,65.9793919 34.332694,64.825082 34.332694,63.4160167 C34.332694,61.7915158 34.7067894,60.5134778 35.4549914,59.5818644 C36.2031935,58.650251 37.2032072,58.1844513 38.4550628,58.1844513 C39.0314986,58.1844513 39.5438783,58.3110906 39.9922172,58.564373 L39.9922172,58.564373 Z M40.6035855,65.3461936 C40.9704083,64.822161 41.1538169,64.1438402 41.1538169,63.3112107 C41.1538169,62.1466939 40.8597808,61.3140769 40.2716999,60.8133347 C39.9106997,60.5105604 39.4914799,60.3591755 39.014028,60.3591755 C38.286205,60.3591755 37.751991,60.6342884 37.4113698,61.1845226 C37.0707487,61.7347568 36.9004407,62.4174445 36.9004407,63.2326062 C36.9004407,64.1118164 37.0736599,64.8148828 37.4201037,65.3418267 C37.7665474,65.8687705 38.2920277,66.1322385 38.9965604,66.1322385 C39.701093,66.1322385 40.2367627,65.8702261 40.6035855,65.3461936 L40.6035855,65.3461936 Z M51.1584216,58.1888182 C51.1904458,58.1917295 51.2617714,58.1960963 51.3724005,58.2019189 L51.3724005,60.7521979 C51.2151907,60.7347302 51.0754508,60.7230852 50.9531765,60.7172626 C50.8309023,60.71144 50.7319198,60.7085287 50.6562262,60.7085287 C49.6547418,60.7085287 48.9822435,61.0345885 48.638711,61.6867179 C48.4465657,62.0535407 48.3504946,62.6183229 48.3504946,63.3810814 L48.3504946,67.9314079 L45.8438847,67.9314079 L45.8438847,58.4115309 L48.2194871,58.4115309 L48.2194871,60.070959 C48.6037776,59.4362974 48.9385712,59.0025214 49.2238778,58.769618 C49.6896845,58.3795049 50.2952241,58.1844513 51.0405148,58.1844513 C51.0870955,58.1844513 51.1263974,58.1859069 51.1584216,58.1888182 L51.1584216,58.1888182 Z M55.245855,60.7521979 C54.9285242,61.1131981 54.7291037,61.6022878 54.6475875,62.2194817 L58.5166751,62.2194817 C58.475917,61.5615297 58.2764965,61.0622506 57.9184076,60.7216295 C57.5603187,60.3810083 57.1163534,60.2107003 56.5864982,60.2107003 C56.0100624,60.2107003 55.5631858,60.3911977 55.245855,60.7521979 L55.245855,60.7521979 Z M58.7262871,58.6036752 C59.3609487,58.900627 59.8849734,59.3693379 60.2983769,60.0098222 C60.6710222,60.5746128 60.9126558,61.2296437 61.0232849,61.9749344 C61.0873334,62.4116282 61.1135346,63.0404578 61.1018894,63.8614421 L54.5864507,63.8614421 C54.6213862,64.8163459 54.9212448,65.485933 55.4860354,65.8702235 C55.8295678,66.1089495 56.2429651,66.2283106 56.7262395,66.2283106 C57.2386269,66.2283106 57.6549354,66.0827482 57.9751775,65.791619 C58.1498551,65.6344093 58.3041512,65.4160656 58.4380706,65.1365816 L60.9796158,65.1365816 C60.9155674,65.7013723 60.6215313,66.2748882 60.0974987,66.8571465 C59.282337,67.7829374 58.1411277,68.2458259 56.6738366,68.2458259 C55.4627391,68.2458259 54.394311,67.8557186 53.4685202,67.0754923 C52.5427293,66.2952661 52.0798409,65.0259619 52.0798409,63.2675415 C52.0798409,61.6197503 52.497605,60.3562686 53.3331458,59.4770584 C54.1686866,58.5978483 55.2531265,58.1582498 56.5864982,58.1582498 C57.3783696,58.1582498 58.0916255,58.3067234 58.7262871,58.6036752 L58.7262871,58.6036752 Z M70.4689244,58.9573954 C71.0948521,59.4726941 71.4078113,60.3271454 71.4078113,61.5207751 L71.4078113,67.9314079 L68.8575323,67.9314079 L68.8575323,62.1408772 C68.8575323,61.640135 68.7905736,61.2558502 68.6566542,60.9880114 C68.4121057,60.4989143 67.946306,60.2543695 67.2592411,60.2543695 C66.4149664,60.2543695 65.835628,60.612453 65.5212085,61.3286308 C65.3581761,61.7070988 65.2766612,62.190366 65.2766612,62.778447 L65.2766612,67.9314079 L62.7962529,67.9314079 L62.7962529,58.4289986 L65.1980567,58.4289986 L65.1980567,59.8176779 C65.5182988,59.3285808 65.8210686,58.9763198 66.1063752,58.7608842 C66.6187626,58.3765936 67.267971,58.1844513 68.0540198,58.1844513 C69.0380365,58.1844513 69.8429966,58.4420967 70.4689244,58.9573954 L70.4689244,58.9573954 Z M73.7397445,59.0927698 C74.3103577,58.9122697 74.7033762,58.6065886 74.9188118,58.1757174 C75.0352635,57.9195237 75.0847547,57.6604226 75.067287,57.3984064 L73.6960753,57.3984064 L73.6960753,55.1014085 L76.1852175,55.1014085 L76.1852175,56.9442471 C76.1852175,57.8234573 75.9712407,58.5163343 75.5432808,59.0228991 C75.1153209,59.5294639 74.5141481,59.858435 73.7397445,60.0098222 L73.7397445,59.0927698 Z M79.2999955,64.8920343 C79.3523987,65.3345507 79.4659374,65.6489655 79.6406149,65.8352882 C79.9492119,66.1671755 80.5198165,66.3331166 81.352446,66.3331166 C81.8415431,66.3331166 82.2301947,66.2603354 82.5184126,66.1147708 C82.8066305,65.9692062 82.9507373,65.7508626 82.9507373,65.4597334 C82.9507373,65.1802494 82.8342874,64.9677283 82.601384,64.8221637 C82.3684807,64.6765991 81.5038399,64.4262317 80.0074359,64.0710541 C78.9302579,63.8032152 78.1704221,63.4684217 77.7279057,63.0666634 C77.2853893,62.6707277 77.0641344,62.1001231 77.0641344,61.3548323 C77.0641344,60.4756222 77.4091174,59.7201532 78.0990936,59.0884029 C78.7890697,58.4566525 79.759971,58.1407821 81.0118266,58.1407821 C82.1996337,58.1407821 83.1676237,58.3780488 83.9158257,58.8525894 C84.6640278,59.32713 85.0934369,60.1466464 85.204066,61.3111632 L82.7149238,61.3111632 C82.6799883,60.990921 82.5897396,60.7376424 82.444175,60.5513198 C82.1705136,60.2136099 81.7047139,60.0447575 81.0467619,60.0447575 C80.5052616,60.0447575 80.1195212,60.1291837 79.8895291,60.2980386 C79.6595371,60.4668936 79.5445428,60.6648584 79.5445428,60.8919392 C79.5445428,61.1772458 79.6668152,61.3839445 79.9113637,61.5120413 C80.1559122,61.6459607 81.020553,61.8759493 82.5053119,62.202014 C83.4951511,62.4349174 84.2375194,62.7871784 84.732439,63.2588077 C85.2215361,63.7362596 85.4660809,64.3330655 85.4660809,65.0492433 C85.4660809,65.9925019 85.1152755,66.762527 84.4136542,67.3593419 C83.7120328,67.9561567 82.6275928,68.2545597 81.1603017,68.2545597 C79.6638977,68.2545597 78.5590789,67.9386892 77.8458124,67.3069389 C77.1325459,66.6751886 76.775918,65.8702284 76.775918,64.8920343 L79.2999955,64.8920343 Z M93.7318635,56.4027495 C94.7799286,55.3430393 96.1132803,54.8131921 97.7319586,54.8131921 C99.8979598,54.8131921 101.481679,55.5235366 102.483163,56.9442471 C103.036309,57.7419411 103.333256,58.5425344 103.374014,59.3460509 L100.683994,59.3460509 C100.509316,58.728857 100.28515,58.2630573 100.011489,57.9486378 C99.5223917,57.3896697 98.7974909,57.1101899 97.8367646,57.1101899 C96.8585705,57.1101899 96.0870897,57.5046641 95.5222991,58.2936242 C94.9575084,59.0825843 94.6751174,60.199048 94.6751174,61.6430488 C94.6751174,63.0870496 94.9735203,64.1685783 95.5703351,64.8876674 C96.16715,65.6067565 96.9255302,65.9662957 97.8454984,65.9662957 C98.788757,65.9662957 99.5078353,65.6577034 100.002755,65.0405095 C100.276416,64.7086222 100.503494,64.2107987 100.683994,63.5470242 L103.347813,63.5470242 C103.114909,64.9502669 102.519559,66.0914762 101.561744,66.9706864 C100.603929,67.8498965 99.3768378,68.289495 97.8804337,68.289495 C96.0288521,68.289495 94.5732279,67.6956004 93.5135177,66.5077933 C92.4538074,65.3141636 91.9239602,63.6780421 91.9239602,61.5993796 C91.9239602,59.3518622 92.5265886,57.6196695 93.7318635,56.4027495 L93.7318635,56.4027495 Z M110.448418,63.3024769 C110.291208,63.4014608 110.132545,63.4815201 109.972424,63.5426573 C109.812303,63.6037944 109.592504,63.6605637 109.31302,63.712967 L108.754055,63.817773 C108.230022,63.9109343 107.854471,64.024473 107.62739,64.1583924 C107.2431,64.3854732 107.050957,64.7377342 107.050957,65.2151861 C107.050957,65.6402347 107.168863,65.9473714 107.404678,66.1366054 C107.640492,66.3258394 107.92725,66.4204549 108.26496,66.4204549 C108.800638,66.4204549 109.294094,66.2632475 109.745345,65.948828 C110.196595,65.6344085 110.43095,65.0608926 110.448418,64.2282631 L110.448418,63.3024769 Z M108.937465,62.1408772 C109.397449,62.0826514 109.72642,62.0098702 109.924388,61.9225314 C110.279566,61.7711442 110.457152,61.5353331 110.457152,61.215091 C110.457152,60.8249779 110.321779,60.5556874 110.051029,60.4072115 C109.780279,60.2587356 109.382893,60.1844988 108.858861,60.1844988 C108.27078,60.1844988 107.854471,60.3300612 107.609923,60.6211904 C107.435245,60.836626 107.318795,61.1277508 107.260569,61.4945736 L104.858766,61.4945736 C104.911169,60.6619441 105.144069,59.9778008 105.557472,59.4421231 C106.215424,58.603671 107.344988,58.1844513 108.946199,58.1844513 C109.988442,58.1844513 110.914218,58.3911499 111.723558,58.8045533 C112.532897,59.2179568 112.93756,59.9981713 112.93756,61.1452203 L112.93756,65.5121364 C112.93756,65.8149108 112.943383,66.181728 112.955028,66.6125992 C112.972496,66.9386639 113.021987,67.1599188 113.103503,67.2763705 C113.185019,67.3928222 113.307292,67.4888934 113.470324,67.5645869 L113.470324,67.9314079 L110.762836,67.9314079 C110.687143,67.7392626 110.63474,67.5587652 110.605627,67.3899103 C110.576514,67.2210554 110.553224,67.028913 110.535756,66.8134774 C110.192224,67.1861228 109.796294,67.5034488 109.347955,67.7654651 C108.812278,68.074062 108.206738,68.2283582 107.531318,68.2283582 C106.669576,68.2283582 105.957776,67.9823577 105.395896,67.4903494 C104.834017,66.998341 104.553081,66.3010971 104.553081,65.3985966 C104.553081,64.2282572 105.004325,63.381084 105.906825,62.8570514 C106.401745,62.5717448 107.129557,62.3679575 108.090283,62.2456832 L108.937465,62.1408772 Z M123.230381,59.5556629 C123.937825,60.4581634 124.291542,61.6226627 124.291542,63.0491957 C124.291542,64.528132 123.942192,65.7537676 123.243482,66.7261391 C122.544772,67.6985106 121.569504,68.184689 120.317648,68.184689 C119.5316,68.184689 118.899859,68.0274816 118.422407,67.7130621 C118.1371,67.5267394 117.828508,67.2006796 117.496621,66.7348729 L117.496621,67.9314079 L115.059881,67.9314079 L115.059881,55.075207 L117.54029,55.075207 L117.54029,59.6517351 C117.854709,59.2092187 118.201148,58.8715139 118.579616,58.6386105 C119.027955,58.3474813 119.598559,58.2019189 120.291447,58.2019189 C121.543302,58.2019189 122.522937,58.6531624 123.230381,59.5556629 L123.230381,59.5556629 Z M121.147362,65.3549274 C121.50254,64.8367175 121.680126,64.1554854 121.680126,63.3112107 C121.680126,62.635791 121.592789,62.0768313 121.418111,61.6343149 C121.086224,60.7958629 120.474862,60.3766431 119.584007,60.3766431 C118.681506,60.3766431 118.06141,60.7871291 117.7237,61.6081134 C117.549023,62.0448072 117.461685,62.6095894 117.461685,63.3024769 C117.461685,64.1176386 117.642183,64.7930482 118.003183,65.3287259 C118.364183,65.8644036 118.914409,66.1322385 119.653877,66.1322385 C120.294361,66.1322385 120.792185,65.8731374 121.147362,65.3549274 L121.147362,65.3549274 Z M128.632257,57.2761327 L126.108179,57.2761327 L126.108179,54.9791349 L128.632257,54.9791349 L128.632257,57.2761327 Z M126.108179,58.4115309 L128.632257,58.4115309 L128.632257,67.9314079 L126.108179,67.9314079 L126.108179,58.4115309 Z M138.732933,58.9573954 C139.358861,59.4726941 139.67182,60.3271454 139.67182,61.5207751 L139.67182,67.9314079 L137.121541,67.9314079 L137.121541,62.1408772 C137.121541,61.640135 137.054583,61.2558502 136.920663,60.9880114 C136.676115,60.4989143 136.210315,60.2543695 135.52325,60.2543695 C134.678975,60.2543695 134.099637,60.612453 133.785218,61.3286308 C133.622185,61.7070988 133.54067,62.190366 133.54067,62.778447 L133.54067,67.9314079 L131.060262,67.9314079 L131.060262,58.4289986 L133.462066,58.4289986 L133.462066,59.8176779 C133.782308,59.3285808 134.085078,58.9763198 134.370384,58.7608842 C134.882772,58.3765936 135.53198,58.1844513 136.318029,58.1844513 C137.302046,58.1844513 138.107006,58.4420967 138.732933,58.9573954 L138.732933,58.9573954 Z M144.383723,60.7521979 C144.066392,61.1131981 143.866971,61.6022878 143.785455,62.2194817 L147.654543,62.2194817 C147.613785,61.5615297 147.414364,61.0622506 147.056275,60.7216295 C146.698187,60.3810083 146.254221,60.2107003 145.724366,60.2107003 C145.14793,60.2107003 144.701054,60.3911977 144.383723,60.7521979 L144.383723,60.7521979 Z M147.864155,58.6036752 C148.498817,58.900627 149.022841,59.3693379 149.436245,60.0098222 C149.80889,60.5746128 150.050524,61.2296437 150.161153,61.9749344 C150.225201,62.4116282 150.251402,63.0404578 150.239757,63.8614421 L143.724318,63.8614421 C143.759254,64.8163459 144.059113,65.485933 144.623903,65.8702235 C144.967436,66.1089495 145.380833,66.2283106 145.864107,66.2283106 C146.376495,66.2283106 146.792803,66.0827482 147.113045,65.791619 C147.287723,65.6344093 147.442019,65.4160656 147.575938,65.1365816 L150.117484,65.1365816 C150.053435,65.7013723 149.759399,66.2748882 149.235367,66.8571465 C148.420205,67.7829374 147.278995,68.2458259 145.811704,68.2458259 C144.600607,68.2458259 143.532179,67.8557186 142.606388,67.0754923 C141.680597,66.2952661 141.217709,65.0259619 141.217709,63.2675415 C141.217709,61.6197503 141.635473,60.3562686 142.471014,59.4770584 C143.306554,58.5978483 144.390994,58.1582498 145.724366,58.1582498 C146.516237,58.1582498 147.229493,58.3067234 147.864155,58.6036752 L147.864155,58.6036752 Z M150.938464,60.2718371 L150.938464,58.4988692 L152.266006,58.4988692 L152.266006,55.8437843 L154.728947,55.8437843 L154.728947,58.4988692 L156.274835,58.4988692 L156.274835,60.2718371 L154.728947,60.2718371 L154.728947,65.3025244 C154.728947,65.6926375 154.778438,65.9357268 154.877422,66.0317994 C154.976406,66.127872 155.279176,66.1759076 155.785741,66.1759076 C155.861434,66.1759076 155.941494,66.174452 156.025921,66.1715407 C156.110348,66.1686294 156.193319,66.1642626 156.274835,66.15844 L156.274835,68.0187462 L155.095768,68.0624154 C153.919606,68.1031735 153.116101,67.8993861 152.68523,67.4510471 C152.405746,67.1657405 152.266006,66.726142 152.266006,66.1322385 L152.266006,60.2718371 L150.938464,60.2718371 Z" id="Children’s-Cabinet"></path>
                </g>
            </g>
        </g>
    </g>
</svg>