<svg xmlns="http://www.w3.org/2000/svg" viewBox="0 0 50 50"><path d="M48.09 21.183L26.418.629a2.356 2.356 0 00-3.23.006L1.368 21.111C.857 21.59.551 22.259.549 22.9c-.001.546.271 1.28.663 1.651l2.824.005L4 27.699v20.216C4 49.294 5.434 50 6.703 50h34.942C43.04 50 44 49.174 44 47.915V24.296l3.917-.094c.483-.254.781-.647.862-1.23.094-.68-.186-1.311-.689-1.789zM41.928 22L42 28.572V48l-35.906.031-.016-25.259-3.832.006L24.331 1.927c.22-.207.45-.208.669.009L46.566 22h-4.638z"/><path d="M46.994 22.706c.068.113-.014-.077 0 0z"/><g><path d="M30.338 19.65a7.343 7.343 0 00-6.176 3.336 7.343 7.343 0 00-6.176-3.336c-4.067 0-7.376 3.309-7.376 7.376 0 8.082 12.557 15.662 13.092 15.981l.461.275.461-.275c.535-.319 13.092-7.899 13.092-15.981-.002-4.067-3.311-7.376-7.378-7.376zm-6.177 21.523c-.981-.626-3.379-2.226-5.746-4.358-2.74-2.468-6.007-6.169-6.007-9.79a5.584 5.584 0 015.577-5.577 5.555 5.555 0 015.319 3.898l.858 2.72.858-2.72a5.554 5.554 0 015.318-3.898 5.584 5.584 0 015.577 5.577c0 6.269-9.527 12.726-11.754 14.148z"/></g></svg>