<svg xmlns="http://www.w3.org/2000/svg" viewBox="0 0 58 58"><path d="M46.73 56.25a.9.9 0 01-.79-.47l-2.13-3.86H14.2l-2.12 3.86a.9.9 0 01-.79.47 1 1 0 01-.44-.11.93.93 0 01-.43-.54.9.9 0 01.08-.68l1.78-3.24A6 6 0 018 46.84L5.48 36.32h-.14a2.6 2.6 0 01-2.59-2.59v-1.94a2.59 2.59 0 012.59-2.59h1.87V10.37a6.62 6.62 0 0113.2-.7 6.75 6.75 0 015.93 6.73.9.9 0 01-.9.9H13.66a.9.9 0 01-.9-.9 6.76 6.76 0 015.84-6.72 4.82 4.82 0 00-9.6.69V29.2h43.66a2.59 2.59 0 012.59 2.59v1.94a2.6 2.6 0 01-2.59 2.59L50.17 46.9a6 6 0 01-4.41 4.81l1.76 3.21a.89.89 0 01-.36 1.22.92.92 0 01-.43.11zM19.55 11.16a5.25 5.25 0 00-5.2 4.59h10.4a5.25 5.25 0 00-5.2-4.59zm31.56 24.91H7l2.47 10.48a4.51 4.51 0 004.46 3.82h30.26a4.5 4.5 0 004.46-3.78zm2.59-4.28a1 1 0 00-1-1H5.34a1 1 0 00-1 1v1.94a1 1 0 001 1h47.32a1 1 0 001-1zm-36.34-10.5v-1.88a.9.9 0 00-1.8 0v1.88a.9.9 0 001.8 0zm0 5.15v-1.88a.9.9 0 10-1.8 0v1.88a.9.9 0 101.8 0zm3.09-5.15v-1.88a.9.9 0 00-1.8 0v1.88a.9.9 0 101.8 0zm0 5.15v-1.88a.9.9 0 10-1.8 0v1.88a.9.9 0 001.8 0zm3.09-5.15v-1.88a.9.9 0 00-1.8 0v1.88a.9.9 0 001.8 0zm0 5.15v-1.88a.9.9 0 00-1.8 0v1.88a.9.9 0 001.8 0z" fill="#fff"/></svg>