<svg xmlns="http://www.w3.org/2000/svg" viewBox="0 0 58 58"><path data-name="Cleaning Up" d="M24.14 56.86l8.12-13.7a11.91 11.91 0 001.48-4A11.18 11.18 0 0032.69 32l.28-.28L54.85 9.84A3.47 3.47 0 0055.07 5a3.39 3.39 0 00-4.87.14L28.31 27l-.28.28a10.8 10.8 0 00-7.14-1.05 12.94 12.94 0 00-4 1.48L3.1 35.82a2.2 2.2 0 00-.42 3.46l18.07 18.07a2.2 2.2 0 001.84.64 2.87 2.87 0 001.55-1.13zm6.73-26.3a7.69 7.69 0 00-.74-.88 4.6 4.6 0 00-.83-.68l-.56-.33 22.7-22.59a2.13 2.13 0 011.49-.64 1.53 1.53 0 011.07.42 1.79 1.79 0 01-.21 2.59L31.23 31zM20.82 28a9.57 9.57 0 018.48 2.61 9.41 9.41 0 012.62 8.49 9.8 9.8 0 01-1.39 3.59l-.25.49-13.54-13.51.48-.25a9.22 9.22 0 013.6-1.42zm-2.43 24.8l3.5-5.64a1.3 1.3 0 00-.4-1.69c-.56-.32-1-.16-1.36.41l-3.21 5.43-7.7-7.79 5-3.4a1.13 1.13 0 00.6-1.49 1.11 1.11 0 00-1.57-.3l-5.37 3.79-4.45-4.5 12-7.24 14.1 14.25-7.16 12.16z" fill="#fff"/></svg>