<svg xmlns="http://www.w3.org/2000/svg" viewBox="0 0 58 58"><path d="M19.28 54.51h-1c-7.69-.52-14-7-14.71-15.18a17.45 17.45 0 013.54-12.28 5.75 5.75 0 001.14-3.89v-.76a11.64 11.64 0 014.24-9.25 6.58 6.58 0 01-2-.81c-3.34-2.06-4-6.81-4-7a1.1 1.1 0 01.71-1.21 12.59 12.59 0 013.89-.64 7.81 7.81 0 014.17 1.07 6.68 6.68 0 011.23 1 3 3 0 015.77.92v.12l-.54 4.34a11.62 11.62 0 018.57 9.87 11.89 11.89 0 01.09 2.06 7.57 7.57 0 001.49 4.67 17.7 17.7 0 011 1.67 9 9 0 011.37-.11 8.79 8.79 0 014.56 1.32v-1.51h-.5a7.36 7.36 0 01-5.21-1.78c-2.36-2.36-1.68-6.65-1.65-6.83a1.11 1.11 0 01.92-.92 10.3 10.3 0 011.64-.11 7.35 7.35 0 015.21 1.78A6 6 0 0140.76 24a10.43 10.43 0 01.59-1 1.13 1.13 0 01.93-.5 1.17 1.17 0 01.63.19 1.15 1.15 0 01.48.72 1.2 1.2 0 01-.17.85 15.08 15.08 0 00-2.14 6.06v.12a8.72 8.72 0 014.57-1.33 8.65 8.65 0 018 5.48 13.89 13.89 0 01.08 9.21 17.35 17.35 0 01-5.24 8.37 9.18 9.18 0 01-5.8 2.34 6.9 6.9 0 01-2-.28 7.47 7.47 0 01-.79-.29 7.47 7.47 0 01-.79.29 6.85 6.85 0 01-2 .28 9.18 9.18 0 01-5.8-2.34 14.51 14.51 0 01-1.74-1.76 15.29 15.29 0 01-10.29 4.1zm20-27.39c0-1.56-.15-3.64-1.34-4.83-1.36-1.37-3.82-1.32-4.84-1.23-.09 1-.14 3.49 1.22 4.85s4.08 1.3 5.01 1.21zm-7 4a6.89 6.89 0 00-4.45 4.1 12.16 12.16 0 000 8.06 15.55 15.55 0 004.69 7.52c2 1.69 4.21 2.3 6.15 1.72a5.51 5.51 0 001-.41.67.67 0 01.3-.08.61.61 0 01.3.08 5.31 5.31 0 001 .41c1.94.58 4.12 0 6.15-1.72a15.54 15.54 0 004.68-7.52 12.23 12.23 0 000-8.06 6.88 6.88 0 00-4.46-4.1 7.14 7.14 0 00-7.2 2 .59.59 0 01-.44.18.62.62 0 01-.44-.18 7.13 7.13 0 00-7.24-1.98zM18.47 10.07c.13.38.25.74.35 1.08a10.05 10.05 0 011.1 0l.59-4.71a1.21 1.21 0 00-2.42 0zm-7.11.79c2 1.25 4.94.62 6.15.27-.55-1.73-1.4-4-3.18-5.08-2.06-1.28-4.9-.73-6.05-.42.25 1.16 1.02 3.95 3.08 5.23zM8.49 28a15.73 15.73 0 00-3.18 11c.63 7.28 6.25 13.12 13.09 13.58a12.39 12.39 0 0010.06-4.09 18.73 18.73 0 01-2.32-5 13.39 13.39 0 01.07-8.89 8.29 8.29 0 014.71-4.72 15.17 15.17 0 00-1-1.48 8.89 8.89 0 01-1.32-5.76 9.54 9.54 0 00-.08-1.77 9.8 9.8 0 00-7.73-8.49 7.2 7.2 0 00-3 0A9.74 9.74 0 0010 22.3v.66A7.44 7.44 0 018.49 28zm16.71-5.65a.9.9 0 00.59-.33.89.89 0 00.17-.65 7.69 7.69 0 00-3.49-5.5.86.86 0 00-.46-.14.88.88 0 00-.46 1.62 5.9 5.9 0 012.67 4.25.88.88 0 00.87.76zm24.68 18.81a7 7 0 00-.28-5.38 4.65 4.65 0 00-2.85-2.3.69.69 0 00-.25 0 .89.89 0 00-.84.63.89.89 0 00.6 1.09 2.93 2.93 0 011.8 1.45 5.31 5.31 0 01.15 4 .87.87 0 00.06.67.89.89 0 00.52.43 1.07 1.07 0 00.25 0 .87.87 0 00.84-.59z" fill="#fff"/></svg>