<svg xmlns="http://www.w3.org/2000/svg" viewBox="0 0 497.2 43.8"><path d="M365.714 13.429c-2 0-5.143 1.428-6 3.714h-.286v-3.428h-3.714V34h3.714V23.143c0-3.714 2.572-6 5.143-6 .857 0 1.429 0 2 .286L368 14c-.286-.571-1.143-.571-2.286-.571zM434.285 3.715H438v30h-3.715v-30zM422.285 13.429c-4 0-8 2.286-8 6 0 3.428 3.429 5.143 5.143 5.428l4 .858c2 .571 2.857 1.714 2.857 2.571 0 1.714-1.714 2.857-4 2.857-2.285 0-4.285-1.143-5.428-3.714l-3.429 1.428c1.143 2.858 4 5.715 8.572 5.715 4.571 0 8-2.572 8-6.286 0-2.286-1.715-4.857-5.429-5.714l-4-.857c-1.429-.286-2.571-1.143-2.571-2.286 0-1.714 2-2.572 4-2.572s3.714.858 4.571 2.572L429.714 18c-.857-3.143-4-4.571-7.429-4.571zM450.857 30.857c-2 0-4.286-.857-4.286-3.142 0-1.715 1.714-3.715 5.714-3.715 3.143 0 4.572 1.143 4.572 1.143-.286 3.143-3.143 5.714-6 5.714zm.571-17.428c-4.857 0-7.714 2.857-8.286 4.571l3.429 1.429c.571-1.714 3.143-2.572 5.143-2.572 2.857 0 5.143 1.715 5.143 4.858v.571c-.857-.571-2.572-1.143-5.429-1.143-4.571 0-8.857 2.286-8.857 6.857 0 4 3.714 6.572 7.714 6.572 3.429 0 5.429-1.715 6.286-3.429h.286v3.143h3.714V22c-.286-5.714-4.286-8.571-9.143-8.571zM378.571 30.857c-2 0-4.286-.857-4.286-3.142C374.285 26 376 24 380 24c3.142 0 4.571 1.143 4.571 1.143 0 3.143-3.143 5.714-6 5.714zm.857-17.428c-4.857 0-7.714 2.857-8.286 4.571l3.43 1.429c.57-1.714 3.142-2.572 5.142-2.572 2.857 0 5.143 1.715 5.143 4.858v.571c-.857-.571-2.572-1.143-5.429-1.143-4.571 0-8.857 2.286-8.857 6.857 0 4 3.714 6.572 7.714 6.572 3.429 0 5.429-1.715 6.286-3.429h.286v3.143h3.714V22c-.571-5.714-4.286-8.571-9.143-8.571zM481.714 21.429c.857-2.857 2.857-4.572 5.714-4.572 4.286 0 5.714 2.858 6 4.572h-11.714zm5.714-8c-6 0-9.714 4.857-9.714 10.571 0 6 4 10.572 10.286 10.572 4.57 0 7.428-2.572 8.857-5.429l-3.429-1.428c-1.143 2.571-3.143 3.428-5.428 3.428-3.143 0-6.286-2.286-6.286-6.286h15.714v-.57c-.286-6.858-4-10.858-10-10.858zM402.857 13.429c-2.857 0-5.429 1.714-6.286 3.428h-.286v-3.142h-3.714V34h3.714V23.143c0-3.143 2-6.286 5.429-6.286 2.857 0 5.143 1.43 5.143 5.715V34h3.714V22c0-5.143-2.571-8.571-7.714-8.571zM470.285 7.715h-3.714v6h-3.714v3.428h3.428v10.572c0 4 2.286 6.571 6.572 6.571 1.143 0 2.285-.286 3.143-.571l-1.429-3.143c-.571.285-1.143.285-1.714.285-1.715 0-2.857-1.142-2.857-3.428V17.143h4.857v-3.428H470l.285-6zM354.571 3.715H334v4h8.285V34H346V7.715h8.285l.286-4zM203.714 15.715v4.571h11.143c-.286 2.571-1.143 4.571-2.571 6-1.715 1.714-4.286 3.429-8.572 3.429-6.857 0-12.286-5.429-12.286-12.572s5.429-12.571 12.286-12.571c3.714 0 6.572 1.428 8.572 3.428l3.428-3.428C212.857 2 209.143-.285 204-.285c-9.429 0-17.429 7.714-17.429 17.142S194.571 34 204 34c5.143 0 8.857-1.714 12-4.857 3.143-3.143 4-7.428 4-10.857 0-1.143 0-2-.286-2.857h-16v.286zM233.714 11.715c-6 0-11.143 4.571-11.143 11.142 0 6.286 4.857 11.143 11.143 11.143 6 0 11.143-4.571 11.143-11.143 0-6.285-4.857-11.142-11.143-11.142zm0 17.714c-3.429 0-6.286-2.857-6.286-6.572 0-4 2.857-6.57 6.286-6.57 3.429 0 6.286 2.856 6.286 6.57 0 4-2.857 6.572-6.286 6.572zM288.285 14.286c-1.142-1.428-3.428-2.571-6-2.571-5.428 0-10.285 4.857-10.285 11.142C272 29.143 276.857 34 282.285 34c2.572 0 4.858-1.143 5.715-2.571h.285v1.428c0 4.286-2.285 6.572-6 6.572-2.857 0-4.857-2-5.714-4l-4.286 1.714c1.143 2.857 4.572 6.572 9.715 6.572 5.714 0 10.571-3.429 10.571-11.429v-20H288c.285 0 .285 2 .285 2zm-5.714 15.143c-3.428 0-6-2.857-6-6.572 0-4 2.572-6.57 6-6.57 3.429 0 6 2.856 6 6.856 0 3.714-2.571 6.286-6 6.286z" fill="currentColor"/><path d="M258.571 11.715c-6 0-11.143 4.571-11.143 11.142 0 6.286 4.857 11.143 11.143 11.143 6 0 11.143-4.571 11.143-11.143 0-6.285-4.857-11.142-11.143-11.142zm0 17.714c-3.428 0-6.286-2.857-6.286-6.572 0-4 2.858-6.57 6.286-6.57 3.429 0 6.286 2.856 6.286 6.57 0 4-2.857 6.572-6.286 6.572z"/><path d="M296.571.572h4.857V34h-4.857V.572zM316.285 29.429c-2.571 0-4.285-1.143-5.428-3.429l14.857-6-.571-1.143c-.858-2.57-3.715-7.142-9.429-7.142s-10.571 4.571-10.571 11.142C305.143 29.143 309.714 34 316 34c5.143 0 8-3.143 9.143-4.857l-3.715-2.571c-.857 1.714-2.571 2.857-5.143 2.857zM316 16c2 0 3.714 1.143 4.285 2.572l-10 4C310 17.715 313.428 16 316 16zM15.429 25.143c0 2.857-.572 4.857-2 6.572-1.143 1.714-2.858 2.571-5.143 2.571-2.286 0-4-.571-5.143-2v8.857H0V15.715h2.857v2C4 16.286 6 15.429 8 15.429c2.286 0 4 .857 5.143 2.571 1.428 1.715 2.286 3.715 2.286 7.143 0-.286 0 0 0 0zm-3.143-.571c0-2-.572-3.715-1.429-4.857C10 18.572 8.857 18 7.143 18c-2 0-3.143.857-4.286 2.572v8.571c.857 1.714 2.286 2.572 4.286 2.572 1.428 0 2.571-.572 3.428-1.715 1.143-1.143 1.715-2.857 1.715-5.428zM18.571 24.572c0-1.715.286-3.429 1.143-4.857.572-1.429 1.715-2.572 2.857-3.143 1.143-.857 2.572-1.143 4.286-1.143 2.572 0 4.572.857 6 2.571 1.429 1.715 2.286 4 2.286 6.857v.286c0 1.714-.286 3.429-1.143 4.857-.571 1.429-1.714 2.572-2.857 3.143C30 34 28.57 34.286 26.857 34.286c-2.571 0-4.571-.857-6-2.571-1.714-1.715-2.286-4-2.286-7.143 0 .285 0 0 0 0zm2.858.571c0 2 .571 3.429 1.428 4.857.857 1.143 2.286 1.715 3.714 1.715 1.715 0 2.858-.572 3.715-1.715.857-1.143 1.428-2.857 1.428-5.143 0-2-.571-3.714-1.428-4.857-.857-1.143-2.286-2-3.715-2-1.428 0-2.857.572-3.714 1.715-.857 1.428-1.428 3.142-1.428 5.428zM54.857 29.715L58.286 16h3.143l-5.143 18h-2.572L49.43 20.286 45.143 34H42.57l-5.428-18.285h3.143l3.428 13.428L48 15.715h2.571l4.286 14zM72 34.286c-2.571 0-4.571-.857-6-2.286-1.429-1.714-2.286-3.714-2.286-6.571v-.572c0-1.714.286-3.428 1.143-4.857.572-1.428 1.714-2.571 2.857-3.428 1.143-.857 2.572-1.143 4-1.143 2.286 0 4.286.857 5.429 2.286 1.428 1.428 2 3.714 2 6.571v1.429H66.857c0 1.714.572 3.142 1.429 4.285 1.143 1.143 2.285 1.715 3.714 1.715 1.143 0 2-.286 2.857-.572.857-.571 1.429-1.143 2-1.714l2 1.428c-1.429 2.286-3.714 3.43-6.857 3.43zM71.714 18c-1.143 0-2.285.572-3.143 1.429-.857.857-1.428 2.286-1.714 3.714H76v-.286c0-1.714-.572-2.857-1.143-3.714C74 18.572 73.143 18 71.714 18zM91.428 18.572H90c-2 0-3.429.857-4 2.571V34h-3.143V15.715h2.857v2C86.857 16 88.286 15.429 90 15.429c.571 0 1.143 0 1.428.286v2.857zM101.428 34.286c-2.571 0-4.571-.857-6-2.286-1.428-1.714-2.285-3.714-2.285-6.571v-.572c0-1.714.285-3.428 1.143-4.857.571-1.428 1.714-2.571 2.857-3.428 1.143-.857 2.571-1.143 4-1.143 2.285 0 4.285.857 5.428 2.286 1.429 1.428 2 3.714 2 6.571v1.429H96.286c0 1.714.571 3.142 1.428 4.285 1.143 1.143 2.286 1.715 3.714 1.715 1.143 0 2-.286 2.858-.572.857-.571 1.428-1.143 2-1.714l2 1.428c-1.429 2.286-3.715 3.43-6.858 3.43zM101.143 18C100 18 98.857 18.572 98 19.43c-.857.857-1.429 2.286-1.714 3.714h9.142v-.286c0-1.714-.571-2.857-1.142-3.714-.858-.571-1.715-1.143-3.143-1.143zM111.428 24.572c0-2.857.572-5.143 2-6.572 1.429-1.714 3.143-2.571 5.143-2.571s3.715.857 5.143 2.286V8.286h3.143V34H124l-.286-2c-1.143 1.429-2.857 2.286-5.143 2.286-2 0-3.714-.857-5.143-2.571-1.428-1.715-2-4-2-7.143zm3.143.571c0 2 .286 3.714 1.143 4.857.857 1.143 2 1.715 3.429 1.715 2 0 3.428-.858 4.285-2.572v-8.286c-.857-1.714-2.285-2.57-4.285-2.57-1.429 0-2.572.57-3.429 1.713-.857 1.143-1.143 2.857-1.143 5.143zM155.428 25.143c0 2.857-.571 4.857-2 6.572-1.142 1.714-2.857 2.571-5.142 2.571-2.286 0-4-.857-5.429-2.286v2H140V8.286h3.143V18c1.143-1.428 2.857-2.285 5.143-2.285s4 .857 5.142 2.571c1.429 1.429 2 3.714 2 6.857zm-3.142-.571c0-2-.286-3.715-1.143-4.857-.857-1.143-2-1.715-3.429-1.715-2 0-3.428.857-4.286 2.857v7.715c.858 2 2.286 2.857 4.572 2.857 1.428 0 2.571-.572 3.428-1.714.572-.858.858-2.572.858-5.143zM165.143 29.429l4.285-13.714h3.429l-7.143 20.857c-1.143 3.143-2.857 4.571-5.428 4.571h-.572l-1.143-.286v-2.285h.857c1.143 0 2-.286 2.572-.572.571-.285 1.143-1.143 1.428-2.285L164 34l-6.857-18.285h3.428l4.572 13.714z" fill="currentColor"/></svg>