<svg xmlns="http://www.w3.org/2000/svg" viewBox="0 0 58 58"><path data-name="At the Park" d="M53 49.94a.94.94 0 01-.95-.88L48.66 10h-4.32v29.6h1.16a.92.92 0 011 1v2.39a.91.91 0 01-1 1H31.33a.91.91 0 01-.95-1v-2.46a.92.92 0 01.95-1h1V10h-7.24v29.6h1.16a.92.92 0 011 1v2.39a.92.92 0 01-1 1H12.08a.91.91 0 01-.95-1v-2.46a.92.92 0 01.95-1H13V10H9.35L5.91 49.08a1 1 0 01-1 .86 1.07 1.07 0 01-.88-1l3.52-40a1 1 0 011-.86h41a.94.94 0 01.95.88L54 48.9a.92.92 0 01-.2.73.88.88 0 01-.69.31zM23.26 39.67V10.06H15v29.61zm2.26 2.6l.15-.15v-.79l-.15-.15H13l-.15.15v.79l.15.15zm19.18 0l.15-.15v-.79l-.15-.15H32.13l-.15.15v.79l.15.15zm-2.2-2.6V10.06h-8.24v29.61z" fill="#fff"/></svg>