<svg xmlns="http://www.w3.org/2000/svg" viewBox="199.5 -150.5 50 50"><path d="M249.201-138.746a2.146 2.146 0 00-.057-2.277 2.14 2.14 0 00-2.066-.956l-8.068.994a2.879 2.879 0 01-2.506-.947l-5.393-6.082a2.176 2.176 0 00-2.183-.651 2.147 2.147 0 00-1.549 1.67l-1.548 7.981a2.88 2.88 0 01-1.676 2.09l-7.452 3.249a2.142 2.142 0 00-1.292 1.875 2.143 2.143 0 001.109 1.989l7.112 3.939a2.877 2.877 0 011.47 2.239l.787 8.092a2.145 2.145 0 001.384 1.808 2.14 2.14 0 001.331.063c.336-.092.649-.266.904-.503l5.942-5.547c.341-.317.757-.55 1.206-.672a2.898 2.898 0 011.379-.034l7.938 1.751a2.162 2.162 0 002.148-.758 2.143 2.143 0 00.272-2.261l-3.438-7.366a2.876 2.876 0 01.126-2.675l4.12-7.011zm-2.55 18.741l-.272-.506-7.939-1.751a4.796 4.796 0 00-2.278.056 4.777 4.777 0 00-1.992 1.111l-5.941 5.545c-.034.031-.074.054-.192.076a.269.269 0 01-.097-.018.274.274 0 01-.179-.233l-.787-8.091a4.758 4.758 0 00-2.429-3.701l-7.112-3.939a.272.272 0 01-.143-.256.275.275 0 01.167-.242l7.452-3.249a4.752 4.752 0 002.768-3.454l1.549-7.981a.275.275 0 01.276-.225.27.27 0 01.205.094l5.393 6.083a4.76 4.76 0 004.141 1.565l8.104-.996c.095 0 .179.046.231.126.059.091.063.2.007.294l-4.119 7.008a4.755 4.755 0 00-.209 4.422l3.438 7.366a.278.278 0 01-.18.387l.138.509zM245.49-110.707a.954.954 0 00-.025-1.015.959.959 0 00-.803-.434l-2.79.336a.708.708 0 01-.613-.232l-1.784-2.014a.98.98 0 00-.973-.289.958.958 0 00-.691.744l-.512 2.641a.703.703 0 01-.411.512l-2.465 1.076a.949.949 0 00-.576.836.956.956 0 00.494.887l2.354 1.304a.706.706 0 01.36.548l.261 2.679a.954.954 0 00.957.867.952.952 0 00.655-.259l1.967-1.836a.718.718 0 01.296-.165.747.747 0 01.339-.008l2.625.579a.957.957 0 00.96-.338.96.96 0 00.12-1.007l-1.138-2.439a.7.7 0 01.031-.655l1.362-2.318zm-2.407 3.448l1.005 2.153-2.32-.512a1.816 1.816 0 00-1.635.447l-1.736 1.643-.232-2.387a1.824 1.824 0 00-.931-1.417l-2.079-1.151 2.179-.95a1.82 1.82 0 001.06-1.323l.453-2.332 1.576 1.778a1.82 1.82 0 001.586.599l2.358-.291-1.204 2.049a1.827 1.827 0 00-.08 1.694zM203.295-103.066c3.801-6.668 8.998-12.169 15.274-16.565.995-.697.047-2.345-.959-1.64-6.541 4.582-11.993 10.295-15.955 17.247-.608 1.065 1.033 2.022 1.64.958zM216.302-104.847c.39-4.232 2.017-8.037 4.595-11.394.746-.972-.905-1.916-1.64-.959-2.793 3.638-4.433 7.786-4.854 12.353-.113 1.22 1.788 1.209 1.899 0zM201.062-112.035c3.736-4.791 8.559-8.365 14.274-10.45 1.141-.416.649-2.253-.505-1.832-6.02 2.196-11.167 5.879-15.112 10.938-.744.955.59 2.31 1.343 1.344z"/></svg>