<svg xmlns="http://www.w3.org/2000/svg" viewBox="0 0 58 58"><path d="M49.9 11.58h-7.22V8.22a2.22 2.22 0 10-4.43 0v3.36H19.79V8.22a2.22 2.22 0 10-4.43 0v3.36H8.1a2.12 2.12 0 00-2.1 2.1v4.89h46v-4.89a2.12 2.12 0 00-2.1-2.1zM7.28 17.29v-3.61a.84.84 0 01.82-.82h8.54V8.22a.94.94 0 111.87 0v4.64h21V8.22a.94.94 0 111.88 0v4.64h8.5a.84.84 0 01.82.82v3.61zM6 49.9A2.13 2.13 0 008.1 52h41.8a2.13 2.13 0 002.1-2.1V20.56H6zm1.47.63V22h43.06v28.5zM29 27.66a8.64 8.64 0 108.63 8.64A8.62 8.62 0 0029 27.66zm0 15.57a6.93 6.93 0 116.93-6.93A6.94 6.94 0 0129 43.23zm-1.18-3.84a.85.85 0 01-.62-.26L25 37a.82.82 0 01-.26-.58.66.66 0 01.24-.55.9.9 0 01.64-.28.8.8 0 01.61.26l1.57 1.56 3.89-3.89a.89.89 0 01.61-.26.8.8 0 01.62.26.79.79 0 01.26.57 1 1 0 01-.27.6l-4.5 4.49a.89.89 0 01-.59.21z" fill="#fff"/></svg>