<svg xmlns="http://www.w3.org/2000/svg" viewBox="0 0 58 58"><path d="M10.51 54a6.51 6.51 0 010-13 6.64 6.64 0 012.19.38l13.63-13.63a15.18 15.18 0 114.08 4L16.7 45.47a6.66 6.66 0 01.32 2A6.52 6.52 0 0110.51 54zm15.38-39.64l3.49 3.51a.19.19 0 000-.08l2.42-10.5a13.86 13.86 0 00-5.91 7.07zm13.4 13.48a.57.57 0 010-.13L42 15.8l-11.9 2.74h-.09zm12.42-3.7l-8.37-8.43L40.74 27l10.81-2.49c.06-.11.11-.24.16-.37zM33.26 6.54L30.83 17.1l11.3-2.6-8.19-8.24zm5.57-1.18a14 14 0 00-3.56.47l16.88 17a14.08 14.08 0 00.49-3.64A13.83 13.83 0 0038.83 5.36zM50.84 26l-10.79 2.45h-.14l3.65 3.67A13.89 13.89 0 0050.84 26zm-8.62 6.58L25.47 15.7A13.78 13.78 0 0038.83 33a13.07 13.07 0 003.39-.45zm-12.83-1.7a15.24 15.24 0 01-2.14-2.11L13.9 42.08a6.38 6.38 0 012.1 2.16zM10.51 52.64a5.15 5.15 0 10-5.15-5.15 5.16 5.16 0 005.15 5.15z" fill="#fff"/></svg>