<svg xmlns="http://www.w3.org/2000/svg" viewBox="0 0 89 85.6"><path d="M22.7 85.6c-1.9 0-3.8-.6-5.4-1.8-2.9-2.1-4.3-5.5-3.7-9l3-17.9c.2-1-.2-2.1-.9-2.8l-13-12.6C.3 39-.6 35.4.5 32s3.9-5.8 7.4-6.3l17.9-2.6c1-.2 1.9-.8 2.4-1.8l8-16.3c1.6-3 4.7-5 8.3-5 3.5 0 6.7 2 8.2 5.1l8 16.2c.5.9 1.4 1.6 2.4 1.7L81 25.6c3.5.5 6.3 2.9 7.4 6.3s.2 7-2.3 9.4L73.2 54c-.8.7-1.1 1.8-.9 2.8l3.1 17.9c.6 3.5-.8 6.9-3.6 9-2.9 2.1-6.6 2.3-9.7.7L46 76c-.9-.5-2-.5-3 0l-16 8.4c-1.3.8-2.8 1.2-4.3 1.2zM44.5 6c-1.2 0-2.3.7-2.9 1.8l-8 16.3a9 9 0 01-6.9 5l-18 2.6c-1.2.2-2.2 1-2.6 2.2-.4 1.2-.1 2.4.8 3.3l13 12.6c2.2 2.1 3.2 5.2 2.7 8.1l-3 17.9c-.2 1.2.3 2.4 1.3 3.1 1 .7 2.3.8 3.4.2l16-8.4c2.7-1.4 5.9-1.4 8.6 0l16 8.4c1.1.6 2.4.5 3.4-.2s1.5-1.9 1.3-3.1l-3.1-17.9c-.5-3 .5-6 2.6-8.1l13-12.7c.9-.9 1.2-2.1.8-3.3-.4-1.2-1.4-2-2.6-2.2l-18-2.6a9 9 0 01-6.9-5l-8-16.2C46.8 6.7 45.7 6 44.5 6z" fill="currentColor"/></svg>