<svg xmlns="http://www.w3.org/2000/svg" viewBox="0 0 50 50"><path d="M44.431 37.422h4.256V5.148H1.313v32.274h35.095l1.682 1.313H0V3.834h50v34.901h-6.908l1.339-1.313z"/><path d="M45.037 30.631l-.022-20.957a.106.106 0 00-.103-.103H5.597a.106.106 0 00-.103.103v24.362c0 .055.048.103.103.103h29.341l-.106 1.313H5.597a1.418 1.418 0 01-1.416-1.416V9.674c0-.781.636-1.416 1.416-1.416h39.314c.781 0 1.416.636 1.416 1.416v22.214l-1.29-1.257z"/><path d="M39.184 16.919H10.41a.657.657 0 110-1.314h28.774a.657.657 0 110 1.314zM39.184 20.921H10.41a.657.657 0 110-1.314h28.774a.657.657 0 110 1.314zM33.126 24.924H10.41a.657.657 0 110-1.314h22.716a.657.657 0 110 1.314zM40.435 39.814c-.326 0-.652-.102-.93-.305l-.601-.44a.868.868 0 00-.499-.161l-.744.003h-.005c-.687 0-1.29-.439-1.501-1.094l-.227-.709a.84.84 0 00-.309-.425l-.603-.435a1.567 1.567 0 01-.574-1.77l.231-.706a.844.844 0 000-.526l-.231-.707a1.569 1.569 0 01.574-1.77l.603-.435a.844.844 0 00.309-.426l.227-.707a1.573 1.573 0 011.501-1.095h.005l.744.003h.003a.848.848 0 00.497-.162l.599-.439a1.601 1.601 0 011.862-.001l.602.44a.835.835 0 00.496.161h.003l.743-.003c.666-.029 1.296.438 1.506 1.095l.227.708c.055.169.165.32.31.425l.603.435c.56.404.79 1.115.574 1.77l-.232.706a.859.859 0 000 .526l.232.706a1.57 1.57 0 01-.574 1.77l-.603.435a.854.854 0 00-.31.426l-.227.707a1.57 1.57 0 01-1.501 1.095h-.005l-.743-.003h-.003a.835.835 0 00-.497.162l-.599.439a1.572 1.572 0 01-.933.307zm-2.027-1.642c.332 0 .662.108.931.304l.601.44a.84.84 0 00.994-.001l.599-.439c.273-.2.595-.305.931-.305h.005l.743.003h.003a.837.837 0 00.801-.583l.227-.708c.102-.319.308-.602.579-.797l.603-.435a.836.836 0 00.306-.945L45.5 34a1.576 1.576 0 010-.984l.232-.706a.838.838 0 00-.306-.945l-.603-.435a1.584 1.584 0 01-.579-.796l-.227-.709a.837.837 0 00-.801-.583h-.003l-.743.003h-.005c-.336 0-.658-.105-.93-.304l-.601-.44a.858.858 0 00-.994.001l-.599.439c-.27.196-.6.305-.932.305h-.004l-.744-.003h-.003a.838.838 0 00-.801.584l-.227.707a1.568 1.568 0 01-.579.797l-.603.435a.835.835 0 00-.306.945l.231.707c.107.322.107.662 0 .985l-.231.706a.838.838 0 00.306.945l.603.435c.274.198.474.473.579.796l.227.709a.839.839 0 00.801.583h.003l.744-.003c-.001-.002.001-.002.003-.002zM38.956 46.166a.56.56 0 01-.312-.095l-1.405-.937-2.521.962a.558.558 0 01-.597-.133.557.557 0 01-.109-.598l2.605-6.149.372.307c.032.02.368.215 1.195.16.452-.016.876.155 1.223.474l.073.072c.09.068.227.154.369.224l.233.113-.579 5.11a.553.553 0 01-.547.49zm-.183-.574v.003-.003zm.279-.133l.003.002-.003-.002zm-1.721-1.147l1.475.984.489-4.311a2.988 2.988 0 01-.311-.217l-.067-.064c-.213-.195-.461-.317-.696-.288-.588.042-.998-.024-1.269-.11l-2.097 4.951 2.476-.945zm4.585 1.854a.549.549 0 01-.547-.493l-.579-5.091.22-.118c.139-.074.268-.172.396-.268.241-.179.514-.382.858-.473.241-.031.441-.028.639-.031.397-.001.736.002.997-.18l.371-.259 2.59 6.111a.564.564 0 01-.111.601.565.565 0 01-.594.132l-2.522-.962-1.409.938a.563.563 0 01-.309.093zm.183-.576v0zm-.283-.129s-.001 0 0 0zm-.241-4.481l.49 4.316 1.476-.984 2.475.945-2.094-4.943c-.341.114-.696.108-1.022.113-.172-.001-.34-.002-.502.017-.154.044-.347.189-.553.341a5.783 5.783 0 01-.27.195z"/><path d="M40.436 30.295c1.856 0 3.368 1.511 3.368 3.368s-1.511 3.368-3.368 3.368-3.368-1.512-3.368-3.368a3.373 3.373 0 013.368-3.368z"/></svg>