<svg version="1.1" id="Layer_1" xmlns="http://www.w3.org/2000/svg" x="0" y="0" viewBox="0 0 508.4 145.5" xml:space="preserve"><style>.st0{fill:#f99601}</style><path class="st0" d="M321.8 145.3V52.4c0-1 .2-1.3 1.2-1.3 11.2.1 22.5.1 33.7 0 1 0 1.3.3 1.2 1.3v13.4c0 .4-.1.9.2 1.5 1.4-1.4 2.7-2.8 4-4.1 5.1-4.9 10.6-9.2 17.6-10.9 8.7-2.2 17.1-1.4 24.6 4 3.5 2.5 5.8 5.9 7.6 9.7.3.5.5 1.1.8 1.8.7-.7 1.3-1.4 1.9-2 5.6-5.8 12-10.6 19.9-12.9 7.7-2.3 15.4-2.3 22.8 1 6.7 2.9 10.5 8.3 12.7 15.1 1.4 4.4 2 8.9 2 13.5v62c0 .3-.1.6.1.9h-36.2V95.2c0-1.2-.1-2.3-.2-3.5-.7-5-4-7.9-9-8.1-3.9-.2-7.3.9-10.6 2.9-.9.5-1.2 1.2-1.2 2.2v55.8c0 .3-.1.6.1.8h-36.2V95.4c0-1.2-.1-2.4-.2-3.6-.7-4.9-3.5-7.7-8.5-8.3-4.1-.4-7.7.8-11.1 2.9-.9.5-1.2 1.1-1.2 2.1v55.9c0 .3-.1.6.1.8-12 .1-24.1.1-36.1.1zM.2 51.2h37.1c1 0 1.4.3 1.8 1.2C45 68.2 51 84 57 99.8c.1.4.3.7.5 1.3.2-.5.4-.9.5-1.2C64.1 84 70.2 68.1 76.2 52.2c.2-.6.5-1 1.3-1h36.7c.2 0 .4 0 .7.1-13.4 31.4-26.8 62.7-40.2 94H40.1v-.3C27.4 115.1 14.7 85.3 1.9 55.4c-.5-1.3-.9-2.6-1.8-3.7.1-.2.1-.3.1-.5zM122.8 145.3c.2-.3.1-.6.1-.9V52.7c0-1.3.4-1.5 1.6-1.5h32.9c1.7 0 1.7 0 1.7 1.7v14.5c.4.1.4-.2.5-.3 5.6-7.9 13.4-12.5 22.7-14.7 3.7-.9 7.5-1.3 11.3-1.2.8 0 1 .2 1 1v21.6c0 1-.6 1-1.2 1.2-6.8 1.2-13 3.9-18.4 8.2-8.7 7-13.6 16.1-15.4 27-.4 2.5-.5 5-.5 7.5v27.6h-36.3zM496.7 145.3c-.4-.4-.5-.9-.5-1.5v-9.9c0-.7-.1-1.5.8-1.6 1-.1 2.1-.4 2.6.9.7 1.8 1.4 3.5 2.2 5.3.1.2.2.5.5 1 .9-2.1 1.6-4 2.4-5.9.3-.7.7-1.2 1.5-1.3 1.6-.1 2 .2 2 1.8v9.6c0 .7-.1 1.3-.7 1.7h-1c-.4-.5-.5-1-.5-1.6v-7.7c-1 1.8-1.7 3.6-2.4 5.5-.3.7-.7 1.1-1.5 1.1s-1.1-.5-1.3-1.1c-.7-1.8-1.5-3.6-2.2-5.4-.2 2.5-.2 5-.2 7.5 0 .7-.1 1.3-.7 1.7-.3-.1-.7-.1-1-.1zM487.8 145.3c-.3-.5-.5-1-.5-1.7v-8.3c0-.8-.2-1.1-1-1-.8.1-1.6 0-2.4 0-.7 0-1-.4-1-1.1 0-.7.3-1 1-1h9c.7 0 1 .4 1.1 1 0 .7-.3 1-1 1h-2.4c-.8-.1-.9.3-.9 1v8.3c0 .7-.1 1.2-.6 1.7-.5.1-.9.1-1.3.1z"/><path class="st0" d="M258.9 145.1c-12.6-.1-23.7-4.1-33.5-12-.8-.7-1.1-.5-1.7.2-6.1 7.8-14.1 11.7-24 11.6-14.6-.1-27.1-11.7-28.5-26.3-1.5-15.5 8.9-29.1 24.1-31.8 3.2-.6 6.4-.6 9.5 0 1 .2 1.3-.1 1.4-1 .6-6.3 2.4-12.2 5.4-17.8 8.6-16.2 22-26 40.2-28.5 17.6-2.4 32.8 3 45.2 15.6 8.5 8.6 13.4 19.1 14.6 31.2 1.6 16.3-3.2 30.5-14.4 42.4-9.1 9.6-20.4 14.9-33.6 16.2-1.5.1-3.1.2-4.7.2zM280 92c0-11.6-9.4-21.1-21-21.1-11.2 0-21.2 8.8-21.2 21.1 0 11.6 9.5 21 20.8 21.1 11.9 0 21.4-9.3 21.4-21.1zm-79.7 33.4c5.4 0 9.8-4.3 9.8-9.7 0-5.4-4.4-9.8-9.7-9.8-5.4 0-9.8 4.4-9.8 9.7 0 5.4 4.4 9.8 9.7 9.8zM18 11.7c3.8-4.9 10.9-3.8 12.9.7.3 0 .3-.3.5-.4 2.3-3.1 5.7-4.2 9.3-3 2.7.8 4.4 3.2 4.5 6.6.1 4 .1 7.9 0 11.9 0 1.6-.9 2.3-2.8 2.4-2.1 0-3.1-.6-3.1-2.4-.1-3 0-5.9-.1-8.9v-.8c0-2.1-.8-3.4-2.3-3.9-1.7-.5-3.8.3-4.9 1.8-.3.5-.4.9-.4 1.5 0 3.2-.1 6.4 0 9.6.1 3.3-2.1 3.6-4.7 2.9-.8-.2-1.2-1-1.3-1.8-.2-2.8 0-5.6-.1-8.4 0-.8 0-1.7-.1-2.5-.3-2.4-2.1-3.6-4.4-3-1.9.5-3 1.9-3 3.9V27c0 2.7-2.4 4.1-4.8 2.7-.8-.5-1.1-1.3-1.1-2.1V10.3c0-.6.3-.8.8-1 2.4-1.2 4.3-.2 5.1 2.4zM168 11.2V1.8c0-.9.4-1.3 1.2-1.4 2.6-.6 4.4.7 4.8 3.3.1.5.1 1 .1 1.6 0 7-.1 14.1 0 21.1 0 3.1-1.5 3.7-4.4 3.2-1.4-.3-1.5-1.6-1.7-2.9-1.3 1.6-2.7 2.8-4.7 3.2-4.3.8-8.4-1.2-10.1-5.2-1.6-3.6-1.6-7.3 0-10.9 2.3-5.8 10.3-7.2 14.8-2.6zm0 7.6c-.2-.9.3-2-.3-3-1.1-1.9-3.2-2.9-5.5-2.5-2.2.3-3.6 1.7-4.2 3.8-.4 1.4-.4 2.8 0 4.1.6 2.4 2.6 4 4.9 4 2.4 0 4.4-1.4 5-3.5.2-.9 0-1.8.1-2.9zM55.5 11.9c2.4-3.4 5.7-4.1 9.3-3.1 4 1.1 6 4.1 6.6 8 .6 3.7.1 7.2-2.5 10.2-3.2 3.8-10.1 4.4-13.1 0-.1-.1-.2-.1-.4-.3v7.9c0 2.7-2.2 4-4.7 2.8-.6-.3-.9-.8-1.1-1.4-.1-.5-.2-1.1-.2-1.7V10.4c0-1.2.5-1.6 1.6-1.7 2.2-.2 3.2.5 4.5 3.2zm-.1 6.8v1.7c.2 2.8 1.9 4.6 4.5 4.9 2.6.3 4.8-1.2 5.6-3.9.3-1 .3-2 .2-3.1-.3-3.2-2.5-5.1-5.6-5-3 .2-4.7 2.1-4.7 5.4zM215.7 26.7v8c0 1.1-.1 2.2-1.2 2.7-1.2.5-2.5.6-3.7-.1-1-.6-1.1-1.6-1.1-2.6V16.8v-6.6c0-.8.3-1.1.9-1.3 2.4-.7 4.1.2 5 2.9h.2c3.1-5.1 12.7-4.5 15.3 2.8 1.1 3.1 1.1 6.2 0 9.3-2.4 6.7-11.3 8.4-15.4 2.8zm0-7.8v1.6c.1 2.2 1.4 4 3.5 4.6 2.9.8 5.6-.7 6.5-3.6 1.1-3.5-.4-7-3.3-8-3.7-1.2-6.7 1.3-6.7 5.4zM142.9 26.8c-2.6 3-5.9 3.6-9.5 2.8-2.5-.6-4.1-2.5-4.3-4.7-.3-2.9.7-4.9 3.2-6.1 2.8-1.4 5.9-1.6 9-1.8 1.8-.1 2-.5 1.2-2.1s-2.8-2.3-5-1.8c-1.3.3-2.5.9-3.1 2.1-.6 1.2-1.5 1.1-2.5.8-1.1-.3-1.9-.9-2-2.2-.1-1.5.7-2.5 1.8-3.3 1.5-1.1 3.1-1.6 4.9-1.8 2.2-.3 4.5-.3 6.7.3 3.6 1 5.6 3.5 5.6 7.3.1 4.1 0 8.2 0 12.2 0 .8-.3 1-1 1.2-2.6.5-3.9-.2-5-2.9zm-5.3-.8c3.3 0 5.4-2.1 5.2-5 0-.4 0-.8-.5-.7-2.1.1-4.3.1-6.3 1.1-1 .5-1.4 1.4-1.3 2.5.1 1.1.9 1.7 1.9 1.9.4.2.9.2 1 .2zM89 26.7c-2.1 2.7-4.7 3.8-8 3.3-3.5-.5-5.8-2.8-6.1-6.5-.4-4.1-.3-8.2-.1-12.3.1-1.9 1-2.5 3.1-2.4 1.9.1 2.8.8 2.8 2.7.1 2.8 0 5.7 0 8.5 0 .6 0 1.3.1 1.9.3 2.1 2 3.4 4.1 3.2 2.1-.2 4.2-2 4.1-3.9-.2-3.1-.1-6.3-.1-9.5 0-1.1.1-2.2 1.2-2.6 1.2-.5 2.5-.5 3.7.1.9.5 1 1.5 1.1 2.4v16.8c0 .6-.3.9-.8 1.1-2.3.7-4.1-.2-5.1-2.8zM188.3 8.5c6.5 0 10.9 4.4 11 10.7 0 6.5-4.4 10.9-11.1 10.9-6.5 0-10.9-4.4-10.9-10.8 0-6.5 4.4-10.8 11-10.8zm-5.7 10.7c0 3.6 2.4 6.1 5.7 6.1 3.3 0 5.7-2.5 5.7-5.9 0-3.5-2.5-6.3-5.7-6.2-3.3 0-5.7 2.5-5.7 6zM245.1 8.5c6.6.1 10.9 4.5 10.9 11.1-.1 6.3-4.7 10.6-11.2 10.5-6.6-.1-10.8-4.5-10.8-11.2.1-6.1 4.7-10.5 11.1-10.4zm5.6 10.8c0-3.5-2.4-6.2-5.7-6.2-3.2 0-5.8 2.7-5.8 6.1 0 3.5 2.5 6.1 5.8 6.1 3.2 0 5.7-2.6 5.7-6zM117.3 29.9c-2.2 0-4.3-.2-6.3-1.2-.8-.4-1.4-.9-1.9-1.6-.8-1.2-.6-2.5.4-3.5.5-.5.9-.7 1.6-.1 2.2 1.9 4.8 2.5 7.7 2.1.3-.1.6-.1.9-.3.7-.3 1.1-.8 1.1-1.6 0-.7-.5-1.2-1.1-1.4-1.3-.5-2.7-.7-4.1-1-1-.2-2-.5-3-.9-2-.9-3.3-2.3-3.5-4.6-.2-2.4.7-4.3 2.7-5.6 2.5-1.6 5.3-1.7 8.1-1.4 1.6.2 3.2.6 4.6 1.5 1.9 1.4 2.1 3.4.5 4.8-.5.5-.9.6-1.5 0-1.8-1.8-4.1-2.4-6.6-2.1-.5.1-1 .2-1.5.5-1.2.8-1.1 2.1.1 2.7 1.3.6 2.7.8 4 1.1 1.2.3 2.5.6 3.6 1.2 4.1 2 4.5 7.3.8 9.9-1.8 1.3-4.2 1.5-6.6 1.5zM1 15.8V5.2C1 4.1 1 3 2.2 2.4c1.3-.6 2.7-.6 4 .1.5.2.8.7.9 1.2.1.5.2 1 .2 1.5v21.2c0 .5-.1 1-.2 1.4-.2 1-.9 1.5-1.8 1.7-.8.1-1.6.1-2.4 0-1-.1-1.6-.8-1.8-1.7-.1-.4-.1-1-.1-1.5V15.8zM99.5 14.4V1.9c0-1 .3-1.4 1.3-1.6 2.5-.4 4.2.7 4.6 3.3.1.5.1 1 .1 1.4 0 7.2-.1 14.3 0 21.5 0 3.2-2.1 3.6-4.7 2.9-1.1-.3-1.3-1.4-1.3-2.4V14.4zM265.2 11.8c1.1-2.5 3.1-3.6 5.8-3.3 1.4.2 2.5.9 2.9 2.4.3 1.4.1 2.7-1 3.7-.4.4-.7.5-1.2.1-2.7-1.5-5.1-.5-5.9 2.5-.3 1-.4 2-.4 3v6.6c0 1.1-.2 2.2-1.3 2.6-1.2.5-2.5.5-3.7-.2-.8-.4-1-1.2-1-2.1V10c0-.7.3-.9.9-1.1 2.2-.7 3.8.1 4.9 2.9z"/></svg>