<svg xmlns="http://www.w3.org/2000/svg" viewBox="0 0 49.8 35.7"><path class="st0" d="M13.5 16.4c-2.9 0-5.2-2.3-5.2-5.2 0-2.9 2.3-5.2 5.2-5.2 2.9 0 5.2 2.3 5.2 5.2 0 2.9-2.4 5.2-5.2 5.2zm0-8.3c-1.7 0-3.2 1.4-3.2 3.2 0 1.7 1.4 3.2 3.2 3.2 1.7 0 3.2-1.4 3.2-3.2-.1-1.8-1.5-3.2-3.2-3.2z"/><path class="st0" d="M20 29.4H6.9c-.6 0-1-.5-1-1v-5.7c0-3.5 2.9-6.4 6.4-6.4h2.3c3.5 0 6.4 2.9 6.4 6.4v5.7c.1.6-.4 1-1 1zm-12.1-2H19v-4.7c0-2.4-2-4.4-4.4-4.4h-2.3c-2.4 0-4.4 2-4.4 4.4v4.7z"/><path class="st0" d="M48.2 35.3H1.3c-.6 0-1-.5-1-1V1.6c0-.6.5-1 1-1h46.9c.6 0 1 .5 1 1v32.7c0 .5-.4 1-1 1zM2.4 33.2h44.9V2.6H2.4v30.6z"/><path class="st0" d="M41.4 12.2H26.3c-.6 0-1-.5-1-1 0-.6.5-1 1-1h15.1c.6 0 1 .5 1 1 0 .6-.4 1-1 1zM41.4 18.9H26.3c-.6 0-1-.5-1-1s.5-1 1-1h15.1c.6 0 1 .5 1 1s-.4 1-1 1zM41.4 25.6H26.3c-.6 0-1-.5-1-1 0-.6.5-1 1-1h15.1c.6 0 1 .5 1 1 0 .6-.4 1-1 1z"/></svg>