<svg id="Layer_1" data-name="Layer 1" xmlns="http://www.w3.org/2000/svg" viewBox="0 0 507.937 145.089"><style>.fill-color-vroom{fill:#f6901e}</style><path class="fill-color-vroom" d="M444.491 51.252c-12.643 0-23.474 6.9-31.927 16.594-4.414-11.027-12.949-16.594-25.186-16.594-12.662 0-21.694 7.784-29.723 16.411V51.206l-36.06-.018v93.9h36.06V87.162a18.038 18.038 0 0110.83-3.822c5.83 0 10.233 2.817 10.233 11.645v50.103h36.052V87.231a18.155 18.155 0 0110.86-3.817c5.806 0 10.231 2.811 10.231 11.638v50.036h36.06v-61.51c0-19.89-8.75-32.326-27.43-32.326M258.747 38.88a53.028 53.028 0 00-52.783 48.045 29.246 29.246 0 1018.288 45.238 53.028 53.028 0 1034.495-93.283m-58.588 86.504a9.789 9.789 0 119.801-9.793 9.789 9.789 0 01-9.8 9.793m58.587-12.331a21.134 21.134 0 1121.127-21.121 21.118 21.118 0 01-21.127 21.121"/><path class="fill-color-vroom" d="M194.253 74.607V51.194s-23.336-1.795-35.488 16.697V51.1l-36.002.08v93.869h36.002v-28.533c0-17.639 11.486-38.046 35.488-41.91M57.339 101.243L38.287 51.181H0l40.109 93.869h34.515l40.121-93.869H76.452l-19.113 50.062zM2.55 14.784a17.295 17.295 0 011.243-6.976 12.79 12.79 0 012.533-3.73 10.595 10.595 0 013.516-2.449A14.936 14.936 0 0115.705.553a12.772 12.772 0 019.62 3.73q3.61 3.73 3.61 10.372 0 6.587-3.582 10.307a12.673 12.673 0 01-9.574 3.72 12.802 12.802 0 01-9.648-3.702Q2.549 21.278 2.55 14.784zm5.66-.185q0 4.62 2.133 7.004a6.95 6.95 0 005.418 2.384 6.893 6.893 0 005.39-2.365q2.106-2.366 2.106-7.097 0-4.676-2.05-6.977a6.938 6.938 0 00-5.446-2.3 6.984 6.984 0 00-5.474 2.328Q8.21 9.905 8.21 14.599zM32.96 28.218V1.017h5.215v9.797a7.377 7.377 0 015.715-2.746 7.684 7.684 0 015.956 2.607q2.356 2.607 2.357 7.486 0 5.047-2.403 7.775a7.499 7.499 0 01-5.836 2.727 7.217 7.217 0 01-3.33-.844 7.958 7.958 0 01-2.83-2.496v2.895zm5.178-10.28a8.378 8.378 0 00.965 4.528 4.124 4.124 0 003.6 2.078 3.689 3.689 0 002.94-1.475 7.26 7.26 0 001.216-4.648q0-3.376-1.225-4.87a3.876 3.876 0 00-3.136-1.494 3.93 3.93 0 00-3.117 1.456 6.687 6.687 0 00-1.243 4.426zM54.559 22.596l5.232-.798a3.83 3.83 0 001.355 2.31 4.575 4.575 0 002.857.789 5.157 5.157 0 003.043-.743 1.657 1.657 0 00.686-1.391 1.37 1.37 0 00-.37-.984 4.163 4.163 0 00-1.745-.686Q59.308 19.7 57.62 18.55a5.076 5.076 0 01-2.338-4.435 5.465 5.465 0 012.023-4.304q2.022-1.744 6.271-1.745 4.045 0 6.012 1.318a6.736 6.736 0 012.709 3.896l-4.917.91a3.043 3.043 0 00-1.197-1.763 4.378 4.378 0 00-2.514-.612 5.666 5.666 0 00-2.95.575 1.236 1.236 0 00-.594 1.057 1.152 1.152 0 00.52.947 19.544 19.544 0 004.87 1.466 14.505 14.505 0 015.817 2.319 4.821 4.821 0 011.633 3.878 5.953 5.953 0 01-2.264 4.657q-2.264 1.948-6.698 1.948a10.987 10.987 0 01-6.374-1.633 7.52 7.52 0 01-3.07-4.434zM77.53 14.858V1.018h5.213v9.407l2.542-2.152v3.525l-2.542 2.152v14.269H77.53v-9.834l-2.542 2.152v-3.525zM101.057 28.218v-2.95a7.592 7.592 0 01-2.83 2.486 7.934 7.934 0 01-3.702.91 7.24 7.24 0 01-3.563-.873 5.142 5.142 0 01-2.282-2.449 10.924 10.924 0 01-.705-4.36V8.512h5.215v9.056a25.094 25.094 0 00.288 5.093 2.773 2.773 0 001.048 1.484 3.22 3.22 0 001.93.548 4.1 4.1 0 002.393-.733 3.727 3.727 0 001.448-1.819 21.107 21.107 0 00.39-5.316V8.513h5.214v19.705zM110.816 29.517l5.956.723a2.032 2.032 0 00.687 1.43 3.919 3.919 0 002.338.556 6.073 6.073 0 003.061-.613 2.527 2.527 0 001.04-1.317 7.924 7.924 0 00.24-2.393v-2.876a7.054 7.054 0 01-5.9 3.19 7.262 7.262 0 01-6.29-3.357 11.414 11.414 0 01-1.818-6.606q0-4.954 2.384-7.57a7.694 7.694 0 015.928-2.616 7.219 7.219 0 016.03 3.21V8.513h4.88v17.682a17.625 17.625 0 01-.575 5.214 6.467 6.467 0 01-1.614 2.71 7.15 7.15 0 01-2.774 1.54 14.605 14.605 0 01-4.388.556q-5.01 0-7.106-1.716a5.385 5.385 0 01-2.097-4.351c0-.174.006-.384.018-.631zm4.658-11.56a7.103 7.103 0 001.215 4.593 3.757 3.757 0 002.997 1.456 4.142 4.142 0 003.228-1.493 6.512 6.512 0 001.317-4.425 6.902 6.902 0 00-1.261-4.546 4.01 4.01 0 00-3.192-1.485 3.85 3.85 0 00-3.089 1.457 6.83 6.83 0 00-1.215 4.443zM134.51 5.841V1.017h5.215V5.84zm0 22.377V8.513h5.215v19.705zM148.742 28.218l-6.234-19.705h5.065l3.693 12.914 3.395-12.914h5.029l3.284 12.914 3.766-12.914h5.14l-6.327 19.705h-5.01l-3.396-12.673-3.34 12.673zM178.523 14.525l-4.732-.854a7.37 7.37 0 012.746-4.23 10.051 10.051 0 015.79-1.373 12.48 12.48 0 015.195.826 5.186 5.186 0 012.402 2.096 10.752 10.752 0 01.696 4.667l-.055 6.086a21.127 21.127 0 00.25 3.831 11.16 11.16 0 00.937 2.644h-5.159q-.204-.519-.5-1.54-.13-.463-.186-.612a9.389 9.389 0 01-2.858 1.948 8.191 8.191 0 01-3.247.65 6.714 6.714 0 01-4.796-1.652 5.488 5.488 0 01-1.754-4.175 5.602 5.602 0 01.798-2.978 5.21 5.21 0 012.236-2.004 17.489 17.489 0 014.147-1.215 28.39 28.39 0 005.066-1.28v-.52a2.7 2.7 0 00-.743-2.143 4.448 4.448 0 00-2.801-.64 3.732 3.732 0 00-2.171.547 3.805 3.805 0 00-1.261 1.92zm6.976 4.23a32.529 32.529 0 01-3.173.798 9.564 9.564 0 00-2.839.909 2.174 2.174 0 00-1.02 1.837 2.556 2.556 0 00.817 1.892 2.848 2.848 0 002.078.798 4.515 4.515 0 002.69-.928 3.266 3.266 0 001.243-1.725 10.309 10.309 0 00.204-2.542zM213.684 28.218h-5.214V18.16a15.543 15.543 0 00-.334-4.128 2.897 2.897 0 00-1.085-1.457 3.103 3.103 0 00-1.81-.52 4.18 4.18 0 00-2.43.743 3.738 3.738 0 00-1.475 1.967 16.994 16.994 0 00-.4 4.527v8.925h-5.213V8.513h4.843v2.894a8.075 8.075 0 019.648-2.718 5.293 5.293 0 012.162 1.586 5.757 5.757 0 011.02 2.19 16.306 16.306 0 01.287 3.507zM230.383 21.946l5.195.872a8.52 8.52 0 01-3.163 4.352 9.293 9.293 0 01-5.41 1.493q-5.14 0-7.607-3.358a11.282 11.282 0 01-1.948-6.791q0-4.899 2.56-7.673a8.433 8.433 0 016.476-2.773 8.748 8.748 0 016.94 2.903q2.542 2.905 2.43 8.897h-13.062a5.274 5.274 0 001.262 3.61 3.945 3.945 0 003.005 1.29 3.192 3.192 0 002.06-.669 4.126 4.126 0 001.262-2.153zm.297-5.27a5.02 5.02 0 00-1.17-3.441 3.763 3.763 0 00-5.529.064 4.81 4.81 0 00-1.094 3.377zM250.515 8.513h4.861v2.894a7.278 7.278 0 012.56-2.412 7.06 7.06 0 013.582-.927 7.514 7.514 0 015.826 2.69q2.393 2.69 2.393 7.496 0 4.935-2.412 7.672a7.515 7.515 0 01-5.844 2.737 6.64 6.64 0 01-2.96-.65 9.95 9.95 0 01-2.793-2.226v9.927h-5.213zm5.158 9.518a7.586 7.586 0 001.317 4.908 4.03 4.03 0 003.21 1.586 3.768 3.768 0 003.025-1.456q1.205-1.456 1.206-4.778a7.127 7.127 0 00-1.243-4.601 3.846 3.846 0 00-3.08-1.503 4 4 0 00-3.173 1.475 6.562 6.562 0 00-1.262 4.37zM278.866 28.218h-5.214V8.513h4.843v2.802a8.415 8.415 0 012.236-2.617 4.11 4.11 0 012.254-.63 6.622 6.622 0 013.433.983l-1.614 4.546a4.58 4.58 0 00-2.45-.854 2.893 2.893 0 00-1.855.603 4.122 4.122 0 00-1.197 2.18 31.026 31.026 0 00-.436 6.606zM286.566 28.218v-4.064l7.385-8.48q1.818-2.077 2.69-2.95-.91.057-2.393.075l-6.958.037V8.513h16.29v3.692l-7.533 8.684-2.653 2.876q2.171-.13 2.69-.13h8.071v4.583zM319.074 21.946l5.196.872a8.518 8.518 0 01-3.164 4.352 9.29 9.29 0 01-5.409 1.493q-5.14 0-7.607-3.358a11.282 11.282 0 01-1.948-6.791q0-4.899 2.56-7.673a8.433 8.433 0 016.475-2.773 8.749 8.749 0 016.94 2.903q2.542 2.905 2.43 8.897h-13.062a5.271 5.271 0 001.262 3.61 3.945 3.945 0 003.006 1.29 3.192 3.192 0 002.06-.669 4.128 4.128 0 001.261-2.153zm.297-5.27a5.02 5.02 0 00-1.169-3.441 3.763 3.763 0 00-5.53.064 4.81 4.81 0 00-1.094 3.377zM326.7 28.218v-4.064l7.385-8.48q1.818-2.077 2.69-2.95-.91.057-2.394.075l-6.958.037V8.513h16.291v3.692l-7.533 8.684-2.653 2.876q2.17-.13 2.69-.13h8.072v4.583zM489.837 144.97a7.187 7.187 0 01-5.358-2.11 8.009 8.009 0 01.02-10.785 7.846 7.846 0 0110.72-.034 8.026 8.026 0 01-.021 10.796 7.206 7.206 0 01-5.361 2.133m.024-1.317a5.752 5.752 0 004.342-1.731 6.745 6.745 0 00-.033-8.91 6.274 6.274 0 00-8.676-.021 6.728 6.728 0 00.034 8.898 5.75 5.75 0 004.333 1.764m2.299-2.211a1.398 1.398 0 01-1.23-.781l-1.36-1.944h-.804v1.72q0 .962-.915.961h-.29c-.596 0-.895-.396-.895-1.184v-5.539q0-1.16 1.095-1.16h2.389q3.26 0 3.26 2.523a2.158 2.158 0 01-1.831 2.299l1.787 2.345c.029.045-.008.127-.112.246a1.668 1.668 0 01-.47.347 1.319 1.319 0 01-.624.167m-3.44-6.297v2.032h1.318c.85 0 1.273-.335 1.273-1.005q0-1.026-1.318-1.027z"/></svg>