<svg viewBox="90 200 320 100" xmlns="http://www.w3.org/2000/svg"><g fill="#9C9C9C"><path fill-rule="evenodd" d="M367.968 240.84c-2.108 0-5.046 1.491-5.874 3.81h-.166v-3.5h-3.643v20.278h3.809v-10.902c0-3.726 2.648-5.918 5.254-5.918.829 0 1.492.081 2.029.29l1.448-3.559c-.785-.331-1.614-.499-2.857-.499zM436.574 231.316h3.806v30.112h-3.806v-30.112zM424.737 240.84c-4.095 0-7.906 2.288-7.906 5.859 0 3.453 3.454 5.017 5.26 5.46l4.091.963c2.089.522 2.806 1.606 2.806 2.61 0 1.643-1.763 2.72-4.051 2.72-2.369 0-4.412-1.155-5.455-3.696l-3.291 1.366c1.163 2.859 3.971 5.67 8.709 5.67 4.614 0 7.862-2.69 7.862-6.18 0-2.41-1.642-4.818-5.537-5.742l-4.011-.923c-1.566-.36-2.606-1.042-2.606-2.288 0-1.606 1.92-2.478 4.009-2.478 1.925 0 3.848.764 4.614 2.61l3.209-1.324c-1.203-3.012-4.292-4.627-7.703-4.627zM453.082 258.368c-1.928 0-4.308-.993-4.308-3.079 0-1.805 1.737-3.779 5.631-3.779 3.132 0 4.643 1.17 4.643 1.17 0 3.211-3.037 5.688-5.966 5.688zm.8-17.528c-4.937 0-7.717 2.874-8.4 4.68l3.372 1.446c.683-1.846 3.063-2.703 5.108-2.703 2.772 0 5.086 1.72 5.086 4.838v.564c-.766-.442-2.634-1.206-5.286-1.206-4.614 0-8.902 2.295-8.902 6.75 0 4.094 3.605 6.583 7.617 6.583 3.374 0 5.325-1.817 6.411-3.462h.16v3.098h3.586v-12.16c0-5.539-3.934-8.428-8.752-8.428zM380.922 258.368c-1.925 0-4.308-.993-4.308-3.079 0-1.805 1.74-3.779 5.634-3.779 3.129 0 4.64 1.17 4.64 1.17 0 3.211-3.034 5.688-5.966 5.688zm.803-17.528c-4.937 0-7.72 2.874-8.403 4.68l3.372 1.446c.686-1.846 3.063-2.703 5.111-2.703 2.769 0 5.083 1.72 5.083 4.838v.564c-.763-.442-2.634-1.206-5.286-1.206-4.614 0-8.9 2.295-8.9 6.75 0 4.094 3.603 6.583 7.618 6.583 3.371 0 5.322-1.817 6.408-3.462h.16v3.098h3.589v-12.16c0-5.539-3.935-8.428-8.752-8.428zM483.994 248.924c.734-2.867 2.934-4.661 5.708-4.661 4.28 0 5.746 2.958 5.869 4.66h-11.577zm5.788-8.084c-5.868 0-9.782 4.895-9.782 10.476 0 5.941 4.077 10.476 10.19 10.476 4.607 0 7.544-2.57 8.724-5.379l-3.343-1.364c-1.06 2.49-3.26 3.319-5.463 3.319-3.097 0-6.154-2.195-6.357-6.347h15.774s.043-.425.043-.705c0-6.343-3.834-10.476-9.786-10.476zM405.08 240.84c-2.775 0-5.34 1.613-6.415 3.474h-.165v-3.164h-3.643v20.278h3.808v-10.864c0-3.103 2.029-6.25 5.337-6.25 2.898 0 5.009 1.408 5.009 5.629v11.485h3.809v-12.062c0-5.008-2.566-8.526-7.74-8.526zM472.568 235.126h-3.806v6.024h-3.56v3.507h3.56v10.638c0 4.14 2.275 6.497 6.538 6.497 1.282 0 2.194-.165 3.062-.537l-1.322-3.27c-.54.247-1.038.331-1.74.331-1.778 0-2.732-1.034-2.732-3.312v-10.347h4.966v-3.507h-4.966v-6.024zM357 231.316h-20.62v3.905h8.383v26.19h3.857v-26.19H357v-3.905zM206.171 243.103v4.682h11.206c-.335 2.634-1.213 4.558-2.55 5.895-1.633 1.63-4.183 3.428-8.656 3.428-6.9 0-12.293-5.56-12.293-12.459s5.392-12.459 12.293-12.459c3.72 0 6.439 1.463 8.446 3.345l3.303-3.305c-2.802-2.674-6.522-4.723-11.749-4.723-9.45 0-17.394 7.693-17.394 17.142 0 9.45 7.945 17.143 17.394 17.143 5.1 0 8.947-1.672 11.958-4.807 3.094-3.096 4.056-7.444 4.056-10.956 0-1.086-.084-2.09-.252-2.926h-15.762zM236.19 239.299c-6.118 0-11.107 4.653-11.107 11.065 0 6.37 4.99 11.064 11.107 11.064 6.12 0 11.107-4.695 11.107-11.064 0-6.412-4.987-11.065-11.107-11.065zm0 17.77c-3.352 0-6.246-2.766-6.246-6.705 0-3.981 2.894-6.707 6.246-6.707 3.353 0 6.246 2.726 6.246 6.707 0 3.939-2.893 6.704-6.246 6.704zM290.628 241.773h-.168c-1.092-1.3-3.186-2.474-5.826-2.474-5.531 0-10.349 4.819-10.349 11.065 0 6.202 4.818 11.064 10.349 11.064 2.64 0 4.734-1.173 5.826-2.514h.168v1.547c0 4.232-2.263 6.495-5.91 6.495-2.975 0-4.82-2.137-5.573-3.939l-4.233 1.76c1.215 2.933 4.442 6.54 9.806 6.54 5.702 0 10.519-3.353 10.519-11.527V239.87h-4.609v1.904zm-5.573 15.295c-3.352 0-5.907-2.849-5.907-6.704 0-3.897 2.555-6.707 5.907-6.707 3.313 0 5.908 2.852 5.908 6.749 0 3.855-2.595 6.662-5.908 6.662zM260.952 239.299c-6.118 0-11.107 4.653-11.107 11.065 0 6.37 4.989 11.064 11.107 11.064 6.12 0 11.107-4.695 11.107-11.064 0-6.412-4.987-11.065-11.107-11.065zm0 17.77c-3.352 0-6.244-2.766-6.244-6.705 0-3.981 2.892-6.707 6.244-6.707 3.353 0 6.246 2.726 6.246 6.707 0 3.939-2.893 6.704-6.246 6.704zM299.048 227.964h4.78v33.464h-4.78v-33.464zM318.6 257.068c-2.472 0-4.232-1.129-5.366-3.35l14.794-6.12-.503-1.257c-.922-2.472-3.728-7.042-9.471-7.042-5.7 0-10.434 4.486-10.434 11.065 0 6.204 4.691 11.064 10.98 11.064 5.071 0 8.003-3.1 9.22-4.904l-3.772-2.515c-1.257 1.846-2.977 3.06-5.448 3.06zm-.36-13.622c1.968 0 3.634 1.002 4.191 2.44l-9.994 4.143c0-4.665 3.3-6.583 5.803-6.583z"/><path d="M17.645 252.573c0 2.756-.63 4.977-1.892 6.663-1.26 1.685-2.968 2.528-5.122 2.528-2.2 0-3.929-.698-5.19-2.093v8.722H2.344v-25.078h2.829l.15 2.009c1.262-1.563 3.014-2.344 5.257-2.344 2.177 0 3.895.82 5.157 2.461 1.272 1.64 1.908 3.923 1.908 6.847v.285zm-3.097-.352c0-2.042-.435-3.655-1.306-4.838-.87-1.183-2.065-1.775-3.582-1.775-1.875 0-3.282.832-4.22 2.495v8.655c.927 1.652 2.345 2.478 4.253 2.478 1.484 0 2.662-.586 3.532-1.758.882-1.183 1.323-2.935 1.323-5.257zM20.776 252.204c0-1.774.346-3.37 1.038-4.788.703-1.417 1.674-2.51 2.913-3.28 1.25-.77 2.673-1.156 4.268-1.156 2.467 0 4.46.854 5.977 2.561 1.53 1.708 2.294 3.98 2.294 6.814v.218c0 1.763-.34 3.348-1.022 4.754-.67 1.395-1.635 2.483-2.896 3.265-1.25.781-2.69 1.172-4.319 1.172-2.455 0-4.448-.854-5.977-2.562-1.517-1.708-2.276-3.968-2.276-6.78v-.218zm3.113.369c0 2.009.464 3.621 1.39 4.838.937 1.216 2.187 1.825 3.75 1.825 1.574 0 2.824-.614 3.75-1.842.926-1.239 1.39-2.969 1.39-5.19 0-1.986-.475-3.593-1.424-4.821-.937-1.239-2.187-1.858-3.75-1.858-1.529 0-2.762.608-3.7 1.824-.937 1.217-1.406 2.958-1.406 5.224zM57.187 257.16l3.483-13.845h3.097l-5.274 18.114h-2.51L51.578 247.7l-4.286 13.728h-2.51l-5.257-18.114h3.08l3.566 13.56 4.219-13.56h2.494l4.302 13.845zM74.447 261.764c-2.455 0-4.453-.804-5.993-2.411-1.54-1.619-2.31-3.778-2.31-6.479v-.57c0-1.796.34-3.398 1.021-4.804.692-1.417 1.652-2.522 2.88-3.315 1.238-.803 2.578-1.205 4.017-1.205 2.355 0 4.186.776 5.492 2.327 1.305 1.551 1.958 3.772 1.958 6.663v1.289h-12.27c.044 1.786.563 3.231 1.556 4.336 1.004 1.094 2.277 1.64 3.817 1.64 1.093 0 2.02-.223 2.779-.67a6.984 6.984 0 001.992-1.773l1.892 1.473c-1.518 2.332-3.795 3.499-6.83 3.499zm-.385-16.24c-1.25 0-2.299.458-3.147 1.373-.848.904-1.373 2.177-1.574 3.817h9.074v-.234c-.09-1.574-.513-2.79-1.272-3.65-.76-.87-1.786-1.305-3.08-1.305zM93.867 246.094a9.28 9.28 0 00-1.523-.117c-2.032 0-3.41.865-4.136 2.595v12.857h-3.096v-18.114h3.013l.05 2.092c1.016-1.618 2.455-2.427 4.32-2.427.602 0 1.06.078 1.372.234v2.88zM103.912 261.764c-2.456 0-4.454-.804-5.994-2.411-1.54-1.619-2.31-3.778-2.31-6.479v-.57c0-1.796.34-3.398 1.021-4.804.692-1.417 1.652-2.522 2.88-3.315 1.239-.803 2.578-1.205 4.018-1.205 2.355 0 4.185.776 5.49 2.327 1.307 1.551 1.96 3.772 1.96 6.663v1.289H98.704c.045 1.786.564 3.231 1.557 4.336 1.005 1.094 2.277 1.64 3.817 1.64 1.094 0 2.02-.223 2.78-.67a6.984 6.984 0 001.991-1.773l1.892 1.473c-1.518 2.332-3.795 3.499-6.83 3.499zm-.385-16.24c-1.25 0-2.3.458-3.148 1.373-.848.904-1.373 2.177-1.573 3.817h9.073v-.234c-.089-1.574-.513-2.79-1.272-3.65-.759-.87-1.786-1.305-3.08-1.305zM113.822 252.221c0-2.779.659-5.011 1.976-6.696 1.317-1.697 3.041-2.545 5.173-2.545 2.12 0 3.8.725 5.039 2.176v-9.442h3.097v25.715h-2.846l-.15-1.942c-1.24 1.518-2.964 2.277-5.174 2.277-2.098 0-3.811-.86-5.14-2.579-1.316-1.718-1.975-3.962-1.975-6.73v-.234zm3.098.352c0 2.053.424 3.66 1.272 4.821.848 1.16 2.02 1.741 3.516 1.741 1.964 0 3.398-.881 4.302-2.645v-8.32c-.926-1.708-2.35-2.562-4.269-2.562-1.518 0-2.7.586-3.55 1.758-.847 1.172-1.271 2.908-1.271 5.207zM157.768 252.573c0 2.768-.636 4.994-1.909 6.68-1.272 1.673-2.98 2.51-5.123 2.51-2.288 0-4.056-.809-5.306-2.427l-.151 2.093h-2.846v-25.715h3.097v9.593c1.25-1.551 2.974-2.327 5.173-2.327s3.923.831 5.173 2.494c1.261 1.663 1.892 3.94 1.892 6.83v.269zm-3.097-.352c0-2.11-.408-3.739-1.223-4.888-.814-1.15-1.986-1.725-3.515-1.725-2.043 0-3.51.949-4.403 2.846v7.835c.949 1.897 2.428 2.846 4.436 2.846 1.485 0 2.64-.575 3.466-1.724.826-1.15 1.239-2.88 1.239-5.19zM167.41 256.892l4.22-13.577h3.314l-7.282 20.91c-1.128 3.013-2.919 4.52-5.374 4.52l-.586-.05-1.155-.218v-2.511l.837.066c1.049 0 1.864-.212 2.444-.636.592-.424 1.077-1.2 1.456-2.327l.687-1.841-6.462-17.913h3.381l4.52 13.577z"/></g></svg>