<svg id="Layer_1" data-name="Layer 1" xmlns="http://www.w3.org/2000/svg" viewBox="0 0 494.16 148.8"><style>.fill-color-white{fill:#fff}</style><path class="fill-color-white" d="M494.16 141.612a9.518 9.518 0 01-2.557 4.598 8.117 8.117 0 01-8.661.942 7.445 7.445 0 01-3.817-7.417c.367-3.38 2.325-5.896 5.368-6.58 5.329-1.2 9.037 1.863 9.487 6.016.01.1.118.19.18.284zm-1.597-1.191a5.775 5.775 0 00-6.082-6.085c-3.49.02-5.826 2.442-5.841 6.05a5.91 5.91 0 006.021 6.217 5.827 5.827 0 005.902-6.182zM408.931 71.984a57.692 57.692 0 0110.542-9.46 36.636 36.636 0 0122.037-6.832c7.066.198 13.486 2.087 18.477 7.425a27.088 27.088 0 016.773 14.666 68.973 68.973 0 01.878 10.47c.082 19.526.04 39.053.04 58.579v1.528h-35.792v-1.401c0-16.012.019-32.025-.029-48.037a18.622 18.622 0 00-.656-5.073c-1.439-4.964-5.279-6.476-10.023-6.322a17.562 17.562 0 00-8.98 2.996 2.097 2.097 0 00-1.096 2.02q.046 27.133.023 54.266v1.543h-35.707v-1.412q0-23.599-.02-47.198a25.434 25.434 0 00-.465-4.988c-.911-4.479-3.865-6.967-8.425-7.27a17.002 17.002 0 00-11.247 3.333 2.216 2.216 0 00-.649 1.608q-.05 25.635-.027 51.271v4.704h-35.658V55.72h35.637v15.761l.262.148c1.523-1.544 3.003-3.135 4.578-4.624 4.297-4.06 8.94-7.67 14.626-9.558 8.939-2.968 17.628-2.549 25.731 2.647 4.095 2.626 6.742 6.504 8.716 10.875.129.285.255.571.454 1.015zM204.447 90.877a52.516 52.516 0 1186.54 44.774 51.116 51.116 0 01-34.175 12.665 52.02 52.02 0 01-34.112-12.484 29.308 29.308 0 01-37.9 8.813 29.003 29.003 0 01-14.147-32.23 28.34 28.34 0 0112.609-17.542 28.706 28.706 0 0121.185-3.996zm73.134 5.074a20.87 20.87 0 10-20.915 20.777 20.855 20.855 0 0020.916-20.777zm-78.801 32.961a9.643 9.643 0 00.095-19.285 9.643 9.643 0 10-.095 19.285zM.816 55.59h1.38c11.753 0 23.506.013 35.258-.024a1.513 1.513 0 011.701 1.187q8.95 23.647 17.978 47.265c.085.222.191.436.392.89.626-1.614 1.186-3.043 1.735-4.477q8.39-21.943 16.77-43.89c.23-.603.435-.975 1.225-.973q18.108.048 36.217.025c.226 0 .453.034.816.063-.234.601-.417 1.116-.632 1.617q-19.268 45.014-38.519 90.036a1.59 1.59 0 01-1.735 1.18q-15.83-.06-31.66-.006a1.598 1.598 0 01-1.78-1.12Q20.625 102.05 1.224 56.765c-.138-.321-.231-.662-.408-1.176z"/><path class="fill-color-white" d="M122.196 55.604h35.641v16.004a37.267 37.267 0 0115.46-12.349 45.97 45.97 0 0119.598-3.661v23.158c-1.566.365-3.212.661-4.805 1.135-15.934 4.746-25.437 15.523-29.206 31.479a44.314 44.314 0 00-.96 9.49c-.126 8.702-.043 17.407-.043 26.11v1.495h-1.338c-10.991 0-21.983-.015-32.974.025-1.096.004-1.398-.279-1.397-1.388q.046-45.094.024-90.189zM104.861 17.874c1.491-2.23 3.258-3.72 5.857-4.017 4.875-.559 8.108 1.86 8.411 6.728.247 3.976.119 7.98.056 11.97-.028 1.765-1.017 2.424-3.153 2.395-1.837-.026-2.762-.811-2.792-2.548-.05-2.873-.015-5.748-.017-8.622 0-.319.004-.638 0-.958-.026-2.083-.801-3.42-2.23-3.848a4.6 4.6 0 00-4.957 1.804 2.927 2.927 0 00-.326 1.466c-.028 3.194.014 6.387-.024 9.58-.027 2.241-.813 3.094-2.723 3.126-2.484.042-3.31-.765-3.317-3.264-.008-2.674-.002-5.349-.002-8.023 0-.28.006-.56-.002-.839-.05-1.633-.376-3.145-2.118-3.806a4.314 4.314 0 00-4.82 1.534 2.904 2.904 0 00-.562 1.612c-.05 3.272-.021 6.546-.026 9.82-.004 2.181-.792 2.968-2.947 2.966-2.152-.002-3.012-.826-3.014-2.934-.007-5.468.02-10.937-.025-16.405a1.268 1.268 0 011.175-1.462c2.37-.51 3.824.342 4.734 2.976a7.54 7.54 0 016.68-3.355c2.8.13 5.02 1.228 6.142 4.104zM29.986 21.26c.076 7.53-5.16 14.104-14.096 14.092-8.398-.012-14.013-5.866-13.972-14.42.04-8.27 5.956-13.93 14.515-13.89 7.886.038 13.579 6.01 13.553 14.218zm-6.13.004a22.158 22.158 0 00-.387-2.709c-.733-2.752-2.315-4.84-5.15-5.625a7.496 7.496 0 00-7.68 1.668c-2.142 2.077-2.667 4.738-2.45 7.584.409 5.368 4.85 8.609 9.948 7.301 3.41-.874 5.605-4.066 5.72-8.219zM39.342 31.795c0 2.936.004 5.559-.001 8.182-.004 2.192-.77 2.953-2.95 2.952-2.185-.001-3.008-.782-3.01-2.918-.007-8.105.016-16.21-.026-24.314a1.347 1.347 0 011.327-1.573c2.378-.408 3.575.333 4.612 2.981.131-.092.284-.148.353-.256 2.72-4.299 10.1-3.839 13.326-.03 3.96 4.674 3.15 13.439-1.692 16.89-3.112 2.218-8.877 2.6-11.939-1.914zm0-7.614c0 .4-.002.798 0 1.197a4.8 4.8 0 003.976 5.062c2.9.465 5.263-.808 5.983-3.494a9.98 9.98 0 00.198-4 4.816 4.816 0 00-4.21-4.278c-3.763-.445-5.947 1.579-5.947 5.513zM190.229 31.963c0 2.752.003 5.369-.001 7.986-.004 2.21-.76 2.978-2.921 2.98-2.238.003-3.039-.78-3.04-3.01-.005-8.064.02-16.129-.027-24.193-.007-1.105.46-1.465 1.42-1.613 2.357-.366 3.558.4 4.473 2.936.102-.027.255-.02.305-.088 2.257-3.094 5.363-3.68 8.849-2.868a8.556 8.556 0 016.628 6.833 12.786 12.786 0 01-1.749 10.857c-2.587 3.673-9.798 5.568-13.937.18zm0-7.784c0 .44-.005.878 0 1.317a4.807 4.807 0 003.854 4.93 5.007 5.007 0 006.01-3.135 7.272 7.272 0 00-.06-5.6 4.626 4.626 0 00-3.855-3.02c-3.763-.458-5.95 1.575-5.95 5.508zM222.358 22.319c.155-2.692-1.533-4.231-4.242-4.043a5.488 5.488 0 00-4.586 2.622 1.527 1.527 0 01-1.221.57c-1.17-.14-2.341-.51-2.764-1.771a2.87 2.87 0 01.985-3.347 12.515 12.515 0 013.957-2.087 15.89 15.89 0 018.291.01 7.013 7.013 0 015.575 7.028c.067 4.151-.005 8.304.036 12.456.008.804-.408 1.044-1.035 1.19a3.513 3.513 0 01-4.566-2.355 4.724 4.724 0 00-.262-.474c-2.45 2.938-5.608 3.56-9.128 2.876a5.593 5.593 0 01-4.686-4.66 5.654 5.654 0 013.36-6.374 21.718 21.718 0 018.281-1.636c.67-.04 1.344-.005 2.005-.005zm-.05 3.03c-2.132.402-4.216.676-6.227 1.22a2.231 2.231 0 00-1.648 2.597 2.3 2.3 0 002.053 2.022 4.775 4.775 0 005.822-5.84zM158.353 26.119a5.128 5.128 0 003.932 4.527c2.572.655 5.01.35 6.969-1.671.534-.551.853-1.423 1.889-.88 1.008.528 1.903 1.217 1.771 2.448a3.373 3.373 0 01-.916 2.1 10.834 10.834 0 01-3.44 2.047 14.156 14.156 0 01-8.484.077c-4.876-1.437-7.3-5.586-7.13-10.492a10.185 10.185 0 014.538-8.65 10.706 10.706 0 0111.368-.605c3.7 1.906 5.147 5.273 5.064 9.344-.029 1.426-.364 1.752-1.79 1.753-4.55.005-9.1.002-13.771.002zm.09-3.527h9.833a4.42 4.42 0 00-4.24-4.623 5.138 5.138 0 00-5.592 4.623zM142.285 13.626a38.79 38.79 0 014.974 1.119 6.034 6.034 0 012.494 1.933 2.603 2.603 0 01-.91 3.81 1.37 1.37 0 01-1.153-.33 7.816 7.816 0 00-6.868-1.97c-1.001.175-1.87.526-1.958 1.731-.086 1.177.789 1.454 1.654 1.694 1.995.553 4.032.979 5.988 1.643 2.993 1.017 4.185 2.663 4.18 5.4a5.821 5.821 0 01-4.278 5.825 15.95 15.95 0 01-10.345-.087 7.151 7.151 0 01-2.48-1.6 2.593 2.593 0 01-.404-3.39c.745-1.176 1.182-1.226 2.27-.343a9.21 9.21 0 007.796 1.739 1.714 1.714 0 001.643-1.623c.058-1.062-.64-1.492-1.497-1.727-1.958-.538-3.95-.963-5.885-1.569-2.135-.668-3.795-1.933-4.123-4.325a5.956 5.956 0 012.976-6.409 12.858 12.858 0 015.926-1.52zM60.413 19.037c-2.893-.342-3.47-.729-3.524-2.281-.058-1.703.413-2.072 3.538-2.696 0-.843-.029-1.715.006-2.584.07-1.75.842-2.574 2.429-2.646 2.354-.108 3.169.436 3.398 2.365.112.942.105 1.899.161 3.038 1.21 0 2.394-.04 3.574.01 1.667.07 2.267.747 2.248 2.416-.017 1.498-.666 2.205-2.173 2.26-1.232.045-2.468.01-3.861.01v5.41c0 1.117-.004 2.235.001 3.353.005 1.07.122 2.143 1.208 2.674a2.823 2.823 0 003.198-.672c.178-.148.348-.306.508-.449a2.814 2.814 0 01.409 4.59 6.074 6.074 0 01-4.665 1.494c-4.314-.166-6.27-2.187-6.422-6.526-.058-1.635-.028-3.273-.032-4.91-.004-1.593-.001-3.186-.001-4.856zM238.664 16.918c.223-.322.42-.6.61-.883a5.086 5.086 0 015.994-1.98 3.024 3.024 0 012.103 2.517 3.536 3.536 0 01-1.153 3.446 1.233 1.233 0 01-1.114.054c-2.78-1.485-5.294-.53-5.953 2.547a36.857 36.857 0 00-.454 5.932c-.06 1.273.011 2.552-.017 3.827-.038 1.752-.909 2.552-2.738 2.571-2.138.023-3.149-.722-3.206-2.493-.059-1.832-.014-3.667-.014-5.501 0-3.788.03-7.576-.022-11.363a1.258 1.258 0 011.19-1.446c2.282-.479 3.535.22 4.774 2.772zM75.527 24.48c0-2.512-.024-5.025.007-7.536.026-2.11.943-2.974 3.028-2.952 2.063.022 2.956.92 2.96 3.038q.016 7.476 0 14.953c-.004 2.088-.858 2.952-2.865 2.966-2.274.016-3.097-.73-3.123-2.933-.03-2.511-.007-5.023-.007-7.536zM123.503 24.52c0-2.512-.022-5.024.007-7.536.024-2.135.907-2.991 2.989-2.991 2.069 0 2.994.903 3 2.997q.018 7.476 0 14.953c-.003 2.157-.846 3-2.944 3.006-2.224.006-3.024-.763-3.047-3.012-.025-2.472-.006-4.944-.005-7.417zM162.158 11.654c-2.11-.03-2.492-.515-1.622-1.675a60.442 60.442 0 014.225-4.797 3.201 3.201 0 011.248-.67 2.887 2.887 0 013.421.933 2.669 2.669 0 01-.477 3.385 9.721 9.721 0 01-2.993 1.88 27.278 27.278 0 01-3.802.944zM129.816 7.914c-.012 1.943-1.208 3.022-3.344 3.017-2.068-.005-3.34-1.187-3.32-3.087.019-1.873 1.32-3.027 3.402-3.018 2.108.009 3.275 1.114 3.262 3.088zM81.84 7.877c-.004 1.96-1.172 3.039-3.307 3.054-2.067.014-3.356-1.156-3.357-3.049-.002-1.877 1.285-3.046 3.364-3.056 2.11-.01 3.304 1.094 3.3 3.05zM485.525 141.538c0 .862-.012 1.338.003 1.813.023.7-.315 1.019-1.004 1.046-.678.027-1.116-.267-1.126-.942-.033-1.995-.068-3.993.035-5.983.019-.357.66-.909 1.075-.972a12.3 12.3 0 012.866-.019c1.7.143 2.468.704 2.737 1.855.312 1.333-.038 2.06-1.564 3.114l1.56 2.173c-.875 1.067-1.654 1.096-2.413.101-.362-.475-.651-1.01-1.042-1.46a5.737 5.737 0 00-1.127-.726zm.101-3.466v2.055c.92-.114 2.26.487 2.307-.951.047-1.453-1.34-.915-2.307-1.104z"/></svg>