<svg xmlns="http://www.w3.org/2000/svg" viewBox="0 0 50 50"><path d="M17.037 7.746a1.778 1.778 0 10.652 3.496 1.778 1.778 0 00-.652-3.496zM42.056 31.41c-.004.002-1.302.644-3.297 1.3-1.997.656-4.662 1.305-7.276 1.303-4.145-.062-7.928-1.428-9.662-6.985a.961.961 0 00-.956-.678.96.96 0 00-.896.757c-.01.042-.393 1.839-.393 4.194-.005 3.41.809 8.349 5.433 10.178 1.241.48 2.483.69 3.689.69 8.26-.115 14.47-9.318 14.564-9.35a.961.961 0 00-.054-1.174.963.963 0 00-1.152-.235zm-13.358 8.844a8.268 8.268 0 01-3-.56c-3.401-1.269-4.207-5.165-4.209-8.394 0-.119 0-.236.003-.352 2.405 3.772 6.343 5.025 9.991 4.976 2.895-.007 5.713-.692 7.826-1.382-2.437 2.526-6.472 5.759-10.611 5.712zm19.841-20.261a.957.957 0 00-1.703-.401c-.002 0-.234.311-.721.824-1.466 1.552-5.03 4.619-9.736 4.601-.574 0-1.166-.045-1.772-.14-2.983-.466-4.886-2.027-5.888-3.185 3.022-2.163 4.999-5.701 4.999-9.706 0-6.597-5.347-11.944-11.945-11.944-4.769 0-8.874 2.804-10.787 6.847l-.013-.006v-.001s-.004.012-.053.095c-.376.585-2.28 3.466-8.242 3.721-.472.01-.952.263-1.226.637-.28.371-.386.809-.386 1.246 0 .24.032.495.103.76.695 2.413 4.193 5.412 9.36 5.479h.037c.44 0 .896-.034 1.356-.086.441.642.943 1.239 1.498 1.781-4.116 3.414-6.027 7.943-6.021 12.366-.002 6.653 4.258 13.091 11.372 15.467 2.951.983 5.808 1.438 8.505 1.438h.006c8.402.001 15.216-4.409 18.496-10.586 2.589-4.889 3.154-10.172 3.156-13.949 0-3.115-.387-5.219-.395-5.258zm-38.01-3.087c-4.328.068-7.304-2.893-7.508-4.047a1.17 1.17 0 01-.042-.258c3.195-.154 5.428-1.052 6.945-2.038-.056.467-.094.941-.094 1.423 0 1.751.387 3.408 1.064 4.906-.121.004-.246.014-.365.014zm33.559 21.396c-2.946 5.542-9.085 9.567-16.812 9.569-2.482 0-5.133-.417-7.9-1.341-6.327-2.111-10.06-7.807-10.064-13.65.008-4.162 1.876-8.39 6.167-11.546a.955.955 0 00.033-1.519c-2.3-1.842-3.772-4.658-3.772-7.829a10.043 10.043 0 0110.03-10.03 10.044 10.044 0 0110.033 10.03c0 3.686-1.991 6.892-4.954 8.639a.966.966 0 00-.447.605.972.972 0 00.129.742c.922 1.414 3.371 4.093 7.773 4.794.707.112 1.4.164 2.071.162 4.974-.029 8.628-2.768 10.522-4.591.067.79.122 1.78.122 2.913.005 3.589-.552 8.578-2.931 13.052z"/></svg>