<svg xmlns="http://www.w3.org/2000/svg" viewBox="0 0 50 50"><path d="M38.688 49.967H11.311a4.913 4.913 0 01-4.909-4.907V19.741c-.01-4.847 1.914-8.715 5.562-11.184C15.176 6.375 19.562 5.267 25 5.266c5.437.002 9.824 1.109 13.037 3.292 3.649 2.47 5.571 6.337 5.56 11.185V45.06a4.913 4.913 0 01-4.909 4.907zM24.987 6.841c-5.04 0-9.236 1.043-12.136 3.019-3.269 2.236-4.863 5.468-4.874 9.882V45.06a3.35 3.35 0 003.336 3.333h27.376a3.35 3.35 0 003.335-3.334V19.741c-.011-4.413-1.605-7.645-4.874-9.882-2.898-1.975-7.095-3.018-12.135-3.018h-.028z"/><path d="M38.982 20.532a.79.79 0 01-.787-.79c-.013-3.096-1.029-5.23-3.197-6.718-2.261-1.541-5.711-2.355-9.977-2.355h-.042c-4.269 0-7.718.815-9.977 2.357-2.171 1.487-3.188 3.621-3.199 6.717a.789.789 0 11-1.576-.001c-.01-3.574 1.298-6.272 3.889-8.019 2.53-1.717 6.294-2.626 10.884-2.63 4.589.004 8.352.913 10.884 2.631 2.59 1.747 3.898 4.446 3.887 8.019a.789.789 0 01-.789.789zM34.716 44.376h-19.43a3.153 3.153 0 01-3.142-3.143l-.001-7.359a3.152 3.152 0 013.144-3.142h19.428a3.15 3.15 0 013.142 3.141v7.36a3.153 3.153 0 01-3.141 3.143zM13.718 33.874v7.359a1.573 1.573 0 001.569 1.567h19.427a1.573 1.573 0 001.566-1.568v-7.358a1.574 1.574 0 00-1.567-1.568H15.286a1.572 1.572 0 00-1.568 1.568z"/><path d="M32.948 35.985H17.051a.789.789 0 010-1.575h15.897c.435 0 .789.354.789.788s-.354.787-.789.787zM27.319 18.189h-4.637c-.658 0-1.267-.162-1.761-.469-.587-.363-.926-.912-.928-1.506.002-.597.34-1.147.928-1.511.493-.305 1.102-.467 1.76-.468h4.638c.66.001 1.269.163 1.761.468.586.364.925.914.929 1.508-.005.598-.344 1.147-.929 1.51-.492.305-1.101.468-1.761.468zM20.886 3.358a.426.426 0 01-.244.401c-.309.132-.658.543-.933 1.05-.279.503-.493 1.078-.631 1.488a.41.41 0 01-.297.273c-.465.106-.918.229-1.36.365a.396.396 0 01-.384-.09.435.435 0 01-.131-.388c.133-.791.478-1.791.968-2.668.496-.866 1.112-1.643 1.964-1.843.182-.039.363-.075.542-.108a.387.387 0 01.328.086.43.43 0 01.15.318l.028 1.116zM29.381 2.165a.438.438 0 01.15-.318.386.386 0 01.328-.086c.18.033.361.069.542.108.852.199 1.468.977 1.964 1.843.49.877.835 1.877.968 2.668a.433.433 0 01-.131.388.396.396 0 01-.384.09 18.924 18.924 0 00-1.36-.365.41.41 0 01-.297-.273 9.112 9.112 0 00-.631-1.488c-.275-.507-.625-.918-.933-1.05a.425.425 0 01-.244-.401l.028-1.116z"/><g><path d="M29.106 4.235a1.06 1.06 0 01-.415-.089c-.184-.088-.688-.209-1.384-.279-1.267-.138-3.193-.14-4.49 0-.699.07-1.196.19-1.379.277a1.068 1.068 0 01-.401.092h-.003a.81.81 0 01-.635-.307.922.922 0 01-.189-.546l-.039-1.557c.026-.499.295-.88.738-1.056 2.863-.983 5.447-.98 8.294-.004l.009.004c.432.17.69.52.732.986l.004.009.001.091-.038 1.523a.918.918 0 01-.189.552.804.804 0 01-.616.304z"/></g></svg>