<svg xmlns="http://www.w3.org/2000/svg" viewBox="0 0 85.8 95"><path d="M74.6 7.9h-6.1V5.6C68.5 2.5 66 0 62.9 0s-5.6 2.5-5.6 5.6v2.3H28.6V5.6C28.6 2.5 26.1 0 23 0c-3.1 0-5.6 2.5-5.6 5.6v2.3h-6.2C5 7.9 0 12.9 0 19.1v64.7C0 90 5 95 11.2 95h63.4c6.2 0 11.2-5 11.2-11.2V19.1c0-6.2-5-11.2-11.2-11.2zm3.7 75.9c0 2-1.7 3.7-3.7 3.7H11.2c-2 0-3.7-1.7-3.7-3.7V28.7h70.8v55.1z"/><path d="M19.6 47.9H28c1 0 1.8-.8 1.8-1.8v-5.6c0-1-.8-1.8-1.8-1.8h-8.4c-1 0-1.8.8-1.8 1.8v5.6c0 1 .8 1.8 1.8 1.8zM38.7 47.9h8.4c1 0 1.8-.8 1.8-1.8v-5.6c0-1-.8-1.8-1.8-1.8h-8.4c-1 0-1.8.8-1.8 1.8v5.6c0 1 .8 1.8 1.8 1.8zM57.8 47.9h8.4c1 0 1.8-.8 1.8-1.8v-5.6c0-1-.8-1.8-1.8-1.8h-8.4c-1 0-1.8.8-1.8 1.8v5.6c0 1 .8 1.8 1.8 1.8zM19.6 62.5H28c1 0 1.8-.8 1.8-1.8v-5.6c0-1-.8-1.8-1.8-1.8h-8.4c-1 0-1.8.8-1.8 1.8v5.6c0 1 .8 1.8 1.8 1.8zM38.7 62.5h8.4c1 0 1.8-.8 1.8-1.8v-5.6c0-1-.8-1.8-1.8-1.8h-8.4c-1 0-1.8.8-1.8 1.8v5.6c0 1 .8 1.8 1.8 1.8zM57.8 62.5h8.4c1 0 1.8-.8 1.8-1.8v-5.6c0-1-.8-1.8-1.8-1.8h-8.4c-1 0-1.8.8-1.8 1.8v5.6c0 1 .8 1.8 1.8 1.8zM19.6 77.2H28c1 0 1.8-.8 1.8-1.8v-5.6c0-1-.8-1.8-1.8-1.8h-8.4c-1 0-1.8.8-1.8 1.8v5.6c0 1 .8 1.8 1.8 1.8zM38.7 77.2h8.4c1 0 1.8-.8 1.8-1.8v-5.6c0-1-.8-1.8-1.8-1.8h-8.4c-1 0-1.8.8-1.8 1.8v5.6c0 1 .8 1.8 1.8 1.8zM57.8 77.2h8.4c1 0 1.8-.8 1.8-1.8v-5.6c0-1-.8-1.8-1.8-1.8h-8.4c-1 0-1.8.8-1.8 1.8v5.6c0 1 .8 1.8 1.8 1.8z"/></svg>