<svg xmlns="http://www.w3.org/2000/svg" viewBox="0 0 50 50"><path d="M47.683 12.891v-.554a.385.385 0 00-.257-.363l-.019-.007a15.42 15.42 0 00-1.716-.482l-.015-1.063a.384.384 0 00-.259-.358l-.019-.006a11.717 11.717 0 00-1.662-.439l-.017-1.215a.384.384 0 00-.259-.358l-.019-.006c-1.083-.378-2.297-.57-3.604-.57-5.783 0-12.066 3.669-14.307 5.109-.189.121-.348.226-.477.312h-.109c-.129-.086-.288-.192-.477-.312-2.241-1.44-8.525-5.109-14.307-5.109-1.307 0-2.52.192-3.604.57l-.017.005a.384.384 0 00-.258.358l-.018 1.216c-.59.112-1.146.259-1.662.439l-.019.006a.386.386 0 00-.259.358l-.015 1.063c-.609.135-1.182.297-1.716.482l-.019.007a.385.385 0 00-.257.363v.554H.553a.472.472 0 00-.472.472v28.695c0 .261.211.472.472.472H49.447a.472.472 0 00.472-.472V13.363a.472.472 0 00-.472-.472h-1.764zm-1.27-.454c.202.059.34.244.34.454v26.306a.384.384 0 01-.435.381c-.863-.114-2.271-.241-4.244-.241-2.642 0-6.674.239-12.05 1.229 5.917-1.942 10.098-2.403 12.734-2.403 1.799 0 2.695.226 2.702.227l.132.035a.384.384 0 00.482-.377l-.347-24.114-.015-1.041-.009-.643c.243.057.48.12.71.187zm-2.005-1.904a.473.473 0 01.347.45l.004.32.011.749.012.84.016 1.041.334 23.21a.384.384 0 01-.425.388 18.227 18.227 0 00-1.948-.096c-2.67 0-6.862.454-12.738 2.346 5.951-2.806 10.013-3.292 12.111-3.292.916 0 1.394.097 1.397.098l.122.026a.385.385 0 00.466-.381l-.318-22.298-.015-1.041-.015-.997-.011-.739-.011-.781c.227.045.447.098.661.157zm-4.57-2.335c.955 0 1.852.112 2.672.335a.385.385 0 01.286.367l.008.574.011.739.012.842.011.734.016 1.102.015 1.041.306 21.452a.383.383 0 01-.403.389 13.357 13.357 0 00-.64-.015c-2.646 0-8.26.727-16.6 5.49V13.531a39.162 39.162 0 011.62-1.016c.489-.29 1.06-.615 1.696-.954 2.892-1.544 7.122-3.363 10.99-3.363zM7.203 8.9a.385.385 0 01.286-.367 10.19 10.19 0 012.672-.335c3.869 0 8.102 1.82 10.996 3.364a39.65 39.65 0 013.311 1.969v27.717c-8.34-4.764-13.954-5.49-16.6-5.49-.434 0-.785.02-1.05.044l.313-21.87.015-1.041.016-1.102.011-.734.012-.842.011-.739.007-.574zm-1.674 1.651c.233-.066.475-.125.724-.177l-.011.781-.011.739-.015.997-.015 1.041-.317 22.298a.385.385 0 00.463.381l.122-.026c.005-.001.482-.098 1.4-.098 2.098 0 6.16.486 12.111 3.292-5.876-1.892-10.067-2.346-12.738-2.346-.819 0-1.467.044-1.948.096a.384.384 0 01-.425-.388l.334-23.209.016-1.041.012-.84.011-.749.005-.386a.384.384 0 01.282-.365zm-2.005 1.905c.25-.074.507-.144.773-.208l-.009.643-.015 1.041-.347 24.109v.007a.384.384 0 00.48.376l.131-.034c.009-.002.906-.228 2.705-.228 2.636 0 6.817.461 12.734 2.403-5.376-.989-9.408-1.229-12.05-1.229-1.973 0-3.381.128-4.244.241a.384.384 0 01-.435-.381V12.825a.383.383 0 01.277-.369zM1.409 41.017V14.405c0-.261.211-.472.472-.472h.436v26.173c0 .248.231.431.473.374l.125-.029c.017-.004 1.682-.384 5.011-.384 2.771 0 7.105.27 12.962 1.423H1.881a.473.473 0 01-.472-.473zm46.71.472H29.112c5.857-1.154 10.191-1.423 12.962-1.423 3.327 0 4.994.381 5.01.384l.126.03a.384.384 0 00.473-.374V13.932h.436c.261 0 .472.211.472.472v26.612a.472.472 0 01-.472.473z"/></svg>