<svg xmlns="http://www.w3.org/2000/svg" viewBox="0 0 880.6 764.4"><path d="M607.8 235.5h80.9l191.9 528.8h-78.5L746.9 606H539.5l-57.4 158.4h-73.4l199.1-528.9zm118.8 312.1L645.2 314l-84.6 233.6h166z" fill="currentColor"/><path d="M532.5 604.2c-102.4-41-163.8-92.2-225.3-143.4 0 0 12.8 12.8 0 0-61.4 51.2-204.8 133.1-204.8 133.1l-41-61.4c82-51.2 102.4-61.5 194.6-133.1-21.1-19.6-122.9-133.1-133.1-194.6h81.9c41 92.2 102.4 143.4 102.4 143.4 102.4-81.9 102.4-194.6 102.4-194.6h81.9s-10.2 133.1-122.9 245.8c51.2 51.2 102.4 92.2 194.6 133.1l-30.7 71.7zM0 153.6h573.4V71.7H337.9V0h-92.2v71.7H0v81.9z" fill="currentColor"/></svg>