<svg xmlns="http://www.w3.org/2000/svg" viewBox="0 0 50 50"><path d="M47.615 27.095c-.061-3.396-.611-7.081-2.597-9.931-1.447-2.077-3.58-3.492-6.047-4.052-2.292-.521-4.663-.306-6.962.081-.459.077 2.542-.851 4.562-3.09 3.383-3.75 3.53-6.599 3.521-6.875-.018-.533-.494-.77-.926-1.081-1.449-1.045-3.836-1.69-6.157-1.69-2.438 0-4.317.819-5.875 1.958-1.802 1.318-3.312 4.042-3.646 5.312-.381-.428-1.702-2.912-2.116-3.308-1.061-1.014-2.674.594-1.61 1.61 1.655 1.582 3.09 3.458 3.908 5.594.45 1.174.706 2.387.761 3.611a28.027 28.027 0 00-6.7-2.275c-2.262-.46-4.612-.603-6.877-.079-2.455.568-4.522 2.052-5.931 4.127-2.097 3.088-2.534 7.128-2.541 10.76.015 4.671 1.455 9.283 4.148 13.105 2.646 3.755 6.45 6.757 10.8 8.283 2.515.883 5.436.009 7.586-1.54.586.5 1.268.912 1.943 1.218a7.73 7.73 0 003.149.711c1.224.01 2.378-.359 3.497-.817a22.979 22.979 0 0010.392-8.521c2.581-3.865 3.801-8.484 3.718-13.111zM26.466 6.185c.433-.654 1.536-2.078 3.036-2.844 1.057-.539 2.464-1.01 4.089-.919 1.311.073 3.562.805 4.103 1.305-.396 1.813-1.342 3.53-3.75 5.75-1.333 1.229-5.169 3.104-6.562 3.104-1.294 0-1.628-1.072-2-2.354-.371-1.283.23-2.75 1.084-4.042zm18.619 24.878c-.717 4.336-2.796 8.247-5.906 11.293-1.546 1.515-3.255 2.702-5.223 3.686-.98.49-1.929.913-3.043 1.145-.926.192-1.77.077-2.686-.239-.086-.03-.17-.063-.255-.096.129.05-.13-.061-.15-.071a7.129 7.129 0 01-1.04-.611l-.102-.074c-.036-.028-.13-.099-.158-.122a5.361 5.361 0 01-.716-.689c-.411-.493-1.183-.388-1.61 0-.072.066-.148.127-.224.189l-.034.027a10.46 10.46 0 01-.503.353c-.792.528-1.45.846-2.263 1.097-.997.308-1.94.366-2.958.095-1.047-.279-1.995-.787-2.975-1.324-3.83-2.1-6.821-5.379-8.694-9.341-1.25-2.644-1.879-5.662-1.889-8.614.002-1.071.048-2.14.158-3.205l.039-.351.028-.22a19.167 19.167 0 01.367-1.935c.176-.733.405-1.453.689-2.152-.011.034.133-.296.162-.357a10.45 10.45 0 011.005-1.699l.054-.072c.028-.035.055-.07.084-.104a8.9 8.9 0 01.622-.681c.194-.192.4-.373.613-.545l.002-.002a7.203 7.203 0 01.523-.36 8.11 8.11 0 011.067-.569l.163-.065a9.67 9.67 0 011.916-.512 5.23 5.23 0 01.174-.027c.267-.033.535-.056.803-.072.539-.032 1.08-.026 1.619.003a16.778 16.778 0 011.183.109l.188.027c.525.079 1.046.181 1.564.298.97.22 1.925.504 2.865.831a30.014 30.014 0 011.729.664l.057.024c.092.039.183.08.275.12.487.215.97.443 1.444.686l.213.109c-.015.083-.029.167-.046.25-.124.608.167 1.228.795 1.401.568.156 1.276-.187 1.401-.795.085-.419.15-.839.198-1.26.175-.079.351-.156.528-.232l.033-.014.241-.099c.186-.076.374-.149.561-.221 1.825-.7 3.72-1.24 5.655-1.526l.072-.01.077-.01a18.588 18.588 0 011.24-.111 15.244 15.244 0 011.642-.004c.262.013.523.036.784.065l.092.011.059.008c.151.022.301.049.45.078a10.125 10.125 0 011.791.517c-.016-.005.225.099.285.127a8.654 8.654 0 011.418.851l.143.117a8.326 8.326 0 011.17 1.196c-.053-.062.193.26.24.328a10.815 10.815 0 011.018 1.853l.082.206a15.07 15.07 0 01.54 1.71 17.966 17.966 0 01.37 1.861l.029.204.048.399c.242 2.129.241 4.43-.093 6.453zM12.974 18.359c-2.431 1.344-3.591 3.887-3.767 6.574-.041.62.549 1.139 1.139 1.139.651 0 1.098-.52 1.139-1.139.127-1.938.94-3.667 2.639-4.607 1.285-.711.136-2.678-1.15-1.967z"/><path d="M32.224 5.186c.547-.32.963-.412 1.636-.253.603.142 1.186-.235 1.244-.63.07-.473-.408-.819-1.009-.961a4.575 4.575 0 00-3.298.485c-.453.265-.573.737-.166 1.125.37.352 1.138.499 1.593.234z"/></svg>