<svg id="Layer_1" data-name="Layer 1" xmlns="http://www.w3.org/2000/svg" viewBox="0 0 445.623 146.151"><style>.fill-color-vroom{fill:#f6901e}</style><path class="fill-color-vroom" d="M398.423 11.09c-11.333 0-21.04 6.185-28.618 14.874-3.956-9.884-11.608-14.874-22.575-14.874-11.35 0-19.446 6.978-26.643 14.71V11.049l-32.323-.017v84.17h32.323V43.278a16.174 16.174 0 019.706-3.425c5.228 0 9.174 2.525 9.174 10.438v44.911h32.315V43.34a16.277 16.277 0 019.735-3.421c5.205 0 9.171 2.52 9.171 10.431v44.852h32.322V40.065c0-17.828-7.845-28.975-24.587-28.975M231.93 0a47.533 47.533 0 00-47.313 43.066 26.216 26.216 0 1016.393 40.55A47.532 47.532 0 10231.93 0m-52.516 77.539a8.774 8.774 0 118.786-8.778 8.773 8.773 0 01-8.786 8.778m52.516-11.053a18.943 18.943 0 1118.937-18.932 18.93 18.93 0 01-18.937 18.932"/><path class="fill-color-vroom" d="M174.12 32.024V11.038s-20.916-1.609-31.81 14.966V10.955l-32.271.071v84.14h32.271V69.59c0-15.81 10.296-34.103 31.811-37.566M51.397 55.9L34.319 11.026H0l35.952 84.14h30.937l35.963-84.14H68.528L51.397 55.9zM228.859 109.093v-2.297h28.895v2.297zm1.579 2.42l1.066-.061a27.308 27.308 0 004.44 12.11q3.497 5.055 9.054 5.054a8.139 8.139 0 006.132-2.328 8.23 8.23 0 002.256-5.977 6.926 6.926 0 00-1.866-4.911 5.858 5.858 0 00-4.43-2q-1.846 0-1.846.82 0 .205.882 1.025a2.674 2.674 0 01.861 2.051 3.9 3.9 0 01-1.076 2.728 3.583 3.583 0 01-2.759 1.169 3.947 3.947 0 01-3.137-1.344 4.893 4.893 0 01-1.17-3.332 5.038 5.038 0 011.816-4.04 7.483 7.483 0 014.993-1.538 8.243 8.243 0 016.604 2.974 11.384 11.384 0 012.522 7.628 10.882 10.882 0 01-2.778 7.773 8.82 8.82 0 01-6.655 2.953 9.73 9.73 0 01-6.963-2.769 25.015 25.015 0 01-5.219-7.926 30.798 30.798 0 01-2.727-10.059z"/><path class="fill-color-vroom" d="M201.979 109.093v-2.297h27.234v2.297h-4.183v23.236h-.759l-1.845-2.687v-10.869a35.85 35.85 0 00-2.195-2.892.967.967 0 00-.574-.328q-.349 0-3.117 3.487-2.974-3.548-6.05-3.548a4.97 4.97 0 00-4.922 4.983 6.17 6.17 0 00.943 3.517q.944 1.406 1.867 1.405.615 0 .656-1.025a3.027 3.027 0 01.892-2.226 3.49 3.49 0 012.41-.748 3.854 3.854 0 013.999 3.835 3.224 3.224 0 01-1.149 2.655 4.464 4.464 0 01-2.912.934 7.376 7.376 0 01-5.886-2.933 10.38 10.38 0 01-2.42-6.808 7.782 7.782 0 011.703-5.21 5.085 5.085 0 017.126-.973 7.718 7.718 0 012.348 2.655q3.22-3.691 3.281-3.691.39 0 4 5.065v-7.834z"/><path class="fill-color-vroom" d="M196.919 106.796l-4.369-3.527a18.081 18.081 0 015.353-4.789 11.611 11.611 0 015.783-1.876 9.797 9.797 0 014.44 1.16 45.506 45.506 0 015.855 3.762l-.718.923a28.921 28.921 0 00-4.727-2.892 8.813 8.813 0 00-3.578-.964 9.103 9.103 0 00-4.727 1.692 16.997 16.997 0 00-4.604 4.358l2.625 2.153h4.08v2.297h-4.183v23.215h-1.087l-1.538-2.707v-20.508h-3.835v-2.297z"/><path class="fill-color-vroom" d="M185.234 106.796v-3.486h.82l1.087 3.486h4.901v2.297h-4.183v23.215h-1.087l-1.538-2.42v-20.795h-3.835v-2.297z"/><path class="fill-color-vroom" d="M158.131 109.093v-2.297h23.625v2.297h-17.185v1.128a2.797 2.797 0 001.497 2.38 6.762 6.762 0 003.732.963h2.83a7.483 7.483 0 014.799 1.395 4.846 4.846 0 011.743 4.02 12.315 12.315 0 01-4.307 9.382q-4.306 3.948-8.551 3.947a3.843 3.843 0 01-4.348-4.347v-18.868zm16.694 7.732h-2.872a8.274 8.274 0 01-7.382-4.081v14.54a2.128 2.128 0 00.471 1.506 1.877 1.877 0 001.436.503 11.051 11.051 0 004.378-1.26 14.899 14.899 0 004.82-3.64 7.276 7.276 0 002.122-4.84 2.512 2.512 0 00-.861-1.96 3.062 3.062 0 00-2.113-.768z"/><path class="fill-color-vroom" d="M133.225 109.093v-2.297h25.246v2.297h-4.184v23.215h-.923a23.198 23.198 0 00-7.342-7.198 16.686 16.686 0 00-8.798-2.728q-.533 0-1.025.041l-1.333-3.855 16.796-8.285v-1.19zm18.437 19.626v-15.216l-12.08 5.947a17.993 17.993 0 016.48 3.363 27.02 27.02 0 015.6 5.906zm-11.156 1.538a2.769 2.769 0 015.537 0 2.716 2.716 0 01-.82 1.979 2.723 2.723 0 01-3.907.01 2.726 2.726 0 01-.81-1.989z"/><path class="fill-color-vroom" d="M128.165 106.796l-4.368-3.527a18.08 18.08 0 015.352-4.789 11.611 11.611 0 015.783-1.876 9.797 9.797 0 014.44 1.16 45.506 45.506 0 015.855 3.762l-.717.923a28.925 28.925 0 00-4.727-2.892 8.813 8.813 0 00-3.579-.964 9.103 9.103 0 00-4.727 1.692 16.997 16.997 0 00-4.604 4.358l2.625 2.153h4.081v2.297h-4.184v23.215h-1.087l-1.538-2.707v-20.508h-3.835v-2.297z"/><path class="fill-color-vroom" d="M119.09 109.093v23.215h-.922l-1.702-2.46V118.26a4.387 4.387 0 00-.862-3.015l-11.115 9.372-2.666-1.538 4.45-3.794a3.716 3.716 0 00.143-1.004 2.709 2.709 0 00-.82-2.042 2.817 2.817 0 00-2.03-.788 3.307 3.307 0 00-1.845.615 2.882 2.882 0 01-1.497.615 2 2 0 01-1.57-.584 2.597 2.597 0 01-.522-1.774 7.21 7.21 0 012.533-5.015 8.364 8.364 0 0111.217-.666 18.62 18.62 0 014.584 5.537v-7.383h6.809v2.297zm-10.15 7.937l5.126-4.348q-2.522-3.28-5.68-3.28a7.525 7.525 0 00-4.615 1.752q-2.276 1.755-2.276 2.902 0 .431.471.431.308-.103.698-.205a6.389 6.389 0 01.769-.153 5.582 5.582 0 01.748-.052 5.412 5.412 0 014.758 2.953zM89.81 106.796v-3.486h.82l1.088 3.486h4.901v2.297h-4.183v23.215h-1.087l-1.538-2.42v-20.795h-3.835v-2.297z"/><path class="fill-color-vroom" d="M61.07 109.093v-2.297h25.245v2.297H82.13v23.215h-.923a23.198 23.198 0 00-7.341-7.198 16.687 16.687 0 00-8.798-2.728q-.534 0-1.026.041l-1.333-3.855 16.796-8.285v-1.19zm18.436 19.626v-15.216l-12.079 5.947a17.993 17.993 0 016.48 3.363 27.023 27.023 0 015.6 5.906zm-11.156 1.538a2.769 2.769 0 015.537 0 2.716 2.716 0 01-.82 1.979 2.723 2.723 0 01-3.906.01 2.727 2.727 0 01-.811-1.989z"/><path class="fill-color-vroom" d="M54.615 106.796v-3.486h.82l1.087 3.486h4.901v2.297H57.24v23.215h-1.087l-1.538-2.42v-20.795H50.78v-2.297zM42.925 139.014l1.23-3.63 7.732 7.424-.451.718z"/><path class="fill-color-vroom" d="M25.874 109.093v-2.297h25.245v2.297h-4.184v23.215h-.923a23.198 23.198 0 00-7.341-7.198 16.687 16.687 0 00-8.798-2.728q-.534 0-1.026.041l-1.333-3.855 16.796-8.285v-1.19zM44.31 128.72v-15.216l-12.079 5.947a17.993 17.993 0 016.48 3.363 27.023 27.023 0 015.599 5.906z"/><path class="fill-color-vroom" d="M.296 109.093v-2.297h25.922v2.297H6.49v13.166a51.417 51.417 0 017.742-6.87 24.128 24.128 0 017.065-3.773l2.666 2.666q-3.794 3.876-3.794 10.5a24.362 24.362 0 001.64 8.142l-.923.41a26.704 26.704 0 01-2.604-11.73 20.04 20.04 0 01.861-5.907 41.9 41.9 0 00-12.9 11.443l-2.358-1.907v-16.14zM438.165 95.239a7.187 7.187 0 01-5.358-2.11 8.009 8.009 0 01.021-10.785 7.846 7.846 0 0110.72-.034 8.026 8.026 0 01-.023 10.797 7.202 7.202 0 01-5.36 2.132m.023-1.317a5.753 5.753 0 004.343-1.731 6.748 6.748 0 00-.033-8.91 6.274 6.274 0 00-8.676-.021 6.728 6.728 0 00.034 8.898 5.749 5.749 0 004.332 1.764m2.3-2.211a1.398 1.398 0 01-1.229-.781l-1.36-1.943h-.806v1.719q0 .96-.914.96h-.29q-.895 0-.895-1.183v-5.54q0-1.16 1.095-1.16h2.39q3.26 0 3.26 2.524a2.16 2.16 0 01-1.832 2.3l1.787 2.345c.03.044-.009.126-.112.245a1.688 1.688 0 01-.47.347 1.322 1.322 0 01-.624.167m-3.44-6.297v2.032h1.318q1.274 0 1.273-1.005 0-1.026-1.318-1.027z"/></svg>