<svg id="Layer_1" data-name="Layer 1" xmlns="http://www.w3.org/2000/svg" viewBox="0 0 507.937 145.089"><style>.fill-color-white{fill:#fff}</style><path class="fill-color-white" d="M444.491 51.252c-12.643 0-23.474 6.9-31.927 16.594-4.414-11.027-12.949-16.594-25.186-16.594-12.662 0-21.694 7.784-29.723 16.411V51.206l-36.06-.018v93.9h36.06V87.162a18.038 18.038 0 0110.83-3.822c5.83 0 10.233 2.817 10.233 11.645v50.103h36.052V87.231a18.155 18.155 0 0110.86-3.817c5.806 0 10.231 2.811 10.231 11.638v50.036h36.06v-61.51c0-19.89-8.75-32.326-27.43-32.326M258.747 38.88a53.028 53.028 0 00-52.783 48.045 29.246 29.246 0 1018.288 45.238 53.028 53.028 0 1034.495-93.283m-58.588 86.504a9.789 9.789 0 119.801-9.793 9.789 9.789 0 01-9.8 9.793m58.587-12.331a21.134 21.134 0 1121.127-21.121 21.118 21.118 0 01-21.127 21.121"/><path class="fill-color-white" d="M194.253 74.607V51.194s-23.336-1.795-35.488 16.697V51.1l-36.002.08v93.869h36.002v-28.533c0-17.639 11.486-38.046 35.488-41.91M57.339 101.243L38.287 51.181H0l40.109 93.869h34.515l40.121-93.869H76.452l-19.113 50.062zM3.975 32.082V2.017h6.07V13.85H21.94V2.017h6.07v30.065h-6.07V18.936H10.045v13.146zM38.55 16.947l-5.23-.943a8.145 8.145 0 013.036-4.676Q38.51 9.81 42.755 9.81a13.79 13.79 0 015.742.913 5.727 5.727 0 012.656 2.317q.769 1.405.769 5.158l-.062 6.726a23.351 23.351 0 00.277 4.235 12.361 12.361 0 001.036 2.923h-5.701q-.226-.575-.554-1.703-.143-.512-.205-.676a10.39 10.39 0 01-3.158 2.153 9.046 9.046 0 01-3.59.718 7.421 7.421 0 01-5.3-1.825 6.067 6.067 0 01-1.938-4.615 6.194 6.194 0 01.881-3.291 5.761 5.761 0 012.472-2.215 19.313 19.313 0 014.583-1.343 31.401 31.401 0 005.6-1.415v-.574a2.984 2.984 0 00-.82-2.37 4.916 4.916 0 00-3.098-.707 4.123 4.123 0 00-2.399.605 4.204 4.204 0 00-1.395 2.123zm7.712 4.676a36.023 36.023 0 01-3.507.881 10.564 10.564 0 00-3.138 1.005 2.403 2.403 0 00-1.128 2.03 2.827 2.827 0 00.903 2.092 3.15 3.15 0 002.297.882 4.99 4.99 0 002.973-1.025 3.609 3.609 0 001.374-1.908 11.379 11.379 0 00.226-2.81zM69.046 10.302h19.339v21.78h-5.763V14.958H74.81v17.124h-5.763zM96.198 10.302h19.298v21.78h-5.742V14.978h-7.855v9.782a11.37 11.37 0 01-.86 5.24 4.488 4.488 0 01-1.908 1.979 8.767 8.767 0 01-3.363.472 23.599 23.599 0 01-3.63-.37v-4.244q.184 0 .964.04.902.062 1.394.062 1.169 0 1.435-.769a18.977 18.977 0 00.267-4.276zM125.627 16.947l-5.23-.943a8.145 8.145 0 013.035-4.676q2.154-1.518 6.4-1.518a13.789 13.789 0 015.741.913 5.727 5.727 0 012.656 2.317q.769 1.405.769 5.158l-.061 6.726a23.35 23.35 0 00.276 4.235 12.36 12.36 0 001.036 2.922h-5.701q-.226-.574-.554-1.702-.143-.512-.205-.676a10.39 10.39 0 01-3.158 2.153 9.046 9.046 0 01-3.589.718 7.421 7.421 0 01-5.301-1.826 6.067 6.067 0 01-1.938-4.614 6.194 6.194 0 01.882-3.291 5.761 5.761 0 012.47-2.215 19.311 19.311 0 014.584-1.343 31.404 31.404 0 005.599-1.415v-.575a2.984 2.984 0 00-.82-2.368 4.916 4.916 0 00-3.097-.708 4.123 4.123 0 00-2.4.605 4.204 4.204 0 00-1.394 2.123zm7.71 4.676a36.023 36.023 0 01-3.506.881 10.562 10.562 0 00-3.138 1.005 2.404 2.404 0 00-1.128 2.03 2.827 2.827 0 00.903 2.092 3.15 3.15 0 002.297.882 4.99 4.99 0 002.973-1.025 3.61 3.61 0 001.374-1.908 11.379 11.379 0 00.226-2.81zM142.095 10.302h19.708v4.656h-6.973v17.124h-5.763V14.958h-6.972zM177.778 2.017h5.722v11.054a7.115 7.115 0 012.502-2.43 6.717 6.717 0 013.322-.81 6.644 6.644 0 015.732 3.394 14.46 14.46 0 012.225 8.11 12.741 12.741 0 01-2.491 7.989 7.286 7.286 0 01-5.896 3.25 5.76 5.76 0 01-2.892-.769 8.378 8.378 0 01-2.502-2.287v10.849h-5.722V29.518a9.144 9.144 0 01-2.676 2.287 6.277 6.277 0 01-3.025.769 6.886 6.886 0 01-5.824-3.26 13.902 13.902 0 01-2.297-8.204 12.35 12.35 0 012.625-8.1q2.625-3.2 5.68-3.2a6.045 6.045 0 013.036.78 7.823 7.823 0 012.481 2.337zm-3.855 12.202a3.376 3.376 0 00-2.8 1.918 9.427 9.427 0 00-1.2 5.055 9.97 9.97 0 001.118 5.066 3.234 3.234 0 002.779 1.907 3.356 3.356 0 002.85-1.907 9.935 9.935 0 001.17-5.21q0-3.588-1.272-5.208a3.487 3.487 0 00-2.645-1.62zm13.473.041a3.27 3.27 0 00-2.87 2.061 10.807 10.807 0 00-1.108 5.158 8.926 8.926 0 001.18 4.912 3.354 3.354 0 002.798 1.815q1.62 0 2.79-2.051a9.61 9.61 0 001.168-4.84 10.73 10.73 0 00-1.066-5.014 3.223 3.223 0 00-2.892-2.041zM200.161 20.884a11.781 11.781 0 011.415-5.557 9.713 9.713 0 014.01-4.102 11.9 11.9 0 015.793-1.415 10.874 10.874 0 018.1 3.21 11.088 11.088 0 013.159 8.111 11.221 11.221 0 01-3.19 8.193 10.778 10.778 0 01-8.028 3.25 12.648 12.648 0 01-5.712-1.353 9.285 9.285 0 01-4.132-3.968 13.221 13.221 0 01-1.415-6.369zm5.906.308a7.216 7.216 0 001.538 4.963 5.028 5.028 0 007.578 0 7.315 7.315 0 001.528-5.004 7.181 7.181 0 00-1.528-4.922 5.028 5.028 0 00-7.577 0 7.216 7.216 0 00-1.539 4.963zM226.985 10.302h5.373v3.2a8.04 8.04 0 012.83-2.666 7.8 7.8 0 013.958-1.026 8.303 8.303 0 016.44 2.974q2.645 2.973 2.645 8.285 0 5.455-2.666 8.48a8.306 8.306 0 01-6.46 3.025 7.34 7.34 0 01-3.27-.718 11.025 11.025 0 01-3.087-2.46v10.97h-5.763zm5.701 10.52q0 3.672 1.457 5.425a4.454 4.454 0 003.547 1.754 4.164 4.164 0 003.343-1.61q1.333-1.61 1.333-5.281a7.872 7.872 0 00-1.374-5.086 4.25 4.25 0 00-3.404-1.661 4.421 4.421 0 00-3.507 1.63 7.257 7.257 0 00-1.394 4.83zM252.423 10.302h7.137l5.414 15.176 5.455-15.176h7.116v21.78h-4.901V17.747l-5.312 14.335h-4.922l-5.066-14.335v14.335h-4.921zM295.94 25.15l5.742.964a9.424 9.424 0 01-3.496 4.809 10.275 10.275 0 01-5.978 1.65q-5.681 0-8.409-3.711a12.47 12.47 0 01-2.153-7.506q0-5.414 2.83-8.48a9.32 9.32 0 017.158-3.066 9.667 9.667 0 017.67 3.21q2.81 3.21 2.686 9.834h-14.437a5.83 5.83 0 001.394 3.988 4.362 4.362 0 003.323 1.426 3.528 3.528 0 002.276-.739 4.559 4.559 0 001.394-2.379zm.328-5.824a5.549 5.549 0 00-1.292-3.804 4.159 4.159 0 00-6.111.071 5.317 5.317 0 00-1.21 3.733zM490.56 145.158a7.187 7.187 0 01-5.358-2.11 8.009 8.009 0 01.021-10.785 7.848 7.848 0 0110.719-.034 8.026 8.026 0 01-.022 10.797 7.202 7.202 0 01-5.36 2.132m.024-1.317a5.752 5.752 0 004.342-1.731 6.745 6.745 0 00-.033-8.91 6.274 6.274 0 00-8.676-.021 6.728 6.728 0 00.034 8.898 5.75 5.75 0 004.333 1.764m2.299-2.21a1.399 1.399 0 01-1.229-.782l-1.361-1.943h-.805v1.719q0 .961-.914.96h-.291c-.596 0-.894-.395-.894-1.183v-5.54q0-1.16 1.095-1.16h2.389q3.261 0 3.26 2.524a2.16 2.16 0 01-1.831 2.3l1.787 2.345c.029.044-.008.126-.112.245a1.668 1.668 0 01-.47.347 1.32 1.32 0 01-.624.168m-3.439-6.298v2.032h1.317q1.273 0 1.273-1.005 0-1.026-1.318-1.027z"/></svg>