<svg version="1.1" id="Layer_1" xmlns="http://www.w3.org/2000/svg" x="0" y="0" viewBox="0 0 508.4 145.8" xml:space="preserve"><style>.st0{fill:#f6901f}.st1{fill:#f6901e}</style><path class="st0" d="M321.8 145.5V52.6c0-1 .3-1.2 1.3-1.2 11.2 0 22.4.1 33.6 0 1 0 1.4.2 1.3 1.3-.1 4.9 0 9.8 0 14.6.5.2.6-.2.8-.4 4.3-4.5 8.8-8.8 14.4-11.7 9.2-4.8 18.6-5.2 28.1-.7 5.1 2.4 8.4 6.6 10.8 11.6.2.5.5 1 .7 1.5 0 .1.1.1.2.2 2.6-3 5.5-5.7 8.6-8.1 5.6-4.2 11.7-7.2 18.7-8 7.9-.9 15.4 0 21.9 5.1 4.7 3.7 7.2 8.9 8.6 14.6 1 3.8 1.4 7.6 1.4 11.5v61.4c0 .3-.1.7.1 1.1h-36.2V95.1c0-1.1-.1-2.2-.3-3.3-.8-5.1-4-7.9-9.1-8.1-3.8-.2-7.2.9-10.4 2.9-.9.5-1.2 1.2-1.2 2.2v55.7c0 .3-.1.6.1.9H379V95.6c0-1.2-.1-2.5-.2-3.7-.7-4.9-3.6-7.8-8.5-8.3-4.1-.4-7.7.8-11.1 2.9-.8.5-1.2 1.1-1.2 2.1v55.8c0 .3-.1.6.1.9-12.2.2-24.3.2-36.3.2z"/><path class="st1" d="M.2 51.4h37.1c1 0 1.4.4 1.8 1.3 6 15.8 12 31.6 18 47.3.1.4.2.8.6 1.2.4-1 .8-2 1.1-2.9l17.4-45.6c.3-.9.7-1.2 1.7-1.2h36c.9 0 1.2.1.8 1.1l-39.6 92.7c0 .1-.1.2-.1.3H40.4c0-.2 0-.3-.1-.5C27.4 115.3 14.7 85.6 2 55.9c-.6-1.3-1-2.8-1.9-4 .1-.1.1-.3.1-.5z"/><path class="st0" d="M122.8 145.5c.2-.3.1-.7.1-1.1V52.8c0-1.2.3-1.5 1.5-1.5h33.4c1.1 0 1.3.3 1.3 1.3-.1 5 0 9.9 0 14.9.3.2.4-.1.5-.2 5.8-8.3 14-12.8 23.8-14.9 3.4-.7 6.8-1 10.2-1 .8 0 1.1.2 1.1 1.1v21.2c0 1-.3 1.3-1.2 1.4-6.5 1.1-12.4 3.6-17.7 7.6-9.1 7-14.3 16.4-16.2 27.6-.4 2.5-.5 5.1-.5 7.6v27.5c-12.1.1-24.2.1-36.3.1zM496.7 145.5c-.4-.4-.5-.9-.5-1.5v-10c0-.7-.1-1.5.9-1.6 1-.1 2-.3 2.6.9.8 1.8 1.5 3.7 2.3 5.5.1.1.2.3.2.4.5-.2.5-.7.7-1.1.6-1.5 1.2-3 1.9-4.5.5-1.2 1.4-1.6 2.7-1.3.7.2.8.7.8 1.3V144c0 .6-.3 1-.7 1.3h-1c-.4-.5-.5-1-.5-1.6V136c-1 1.8-1.7 3.6-2.4 5.5-.3.7-.7 1.1-1.5 1.2-.8 0-1.1-.5-1.3-1.1-.7-1.8-1.5-3.6-2.2-5.4-.2 2.5-.2 5-.2 7.5 0 .7-.1 1.3-.7 1.7-.4.1-.8.1-1.1.1zM487.8 145.5c-.3-.5-.5-1-.5-1.7v-8.3c0-.7-.2-1-.9-1-.8.1-1.6 0-2.4 0-.7 0-1-.3-1-1s.3-1 1-1h9c.7 0 1 .4 1 1.1 0 .6-.4 1-1 1-.7 0-1.4.1-2.2 0-.9-.1-1.3.2-1.2 1.2.1 2.7 0 5.4 0 8 0 .7-.1 1.2-.6 1.7h-1.2z"/><path class="st1" d="M259 145.3c-12.6-.1-23.8-4.1-33.6-12-.7-.6-1-.5-1.6.2-6 7.7-13.9 11.7-23.7 11.7-14 0-26.4-10.6-28.6-24.5-2.5-16 7.8-30.7 23.8-33.7 3.2-.6 6.4-.6 9.7 0 1.1.2 1.3-.2 1.3-1.1.4-4.4 1.5-8.7 3.1-12.8 7.5-18.1 20.8-29.5 40-33.1 17-3.2 32.3 1.3 45.2 12.9 11 10 16.8 22.5 17.3 37.4.5 14.8-4.4 27.6-14.5 38.4-8.8 9.3-19.7 14.6-32.4 16.2-2 .3-4 .5-6 .4zm21-53.1c0-11.7-9.5-21.1-21.1-21.1-11.6 0-21.1 9.3-21.1 21 0 12.4 10.1 21.2 21.3 21.2 11.5 0 20.9-9.5 20.9-21.1zm-79.7 33.4c5.4 0 9.8-4.3 9.8-9.7 0-5.3-4.3-9.8-9.6-9.8-5.5 0-9.9 4.3-10 9.7 0 5.4 4.4 9.8 9.8 9.8z"/><path class="st0" d="M163.2 27c-.2.1-.3.1-.3.1-4.9 5.1-12.5 3.7-14.9-2.9-1.7-4.6-1.5-9.1 2-12.9 3.3-3.6 8.9-3.7 12.6-.6.2.1.3.4.7.4V6.5 1.8c0-.8.3-1.2 1-1.3 2.6-.7 4.6.6 4.9 3.2.1.6.1 1.1.1 1.7v21.1c0 2.8-1.2 3.8-3.9 3.4-1.7-.3-2.1-1.5-2.2-2.9zm0-8.2c-.1-.8.3-1.9-.4-2.9-1.1-1.8-2.8-2.5-4.7-2.5-2.1 0-3.7.9-4.6 2.9-.9 2.1-.9 4.2 0 6.3 1.1 2.3 3.4 3.3 5.9 2.8 2.3-.5 3.7-2.4 3.8-4.9v-1.7zM188.1 27c-.3 2.3-1.1 3-3.4 2.8-1.9-.1-2.7-1-2.7-3.1V1.8c0-.9.4-1.3 1.2-1.4 2.8-.6 4.7.9 4.8 3.9.1 2.4 0 4.8 0 7.2h.3c5.2-5.2 13.4-3.2 15.4 3.9 1.1 3.8.8 7.6-1.5 11-2.9 4.5-10.5 5.4-14.1.6zm10.4-7.5c0-1-.1-1.8-.4-2.6-.9-2.6-3.2-3.9-6.1-3.4-2.5.4-4 2.2-4 4.9v2.4c.1 1.8 1 3.2 2.6 4 3.3 1.6 7.8.2 7.9-5.3zM70.7 23.3c.7-3.4 1.4-6.4 2-9.5.2-1 .4-2 .7-2.9.5-1.6 1.6-2.3 3.3-2 .3 0 .7.1 1.1.3 1.6.7 1.8 1 1.2 2.7-1.6 5.3-3.1 10.5-4.7 15.8-.4 1.4-1.1 2-2.5 2.1h-1.7c-1.3 0-2.2-.7-2.6-1.9-.9-2.9-1.9-5.8-2.8-8.8-.1-.4-.3-.7-.5-1.4L62 24.3l-1.2 3.6c-.6 1.6-1.4 2-3.7 1.9-1.8 0-2.6-.5-3.1-2.1-1.7-5.5-3.4-11.1-5.1-16.6-.2-.7 0-1.1.5-1.5.7-.4 1.5-.8 2.3-.9 1.7-.3 3.1.5 3.5 2.3.8 3.8 1.6 7.7 2.4 11.5 0 .1.1.3.1.5.5-.3.5-.8.6-1.2.9-2.9 1.8-5.7 2.7-8.6.5-1.6 1.4-2.3 3.3-2.3 1.8 0 2.7.6 3.2 2.2 1.1 3.4 2.1 6.6 3.2 10.2zM1 16.4V6.2c0-2.8 1.1-3.9 3.9-3.9 3.2 0 6.3-.2 9.5.2 4.2.5 7.1 2.8 8 6.3.5 2.1.5 4.3-.2 6.4-1.1 3.2-3.7 4.7-6.8 5.3-2.3.5-4.6.3-6.9.3-.8 0-1.1.2-1 1 .1 1.7 0 3.4 0 5.2 0 2.1-.9 2.9-3.2 3-2.3 0-3.1-.8-3.2-2.9-.2-3.7-.1-7.2-.1-10.7zm6.3-4.9v3.7c0 .5.1.8.7.8 1.5 0 3 0 4.6-.1 2.6-.2 4-1.9 4-4.5-.1-2.5-1.5-4-4.2-4.1-1.4-.1-2.8 0-4.2-.1-.7 0-.9.3-.9.9v3.4zM136.2 21h-6.5c-1 0-1 .3-.8 1.1.6 2 2.6 3.5 4.9 3.7 2.5.2 4.8-.4 6.3-2.6.3-.5.7-.5 1.1-.3 1.9.5 2.7 2.5 1.6 4.2-.8 1.2-2 1.9-3.3 2.3-3.3 1.1-6.7 1.3-10 0-3.9-1.5-6-4.4-6.3-8.6-.4-5.6 2-9.8 6.5-11.5 5.6-2.1 12.7 0 14.2 7 .2 1 .3 2.1.2 3.2-.1 1-.6 1.5-1.6 1.5-2-.1-4.2 0-6.3 0zm-2.5-3.6c1.3 0 2.6-.1 4 0 .9 0 1.1-.3.9-1.1-.6-2.3-2.3-3.6-4.9-3.5-2.2.1-4.5 1.9-4.9 3.9-.1.7.2.7.7.7h4.2zM94.4 21h-6.5c-.9 0-1 .3-.7 1 .9 2.8 3.9 4.3 7.2 3.7 1.6-.3 3-1 4-2.4.3-.5.7-.6 1.2-.4 2.1.6 2.7 2.8 1.4 4.5-.9 1.1-2.1 1.8-3.4 2.2-3 .9-6.1 1-9.2 0-4.5-1.4-7.1-5.5-6.8-10.9.2-4.2 2.3-7.5 6.2-9.2 4.1-1.7 8.1-1.4 11.6 1.6 2.5 2.2 3.4 5.2 3.2 8.4 0 1-.6 1.5-1.6 1.5-2.2-.1-4.4 0-6.6 0zm-2.5-3.6h3.8c1.3 0 1.4-.2 1-1.5-.7-2.2-2.6-3.4-5.1-3.2-2.1.2-4.3 2.1-4.5 4-.1.6.2.6.6.6 1.4.1 2.8.1 4.2.1zM35.8 8.5c6.5 0 11 4.4 11.1 10.8.1 6.4-4.5 10.9-11.1 10.9s-11-4.4-11-10.9c-.1-6.4 4.5-10.8 11-10.8zm5.7 10.9c0-3.6-2.4-6.2-5.8-6.1-3.3 0-5.7 2.6-5.6 6.1 0 3.5 2.4 6.1 5.7 6.1 3.2 0 5.7-2.7 5.7-6.1zM216.8 23.3c.9-2.5 1.6-4.8 2.4-7.1.6-1.6 1.1-3.3 1.7-4.9 1-2.7 3.4-3.4 5.7-1.7.5.4.7.7.5 1.4l-9.3 24c-1.1 2.8-3.3 3.5-5.6 2-.7-.5-.9-.9-.5-1.8l2.7-6c.3-.6.3-.9-.4-1.2-.6-.2-.9-.7-1.2-1.3-2.2-5.2-4.5-10.4-6.8-15.6-.3-.7-.1-1.1.4-1.5 2.3-1.8 4.8-1.1 5.9 1.7 1.4 3.6 2.7 7.2 4.1 10.9.1.3.2.6.4 1.1zM112.4 12c1.1-2.5 2.9-3.6 5.3-3.4 1.4.1 2.7.6 3.2 2.1.6 1.4.3 2.7-.6 3.9-.4.5-.8.8-1.6.3-2.2-1.4-4.7-.6-5.7 1.9-.5 1.2-.6 2.5-.6 3.8v6.5c0 2-.9 2.9-3 2.9s-3-.8-3-2.9V10.6c0-.9.3-1.3 1.2-1.5 2.5-.7 3.9.1 4.8 2.9z"/></svg>