<svg xmlns="http://www.w3.org/2000/svg" viewBox="0 0 537.6 659.2"><g fill="currentColor"><path d="M410.2.038c-17.5 0-32 14.5-32 32 0 3.3.7 6.5 1.6 9.5l-24.6 24.7c-5.8-5.3-12-10.2-18.7-14.4-20.9-13.1-44.2-19.7-67.5-19.7-23.3 0-46.7 6.4-67.6 19.4-6.9 4.3-13.2 9.3-19.1 14.7l-24.5-24.6c1-3 1.7-6.2 1.7-9.5 0-17.6-14.5-32-32-32s-32 14.5-32 32c0 17.6 14.5 32 32 32 4.8 0 9.3-1.3 13.4-3.2l24.2 24.2c-13.4 17.6-22.9 38.3-27.7 60.6h.3c1.7 0 3.4 0 5.1.3 86.9 14 166.7 18.3 250.6.3 2.3-.5 4.8-.7 7.1-.5-4.7-22.4-14.3-43.1-27.7-60.6l24.2-24.3c4.1 1.9 8.6 3.2 13.4 3.2 17.5 0 32-14.5 32-32-.2-17.6-14.6-32.1-32.2-32.1zM138.6 171.238c-94.8 45.6-138.6 137-138.6 236.8 0 142.6 104.9 244.8 254.4 251v-475.9c-38.2-1.4-76.5-5.6-115.8-11.9zm260 0c-40.2 8.6-79.4 12.2-118.6 12.3v475.7c151.2-4.9 257.6-107.6 257.6-251.2-.1-99.9-44.1-191.3-139-236.8zm-219.4 78.6c14.1 0 25.6 11.5 25.6 25.6 0 14.1-11.5 25.6-25.6 25.6-14.1 0-25.6-11.5-25.6-25.6 0-14.2 11.5-25.6 25.6-25.6zm179.2 0c14.1 0 25.6 11.5 25.6 25.6 0 14.1-11.5 25.6-25.6 25.6-14.1 0-25.6-11.5-25.6-25.6 0-14.2 11.5-25.6 25.6-25.6zm-243.2 108.8c21.2 0 38.4 17.2 38.4 38.4s-17.2 38.4-38.4 38.4-38.4-17.2-38.4-38.4 17.2-38.4 38.4-38.4zm307.2 0c21.2 0 38.4 17.2 38.4 38.4s-17.2 38.4-38.4 38.4-38.4-17.2-38.4-38.4 17.2-38.4 38.4-38.4zm-256 140.9c17.7 0 32 14.3 32 32s-14.3 32-32 32-32-14.3-32-32 14.3-32 32-32zm204.8 0c17.7 0 32 14.3 32 32s-14.3 32-32 32-32-14.3-32-32 14.3-32 32-32z"/></g></svg>