<svg xmlns="http://www.w3.org/2000/svg" viewBox="59.5 149.5 50 50"><path d="M101.607 177.685a7.58 7.58 0 00-3.978 1.13c-1.523-1.849-3.304-3.759-5.154-5.224.746-.229 1.561-.703 2.292-1.63.916-1.163 1.206-2.095 1.276-2.742h2.007a2.655 2.655 0 002.653-2.652c0-1.511-.818-3.274-3.125-3.274-1.578 0-2.006.469-2.402 1.081-.278.431-.743 1.151-5.473 1.151-1.479 0-1.864.916-1.961 1.31a1.742 1.742 0 00.317 1.527c.412.529 1.127.857 1.865.857h4.642c-.075.399-.299 1.017-.947 1.838-1.245 1.58-2.833 1.255-3.098 1.187a10.508 10.508 0 00-1.662-.796c-2.049-.746-4.097-1.267-6.078-1.771-1.994-.508-3.877-.987-5.266-1.597-1.479-.649-2.991-1.737-2.991-4.884 0-5.685 10.411-5.955 10.518-5.957a.732.732 0 00.714-.747.739.739 0 00-.748-.714c-.302.008-3.026.099-5.812.957-4.011 1.237-6.131 3.471-6.131 6.461 0 1.628.358 2.828.891 3.736l-.529 2.528a11.902 11.902 0 00-1.72-.138c-6.592 0-11.955 5.361-11.955 11.951s5.363 11.951 11.955 11.951c6.588 0 11.948-5.361 11.948-11.951 0-5.497-3.735-10.127-8.796-11.515l.295-1.41c.583.488 1.21.822 1.776 1.07 1.495.658 3.438 1.152 5.502 1.677 1.949.497 3.964 1.011 5.929 1.727 2.733.995 5.712 4 8.091 6.885a7.615 7.615 0 00-2.483 5.622c0 4.214 3.428 7.642 7.641 7.642 4.214 0 7.643-3.428 7.643-7.642s-3.432-7.644-7.646-7.644zm-12.396-10.222a.297.297 0 01-.054-.276c.019-.07.052-.202.545-.202 5.108 0 6.056-.824 6.699-1.819.189-.292.269-.413 1.176-.413 1.12 0 1.664.593 1.664 1.813 0 .657-.535 1.191-1.192 1.191h-8.125c-.284 0-.577-.121-.713-.294zm-17.658 14.524a.735.735 0 00.864-.566l2.141-10.235c4.399 1.247 7.634 5.291 7.634 10.085 0 5.784-4.704 10.49-10.487 10.49-5.786 0-10.494-4.706-10.494-10.49s4.708-10.49 10.494-10.49c.483 0 .955.044 1.421.108l-2.14 10.232a.733.733 0 00.567.866zm25.812-1.143c.182.232.358.461.53.687a5.292 5.292 0 00-1.605 3.794 5.325 5.325 0 005.317 5.32 5.326 5.326 0 005.32-5.32 5.323 5.323 0 00-5.32-5.314c-.913 0-1.76.253-2.512.66a60.071 60.071 0 00-.546-.707 6.134 6.134 0 013.058-.817c3.408 0 6.182 2.772 6.182 6.181s-2.773 6.181-6.182 6.181a6.187 6.187 0 01-6.18-6.181 6.163 6.163 0 011.938-4.484zm3.621 5.109a.732.732 0 001.006.24.734.734 0 00.238-1.005 58.845 58.845 0 00-2.261-3.338 3.814 3.814 0 011.638-.378 3.86 3.86 0 013.859 3.854 3.863 3.863 0 01-3.859 3.859 3.862 3.862 0 01-3.856-3.859c0-1.006.397-1.915 1.03-2.602 1.334 1.835 2.181 3.191 2.205 3.229z"/><path d="M71.702 188.398a.48.48 0 01-.48-.48v-4.49a.48.48 0 01.96 0v4.49a.48.48 0 01-.48.48zM75.972 186.843a.477.477 0 01-.368-.172l-2.885-3.44a.48.48 0 11.736-.618l2.885 3.44a.48.48 0 01-.368.79zM78.244 182.909a.476.476 0 01-.084-.007l-4.42-.782a.48.48 0 11.168-.946l4.42.781a.48.48 0 01-.084.954zM73.567 180.677a.481.481 0 01-.241-.896l3.889-2.243a.48.48 0 11.48.832l-3.889 2.243a.482.482 0 01-.239.064zM70.963 179.73a.482.482 0 01-.452-.316l-1.533-4.217a.48.48 0 01.903-.329l1.533 4.217a.481.481 0 01-.451.645zM69.834 180.68a.476.476 0 01-.24-.065l-3.887-2.247a.48.48 0 11.481-.831l3.887 2.247a.48.48 0 01-.241.896zM65.159 182.909a.48.48 0 01-.083-.953l4.422-.778a.48.48 0 11.167.946l-4.422.778a.607.607 0 01-.084.007zM67.432 186.843a.481.481 0 01-.368-.79l2.888-3.436a.481.481 0 01.736.618l-2.888 3.436a.48.48 0 01-.368.172z"/></svg>