<svg xmlns="http://www.w3.org/2000/svg" viewBox="0 0 58 58"><path d="M51.2 14.93H6.8a3.66 3.66 0 00-3.8 3.8v9.51c0 .23.3 22.83 26 22.83s26-22.6 26-22.83v-9.51a3.66 3.66 0 00-3.8-3.8zm2.53 3.8v8.9q-1.09 0-2.1.15a6.69 6.69 0 01-1.29-2.07h.86a.64.64 0 00.63-.64v-6.34a.63.63 0 00-.63-.63h-2.43c-.06-.8-.08-1.45-.1-1.9h2.52a2.44 2.44 0 012.54 2.53zm-13.44 5.6v-.31A1.83 1.83 0 0040 23a1.81 1.81 0 00.34-1.06 1.78 1.78 0 00-.34-1 1.83 1.83 0 00.34-1.06 3 3 0 000-.31h10.11v4.85zM6.8 16.2h2.53c0 .45 0 1.1-.11 1.9H6.8a.63.63 0 00-.63.63v6.34a.64.64 0 00.63.64h.86a6.69 6.69 0 01-1.29 2.07q-1-.12-2.1-.15v-8.9A2.43 2.43 0 016.8 16.2zm.75 8.13v-4.85h10.16a3 3 0 000 .31 1.83 1.83 0 00.29 1.06 1.78 1.78 0 00-.34 1A1.83 1.83 0 0018 23a1.83 1.83 0 00-.31 1 1.62 1.62 0 000 .31zM21.84 49C6.39 45.77 4.61 32.06 4.41 29c14.67.52 17.05 15.23 17.43 20zm7.16.7a35.85 35.85 0 01-5.65-.42C23.06 44.8 21.07 30.57 8 27.93a10.6 10.6 0 001.1-2.11h10.39a.75.75 0 00.74-.75.74.74 0 00-.74-.74.32.32 0 010-.63.74.74 0 00.74-.74.75.75 0 00-.74-.75.31.31 0 010-.62.75.75 0 000-1.49.31.31 0 010-.62.75.75 0 00.74-.75.74.74 0 00-.74-.74h-8.87c.05-.69.07-1.27.08-1.68h36.59c0 .41 0 1 .09 1.68h-8.87a.74.74 0 00-.74.74.75.75 0 00.74.75.31.31 0 010 .62.75.75 0 000 1.49.31.31 0 01.31.31.32.32 0 01-.31.32.74.74 0 000 1.48.32.32 0 010 .63.74.74 0 00-.74.74.75.75 0 00.74.75H48.9a10.88 10.88 0 001.1 2.11c-13.06 2.64-15 16.88-15.33 21.35a38 38 0 01-5.67.41zm7.16-.7c.38-4.77 2.75-19.48 17.42-20a24.54 24.54 0 01-3 10c-3.06 5.28-7.91 8.65-14.42 10z" fill="#fff"/></svg>