<svg xmlns="http://www.w3.org/2000/svg" viewBox="0 0 58 58"><path data-name="At the Store" d="M37.69 57.37A5 5 0 0134.1 49H23.34a4.95 4.95 0 11-7.16 0 6.94 6.94 0 01-6.35-6.17l-3-27.15a3.93 3.93 0 00-3.9-3.49.9.9 0 110-1.79 5.71 5.71 0 015.68 5.08L9 18.83h1.23l7-11a.92.92 0 01.58-.4h.18a.9.9 0 01.5.16l8.25 5.61V5.53a.9.9 0 01.9-.9h10.1a.9.9 0 01.89.9v4.9a9.39 9.39 0 018.4 8.4h1.07a.92.92 0 01.67.29.94.94 0 01.23.68l-1.94 21.61a.89.89 0 01-.89.81H11.56v.39a5.17 5.17 0 005.14 4.61h28.51a.9.9 0 010 1.79h-3.93a5 5 0 01-3.59 8.36zM19.75 49a3.41 3.41 0 103.4 3.41 3.41 3.41 0 00-3.4-3.41zm17.94 0a3.41 3.41 0 103.4 3.41 3.41 3.41 0 00-3.4-3.41zM19.37 20.38v9.49h8.35v-9.49zm0 10.8v9.49h8.35v-9.49zM29 40.67h8.35v-9.49H29zm8.35-10.8v-9.49H29v9.49zm-9.16-15.3l6.62 4.5H37V6.18h-8.77v8.35s-.01.02-.01.04zm-16.36 4.5h20.69l-14.41-9.8zm-3 1.31l1.06 9.49h8.12v-9.49zm2.27 20.29h6.91v-9.49h-8zm35.27-9.49h-7.69v9.49h6.89zm1-10.8h-8.69v9.49h7.86zM38.33 12v7.11h7.11A7.8 7.8 0 0038.33 12z" fill="#fff"/></svg>