<svg xmlns="http://www.w3.org/2000/svg" viewBox="0 0 58 58"><path d="M15.13 53.4a.82.82 0 01-.59-.25.78.78 0 01-.23-.6L15 29.66l-3.09 3.09a.83.83 0 01-.58.24.84.84 0 01-.58-.24L4.3 26.33a.82.82 0 010-1.16l2.06-2.06.08-.11 9.2-9.21a.83.83 0 01.58-.24h.92l-.29-1.35C11.42 12 6.42 11.51 2 10.9a.82.82 0 01-.54-.32.78.78 0 01-.2-.58.83.83 0 01.82-.71h.1c4.27.59 9.08 1 14.3 1.31l-.21-1a.82.82 0 01.8-1h2.63a.82.82 0 01.82.82v1.33c2.78.1 5.63.15 8.48.15s5.71-.05 8.48-.15V9.42a.82.82 0 01.82-.82h2.63a.82.82 0 01.8 1l-.21 1c5.22-.28 10-.72 14.3-1.31h.11a.82.82 0 01.81.71.83.83 0 01-.7.93c-4.45.61-9.46 1.06-14.89 1.34l-.29 1.35h.92a.78.78 0 01.58.24L53.7 25.17a.78.78 0 01.24.58.8.8 0 01-.24.58l-6.41 6.41a.8.8 0 01-.58.24.78.78 0 01-.58-.24L43 29.66l.65 22.76a.51.51 0 010 .16.83.83 0 01-.83.82zm20.23-22.85l3-1a.82.82 0 00.56-.78v-4.69a.82.82 0 00-.82-.82h-6a.81.81 0 00-.82.82v4.68a.82.82 0 00.55.78l3 1a.75.75 0 00.26.05.86.86 0 00.27-.04zm-2.67-5.9h4.81v3.7l-2.41.82-2.4-.82zM38.87 10v3.85h.51l.84-3.85zm-18.6 3.85h17.46v-1.7c-2.86.1-5.79.15-8.73.15s-5.86 0-8.73-.15zm2 1.14c.69 1.07 3.26 2.08 6.71 2.08s6-1 6.71-2.08zm-4.51-5l.84 3.85h.51V10zm-5.23 20.13L7 24.49l-1.31 1.26 5.6 5.61zm29.63 21.77V50.5H15.88v1.39zm8.89-27.41l-5.58 5.64 1.24 1.23 5.6-5.6zM37 15c-.55 1.87-3.78 3.22-8 3.22s-7.4-1.37-7.95-3.22h-4.6l-8.69 8.7 5.58 5.63 2.1-2.1a.58.58 0 01.63-.12.57.57 0 01.34.54l-.61 21.59h26.4l-.61-21.61a.57.57 0 01.34-.54.58.58 0 01.63.12l2.1 2.1 5.58-5.63-8.7-8.68z" fill="#fff"/></svg>