<svg xmlns="http://www.w3.org/2000/svg" viewBox="441.01 310 392.626 130.909"><path fill="#FFF" d="M809.091 310h-81.818l-24.546 24.545v81.819l24.546 24.545h81.818l24.545-24.545v-24.546l-8.181-8.182h-40.91v8.182h-32.727v-32.727h32.727v8.081h40.91l8.181-8.081v-24.546zM563.737 310H531.01l-8.182 8.182v32.727L481.919 310h-32.727l-8.182 8.182v114.545l8.182 8.182h32.727l8.182-8.182V400l40.909 40.909h32.727l8.182-8.182V318.182zM621.01 440.909h32.626l8.182-8.182v-24.545l40.909-40.909v-49.091L694.545 310h-32.727l-8.182 8.182v16.363l-16.363 16.364-16.263-16.364v-16.363L612.828 310h-32.727l-8.182 8.182v49.091l40.909 40.909v24.545z"/></svg>