<svg id="Layer_1" data-name="Layer 1" xmlns="http://www.w3.org/2000/svg" viewBox="0 0 507.937 145.089"><style>.fill-color-black{fill:#000}</style><path class="fill-color-black" d="M25.235 112.112c0-.937-1.52-1.717-3.042-2.458-.468-.195-.936-.468-.936-.702 0-.195.312-.351 1.287-.39a22.178 22.178 0 014.057.936c.857.312 1.052.702 1.052 1.092 0 .313-.116.624-.116.976l-.079 21.06c-.078 5.11-1.053 6.474-1.56 6.474-.429 0-.663-.936-.663-2.847v-14.43l-3.627.156c-1.13.194-1.326.585-1.794.585a6.558 6.558 0 01-2.925-1.405 23.03 23.03 0 01-1.365 1.99c2.69 4.055 3.666 3.12 4.446 4.757a7.77 7.77 0 01.975 3.042c0 .663-.312.937-.624.937a.818.818 0 01-.546-.274c-1.677-1.754-3.51-5.771-4.914-7.643a45.871 45.871 0 01-10.062 8.697 1.857 1.857 0 01-.858.39c-.079 0-.156-.039-.156-.117 0-.155.234-.429.663-.818 1.91-1.327 10.296-8.62 12.48-16.381-1.131.039-3.822.272-5.772.468-.976.156-1.054.506-1.6.506-.663 0-3.587-1.13-3.587-1.715 0-.118.155-.196.467-.196a6.875 6.875 0 01.741.078 30.433 30.433 0 003.51.157 53.562 53.562 0 005.46-.235 4.559 4.559 0 012.029-.39c1.013 0 2.067 0 2.067.43 0 .233-.273.506-.43.78a33.908 33.908 0 01-2.73 5.187c.352 0 1.99.078 2.38.078 2.028 0 3.939-.117 5.772-.196zm6.28-2.81c-.04-.662-1.482-1.637-3.042-2.495-.585-.234-.898-.468-.898-.663 0-.234.39-.35 1.287-.39a37.06 37.06 0 014.33 1.209c.662.311.819.585.819.896 0 .274-.157.585-.157 1.015v27.574c-.155 3.627-.857 5.538-1.598 5.772-.351 0-.702-.39-.741-2.38zM57.45 117.532c-.079-.585-1.17-1.17-2.536-1.637-.585-.157-.975-.313-.975-.508 0-.155.351-.312 1.17-.507 4.095.352 4.758.663 4.758 1.326 0 .274-.117.624-.156 1.053l-.156 6.007c2.496-.04 4.33-.117 8.58-.43 3.199-.234 2.847-.975 4.486-.975 1.794 0 3.51.546 3.51 1.365 0 .468-.585.858-1.56.858h-.273c-1.756-.116-3.784-.156-5.968-.156-6.123 0-13.338.39-17.901.78-1.248.312-1.6.741-2.301.741-1.132 0-4.953-1.677-4.953-2.223 0-.117.116-.195.428-.195a5.796 5.796 0 01.663.078 49.71 49.71 0 006.904.468c2.184 0 4.329-.117 6.28-.273zm9.905-9.516c1.015-.078.82-.35 2.029-.35.935 0 2.496.116 2.496.623 0 .35-.547.78-.741 1.365-.936 3.354-1.639 6.747-3.199 9.048-.39.468-.702.741-.858.741s-.233-.156-.233-.428a4.075 4.075 0 01.116-.82 42.495 42.495 0 001.405-9.087c-3.12.039-10.726.39-14.9.819-1.052.156-1.442.507-2.105.507-1.131 0-4.096-1.677-4.096-2.028 0-.117.118-.156.43-.156a6.955 6.955 0 011.092.117 41.465 41.465 0 005.265.273c4.095 0 11.388-.429 13.3-.624zm-9.32 20.008c.467-.118.78-.39.78-.742a.805.805 0 00-.274-.546.666.666 0 01-.273-.467c0-.157.117-.274.43-.274.663 0 2.066.702 2.066 1.17a4.06 4.06 0 01-.312.898c4.72.82 6.943 3.744 6.943 6.59 0 3.16-2.77 6.28-7.918 6.203-5.226-.118-7.995-3.277-7.995-6.475 0-2.691 1.989-5.42 6.201-6.24zm-4.29 6.24c0 2.496 1.871 4.992 5.654 4.992s5.694-2.496 5.694-4.992c0-2.457-1.91-4.954-5.694-4.954s-5.655 2.497-5.655 4.954zM444.491 12.252c-12.643 0-23.474 6.9-31.927 16.594-4.414-11.027-12.949-16.594-25.186-16.594-12.662 0-21.694 7.784-29.723 16.411V12.206l-36.06-.018v93.9h36.06V48.162a18.038 18.038 0 0110.83-3.822c5.83 0 10.233 2.817 10.233 11.645v50.103h36.052V48.231a18.155 18.155 0 0110.86-3.817c5.806 0 10.231 2.811 10.231 11.638v50.036h36.06v-61.51c0-19.89-8.75-32.326-27.43-32.326M258.747-.12a53.028 53.028 0 00-52.783 48.045 29.246 29.246 0 1018.288 45.238A53.028 53.028 0 10258.747-.12M200.16 86.384a9.789 9.789 0 119.801-9.792 9.788 9.788 0 01-9.8 9.792m58.587-12.331a21.134 21.134 0 1121.127-21.121 21.118 21.118 0 01-21.127 21.121"/><path class="fill-color-black" d="M194.253 35.607V12.194s-23.336-1.795-35.488 16.697V12.1l-36.002.08v93.869h36.002V77.516c0-17.638 11.486-38.045 35.488-41.91M57.339 62.243L38.287 12.181H0l40.109 93.869h34.515l40.121-93.869H76.452L57.339 62.243zM486.61 106.529a7.187 7.187 0 01-5.358-2.11 8.009 8.009 0 01.021-10.785 7.846 7.846 0 0110.719-.034 8.026 8.026 0 01-.021 10.796 7.206 7.206 0 01-5.361 2.133m.024-1.317a5.752 5.752 0 004.342-1.731 6.745 6.745 0 00-.033-8.91 6.274 6.274 0 00-8.676-.021 6.728 6.728 0 00.034 8.898 5.75 5.75 0 004.333 1.764m2.299-2.211a1.398 1.398 0 01-1.229-.781l-1.361-1.944h-.804v1.72q0 .961-.915.96h-.29c-.596 0-.895-.395-.895-1.183v-5.54q0-1.159 1.095-1.16h2.389q3.261 0 3.26 2.524a2.158 2.158 0 01-1.831 2.299l1.787 2.345c.029.045-.008.127-.112.246a1.668 1.668 0 01-.47.347 1.319 1.319 0 01-.624.167m-3.439-6.297v2.032h1.317c.85 0 1.273-.335 1.273-1.005q0-1.026-1.318-1.027z"/></svg>