<svg xmlns="http://www.w3.org/2000/svg" viewBox="0 0 58 58"><path d="M36.22 23.94a5 5 0 00-7 0l-.21.28-.22-.22a5 5 0 00-7 0 5 5 0 000 7L29 38.17 36.22 31a5 5 0 000-7.06zM19.1 56.32a1 1 0 01-.78-.52l-2.2-4.25a1 1 0 010-.78v-.13a.76.76 0 01.59-.45l4.68-1.1h.22a.84.84 0 01.84.69.9.9 0 01-.11.66.87.87 0 01-.56.4l-2.16.49.61.25A23.5 23.5 0 0029 53.22 23.71 23.71 0 0041.9 9.61a.91.91 0 01-.43-.61.83.83 0 01.14-.63.88.88 0 01.76-.37.75.75 0 01.46.15 25.58 25.58 0 01-13.83 47 25.92 25.92 0 01-9.61-1.91l-.51-.2 1 2a.77.77 0 01.06.63.87.87 0 01-.45.54 1.14 1.14 0 01-.39.11zm-5.84-7a1.22 1.22 0 01-.57-.24A25.51 25.51 0 0135.41 4.83L36 5l-1.4-1.93a.85.85 0 01-.14-.66.9.9 0 01.36-.57 1.06 1.06 0 01.54-.16 1.12 1.12 0 01.78.35l2.8 3.89a1 1 0 01.1.79v.12a.79.79 0 01-.49.56l-4.47 1.72a.66.66 0 01-.34.06.85.85 0 01-.83-.55.92.92 0 01.49-1.19l2-.78-.6-.16A23.08 23.08 0 0029 5.8a23.77 23.77 0 00-15.18 42 .79.79 0 01.32.55.84.84 0 01-.21.67.79.79 0 01-.67.35zM17.8 48a.9.9 0 01-.51-.1 1 1 0 01-.42-.6.79.79 0 01.13-.63l1.18-1.86a.9.9 0 01.75-.44.87.87 0 01.47.15.9.9 0 01.42.6.78.78 0 01-.13.63l-1.17 1.86a1 1 0 01-.72.39zm-7.29-7.77a1 1 0 01-.86-.52.94.94 0 01.4-1.22l2-1a.87.87 0 01.42-.1.9.9 0 01.81.49 1 1 0 01.06.71.88.88 0 01-.45.53l-2 1a.84.84 0 01-.38.11zm-2.4-10.38a.89.89 0 110-1.78l2.19.06a.88.88 0 01.9.9.87.87 0 01-.89.89zM13 20.72a.75.75 0 01-.47-.11l-1.93-1.17a.91.91 0 01-.28-1.23 1 1 0 01.77-.42.88.88 0 01.46.14l1.93 1.17a.89.89 0 01.27 1.23.72.72 0 01-.63.4zm6.84-6.6a.92.92 0 01-.79-.46l-1.09-1.92a.88.88 0 01.32-1.22 1 1 0 01.49-.12.8.8 0 01.75.44l1.1 1.93a1 1 0 01-.38 1.23 1.36 1.36 0 01-.45.12zM29 51.3a.88.88 0 01-.89-.9v-2.2a.89.89 0 011.78 0v2.2a.88.88 0 01-.89.9zm9.21-37.18a1.19 1.19 0 01-.46-.12.92.92 0 01-.32-1.24l1.1-1.91a.89.89 0 01.77-.45 1 1 0 01.47.12.91.91 0 01.32 1.23L39 13.67a.9.9 0 01-.79.45zm6.87 6.73a.88.88 0 01-.78-.45.84.84 0 01.27-1.23L46.5 18a.71.71 0 01.42-.14 1 1 0 01.81.49.85.85 0 01-.28 1.23l-1.92 1.16a1 1 0 01-.45.11zm2.61 9.07a.87.87 0 01-.89-.92.93.93 0 01.89-.9l2.21-.06a.93.93 0 01.89.89.8.8 0 01-.18.61 1 1 0 01-.72.28zm-.2 10.38a1 1 0 01-.39-.12l-2-1a.93.93 0 01-.39-1.24 1 1 0 01.82-.49.86.86 0 01.41.1l1.92 1.09a1 1 0 01.4 1.25.9.9 0 01-.77.41zM40.2 48a.8.8 0 01-.71-.38l-1.17-1.86a.75.75 0 01-.12-.65 1.1 1.1 0 01.4-.59 1 1 0 01.43-.1 1 1 0 01.8.4L41 46.66a.92.92 0 01-.29 1.24h-.13a1.43 1.43 0 01-.38.1zM23.15 29.66a3 3 0 010-4.35 3 3 0 012.14-.92 2.79 2.79 0 012.15.93L29 26.87l1.57-1.56a3 3 0 012.15-.87 3.21 3.21 0 012.2.86 3 3 0 01-.07 4.3L29 35.51z" fill="#fff"/></svg>