<svg xmlns="http://www.w3.org/2000/svg" viewBox="0 0 499.346 135.027"><style>.fill-color-white{fill:#fff}</style><path class="fill-color-white" d="M439.903 42.159c-12.513 0-23.23 6.829-31.598 16.422-4.368-10.912-12.815-16.422-24.925-16.422-12.533 0-21.47 7.704-29.416 16.24V42.115l-35.689-.018v92.93h35.69V77.699a17.853 17.853 0 0110.715-3.782c5.772 0 10.128 2.787 10.128 11.525v49.586h35.68V77.765a17.973 17.973 0 0110.748-3.777c5.747 0 10.126 2.782 10.126 11.518v49.52h35.688V74.15c0-19.683-8.661-31.991-27.146-31.991M256.076 29.914a52.48 52.48 0 00-52.238 47.55 28.945 28.945 0 1018.1 44.771 52.481 52.481 0 1034.138-92.32m-57.982 85.61a9.688 9.688 0 119.7-9.69 9.687 9.687 0 01-9.7 9.69m57.982-12.204a20.915 20.915 0 1120.91-20.902 20.899 20.899 0 01-20.91 20.902"/><path class="fill-color-white" d="M192.248 65.272V42.101s-23.095-1.776-35.121 16.525V42.01l-35.632.078v92.9h35.632v-28.239c0-17.456 11.367-37.653 35.121-41.477M56.748 91.634L37.893 42.089H0l39.695 92.899h34.158l39.708-92.899H75.663L56.748 91.634zM359.185 22.241a18.066 18.066 0 01-.659 5.408 6.91 6.91 0 01-2.161 3.284 11.762 11.762 0 01-4.395 2.038 22.463 22.463 0 01-5.968.794q-5.933 0-9.143-2.161a6.969 6.969 0 01-3.21-6.14 17.961 17.961 0 011.025-6.201 41.394 41.394 0 014.394-8.057l1.465 1.026a52.736 52.736 0 00-3.162 5.981 10.208 10.208 0 00-.744 3.833 4.791 4.791 0 002.746 4.187 14.077 14.077 0 007.215 1.623 14.932 14.932 0 007.397-1.684q3.003-1.685 3.003-4.126a8.964 8.964 0 00-.525-3.003 40.632 40.632 0 00-2.258-4.76l2.148-6.593a32.273 32.273 0 012.1 4.273 16.805 16.805 0 01.733 5.396zm-8.032-19.214l-2.93 5.47-5.713-2.98L345.464 0z"/><path class="fill-color-white" d="M379.937 23.413a22.183 22.183 0 01-6.03-1 29.54 29.54 0 01-5.37-2.076 6.59 6.59 0 01-3.492 2.783 9.375 9.375 0 01-2.734.317h-4.834v-6.64h4.834a9.295 9.295 0 003.49-.537 3.976 3.976 0 002.296-2.368 15.39 15.39 0 013.564-5.103q1.928-1.782 3.272-1.782 1.245 0 3.076 3.76a16.974 16.974 0 011.928 7.324zm-4.565-7.373a4.042 4.042 0 00-1.05-1.855q-1.172-1.465-2.027-1.465-.952 0-1.61 2.197 1.268.489 1.928.732a15.03 15.03 0 002.221.733c.358 0 .538-.114.538-.342zM411.846 23.437l-3.173-.024a37.083 37.083 0 00-7.91.757q-3.443.757-3.443 1.733.952 2.93 1.696 5.493a17.408 17.408 0 01.746 4.859 9.031 9.031 0 01-.33 2.685 8.069 8.069 0 01-1.233 2.246 39.852 39.852 0 00-1.196-6.762q-.318-1.245-1.587-5.25a14.055 14.055 0 01-.781-3.27 8.53 8.53 0 01.634-2.857 13.9 13.9 0 011.172-2.466 5.206 5.206 0 012.722-1.929 27.3 27.3 0 015.92-1.147q-1.953-2.734-3.417-2.735a1.796 1.796 0 00-1.196.489 16.933 16.933 0 00-1.831 2.148l-1.172-.586a16.987 16.987 0 012.65-5.75 4.423 4.423 0 013.453-2.014 5.663 5.663 0 013.638 1.88 34.164 34.164 0 014.639 5.86zM434.405 21.753q0 4.2-3.564 8.3t-7.031 4.102a9.47 9.47 0 01-4.432-1.294 64.182 64.182 0 01-7.385-5.102l1.026-1.416a20.625 20.625 0 004.32 2.344 9.494 9.494 0 007.838-.83 22.138 22.138 0 005.664-5.03 12.483 12.483 0 01-1.71.147 4.937 4.937 0 01-3.845-1.575 6.143 6.143 0 01-1.428-4.285 15.681 15.681 0 011.685-7.055q1.83-3.686 4.175-3.687 1.952 0 3.32 2.661a13.912 13.912 0 011.367 6.421zm-2.93-4.956q-.684-3.93-2.783-3.93a1.44 1.44 0 00-1.21.597 2.124 2.124 0 00-.45 1.307 1.676 1.676 0 00.965 1.452 4.95 4.95 0 002.55.574z"/><path class="fill-color-white" d="M458.575 11.792l-2.734 6.933q-6.569 2.027-10.865 3.125a61.543 61.543 0 01-6.299 1.319 26.708 26.708 0 01-3.784.268h-2.197v-6.64h2.637q.707 0 1.05-.025.732-.097 1.44-.146a15.186 15.186 0 01-1.636-2.966 7.376 7.376 0 01-.415-2.552 8.329 8.329 0 013.016-6.36 10.18 10.18 0 017.043-2.722 8.706 8.706 0 015.175 1.783 9.961 9.961 0 013.32 4.028l-1.025.879a19.844 19.844 0 00-3.065-.952 15.006 15.006 0 00-2.794-.22 24.735 24.735 0 00-5.25.488q-2.808.61-2.807 1.758 0 1.684 6.787 5.566zM478.594 23.437h-11.06a3.867 3.867 0 01-2.465-.683 3.248 3.248 0 01-1.05-2.71q0-1.074.11-2.32.108-1.245.329-2.514l.928-.049a1.833 1.833 0 00.866 1.245 3.176 3.176 0 001.624.39h8.398a14.744 14.744 0 00-1.953-5.736 10.187 10.187 0 00-3.198-3.077L472.88.366a12.754 12.754 0 014.492 6.104 27.998 27.998 0 011.22 9.13z"/><path class="fill-color-white" d="M499.346 23.413a22.184 22.184 0 01-6.03-1 29.543 29.543 0 01-5.37-2.076 6.59 6.59 0 01-3.492 2.783 9.374 9.374 0 01-2.734.317h-4.834v-6.64h4.834a9.295 9.295 0 003.491-.537 3.976 3.976 0 002.295-2.368 15.39 15.39 0 013.564-5.103q1.928-1.782 3.272-1.782 1.245 0 3.076 3.76a16.974 16.974 0 011.929 7.324zm-4.565-7.373a4.042 4.042 0 00-1.05-1.855q-1.172-1.465-2.026-1.465-.953 0-1.612 2.197 1.269.489 1.929.732a15.03 15.03 0 002.222.733c.357 0 .537-.114.537-.342zM489.027 134.525a7.188 7.188 0 01-5.358-2.11 8.008 8.008 0 01.021-10.785 7.847 7.847 0 0110.72-.035 8.026 8.026 0 01-.023 10.797 7.202 7.202 0 01-5.36 2.133m.023-1.318a5.753 5.753 0 004.343-1.73 6.747 6.747 0 00-.033-8.91 6.272 6.272 0 00-8.676-.022 6.728 6.728 0 00.034 8.898 5.745 5.745 0 004.332 1.764m2.3-2.21a1.4 1.4 0 01-1.229-.78l-1.36-1.945h-.806v1.72q0 .96-.914.96h-.29q-.895 0-.895-1.184v-5.538q0-1.16 1.095-1.16h2.39q3.26 0 3.26 2.523a2.16 2.16 0 01-1.832 2.3l1.787 2.344c.03.045-.009.126-.112.245a1.65 1.65 0 01-.47.347 1.323 1.323 0 01-.624.168m-3.44-6.298v2.033h1.318q1.274 0 1.273-1.006c0-.683-.44-1.027-1.318-1.027z"/></svg>