<svg xmlns="http://www.w3.org/2000/svg" viewBox="0 0 50 50"><path d="M48.659 17.276C45.335 6.987 35.849 0 25.04 0h-.142C14.069 0 4.55 6.97 1.211 17.272l-.174.648.007.006c-3.019 10.122.647 20.996 9.249 27.232A24.765 24.765 0 0024.94 49.91c5.077 0 9.935-1.506 14.093-4.365l.018.024.544-.403a24.854 24.854 0 009.064-27.89zM5.74 19.516l9.989 3.358 3.086 9.472-6.135 8.332-7.823-3.415a23.435 23.435 0 01-3.399-10.425l4.282-7.322zm6.501-14.425c.337-.215.68-.42 1.028-.618l.278-.154c.748-.413 1.518-.79 2.311-1.12l8.365 1.827.006 10.446-8.267 5.985-9.765-3.282.838-8.552a23.482 23.482 0 015.078-4.447l.128-.085zM20.043 34h9.79l6.225 7.988-5.607 6.085c-1.788.426-3.632.537-5.512.537-1.872 0-3.711-.283-5.491-.707l-5.629-5.887L20.043 34zM34.002 3.189c.351.146.695.305 1.038.468.097.046.195.089.291.136.35.172.694.353 1.034.541.088.048.174.099.261.148a23.463 23.463 0 014.264 3.113l.045.042a23.47 23.47 0 011.888 1.96l.853 8.578-9.759 3.28-8.273-6.01-.007-10.417 8.365-1.839zm-2.94 29.157l3.088-9.473 9.987-3.357 4.294 7.318a23.418 23.418 0 01-3.366 10.393l-7.869 3.451-6.134-8.332z"/></svg>