<svg xmlns="http://www.w3.org/2000/svg" viewBox="0 0 50 50"><path d="M39.393 49.821H10.608a.555.555 0 01-.555-.555V31.131c0-.306.248-.555.555-.555h28.785c.306 0 .555.248.555.555v18.136a.555.555 0 01-.555.554zm-28.231-1.109h27.676V31.685H11.162v17.027z"/><path d="M42.339 31.685H7.661a.555.555 0 01-.555-.555v-2.157c0-.306.248-.555.555-.555H42.34c.306 0 .555.248.555.555v2.157a.556.556 0 01-.556.555zM8.215 30.576h33.57v-1.048H8.215v1.048z"/><path d="M39.393 29.528H10.608a.555.555 0 01-.555-.555V10.838c0-.306.248-.555.555-.555h28.785c.306 0 .555.248.555.555v18.136a.555.555 0 01-.555.554zm-28.231-1.109h27.676V11.392H11.162v17.027z"/><path d="M42.339 11.392H7.661a.555.555 0 01-.555-.555V8.681c0-.306.248-.555.555-.555H42.34c.306 0 .555.248.555.555v2.157a.556.556 0 01-.556.554zM8.215 10.283h33.57V9.236H8.215v1.047zM23.855 3.445H13.072a.555.555 0 01-.555-.555V.733c0-.306.248-.555.555-.555h10.782c.306 0 .555.248.555.555V2.89a.555.555 0 01-.554.555zM13.627 2.336H23.3V1.288h-9.673v1.048zM21.904 25.883a.555.555 0 01-.555-.555V14.741h-6.542v10.587a.555.555 0 01-1.11 0V14.186c0-.306.248-.555.555-.555h7.651c.306 0 .555.248.555.555v11.142a.555.555 0 01-.554.555z"/><path d="M23.598 25.883H12.559a.555.555 0 010-1.11h11.039a.555.555 0 010 1.11zM21.904 20.312h-7.651a.555.555 0 010-1.11h7.651a.555.555 0 010 1.11zM35.747 25.883a.555.555 0 01-.555-.555V14.741H28.65v10.587a.555.555 0 01-1.11 0V14.186c0-.306.248-.555.555-.555h7.651c.306 0 .555.248.555.555v11.142a.554.554 0 01-.554.555z"/><path d="M37.441 25.883H26.402a.555.555 0 010-1.11h11.039a.555.555 0 010 1.11zM35.747 20.312h-7.651a.555.555 0 010-1.11h7.651a.555.555 0 010 1.11z"/><g><path d="M21.904 45.959a.555.555 0 01-.555-.555V34.817h-6.542v10.587a.555.555 0 01-1.11 0V34.263c0-.306.248-.555.555-.555h7.651c.306 0 .555.248.555.555v11.142a.554.554 0 01-.554.554z"/><path d="M23.598 45.959H12.559a.555.555 0 010-1.11h11.039a.555.555 0 010 1.11zM21.904 40.388h-7.651a.555.555 0 010-1.11h7.651a.555.555 0 010 1.11z"/></g><g><path d="M35.747 45.959a.555.555 0 01-.555-.555V34.817H28.65v10.587a.555.555 0 01-1.11 0V34.263c0-.306.248-.555.555-.555h7.651c.306 0 .555.248.555.555v11.142a.553.553 0 01-.554.554z"/><path d="M37.441 45.959H26.402a.555.555 0 010-1.11h11.039a.555.555 0 010 1.11zM35.747 40.388h-7.651a.555.555 0 010-1.11h7.651a.555.555 0 010 1.11z"/></g><g><path d="M21.596 9.236h-6.264a.555.555 0 01-.555-.555V2.89c0-.306.248-.555.555-.555h6.264c.306 0 .555.248.555.555v5.791a.556.556 0 01-.555.555zm-5.71-1.109h5.155V3.445h-5.155v4.682z"/></g></svg>