<svg xmlns="http://www.w3.org/2000/svg" viewBox="0 0 50 50"><path d="M49.327 13.776a.813.813 0 00-.906.523c-1.53 4.207-6.698 7.761-11.286 7.761h-8.512v-1.198h.468a.814.814 0 000-1.628h-2.564a.814.814 0 000 1.628h.468v1.198h-3.002v-1.198h.468a.814.814 0 000-1.628h-2.564a.814.814 0 000 1.628h.468v1.198h-3.002v-1.198h.468a.814.814 0 000-1.628h-2.564a.814.814 0 000 1.628h.468v1.198H1.628v-.45a.814.814 0 00-1.628 0v4.903a.814.814 0 001.628 0v-.45h5.077a5.777 5.777 0 00-2.019 4.384 5.796 5.796 0 005.79 5.789H36.19a5.796 5.796 0 005.79-5.789 5.76 5.76 0 00-1.413-3.779c3.481 1.187 6.702 3.985 7.855 7.156A.813.813 0 0050 33.547v-18.97a.813.813 0 00-.673-.801zM22.178 26.692v7.51h-2.583v-7.51h2.583zm2.035 0h2.583v7.51h-2.583v-7.51zM6.72 30.447a3.76 3.76 0 013.755-3.755h7.085v7.51h-7.085a3.76 3.76 0 01-3.755-3.755zm29.47 3.755h-7.36v-7.51h7.36a3.759 3.759 0 013.755 3.755 3.76 3.76 0 01-3.755 3.755zm12.182-3.761c-2.555-3.479-7.022-6.005-11.237-6.005H1.628v-.749h35.508c4.214 0 8.682-2.526 11.237-6.005l-.001 12.759z"/></svg>