<svg xmlns="http://www.w3.org/2000/svg" viewBox="0 0 50 50"><path d="M49.104 3.008c-.995-1.086-2.486-.913-3.806-.913H3.411c-.717 0-1.411.097-2.027.512C.377 3.286 0 4.377 0 5.537v29.052c0 1.71 1.399 3.122 3.109 3.122h16.48l-.661 3.814-1.056.546-.548.283c.546-.283.004-.005-.166.074a3.6 3.6 0 00-.524.303c-.527.364-.917.834-.979 1.492-.024.26-.007.528-.007.789 0 .975.033 1.935.966 2.526.731.464 1.611.369 2.437.369h11.888c.565 0 1.136.022 1.701-.007 1.275-.065 2.093-1.084 2.093-2.307 0-.693.124-1.53-.257-2.146-.319-.516-.862-.843-1.409-1.087l-.006-.003-1.992-.868-.655-3.777H46.94c1.679 0 2.942-1.37 3.055-2.982.003-.044.005-.088.005-.134V5.627c0-.978-.205-1.865-.896-2.619zM2.314 5.269h45.301v25.786H2.314V5.269zm29.64 38.977c.043.019.087.035.131.05.042.022.086.043.13.061-.419-.17-.085-.033.032.027.079.04.156.085.232.13l.063.047v1.127c-.045.009-.099.031-.037.031H17.877c.043 0-.001-.016-.042-.024l-.001-.001-.001-1.138a4.028 4.028 0 01.525-.283c-.532.237.3-.149.412-.207l1.651-.853c.533-.276.559-.788.647-1.293l.669-3.861h6.523l.648 3.737.123.713c.082.466.45.659.826.823l2.097.914zm15.858-9.65c-.017.525-.393.927-.877.927H3.065c-.043 0-.085-.003-.131-.004.169.006-.182-.052-.182-.052.074.04.053.03-.065-.031a1.962 1.962 0 01-.199-.126c.107.072-.031-.059-.095-.118.01-.002-.064-.111-.102-.166a1.954 1.954 0 00-.082-.223 1.437 1.437 0 00-.026-.086.425.425 0 00.005-.12V32.048h45.625v2.548z"/></svg>