<svg height="100" width="100" xmlns="http://www.w3.org/2000/svg" viewBox="0 0 64 64"><g data-name="Outline Icon"><path d="M49 18H29a5.006 5.006 0 00-5 5v12a5.006 5.006 0 005 5h3.32l2.832 4.53a1 1 0 001.7 0L39.68 40H49a5.006 5.006 0 005-5V23a5.006 5.006 0 00-5-5zm3 17a3 3 0 01-3 3h-9.875a1 1 0 00-.848.47L36 42.113l-2.277-3.643a1 1 0 00-.848-.47H29a3 3 0 01-3-3V23a3 3 0 013-3h20a3 3 0 013 3z"/><path d="M47 25H31a1 1 0 000 2h16a1 1 0 000-2zM47 30H31a1 1 0 000 2h16a1 1 0 000-2z"/><path d="M43 43a1 1 0 00-1 1v5H12V13h30v2a1 1 0 002 0V8a6.006 6.006 0 00-6-6H16a6.006 6.006 0 00-6 6v48a6.006 6.006 0 006 6h22a6.006 6.006 0 006-6V44a1 1 0 00-1-1zM16 4h22a4 4 0 014 4v3H12V8a4 4 0 014-4zm22 56H16a4 4 0 01-4-4v-5h30v5a4 4 0 01-4 4z"/><path d="M23.5 8.5h7a1 1 0 000-2h-7a1 1 0 000 2zM27 52a3.5 3.5 0 103.5 3.5A3.5 3.5 0 0027 52zm0 5a1.5 1.5 0 111.5-1.5A1.5 1.5 0 0127 57z"/></g></svg>