<svg xmlns="http://www.w3.org/2000/svg" viewBox="0 0 50 50"><path d="M27.588 49.828a9.119 9.119 0 01-6.49-2.688 9.114 9.114 0 01-2.688-6.49V28.358a.733.733 0 111.466 0V40.65c0 2.06.802 3.997 2.259 5.454 1.457 1.457 3.394 2.259 5.454 2.259s3.997-.802 5.454-2.259a7.662 7.662 0 002.259-5.454V23.032a.733.733 0 111.466 0V40.65a9.119 9.119 0 01-2.688 6.49 9.122 9.122 0 01-6.492 2.688z"/><path d="M36.034 23.022a4.006 4.006 0 01-4.002-4.002 4.006 4.006 0 014.002-4.002 4.006 4.006 0 014.002 4.002 4.006 4.006 0 01-4.002 4.002zm0-6.539a2.54 2.54 0 00-2.537 2.537 2.54 2.54 0 002.537 2.537 2.54 2.54 0 002.537-2.537 2.54 2.54 0 00-2.537-2.537z"/><path d="M36.034 20.796c-.98 0-1.777-.797-1.777-1.777 0-.98.797-1.777 1.777-1.777.98 0 1.777.797 1.777 1.777 0 .98-.797 1.777-1.777 1.777zm0-2.088a.311.311 0 100 .623.311.311 0 000-.623zM19.142 25.514c-2.432 0-4.723-.821-6.451-2.312-1.759-1.518-2.728-3.545-2.728-5.707a.733.733 0 111.466 0c0 1.73.788 3.363 2.22 4.598 1.462 1.262 3.413 1.956 5.494 1.956s4.031-.695 5.493-1.956c1.431-1.235 2.22-2.868 2.22-4.598a.733.733 0 111.466 0c0 2.163-.969 4.19-2.728 5.707-1.729 1.491-4.02 2.312-6.452 2.312z"/><path d="M19.142 29.09a9.119 9.119 0 01-6.49-2.688 9.116 9.116 0 01-2.688-6.49V2.541c0-.405.328-.733.733-.733h2.837a.733.733 0 110 1.466H11.43v16.638c0 2.06.802 3.997 2.259 5.454 1.457 1.457 3.394 2.259 5.454 2.259s3.997-.802 5.454-2.259a7.662 7.662 0 002.259-5.454V3.273h-2.061a.733.733 0 110-1.466h2.794c.405 0 .733.328.733.733v17.371a9.119 9.119 0 01-2.688 6.49 9.12 9.12 0 01-6.492 2.689z"/><path d="M24.724 4.91a.733.733 0 01-.733-.733V.904a.733.733 0 111.466 0v3.273a.734.734 0 01-.733.733zM13.744 4.91a.733.733 0 01-.733-.733V.904a.733.733 0 111.466 0v3.273a.733.733 0 01-.733.733z"/></svg>