<svg xmlns="http://www.w3.org/2000/svg" viewBox="0 0 50 50"><path d="M13.521 34.861l.016-11.471 10.639-3.547c.215.096.465.154.734.154.783 0 1.416-.462 1.416-1.03 0-.568-.634-1.03-1.416-1.03-.616 0-1.135.289-1.329.687l-10.929 3.644a.673.673 0 00-.46.637l-.017 11.958"/><path d="M12.176 33.202a1.707 1.707 0 00-.74.605 1.702 1.702 0 00.242 2.197c-.062.34-.103.688-.137 1.042-.037.389-.068.789-.142 1.197-.075.41-.161.835-.418 1.26-.185.21.839.649 1.864.65 1.025.001 2.05-.438 1.867-.647-.258-.427-.343-.855-.415-1.263-.071-.407-.101-.808-.137-1.196-.031-.358-.068-.71-.131-1.052.084-.08.161-.168.228-.266a1.706 1.706 0 00-.738-2.528"/><g><path d="M49.238 18.475L25.271 10.86a.763.763 0 00-.456-.001L.99 18.333a.755.755 0 00-.531.719c-.001.33.026.623.339.725L8 22.171v7.415c0 .315.38.598.675.709l3.087 1.128-.394-1.618L9 29.062v-6.4l3 .428v-.34c0-.322-.096-.609.208-.715l.378-.185-8.727-2.782 21.256-6.69 21.409 6.814-21.616 6.742-8.878-2.849-2.03.646v.318l10.571 3.401c.076.024.194.037.274.037.076 0 .573-.011.646-.035L41 22.742v6.305l-15.558 5.725-11.092-4.103-.102 1.618 10.577 4.004a.62.62 0 00.242.049.68.68 0 00.255-.049l16.051-6.011c.295-.112.627-.394.627-.709v-7.302l7.377-2.348c.316-.098.46-.39.461-.721s-.284-.625-.6-.725z"/></g></svg>