<svg xmlns="http://www.w3.org/2000/svg" viewBox="0 0 63.2 80"><path d="M11.1 49C7.2 40.3 9 30.5 15.6 23.9c6.6-6.6 16.5-8.4 25.1-4.6.1 0 .2.1.2.1l-4.2 3.3c-1.8 1.4-2.1 3.9-.7 5.7.8 1 2 1.6 3.2 1.6.9 0 1.8-.3 2.5-.9l10.7-8.4c1.2-1 1.8-2.5 1.5-4L51.2 3.2C50.7 1 48.6-.4 46.4 0c-2.2.5-3.6 2.6-3.2 4.8l1.3 6.2s-.1 0-.1-.1C32.3 5.7 18.5 8.2 9.2 17.5-.1 26.8-2.6 40.6 2.8 52.7c.7 1.7 2.4 2.7 4.1 2.7.6 0 1.2-.1 1.8-.4 2.4-1.1 3.4-3.7 2.4-6zM60.4 27c-1-2.3-3.7-3.3-6-2.3s-3.3 3.7-2.3 6c3.8 8.7 2.1 18.5-4.6 25.1-6.5 6.5-16.1 8.3-24.6 4.8l4.2-3.3c1.8-1.4 2.1-3.9.7-5.7-1.4-1.8-3.9-2.1-5.7-.7l-10.7 8.4c-1.2 1-1.8 2.5-1.5 4l2.8 13.4c.4 1.9 2.1 3.2 4 3.2.3 0 .6 0 .8-.1 2.2-.5 3.6-2.6 3.2-4.8l-1.3-6.2c4 1.7 8.2 2.5 12.4 2.5 8.2 0 16.1-3.2 22.2-9.2 9.3-9.2 11.8-23 6.4-35.1z"/></svg>