<svg xmlns="http://www.w3.org/2000/svg" viewBox="0 0 508.3 145.4"><path d="M.2 51.2h38.3c6.3 16.6 12.6 33.1 19 50 .6-1.4 1-2.5 1.4-3.5 5.8-15.1 11.6-30.3 17.3-45.4.2-.6.4-1.1 1.3-1.1h36.7c.2 0 .4 0 .7.1-.9 2.1-1.7 4-2.5 6-12.4 28.9-24.7 57.8-37 86.7-.4 1-.9 1.2-1.9 1.2H41.6c-1 0-1.4-.3-1.8-1.2-13-30.5-26-60.9-39-91.4-.2-.4-.4-.7-.5-1.1-.1-.1-.1-.2-.1-.3zM321.8 145.1V51.4h36v16c.1 0 .2.1.3.1 1.3-1.4 2.6-2.7 4-4.1 4.7-4.6 9.9-8.6 16.2-10.6 7.7-2.4 15.4-2.1 22.7 1.5 5.1 2.5 8.5 6.7 10.9 11.7.3.6.5 1.1.7 1.5 3.1-2.7 6.1-5.6 9.3-8.1 5.4-4.3 11.6-7 18.5-7.8 7.8-.8 15.3.1 21.7 5.2 4.7 3.8 7.3 8.8 8.6 14.6.8 3.7 1.3 7.5 1.3 11.3.1 20.2.1 40.4.1 60.6v1.8H436v-1.4-49.1c0-1.6-.3-3.3-.7-4.8-1.1-3.7-3.7-5.7-7.5-6.1-4.4-.5-8.4.7-12.1 3.2-.7.5-.7 1.1-.7 1.8v56.5h-36.1v-1.4-48.6c0-1.2-.1-2.5-.3-3.7-1-5.3-4.5-8.1-10-7.9-3.7.1-7.1 1.3-10 3.4-.3.2-.5.7-.6 1.2-.1.3 0 .7 0 1.1V145.2c-12.2-.1-24.2-.1-36.2-.1zM224.5 132.4c-9.6 13.6-27 15.5-38.7 8.6-11.9-6.9-17.3-21-13.4-34 3.5-11.5 15.8-23.1 33.6-20.2 2.8-20.3 13.1-35.2 32-43.5 14-6.2 28.3-6.1 42.2.1 28.8 12.7 39.7 46.2 25.9 72.8-7.8 15.1-20.3 24.5-36.9 27.8-16.7 3.3-31.6-.9-44.7-11.6zM280.1 92c0-11.7-9.5-21.1-21.1-21.1-11.6 0-21.2 9.6-21.2 21.1 0 11.8 9.6 21.1 21.5 21.1 11.3 0 20.8-9.6 20.8-21.1zm-79.9 33.5c5.3.1 9.8-4.3 9.9-9.5.1-5.4-4.2-10-9.5-10-5.6-.1-10 4.2-10.1 9.7 0 5.3 4.4 9.7 9.7 9.8z"/><path d="M123 145.1V51.4h35.9v16.4c8.9-12.3 21.2-16.5 35.5-16.6v23.3c-3.1.9-6.3 1.6-9.2 2.8-13.7 5.6-21.9 15.9-25.2 30.2-.7 3.2-1 6.5-1 9.7-.1 8.8 0 17.6 0 26.4v1.5h-36zM18 11.7c5.3-4.7 9.1-4.4 13 .7 1.4-2.2 3.2-3.7 5.9-3.9 5-.5 8.2 2.2 8.3 7.3.1 3.8 0 7.5 0 11.3 0 1.7-.8 2.5-2.6 2.6-2.2.1-3.2-.6-3.3-2.4-.1-3.2-.1-6.5-.1-9.7 0-1.6-.3-3.1-2-3.8-1.7-.7-3.3-.2-4.6 1-.7.6-1 1.3-1 2.3.1 3.2 0 6.4 0 9.6 0 2.6-2.5 4-4.8 2.6-1-.6-1.1-1.6-1.1-2.6v-8.5c0-.6 0-1.1-.1-1.7-.3-1.8-1.3-2.8-2.9-3-1.8-.2-4 1-4.5 2.4-.1.3-.1.7-.1 1.1v9.6c0 2.7-2.5 4.2-4.8 2.7-.6-.4-1.1-1.4-1.1-2.1-.1-5.7-.1-11.4 0-17.2 0-.3.4-.8.8-1 2.3-.9 4.1.1 5 2.7zM168 11.3c0-3.3.1-6.3 0-9.2 0-1.2.4-1.6 1.5-1.8 2.4-.3 3.9.7 4.3 3.1.1.6.1 1.2.1 1.8v21.2c0 3-1.4 3.7-4.3 3.1-1.4-.3-1.5-1.6-1.7-2.8-.1.1-.3.1-.3.2-3.3 4.9-11.4 3.9-14.3-1.5-2-3.9-2.1-7.9-.2-11.9 2.7-5.7 10.6-6.7 14.9-2.2zm.1 7.4c-.1-.8 0-1.9-.4-2.8-1-2-2.9-2.8-5.1-2.6-2.1.1-3.6 1.2-4.4 3.2-.9 2.2-.8 4.4.5 6.5 1.1 1.9 2.9 2.6 5 2.3 2.1-.3 3.6-1.4 4.2-3.4.1-1 .1-2 .2-3.2zM215.7 27.1c0 2.3-.1 4.8 0 7.3.1 3.4-1.8 3.6-4.4 3.2-.5-.1-1-.7-1.3-1.2-.3-.5-.3-1.2-.3-1.9V10.6c0-1.2.5-1.5 1.5-1.7 2.2-.4 3.5.5 4.5 3.1.1 0 .2 0 .2-.1 2.1-2.9 5-3.8 8.3-3.2 3.6.6 5.9 2.9 7 6.3 1.2 3.8 1 7.6-1.2 11.1-2.2 3.4-6.6 4.9-10.3 3.5-1.6-.6-2.8-1.7-4-2.5zm0-8.2v1.6c0 2.1 1.2 3.8 3.2 4.5 2 .7 3.9.5 5.4-1.1 1.9-1.9 2.1-4.3 1.4-6.8-.5-2-1.9-3.3-4-3.7-3.6-.7-6 1.6-6 5.5zM55.4 12c2.5-3.5 5.9-4.2 9.7-3 3.9 1.2 5.8 4.3 6.3 8.1.5 3.5 0 6.9-2.4 9.8-3.2 3.9-10.3 4.4-13.2 0-.1-.1-.2-.1-.4-.3v8c0 2.7-2.4 4-4.7 2.6-.5-.3-.9-1-1-1.6-.2-.7-.1-1.5-.1-2.3V10.5c0-1.5.2-1.7 1.7-1.9 2-.2 3.3.6 3.9 2.5 0 .4.1.6.2.9zm-.1 6.8c.1.8 0 1.6.2 2.4.3 2 1.5 3.3 3.3 3.9 1.9.6 3.7.3 5.2-1.1 1.6-1.5 1.9-3.5 1.7-5.6-.4-3.3-2.6-5.2-5.7-5-3 .1-4.6 2.1-4.7 5.4zM142.8 16.9c-.1-1.8-.7-3.1-2.4-3.7-2-.7-4.5-.1-5.9 1.4-.1.1-.2.2-.3.4-1 1.3-1.8 1.4-3.3.6-1.2-.6-1.7-1.9-1-3.2.6-1 1.5-2.1 2.5-2.6 3.9-1.9 8-2 12.1-.3 2.9 1.2 4 3.7 4.1 6.6.1 4.1 0 8.2 0 12.2 0 .8-.3 1-1 1.2-2.4.5-3.6-.1-4.8-2.8-2.5 2.9-5.7 3.6-9.3 2.8-2.5-.6-4.2-2.4-4.5-4.7-.3-2.9.7-4.9 3.3-6.2 2.7-1.3 5.7-1.5 8.6-1.7.6.1 1.2.1 1.9 0zm0 3.4c-2.3.1-4.5 0-6.6 1.1-1 .5-1.6 1.3-1.5 2.5.1 1.2.9 1.8 2 2.1 3.5.8 6.5-1.8 6.1-5.7zM89 26.6c-1.5 1.9-3.3 3.1-5.6 3.4-4.6.6-8.2-2.1-8.5-6.8-.2-4-.1-8-.1-12 0-1.9.9-2.5 3-2.5 1.9 0 2.8.8 2.8 2.6v8.4c0 .5 0 1 .1 1.4.2 2.2 1.2 3.4 3 3.8 1.8.4 4-.6 4.9-2.2.2-.4.3-.9.3-1.4v-9.6c0-2.7 2.4-4 4.8-2.7.9.5 1.2 1.4 1.2 2.3v17c0 .3-.4.8-.8 1-2.3 1-4.1 0-5.1-2.7zM199.2 19.4c0 6.4-4.4 10.7-11 10.7-6.5 0-10.9-4.4-10.9-10.9 0-6.3 4.5-10.7 11.1-10.6 6.5-.1 10.8 4.3 10.8 10.8zm-16.7-.2c0 3.6 2.4 6.2 5.7 6.1 3.2 0 5.7-2.6 5.7-6 0-3.5-2.5-6.2-5.7-6.3-3.2.1-5.7 2.7-5.7 6.2zM245 8.5c6.5 0 11 4.4 11 10.8s-4.5 10.8-11.1 10.8c-6.5 0-10.9-4.3-10.9-10.8.1-6.5 4.5-10.8 11-10.8zm5.7 10.8c0-3.6-2.5-6.3-5.7-6.2-3.2 0-5.7 2.7-5.7 6.1 0 3.5 2.5 6.1 5.7 6.1s5.7-2.5 5.7-6zM124.2 15.4c-2-2-4.3-3-7.2-2.6-.4.1-.9.1-1.2.4-.4.4-1 1-1 1.5s.5 1.2 1 1.4c1.3.5 2.6.7 3.9 1.1 1.2.3 2.4.7 3.5 1.1 2 .9 3.3 2.4 3.4 4.7.1 2.4-.8 4.3-2.9 5.5-1.8 1.1-3.7 1.4-5.7 1.4-2.4 0-4.8-.1-7-1.3-.7-.4-1.4-1-1.9-1.6-.8-1.1-.6-2.3.3-3.3.5-.6 1-.7 1.7-.1 2.2 1.9 4.8 2.5 7.7 2 1-.2 1.9-.6 2-1.8.1-1.2-.8-1.6-1.8-1.8-1.4-.4-2.9-.7-4.3-1-.7-.2-1.4-.5-2.1-.7-4.7-1.9-4.2-7.8-.8-10.1 2.5-1.7 5.2-2 8.1-1.5 1.7.3 3.4.7 4.8 1.6 2.1 1.4 1.8 3.9-.5 5.1zM1 15.8V5.1C1 4 1 2.8 2.2 2.3c1.3-.5 2.8-.6 4 .2 1 .7 1 1.9 1 2.9v21c-.1 2.8-2.6 4.2-5.1 2.8-1-.6-1.2-1.5-1.2-2.6.1-3.5.1-7.1.1-10.8zM265.2 11.9c1.6-2.7 3.3-3.7 5.8-3.3 1.4.2 2.4.9 2.8 2.3.4 1.4.2 2.6-.8 3.7-.4.5-.8.6-1.4.2-2.4-1.4-4.8-.5-5.7 2.2-.3 1-.5 2.2-.5 3.3-.1 2.1 0 4.2 0 6.4 0 3.4-2.3 3.5-4.7 2.9-.9-.3-1.2-1.1-1.2-2V10.2c0-.3.4-.8.7-.9 2.1-.9 4.1 0 4.9 2.2-.1-.1 0 .1.1.4zM99.5 14.3V1.8c0-.9.4-1.3 1.2-1.4 2.6-.5 4.4.8 4.6 3.5.1 1.8.1 3.6.1 5.4v17.4c0 2.7-2.3 4-4.7 2.7-.9-.5-1.1-1.4-1.1-2.3-.1-4.3-.1-8.6-.1-12.8zM505.8 136c-.7 1.8-1.4 3.5-2.1 5.3-.3.7-.6 1.3-1.5 1.3-.8 0-1.1-.6-1.4-1.2-.7-1.7-1.4-3.5-2.3-5.5-.1.6-.1.9-.1 1.1v6.7c0 .8 0 1.5-1.1 1.4-1 0-1-.7-1-1.4v-10c0-.6-.1-1.4.8-1.5 1-.1 2.1-.4 2.6.9.6 1.6 1.3 3.1 1.9 4.7.2.5.4.9.7 1.6.2-.5.4-.8.5-1.1.7-1.6 1.3-3.2 1.9-4.8.5-1.3 1.5-1.8 2.8-1.3.4.2.7.8.7 1.2.1 3.5 0 7 0 10.4 0 .8-.3 1.2-1.2 1.2-.8 0-1-.5-.9-1.2v-7.9c-.1.1-.2.1-.3.1zM487.4 134.4h-3.3c-.7 0-1.1-.2-1.1-1 0-.7.4-1 1-1h8.9c.4 0 .7.7 1 1-.3.3-.6.8-1 .9-.6.1-1.4.1-2 0-1-.1-1.4.2-1.4 1.3.1 2.4.1 4.9 0 7.3 0 .8.6 2.2-1 2.2-1.7 0-1.1-1.4-1.1-2.2v-8.5z"/></svg>