<svg xmlns="http://www.w3.org/2000/svg" viewBox="0 0 400 400"><path d="M387 274.86V65.7a26 26 0 00-26-26H38.84a26 26 0 00-26 26v209.16a26 26 0 0026 26h29.49l38 68.05 52-68.2 202.61.15a26 26 0 0026.06-26zM24.75 271.6V69.19a16.48 16.48 0 0116.48-16.48h315.46a16.48 16.48 0 0116.48 16.48V271.6a16.48 16.48 0 01-16.48 16.48H151.27L107 347.43l-30.5-59.35H41.23a16.48 16.48 0 01-16.48-16.48zm287.74-101.83c0-3-2.2-5.5-4.91-5.5H92.25c-2.72 0-4.92 2.47-4.92 5.5s2.2 5.51 4.92 5.51h215.33c2.71 0 4.91-2.47 4.91-5.51zm-5.92-31H91.25a5.23 5.23 0 01-4.92-5.5c0-3 2.2-5.51 4.92-5.51h215.32c2.72 0 4.92 2.47 4.92 5.51a5.23 5.23 0 01-4.92 5.47zm-39.42 67.57c0-3-2.2-5.5-4.91-5.5h-170a5.53 5.53 0 000 11h170c2.76-.03 4.91-2.49 4.91-5.53z"/></svg>