<svg xmlns="http://www.w3.org/2000/svg" viewBox="129.5 -150.5 50 50"><path d="M135.038-127.961l-4.453 3.02c-1.111.827-1.086 2.287-1.085 2.331l.011 14.576c0 .98 1.28 2.446 2.541 2.469l12.934.555h.009l.129.003c1.22 0 2.339-.693 2.771-1.09l.002.003 3.922-3.371.006.006.054-.058.011-.009-.001-.001c.745-.775.891-1.149.925-2.319l-.001-12.076h3.372l.01 11.966c.033 1.17.169 1.654.914 2.429l-.001.001.011.009.054.058.006-.006 3.912 3.362a4.078 4.078 0 002.428 1.128l.004-.04c-.004.04.05.01.075.015l.002.028.108-.006c.005 0 .009.003.014.003.008 0 .016-.004.024-.005l13.138-.589c1.403-.171 2.604-1.483 2.604-2.463l.011-14.557c.001-.057.026-1.609-1.106-2.451l-4.432-2.944c-.502-.302-.933-.433-1.765-.44v-.003l-.043.001-.059-.002v.004l-7.267.238v-12.938c0-.357-.097-.688-.254-.983l-1.218-2.925c-.448-.994-1.268-.994-1.709-.994l-14.073.022c-.863 0-1.432.351-1.685 1.02l-1.175 2.68a2.092 2.092 0 00-.363 1.18v12.944l-7.446-.244v-.004l-.059.002-.043-.001v.003c-.831.006-1.263.161-1.764.463zm16.796 16.088c-.027.943-.095 1.093-.616 1.632l-3.946 3.391-.001-.001-.02.018c.078-.241.123-.519.147-.819l.023-.322c0-.021.004-.038.004-.059h-.005l-.187-14.067c0-.349-.055-.656-.153-.926l1.757-.895h2.996l.001 12.048zm5.342-.083l-.01-11.966h2.996l1.757.895a2.661 2.661 0 00-.153.919l-.187 14.074h-.005c0 .016.005-.016.005 0l.03.381c.03.302.089.593.188.864-.019-.019-.052-.046-.068-.062l-.001.001-3.946-3.391c-.521-.54-.578-.772-.606-1.715zm16.242-15.189l3.58 2.427-13.259.522a2.103 2.103 0 001.09-1.834v-1.176l7.352-.241c.744.005.936.12 1.237.302zm-9.57 1.115a1.13 1.13 0 01-1.128 1.128h-16.261a1.13 1.13 0 01-1.128-1.128v-15.095a1.13 1.13 0 011.128-1.128h16.261c.43 0 .793.251.983.606l.015.036.007-.003c.073.15.123.312.123.489v15.095zm-16.274-18.995l14.073-.022c.445 0 .643.038.808.404l.601 1.443a2.07 2.07 0 00-.337-.034h-16.261c-.096 0-.188.016-.281.028l.618-1.41c.076-.198.204-.409.779-.409zm-11.992 17.855l-.011-.017c.297-.179.51-.255 1.249-.261l7.531.247v1.17c0 .803.456 1.494 1.118 1.85-.057-.004-.11-.014-.169-.014h-.001l-13.408-.523 3.691-2.452zm-3.523 20.72c-.665-.027-1.567-1.262-1.568-1.584l-.01-13.924h.01c-.056-1.582.277-1.696 1.181-1.791l13.608.535c.683 0 .974.333.974 1.12l.188 14.114c-.024.954-.679 1.97-1.464 1.989l-12.919-.459zm14.438-17.38a1.571 1.571 0 00-.164-.105c.043.003.083.013.126.013h.22l-.182.092zm16.15-.092c-.049.029-.097.06-.142.094l-.184-.094h.326zm14.207 17.45l-12.981.5c-.224.041-.442-.212-.641-.378-.402-.335-.654-.683-.674-1.577l.189-14.175c0-.78.291-1.113.993-1.114l13.521-.537c.972.097 1.305.212 1.248 1.793h.01l-.01 13.924c0 .002-.791 1.374-1.655 1.564z"/><path d="M158.483-128.967c-.32 0-.587-.191-.732-.525l-.886-1.953h-4.69l-.887 1.98c-.13.314-.393.497-.72.497a.715.715 0 01-.714-.714.84.84 0 01.091-.383l3.699-8.091c.181-.398.476-.6.875-.6.451 0 .758.216.918.609l3.699 8.075a.938.938 0 01.087.362.74.74 0 01-.74.743zm-5.684-3.907h3.441l-1.721-3.826-1.72 3.826zM139.146-110.295c-.088 0-.178-.002-.269-.005l-3.61-.143a.784.784 0 01-.75-.778l.065-7.933a.748.748 0 01.748-.735l3.468.137c1.099.044 1.993.376 2.586.961.442.462.663 1.01.659 1.631-.008.892-.394 1.574-1.125 2.015 1.075.493 1.615 1.254 1.607 2.267-.013 1.602-1.308 2.583-3.379 2.583zm-3.098-1.517l2.883.114c.06.002.12.004.178.004.557 0 1.855-.124 1.864-1.269.009-1.155-1.388-1.379-2.222-1.411l-2.681-.106-.022 2.668zm.034-4.055l2.51.099.156.003h.001c.52 0 1.73-.124 1.74-1.274.006-.802-.654-1.273-1.81-1.319l-2.575-.102-.022 2.593zM171.604-110.168h-.063c-2.781-.025-4.92-2.137-4.975-4.911-.028-1.351.448-2.581 1.338-3.488.885-.902 2.108-1.399 3.445-1.399 1.762.015 2.769.642 3.53 1.254.115.097.303.299.31.599a.71.71 0 01-.209.513.78.78 0 01-.551.234c-.242-.002-.423-.119-.483-.157-.818-.699-1.594-1.006-2.547-1.015h-.001c-.919 0-1.734.333-2.327.937-.621.634-.954 1.512-.934 2.471.039 1.977 1.539 3.518 3.413 3.534h.001c1.025 0 1.778-.301 2.561-1.006a.71.71 0 01.486-.201c.4.003.753.346.762.733a.707.707 0 01-.253.552c-1.039.932-2.122 1.35-3.503 1.35z"/></svg>