<svg xmlns="http://www.w3.org/2000/svg" viewBox="0 0 50 50"><path d="M33.624 21.834v-2.516h1.034a.961.961 0 00.961-.961v-3.162a2.228 2.228 0 00-2.229-2.228h-1.318l-.001-.663a4.235 4.235 0 00-3.441-4.158c-.199-.18-.762-.806-.893-2.699a3.386 3.386 0 00.675-2.031A3.416 3.416 0 0025.001 0a3.414 3.414 0 00-2.736 5.451c-.083 1.264-.38 1.97-.614 2.349a1.697 1.697 0 01-.275.346 4.236 4.236 0 00-3.447 4.159l.001.663h-1.32c-1.23 0-2.23.995-2.23 2.228v3.162c0 .251.104.501.282.679a.97.97 0 00.682.282h1.032v2.515c-1.85.653-3.183 2.398-3.183 4.473l-.002 18.936A4.762 4.762 0 0017.954 50h14.093c2.629 0 4.76-2.13 4.762-4.759V26.306c-.002-2.075-1.335-3.82-3.185-4.472zM25.001 1.925c.82.002 1.486.665 1.486 1.491 0 .403-.157.762-.419 1.027a.964.964 0 00-.272.703c.024 1.258.252 2.207.548 2.919h-2.686c.295-.712.524-1.661.548-2.919a.971.971 0 00-.27-.698 1.466 1.466 0 01-.424-1.032 1.49 1.49 0 011.489-1.491zm-5.15 10.38a2.322 2.322 0 012.318-2.316h5.664a2.318 2.318 0 012.314 2.316l.001.663H19.851v-.663zm-3.547 5.09v-2.199c0-.17.137-.306.307-.306H33.39c.17 0 .306.136.306.306v2.199H16.304zM31.7 19.318v2.228l-13.399-.002v-2.226H31.7zm3.185 25.923a2.843 2.843 0 01-2.838 2.837l-14.093-.002a2.841 2.841 0 01-2.839-2.835V26.306a2.841 2.841 0 012.839-2.838h14.093a2.843 2.843 0 012.838 2.838v18.935z"/><path d="M17.891 44.985a.88.88 0 01-.881-.881V26.409a.881.881 0 011.762 0v17.695a.881.881 0 01-.881.881z"/><path d="M23.343 27.785a.88.88 0 01-.881.881h-3.745a.881.881 0 010-1.762h3.745c.487 0 .881.395.881.881zM23.343 32.686a.88.88 0 01-.881.881h-3.745a.881.881 0 010-1.762h3.745c.487 0 .881.395.881.881zM23.343 37.587a.88.88 0 01-.881.881h-3.745a.881.881 0 010-1.762h3.745c.487 0 .881.395.881.881zM23.343 42.378a.88.88 0 01-.881.881h-3.745a.881.881 0 010-1.762h3.745c.487 0 .881.395.881.881z"/></svg>