<svg xmlns="http://www.w3.org/2000/svg" viewBox="0 0 496.32 149.04"><path fill="currentColor" d="M0 54.872c12.35 0 24.702.015 37.053-.03a1.599 1.599 0 011.773 1.25q8.965 23.641 17.984 47.262c.137.359.294.71.526 1.267.22-.49.372-.789.49-1.1q9.097-23.781 18.18-47.569c.255-.67.465-1.11 1.372-1.107 12.19.04 24.382.026 36.573.028.198 0 .397.017.785.034-.167.422-.294.77-.44 1.111q-19.59 45.78-39.16 91.57a1.596 1.596 0 01-1.765 1.138q-16.069-.05-32.137 0a1.463 1.463 0 01-1.59-1.038Q20.186 102.108.684 56.547A11.563 11.563 0 000 55.351zM321.53 54.955h36v16.13c.418-.352.654-.516.85-.72 4.306-4.474 8.78-8.763 14.348-11.66 9.224-4.8 18.642-5.212 28.079-.7 5.073 2.424 8.404 6.625 10.8 11.615.273.567.527 1.143.681 1.478 3.151-2.759 6.162-5.687 9.471-8.23a36.342 36.342 0 0122.16-7.923c7.183-.071 13.89 1.503 19.281 6.693a26.058 26.058 0 017.373 14.228 56.104 56.104 0 011.134 10.318c.103 20.285.05 40.57.05 60.855v1.592H435.63v-1.387q0-24.498-.014-48.996a17.262 17.262 0 00-.332-3.445c-1.067-5.167-4.349-7.69-9.85-7.669a17.349 17.349 0 00-10.067 3.332 2.198 2.198 0 00-.673 1.596c-.041 8.345-.029 16.691-.029 25.037v31.492h-36.127v-1.355q0-24.318-.024-48.636a18.785 18.785 0 00-.56-4.733c-1.435-5.404-5.275-6.885-10.04-6.815a17.479 17.479 0 00-9.324 3.064 2.025 2.025 0 00-1.038 1.942q.042 27.553.02 55.106v1.469H321.53zM224.21 135.943a29.3 29.3 0 11-18.49-45.438c2.868-20.407 13.294-35.407 32.355-43.692 13.901-6.042 28.123-5.81 41.991.314a52.745 52.745 0 0125.942 72.317c-7.714 15.172-20.175 24.694-36.887 28.058-16.71 3.364-31.715-.852-44.912-11.559zm55.53-40.307a21.089 21.089 0 10-21.517 21.02 21.141 21.141 0 0021.517-21.02zm-79.639 33.313a9.723 9.723 0 10-9.775-9.726 9.748 9.748 0 009.776 9.726z"/><path fill="currentColor" d="M122.676 54.885h36.022v16.487c8.903-12.236 21.162-16.484 35.476-16.566v23.435c-1.935.476-3.937.843-5.858 1.46-15.507 4.985-24.79 15.707-28.496 31.349a45.394 45.394 0 00-1.007 9.723c-.133 8.821-.045 17.646-.045 26.47v1.4c-.53.023-.959.06-1.387.06-11.111.002-22.223-.014-33.334.026-1.098.004-1.397-.283-1.395-1.39q.045-45.572.024-91.146zM146.718 33.46c0 2.958.005 5.623-.002 8.288-.006 2.85-2.405 4.302-4.925 2.909a3.196 3.196 0 01-1.172-1.547 4.742 4.742 0 01-.188-1.768q-.016-12.327-.007-24.654c0-1.428.277-1.725 1.703-1.854 2.563-.234 3.64.54 4.516 3.295a21.274 21.274 0 011.653-1.803c3.164-2.757 8.781-2.395 12.054.745 4.403 4.225 4.313 13.182-.083 17.403-3.087 2.965-9.691 4.11-13.55-1.014zm5.026-13.902c-.123.011-.482.029-.837.078a4.656 4.656 0 00-4.188 4.815c.002.957-.007 1.916.054 2.87a5.104 5.104 0 005.887 4.71c3.136-.447 5.072-3.046 4.903-6.583-.173-3.623-2.345-5.916-5.819-5.89zM15.25 7.713c.71.069 1.432.095 2.137.217a2.603 2.603 0 012.114 1.72q4.855 12.286 9.762 24.55a1.157 1.157 0 01-.446 1.536 4.013 4.013 0 01-6.505-1.618 62.873 62.873 0 01-1.589-4.125.997.997 0 00-1.13-.772c-2.878.03-5.756.034-8.634-.003a1.05 1.05 0 00-1.21.83c-.478 1.436-1 2.862-1.6 4.25a3.815 3.815 0 01-6.132 1.523c-.74-.557-.648-1.134-.357-1.881q4.69-12.03 9.328-24.08a2.844 2.844 0 012.465-1.965c.592-.077 1.188-.121 1.796-.181zm-.026 6.462L11.43 24.214h7.6zM90.598 25.235c2.374 2.907 4.661 5.777 7.034 8.574.73.86.512 1.365-.246 1.943a4.027 4.027 0 01-5.852-.648c-2.218-2.668-4.426-5.344-6.799-8.21a9.45 9.45 0 00-.141 1.045c-.01 1.955.017 3.91-.013 5.865-.028 1.843-.872 2.752-2.538 2.824-2.544.109-3.395-.473-3.667-2.524a9.106 9.106 0 01-.08-1.19q-.006-12.57-.002-25.14c0-1.374.246-1.642 1.624-1.796 2.722-.304 4.286.784 4.532 3.498.216 2.375.118 4.78.135 7.171.017 2.382.004 4.764.004 7.516 1.204-1.499 2.192-2.718 3.169-3.947 1.042-1.312 2.045-2.656 3.116-3.944a3.87 3.87 0 015.727-.541c.7.579.868 1.07.2 1.865-2.08 2.472-4.08 5.01-6.203 7.639zM58.782 27.464a5.262 5.262 0 004.894 4.884c2.778.285 5.247-.251 6.965-2.726a.97.97 0 01.788-.296 2.76 2.76 0 011.926 4.368 6.363 6.363 0 01-1.718 1.626c-3.925 2.572-11.049 2.233-14.732-.65-3.53-2.764-4.871-7.746-3.395-12.61a10.723 10.723 0 019.445-7.478c5.759-.448 10.066 2.23 11.465 7.24a15.412 15.412 0 01.44 3.657c.049 1.598-.365 1.973-1.976 1.98-4.234.015-8.468.005-12.702.005zm10.258-3.758c-.29-3.261-2.21-4.95-5.328-4.807a5.122 5.122 0 00-4.889 4.807zM188.935 25.782c.001 6.746-4.643 11.273-11.557 11.265-6.81-.008-11.396-4.538-11.416-11.276-.02-6.694 4.695-11.309 11.545-11.3 6.735.008 11.427 4.652 11.428 11.31zm-17.453-.033c.003 3.681 2.557 6.384 6.007 6.357a5.954 5.954 0 005.875-6.235c.031-3.73-2.451-6.456-5.885-6.462-3.496-.005-6 2.642-5.997 6.34zM123.152 21.834a8.193 8.193 0 00-8.046-2.684c-.308.063-.713.112-.88.32-.394.495-.923 1.083-.92 1.63a1.857 1.857 0 001.063 1.346c1.538.533 3.155.831 4.724 1.283a22.792 22.792 0 013.268 1.13 5.856 5.856 0 011.052 9.974 11.718 11.718 0 01-4.226 1.798 15.45 15.45 0 01-7.818-.265 10.079 10.079 0 01-3.442-1.811 2.814 2.814 0 01-.039-4.4c.47-.432.832-.572 1.408-.043a9.386 9.386 0 008.228 2.253c.311-.048.719-.074.895-.274.435-.497 1.033-1.08 1.05-1.644a1.946 1.946 0 00-1.072-1.457c-1.41-.524-2.914-.793-4.372-1.195a23.618 23.618 0 01-2.961-.921c-4.96-2.102-4.324-7.965-1.481-10.118a10.407 10.407 0 013.584-1.807 14.948 14.948 0 017.928.188 8.426 8.426 0 012.456 1.191c2.31 1.628 2.155 3.97-.4 5.506zM39.994 30.574l2.712-7.749c.658-1.88 1.253-3.784 1.99-5.632 1.063-2.67 3.713-3.277 5.936-1.448a1.073 1.073 0 01.37 1.44Q47.297 26 43.647 34.836a2.728 2.728 0 01-2.353 1.78 11.057 11.057 0 01-2.507.002 2.804 2.804 0 01-2.426-1.846Q32.732 25.99 29 17.251a1.136 1.136 0 01.476-1.6c2.428-1.752 5.008-1.025 6.028 1.827 1.407 3.938 2.71 7.913 4.06 11.871.11.327.228.652.43 1.225zM135.572 25.783c0 2.63.007 5.26-.001 7.89-.007 2.035-.78 2.903-2.604 2.953-2.56.071-3.535-.662-3.619-2.863-.067-1.751-.016-3.506-.016-5.26 0-3.467.011-6.934-.003-10.4-.014-3.346 1.95-3.724 4.815-3.062 1.094.252 1.429 1.29 1.428 2.373q-.002 4.185 0 8.369zM495.882 141.159a7.46 7.46 0 11-14.92-.01 7.292 7.292 0 017.503-7.596c4.425.014 7.425 3.09 7.417 7.606zm-1.463.024a5.99 5.99 0 10-11.974-.12 6.022 6.022 0 006.02 6.253 5.86 5.86 0 005.954-6.133zM178.316 12.218a12.872 12.872 0 01-6.149-1.996c-1.715-1.153-2.362-3.07-1.521-4.391.909-1.429 2.863-1.671 4.684-.51a14.35 14.35 0 014.56 4.966c.949 1.605.712 1.954-1.574 1.931zM65.802 12.271a13.265 13.265 0 01-6.609-1.929 5.92 5.92 0 01-1.657-1.662 2.445 2.445 0 01.04-3.008 2.595 2.595 0 012.983-.97 7.933 7.933 0 012.85 1.64 31.07 31.07 0 013.25 3.935 2.035 2.035 0 01.367 1.607c-.105.292-.96.315-1.224.387zM132.507 11.503c-2.202-.002-3.49-1.179-3.484-3.184.006-1.977 1.353-3.199 3.513-3.186 2.186.014 3.487 1.214 3.48 3.212-.007 2.001-1.295 3.16-3.51 3.158z"/><path fill="currentColor" d="M490.33 142.098l1.6 2.171c-.81 1.111-1.583 1.157-2.37.156-.37-.47-.67-.996-1.049-1.457a9.389 9.389 0 00-1.104-.922c0 .918.001 1.458 0 1.998a.937.937 0 01-1.019 1.058.963.963 0 01-1.132-1.07q-.006-2.875-.003-5.75a1.004 1.004 0 011.114-1.117c1.038-.012 2.08-.04 3.114.04a2.4 2.4 0 012.494 1.839c.306 1.357-.14 2.203-1.645 3.054zm-3.078-1.346c1.836.229 2.628-.05 2.599-.874-.042-1.175-.981-1.084-1.745-1.048-1.524.071-.53 1.214-.854 1.922z"/></svg>