<svg xmlns="http://www.w3.org/2000/svg" viewBox="0 0 157 69"><path d="M135.037.036h-29.952l-8.983 8.985v29.95l8.983 8.984h29.952l8.985-8.984v-8.984l-2.995-2.999h-14.975v2.999h-11.98v-11.98h11.98v2.957h14.975l2.995-2.958V9.021L135.037.036m-89.851 0h-11.98L30.21 3.031v11.98L15.235.036H3.255L.26 3.031v41.93l2.995 2.994h11.98l2.996-2.994V32.982l14.974 14.973h11.98l2.996-2.994V3.03L45.186.036" fill="currentColor"/><path d="M66.15 47.957h11.982l2.993-2.996v-8.985l14.977-14.975V3.03L93.107.036H81.125l-2.993 2.995v5.99l-5.99 5.99-5.992-5.99V3.03L63.155.036h-11.98l-2.994 2.995V21l14.974 14.975v8.985l2.995 2.996M142.458 1.25c-.097-.056-.254-.082-.468-.082h-.328v.792h.347c.164 0 .285-.016.367-.049.15-.06.227-.174.227-.342 0-.159-.049-.265-.145-.32zm-.417-.346c.272 0 .47.027.597.08.226.094.34.278.34.553 0 .196-.072.34-.215.432a.846.846 0 01-.316.106c.17.027.297.099.377.214a.614.614 0 01.118.338v.16c0 .051.001.105.005.163a.342.342 0 00.02.113l.012.027h-.36l-.005-.021-.006-.024-.009-.07V2.8c0-.252-.069-.419-.205-.5-.082-.047-.225-.07-.43-.07h-.302v.86h-.387V.903h.766zm-1.172-.11a1.66 1.66 0 00-.498 1.212c0 .477.165.884.494 1.22.334.337.738.505 1.213.505.478 0 .882-.168 1.213-.505.333-.336.5-.743.5-1.22 0-.474-.167-.878-.5-1.212a1.64 1.64 0 00-1.213-.506c-.47 0-.874.168-1.21.506zm2.621 2.622a1.92 1.92 0 01-1.412.586c-.55 0-1.02-.195-1.408-.586a1.94 1.94 0 01-.577-1.413c0-.548.195-1.017.583-1.406.388-.387.855-.58 1.402-.58.554 0 1.023.193 1.412.58.39.388.583.857.583 1.406 0 .552-.193 1.023-.583 1.413zM2.611 56.403c1.048-1.06 2.382-1.59 4-1.59 2.167 0 3.75.71 4.752 2.131.553.798.85 1.599.89 2.402h-2.69c-.174-.617-.398-1.083-.672-1.397-.49-.56-1.214-.839-2.175-.839-.978 0-1.75.395-2.314 1.184-.565.789-.847 1.905-.847 3.349 0 1.444.298 2.526.895 3.245.597.719 1.355 1.078 2.275 1.078.943 0 1.662-.308 2.157-.925.274-.332.501-.83.682-1.494h2.663c-.233 1.403-.828 2.544-1.786 3.424-.958.879-2.185 1.318-3.681 1.318-1.852 0-3.307-.593-4.367-1.781-1.06-1.194-1.59-2.83-1.59-4.909 0-2.247.603-3.98 1.808-5.196zm18.32 2.07a2.8 2.8 0 011.183.934c.262.355.422.72.48 1.096.059.376.088.989.088 1.839v5.59H20.14V62.14c0-.513-.087-.926-.262-1.24-.227-.443-.658-.664-1.292-.664-.658 0-1.158.22-1.498.66-.34.439-.511 1.066-.511 1.881v5.153h-2.48V55.1h2.48v4.55c.36-.552.779-.938 1.253-1.156a3.542 3.542 0 011.498-.328c.588 0 1.122.102 1.603.306zm6.633-1.197H25.04V54.98h2.524v2.297zm-2.524 1.136h2.524v9.52H25.04v-9.52zm7.476 9.52h-2.49V55.057h2.49V67.93zm7.476-9.368c.449.254.812.604 1.092 1.053v-4.542h2.524v12.856h-2.42v-1.318c-.354.564-.76.975-1.213 1.231-.454.256-1.02.384-1.695.384-1.112 0-2.048-.45-2.808-1.349-.76-.9-1.14-2.054-1.14-3.463 0-1.624.375-2.903 1.123-3.834.748-.932 1.748-1.398 3-1.398.576 0 1.089.127 1.537.38zm.612 6.782c.366-.524.55-1.202.55-2.035 0-1.164-.294-1.997-.882-2.498a1.898 1.898 0 00-1.258-.454c-.728 0-1.262.275-1.603.826-.34.55-.51 1.232-.51 2.048 0 .879.173 1.582.52 2.109.346.527.871.79 1.576.79.704 0 1.24-.262 1.607-.786zm10.554-7.157c.032.003.104.007.214.013v2.55a6.752 6.752 0 00-.716-.043c-1.001 0-1.674.326-2.017.978-.192.367-.289.931-.289 1.694v4.55h-2.506v-9.52h2.375v1.66c.385-.635.72-1.068 1.005-1.301.466-.39 1.071-.586 1.817-.586.046 0 .085.002.117.005zm4.088 2.563c-.317.361-.517.85-.598 1.467h3.869c-.041-.657-.24-1.157-.599-1.497-.358-.341-.802-.511-1.332-.511-.576 0-1.023.18-1.34.541zm3.48-2.148c.635.297 1.159.765 1.572 1.406.373.565.615 1.22.725 1.965.064.437.09 1.065.079 1.886h-6.516c.035.955.335 1.625.9 2.01.344.238.757.357 1.24.357.513 0 .929-.145 1.25-.436a2.1 2.1 0 00.462-.655h2.542c-.064.564-.358 1.138-.883 1.72-.815.926-1.956 1.389-3.423 1.389-1.211 0-2.28-.39-3.205-1.17-.926-.78-1.39-2.05-1.39-3.808 0-1.648.419-2.912 1.254-3.79.836-.88 1.92-1.32 3.253-1.32.792 0 1.506.149 2.14.446zm11.743.353c.626.516.939 1.37.939 2.564v6.41h-2.55v-5.79c0-.5-.067-.885-.201-1.153-.245-.49-.71-.734-1.398-.734-.844 0-1.423.358-1.738 1.075-.163.378-.244.861-.244 1.45v5.152h-2.48V58.43h2.401v1.389c.32-.49.623-.842.908-1.057.513-.384 1.162-.577 1.948-.577.984 0 1.789.258 2.415.773zm3.27.136c.571-.18.964-.486 1.18-.917a1.6 1.6 0 00.148-.778h-1.37v-2.297h2.488v1.843c0 .88-.214 1.572-.642 2.079-.428.506-1.029.835-1.803.987v-.917zm5.561 5.799c.052.443.166.757.34.943.31.332.88.498 1.712.498.49 0 .878-.073 1.166-.218.289-.146.433-.364.433-.655a.706.706 0 00-.35-.638c-.233-.145-1.097-.396-2.594-.75-1.077-.269-1.837-.604-2.28-1.005-.442-.396-.663-.967-.663-1.712 0-.88.345-1.635 1.035-2.267.69-.631 1.661-.947 2.913-.947 1.188 0 2.156.237 2.904.712.748.474 1.177 1.294 1.288 2.458h-2.49c-.034-.32-.124-.573-.27-.76-.273-.337-.74-.506-1.397-.506-.542 0-.927.084-1.157.253-.23.169-.345.367-.345.594 0 .285.122.492.366.62.245.134 1.11.364 2.594.69.99.233 1.733.585 2.227 1.057.49.477.734 1.074.734 1.79 0 .944-.35 1.714-1.052 2.31-.702.597-1.786.896-3.254.896-1.496 0-2.6-.316-3.314-.948-.713-.632-1.07-1.437-1.07-2.415H79.3zm14.432-8.49c1.048-1.059 2.381-1.589 4-1.589 2.166 0 3.75.71 4.751 2.131.553.798.85 1.599.891 2.402h-2.69c-.175-.617-.399-1.083-.673-1.397-.489-.56-1.214-.839-2.174-.839-.978 0-1.75.395-2.315 1.184-.564.789-.847 1.905-.847 3.349 0 1.444.299 2.526.895 3.245.597.719 1.356 1.078 2.275 1.078.944 0 1.663-.308 2.158-.925.273-.332.5-.83.681-1.494h2.664c-.233 1.403-.828 2.544-1.786 3.424-.958.879-2.185 1.318-3.682 1.318-1.851 0-3.307-.593-4.366-1.781-1.06-1.194-1.59-2.83-1.59-4.909 0-2.247.603-3.98 1.808-5.196zm16.716 6.9a2.705 2.705 0 01-.476.24 3.98 3.98 0 01-.659.171l-.559.105c-.524.093-.9.206-1.127.34-.384.227-.576.58-.576 1.057 0 .425.118.732.354.922.235.189.522.283.86.283.536 0 1.03-.157 1.48-.471.452-.315.686-.888.703-1.72v-.927zm-1.51-1.161c.46-.058.788-.131.986-.218.356-.152.533-.388.533-.708 0-.39-.135-.66-.406-.808-.27-.148-.668-.223-1.192-.223-.588 0-1.005.146-1.25.437-.174.216-.29.507-.348.874h-2.402c.052-.833.285-1.517.698-2.053.658-.838 1.788-1.258 3.39-1.258 1.041 0 1.967.207 2.777.62.809.414 1.214 1.194 1.214 2.341v4.367c0 .303.005.67.017 1.1.017.327.067.548.149.664a.892.892 0 00.366.289v.366h-2.707a2.773 2.773 0 01-.157-.541 6.528 6.528 0 01-.07-.577c-.344.373-.74.69-1.188.952-.536.31-1.141.463-1.817.463-.861 0-1.573-.246-2.135-.738-.562-.492-.843-1.189-.843-2.091 0-1.17.451-2.018 1.354-2.542.495-.285 1.223-.489 2.183-.611l.847-.105zm14.292-2.585c.708.902 1.062 2.067 1.062 3.493 0 1.48-.35 2.705-1.049 3.677-.698.973-1.673 1.459-2.925 1.459-.786 0-1.418-.158-1.896-.472-.285-.186-.593-.512-.925-.978v1.196h-2.437V55.075h2.48v4.577c.315-.443.661-.78 1.04-1.013.448-.292 1.019-.437 1.711-.437 1.252 0 2.232.451 2.94 1.354zm-2.083 5.799c.356-.518.533-1.2.533-2.044 0-.675-.087-1.234-.262-1.677-.332-.838-.943-1.257-1.834-1.257-.902 0-1.523.41-1.86 1.231-.175.437-.262 1.002-.262 1.694 0 .816.18 1.491.541 2.027.361.535.911.803 1.65.803.641 0 1.14-.259 1.494-.777zm7.485-8.079h-2.524V54.98h2.524v2.297zm-2.524 1.136h2.524v9.52h-2.524v-9.52zm12.625.545c.626.516.939 1.37.939 2.564v6.41h-2.55v-5.79c0-.5-.067-.885-.201-1.153-.245-.49-.71-.734-1.398-.734-.844 0-1.423.358-1.738 1.075-.163.378-.244.861-.244 1.45v5.152h-2.48V58.43h2.401v1.389c.32-.49.623-.842.908-1.057.513-.384 1.162-.577 1.948-.577.984 0 1.789.258 2.415.773zm5.65 1.795c-.317.361-.516.85-.598 1.467h3.87c-.041-.657-.24-1.157-.599-1.497-.358-.341-.802-.511-1.332-.511-.576 0-1.023.18-1.34.541zm3.481-2.148c.635.297 1.159.765 1.572 1.406.373.565.615 1.22.725 1.965.064.437.09 1.065.079 1.886h-6.516c.035.955.335 1.625.9 2.01.343.238.757.357 1.24.357.512 0 .929-.145 1.249-.436.175-.158.329-.376.463-.655h2.541c-.064.564-.358 1.138-.882 1.72-.815.926-1.956 1.389-3.423 1.389a4.83 4.83 0 01-3.206-1.17c-.925-.78-1.388-2.05-1.388-3.808 0-1.648.417-2.912 1.253-3.79.836-.88 1.92-1.32 3.253-1.32.792 0 1.505.149 2.14.446zm3.074 1.668v-1.773h1.328v-2.655h2.463v2.655h1.546v1.773h-1.546v5.03c0 .39.05.634.148.73.1.096.402.144.909.144a6.985 6.985 0 00.489-.018v1.86l-1.18.044c-1.175.041-1.979-.163-2.41-.611-.28-.285-.419-.725-.419-1.319v-5.86h-1.328z" fill="currentColor"/></svg>