<svg xmlns="http://www.w3.org/2000/svg" viewBox="0 0 507.937 145.089"><path fill="currentColor" d="M444.491 13.252c-12.643 0-23.474 6.9-31.927 16.594-4.414-11.027-12.949-16.594-25.186-16.594-12.662 0-21.694 7.784-29.723 16.411V13.206l-36.06-.018v93.9h36.06V49.162a18.038 18.038 0 0110.83-3.822c5.83 0 10.233 2.817 10.233 11.645v50.103h36.052V49.231a18.155 18.155 0 0110.86-3.817c5.806 0 10.231 2.811 10.231 11.638v50.036h36.06v-61.51c0-19.89-8.75-32.326-27.43-32.326M258.747.88a53.028 53.028 0 00-52.783 48.045 29.246 29.246 0 1018.288 45.238A53.028 53.028 0 10258.747.88M200.16 87.384a9.789 9.789 0 119.801-9.792 9.788 9.788 0 01-9.8 9.792m58.587-12.331a21.134 21.134 0 1121.127-21.121 21.118 21.118 0 01-21.127 21.121"/><path fill="currentColor" d="M194.253 36.607V13.194s-23.336-1.795-35.488 16.697V13.1l-36.002.08v93.869h36.002V78.516c0-17.638 11.486-38.045 35.488-41.91M57.339 63.243L38.287 13.181H0l40.109 93.869h34.515l40.121-93.869H76.452L57.339 63.243zM14.397 127.401l-4.284 1.585v10.834c0 2.772-1.332 3.06-5.94 2.987a9.277 9.277 0 00-.755-2.34c1.007.036 1.907.073 2.627.073 1.548 0 1.728 0 1.728-.72v-10.006a286.3 286.3 0 01-4.5 1.584.66.66 0 01-.431.61l-.9-2.807a153.7 153.7 0 005.83-1.835v-8.315H2.339v-2.268h5.435v-7.379l3.024.18c-.036.289-.216.432-.684.504v6.696h4.14v2.267h-4.14v7.559l3.96-1.295zm11.518 12.131a23.886 23.886 0 003.672.252h6.407a7.7 7.7 0 00-.756 2.16H29.48c-5.184 0-8.963-1.007-11.41-5.544a16.096 16.096 0 01-4.032 6.516 8.255 8.255 0 00-1.764-1.296c2.844-2.448 4.428-6.983 5.075-12.203l2.88.505c-.072.287-.288.395-.72.431a30.391 30.391 0 01-.612 3.24 8.317 8.317 0 004.68 5.256v-10.907h-8.567v-2.16h20.625v2.16h-9.718v4.427h8.026v2.088h-8.026zm7.523-28.832v12.346H16.701V110.7zm-2.34 5.219v-3.312H18.932v3.312zm0 5.22v-3.384H18.932v3.384zM43.054 122.11a42.571 42.571 0 01-4.392 6.012 17.825 17.825 0 00-1.26-2.268c3.456-3.744 6.911-9.971 9-16.198l2.879.972c-.145.252-.396.36-.828.324a65.347 65.347 0 01-3.312 7.451l.972.252c-.072.216-.252.396-.72.432v23.865h-2.34zm14.542 12.707c-.108.216-.396.324-.792.288a30.005 30.005 0 01-7.667 7.847 13.469 13.469 0 00-1.872-1.584 24.525 24.525 0 007.379-7.63zm8.243-5.22h5.975v2.34H47.337v-2.34h5.868v-9.682h-4.752v-2.268h4.752v-7.595l3.095.18c-.036.252-.252.432-.72.504v6.91h7.847v-7.594l3.096.18c-.036.252-.217.433-.684.504v6.911h5.399v2.269h-5.4zm-10.259-9.682v9.683h7.847v-9.683zm13.498 23.037a45.565 45.565 0 00-6.839-8.135l2.088-1.116a49.89 49.89 0 016.983 7.955zM86.54 127.474l-4.355 1.548v10.87c0 2.592-1.187 2.988-5.975 2.916a10.397 10.397 0 00-.792-2.232c1.692.036 3.24.036 3.707.036.469-.036.685-.18.685-.684v-10.042c-1.692.575-3.24 1.115-4.464 1.512a.584.584 0 01-.432.576l-1.008-2.844c1.62-.433 3.672-1.044 5.904-1.728v-8.46h-5.472v-2.267h5.472v-7.27l3.096.18c-.037.288-.216.432-.72.504v6.587h4.14v2.267h-4.14v7.703l4.031-1.26zm17.566-3.491l1.584.72a1.198 1.198 0 01-.324.395 25.625 25.625 0 01-6.875 10.871 24.88 24.88 0 009.43 4.787 11.392 11.392 0 00-1.583 2.088 26.114 26.114 0 01-9.683-5.327 32.316 32.316 0 01-10.726 5.363 9.723 9.723 0 00-1.332-2.16 28.74 28.74 0 0010.33-4.896 26.192 26.192 0 01-5.47-8.962l1.69-.54H87.44v-2.232h8.1v-6.407h-8.675v-2.304h8.675v-6.01l3.132.215c-.036.252-.216.432-.72.504v5.291h9.287v2.304H97.95v6.407h5.724zm-12.454 2.34a23.811 23.811 0 005.075 8.026 21.675 21.675 0 005.652-8.026zM119.301 110.448a.715.715 0 01-.756.288 48.764 48.764 0 01-7.199 7.955 15.92 15.92 0 00-1.404-1.764 31.978 31.978 0 006.66-7.523zm-4.86 16.414a40.62 40.62 0 01-3.13 4.103 13.327 13.327 0 00-1.297-1.98 44.593 44.593 0 007.236-11.77l2.7 1.008c-.109.252-.36.36-.793.324-.72 1.584-1.583 3.203-2.483 4.751l.72.252c-.073.217-.252.396-.72.469v18.825h-2.232zm9.288-1.728c-.072.216-.289.36-.685.396-.431 4.751-1.223 9.79-2.771 12.743a12.428 12.428 0 00-1.62-1.044c1.404-2.808 2.087-7.776 2.411-12.671zm9.97-5.291h-5.759v22.425h-2.268v-22.425h-5.651v-2.196h5.651v-7.739l2.952.18c-.036.252-.216.432-.684.504v7.055h5.76zm-2.915-9.467a19.992 19.992 0 013.24 4.86l-1.728.935a24.268 24.268 0 00-3.168-5.003zm1.151 25.52a69.47 69.47 0 00-1.98-10.906c1.369-.252 1.62-.324 1.836-.36a67.447 67.447 0 012.088 10.872zm11.663-14.29v2.196h-3.348v16.09c0 2.772-1.115 2.952-6.443 2.952a7.909 7.909 0 00-.756-2.376c1.188.036 2.232.072 3.024.072 1.728 0 1.836 0 1.836-.647v-16.091h-4.391v-2.195zm-.612-10.042v2.196h-8.639v-2.196zM173.407 123.334l1.8 1.044a.879.879 0 01-.504.36 26.288 26.288 0 01-9.539 11.41 41.677 41.677 0 0014.506 4.5 10.751 10.751 0 00-1.548 2.304 40.081 40.081 0 01-15.334-5.364 49.615 49.615 0 01-15.298 5.255 8.743 8.743 0 00-1.332-2.303 50.002 50.002 0 0014.47-4.428 26.546 26.546 0 01-7.882-9.574l2.051-.756h-5.651v-2.376h12.455v-5.903h-14.435v-2.376h14.435v-5.723l3.203.216c-.036.252-.252.431-.72.504v5.003h14.578v2.376h-14.578v5.903h8.855zm-18.394 2.448a23.024 23.024 0 007.955 9 22.849 22.849 0 008.46-9zM193.065 127.69l-3.275 1.188v10.979c0 2.844-1.404 3.023-6.228 3.023a7.695 7.695 0 00-.756-2.34c.792.037 1.512.037 2.16.037 2.52 0 2.52-.037 2.52-.756v-10.116l-4.103 1.44a.66.66 0 01-.468.54l-.9-2.772c1.511-.432 3.42-1.008 5.471-1.656v-8.063h-5.112v-2.268h5.112v-7.522l3.023.18c-.036.288-.215.432-.72.504v6.839h4.068v2.267h-4.067v7.344l2.951-.937zm18.034 2.196l1.367.648a.571.571 0 01-.287.36 16.843 16.843 0 01-4.68 7.234 26.251 26.251 0 008.17 2.664 9.298 9.298 0 00-1.475 2.052 26.97 26.97 0 01-8.531-3.275 23.54 23.54 0 01-7.487 3.275 7.646 7.646 0 00-1.368-1.836 23.55 23.55 0 006.983-2.735 17.098 17.098 0 01-4.607-5.076l1.944-.648a14.918 14.918 0 004.427 4.464 13.444 13.444 0 003.888-5.112H199.4c-1.404 4.5-3.42 8.244-6.299 10.8a11.819 11.819 0 00-1.8-1.369c3.6-3.023 5.795-8.098 7.055-14.326h-4.823v-2.052h5.219c.18-1.044.324-2.088.468-3.168h-5.291v-2.015h13.678l-.432-.18a35.83 35.83 0 003.527-6.264l2.664.972c-.072.216-.324.324-.72.324a47.301 47.301 0 01-3.311 5.147h4.103v2.016h-11.914a83.396 83.396 0 01-.468 3.168h14.074v2.052h-14.47a71.401 71.401 0 01-.684 2.95h10.69zm2.303-18.538a.899.899 0 01-.36.073.994.994 0 01-.324-.037 132.545 132.545 0 01-18.897 2.088 6.301 6.301 0 00-.576-1.872c6.407-.36 14.254-1.116 18.501-2.195zm-16.233 2.7a17.103 17.103 0 011.907 4.679l-1.98.685a18.858 18.858 0 00-1.8-4.789zm6.659-.504a18.683 18.683 0 011.151 4.895l-2.015.432a22.227 22.227 0 00-1.044-5.004zM487.173 107.303a7.187 7.187 0 01-5.358-2.11 8.009 8.009 0 01.02-10.785 7.846 7.846 0 0110.72-.034 8.027 8.027 0 01-.021 10.797 7.205 7.205 0 01-5.361 2.132m.024-1.317a5.752 5.752 0 004.342-1.73 6.744 6.744 0 00-.033-8.91 6.272 6.272 0 00-8.676-.022 6.728 6.728 0 00.034 8.898 5.75 5.75 0 004.333 1.764m2.299-2.21a1.399 1.399 0 01-1.23-.782l-1.36-1.943h-.804v1.72q0 .96-.915.96h-.29q-.894 0-.895-1.184v-5.539q0-1.16 1.095-1.16h2.389q3.26 0 3.26 2.523a2.16 2.16 0 01-1.831 2.3l1.787 2.345c.029.044-.008.126-.112.245a1.668 1.668 0 01-.47.347 1.32 1.32 0 01-.624.168m-3.44-6.298v2.032h1.318c.85 0 1.273-.335 1.273-1.005q0-1.026-1.318-1.027z"/></svg>