<svg xmlns="http://www.w3.org/2000/svg" viewBox="0 0 507.937 145.089"><path fill="currentColor" d="M444.491 51.252c-12.643 0-23.474 6.9-31.927 16.594-4.414-11.027-12.949-16.594-25.186-16.594-12.662 0-21.694 7.784-29.723 16.411V51.206l-36.06-.018v93.9h36.06V87.162a18.038 18.038 0 0110.83-3.822c5.83 0 10.233 2.817 10.233 11.645v50.103h36.052V87.231a18.155 18.155 0 0110.86-3.817c5.806 0 10.231 2.811 10.231 11.638v50.036h36.06v-61.51c0-19.89-8.75-32.326-27.43-32.326M258.747 38.88a53.028 53.028 0 00-52.783 48.045 29.246 29.246 0 1018.288 45.238 53.028 53.028 0 1034.495-93.283m-58.588 86.504a9.789 9.789 0 119.801-9.793 9.789 9.789 0 01-9.8 9.793m58.587-12.331a21.134 21.134 0 1121.127-21.121 21.118 21.118 0 01-21.127 21.121"/><path fill="currentColor" d="M194.253 74.607V51.194s-23.336-1.795-35.488 16.697V51.1l-36.002.08v93.869h36.002v-28.533c0-17.639 11.486-38.046 35.488-41.91M57.339 101.243L38.287 51.181H0l40.109 93.869h34.515l40.121-93.869H76.452l-19.113 50.062zM384.282 33.218h-1.826a5.126 5.126 0 00-1.278.13q-.484.128-.484.365 0 .129 1.053.537t1.053 1.267a14.008 14.008 0 01-.354 2.847 13.899 13.899 0 01-.978 2.997 6.761 6.761 0 01-2.643 2.363 24.325 24.325 0 01-5.263 2.364 21.12 21.12 0 01-6.403 1.074 7.614 7.614 0 01-5.263-1.612 6.015 6.015 0 01-1.784-4.705 18.956 18.956 0 01.817-5.886 38.703 38.703 0 014.039-7.864l1.203.903a36.853 36.853 0 00-2.771 5.478 11.558 11.558 0 00-.752 4.018 3.973 3.973 0 001.267 3.115 5.052 5.052 0 003.502 1.139 22.802 22.802 0 005.865-.838 23.509 23.509 0 004.867-1.816q2.03-1.063 2.03-1.75 0-.215-1.204-.258t-2.148-.043a15.178 15.178 0 01-2.943-.172.77.77 0 01-.666-.795 7.928 7.928 0 01.419-2.45 5.897 5.897 0 01.999-1.976 13.689 13.689 0 013.351-2.922 7.56 7.56 0 013.889-1.353h2.406z"/><path fill="currentColor" d="M396.228 33.218h-13.45v-5.843h11.301a6.726 6.726 0 00-.86-2.471 16.114 16.114 0 00-1.503-1.934l1.719-5.113a10.152 10.152 0 012.202 3.824 22.33 22.33 0 01.59 5.93zm-.645-19.378a2.292 2.292 0 01-.516 1.01 1.743 1.743 0 01-.73.387l-4.64 1.418a4.312 4.312 0 01.751-1.064 3.7 3.7 0 011.117-.591 3.674 3.674 0 01-.87-.72 1.046 1.046 0 01-.268-.655 1.473 1.473 0 01.172-.634 3.587 3.587 0 01.45-.698q1.397-1.87 2.772-1.87a.85.85 0 01.656.27.995.995 0 01.247.697 1.62 1.62 0 01-.097.591 5.424 5.424 0 01-.397.741 4.263 4.263 0 00-1.461-.537 1.715 1.715 0 00-.774.194 1.803 1.803 0 00-.472.343q0 .28 1.03.86a3.685 3.685 0 001.483.58 9.84 9.84 0 001.547-.322zM406.54 33.218h-3.008a3.82 3.82 0 01-3.63-2.062q-1.247-2.277-1.247-7.67v-6.123a7.386 7.386 0 00-.58-3.244 7.868 7.868 0 00-1.289-1.611l2.32-5.372a11.287 11.287 0 011.74 3.395 17.89 17.89 0 01.58 4.984v4.233a21.768 21.768 0 00.602 6.23q.471 1.397 1.504 1.397h3.008z"/><path fill="currentColor" d="M418.485 33.218h-13.449v-5.843h11.3a6.726 6.726 0 00-.859-2.471 16.114 16.114 0 00-1.503-1.934l1.718-5.113a10.152 10.152 0 012.202 3.824 22.33 22.33 0 01.591 5.93zm-2.191 4.534l-2.578 4.812-4.985-2.707 2.579-4.898zM444.095 14.334h-11.688V11.54h1.375a4.24 4.24 0 001.375-.838q.472-.344 1.096-.86a18.387 18.387 0 00-.387-3.931l-.558-2.235-.602-.365a15.373 15.373 0 01.988-3.008l.473.194a.793.793 0 00-.043.257q0 .366 1.01.86.236.108 1.01.408a8.498 8.498 0 01-.322 1.504q-.109.301-.409 1.074l-.365-.129a19.491 19.491 0 01.537 3.373v.13a5.091 5.091 0 01-.107.987q.838-.622 2.557-1.718a3.089 3.089 0 011.31-.473q2.75 0 2.75 2.664zm1.697 18.884h-9.732a3.402 3.402 0 01-2.17-.601 2.858 2.858 0 01-.924-2.385q0-.945.097-2.04t.29-2.214l.816-.043a1.611 1.611 0 00.763 1.096 2.792 2.792 0 001.429.344h7.39a8.471 8.471 0 00-1.718-3.545 6.27 6.27 0 00-2.815-2.063l1.547-6.703a9.055 9.055 0 013.953 4.727 17.207 17.207 0 011.074 6.53zm-3.115-22.709q0-.601-.774-.837a4.378 4.378 0 00-1.31-.15q-1.289 0-3.974 2.02h2.685q3.372-.001 3.373-1.033zM464.827 33.712a6.776 6.776 0 01-1.504 3.47 17.41 17.41 0 01-3.523 3.75 6.676 6.676 0 01-3.824 1.761 9.207 9.207 0 01-4.061-1.074 53.185 53.185 0 01-5.908-3.695l.902-1.332a17.1 17.1 0 003.115 1.74 7.104 7.104 0 002.557.45 5.98 5.98 0 002.965-.837 26.192 26.192 0 004.039-3.115q3.565-3.18 3.566-4.898a5.495 5.495 0 00-.687-2.256 8.999 8.999 0 00-1.89-2.643l1.202-5.8a10.716 10.716 0 012.256 3.458 11.74 11.74 0 01.795 4.448zM484.679 31.736a11.148 11.148 0 01-3.137 7.305q-3.138 3.609-6.188 3.609a8.328 8.328 0 01-3.899-1.139 56.388 56.388 0 01-6.499-4.49l.902-1.246a18.147 18.147 0 003.803 2.063 8.355 8.355 0 006.897-.73 19.483 19.483 0 004.984-4.426 10.997 10.997 0 01-1.504.129 4.343 4.343 0 01-3.384-1.386 5.402 5.402 0 01-1.257-3.77 13.799 13.799 0 011.483-6.21q1.611-3.244 3.674-3.244 1.718 0 2.922 2.342a12.245 12.245 0 011.203 5.65zm-2.578-4.361q-.603-3.459-2.45-3.46a1.265 1.265 0 00-1.063.527 1.864 1.864 0 00-.398 1.15 1.474 1.474 0 00.85 1.278 4.356 4.356 0 002.244.505zM494.991 33.218h-3.008a3.82 3.82 0 01-3.63-2.062q-1.247-2.277-1.247-7.67v-6.123a7.386 7.386 0 00-.58-3.244 7.872 7.872 0 00-1.289-1.611l2.32-5.372a11.287 11.287 0 011.74 3.395 17.89 17.89 0 01.58 4.984v4.233a21.763 21.763 0 00.602 6.23q.472 1.397 1.504 1.397h3.008z"/><path fill="currentColor" d="M506.937 33.218h-13.45v-5.843h11.301a6.726 6.726 0 00-.86-2.471 16.114 16.114 0 00-1.503-1.934l1.719-5.113a10.152 10.152 0 012.202 3.824 22.33 22.33 0 01.59 5.93zM506.593 37l-2.235 4.168-3.18-1.59-1.804 3.48-3.91-2.191 2.363-4.383 3.05 1.719 1.72-3.395zm-.774 6.639l-2.191 4.382-3.996-2.062 2.148-4.469zM489.331 144.735a7.191 7.191 0 01-5.358-2.11 8.009 8.009 0 01.021-10.785 7.846 7.846 0 0110.72-.034 7.328 7.328 0 012.075 5.38 7.402 7.402 0 01-2.097 5.416 7.206 7.206 0 01-5.36 2.133m.023-1.317a5.753 5.753 0 004.342-1.732 6.744 6.744 0 00-.033-8.91 6.271 6.271 0 00-8.676-.02 6.727 6.727 0 00.034 8.897 5.747 5.747 0 004.333 1.765m2.3-2.211a1.4 1.4 0 01-1.23-.781l-1.36-1.944h-.805v1.72q0 .96-.915.96h-.29q-.894 0-.895-1.183v-5.539q0-1.16 1.095-1.16h2.39q3.26 0 3.26 2.523a2.158 2.158 0 01-1.832 2.299l1.787 2.345c.03.045-.008.126-.112.246a1.688 1.688 0 01-.47.347 1.319 1.319 0 01-.624.167m-3.439-6.297v2.032h1.317c.85 0 1.273-.335 1.273-1.006q0-1.024-1.318-1.026z"/></svg>