<svg class="splatter-3" fill="none" xmlns="http://www.w3.org/2000/svg"><path d="M175.429 451.948c3.006-2.99 2.165-7.667 5.708-10.372 3.506-2.677 8.842-3.611 12.042-2.764 6.247 1.649 8.642 11.428 15.219 11.064 7.156-.403 3.693-11.316 9.51-15.214 3.326-2.228 8.127-1.262 12.525-.292 2.963.653 5.742 1.305 7.762.981 5.543-.894 6.933-8.53 8.874-9.679 2.48-1.465 5.343-.756 8.159-.042 2.006.504 3.985 1.012 5.789.731 1.057-.165-1.507-1.857.634-2.763.295-.127 1.219.277 2.09.678.777.361 1.511.72 1.716.705 9.329-.814 3.39-22.931 6.972-30.429 1.947-4.074 8.447-8.657 12.049-10.372 3.823-1.822 8.379-.66 10.778-2.768 5.335-4.69-3.522-17.634-2.536-24.204.094-.609 2.489-5.801 3.17-6.916.722-1.182 5.892-9.634 8.242-11.066 2.908-1.766 6.989-1.628 11.092-1.488 5.779.199 11.605.397 14.269-4.732 5.234-10.087-3.326-13.604-9.515-17.982-2.192-1.552-3.812-6.37-5.07-7.605-7.497-7.373-15.4-8.664-15.216-19.365.021-1.215 1.501-.745 1.902-2.076 1.691-5.555-1.699-16.423.636-22.126 2.282-5.577 15.748-12.703 9.508-22.13-.019-.029-5.943-2.763-6.972-2.77-4.005-.006-6.605 3.147-8.876 3.462-5.029.686-9.956-3.183-11.412-5.533-6.9-11.138 4.335-14.017 8.876-20.054 2.732-3.635 2.965-9.833 5.704-13.141 2.361-2.847 8.059-3.916 11.412-5.533 8.77-4.217 11.069-.022 19.657 4.153 1.571.765 5.958 2.255 6.974 2.07 4.43-.797 6.718-11.756 5.702-15.904-1.642-6.726-10.484-6.791-13.31-11.76-4.056-7.107-1.194-15.642 5.704-18.666.096-.045.715.151 1.394.345.694.199 1.451.397 1.774.344 1.654-.281 3.539-2.505 4.438-2.763 4.97-1.428 8.229.147 9.512-4.84 1.516-5.892-11.177-19.043-12.684-22.132-4.786-9.833-1.414-27.657 6.976-31.118 2.31-.954 4.976-.934 7.486-.914 3.156.026 6.07.051 7.732-1.853 4.308-4.943-2.273-7.837-2.536-10.375-1.084-10.324 10.51-9.416 15.213-14.517 3.082-3.347 1.624-5.905 4.442-6.224.815-.096 7.194 3.58 13.985 7.257 6.777 3.67 13.967 7.34 16.443 7.26 2.549-.083 4.648-2.936 5.704-2.764.16.027.931 2.763.639 2.763 1.464.022 2.82-1.913 4.434-2.07 2.126-.209 4.651.003 7.266.215 3.595.29 7.361.582 10.488-.214 4.054-1.04 9.092-6.577 13.312-8.301 13.488-5.504 21.982-17.877 26.627-31.12 1.584-4.512 5.332-15.33 5.074-20.745-.045-.906-2.282-2.036-2.536-3.46-.773-4.31 4.643-11.023 4.436-15.907-.009-.203-1.904-5.529-1.9-5.529-2.636-2.79-8.49-1.264-11.412-2.768-2.509-1.286-8.014-8.655-7.608-12.446.147-1.392 3.543-3.653 3.172-5.535-.788-4.004-4.842-3.78-7.929-3.555-.839.062-1.605.122-2.215.1-5.126-.194-6.39-3.729-10.145-5.533-2.448-1.173-6.118-.816-8.242-2.07-2.256-1.338-3.228-5.111-5.076-6.229-6.244-3.775-11.325-.408-16.354 2.958-4.471 2.993-8.9 5.985-14.073 3.96-2.685-1.05-5.11-5.798-7.61-7.605-.177-.131-.7-.008-1.323.117-.839.167-1.86.332-2.477-.117-.324-.238-.277-2.658-.636-2.767-3.627-1.164-7.232-.323-10.543.517-2.901.736-5.574 1.47-7.841.863-1.26-.334-6.172-3.557-7.611-4.84-.956-.851-1.601-4.522-3.168-5.53-7.292-4.699-15.002.038-12.68 8.298 1.522 5.41 9.577 8.937 10.776 14.521.782 3.635-1.707 10.016-1.268 15.217.233 2.747 1.719 5.071 1.904 7.602.57 7.877-.674 29.945-6.34 31.123-2.602.537-8.355-6.216-14.586-7.61-2.455-.548-4.449-.134-6.054.277-1.448.374-2.579.745-3.45.417-1.919-.727-1.362-3.328-3.806-5.535-2.876-2.596-9.611-7.113-13.951-8.99-3.853-1.67-7.96-3.707-10.14-4.15-4.568-.915-5.264-5.369-6.974-3.457-3.155 3.528-13.381-9.791-14.582-10.375-.75-.362-1.157-.185-1.495-.01-.331.17-.591.344-1.041.01-3.561-2.63-9.611-8.814-10.145-15.902-.924-12.384 1.334-25.256-.634-35.961-.892-4.867-2.557-13.352-5.074-15.906-1.499-1.523-4.223-.604-5.07-2.765-3.33-8.497 1.526-26.528 3.172-30.429 2.652-6.28 11.163-31.49-.636-31.807-5.467-.154-4.342 4.759-5.706 6.916-.711 1.122-2.57.785-3.17 1.383-3.593 3.537-2.276 7.933-2.536 11.751-.092 1.327-3.288 6.253-3.804 8.989-.299 1.611-.069 1.571-.419 1.53-.256-.029-.817-.058-2.117.551-7.948 3.698-2.995 24.09-12.681 25.585-7.04 1.081-7.2-6.292-12.046-10.375-1.161-.983-3.398-.611-4.436-1.385-4.921-3.653-5.555-11.204-6.976-13.138-2.216-3.024-10.262-7.284-12.681-6.913-4.555.695-8.861 9.574-12.676 13.14-2.068 1.931-2.512 3.967-4.438 5.531-2.794 2.265-8.899 1.592-13.314 3.456-1.678.707-3.663 4.05-4.436 4.149-1.228.158-2.707-.814-4.237-1.785-2.558-1.623-5.258-3.247-7.177.404.584-3.764-.412-3.149-1.19-2.531-.311.245-.587.493-.712.457-.673-.198-3.952-2.409-7.607-3.457-4.512-1.293-6.438-8.97-8.88-9.683-1.923-.562-12.469 3.213-13.946 4.839-1.189 1.314.574 2.605-.634 3.461-.395.281-1.247-.015-2.062-.312-.726-.263-1.422-.53-1.74-.381-.468.218-.51 2.25-1.268 2.763-2.447 1.671-6.432 4.985-8.876 6.225-.754.379-1.755.211-2.729.046-.875-.149-1.727-.301-2.344-.046-2.531 1.039-4.576 9.757-4.438 11.757.173 2.484.703 2.471.782 2.456.07-.012-.214-.023-1.418 1.692-.702 1.02-1.652 7.425-2.534 8.301-1.422 1.407-9.294 4.636-12.676 4.84-2.532.151-4.933-.509-7.158-1.17-3.996-1.186-7.411-2.372-9.965 1.17-.894 1.248-.11 3.978-.631 5.532-2.51 7.523-11.39 12.077-15.217 17.983-3.642 5.622-.07 9.045-.634 13.831-1.065 9.066-6.22 11.267-9.508 16.593-1.003 1.623-.395 3.958-1.272 5.533-1.697 3.069-5.506 5.553-5.702 8.99-.109 1.91 1.878 3.137 1.266 4.844-.64 1.781-4.453 2.245-5.706 4.84-1.119 2.318.106 5.137-.632 6.221-1.048 1.537-2.748.808-4.438 2.079C9.496 16.29-2.55 27.544 1.719 35.642c3.72 7.065 13.836 12.226 15.849 18.669 2.717 8.687.501 22.826-3.17 29.048-2.272 3.85-7.602 4.889-10.142 10.37-5.897 12.728 2.709 21.178 7.604 29.049 1.372 2.201 5.45 8.285 5.708 8.987.213.582-1.275 3.23-1.268 3.462.211 8.867 7.482 11.775 10.778 16.592.412.6-.37 2.13 0 2.768 1.556 2.692 5.646 4.933 6.972 7.607 3.988 8.02.047 12.141 1.27 22.132.376 3.096 2.967 6.16 2.538 8.294-.313 1.535-1.976 1.285-1.91 2.77.427 8.803 5.636 13.555 10.782 13.83 10.02.53 13.582-.502 20.289 8.298 3.823 5.016 6.457 12.607 10.14 17.288 4.086 5.183 10.716 8.294 13.95 13.138 5.333 7.989-.352 20.503-5.706 24.896-.352.288-1.001.165-1.65.04-.576-.111-1.153-.221-1.52-.04-2.53 1.26-7.982 5.245-9.51 6.914-.188.211-.182 3.461-.636 4.152-1.106 1.704-2.76 1.682-4.735 1.659-1.266-.013-2.666-.029-4.135.413-2.158.651-8.407 6.227-13.95 7.607-.829.208-1.576.092-2.28-.024-.752-.121-1.456-.243-2.157.024-11.941 4.601-.99 24.59 5.073 20.056 1.056-.789-1.766-3.055 0-2.765 1.34.223 2.753 4.077 6.972 6.224 3.761 1.914 5.928 2.877 6.342 6.225.685 5.597-5.282 5.191-6.342 7.607-4.09 9.315 17.513 16.438 19.652 20.745.224.448-.82 4.025-.632 4.839 1.1 4.749 4.419 7.115 3.17 13.834-.636 3.412-8.336 10.806-5.07 15.215 1.546 2.087 6.084 1.534 10.37.981 2.921-.377 5.724-.754 7.38-.295 2.259.632 7.194 4.677 8.24 6.227 4.501 6.655-3.458 23.089 6.341 25.587 8.861 2.259 17.393 2.547 22.824 12.447 1.236 2.252-.597 4.324 1.27 6.224 4.81 4.9 9.284 1.256 13.964-2.388 3.592-2.799 7.311-5.598 11.393-4.525 3.52.921 7.042 7.509 8.238 11.753 1.253 4.429.74 7.029 2.542 8.989.553.609 2.133 3.515 4.771 3.515 1.159 0 2.526-.564 4.101-2.132z" fill="#0055B8" fill-rule="evenodd"/></svg>