<svg class="splatter-1" fill="none" xmlns="http://www.w3.org/2000/svg"><path d="M166.747-58.507c-.433 1.709.435 5.612-.425 9.037-2.145 8.535-12.851 7.449-21.357 5.126-23.926-6.551-1.226-24.12-16.623-28.328-5.108-1.389-7.738 23.493-26.076 23.955L96.78-70.328c.43-1.703-1.293-2.176-1.293-2.176-1.292-.352-2.69-.272-4.076.112-.384-7.403-1.978-14.547-6.034-15.658-3.025-.83-6.487-.08-6.884 1.5-3.595 14.292-4.452 24.234.049 32.243 2.528.691 4.609 1.22 6.681.918-2.152 8.567-11.136 7.937-16.671 8.252-1.674-7.769-5.062-16.02-13.611-18.357-1.723-.472-3.378-.926-4.246 2.494-.43 1.711-.056 7.31.801 11.202-3.012 11.987-10.688 20.835-22.629 17.57-3.168-.865-9.122-10.234-13.176-17.226 6.75.657 7.81-3.305 8.816-7.293.788-3.14-.312-5.118-4.442-7.921-1.495-.411-1.098-1.981-2.616-2.403-4.5-1.218-9.793.683-10.98 5.385-1.484 5.932-.88 9.41 4.268 11.16L8.81-32.217c-.435 1.704 3.81 6.515 3.383 8.229C10.627-17.751-2.229-2.531-10.003 5.56c-2.784-4.325-6.009-8.63-9.847-10.422-.624 2.477 1.988 6.137 4.885 11.565-13.424-5.126-20.226-18.045-26.62-19.793-1.723-.476-3.811.771-4.246 2.485-3.007 11.974 22.537 18.953 19.09 32.64-1.285 5.145-5.96 9.355-11.068 7.961-1.717-.477-3.01-2.653-6.4-3.585-1.717-.473-8.124 3.26-8.552 4.974-.865 3.417 8.066 11.349 5.93 19.894-.855 3.375-2.11 5.812-3.668 7.577-1.489-.283-3.232.745-3.232.745.39-1.546-1.113-1.965-2.612-2.37-1.502-.407-6.4-.089-8.299 1.07a68.72 68.72 0 001.597 4.311c-4.033-.419-8.516-1.628-13.212-2.912 4.68 3.105 8.928 7.934 7.641 13.047-2.147 8.567-11.999 11.351-13.71 18.204-1.089 4.299 10.954 7.123 10.614 25.008-2.065-1.02-4.328-2.107-6.723-2.758-3.014-.825-8.311 1.071-9.102 4.216-.51 2.015.402 3.713 1.909 4.904-.975 1.017-1.464 2.904-1.945 4.819 3.01.822 7.51 2.058 7.907.486a4.534 4.534 0 00-.325-3.159c2.114.486 4.717.945 7.132.9-.194.91-.345 1.778-.59 2.747-1.715 6.835-14.088 5.289-17.476 4.357-1.76 21.47 28.133 18.672 21.252 46.056-.2.776-.62 1.609-1.136 2.453-2.231 1.386-4.194 3.334-5.435 6.57.186.222.422.443.616.665a7.204 7.204 0 00-.496 1.348c-2.58 10.257 25.607 14.299 21.3 31.409-.851 3.431-5.107 5.925-7.686 8.859 8.93 15.236-12.411 27.693 30.236 39.359-2.15 8.557-6.453 18.352-10.322 26.428-.428 1.719 2.146 6.084 3.805 6.533 8.564 2.341 15.381-10.415 22.695-17.551 11.472 12.267 23.837 28.454 29.753 41.042-.425 1.7-2.523 2.958-2.958 4.666-.865 3.436-.049 7.315 3.398 8.252 7.26.158 19.19-3.897 23.491-6.375 2.106 6.06 25.122 23.323 21.685 37.008l-7.306 29.089c3.44-6.37 10.689-28.171 14.13-27.223 3.389.924 6.4 3.58 8.072 4.042 3.444.945 5.537-.323 7.682-1.548-.863-3.888-1.661-7.772-.369-12.917 1.717-6.837 6.825-12.758 15.804-12.131 15.326 4.197 19.146 18.056 34.528 22.258.627.173 1.638.168 2.733.152-1.43 2.392-2.733 5.329-3.672 9.053-.394 1.564.699 3.559 2.191 3.964 1.174.321 5.253-5.005 9.772-11.589 3.959 2.833 1.932 9.264 9.412 11.312 2.733.745 5.476-.585 7.695-1.92 1.932-1.158 3.467-2.322 4.243-2.109l1.722.459c.008-7.312 2.152-15.871 4.729-26.142 2.236-1.516 5.074-2.805 8.268-3.999 2.101 2.972.985 7.481-1.159 16.027-1.183 4.712-1.889 1.156-3.074 5.868 4.399 1.209 4.527 1.209 8.048-.932-.514.761-.908 1.762-1.226 3.03-1.197 4.771 4.893 6.431 6.436 6.845 3.017.825 5.745-3.51 6.543-6.685.402-1.588-.734-3.601-2.228-4.015-5.285-1.444-7.808-1.276-9.274.526.228-1.727-2.887-7.505-1.349-13.637.929-3.679 2.48-6.776 4.463-9.355 19.057-5.382 45.672-8.428 56.297-17.935 1.323-5.278-3.16-8.885-4.688-12.628 4.898-2.694 21.252-5.654 23.297-13.797-1.09-.996-1.566-2.138-1.686-3.457 2.656 1.182 5.123 3.006 7.858 3.759 3.445.934 5.594-.302 6.881-5.436-3.17-7.606-7.677-9.477-6.361-17.735 4.473-6.324 10.271-13.175 15.487-16.547 7.441.158 14.854 4.05 16.525-2.571 1.221-4.859-3.447-9.552-6.789-16.445 3.821-4.613 8.734-13.813 8.445-12.663 1.709-6.794.54-14.379.335-22.895 2.398-.473 4.86-.096 7.178.277 4.76.769 8.895 1.541 10.553-5.059 2.121-8.436-9.744-8.02-15.131-14.224 3.47-5.817 13.867-12.171 13.867-12.171-.719-.198-1.796-9.526-2.705-19.092 2.04-2.159 3.654-4.055 4.064-5.683.437-1.725-1.953-5.15-5.305-8.357-.322-3.948-.524-6.647-.524-6.647.629-2.504 1.548-5.98 3.047-8.682.579 2.974 3.091 7.518 4.535 10.041l35.697 49.43c2.398.659 6.52 4.407 8.867 5.048.253-1.014 3.037.008 6.344 1.031 4.68 1.447 10.412 2.894 11.505-1.445 5.596-22.268-64.056-67.733-59.304-66.425-1.945-.537-5.366-1.436-6.935-.478a85.258 85.258 0 01-1.277-2.453c1.226-1.242 2.196-2.585 2.592-4.179-.854-3.905-2.582-4.362-4.296-4.832-.891-.253-1.689-.328-2.454-.352-3.491-9-6.538-20.683-4.13-30.243l.79-3.131c3.074.84 4.614-2.286 5.791-5.412 1.111-2.953 1.899-5.908 3.35-5.516.09-6.677 2.84-17.65 1.354-18.05-3.869-1.057-6.413 4.413-8.378 9.886-1.866 5.198-3.214 10.399-4.678 9.996 2.3-2.71 4.66-12.129 6.633-19.962-2.301 2.707-1.973 7.833-4.975 7.003a102.585 102.585 0 00-.985 4.277c-.681-1.335-1.474-2.192-2.452-2.454-1.832-.499-3.789-.49-5.775-.261a273.78 273.78 0 01-3.923-6.824c5.689-3.473 17.386-5.297 19.358-13.138.395-1.578.784-3.14-.708-3.545 0 0-3.793 2.312-21.268 14.29-6.328-4.895-4.969-12.125-14.847-15.697-.486-3.303-2.879-6.114-5.284-7.329-3.99-11.146-9.32-32.378-9.031-33.555-3.403.747-5.287 1.903-7.201 3.062-1.494-.409-1.1-1.984-2.587-2.39-3.012-.824-4.199 3.89-5.77 10.161-.781 3.084-1.704 6.838-2.068 10.052-2.3-2.683-4.217-5.62-5.642-9.106 4.296-17.113 20.973-25.358 23.547-35.615 0 0-1.292-2.186-3.014-2.656-4.635 9.245-12.061 17.703-20.828 21.52 1.198-2.933 2.339-6.401 3.394-10.611-6.106-1.67-9.778 5.203-13.629 12.774a22.482 22.482 0 01-5.669-.82c-23.875-6.527-32.332-38.088-51.092-50.543l8.161-32.498c-5.957 9.338-11.124 22.548-13.703 32.813z" fill="#0055B8" fill-rule="evenodd"/></svg>