<svg class="splatter-2" fill="none" xmlns="http://www.w3.org/2000/svg"><path d="M581.204 17.189c-1.534 3.012-3.594 7.049-4.177 10.589-4.817-2.687-13.607 16.97-15.149 19.993-.433-.24-7.375 6.568-16.483 13.377-11.429 8.538-26.264 17.077-35.917 11.702-8.691-4.842-9.792-19.656-18.417-24.466-8.898 2.803-13.462 9.323-20.457 15.755-.955-.528-17.654 3.064-18.685 5.059-4.284-3.657-10.01-9.416-14.827-12.107-3.065-1.694-6.9.152-11.341 1.998-3.95 1.642-8.392 3.284-13.197 2.427.376 4.073 1.691 11.266-.372 15.275-4.388 8.587-10.378 7.498-17.592 6.404-7.164-1.081-15.544-2.166-24.745 6.236-1.546 3.012-1.3 12.191-2.842 15.227-.506.985-7.375 2.343-9.304 1.266-3.862-2.159-6.651-6.316-10.551-8.47-5.753-3.205-8.2-3.26-10.252.772-3.095 6.036 5.826 20.017-1.871 35.12-1.73-.989-1.895-1.057-2.677.453-22.275 42.649-36.623 94.246-91.965 123.847 7.191 2.583 14.639 8.266 22.033 13.897-3.632-.052-7.509-.865-11.429-3.048-19.812-11.022-9.71-14.21-27.314-24.042-9.097 6.713-18.179 13.473-29.178 7.377-2.186-1.237-3.245-4.754-3.076-10.593-3.402 1.085-7.782-1.342-12.185-3.801 0 0 1.185-2.327-1.039-3.556l-3.325 1.117c-2.355 4.57 4.061 14.078.556 20.942 0 0-49.693 25.432-58.518 20.526-6.596-3.664-1.611-24.502 1.91-31.375 1.093-2.143 5.971-.893 11.23.356 6.032 1.434 12.564 2.864 14.451-.821 1.177-2.303.119-5.839.119-5.839-6.19-3.452-15.445-.993-22.03-3.741.575.545.928.837.928.837l-2.224-1.221c.402.22.882.22 1.296.384-3.712-3.512-17.665-18.106-10.528-32.08 2.351-4.61 6.923-7.97 12.622-13.633-4.702-2.615-9.158-2.571-13.289-2.527-3.601.036-6.957.076-10.025-1.638-.882-9.296-11.456-32.893-11.456-32.893 5.726-5.667 10.436-14.875 13.949-21.759-4.553-2.536-10.256 4.565-15.303 11.674-4.702 6.62-8.836 13.237-10.95 12.063-11.007-6.139-7.336-18.811-11.731-21.254-2.758-1.53-4.422-.413-6.689.705-3.18 1.561-7.555 3.127-17.815-2.592-6.6-3.668.284-11.61-4.122-14.049-6.892-3.837-13.374.564-19.246 4.962-5.392 4.037-10.267 8.074-14.478 5.735-10.976-6.12-.226-35.524-12.318-42.277-2.65 16.22-3.091 33.682-3.214 39.522-20.262 6.464-43.733 8.122-46.077 12.72-1.17 2.294-2.347 4.581 2.087 7.048-12.653 13.625-35.223 24.647-39.645 22.188 0 0-2.132-1.201-1.05-3.428-2.244 4.562 4.31 8.214 8.686 10.649 5.438 5.96 3.095 10.541-.437 17.454l-2.19-1.217c-1.178 2.294-1.323 8.102-2.49 10.397-.406.776-1.675.732-3.359.692-3.306-.088-8.211-.172-11.314 5.904-1.17 2.295-2.343 4.598-.161 5.819 2.217 1.238 7.793 1.386 9.976 2.603 2.09 7.065-2.769 22.076-6.267 28.929-8.231 16.112 13.91 22.544 10.405 29.416-1.178 2.287-3.371 1.082-8.073 10.285 4.387 2.439 9.998 2.591 14.374 5.03 0 0 16.254 17.911 11.556 27.126-1.166 2.275-5.68 5.656-5.68 5.656l-.177 5.807c.664.376 2.815.272 5.918.164 7.325-.244 19.943-.493 30.77 5.531 6.616 3.689-6.167 23.113-1.768 25.56 1.016.569 3.517-1.778 6.562-4.125 3.586-2.764 7.924-5.523 11.498-3.537 2.217 1.238 5.415 5.984 6.428 9.484 10.148-3.196 7.206-19.568 20.392-12.231 2.193 1.229 3.095 10.589 9.687 14.246l7.046-13.786c4.395 2.46 7.62 7.189 9.81 8.411 5.73 3.188 8.645-1.582 11.828-6.352 2.938-4.397 6.11-8.795 11.94-6.965 8.79 4.906 6.446 9.516 17.457 15.64 2.347-4.598 1.289-8.15 2.466-10.445 2.343-4.582 5.776-5.675 13.52-4.294 2.047 7.069-1.623 19.761-6.321 28.961-4.395-2.447-7.924 4.437-10.26 9.023 9.7 14.222 18.785 7.509 8.22 28.199l1.177-2.303c4.403 2.439 1.308 36.122 10.121 41.036 1.009.564 1.588-.361 2.343-1.282.894-1.085 2.033-2.171 4.415-.849 24.192 13.477 10.263 35.228 21.258 41.352 3.464 1.934 6.405.316 9.051-1.302 2.401-1.462 4.553-2.928 6.635-1.762 11.015 6.14 17.458 15.636 30.667 22.997 1.081-2.131 7.847-5.904 12.365-4.53-.664-.617-1.07-1.009-1.07-1.009l2.201 1.221c-.326-.184-.756-.068-1.131-.212 4.18 4.117 18.719 21.102 5.542 46.919 3.363-1.074 5.541.144 6.711-2.147s-4.081-14.086 1.776-25.544c12.921-25.299 42.671-11.674 42.671-11.674 2.224 1.249 2.224 1.249 1.054 3.544 2.171 1.209 5.554.144 5.554.144.149-5.839 1.492-13.913 2.669-16.228 9.078 2.139 16.672-.108 24.273-2.355 8.882-2.627 17.776-5.251 29.063-.889-2.792 7.565-4.947 13.681-5.599 15.459 16.503 22.416 36.135 45.481 54.943 64.553 10.175-24.042 25.324-30.711 49.402-24.102-.495.989 6.685 25.664 8.618 26.737 7.528 4.197 12.407-1.265 18.474-6.732 7.133-6.428 15.916-12.852 32.58-3.581 0 0 11.828 15.616 10.796 17.642 9.178 3.809 14.946 7.025 21.056-2.487 2.048-4.021 3.137-8.603 4.679-11.618 3.597-7.037 43.433-36.542 68.481-22.593 5.792 3.236 5.063 11.867 10.827 15.087 4.848 2.684 10.804-1.73 11.843-3.756 5.677-11.058-5.791-22.593-1.146-31.668 7.505.393 11.57-.609 14.466-1.61 5.001-1.73 6.524-3.46 16.269 1.966-2.04 4.005 7.586 9.372 9.534 10.45 1.907 1.065 7.364-2.355 9.416-6.368 4.641-9.064-6.93-15.508-.752-27.567 6.666-13.076 16.68-3.62 26.709-13.557-1.914-1.065-1.408-2.062-.89-3.072.502-.997 2.493-2.479 3.003-3.496 1.039-2.023-3.582-12.328-1.013-17.358 3.851-7.537 17.665-12.812 31.043-17.181-2.896 5.975-2.39 12.447 8 18.238 1.5.834 2.968 1.21 4.384 1.19-1.646 4.061-.388 4.822.84 5.503 1.488.825 2.957 1.638 5.231.957 1.507-2.948 1.588-6.584-1.013-8.35 2.171-1.614 4.158-4.126 5.884-7.542-.955-.532-9.55-7.93-8.522-9.956l-5.416-3.012c9.504-3.044 17.339-5.787 18.912-8.863 2.312-1.106 5.2.348 7.828 1.806 2.991 1.658 5.645 3.316 6.738 1.19 3.858 2.138 7.226 5.302 10.566 8.43 1.526-2.996 6.792 1.242 7.732 1.746 1.668-8.114-3.636-9.792-9.427-13-1.028 2.007-20.879-5.17-24.733-7.305-12.549-6.981-20.358-25.568-14.72-36.618.395.216 3.222-1.578 7.218-3.368 5.898-2.651 14.347-5.303 21.247-1.462 3.843 2.131 42.375 4.213 47.407-.741-8.23-3.284-18.574 0-27.253-4.83-5.772-3.216-11.015-7.449-16.292-11.667-1.039 2.007-7.843.789-13.615-2.419-3.847-2.158-14.336-13.144-7.145-27.238l7.199-14.089c2.554-5.019.31-12.72 6.489-24.815 5.822.677 12.599 1.886 18.436 2.567-.081.004-.058.004.065.008-.019-.004-.046-.004-.065-.008.844-.028 13.074-.104 24.215-2.475.207.176.399.336.599.452 1.365.749 2.684 1.462 4.652-1.746 5.71-1.706 10.527-4.189 12.388-7.826 2.585-5.066-4.81-2.679-2.213-7.749-8.238-4.57-16.277-3.517-24.818-2.463-9.469 1.165-19.56 2.331-31.219-4.162 0 0-13.17-20.265-2.903-40.378 6.178-12.079 17.818-8.174 23.464-19.224 3.091-6.048.625-6.116-5.592-10.89-1.553 3.024-20.162 5.559-25.059 5.455-2.428-.076-3.394-.597-5.324-1.682-7.689-4.281-8.479-31.856-6.934-34.864 1.488-.488 38.671-22.42 58.254-24.414 3.098-6.048 4.326-15.708-4.373-20.546.978.549-21.124 5.03-26.263 15.095-1.423-.256-5.603 3.616-11.613 7.485-8.346 5.383-20.231 10.762-33.16 5.063 1.028-2.003-.375-4.094-2.305-5.147-.989-.569-3.417-.613-4.383-1.153-3.851-2.143-9.423-13.021-7.878-16.032.518-1.018 2.489-2.487 3.521-4.498.514-1.005.594-3.548-1.369-4.646 2.052-4.013 5.561-5.971 7.099-8.959 1.542-3.032.238-10.205-4.56-12.884-5.373-2.992-10.259-.088-15.03 2.811-4.653 2.836-9.194 5.663-13.953 3.016-3.862-2.151-4.177-8.787-2.052-15.359 2.052-4.025 6.758-15.612 11.548-12.944 2.059-4.03 1.749-10.666 3.801-14.679 6.684-13.1 24.668-9.527 35.464-30.65l-9.638-5.379c-2.57 5.047-5.408.877-9.001 7.914-2.566 5.03-5.224 12.628-5.726 13.613-3.398-1.882-8.338 2.944-13.144 7.766-4.705 4.73-9.285 9.46-12.146 7.87-11.82 23.14-38.532 17.306-65.122 6.364.065-2.527-1.361-4.622-1.818-6.148.522-1.025 2.524-2.523 3.548-4.51.502-1 .579-3.544-1.327-4.601 3.513-4.522 7.045-9.036 9.611-14.034-6.75-3.757 9.009-46.694 2.255-50.451-3.091 6.052-6.612 10.545-9.703 16.585z" fill="#0055B8" fill-rule="evenodd"/></svg>